<svg width="600" height="200"><path fill="#EAEAEA" d="M371.772,241.328l-0.004-204.159c0-10.642-8.627-19.269-19.269-19.269H243.308 c-10.642,0-19.269,8.627-19.269,19.269l0.011,204.17L371.772,241.328z"/><linearGradient id="a" gradientUnits="userSpaceOnUse" x1="297.92" y1="1357.87" x2="297.92" y2="1623.62" gradientTransform="translate(0 -1344)"><stop offset="0" style="stop-color:#FFFFFF;stop-opacity:0"/><stop offset=".63" style="stop-color:#D7DADD;stop-opacity:0.6316"/><stop offset="1" style="stop-color:#BEC3C8"/></linearGradient><path fill="url(#a)" d="M355.603,241.332l16.183-0.006V37.168c0-10.642-8.627-19.269-19.269-19.269H243.326 c-10.642,0-19.269,8.627-19.269,19.269l-0.003,204.159C267.904,241.326,311.752,241.335,355.603,241.332z"/><path fill="#8C9196" d="M370.039,37.168v204.158h3.457V37.168c0-11.578-9.419-20.997-20.997-20.997H243.308 c-11.578,0-20.998,9.419-20.998,20.997v204.158h1.12h0.069l2.269,0.002V37.168c0-9.672,7.868-17.54,17.541-17.54H352.5 C362.171,19.628,370.039,27.497,370.039,37.168z"/><linearGradient id="b" gradientUnits="userSpaceOnUse" x1="222.31" y1="1472.75" x2="373.5" y2="1472.75" gradientTransform="translate(0 -1344)"><stop offset=".51" style="stop-color:#8C9196;stop-opacity:0"/><stop offset=".58" style="stop-color:#8C9196;stop-opacity:0.1312"/><stop offset="1" style="stop-color:#8C9196"/></linearGradient><path fill="url(#b)" d="M371.765,241.328l1.731-0.002V37.169c0-11.578-9.419-20.998-20.998-20.998h-109.19 c-11.578,0-20.998,9.419-20.998,20.998l0.005,204.161h1.717l0.007-204.161c0-10.642,8.627-19.269,19.269-19.269h109.191 c10.642,0,19.269,8.627,19.266,19.271V241.328L371.765,241.328L371.765,241.328z"/><path fill="#FFFFFF" d="M224.554,241.328l0.002-204.159c0-10.338,8.412-18.75,18.751-18.75h109.191 c10.338,0,18.75,8.412,18.75,18.75l0.017,204.16l1.025-0.002l-0.006-204.158c0-10.91-8.876-19.786-19.786-19.786h-109.19 c-10.911,0-19.787,8.876-19.787,19.786l-0.001,204.16L224.554,241.328z"/><linearGradient id="c" gradientUnits="userSpaceOnUse" x1="207.59" y1="1388.83" x2="388.22" y2="1569.46" gradientTransform="translate(0 -1344)"><stop offset="0" style="stop-color:#FFFFFF;stop-opacity:0"/><stop offset=".11" style="stop-color:#EDEEF0;stop-opacity:0.1056"/><stop offset=".27" style="stop-color:#D8DBDE;stop-opacity:0.2674"/><stop offset=".45" style="stop-color:#C9CDD2;stop-opacity:0.4489"/><stop offset=".66" style="stop-color:#C1C5CA;stop-opacity:0.6643"/><stop offset="1" style="stop-color:#BEC3C8"/></linearGradient><path fill="url(#c)" d="M371.184,241.326h1.166V37.168c0-10.946-8.905-19.851-19.851-19.851H243.308 c-10.946,0-19.852,8.905-19.852,19.851l0.003,204.159l1.161,0.001l0.002-204.16c0-10.303,8.383-18.685,18.686-18.685h109.191 c10.303,0,18.685,8.382,18.685,18.685V241.326L371.184,241.326z"/><linearGradient id="d" gradientUnits="userSpaceOnUse" x1="297.9" y1="1585.33" x2="297.9" y2="1363.39" gradientTransform="translate(0 -1344)"><stop offset="0" style="stop-color:#FFFFFF;stop-opacity:0"/><stop offset="1" style="stop-color:#FFFFFF"/></linearGradient><path fill="url(#d)" d="M243.511,19.977L243.511,19.977l108.841,0.179c9.422,0,17.088,7.665,17.088,17.087l-0.014,203.506 l-143.065-0.005l0.064-203.68C226.423,27.642,234.089,19.977,243.511,19.977 M243.511,19.394c-9.759,0-17.67,7.912-17.67,17.67 l-0.065,204.264l144.232,0.005l0.014-204.089c0-9.759-7.912-17.67-17.671-17.67L243.511,19.394L243.511,19.394z"/><path fill="#FFFFFF" d="M367.09 241.339L367.065 48.15c0-7.328-5.941-13.27-13.27-13.27H242.151c-7.328 0-13.27 5.941-13.27 13.27l-.006 193.179L367.09 241.339zM306.655 29.354h-12.489c-.904 0-1.64-.735-1.64-1.64s.735-1.64 1.64-1.64h12.489c.904 0 1.64.735 1.64 1.64S307.56 29.354 306.655 29.354zM294.166 26.678c-.571 0-1.037.465-1.037 1.037s.465 1.037 1.037 1.037h12.489c.571 0 1.037-.465 1.037-1.037s-.465-1.037-1.037-1.037H294.166zM266.613 30.692c-1.642 0-2.978-1.336-2.978-2.978s1.336-2.978 2.978-2.978 2.978 1.336 2.978 2.978S268.256 30.692 266.613 30.692zM266.613 25.34c-1.31 0-2.374 1.066-2.374 2.374s1.066 2.374 2.374 2.374 2.374-1.066 2.374-2.374S267.922 25.34 266.613 25.34z"/><path fill="#FFFFFF" d="M266.613,28.977c-0.697,0-1.263-0.566-1.263-1.263s0.566-1.264,1.263-1.264s1.264,0.567,1.264,1.264 S267.31,28.977,266.613,28.977z M266.613,27.054c-0.364,0-0.66,0.296-0.66,0.661c0,0.364,0.296,0.66,0.66,0.66 s0.661-0.296,0.661-0.66C267.274,27.351,266.977,27.054,266.613,27.054z"/><path fill="#EAEAEA" d="M357.97 241.33L358.59 241.33 358.58 84.58 237.58 84.58 237.58 241.33 238.18 241.33 238.18 85.19 357.97 85.19z"/><path fill="#FBBC04" d="M317.84 106.74L317.85 111.51 319.72 112.48 319.36 110.41 320.87 108.93 318.78 108.63z"/><path fill="#E6EBF0" d="M315.99 112.49L317.85 111.51 317.84 106.74 316.91 108.64 314.82 108.95 316.34 110.41z"/><path fill="#FBBC04" d="M346.74 108.55L348.82 108.85 347.32 110.32 347.68 112.4 345.81 111.43 343.95 112.41 344.3 110.33 342.78 108.86 344.87 108.56 345.8 106.66zM339.75 108.57L341.83 108.87 340.33 110.34 340.69 112.42 338.82 111.45 336.96 112.43 337.31 110.35 335.79 108.89 337.88 108.58 338.81 106.68zM332.76 108.59L334.85 108.89 333.34 110.36 333.7 112.44 331.83 111.47 329.97 112.45 330.32 110.37 328.8 108.91 330.89 108.6 331.82 106.7zM325.77 108.61L327.86 108.91 326.35 110.39 326.71 112.46 324.84 111.49 322.98 112.47 323.33 110.39 321.81 108.93 323.9 108.62 324.83 106.72z"/><path transform="rotate(-89.83 297.96 130.43)" fill="#EAEAEA" d="M297.66 70.13H298.26000000000005V190.74H297.66z"/><path transform="rotate(-89.83 298.13 147.14)" fill="#EAEAEA" d="M297.83 87H298.43V207.29000000000002H297.83z"/><path fill="#EAEAEA" d="M291.27 140.458c-.002 0-.002 0-.004 0l-17.896-.052c-.763-.002-1.38-.622-1.378-1.385.002-.762.621-1.378 1.382-1.378.002 0 .002 0 .004 0l17.896.052c.763.002 1.38.622 1.378 1.385C292.649 139.842 292.031 140.458 291.27 140.458zM320.3 140.458c-.002 0-.002 0-.004 0l-17.896-.052c-.763-.002-1.38-.622-1.378-1.385.002-.762.621-1.378 1.382-1.378.002 0 .002 0 .004 0l17.896.052c.763.002 1.38.622 1.378 1.385C321.679 139.842 321.06 140.458 320.3 140.458zM349.33 140.458c-.002 0-.002 0-.004 0l-17.896-.052c-.763-.002-1.38-.622-1.378-1.385.002-.762.621-1.378 1.382-1.378.002 0 .002 0 .004 0l17.896.052c.763.002 1.38.622 1.378 1.385C350.709 139.842 350.091 140.458 349.33 140.458zM348.51 195.949l-102.814-.052h-.001c-.762 0-1.381.618-1.382 1.381 0 .763.618 1.382 1.381 1.382l102.814.052h.001c.762 0 1.381-.618 1.382-1.381C349.89 196.568 349.274 195.95 348.51 195.949zM316.946 206.995l-71.25-.052h-.001c-.762 0-1.381.618-1.382 1.381-.001.762.618 1.382 1.381 1.382l71.25.052h.001c.763 0 1.381-.618 1.382-1.381S317.708 206.995 316.946 206.995z"/><path transform="rotate(-89.85 298.1 188.14)" fill="#EAEAEA" d="M297.8 127.94H298.40000000000003V248.32999999999998H297.8z"/><path fill="#EAEAEA" d="M297.597 224.028l-36.324-.052c0 0-.001 0-.002 0-.763 0-1.38.618-1.382 1.38-.001.762.617 1.382 1.38 1.382l36.324.052c0 0 .001 0 .002 0 .762 0 1.38-.618 1.382-1.38C298.977 224.649 298.36 224.03 297.597 224.028zM279.438 233.589l-18.162-.052c-.002 0-.002 0-.004 0-.761 0-1.379.616-1.382 1.378-.002.763.614 1.382 1.378 1.385l18.162.052c.002 0 .002 0 .004 0 .761 0 1.379-.616 1.382-1.378C280.818 234.21 280.202 233.59 279.438 233.589z"/><path transform="rotate(-89.85 298.1 217.11)" fill="#EAEAEA" d="M297.8 156.92H298.40000000000003V277.31H297.8z"/><path fill="#8C9196" d="M302.152,98.428c0-1.071,0.868-1.94,1.94-1.94h43.055c1.071,0,1.94,0.869,1.94,1.94s-0.868,1.94-1.94,1.94 h-43.055C303.02,100.368,302.152,99.499,302.152,98.428z"/><path fill="#EAEAEA" d="M301.554,120.1c0-0.764,0.619-1.382,1.382-1.382h44.79c0.764,0,1.382,0.618,1.382,1.382 s-0.619,1.382-1.382,1.382h-44.79C302.173,121.482,301.554,120.864,301.554,120.1z"/><path fill="#D9E4F9" d="M264.236 140.24c-.001 0-.002 0-.003 0l-17.897-.052c-.643-.002-1.162-.525-1.161-1.167.002-.641.523-1.161 1.164-1.161.001 0 .002 0 .003 0l17.897.052c.643.002 1.162.525 1.161 1.167C265.397 139.721 264.877 140.24 264.236 140.24zM307.516 169.6c-1.505-1.496-2.336-3.488-2.342-5.61s.815-4.118 2.31-5.623c1.497-1.505 3.488-2.336 5.61-2.342.008 0 .016 0 .025 0 2.112 0 4.1.82 5.599 2.31 1.505 1.496 2.336 3.488 2.342 5.61s-.814 4.118-2.31 5.623c-1.496 1.505-3.488 2.336-5.61 2.342-.008 0-.016.001-.025.001C311.002 171.911 309.015 171.091 307.516 169.6zM313.095 156.56c-4.085.011-7.398 3.345-7.387 7.429.006 1.979.782 3.837 2.185 5.233 1.398 1.39 3.251 2.155 5.221 2.155.007 0 .016 0 .023 0 1.979-.006 3.837-.782 5.233-2.185 1.395-1.403 2.161-3.265 2.155-5.244s-.782-3.837-2.185-5.233c-1.398-1.39-3.251-2.155-5.221-2.155C313.111 156.56 313.102 156.56 313.095 156.56zM304.583 176.686c-.002-.644.518-1.168 1.163-1.17l14.81-.043c.001 0 .002 0 .003 0 .642 0 1.164.52 1.166 1.163.002.644-.518 1.168-1.163 1.17l-14.81.043c-.001 0-.002 0-.003 0C305.106 177.849 304.584 177.329 304.583 176.686zM336.774 169.515c-1.505-1.497-2.336-3.488-2.342-5.61s.814-4.118 2.31-5.623c1.497-1.505 3.488-2.336 5.61-2.342.008 0 .016-.001.025-.001 2.112 0 4.1.82 5.599 2.31 1.505 1.497 2.336 3.489 2.342 5.611.006 2.122-.813 4.118-2.309 5.623-1.497 1.505-3.489 2.336-5.611 2.342-.007 0-.015 0-.023 0C340.262 171.825 338.274 171.006 336.774 169.515zM342.354 156.476c-1.979.006-3.837.782-5.232 2.185-1.396 1.403-2.162 3.265-2.156 5.244.012 4.077 3.333 7.387 7.408 7.387.006 0 .014 0 .021 0 1.979-.006 3.838-.782 5.233-2.185 1.396-1.403 2.161-3.265 2.155-5.244-.006-1.979-.782-3.838-2.185-5.233-1.398-1.39-3.251-2.155-5.221-2.155C342.369 156.475 342.361 156.475 342.354 156.476zM278.272 169.826c-1.505-1.497-2.336-3.488-2.342-5.61-.013-4.381 3.54-7.954 7.92-7.967.007 0 .015 0 .023 0 2.113 0 4.1.82 5.6 2.31 1.505 1.497 2.336 3.488 2.342 5.61s-.813 4.119-2.309 5.624c-1.497 1.505-3.489 2.336-5.611 2.342-.007 0-.015 0-.023 0C281.759 172.135 279.771 171.315 278.272 169.826zM283.851 156.785c-4.085.012-7.398 3.346-7.387 7.43.012 4.077 3.333 7.387 7.408 7.387.006 0 .014 0 .021 0 1.98-.006 3.838-.782 5.233-2.185 1.395-1.404 2.161-3.266 2.155-5.245-.006-1.979-.782-3.837-2.185-5.232-1.398-1.39-3.252-2.156-5.223-2.156C283.865 156.784 283.858 156.784 283.851 156.785z"/><path fill="#D9E4F9" d="M287.328 166.171l-1.257-.658c-.3-.209-.709-.152-.941.13l-.637.892c-1.553-.862-2.409-2.025-2.879-3.1l.994-.474c.334-.16.49-.549.357-.894l-.524-1.557c-.127-.33-.477-.517-.821-.437l-1.488.342.009.032-.018-.002c-.005.063-.454 6.328 6.722 7.955l.002-.011.026.016.68-1.344C287.71 166.75 287.614 166.371 287.328 166.171zM342.14 168.542l-4.051-3.842c-.106-.099-.112-.265-.015-.373l4.027-4.469c.05-.056.122-.088.197-.088l.143-.001c.001 0 .001 0 .002 0 .075 0 .146.031.197.087l4.052 4.446c.098.108.092.273-.013.373l-4.029 3.866c-.05.049-.116.075-.185.075h-.143C342.253 168.616 342.188 168.589 342.14 168.542zM342.371 160.357l-3.726 4.135 3.749 3.555 3.727-3.577L342.371 160.357z"/><path fill="#D9E4F9" d="M340.13 164.05L343.06 164.06 342.15 163.07 342.72 162.55 344.48 164.45 342.7 166.25 342.15 165.71 343.03 164.82 340.89 164.82 340.89 165.53 340.13 165.52zM333.57 176.601c-.002-.644.518-1.168 1.163-1.17l14.81-.043c.001 0 .002 0 .003 0 .643 0 1.164.52 1.166 1.163.002.644-.518 1.168-1.163 1.17l-14.81.043c-.001 0-.002 0-.003 0C334.093 177.764 333.572 177.245 333.57 176.601zM275.533 176.769c-.002-.644.518-1.168 1.163-1.17l14.81-.043c.001 0 .002 0 .003 0 .643 0 1.164.52 1.166 1.163.002.644-.518 1.168-1.163 1.17l-14.81.043c-.001 0-.002 0-.003 0C276.056 177.932 275.534 177.413 275.533 176.769z"/><path fill="#D3D3D3" d="M373.499 135.728h1.858c.472 0 .853.382.853.853v37.544c0 .472-.382.853-.853.853h-1.858V135.728zM373.491 98.63h1.858c.472 0 .853.382.853.853v18.303c0 .472-.383.853-.853.853h-1.858V98.63z"/><path fill="#D9E4F9" d="M313.12 165.5L309.85 167 313.15 159.69 316.41 167z"/><path fill="#E6EBF0" d="M304.4,43.158h-58.48c-4.609,0-8.344,3.736-8.344,8.344v33.664H304.4V43.158L304.4,43.158z"/><path fill="#DADCE0" d="M358.566,66.245H304.4V43.158h47.643c3.602,0,6.523,2.921,6.523,6.523V66.245L358.566,66.245z"/><path fill="#F1F3F4" d="M304.4 66.25H331.78999999999996V85.17H304.4z"/><path fill="#E6EBF0" d="M331.79 66.25H358.57000000000005V85.17H331.79zM357.89 241.33L308.22 241.33 308.22 217.44 357.98 217.59z"/><path fill="#D9E4F9" d="M252.276,223.466L252.276,223.466c-0.487-0.969-1.33-1.716-2.351-2.052l0,0l0,0h-0.001l0,0 c-0.382-0.126-0.79-0.195-1.212-0.197c-1.239-0.003-2.35,0.572-3.092,1.481l0,0c-0.591,0.723-0.948,1.657-0.951,2.677 c-0.002,0.785,0.149,1.422,0.399,1.993l0,0c0.419,0.957,1.115,1.727,1.831,2.691l0,0c0.233,0.313,0.467,0.646,0.695,1.013 c0.813,1.312,0.567,2.095,1.084,2.096c0.53,0.002,0.296-0.782,1.117-2.09c1.359-2.164,2.929-3.15,2.936-5.681 C252.73,224.702,252.567,224.045,252.276,223.466z M248.703,223.791c0.85,0.002,1.537,0.717,1.535,1.597 c-0.001,0.379-0.13,0.727-0.346,1l-0.003,0.004c-0.005,0.006-0.01,0.011-0.014,0.017l-0.001,0.001 c-0.001,0.001-0.001,0.002-0.002,0.002l0,0c-0.283,0.346-0.706,0.564-1.178,0.563c-0.85-0.002-1.537-0.717-1.535-1.597 c0.001-0.37,0.124-0.709,0.33-0.979l0.002-0.003c0.01-0.012,0.019-0.025,0.029-0.038l0,0c0.006-0.007,0.012-0.013,0.018-0.02 l0.015-0.018C247.835,223.995,248.246,223.789,248.703,223.791z"/><path fill="#BEC3C8" d="M339.23 222.5L342.24 217.53 338.12 217.53 331.17 229 308.22 229 308.22 232.52 329.04 232.52 323.73 241.33 327.87 241.33 337.09 226.02 358.29 226.02 358.29 222.5z"/><path fill="#70757A" d="M243.621,122.909V96.8c-0.01-3.388,2.651-6.139,6.04-6.149h21.623v32.258H243.62H243.621z"/><path fill="none" stroke="#FFFFFF" stroke-width=".23" stroke-miterlimit="10" d="M247.68 90.99L247.78 122.91M250.69 92.18H269.24V95.31H250.69zM263.45 110.38H267.34999999999997V114.07H263.45z"/><path fill="none" stroke="#FFFFFF" stroke-width=".23" stroke-miterlimit="10" d="M269.87 122.91L269.87 121.46 268.4 121.46 268.4 109.43 262.37 109.43 262.37 122.91M250.59 109.43H259.79V116.42H250.59z"/><linearGradient id="e" gradientUnits="userSpaceOnUse" x1="-989.67" y1="-1359.91" x2="-989.67" y2="-1370.45" gradientTransform="rotate(180 -362.64 -621)"><stop offset="0" style="stop-color:#202124"/><stop offset="1" style="stop-color:#202124;stop-opacity:0"/></linearGradient><path opacity=".3" fill-rule="evenodd" clip-rule="evenodd" fill="url(#e)" d="M243.619,122.909h27.664l13.893,5.577c-9.29,0.027-18.581-0.027-27.872,0L243.619,122.909z"/><path fill="none" stroke="#FFFFFF" stroke-width=".23" stroke-miterlimit="10" d="M262.36 121.46L268.4 121.46M247.68 107.98L271.24 107.98"/><path fill="#FBBC04" d="M254.421,104.844l0.005,1.078c0.002,0.591,0.483,1.069,1.074,1.067c0.591-0.002,1.069-0.483,1.067-1.074 c0.002,0.591,0.483,1.069,1.074,1.067s1.069-0.483,1.067-1.074c0.002,0.591,0.483,1.069,1.074,1.067s1.069-0.483,1.067-1.074 c0.002,0.591,0.483,1.069,1.074,1.067s1.069-0.483,1.067-1.074c0.002,0.591,0.483,1.069,1.074,1.067s1.069-0.483,1.067-1.074 c0.002,0.591,0.483,1.069,1.074,1.067s1.069-0.483,1.067-1.074c0.002,0.591,0.483,1.069,1.074,1.067s1.069-0.483,1.067-1.074 c0.002,0.591,0.483,1.069,1.074,1.067s1.069-0.483,1.067-1.074c0.002,0.591,0.483,1.069,1.074,1.067s1.069-0.483,1.067-1.074 c0.002,0.591,0.483,1.069,1.074,1.067s1.069-0.483,1.067-1.074l-0.003-1.07l-4.632-8.143H249.79L254.421,104.844"/><linearGradient id="f" gradientUnits="userSpaceOnUse" x1="308.27" y1="-1155.91" x2="366.38" y2="-1260.6" gradientTransform="matrix(1 0 0 -1 0 -1142)"><stop offset="0" style="stop-color:#202124"/><stop offset="1" style="stop-color:#202124;stop-opacity:0"/></linearGradient><path fill="url(#f)" d="M338.58 93.26L367.45 129.8 367.95 96.69z"/><linearGradient id="g" gradientUnits="userSpaceOnUse" x1="87.29" y1="1438.46" x2="87.29" y2="1465.53" gradientTransform="translate(0 -1344)"><stop offset="0" style="stop-color:#D5D5D5"/><stop offset=".3" style="stop-color:#DBDBDB;stop-opacity:0.7"/><stop offset=".71" style="stop-color:#EEEEEE;stop-opacity:0.29"/><stop offset="1" style="stop-color:#FFFFFF;stop-opacity:0"/></linearGradient><path opacity=".5" fill="url(#g)" d="M147.35,122.14c1.469,0.018,2.674-1.159,2.692-2.628 c0.005-0.447-0.102-0.888-0.312-1.282c-2.106-4.296-5.472-7.848-9.65-10.18c-12.2-6.39-20.26,6-35,0.67 C95.39,105.19,90,96.6,74.77,94.58l-1.22-0.14c-10.646-0.896-20.757,4.812-25.49,14.39c-0.457,0.914-1.409,1.475-2.43,1.43 c-7.127-0.324-14.16,1.723-20,5.82c-1.193,0.867-1.458,2.536-0.591,3.729c0.494,0.68,1.28,1.088,2.121,1.101L147.35,122.14z"/><path fill="#F8B904" d="M188.91,171.61c3.044,1.863,5.749,4.23,8,7l5.42-9.08C199,165,191,159.67,184.61,158.42l-5.43,9.08 C182.632,168.31,185.922,169.7,188.91,171.61z"/><path fill="#4282F2" d="M120.24,19.39c-1.304-0.543-2.403-1.485-3.14-2.69l-5.42,12.85c1.557,2.403,4.421,3.615,7.23,3.06 l5.42-12.85C122.962,20.07,121.53,19.94,120.24,19.39z"/><path fill="#E84336" d="M53.53,97.55c-2.889,1.563-6.024,2.622-9.27,3.13l4,7.6c5.12-0.6,13.1-4.5,17-9l-4-7.6 C59.029,94.055,56.416,96.039,53.53,97.55z"/><linearGradient id="h" gradientUnits="userSpaceOnUse" x1="136.48" y1="1556.17" x2="136.48" y2="1587.57" gradientTransform="translate(0 -1444)"><stop offset="0" style="stop-color:#E6E8EB"/><stop offset=".13" style="stop-color:#E6E8EB;stop-opacity:0.98"/><stop offset=".26" style="stop-color:#E8EAEC;stop-opacity:0.93"/><stop offset=".39" style="stop-color:#EAECEE;stop-opacity:0.84"/><stop offset=".52" style="stop-color:#EDEEF1;stop-opacity:0.72"/><stop offset=".66" style="stop-color:#F1F2F4;stop-opacity:0.56"/><stop offset=".79" style="stop-color:#F6F7F8;stop-opacity:0.37"/><stop offset=".93" style="stop-color:#FCFCFC;stop-opacity:0.14"/><stop offset="1" style="stop-color:#FFFFFF;stop-opacity:0"/></linearGradient><path fill="url(#h)" d="M139.9,129.5c2.405-3.35,5.364-6.265,8.75-8.62l-10-7c-5.47,3.49-12.35,12.27-14.34,19.47l10,7 C135.55,136.445,137.44,132.777,139.9,129.5z"/><linearGradient id="i" gradientUnits="userSpaceOnUse" x1="485.05" y1="1383.25" x2="486.33" y2="1421.71" gradientTransform="translate(0 -1344)"><stop offset="0" style="stop-color:#D5D5D5"/><stop offset=".3" style="stop-color:#DBDBDB;stop-opacity:0.7"/><stop offset=".71" style="stop-color:#EEEEEE;stop-opacity:0.29"/><stop offset="1" style="stop-color:#FFFFFF;stop-opacity:0"/></linearGradient><path opacity=".5" fill="url(#i)" d="M553.43,77.39c-12-17.52-33.75-13.25-33.75-13.25 s-6.84-23.07-29.06-19.23s-17.09,22.65-40.11,16.67S419.27,79.1,419.27,79.1L553.43,77.39z"/><linearGradient id="j" gradientUnits="userSpaceOnUse" x1="225.55" y1="-1366.43" x2="274.58" y2="-1454.75" gradientTransform="rotate(180 247.62 -636)"><stop offset="0" style="stop-color:#202124"/><stop offset="1" style="stop-color:#202124;stop-opacity:0"/></linearGradient><path opacity=".8" fill="url(#j)" d="M223.14 161.25L223.65 194.37 240.3 159.26z"/><path fill="#FDBA12" d="M134.688,112.893c-13.87,23.878-5.756,54.479,18.122,68.349c23.878,13.87,54.479,5.756,68.349-18.122 l19.15-3.77L227.479,145c1.092-7.712,0.368-15.572-2.116-22.954c-8.806-26.173-37.161-40.252-63.334-31.446 C150.51,94.462,140.791,102.387,134.688,112.893z"/><path fill="none" stroke="#FFFFFF" stroke-width="10" stroke-linecap="round" stroke-linejoin="round" d="M161.11 155.83L195.43 121.41M195.48 155.78L161.06 121.46"/><path fill="#00AC4D" d="M520.33,143.5c3.691-1.996,7.652-3.445,11.76-4.3L527,130c-6.42,1.1-16.65,6.16-21.9,11.53l5.15,9.24 C513.243,147.874,516.638,145.426,520.33,143.5z"/><linearGradient id="k" gradientUnits="userSpaceOnUse" x1="428.26" y1="1468.2" x2="428.26" y2="1499.6" gradientTransform="translate(0 -1444)"><stop offset="0" style="stop-color:#E6E8EB"/><stop offset=".13" style="stop-color:#E6E8EB;stop-opacity:0.98"/><stop offset=".26" style="stop-color:#E8EAEC;stop-opacity:0.93"/><stop offset=".39" style="stop-color:#EAECEE;stop-opacity:0.84"/><stop offset=".52" style="stop-color:#EDEEF1;stop-opacity:0.72"/><stop offset=".66" style="stop-color:#F1F2F4;stop-opacity:0.56"/><stop offset=".79" style="stop-color:#F6F7F8;stop-opacity:0.37"/><stop offset=".93" style="stop-color:#FCFCFC;stop-opacity:0.14"/><stop offset="1" style="stop-color:#FFFFFF;stop-opacity:0"/></linearGradient><path fill="url(#k)" d="M431.68,41.53c2.402-3.353,5.362-6.268,8.75-8.62l-10-7C425,29.35,418.1,38.13,416.1,45.32l10,7 C427.343,48.436,429.229,44.789,431.68,41.53z"/><path fill="#00AC4D" d="M443.762,46.583c13.898,23.862,5.819,54.472-18.043,68.37s-54.473,5.819-68.37-18.043l-19.14-3.76 l12.83-14.35c-1.102-7.726-0.38-15.603,2.108-23c8.804-26.173,37.159-40.254,63.332-31.45 C427.967,28.21,437.663,36.111,443.762,46.583z"/><path fill="none" stroke="#FFFFFF" stroke-width="10" stroke-linecap="round" stroke-linejoin="round" d="M384.06 70.67L396.63 83.23 417.99 60.25"/></svg>
