<svg xmlns="http://www.w3.org/2000/svg" width="600" height="200"><linearGradient id="a" gradientUnits="userSpaceOnUse" x1="87.86" y1="35.71" x2="86.86" y2="117.71" gradientTransform="matrix(1 0 0 -1 0 202)"><stop offset=".38" style="stop-color:#202124;stop-opacity:0"/><stop offset="1" style="stop-color:#5F6368"/></linearGradient><path fill="url(#a)" d="M147.35,122.14c1.469,0.018,2.674-1.159,2.692-2.628c0.005-0.447-0.102-0.888-0.312-1.282 c-2.106-4.296-5.472-7.848-9.65-10.18c-12.2-6.39-20.26,6-35,0.67C95.39,105.19,90,96.6,74.77,94.58l-1.22-0.14 c-10.646-0.896-20.757,4.812-25.49,14.39c-0.457,0.914-1.409,1.475-2.43,1.43c-7.127-0.324-14.16,1.723-20,5.82 c-1.193,0.867-1.458,2.536-0.591,3.729c0.494,0.68,1.28,1.088,2.121,1.101L147.35,122.14z"/><linearGradient id="b" gradientUnits="userSpaceOnUse" x1="482.94" y1="97.19" x2="481.94" y2="158.19" gradientTransform="matrix(1 0 0 -1 0 202)"><stop offset=".24" style="stop-color:#202124;stop-opacity:0"/><stop offset="1" style="stop-color:#5F6368"/></linearGradient><path fill="url(#b)" d="M549.58,77.39c-12-17.52-33.75-13.25-33.75-13.25s-6.84-23.07-29.06-19.23s-17.09,22.65-40.11,16.67 S415.42,79.1,415.42,79.1L549.58,77.39z"/><linearGradient id="c" gradientUnits="userSpaceOnUse" x1="297.47" y1="4067.76" x2="299.61" y2="4330.08" gradientTransform="translate(0 -3982)"><stop offset="0" style="stop-color:#3C4043"/><stop offset="1" style="stop-color:#202124"/></linearGradient><path fill="url(#c)" d="M371.771,241.327L371.767,37.17c0-10.642-8.627-19.269-19.269-19.269h-109.19 c-10.642,0-19.269,8.627-19.269,19.269l0.012,204.167L371.771,241.327z"/><path fill="#8C9196" d="M370.038,37.168v204.155h3.456V37.168c0-11.578-9.42-20.996-20.996-20.996h-109.19 c-11.578,0-20.998,9.42-20.998,20.996v204.155h1.12h0.069l2.269,0.002V37.168c0-9.671,7.869-17.54,17.54-17.54h109.19 C362.171,19.628,370.038,27.497,370.038,37.168z"/><linearGradient id="d" gradientUnits="userSpaceOnUse" x1="222.31" y1="-4198.75" x2="373.5" y2="-4198.75" gradientTransform="matrix(1 0 0 -1 0 -4070)"><stop offset=".51" style="stop-color:#8C9196;stop-opacity:0"/><stop offset=".58" style="stop-color:#8C9196;stop-opacity:0.1312"/><stop offset="1" style="stop-color:#8C9196"/></linearGradient><path fill="url(#d)" d="M371.765,241.327l1.731-0.002V37.17c0-11.578-9.42-20.998-20.998-20.998h-109.19 c-11.578,0-20.998,9.42-20.998,20.998l0.004,204.159h1.717l0.006-204.159c0-10.642,8.627-19.269,19.269-19.269h109.19 c10.642,0,19.269,8.627,19.267,19.271L371.765,241.327L371.765,241.327L371.765,241.327z"/><path fill="#202124" d="M224.556,241.327l0.002-204.157c0-10.338,8.412-18.75,18.752-18.75H352.5c10.338,0,18.75,8.412,18.75,18.75 l0.016,204.159l1.024-0.002l-0.006-204.155c0-10.91-8.876-19.786-19.786-19.786h-109.19c-10.91,0-19.788,8.876-19.788,19.786 v204.159L224.556,241.327z"/><linearGradient id="e" gradientUnits="userSpaceOnUse" x1="207.59" y1="-4114.83" x2="388.22" y2="-4295.46" gradientTransform="matrix(1 0 0 -1 0 -4070)"><stop offset="0" style="stop-color:#FFFFFF;stop-opacity:0"/><stop offset=".11" style="stop-color:#3C4043;stop-opacity:0.1056"/><stop offset=".27" style="stop-color:#5F6368;stop-opacity:0.2674"/><stop offset=".45" style="stop-color:#C9CDD2;stop-opacity:0.4489"/><stop offset=".66" style="stop-color:#C1C5CA;stop-opacity:0.6643"/><stop offset="1" style="stop-color:#BEC3C8"/></linearGradient><path fill="url(#e)" d="M371.184,241.325h1.167V37.17c0-10.947-8.905-19.851-19.851-19.851H243.308 c-10.947,0-19.851,8.905-19.851,19.851l0.004,204.157h1.161l0.002-204.159c0-10.303,8.382-18.684,18.686-18.684H352.5 c10.303,0,18.684,8.382,18.684,18.684V241.325L371.184,241.325z"/><linearGradient id="f" gradientUnits="userSpaceOnUse" x1="297.9" y1="-4311.33" x2="297.9" y2="-4089.4" gradientTransform="matrix(1 0 0 -1 0 -4070)"><stop offset="0" style="stop-color:#202124"/><stop offset="1" style="stop-color:#9AA0A6"/></linearGradient><path fill="url(#f)" d="M243.512,19.978L243.512,19.978l108.84,0.18c9.422,0,17.088,7.664,17.088,17.086l-0.014,203.503 l-143.064-0.004l0.063-203.679C226.424,27.642,234.091,19.978,243.512,19.978 M243.512,19.396c-9.759,0-17.671,7.912-17.671,17.671 l-0.065,204.261l144.231,0.004l0.014-204.087c0-9.759-7.912-17.671-17.671-17.671L243.512,19.396L243.512,19.396z"/><path fill="#202124" d="M367.091 241.338L367.066 48.15c0-7.329-5.941-13.27-13.27-13.27H242.153c-7.329 0-13.27 5.941-13.27 13.27l-.006 193.178L367.091 241.338zM306.656 29.355h-12.49c-.903 0-1.639-.734-1.639-1.639s.734-1.639 1.639-1.639h12.49c.903 0 1.639.734 1.639 1.639C308.295 28.619 307.561 29.355 306.656 29.355zM294.166 26.68c-.57 0-1.036.466-1.036 1.036s.466 1.036 1.036 1.036h12.49c.57 0 1.036-.466 1.036-1.036s-.466-1.036-1.036-1.036H294.166zM266.614 30.694c-1.641 0-2.978-1.337-2.978-2.978s1.337-2.978 2.978-2.978 2.978 1.337 2.978 2.978C269.591 29.357 268.257 30.694 266.614 30.694zM266.614 25.341c-1.31 0-2.375 1.065-2.375 2.375s1.065 2.375 2.375 2.375c1.308 0 2.375-1.065 2.375-2.375C268.988 26.406 267.924 25.341 266.614 25.341z"/><path fill="#202124" d="M266.614,28.979c-0.697,0-1.263-0.566-1.263-1.263s0.566-1.263,1.263-1.263s1.263,0.566,1.263,1.263 C267.879,28.413,267.31,28.979,266.614,28.979z M266.614,27.056c-0.364,0-0.66,0.296-0.66,0.66s0.296,0.66,0.66,0.66 s0.66-0.296,0.66-0.66C267.274,27.352,266.977,27.056,266.614,27.056z"/><path fill="#3C4043" d="M357.97 241.33L358.59 241.33 358.58 84.58 237.58 84.58 237.58 241.33 238.18 241.33 238.18 85.19 357.97 85.19z"/><path fill="#FCC934" d="M317.84 106.74L317.85 111.51 319.72 112.48 319.36 110.41 320.87 108.93 318.78 108.63z"/><path fill="#3C4043" d="M315.99 112.5L317.85 111.51 317.84 106.74 316.91 108.64 314.82 108.95 316.34 110.41z"/><path fill="#FCC934" d="M346.73 108.55L348.82 108.85 347.32 110.32 347.68 112.4 345.81 111.43 343.95 112.41 344.3 110.33 342.78 108.86 344.87 108.56 345.8 106.66zM339.75 108.57L341.83 108.87 340.33 110.34 340.69 112.42 338.82 111.45 336.96 112.43 337.31 110.35 335.79 108.89 337.88 108.58 338.81 106.68zM332.76 108.59L334.85 108.89 333.34 110.36 333.7 112.44 331.83 111.47 329.97 112.45 330.32 110.37 328.8 108.91 330.89 108.6 331.82 106.7zM325.77 108.61L327.86 108.91 326.35 110.39 326.71 112.46 324.84 111.49 322.98 112.47 323.33 110.39 321.81 108.93 323.9 108.62 324.83 106.72z"/><path transform="rotate(-89.83 297.97 130.42)" fill="#3C4043" d="M297.67 70.12H298.27000000000004V190.73000000000002H297.67z"/><path transform="rotate(-89.83 298.13 147.13)" fill="#3C4043" d="M297.83 86.98H298.43V207.27H297.83z"/><path fill="#3C4043" d="M291.27 140.458c-.002 0-.002 0-.004 0l-17.895-.051c-.762-.002-1.38-.623-1.378-1.386.002-.762.621-1.378 1.382-1.378.002 0 .002 0 .004 0l17.895.051c.762.002 1.38.623 1.378 1.386C292.649 139.843 292.032 140.458 291.27 140.458zM320.3 140.458c-.002 0-.002 0-.004 0l-17.895-.051c-.762-.002-1.38-.623-1.378-1.386.002-.762.621-1.378 1.382-1.378.002 0 .002 0 .004 0l17.895.051c.762.002 1.38.623 1.378 1.386C321.68 139.843 321.06 140.458 320.3 140.458zM349.33 140.458c-.002 0-.002 0-.004 0l-17.895-.051c-.762-.002-1.38-.623-1.378-1.386.002-.762.621-1.378 1.382-1.378.002 0 .002 0 .004 0l17.895.051c.762.002 1.38.623 1.378 1.386C350.71 139.843 350.09 140.458 349.33 140.458zM348.511 195.949l-102.813-.051 0 0c-.762 0-1.382.619-1.382 1.382 0 .762.617 1.382 1.382 1.382l102.813.051 0 0c.762 0 1.382-.619 1.382-1.382C349.89 196.566 349.273 195.949 348.511 195.949zM316.946 206.994l-71.249-.051 0 0c-.762 0-1.382.617-1.382 1.382 0 .762.617 1.382 1.382 1.382l71.249.051 0 0c.762 0 1.382-.619 1.382-1.382S317.708 206.994 316.946 206.994z"/><path transform="rotate(-89.85 298.1 188.13)" fill="#3C4043" d="M297.8 127.94H298.40000000000003V248.32999999999998H297.8z"/><path fill="#3C4043" d="M297.598 224.027l-36.324-.051c0 0 0 0-.002 0-.762 0-1.38.617-1.382 1.38 0 .762.617 1.382 1.38 1.382l36.324.051c0 0 0 0 .002 0 .762 0 1.38-.617 1.382-1.38C298.979 224.648 298.36 224.029 297.598 224.027zM279.438 233.588l-18.161-.051c-.002 0-.002 0-.004 0-.76 0-1.38.615-1.382 1.378-.002.762.615 1.382 1.378 1.386l18.161.051c.002 0 .002 0 .004 0 .76 0 1.38-.615 1.382-1.378C280.82 234.209 280.203 233.59 279.438 233.588z"/><path transform="rotate(-89.85 298.1 217.1)" fill="#3C4043" d="M297.8 156.91H298.40000000000003V277.3H297.8z"/><path fill="#8C9196" d="M302.153,98.429c0-1.071,0.867-1.94,1.94-1.94h43.055c1.071,0,1.94,0.869,1.94,1.94s-0.867,1.94-1.94,1.94 h-43.055C303.02,100.369,302.153,99.498,302.153,98.429z"/><path fill="#3C4043" d="M301.554,120.099c0-0.763,0.62-1.382,1.382-1.382h44.79c0.763,0,1.382,0.619,1.382,1.382 s-0.62,1.382-1.382,1.382h-44.79C302.173,121.481,301.554,120.864,301.554,120.099z"/><linearGradient id="g" gradientUnits="userSpaceOnUse" x1="-4570.45" y1="-4164.43" x2="-4521.42" y2="-4252.75" gradientTransform="rotate(180 -2150.38 -2035)"><stop offset="0" style="stop-color:#202124"/><stop offset="1" style="stop-color:#202124;stop-opacity:0"/></linearGradient><path fill="url(#g)" d="M223.14 161.25L223.65 194.37 240.3 159.26z"/><path fill="#5F6368" d="M264.237 140.239c0 0-.002 0-.004 0l-17.898-.051c-.644-.002-1.163-.525-1.161-1.167.002-.642.523-1.161 1.163-1.161 0 0 .002 0 .004 0l17.898.051c.644.002 1.163.525 1.161 1.167C265.397 139.72 264.878 140.239 264.237 140.239zM307.518 169.603c-1.504-1.496-2.336-3.489-2.342-5.61-.007-2.121.813-4.118 2.309-5.622 1.498-1.504 3.489-2.336 5.61-2.342.009 0 .017 0 .025 0 2.111 0 4.1.819 5.598 2.309 1.504 1.496 2.336 3.489 2.342 5.61s-.814 4.116-2.31 5.622c-1.496 1.504-3.489 2.336-5.61 2.342-.009 0-.017 0-.025 0C311.004 171.912 309.015 171.09 307.518 169.603zM313.099 156.559c-4.085.012-7.4 3.345-7.388 7.429.006 1.978.783 3.836 2.185 5.232 1.398 1.39 3.252 2.154 5.222 2.154.006 0 .014 0 .022 0 1.978-.006 3.836-.783 5.232-2.185 1.394-1.404 2.16-3.266 2.154-5.244s-.783-3.836-2.185-5.232c-1.398-1.39-3.252-2.154-5.222-2.154C313.111 156.559 313.103 156.559 313.099 156.559zM304.582 176.686c-.002-.644.519-1.167 1.163-1.169l14.809-.043c.002 0 .004 0 .004 0 .644 0 1.165.519 1.167 1.163.002.644-.519 1.167-1.163 1.169l-14.809.043c-.002 0-.004 0-.004 0C305.107 177.849 304.586 177.328 304.582 176.686zM336.775 169.515c-1.504-1.498-2.336-3.489-2.342-5.61-.007-2.121.813-4.118 2.309-5.622 1.498-1.504 3.489-2.336 5.61-2.342.009 0 .017 0 .025 0 2.111 0 4.1.819 5.598 2.309 1.504 1.496 2.336 3.489 2.342 5.61.007 2.121-.813 4.118-2.309 5.622s-3.489 2.336-5.61 2.342c-.006 0-.014 0-.022 0C340.263 171.824 338.274 171.004 336.775 169.515zM342.358 156.473c-1.978.006-3.838.783-5.232 2.185-1.396 1.404-2.162 3.266-2.156 5.244.013 4.079 3.334 7.388 7.409 7.388.006 0 .012 0 .02 0 1.978-.006 3.838-.783 5.232-2.185 1.396-1.404 2.16-3.266 2.154-5.244s-.783-3.838-2.185-5.232c-1.398-1.39-3.252-2.154-5.222-2.154C342.37 156.475 342.362 156.475 342.358 156.473zM278.274 169.826c-1.504-1.498-2.336-3.489-2.342-5.61-.012-4.38 3.54-7.955 7.92-7.967.006 0 .014 0 .022 0 2.113 0 4.1.819 5.6 2.309 1.504 1.498 2.336 3.489 2.342 5.61.006 2.122-.814 4.119-2.31 5.625-1.496 1.504-3.489 2.336-5.61 2.342-.006 0-.014 0-.022 0C281.761 172.135 279.772 171.315 278.274 169.826zM283.854 156.784c-4.085.012-7.4 3.345-7.388 7.429.012 4.079 3.334 7.388 7.409 7.388.006 0 .012 0 .02 0 1.978-.006 3.838-.783 5.232-2.185 1.394-1.404 2.16-3.266 2.154-5.244s-.783-3.838-2.185-5.232c-1.398-1.39-3.252-2.156-5.222-2.156C283.866 156.784 283.86 156.784 283.854 156.784z"/><path fill="#5F6368" d="M287.331 166.171l-1.257-.658c-.3-.208-.709-.151-.94.131l-.638.891c-1.553-.862-2.41-2.025-2.88-3.1l.993-.474c.333-.159.491-.548.358-.895l-.523-1.557c-.127-.329-.476-.517-.822-.437l-1.488.341.008.033-.018-.002c-.004.063-.454 6.328 6.722 7.954l.002-.01.027.016.681-1.345C287.711 166.749 287.615 166.371 287.331 166.171zM342.139 168.543l-4.051-3.842c-.104-.1-.112-.266-.014-.374l4.026-4.468c.049-.055.12-.088.196-.088h.143c.002 0 .002 0 .002 0 .075 0 .147.031.198.086l4.053 4.447c.098.106.092.272-.012.372l-4.028 3.865c-.051.047-.117.074-.186.074h-.143C342.253 168.615 342.188 168.589 342.139 168.543zM342.372 160.356l-3.726 4.135 3.748 3.556 3.728-3.577L342.372 160.356z"/><path fill="#5F6368" d="M340.13 164.05L343.07 164.06 342.15 163.07 342.72 162.55 344.48 164.45 342.7 166.25 342.15 165.71 343.03 164.82 340.9 164.82 340.89 165.53 340.13 165.52zM333.569 176.6c-.002-.644.519-1.167 1.163-1.169l14.809-.043c.002 0 .004 0 .004 0 .644 0 1.165.519 1.167 1.163.002.644-.519 1.167-1.163 1.169l-14.809.043c-.002 0-.004 0-.004 0C334.095 177.763 333.573 177.244 333.569 176.6zM275.534 176.768c-.002-.644.519-1.167 1.163-1.169l14.809-.043c.002 0 .004 0 .004 0 .644 0 1.165.519 1.167 1.163.002.644-.519 1.167-1.163 1.169l-14.809.043c-.002 0-.004 0-.004 0C276.057 177.931 275.536 177.412 275.534 176.768zM373.498 135.728h1.858c.472 0 .854.382.854.854v37.545c0 .472-.382.854-.854.854h-1.858V135.728zM373.49 98.629h1.858c.472 0 .854.382.854.854v18.302c0 .472-.382.854-.854.854h-1.858V98.629zM313.12 165.5L309.86 167 313.15 159.69 316.41 167z"/><path fill="#3C4043" d="M304.401,43.159H245.92c-4.609,0-8.345,3.736-8.345,8.345v33.663h66.824L304.401,43.159L304.401,43.159z"/><path fill="#5F6368" d="M358.566,66.245h-54.165V43.159h47.643c3.601,0,6.522,2.921,6.522,6.522V66.245L358.566,66.245z"/><path opacity=".48" fill="#3C4043" d="M304.4 66.25H331.78999999999996V85.17H304.4z"/><path fill="#3C4043" d="M331.79 66.25H358.57000000000005V85.17H331.79z"/><path opacity=".48" fill="#3C4043" d="M357.89 241.33L308.22 241.33 308.22 217.44 357.98 217.59z"/><path fill="#5F6368" d="M252.276 223.465L252.276 223.465c-.486-.969-1.331-1.717-2.35-2.052l0 0 0 0 0 0 0 0c-.382-.127-.789-.194-1.212-.196-1.239-.004-2.35.572-3.092 1.482l0 0c-.591.724-.948 1.658-.95 2.677-.002.785.149 1.422.399 1.993l0 0c.419.957 1.116 1.727 1.831 2.692l0 0c.233.313.466.646.695 1.014.813 1.312.566 2.095 1.083 2.095.529.002.296-.783 1.118-2.091 1.359-2.164 2.929-3.149 2.937-5.68C252.732 224.701 252.569 224.043 252.276 223.465zM248.704 223.79c.85.002 1.537.717 1.535 1.596 0 .38-.131.728-.345.999l-.004.004c-.004.006-.01.012-.014.016l0 0c0 0 0 .002-.002.002l0 0c-.284.345-.705.564-1.177.564-.85-.002-1.537-.717-1.535-1.596 0-.37.125-.709.329-.979l.002-.004c.01-.012.018-.025.029-.037l0 0c.006-.006.012-.012.018-.02l.014-.018C247.837 223.994 248.246 223.787 248.704 223.79zM339.23 222.5L342.24 217.53 338.12 217.53 331.17 229 308.22 229 308.22 232.52 329.04 232.52 323.74 241.32 327.87 241.33 337.09 226.02 358.29 226.02 358.29 222.5z"/><path fill="#70757A" d="M243.622,122.908V96.8c-0.011-3.389,2.65-6.14,6.039-6.15h21.623v32.258L243.622,122.908 C243.621,122.908,243.622,122.908,243.622,122.908z"/><path fill="none" stroke="#202124" stroke-width=".23" stroke-miterlimit="10" d="M250.69 92.18H269.25V95.31H250.69zM247.69 90.99L247.78 122.91M263.45 110.38H267.34999999999997V114.07H263.45z"/><path fill="none" stroke="#202124" stroke-width=".23" stroke-miterlimit="10" d="M269.87 122.91L269.87 121.46 268.4 121.46 268.4 109.43 262.37 109.43 262.37 122.91M250.59 109.43H259.79V116.42H250.59z"/><linearGradient id="h" gradientUnits="userSpaceOnUse" x1="-5785.67" y1="4161.91" x2="-5785.67" y2="4172.45" gradientTransform="matrix(-1 0 0 1 -5521.27 -4044)"><stop offset="0" style="stop-color:#202124"/><stop offset="1" style="stop-color:#202124;stop-opacity:0"/></linearGradient><path opacity=".3" fill-rule="evenodd" clip-rule="evenodd" fill="url(#h)" d="M243.62,122.907 h27.663l13.894,5.578c-9.289,0.027-18.58-0.027-27.871,0L243.62,122.907z"/><path fill="none" stroke="#202124" stroke-width=".23" stroke-miterlimit="10" d="M262.36 121.46L268.4 121.46M247.68 107.98L271.24 107.98"/><path fill="#FCC934" d="M254.422,104.845l0.015,1.069c0,0.591,0.482,1.067,1.073,1.067c0.591,0,1.069-0.482,1.067-1.073 c0,0.591,0.482,1.067,1.073,1.067s1.069-0.482,1.067-1.073c0,0.591,0.482,1.067,1.073,1.067s1.069-0.482,1.067-1.073 c0,0.591,0.482,1.067,1.073,1.067s1.069-0.482,1.067-1.073c0,0.591,0.482,1.067,1.073,1.067s1.069-0.482,1.067-1.073 c0,0.591,0.482,1.067,1.073,1.067s1.069-0.482,1.067-1.073c0,0.591,0.482,1.067,1.073,1.067s1.069-0.482,1.067-1.073 c0,0.591,0.482,1.067,1.073,1.067s1.069-0.482,1.067-1.073c0,0.591,0.482,1.069,1.073,1.067c0.591,0,1.069-0.482,1.067-1.073 c0,0.591,0.482,1.067,1.073,1.067s1.069-0.482,1.067-1.073l-0.004-1.071l-4.631-8.142h-21.411L254.422,104.845"/><linearGradient id="i" gradientUnits="userSpaceOnUse" x1="540.7" y1="5059.91" x2="598.81" y2="5164.6" gradientTransform="translate(-232.43 -5046)"><stop offset="0" style="stop-color:#202124"/><stop offset="1" style="stop-color:#202124;stop-opacity:0"/></linearGradient><path fill="url(#i)" d="M338.58 93.26L367.45 129.8 367.95 96.69z"/><path fill="#4282F2" d="M120.24,19.39c-1.304-0.543-2.403-1.485-3.14-2.69l-5.42,12.85c1.557,2.403,4.421,3.615,7.23,3.06 l5.42-12.85C122.962,20.07,121.53,19.94,120.24,19.39z"/><path fill="#E84336" d="M53.53,97.55c-2.889,1.563-6.024,2.622-9.27,3.13l4,7.6c5.12-0.6,13.1-4.5,17-9l-4-7.6 C59.029,94.055,56.416,96.039,53.53,97.55z"/><path fill="#00AC4D" d="M520.33,143.5c3.691-1.996,7.652-3.445,11.76-4.3L527,130c-6.42,1.1-16.65,6.16-21.9,11.53l5.15,9.24 C513.243,147.874,516.638,145.426,520.33,143.5z"/><linearGradient id="j" gradientUnits="userSpaceOnUse" x1="428.26" y1="-4630.2" x2="428.26" y2="-4661.6" gradientTransform="matrix(1 0 0 -1 0 -4606)"><stop offset="0" style="stop-color:#E6E8EB"/><stop offset=".13" style="stop-color:#E6E8EB;stop-opacity:0.98"/><stop offset=".26" style="stop-color:#E8EAEC;stop-opacity:0.93"/><stop offset=".39" style="stop-color:#EAECEE;stop-opacity:0.84"/><stop offset=".52" style="stop-color:#EDEEF1;stop-opacity:0.72"/><stop offset=".66" style="stop-color:#F1F2F4;stop-opacity:0.56"/><stop offset=".79" style="stop-color:#F6F7F8;stop-opacity:0.37"/><stop offset=".93" style="stop-color:#FCFCFC;stop-opacity:0.14"/><stop offset="1" style="stop-color:#FFFFFF;stop-opacity:0"/></linearGradient><path fill="url(#j)" d="M431.68,41.53c2.402-3.353,5.362-6.268,8.75-8.62l-10-7C425,29.35,418.1,38.13,416.1,45.32l10,7 C427.343,48.436,429.229,44.789,431.68,41.53z"/><path fill="#F8B904" d="M188.91,171.61c3.044,1.863,5.749,4.23,8,7l5.42-9.08C199,165,191,159.67,184.61,158.42l-5.43,9.08 C182.632,168.31,185.922,169.7,188.91,171.61z"/><linearGradient id="k" gradientUnits="userSpaceOnUse" x1="136.48" y1="-4718.17" x2="136.48" y2="-4749.57" gradientTransform="matrix(1 0 0 -1 0 -4606)"><stop offset="0" style="stop-color:#E6E8EB"/><stop offset=".13" style="stop-color:#E6E8EB;stop-opacity:0.98"/><stop offset=".26" style="stop-color:#E8EAEC;stop-opacity:0.93"/><stop offset=".39" style="stop-color:#EAECEE;stop-opacity:0.84"/><stop offset=".52" style="stop-color:#EDEEF1;stop-opacity:0.72"/><stop offset=".66" style="stop-color:#F1F2F4;stop-opacity:0.56"/><stop offset=".79" style="stop-color:#F6F7F8;stop-opacity:0.37"/><stop offset=".93" style="stop-color:#FCFCFC;stop-opacity:0.14"/><stop offset="1" style="stop-color:#FFFFFF;stop-opacity:0"/></linearGradient><path fill="url(#k)" d="M139.9,129.5c2.405-3.35,5.364-6.265,8.75-8.62l-10-7c-5.47,3.49-12.35,12.27-14.34,19.47l10,7 C135.55,136.445,137.44,132.777,139.9,129.5z"/><path fill="#FDD663" d="M134.688,112.893c-13.87,23.878-5.756,54.479,18.122,68.349c23.878,13.87,54.479,5.756,68.349-18.122 l19.15-3.77L227.479,145c1.092-7.712,0.368-15.572-2.116-22.954c-8.806-26.173-37.161-40.252-63.334-31.446 C150.51,94.462,140.791,102.387,134.688,112.893z"/><path fill="none" stroke="#202124" stroke-width="10" stroke-linecap="round" stroke-linejoin="round" d="M161.11 155.83L195.43 121.41M195.48 155.78L161.06 121.46"/><path fill="#81C995" d="M443.762,46.583c13.898,23.862,5.819,54.472-18.043,68.37s-54.473,5.819-68.37-18.043l-19.14-3.76 l12.83-14.35c-1.102-7.726-0.38-15.603,2.108-23c8.804-26.173,37.159-40.254,63.332-31.45 C427.967,28.21,437.663,36.111,443.762,46.583z"/><path fill="none" stroke="#202124" stroke-width="10" stroke-linecap="round" stroke-linejoin="round" d="M384.06 70.67L396.63 83.23 417.99 60.25"/></svg>
