<?xml version="1.0" encoding="UTF-8"?>
<svg id="Layer_1" xmlns="http://www.w3.org/2000/svg" width="250" height="150" version="1.1" viewBox="0 0 250 150">
  <!-- Generator: Adobe Illustrator 30.0.0, SVG Export Plug-In . SVG Version: 2.1.1 Build 123)  -->
  <title>merchant_photo_upload_confirmation_dialog_illustration_dark</title>
<metadata><?xpacket begin="﻿" id="W5M0MpCehiHzreSzNTczkc9d"?>
<x:xmpmeta xmlns:x="adobe:ns:meta/" x:xmptk="Adobe XMP Core 9.1-c002 79.a1cd12f, 2024/11/11-19:08:46        ">
   <rdf:RDF xmlns:rdf="http://www.w3.org/1999/02/22-rdf-syntax-ns#">
      <rdf:Description rdf:about=""
            xmlns:dc="http://purl.org/dc/elements/1.1/"
            xmlns:xmp="http://ns.adobe.com/xap/1.0/"
            xmlns:xmpMM="http://ns.adobe.com/xap/1.0/mm/"
            xmlns:stEvt="http://ns.adobe.com/xap/1.0/sType/ResourceEvent#">
         <dc:title>
            <rdf:Alt>
               <rdf:li xml:lang="x-default">merchant_photo_upload_confirmation_dialog_illustration_dark</rdf:li>
            </rdf:Alt>
         </dc:title>
         <xmp:MetadataDate>2025-11-14T15:58:44-07:00</xmp:MetadataDate>
         <xmpMM:InstanceID>xmp.iid:77e49cf9-cd01-4f6f-abc7-bdac731ae43f</xmpMM:InstanceID>
         <xmpMM:DocumentID>xmp.did:77e49cf9-cd01-4f6f-abc7-bdac731ae43f</xmpMM:DocumentID>
         <xmpMM:OriginalDocumentID>xmp.did:77e49cf9-cd01-4f6f-abc7-bdac731ae43f</xmpMM:OriginalDocumentID>
         <xmpMM:History>
            <rdf:Seq>
               <rdf:li>
                  <rdf:Description>
                     <stEvt:action>saved</stEvt:action>
                     <stEvt:instanceID>xmp.iid:77e49cf9-cd01-4f6f-abc7-bdac731ae43f</stEvt:instanceID>
                     <stEvt:when>2025-11-14T15:58:44-07:00</stEvt:when>
                     <stEvt:softwareAgent>Adobe Bridge 2026</stEvt:softwareAgent>
                     <stEvt:changed>/metadata</stEvt:changed>
                  </rdf:Description>
               </rdf:li>
            </rdf:Seq>
         </xmpMM:History>
      </rdf:Description>
   </rdf:RDF>
</x:xmpmeta>
                                                                                                    
                                                                                                    
                                                                                                    
                                                                                                    
                                                                                                    
                                                                                                    
                                                                                                    
                                                                                                    
                                                                                                    
                                                                                                    
                                                                                                    
                                                                                                    
                                                                                                    
                                                                                                    
                                                                                                    
                                                                                                    
                                                                                                    
                                                                                                    
                                                                                                    
                                                                                                    
                           
<?xpacket end="w"?></metadata>
<g id="Picture">
    <rect x="51.32" y="12.74" width="94.8" height="94.8" rx="10.74" ry="10.74" transform="translate(-12.2 27.6) rotate(-15)" fill="#9e9e00"/>
    <rect x="58" y="19.43" width="81.43" height="81.43" rx="4.48" ry="4.48" transform="translate(-12.2 27.6) rotate(-15)" fill="#131314"/>
    <path d="M140.76,59.74c-1.59-.23-3.2-.06-4.7.48-.7.25-1.48.02-1.93-.58-.74-1-1.69-1.89-2.84-2.58-4.13-2.5-9.48-1.58-12.56,2.14-3.65,4.42-2.73,10.92,1.86,14.19.15.11.31.21.46.31.66.42,1.12,1.1,1.23,1.88.35,2.58,1.72,5.02,4.01,6.65,4.39,3.13,10.5,2.11,13.63-2.29h0c.35-.51.88-.85,1.48-.98,1.44-.31,2.82-.94,4.01-1.88l-4.65-17.34h0Z" fill="#57661a"/>
    <path d="M82.83,90.93h0c.02-.62.27-1.2.7-1.63,1.78-1.81,2.86-4.31,2.8-7.09-.11-5-3.93-9.06-8.91-9.49-3.49-.3-6.66,1.25-8.62,3.8-.49.65-1.35.89-2.12.62-1.14-.4-2.37-.6-3.66-.54-.67.03-1.33.13-1.96.28l5.66,21.13c1.62,1.39,3.71,2.26,6.01,2.34,5.39.19,9.92-4.03,10.1-9.43h0Z" fill="#57661a"/>
    <path d="M74.54,108.77l69.43-18.61c2.55-.68,4.06-3.3,3.38-5.85l-3.32-12.4-78.66,21.08,3.32,12.4c.68,2.55,3.3,4.06,5.85,3.38h0Z" fill="#4f4b14"/>
    <rect x="82.28" y="86.16" width="19.52" height="17.62" transform="translate(-21.44 27.06) rotate(-15)" fill="#848424"/>
    <g>
      <path d="M114.86,29.05l-.44-1.64c-.34-1.25-1.63-2-2.88-1.66l-41.13,11.02c-1.25.34-2,1.63-1.66,2.88l.44,1.64c.39,1.47-.48,2.98-1.95,3.37l-3.67.98,1.86,6.93,58.4-15.65-1.86-6.93-3.74,1c-1.47.39-2.98-.48-3.37-1.95h0Z" fill="#4f4b14"/>
      <rect x="68.53" y="37.03" width="60.46" height="46.2" transform="translate(-12.2 27.61) rotate(-15)" fill="#c26401"/>
      <path d="M80.67,52.54h0c5.2-1.39,10.56,1.7,11.96,6.9l6.56,24.49-18.86,5.05-6.56-24.49c-1.39-5.2,1.7-10.56,6.9-11.96h0Z" fill="#8f4d13"/>
      <rect x="97.35" y="44.93" width="26.91" height="26.39" rx="1.79" ry="1.79" transform="translate(-11.27 30.66) rotate(-15)" fill="#fbbc04"/>
      <rect x="79.17" y="73.13" width="15.13" height="4.13" rx="1.93" ry="1.93" transform="translate(-16.51 25.01) rotate(-15)" fill="#4f4b14"/>
      <g>
        <path d="M81.87,64.73s-.04,0-.06,0c-.13-.03-.2-.17-.17-.29l1-3.75c.02-.08.09-.15.17-.17s.17,0,.23.06l2.74,2.74c.09.09.09.24,0,.34-.09.09-.24.09-.34,0l-2.45-2.45-.9,3.35c-.03.11-.13.18-.23.18h0Z"/>
        <rect x="79.47" y="63.01" width="9.31" height="4.9" transform="translate(-14.07 24) rotate(-15)" fill="#e37400"/>
      </g>
      <g>
        <polygon points="76.39 53.01 71.92 43.41 63.58 45.64 68.05 55.24 76.39 53.01" fill="#9e9e00"/>
        <polygon points="84.74 50.77 80.26 41.18 71.92 43.41 76.39 53.01 84.74 50.77" fill="#bab500"/>
        <polygon points="93.08 48.54 88.6 38.94 80.26 41.18 84.74 50.77 93.08 48.54" fill="#9e9e00"/>
        <polygon points="101.42 46.3 96.95 36.7 88.6 38.94 93.08 48.54 101.42 46.3" fill="#bab500"/>
        <polygon points="109.76 44.07 105.29 34.47 96.95 36.7 101.42 46.3 109.76 44.07" fill="#9e9e00"/>
        <polygon points="118.11 41.83 113.63 32.23 105.29 34.47 109.76 44.07 118.11 41.83" fill="#bab500"/>
        <polygon points="126.45 39.6 121.97 30 113.63 32.23 118.11 41.83 126.45 39.6" fill="#9e9e00"/>
      </g>
      <g>
        <path d="M112.51,68.31c-.71-2.95-1.5-4.04-3.04-4.15l.1-1.33c2.53.19,3.52,2.2,4.24,5.16l-1.29.31h0Z" fill="#2c8851"/>
        <path d="M110.45,61.47c-.6-.28-1.3-.21-1.94-.36-1.36-.22-1.81-1.67-2.86-2.29-.48-.24-1.29-.37-1.76-.12-.35.18-.69.46-1.01.82-.1.11-.12.27-.06.4.5,1.05,1.17,2.65.91,3.26-.26.62-1.12.1-2.07-.84-.13-.13-.36-.08-.42.1-.71,1.96-.94,4.13-.26,5.24.75,1.05,1.67.87,2.44,0,1.01-.89,2.44-1.15,3.78-1.09,1.36.14,2.9.23,3.68-1.07.95-1.18,1.09-3.3-.44-4.04h0Z" fill="#57661a"/>
        <path d="M122.43,55.04c-.1-.19-.31-.29-.52-.32-.21-.03-.42,0-.63,0-.85.03-1.69-.22-2.48-.54-.79-.32-1.55-.72-2.35-1.01-.43-.15-.88-.28-1.33-.29-.46-.01-.94.09-1.34.33-.08-.3-.21-.58-.37-.84-.26-.42-.6-.78-.98-1.08-.39-.31-.83-.57-1.32-.68-1.12-.27-2.28.23-3.26.85-.97.62-1.88,1.38-2.98,1.72-.67.21-1.38.25-2.08.34-.39.06-.79.13-1.14.31-.35.18-.66.48-.77.86-.2.7.32,1.41.92,1.81.61.4,1.32.63,1.88,1.09.77.64,1.14,1.63,1.58,2.53.44.9,1.1,1.82,2.09,2.03.9.19,1.84-.31,2.43-1.02.41-.5.9-1.29,1.01-2.08,1.12,1.27,1.94,2.9,2.1,4.96h0c.05,1.21.2,2.44.34,3.59l.06.48,1.32-.16-.06-.48c-.15-1.21-.29-2.41-.35-3.53h0s0-.05,0-.08c-.08-1.74.06-3.31.73-4.52.03.65.21,1.29.66,1.78.62.67,1.7.87,2.51.46.71-.35,1.16-1.07,1.59-1.74.69-1.08,1.42-2.14,2.18-3.17.25-.34.51-.69.59-1.1.04-.17.04-.35-.04-.5h0ZM113.2,60.21c-.47-.92-1.06-1.72-1.74-2.41.71-.31,1.34-.81,1.78-1.45.09.17.19.34.31.5.24.33.54.63.87.88-.6.71-.99,1.56-1.22,2.48h0Z" fill="#3d3910"/>
      </g>
      <path d="M107.43,69.52h0c.07-.02.14.02.17.08l1.12,2.74,10.99-2.94-.4-2.93c0-.07.04-.14.1-.16l.08-.02c.4-.11.68-.49.63-.9-.06-.51-.56-.83-1.03-.7l-12.12,3.25c-.46.12-.72.61-.57,1.06.14.42.6.64,1.02.52h0Z" fill="#4f4b14"/>
    </g>
    <g>
      <path d="M76.39,53.01c.62,2.3,2.99,3.67,5.29,3.05,2.3-.62,3.67-2.99,3.05-5.29l-8.34,2.24h0Z" fill="#4f4b14"/>
      <path d="M93.08,48.54c.62,2.3,2.99,3.67,5.29,3.05,2.3-.62,3.67-2.99,3.05-5.29l-8.34,2.24h0Z" fill="#4f4b14"/>
      <path d="M109.77,44.07c.62,2.3,2.99,3.67,5.29,3.05,2.3-.62,3.67-2.99,3.05-5.29l-8.34,2.24h0Z" fill="#4f4b14"/>
      <path d="M68.05,55.25c.62,2.3,2.99,3.67,5.29,3.05,2.3-.62,3.67-2.99,3.05-5.29l-8.34,2.24h0Z" fill="#4f4b14"/>
      <path d="M84.74,50.77c.62,2.3,2.99,3.67,5.29,3.05,2.3-.62,3.67-2.99,3.05-5.29l-8.34,2.24h0Z" fill="#4f4b14"/>
      <path d="M101.42,46.3c.62,2.3,2.99,3.67,5.29,3.05,2.3-.62,3.67-2.99,3.05-5.29l-8.34,2.24h0Z" fill="#4f4b14"/>
      <path d="M118.11,41.83c.62,2.3,2.99,3.67,5.29,3.05,2.3-.62,3.67-2.99,3.05-5.29l-8.34,2.24h0Z" fill="#4f4b14"/>
    </g>
  </g>
  <g id="Stars">
    <path d="M177.89,109.27v-.12h-100.26v.12c-9.99.02-18.09,8.12-18.09,18.12s8.09,18.1,18.09,18.12h100.26c10,0,18.12-8.11,18.12-18.12s-8.11-18.12-18.12-18.12Z" fill="#fab400" fill-rule="evenodd"/>
    <g>
      <path d="M78.46,117.59l2.3,5.48,5.93.49c.8.07,1.13,1.07.52,1.59l-4.51,3.88,1.37,5.79c.19.78-.67,1.4-1.35.98l-5.08-3.09-5.08,3.09c-.69.42-1.54-.2-1.35-.98l1.37-5.79-4.51-3.88c-.61-.52-.29-1.52.52-1.59l5.93-.49,2.3-5.48c.31-.74,1.36-.74,1.67,0h0Z" fill="#fff"/>
      <path d="M103.52,117.59l2.3,5.48,5.93.49c.8.07,1.13,1.07.52,1.59l-4.51,3.88,1.37,5.79c.19.78-.67,1.4-1.35.98l-5.08-3.09-5.08,3.09c-.69.42-1.54-.2-1.35-.98l1.37-5.79-4.51-3.88c-.61-.52-.29-1.52.52-1.59l5.93-.49,2.3-5.48c.31-.74,1.36-.74,1.67,0h0Z" fill="#fff"/>
      <path d="M128.58,117.59l2.3,5.48,5.93.49c.8.07,1.13,1.07.52,1.59l-4.51,3.88,1.37,5.79c.19.78-.67,1.4-1.35.98l-5.08-3.09-5.08,3.09c-.69.42-1.54-.2-1.35-.98l1.37-5.79-4.51-3.88c-.61-.52-.29-1.52.52-1.59l5.93-.49,2.3-5.48c.31-.74,1.36-.74,1.67,0h0Z" fill="#fff"/>
      <path d="M153.64,117.59l2.3,5.48,5.93.49c.8.07,1.13,1.07.52,1.59l-4.51,3.88,1.37,5.79c.19.78-.67,1.4-1.35.98l-5.08-3.09-5.08,3.09c-.69.42-1.54-.2-1.35-.98l1.37-5.79-4.51-3.88c-.61-.52-.29-1.52.52-1.59l5.93-.49,2.3-5.48c.31-.74,1.36-.74,1.67,0h0Z" fill="#fff"/>
      <path d="M178.69,117.59l2.3,5.48,5.93.49c.8.07,1.13,1.07.52,1.59l-4.51,3.88,1.37,5.79c.19.78-.67,1.4-1.35.98l-5.08-3.09-5.08,3.09c-.69.42-1.54-.2-1.35-.98l1.37-5.79-4.51-3.88c-.61-.52-.29-1.52.52-1.59l5.93-.49,2.3-5.48c.31-.74,1.36-.74,1.67,0h0Z" fill="#fff"/>
    </g>
  </g>
  <g id="Pin">
    <g>
      <circle cx="182.42" cy="53.83" r="18.71" fill="#131314"/>
      <path d="M204.15,42.55c-2.99-5.76-8.13-10.1-14.33-12.07-2.41-.74-4.9-1.11-7.39-1.11s-4.98.37-7.39,1.11c-6.2,1.97-11.34,6.31-14.33,12.07-1.82,3.47-2.77,7.33-2.77,11.27,0,14.88,9.52,20.68,17.69,33.44,4.96,7.69,3.57,12.29,6.78,12.29h.04c3.21,0,1.82-4.6,6.78-12.29,8.17-12.76,17.69-18.56,17.69-33.44,0-3.94-.95-7.8-2.77-11.27h0ZM182.42,72.55c-10.33,0-18.71-8.37-18.71-18.71s8.37-18.71,18.71-18.71,18.71,8.37,18.71,18.71-8.37,18.71-18.71,18.71Z" fill="#ff4365"/>
      <path d="M187.8,49.24c2.41,0,3.91-2.6,2.71-4.69-.02-.03-.03-.06-.05-.09-1.21-2.05-4.2-2.01-5.39.05h0c1.2-2.07-.28-4.68-2.67-4.69h-.1c-2.39.01-3.87,2.62-2.67,4.69h0c-1.19-2.06-4.18-2.11-5.39-.06-.02.03-.04.06-.05.09-1.2,2.09.31,4.69,2.71,4.69-2.41,0-3.91,2.6-2.71,4.69.02.03.03.06.05.09,1.21,2.05,4.2,2.01,5.39-.05h0c-1.2,2.07.28,4.68,2.67,4.69h.1c2.39-.01,3.87-2.62,2.67-4.69h0c1.19,2.06,4.18,2.11,5.39.06.02-.03.04-.06.05-.09,1.2-2.09-.31-4.69-2.71-4.69Z" fill="#f29900"/>
      <circle cx="182.35" cy="49.24" r="3.15" fill="#131314"/>
      <path d="M196.43,55.32c-.74,7.09-6.73,12.61-14.01,12.61h-.08c-.09,0-.18,0-.28,0-.06,0-.06,0,0,0-7.11-.18-12.91-5.63-13.64-12.6,6.8.41,12.68,5.4,13.96,12.36,1.29-6.99,7.21-12,14.05-12.37h0Z" fill="#4f4b14"/>
    </g>
  </g>
</svg>