<?xml version="1.0" encoding="utf-8"?>
<!-- Generator: Adobe Illustrator 30.0.0, SVG Export Plug-In . SVG Version: 9.03 Build 0)  -->
<svg version="1.1" baseProfile="basic" id="Layer_1"
	 xmlns="http://www.w3.org/2000/svg" xmlns:xlink="http://www.w3.org/1999/xlink" x="0px" y="0px" width="232px" height="174px"
	 viewBox="0 0 232 174" xml:space="preserve">
<g>
	<g id="Circle_00000134934527752814919130000008528569003238408858_">
		<g>
			<ellipse fill="#BCE9FF" cx="115.9" cy="87" rx="61.55" ry="43.08"/>
			<ellipse fill="#47A1FB" cx="115.9" cy="87" rx="30.58" ry="21.58"/>
			<path fill="#FFFFFF" d="M115.9,109.34c-8.36,0-16.23-2.29-22.16-6.46c-6.01-4.22-9.32-9.86-9.32-15.88s3.31-11.66,9.32-15.88
				c5.93-4.16,13.8-6.46,22.16-6.46s16.23,2.29,22.16,6.46c6.01,4.22,9.32,9.86,9.32,15.88s-3.31,11.66-9.32,15.88
				C132.13,107.04,124.26,109.34,115.9,109.34z M115.9,66.18c-16.52,0-29.96,9.34-29.96,20.82s13.44,20.82,29.96,20.82
				s29.96-9.34,29.96-20.82S132.42,66.18,115.9,66.18L115.9,66.18z"/>
		</g>
	</g>
	<g id="Trees_00000160897017341531866080000009041214070628156082_">
		<g>
			<path fill="#A09D25" d="M43.17,106.84c-1.33,2.31-4.94,3.5-8.06,2.66c-1.5-0.4-2.61-1.2-3.21-2.17
				c-0.53-0.85-0.58-1.92-0.19-2.84c0.77-1.8,2.82-6.59,4.26-9.84c0.62-1.4,2.59-1.43,3.25-0.05c1.78,3.69,4.34,9.15,4.44,10.19
				C43.71,105.46,43.56,106.16,43.17,106.84L43.17,106.84z"/>
			<path fill="#DEE200" d="M21.85,57c-1.69,2.92-6.26,4.44-10.21,3.38c-1.9-0.51-3.31-1.52-4.07-2.75c-0.67-1.08-0.74-2.43-0.24-3.6
				c0.97-2.28,3.57-8.36,5.39-12.47c0.78-1.77,3.28-1.81,4.12-0.07c2.26,4.68,5.5,11.59,5.62,12.92
				C22.54,55.26,22.35,56.14,21.85,57L21.85,57z"/>
			<path fill="#634D46" d="M31.84,129.77L31.84,129.77c0.07-0.93-0.66-1.8-1.91-2.14c-1.59-0.43-3.44,0.18-4.12,1.36
				c-0.15,0.26-0.25,0.77-0.25,0.77v5.38l0,0c-0.07,0.93,0.65,1.8,1.9,2.14c1.59,0.43,3.44-0.18,4.12-1.36
				c0.15-0.26,0.23-0.52,0.25-0.77h0.01L31.84,129.77L31.84,129.77z"/>
			<circle fill="#DEE200" cx="28.7" cy="124.2" r="9.11"/>
			<path fill="#A09D25" d="M119.75,138.97c-1.72,2.98-6.38,4.52-10.4,3.44c-1.93-0.52-3.37-1.54-4.15-2.8
				c-0.68-1.1-0.75-2.47-0.24-3.67c0.99-2.32,3.63-8.51,5.49-12.7c0.8-1.8,3.34-1.84,4.2-0.07c2.3,4.76,5.6,11.8,5.73,13.16
				C120.45,137.2,120.26,138.1,119.75,138.97L119.75,138.97z"/>
			<path fill="#DEE200" d="M151.61,43.26c-1.18,2.05-4.4,3.11-7.17,2.37c-1.33-0.36-2.32-1.07-2.86-1.93
				c-0.47-0.76-0.52-1.71-0.17-2.53c0.68-1.6,2.51-5.87,3.79-8.76c0.55-1.24,2.3-1.27,2.89-0.05c1.59,3.28,3.87,8.14,3.95,9.07
				C152.1,42.03,151.96,42.65,151.61,43.26L151.61,43.26z"/>
			<path fill="#634D46" d="M219.6,57.05L219.6,57.05c0.06-0.84-0.6-1.63-1.72-1.93c-1.44-0.39-3.11,0.16-3.72,1.23
				c-0.13,0.23-0.22,0.7-0.22,0.7v4.86l0,0c-0.06,0.84,0.59,1.63,1.72,1.93c1.44,0.39,3.11-0.16,3.72-1.23
				c0.13-0.23,0.21-0.47,0.22-0.7h0.01V57.05z"/>
			<circle fill="#DEE200" cx="216.77" cy="52.01" r="8.23"/>
		</g>
	</g>
	<g id="Buildings_00000124139404073467823250000005595398589401535658_">
		<g>
			<polygon fill="#FFE7DF" points="35.89,58.01 35.89,68.08 15.7,62.67 15.7,52.6 25.79,44.62 			"/>
			<polygon fill="#47A1FB" points="31.68,57.2 31.68,64.39 26.49,63 26.49,55.8 			"/>
			<path fill="#FF4365" d="M23.8,38.55L15.7,52.6l8.65-6.84c0.79-0.63,1.95-0.48,2.56,0.33l8.98,11.92l8.1-14.05L35,32.04
				c-0.61-0.81-1.76-0.96-2.56-0.33L23.8,38.55L23.8,38.55z"/>
			<polygon fill="#FFC8A0" points="44.2,53.87 35.89,68.08 35.89,58.01 43.98,43.95 			"/>
		</g>
		<g>
			<path fill="#FFA59D" d="M203.96,102.19c-3,5.2-9.11,7.73-14.91,6.17l-21.67-5.81v21.28l21.67,5.81
				c5.79,1.55,11.91-0.98,14.91-6.17l8.36-14.49V87.7L203.96,102.19L203.96,102.19z"/>
			<path fill="#FFCED8" d="M212.33,87.7l-8.36,14.49c-3,5.2-9.11,7.73-14.91,6.17l-21.67-5.81l5.11-8.85l20.51,5.5l8.34-14.44
				L212.33,87.7L212.33,87.7z"/>
			<polygon fill="#FF4365" points="209.8,106.13 209.8,113.32 205.33,121.06 205.33,113.87 			"/>
			<path fill="#4285F4" d="M169.92,107.75v12.47c0,0.99,0.66,1.85,1.62,2.11l15.04,4.03c0.92,0.25,1.82-0.45,1.82-1.4v-12.47
				c0-0.99-0.66-1.85-1.62-2.11l-15.04-4.03C170.82,106.1,169.92,106.8,169.92,107.75L169.92,107.75z"/>
			<polygon fill="#BCE9FF" points="184.22,109.69 184.22,125.72 184.86,125.89 184.86,109.86 			"/>
			<polygon fill="#BCE9FF" points="174.1,106.98 173.46,106.81 173.46,122.84 174.1,123.01 			"/>
			<polygon fill="#BCE9FF" points="179.48,124.45 179.48,108.42 178.84,108.25 178.84,124.28 			"/>
		</g>
		<g>
			<path fill="#FFA59D" d="M78.78,86.65L78.78,86.65c0.02,0.3-0.04,0.62-0.21,0.91l-7.03,12.18c-0.66,1.14-2,1.7-3.28,1.36
				l-13.98-3.75l0.85-1.47l-0.85-0.23v-7.32l-14.35-3.84c-0.59-0.16-0.98-0.66-1.04-1.21l-0.01,0l0.02,25.23
				c-0.03,0.15-0.02,0.31,0,0.45v0l0,0c0.09,0.53,0.47,0.99,1.04,1.15l14.35,3.84l0.01-0.01l13.98,3.73
				c1.27,0.34,2.62-0.22,3.28-1.36l7.03-12.18c0.16-0.28,0.22-0.58,0.2-0.88l0.01,0V86.65L78.78,86.65z"/>
			<path fill="#4285F4" d="M41.98,87.98l8.9,2.38c0.34,0.09,0.57,0.4,0.57,0.75v18.12c0,0.51-0.48,0.88-0.97,0.75l-8.9-2.38
				c-0.34-0.09-0.57-0.4-0.57-0.75V88.73C41.01,88.22,41.49,87.85,41.98,87.98z"/>
			<polygon fill="#FF8379" points="63.43,72.49 63.43,81.5 54.28,97.35 54.28,88.33 			"/>
			<path fill="#FFDFEA" d="M63.43,72.49L49.4,68.73c-1.24-0.33-2.56,0.21-3.2,1.33L39.07,82.4c-0.47,0.81-0.04,1.85,0.86,2.09
				l14.35,3.84L63.43,72.49L63.43,72.49z"/>
			<path fill="#FFCED8" d="M63.43,81.5l-9.15,15.85l13.98,3.75c1.27,0.34,2.62-0.22,3.28-1.36l7.03-12.18
				c0.5-0.87,0.04-1.99-0.93-2.25L63.43,81.5L63.43,81.5z"/>
			<polygon fill="#FF4365" points="65.58,111.32 65.58,116.98 55.89,114.38 55.89,108.7 			"/>
			<polygon fill="#BCE9FF" points="46.55,94.16 51.45,95.48 51.45,94.82 46.55,93.51 46.55,89.21 45.92,89.04 45.92,93.34 
				41.01,92.02 41.01,92.68 45.92,93.99 45.92,98.48 41.01,97.17 41.01,97.82 45.92,99.14 45.92,103.63 41.01,102.31 41.01,102.97 
				45.92,104.28 45.92,108.76 46.55,108.93 46.55,104.45 51.45,105.77 51.45,105.11 46.55,103.8 46.55,99.31 51.45,100.62 
				51.45,99.97 46.55,98.65 			"/>
		</g>
		<g>
			<polygon fill="#FFA59D" points="186.68,46.31 182.22,45.12 179.69,49.49 184.15,50.69 			"/>
			<polygon fill="#FF8379" points="186.68,46.31 186.68,51.14 184.55,50.01 			"/>
			<polygon fill="#FFE7DF" points="186.12,67.13 186.12,75.58 157.36,67.87 157.36,59.3 186.1,67.12 			"/>
			<path fill="#FF4365" d="M186.1,67.12l-28.74-7.86c0,0,2.48-9.61,3.29-12.75c0.81-3.14,1.97-2.63,1.97-2.63l28.76,7.87
				L186.1,67.12L186.1,67.12z"/>
			<path fill="#FFC8A0" d="M194.28,61.58l-8.15,14.12v-8.57c0,0,2.48-9.61,3.29-12.75c0.81-3.14,1.97-2.63,1.97-2.63l2.89,1.26
				L194.28,61.58L194.28,61.58z"/>
			<polygon fill="#FF8379" points="181.55,67.61 181.55,74.35 177.08,73.16 177.08,66.4 			"/>
			<polygon fill="#4285F4" points="174.28,63.9 174.28,69.44 160.42,65.73 160.42,60.12 			"/>
			<polygon fill="none" points="174.28,63.9 174.28,69.44 160.42,65.73 160.42,60.12 			"/>
			<polygon fill="#BCE9FF" points="167.67,64.5 167.67,62.1 167.03,61.92 167.03,64.33 160.42,62.55 160.42,63.21 167.03,64.98 
				167.03,67.5 167.67,67.67 167.67,65.15 174.28,66.93 174.28,66.27 			"/>
			<path fill="#A09D25" d="M192.5,81.25c-1.25,2.16-4.62,3.27-7.54,2.49c-1.4-0.38-2.44-1.12-3.01-2.03
				c-0.5-0.8-0.55-1.79-0.18-2.66c0.72-1.68,2.63-6.17,3.98-9.21c0.58-1.31,2.42-1.34,3.04-0.05c1.67,3.45,4.06,8.56,4.15,9.54
				C193.01,79.96,192.86,80.62,192.5,81.25L192.5,81.25z"/>
		</g>
	</g>
	<g id="Person_00000005236906749895852840000016276166458244845993_">
		<g>
			<path fill="#FF4365" d="M122.29,86.18v4.51c0,1.39,0.6,1.86,2.27,1.86c0,2.49,0.98,5.3,5.18,5.3s3.98-4.2,1.89-6.22
				c-2.08-2.02-2.78-7.19-2.78-7.19L122.29,86.18L122.29,86.18z"/>
			<path fill="#FF4365" d="M105.85,81.22c-1.39,2.78-1.45,3.09-4.23,3.82c-2.78,0.73-4.01,3.5-2.37,5.33
				c1.64,1.83,4.45,1.2,6.44,0.95c1.99-0.25,2.37-1.58,2.37-1.58c0,1.89,1.64,2.4,3.53,1.45c1.89-0.95,1.86-3.98,0.32-6.44
				L105.85,81.22L105.85,81.22z"/>
			
				<linearGradient id="SVGID_1_" gradientUnits="userSpaceOnUse" x1="124.9207" y1="-6462.7637" x2="123.6193" y2="-6461.9346" gradientTransform="matrix(1 0 0 -1 0 -6370)">
				<stop  offset="0" style="stop-color:#333333"/>
				<stop  offset="1" style="stop-color:#4D4D4D;stop-opacity:0"/>
			</linearGradient>
			<path fill="url(#SVGID_1_)" d="M122.29,90.86c0.05,1.25,0.67,1.69,2.27,1.69v-0.1c0-0.53-0.34-0.99-0.84-1.15L122.29,90.86z"/>
			<path d="M114.71,56.64l-4.32,0.73c-3.25,3.41-2.11,8.33-2.11,10.98s-5.02,6.97-5.02,10.82c0,3.85,1.99,5.49,5.73,6.31
				c3.74,0.82,7.12-1.86,6.74-5.74c-0.38-3.88-0.13-8.3,0.91-9.31c0.6,3.22,0.91,4.67,0.66,7.86c-0.25,3.19,0.76,10.03,6.72,10.03
				c5.96,0,10.1-6.53,4.1-14.61c-2.87-3.72-2.81-6.94-2.81-9.88s-1.86-4.35-1.86-4.35L114.71,56.64L114.71,56.64z"/>
			<path fill="#FF4365" d="M129.17,63.36c-2.78,2.15-5.65,0.35-6.37-3.12c0,0-1.01,0.5-3.69-1.29c-2.68-1.8-6.31,0.63-8.71-2.08
				c-1.86,1.29-3.5,0.63-5.21,0c-1.7-0.63-3.63-1.39-4.01-3.72c-0.38-2.34,1.17-4.76,3.98-5.71c2.81-0.95,2.97-2.56,3.98-3.88
				c0.91-1.2,1.93-2.06,4.1-2.43c0.08-0.02,0.16-0.03,0.24-0.04c2.12-0.27,6.58,0.69,8.7,1.5c4.88,1.7,5.76,2.69,6.4,5.32
				c0.21,0.65,0.41,1.31,0.66,1.95c0.54,1.48,1.52,2.88,2.44,4.21C133.55,56.7,131.94,61.21,129.17,63.36L129.17,63.36z"/>
			<path fill="#FFA59D" d="M123.29,61.1c0,0-1.3,0.19-1.63,1.54l2.46,3.29c0.47,0.57,2.56-1.33,2.56-1.33L123.29,61.1z"/>
			
				<linearGradient id="SVGID_00000122680698916724958440000001583176450036300952_" gradientUnits="userSpaceOnUse" x1="122.3876" y1="-6431.3491" x2="119.9737" y2="-6426.0952" gradientTransform="matrix(1 0 0 -1 0 -6370)">
				<stop  offset="0" style="stop-color:#000000"/>
				<stop  offset="1" style="stop-color:#FF4365;stop-opacity:0"/>
			</linearGradient>
			<path fill="url(#SVGID_00000122680698916724958440000001583176450036300952_)" d="M125.47,56.83c0,0-2.19-0.57-2.84-4.51
				l-6.63-0.22v6.62c1.08-0.01,2.14,0.1,3.09,0.74c2.68,1.8,3.69,1.29,3.69,1.29l0,0C122.51,58.9,124.15,57.46,125.47,56.83
				L125.47,56.83z"/>
			<path fill="#FFA59D" d="M110.33,51.59l4.02,0.61c0.44,0.06,0.61,0.42,0.49,1.63s-0.22,2.45-1.73,2.81
				c-1.5,0.36-4.6,0.19-5.99-1.13c-1.39-1.33-0.86-3.41,0-3.92c1.4-0.81,2.51-1.46,2.51-1.46l0.84,0.52L110.33,51.59L110.33,51.59z"
				/>
			<path fill="#FFA59D" d="M110.15,49.97c0.77-0.32,1.28-0.77,1.7-1.31c0.43-0.54,1.62-0.32,1.2,0.88c-0.43,1.2-1.41,1.32-1.41,1.32
				L110.15,49.97L110.15,49.97z"/>
			<path d="M109.85,51.52c0,0-0.11-0.53-0.2-1.04c-0.09-0.52,0.26-0.96,0.83-0.83l2.02,0.46c0.43,0.1,0.78,0.44,0.88,0.87l0.28,1.12
				L109.85,51.52L109.85,51.52z"/>
			<path d="M122.91,35.09c-0.31-0.44-0.68-0.62-0.9-0.92v0c-0.21-0.25-0.33-0.57-0.42-0.82h0c-0.73-1.9-3.11-2.84-4.98-1.38
				c-2.62-0.66-5.54,3.04-3.28,6.06c0.45,0.61,1.42,1.23,1.42,1.23l1.45,2.74l2.56-0.08l0.28,0.51l0.59-0.95
				c0.02,0.34,0.68,0.34,1.35-0.05c0,0,0,0,0,0c0.89-0.58,1.01-1.32,1.11-1.97c0,0,0,0,0.01,0c0.08-0.39,0.26-0.66,0.44-0.87
				c0,0,0,0,0,0c0.03-0.04,0.06-0.07,0.09-0.11c0,0,0,0,0,0C123.65,37.24,123.54,36,122.91,35.09L122.91,35.09z"/>
			<path fill="#FFA59D" d="M113.96,37.91c0.52-0.21,1.14-0.07,1.61-1.33c0.3,0.48,1.82,0.89,3.13,0.71c0.4-0.05,0.76,0.22,0.82,0.62
				l0.05,0.34c-0.03-1.32,1.16-1.65,1.49-0.6c0.2,0.61-0.17,1.15-0.51,1.48c-0.49,0.48-0.83,1.1-0.9,1.79
				c-0.12,1.03,0.23,2.01,1.2,2.24c-1.16,1.4-3.68,1.33-4.05,0.15l-0.33-1.14c-1.68-0.08-2.04-1.22-2.1-1.96
				c-0.03-0.42-0.09-0.83-0.2-1.23C114.1,38.72,114.03,38.37,113.96,37.91L113.96,37.91z"/>
			<path d="M117.62,40.75c-0.27-0.51-1.61-1.04-1.87-0.73c-0.25-0.29-1.33,0.37-1.51,0.9c-0.19,0.54,0.64,0.24,1.04-0.05
				c0.23-0.17,0.41-0.34,0.49-0.51c0.11,0.15,0.34,0.31,0.63,0.45C116.89,41.06,117.89,41.27,117.62,40.75L117.62,40.75z"/>
		</g>
	</g>
</g>
</svg>
