<svg xmlns="http://www.w3.org/2000/svg" width="28" height="40"><path fill-rule="evenodd" clip-rule="evenodd" fill="#FFF" d="M14 .66C6.55.66.5 6.7.5 14.16c0 8.19 5.32 11.4 9.85 18.41 2.74 4.24 1.92 6.78 3.65 6.78 1.77 0 .98-2.54 3.72-6.78 4.53-7.02 9.78-10.22 9.78-18.41C27.5 6.7 21.45.66 14 .66z"/><path fill="#9AA0A6" d="M14 39.85c-1.28 0-1.59-1.02-1.98-2.31-.35-1.15-.83-2.73-2.1-4.69-1.31-2.03-2.67-3.72-3.99-5.36C2.75 23.54 0 20.13 0 14.15c0-7.72 6.28-14 14-14s14 6.28 14 14c0 6-2.74 9.42-5.91 13.38-1.3 1.62-2.64 3.3-3.94 5.31-1.25 1.94-1.74 3.51-2.1 4.65-.42 1.32-.74 2.36-2.05 2.36zm0-38.69c-7.17 0-13 5.83-13 13 0 5.62 2.52 8.74 5.71 12.7 1.34 1.66 2.72 3.37 4.06 5.44 1.35 2.09 1.87 3.81 2.21 4.95.42 1.39.55 1.6 1.02 1.6.52 0 .66-.29 1.08-1.65.37-1.2.89-2.84 2.22-4.9 1.33-2.05 2.69-3.75 4-5.39 3.18-3.98 5.7-7.11 5.7-12.76 0-7.16-5.83-12.99-13-12.99z"/><path fill="#1A73E8" d="M14.04 7.67l-5.8 4.35v8.7h4.35v-5.08h2.9v5.08h4.35v-8.7l-5.8-4.35z"/></svg>
