<svg width="26" height="42" viewBox="0 0 26 42" fill="none" xmlns="http://www.w3.org/2000/svg">
<g opacity="0.3" filter="url(#filter0_f_2679:8011)">
<circle cx="13" cy="38" r="2" fill="#80868B"/>
</g>
<path d="M13 38C12.5 38 12.675 37.9269 12.2417 36.575C11.8806 35.4058 11.3389 33.6154 9.93056 31.4231C8.55833 29.2673 7.11389 27.5135 5.74167 25.8327C2.52778 21.8135 0 18.6346 0 13.0077C0 5.80961 5.81389 0 13 0C20.1861 0 26 5.84615 26 13.0077C26 18.6712 23.4722 21.85 20.2222 25.8692C18.8861 27.55 17.4778 29.3038 16.1056 31.4231C14.7333 33.5788 14.1556 35.3327 13.7944 36.5019C13.3611 37.9269 13.5 38 13 38Z" fill="#EA4335"/>
<path fill-rule="evenodd" clip-rule="evenodd" d="M13 18C10.2389 18 8 15.7611 8 13C8 10.2389 10.2389 8 13 8C15.7611 8 18 10.2389 18 13C18 15.7611 15.7611 18 13 18Z" fill="#A50E0E"/>
<defs>
<filter id="filter0_f_2679:8011" x="9" y="34" width="8" height="8" filterUnits="userSpaceOnUse" color-interpolation-filters="sRGB">
<feFlood flood-opacity="0" result="BackgroundImageFix"/>
<feBlend mode="normal" in="SourceGraphic" in2="BackgroundImageFix" result="shape"/>
<feGaussianBlur stdDeviation="1" result="effect1_foregroundBlur_2679:8011"/>
</filter>
</defs>
</svg>
