<svg width="320" height="120" fill="none" xmlns="http://www.w3.org/2000/svg"><path d="M270.062 23.5348c.322-.8706 1.554-.8706 1.876 0l.523 1.4137c.101.2737.317.4895.591.5908l1.414.5231c.87.3222.87 1.5536 0 1.8757l-1.414.5232c-.274.1012-.49.3171-.591.5908l-.523 1.4137c-.322.8706-1.554.8706-1.876 0l-.523-1.4137c-.101-.2737-.317-.4896-.591-.5908l-1.413-.5232c-.871-.3221-.871-1.5535 0-1.8757l1.413-.5231c.274-.1013.49-.3171.591-.5908l.523-1.4137zM235.062 93.5348c.322-.8706 1.554-.8706 1.876 0l.523 1.4137c.101.2737.317.4895.591.5908l1.414.5231c.87.3222.87 1.5536 0 1.8757l-1.414.5232c-.274.1012-.49.3171-.591.5908l-.523 1.4139c-.322.87-1.554.87-1.876 0l-.523-1.4139c-.101-.2737-.317-.4896-.591-.5908l-1.413-.5232c-.871-.3221-.871-1.5535 0-1.8757l1.413-.5231c.274-.1013.49-.3171.591-.5908l.523-1.4137z" fill="#FEEFC3"/><path d="M221.124 23.0686c.645-1.7412 3.107-1.7412 3.752 0l1.856 5.0172c.203.5474.635.979 1.182 1.1816l5.017 1.8565c1.741.6443 1.741 3.1071 0 3.7514l-5.017 1.8565c-.547.2026-.979.6342-1.182 1.1817l-1.856 5.0171c-.645 1.7412-3.107 1.7412-3.752 0l-1.856-5.0171c-.203-.5475-.634-.9791-1.182-1.1817l-5.017-1.8565c-1.741-.6443-1.741-3.1071 0-3.7514l5.017-1.8565c.548-.2026.979-.6342 1.182-1.1816l1.856-5.0172z" fill="#FCC934"/><path d="M44.5734 81.391c.449-1.382 2.4041-1.382 2.8531 0l.4818 1.4827c.2008.6181.7768 1.0365 1.4266 1.0365h1.5591c1.4531 0 2.0572 1.8594.8817 2.7135l-1.2614.9165c-.5257.3819-.7457 1.059-.5449 1.677l.4818 1.4828c.449 1.382-1.1327 2.5311-2.3083 1.677l-1.2613-.9164c-.5257-.3819-1.2376-.3819-1.7633 0l-1.2614.9164c-1.1755.8541-2.7573-.295-2.3082-1.677l.4818-1.4828c.2008-.618-.0192-1.2951-.5449-1.677l-1.2614-.9165c-1.1755-.8541-.5714-2.7135.8817-2.7135h1.5591c.6498 0 1.2258-.4184 1.4266-1.0365l.4818-1.4827zM23.1244 47.0686c.6443-1.7412 3.1071-1.7412 3.7514 0l.7762 2.0975c.2025.5475.6341.9791 1.1816 1.1817l2.0975.7761c1.7412.6443 1.7412 3.1071 0 3.7514l-2.0975.7762c-.5475.2025-.9791.6342-1.1816 1.1816l-.7762 2.0975c-.6443 1.7412-3.1071 1.7412-3.7514 0l-.7762-2.0975c-.2025-.5474-.6341-.9791-1.1816-1.1816l-2.0975-.7762c-1.7412-.6443-1.7412-3.1071 0-3.7514l2.0975-.7761c.5475-.2026.9791-.6342 1.1816-1.1817l.7762-2.0975z" fill="#FDE293"/><path d="M60.0622 23.5348c.3222-.8706 1.5535-.8706 1.8757 0l.5231 1.4137c.1013.2737.3171.4895.5908.5908l1.4137.5231c.8707.3222.8707 1.5536 0 1.8757l-1.4137.5232c-.2737.1012-.4895.3171-.5908.5908l-.5231 1.4137c-.3222.8706-1.5535.8706-1.8757 0l-.5231-1.4137c-.1013-.2737-.3171-.4896-.5908-.5908l-1.4137-.5232c-.8707-.3221-.8707-1.5535 0-1.8757l1.4137-.5231c.2737-.1013.4895-.3171.5908-.5908l.5231-1.4137zM91.0622 94.5348c.3222-.8706 1.5535-.8706 1.8757 0l.7932 2.1436c.1013.2737.3171.4895.5908.5908l2.1436.7932c.8707.3222.8707 1.5536 0 1.8757l-2.1436.7929c-.2737.102-.4895.317-.5908.591l-.7932 2.144c-.3222.87-1.5535.87-1.8757 0l-.7932-2.144c-.1013-.274-.3171-.489-.5908-.591l-2.1436-.7929c-.8707-.3221-.8707-1.5535 0-1.8757l2.1436-.7932c.2737-.1013.4895-.3171.5908-.5908l.7932-2.1436z" fill="#FEEFC3"/><path d="M77.2044 51.2924c.5155-1.8065 3.0758-1.8065 3.5913 0 .2766.9691 1.2722 1.5439 2.2497 1.2989 1.8223-.4568 3.1024 1.7604 1.7957 3.1102-.701.724-.701 1.8737 0 2.5977 1.3067 1.3498.0266 3.567-1.7957 3.1102-.9775-.245-1.9731.3298-2.2497 1.2989-.5155 1.8065-3.0758 1.8065-3.5913 0-.2766-.9691-1.2722-1.5439-2.2497-1.2989-1.8223.4568-3.1024-1.7604-1.7957-3.1102.701-.724.701-1.8737 0-2.5977-1.3067-1.3498-.0266-3.567 1.7957-3.1102.9775.245 1.9731-.3298 2.2497-1.2989zM282.598 86.8536c.599-1.8426 3.205-1.8426 3.804 0l.231.7103c.268.824 1.036 1.3819 1.902 1.3819h.747c1.937 0 2.743 2.4793 1.175 3.6181l-.604.4389c-.701.5093-.994 1.4121-.726 2.2361l.23.7102c.599 1.8427-1.51 3.3749-3.077 2.2361l-.604-.4389c-.701-.5093-1.651-.5093-2.352 0l-.604.4389c-1.567 1.1388-3.676-.3934-3.077-2.2361l.23-.7102c.268-.824-.025-1.7268-.726-2.2361l-.604-.4389c-1.568-1.1388-.762-3.6181 1.175-3.6181h.747c.866 0 1.634-.5579 1.902-1.3819l.231-.7103z" fill="#FCC934"/><path d="M290.504 49.2433c.429-1.5054 2.563-1.5054 2.992 0 .231.8076 1.061 1.2866 1.875 1.0824 1.519-.3806 2.585 1.4671 1.497 2.5919-.585.6033-.585 1.5614 0 2.1647 1.088 1.1248.022 2.9725-1.497 2.5919-.814-.2042-1.644.2748-1.875 1.0824-.429 1.5054-2.563 1.5054-2.992 0-.231-.8076-1.061-1.2866-1.875-1.0824-1.519.3806-2.585-1.4671-1.497-2.5919.585-.6033.585-1.5614 0-2.1647-1.088-1.1248-.022-2.9725 1.497-2.5919.814.2042 1.644-.2748 1.875-1.0824zM249.062 55.5348c.322-.8706 1.554-.8706 1.876 0l.523 1.4137c.101.2737.317.4895.591.5908l1.414.5231c.87.3222.87 1.5536 0 1.8757l-1.414.5232c-.274.1012-.49.3171-.591.5908l-.523 1.4137c-.322.8706-1.554.8706-1.876 0l-.523-1.4137c-.101-.2737-.317-.4896-.591-.5908l-1.413-.5232c-.871-.3221-.871-1.5535 0-1.8757l1.413-.5231c.274-.1013.49-.3171.591-.5908l.523-1.4137z" fill="#FDE293"/></svg>