<?xml version="1.0" encoding="utf-8"?>
<!-- Generator: Adobe Illustrator 30.0.0, SVG Export Plug-In . SVG Version: 9.03 Build 0)  -->
<svg version="1.1" baseProfile="basic" id="Layer_1"
	 xmlns="http://www.w3.org/2000/svg" xmlns:xlink="http://www.w3.org/1999/xlink" x="0px" y="0px" width="138px" height="138px"
	 viewBox="0 0 138 138" xml:space="preserve">
<g>
	<g id="BG_00000000200367664440528530000013241590672897722046_">
		<path fill-rule="evenodd" clip-rule="evenodd" fill="#202FB0" d="M118.11,24.89c-0.47-0.03-0.94,0.12-1.31,0.41
			c-3.56,2.81-6.84,5.98-9.76,9.44c-0.7,0.83-1.4,1.71-1.51,2.83c-0.05,0.53,0.06,1.08,0.38,1.51c0.7,0.95,1.9,0.83,2.97,0.86
			c1.08,0.03,2.41,0.44,2.33,1.74c-0.02,0.4-0.18,0.78-0.42,1.1c-2.12,2.77-4.4,5.43-6.82,7.95c-0.43,0.44-0.13,1.18,0.48,1.2
			l6.45,0.27c0.31,0.01,0.61-0.1,0.84-0.32c2.92-2.84,5.56-5.97,7.88-9.32c0.35-0.5,0.69-1.02,0.75-1.64
			c0.03-0.29-0.02-0.59-0.16-0.85c-0.45-0.79-1.49-0.75-2.31-0.51c-0.91,0.27-1.89,0.7-2.76,0.06c-0.47-0.34-0.74-0.89-0.79-1.46
			c-0.11-1.29,0.63-2.34,1.38-3.3c2.47-3.19,5.28-6.11,8.38-8.69c0.39-0.32,0.18-0.95-0.32-0.97L118.11,24.89z"/>
		<path fill="#FFD4F8" d="M63.65,130.89c-14.29-0.39-10.63-13.59-22.35-16.37c-7.63-1.67-12.54-10.18-10.17-17.62
			c3.2-9.57-6.65-13.73-4.67-22.94c0.67-3.82,2.83-7.11,6.06-9.26c8.6-5.27,3.73-14.79,11.17-20.57c7.03-6.34,15.46,0.15,22.2-7.43
			c5.26-5.77,15.09-5.77,20.35,0c6.68,7.56,15.21,1.11,22.2,7.43c2.97,2.5,4.75,6,4.99,9.88c0.26,10.09,10.94,10.63,12.23,19.96
			c0.67,3.82-0.22,7.65-2.52,10.77c-6.28,7.89,1.55,15.18-3.46,23.15c-4.43,8.36-14.58,5.14-18.32,14.57
			c-2.97,7.22-12.2,10.58-19.12,6.96c-3.87-1.92-8.48-1.92-12.35,0C67.9,130.39,65.78,130.89,63.65,130.89L63.65,130.89z"/>
	</g>
	<g id="Flag_00000142177749384880350180000001724047978029597834_">
		<g>
			<g>
				<path fill="#999999" d="M8.87,42.72c0,0,0.01,0,0.01-0.01L6.45,31.5c0,0-0.01,0-0.01,0.01c0,0,0.01,0,0.01-0.01L4.01,20.29
					c0,0-0.01,0-0.01,0.01l7.31,33.65c0,0,0.01,0,0.01-0.01L8.89,42.72C8.89,42.72,8.88,42.72,8.87,42.72L8.87,42.72z"/>
				<path fill="#455EE3" d="M6.45,31.5l2.44,11.21c3.65-1.86,8.26-4.3,12.37-6.13l-2.39-11.24C14.74,27.19,10.11,29.64,6.45,31.5
					L6.45,31.5z"/>
				<path fill="#202FB0" d="M21.52,24.23c-0.85,0.33-1.74,0.71-2.66,1.12l2.39,11.24c0.92-0.41,1.81-0.79,2.66-1.12
					c3.42-1.35,6.93-2.48,10.54-3.22l-2.39-11.23C28.45,21.76,24.94,22.88,21.52,24.23L21.52,24.23z"/>
				<path fill="#202FB0" d="M8.88,42.72l2.44,11.21c3.64-1.85,8.24-4.27,12.33-6.1l-2.39-11.25C17.15,38.42,12.53,40.86,8.88,42.72
					L8.88,42.72z"/>
				<path fill="#455EE3" d="M23.91,35.46c-0.85,0.33-1.74,0.71-2.66,1.12l2.39,11.25c0.92-0.41,1.81-0.79,2.66-1.12
					c3.42-1.35,6.92-2.48,10.54-3.24l-2.39-11.23C30.84,32.99,27.33,34.11,23.91,35.46L23.91,35.46z"/>
				<path fill="#202FB0" d="M18.86,25.35l-2.39-11.22c-4.14,1.84-8.79,4.29-12.47,6.16L6.45,31.5
					C10.11,29.64,14.74,27.19,18.86,25.35L18.86,25.35z"/>
				<path fill="#455EE3" d="M21.52,24.23c3.42-1.35,6.93-2.47,10.54-3.21L29.67,9.79c-3.61,0.75-7.12,1.87-10.54,3.22
					c-0.85,0.33-1.74,0.71-2.66,1.12l2.39,11.22C19.78,24.94,20.67,24.56,21.52,24.23L21.52,24.23z"/>
			</g>
			<path fill="#202FB0" d="M33.69,19.26c0,0,0.01-0.01,0.01-0.01c1.68-1.38,8.45-5.61,8.19-8.31l-0.06-0.25
				c-0.11-0.4-0.4-0.76-0.91-1.06c-1.83-0.97-4.87-0.82-7.51-0.47c-1.02,0.14-1.98,0.3-2.78,0.44c-0.32,0.06-0.65,0.13-0.97,0.19
				l2.29,10.76C32.64,20.05,33.24,19.61,33.69,19.26L33.69,19.26L33.69,19.26z"/>
			<g>
				<path fill="#5193FF" d="M37.18,52.69c2.12-0.46,4.23-1.16,6.26-2.04l-2.39-11.24c-2.05,0.89-4.18,1.6-6.31,2.06
					c-2.22,0.48-7.05,1.25-8.33-0.48l2.44,11.22C30.13,53.95,34.96,53.18,37.18,52.69L37.18,52.69z"/>
				<path fill="#DFF2FD" d="M34.74,41.48c2.13-0.46,4.26-1.17,6.31-2.06l-2.39-11.23c-2.07,0.89-4.21,1.6-6.36,2.07
					c-2.39,0.51-7.64,1.37-8.43-0.91L26.41,41C27.7,42.73,32.52,41.96,34.74,41.48L34.74,41.48z"/>
				<path fill="#DFF2FD" d="M43.44,50.65c-2.04,0.88-4.15,1.58-6.26,2.04c-2.22,0.48-7.04,1.25-8.33-0.48L31.19,63
					c0.78,2.28,6.04,1.42,8.43,0.91c2.1-0.47,4.19-1.15,6.22-2.01L43.44,50.65L43.44,50.65z"/>
				<path fill="#DFF2FD" d="M58.78,25.05c2.71-2.65,5.42-4.16,8.22-4.86L64.73,8.93c-2.87,0.68-5.62,2.22-8.39,4.91
					c-1.59,1.57-3.09,3.23-4.65,4.87l2.34,11.28C55.62,28.33,57.15,26.64,58.78,25.05L58.78,25.05z"/>
				<path fill="#5193FF" d="M58.78,25.05c-1.63,1.59-3.16,3.28-4.74,4.93l2.35,11.31c1.62-1.68,3.18-3.41,4.84-5.02
					c2.65-2.59,5.31-4.1,8.05-4.82L67,20.19C64.19,20.89,61.49,22.41,58.78,25.05L58.78,25.05z"/>
				<path fill="#DFF2FD" d="M69.26,31.45c-2.74,0.72-5.4,2.23-8.05,4.82c-1.66,1.62-3.22,3.34-4.84,5.02l2.35,11.34
					c1.65-1.72,3.23-3.49,4.92-5.15c2.61-2.52,5.19-4.03,7.88-4.77L69.26,31.45L69.26,31.45z"/>
				<path fill="#DFF2FD" d="M46.97,36.19c-1.84,1.23-3.84,2.32-5.92,3.23l2.39,11.24c2.1-0.91,4.11-2.01,5.97-3.25
					c2.64-1.77,4.85-3.91,6.97-6.11l-2.35-11.31C51.89,32.22,49.65,34.4,46.97,36.19L46.97,36.19z"/>
				<path fill="#5193FF" d="M49.41,47.41c-1.85,1.24-3.87,2.34-5.97,3.25l2.39,11.24c2.12-0.9,4.15-2.01,6.01-3.27
					c2.62-1.71,4.8-3.81,6.89-5.99l-2.35-11.34C54.26,43.5,52.05,45.64,49.41,47.41L49.41,47.41z"/>
				<path fill="#5193FF" d="M46.97,36.19c2.68-1.79,4.92-3.97,7.06-6.21l-2.34-11.28c-2.17,2.28-4.42,4.48-7.16,6.27
					c-1.82,1.24-3.8,2.32-5.87,3.22l2.39,11.23C43.13,38.51,45.13,37.42,46.97,36.19L46.97,36.19z"/>
			</g>
			<path fill="#455EE3" d="M23.88,29.36c0.79,2.27,6.04,1.41,8.43,0.9c1.17-0.26,2.35-0.59,3.51-0.98l-2.13-10.02
				C31.12,21.27,23.35,26.44,23.88,29.36L23.88,29.36L23.88,29.36z"/>
			<path fill="#9FD5FF" d="M44.53,24.97c0.12-0.08,0.24-0.16,0.35-0.24l-3.02-13.89c0.45,2.7-6.47,7.01-8.17,8.41
				c0,0-0.01,0.01-0.01,0.01l2.13,10.02c0.96-0.32,1.91-0.68,2.85-1.09l0,0C40.73,27.3,42.72,26.21,44.53,24.97L44.53,24.97z"/>
		</g>
		<path fill="#4F0033" d="M89.92,111.65L69.04,7.75c-0.25-1.2-1.43-1.98-2.64-1.72c-1.2,0.25-1.98,1.43-1.72,2.64l11.67,58.06
			l-0.96,0.61l-1.42,3.56l1.06,1.42l2.18-1.3l8.35,41.56c0.22,1.03,1.11,1.74,2.12,1.77c0.17,0,0.35-0.01,0.52-0.05
			C89.41,114.04,90.18,112.86,89.92,111.65L89.92,111.65z"/>
	</g>
	<g id="Hand_00000136372984337640450530000011586979161230618016_">
		<path fill="#640D00" d="M63.36,103.01c-3.74-7.39-10.45-8.23-13.42-6.23c-2.18,1.46-11.94,8.36-16.98,11.94
			c1.96,2.92,4.89,4.97,8.34,5.81c4.19,1.02,7.73,3.99,9.46,7.94c0.68,1.55,1.61,2.94,2.74,4.12c2.32-2.67,5.51-6.34,7.31-8.42
			C63.87,114.63,67.02,110.25,63.36,103.01L63.36,103.01z"/>
		<path fill="#640D00" d="M77.14,98.1c-0.36-3.39-1.57-7.01-5.44-9.74c-3.87-2.72-6.53,1.45-8.71,4.05
			c-0.19,0.22-0.37,0.44-0.56,0.66l0,0c0,0,7.86,3.21,7.53,15.09l0,0c1.21-1.1,2.27-1.89,3.42-2.57
			C76.6,103.73,77.51,101.49,77.14,98.1L77.14,98.1z"/>
		<g>
			<path fill="#FF4365" d="M96.84,92.04L96.84,92.04c-0.25-0.63-2.25-3.29-1.29-4.58c1.32-2.42,2.5-4.82,0.34-7.2
				c-0.64-0.85-2.14-2.13-2.03-3.32c0.27-3.4-0.32-6.87-4.42-7.12c0.53-1.15,2.48-4.27,2.93-5.38l0,0c0.95-2.83-1.29-5.92-4.29-5.87
				c-1.27,0-2.41,0.52-3.23,1.36l-8.81,9.03c6.66-14.8-7.78-18.06-7.88-6.38c0.27,4.68-1.37,7.11-4.57,10.36
				c-10.28,9.16-2.04,14.79-11.79,18.03c-4.12,1.69-5.18,3.37-4.99,7.96c3.43-2.36,4.62-3.82,8.99-2.73l0,0
				c6.91,1.86,9.52-12.22,15.89-7.83c3.87,2.72,5.08,6.35,5.44,9.74c0.88,5.83-3.37,6.73-7.17,10.07c-0.6,0.37-7.55,7.75-9.54,10.42
				c11.99,3.96,9.98-6.84,18.7-11.96C85.21,102.92,99.66,99.36,96.84,92.04L96.84,92.04z"/>
			<path fill="#8C0019" d="M69.97,108.17L69.97,108.17c0.33-11.89-7.53-15.09-7.53-15.09l0,0c-3.27,4-6.63,3.12-6.63,3.12l0,0
				c2.68,0.77,5.54,2.85,7.55,6.81c2.99,5.91,1.44,9.92-0.89,13.11C64.62,113.4,69.97,108.17,69.97,108.17L69.97,108.17z"/>
		</g>
		
			<radialGradient id="SVGID_1_" cx="4400.1831" cy="-9812.7568" r="22.5343" gradientTransform="matrix(-0.168 0.9858 0.5619 0.0957 6316.9019 -3331.6799)" gradientUnits="userSpaceOnUse">
			<stop  offset="0.65" style="stop-color:#FF4365"/>
			<stop  offset="1" style="stop-color:#8C0019"/>
		</radialGradient>
		<path fill="url(#SVGID_1_)" d="M76.06,68.96l0.53-1.44c2.11-6.2,1.32-11.22-2.5-11.81c-4.11-0.63-6.14,2.98-5.92,6.86
			c0.27,4.68-1.37,7.11-4.57,10.36c-1.11,1.13-2.16,2.26-3.06,3.45l6.48,1.18L76.06,68.96L76.06,68.96z"/>
		
			<linearGradient id="SVGID_00000167396293615630735170000007043159089991332003_" gradientUnits="userSpaceOnUse" x1="70.6648" y1="6499.3164" x2="59.2364" y2="6511.835" gradientTransform="matrix(1 0 0 -1 0 6606)">
			<stop  offset="0.66" style="stop-color:#FF4365"/>
			<stop  offset="1" style="stop-color:#8C0019"/>
		</linearGradient>
		<path fill="url(#SVGID_00000167396293615630735170000007043159089991332003_)" d="M69.58,103.15c-0.03-0.13-0.05-0.25-0.08-0.37
			c-1.67-7.51-7.06-9.71-7.06-9.71l0,0c-3.27,4-6.63,3.12-6.63,3.12l0,0c2.68,0.77,5.54,2.85,7.55,6.81
			c0.16,0.32,0.52,1.12,0.55,1.19C65.52,107.72,70.14,106.64,69.58,103.15L69.58,103.15z"/>
		<path fill="#8C0019" d="M68.17,102.1c-1.36-2.77-4.41-0.76-3,1.57C66.57,106,69.18,104.15,68.17,102.1z"/>
	</g>
	<g id="Confetti_00000088811958069422783870000010474730971730457228_">
		<path fill-rule="evenodd" clip-rule="evenodd" fill="#5193FF" d="M128.03,64.39c2.52-1.67,4.57-4.06,5.85-6.81
			c0.27-0.58,0.07-1.28-0.47-1.62l-3.73-2.35c-0.57-0.36-1.33-0.21-1.72,0.35c-1.21,1.69-2.66,3.21-4.3,4.49
			c-0.55,0.43-0.66,1.22-0.24,1.77l2.9,3.87C126.71,64.63,127.47,64.76,128.03,64.39L128.03,64.39z"/>
		<path fill-rule="evenodd" clip-rule="evenodd" fill="#5193FF" d="M20.84,75.03c-2.47-1.76-5.43-2.82-8.45-3.02
			c-0.64-0.04-1.22,0.39-1.35,1.02l-0.86,4.33c-0.13,0.67,0.28,1.31,0.94,1.48c2.01,0.52,3.95,1.33,5.73,2.41
			c0.6,0.36,1.37,0.18,1.74-0.41l2.58-4.09C21.55,76.18,21.4,75.42,20.84,75.03L20.84,75.03z"/>
		<path fill-rule="evenodd" clip-rule="evenodd" fill="#9FD5FF" d="M122.04,95.58c-3-0.39-6.11,0.07-8.88,1.31
			c-0.59,0.26-0.89,0.92-0.71,1.54l1.28,4.22c0.2,0.65,0.87,1.03,1.53,0.87c2.02-0.49,4.11-0.68,6.19-0.58
			c0.7,0.04,1.3-0.48,1.35-1.18l0.35-4.82C123.2,96.26,122.71,95.67,122.04,95.58L122.04,95.58z"/>
		<path fill="#9FD5FF" d="M42.71,77.66c-1.09-0.03-6.17-1.43-7.07-0.65c-3.71,2.59-10.97,7.08-12.72,11.16
			c-0.73,4.1,5.48,1.37,5.3,4.76c-1.24,3.11-14.58,12.13-12.38,15.76c1.14,1.9,5.28,0.02,5.22,2.98c-0.11,0.87-0.87,1.49-1.42,2.11
			c-1.98,2.23-4.08,4.37-6.27,6.39c-0.88,0.65-0.35,1.5,0.68,1.51c1.85,0.19,3.7,0.38,5.55,0.57c2.46,0.29,8.21-7.27,9.98-9.27
			c1.54-1.59,0.81-3.66-1.57-3.05c-3.68,1.36-4.53-2.22-2.29-4.57c3.44-3.74,7.7-6.62,10.89-10.62c1.64-1.55,1.14-3.73-1.41-3.21
			c-0.95,0.17-1.98,0.5-2.8-0.24c-3.31-3.33,8.07-10.72,10.53-12.61C43.35,78.4,43.21,77.74,42.71,77.66L42.71,77.66z"/>
		<path fill-rule="evenodd" clip-rule="evenodd" fill="#202FB0" d="M84.77,121.87c-0.22-0.66-0.93-1.03-1.59-0.82l-4.61,1.45
			c-0.65,0.2-1.02,0.87-0.85,1.53c0.39,1.54,1.01,3.02,1.82,4.38c0.93,0.24,1.83,0.57,2.7,1c1.07,0.53,2.18,0.92,3.32,1.16
			l1.79-1.42c0.53-0.42,0.63-1.18,0.24-1.74C86.39,125.72,85.44,123.85,84.77,121.87L84.77,121.87z"/>
		<path fill-rule="evenodd" clip-rule="evenodd" fill="#5193FF" d="M86.78,37.24c-1.5,2.05-2.59,4.41-3.16,6.89
			c-0.16,0.71,0.22,1.44,0.91,1.69l4.7,1.73c0.72,0.27,1.52-0.08,1.83-0.79c0.92-2.11,2.14-4.09,3.6-5.86
			C91.75,40.55,88.96,39.28,86.78,37.24L86.78,37.24z"/>
	</g>
</g>
</svg>
