<?xml version="1.0" encoding="utf-8"?>
<!-- Generator: Adobe Illustrator 30.0.0, SVG Export Plug-In . SVG Version: 9.03 Build 0)  -->
<svg version="1.1" baseProfile="basic" id="Layer_1"
	 xmlns="http://www.w3.org/2000/svg" xmlns:xlink="http://www.w3.org/1999/xlink" x="0px" y="0px" width="118px" height="123px"
	 viewBox="0 0 118 123" xml:space="preserve">
<g>
	<g id="BG_00000155133311344442935370000011058062763190168498_">
		<path fill-rule="evenodd" clip-rule="evenodd" fill="#202FB0" d="M100.93,24.32c-0.4-0.02-0.8,0.1-1.12,0.35
			c-3.04,2.4-5.84,5.1-8.34,8.06c-0.6,0.71-1.19,1.46-1.29,2.42c-0.04,0.45,0.05,0.92,0.32,1.29c0.6,0.81,1.63,0.71,2.54,0.73
			c0.93,0.02,2.05,0.37,1.99,1.48c-0.02,0.34-0.15,0.67-0.36,0.94c-1.81,2.37-3.76,4.64-5.83,6.79c-0.36,0.38-0.11,1.01,0.41,1.03
			l5.5,0.23c0.27,0.01,0.52-0.09,0.71-0.27c2.49-2.43,4.75-5.09,6.73-7.95c0.3-0.43,0.59-0.87,0.64-1.4
			c0.02-0.25-0.02-0.5-0.14-0.72c-0.38-0.68-1.27-0.64-1.97-0.43c-0.78,0.23-1.61,0.59-2.36,0.05c-0.4-0.29-0.63-0.76-0.67-1.25
			c-0.09-1.1,0.54-2,1.18-2.82c2.11-2.73,4.51-5.22,7.16-7.42c0.33-0.27,0.15-0.81-0.27-0.83L100.93,24.32z"/>
		<path fill="#FFD4F8" d="M54.44,114.83c-12.2-0.33-9.08-11.6-19.09-13.98c-6.51-1.43-10.71-8.69-8.69-15.05
			c2.73-8.17-5.68-11.72-3.99-19.59c0.58-3.26,2.41-6.07,5.17-7.91c7.34-4.5,3.19-12.63,9.54-17.57c6-5.41,13.2,0.13,18.96-6.34
			c4.49-4.92,12.88-4.93,17.37,0c5.71,6.45,12.99,0.95,18.96,6.34c2.54,2.13,4.05,5.12,4.26,8.43c0.22,8.61,9.34,9.08,10.44,17.04
			c0.58,3.26-0.19,6.53-2.15,9.2c-5.36,6.74,1.32,12.96-2.95,19.77c-3.79,7.14-12.45,4.39-15.64,12.44
			c-2.54,6.17-10.42,9.04-16.33,5.94c-3.3-1.64-7.24-1.64-10.55,0C58.06,114.4,56.25,114.83,54.44,114.83L54.44,114.83z"/>
	</g>
	<g id="Flag_00000083085339060267897640000012066383610827347340_">
		<g>
			<g>
				<path fill="#999999" d="M7.66,39.55C7.66,39.55,7.67,39.54,7.66,39.55l-2.07-9.58c0,0-0.01,0-0.01,0.01c0,0,0.01,0,0.01-0.01
					l-2.08-9.58c0,0-0.01,0-0.01,0.01l6.24,28.73c0,0,0.01,0,0.01-0.01l-2.08-9.58C7.67,39.54,7.67,39.55,7.66,39.55L7.66,39.55z"/>
				<path fill="#455EE3" d="M5.59,29.96l2.08,9.58c3.12-1.58,7.06-3.67,10.56-5.23l-2.04-9.59C12.67,26.28,8.72,28.37,5.59,29.96
					L5.59,29.96z"/>
				<path fill="#202FB0" d="M18.46,23.75c-0.73,0.29-1.49,0.61-2.27,0.96l2.04,9.59c0.78-0.35,1.54-0.67,2.27-0.96
					c2.92-1.15,5.91-2.11,9-2.75l-2.04-9.58C24.37,21.64,21.38,22.6,18.46,23.75L18.46,23.75z"/>
				<path fill="#202FB0" d="M7.67,39.54l2.08,9.58c3.11-1.58,7.03-3.65,10.53-5.21l-2.04-9.6C14.73,35.87,10.79,37.96,7.67,39.54
					L7.67,39.54z"/>
				<path fill="#455EE3" d="M20.5,33.35c-0.72,0.29-1.49,0.61-2.27,0.96l2.04,9.6c0.78-0.35,1.54-0.67,2.27-0.96
					c2.92-1.15,5.91-2.12,9-2.77L29.5,30.6C26.41,31.23,23.42,32.2,20.5,33.35L20.5,33.35z"/>
				<path fill="#202FB0" d="M16.19,24.71l-2.04-9.58c-3.53,1.57-7.5,3.66-10.64,5.26l2.08,9.58C8.72,28.37,12.67,26.28,16.19,24.71
					L16.19,24.71z"/>
				<path fill="#455EE3" d="M18.46,23.75c2.92-1.15,5.91-2.11,9-2.74l-2.04-9.58c-3.09,0.64-6.08,1.6-9,2.75
					c-0.73,0.28-1.49,0.61-2.27,0.95l2.04,9.58C16.97,24.36,17.73,24.04,18.46,23.75L18.46,23.75z"/>
			</g>
			<path fill="#202FB0" d="M28.85,19.52c0,0,0.01-0.01,0.01-0.01c1.44-1.17,7.22-4.79,6.99-7.09L35.8,12.2
				c-0.1-0.34-0.34-0.65-0.78-0.91c-1.56-0.83-4.16-0.7-6.41-0.4c-0.87,0.12-1.69,0.26-2.37,0.38c-0.28,0.05-0.55,0.11-0.83,0.17
				l1.95,9.19C27.95,20.19,28.47,19.81,28.85,19.52L28.85,19.52L28.85,19.52z"/>
			<g>
				<path fill="#5193FF" d="M31.83,48.06c1.81-0.39,3.61-0.99,5.35-1.74l-2.04-9.59c-1.75,0.76-3.57,1.36-5.39,1.76
					c-1.9,0.41-6.02,1.07-7.12-0.41l2.08,9.58C25.81,49.13,29.93,48.47,31.83,48.06L31.83,48.06z"/>
				<path fill="#DFF2FD" d="M29.75,38.48c1.82-0.4,3.64-1,5.39-1.76l-2.04-9.59c-1.76,0.76-3.6,1.36-5.43,1.77
					c-2.04,0.43-6.53,1.17-7.2-0.77l2.16,9.94C23.73,39.55,27.85,38.9,29.75,38.48L29.75,38.48z"/>
				<path fill="#DFF2FD" d="M37.18,46.32c-1.74,0.75-3.54,1.35-5.35,1.74c-1.9,0.41-6.01,1.07-7.12-0.41l2,9.21
					c0.67,1.95,5.15,1.21,7.19,0.77c1.79-0.4,3.58-0.98,5.31-1.72L37.18,46.32L37.18,46.32z"/>
				<path fill="#DFF2FD" d="M50.27,24.46c2.31-2.26,4.62-3.55,7.02-4.15l-1.93-9.61c-2.45,0.58-4.8,1.9-7.17,4.19
					c-1.36,1.34-2.64,2.76-3.97,4.15l2,9.63C47.57,27.25,48.88,25.81,50.27,24.46L50.27,24.46z"/>
				<path fill="#5193FF" d="M50.27,24.46c-1.39,1.36-2.7,2.8-4.05,4.21l2,9.66c1.38-1.44,2.71-2.91,4.13-4.29
					c2.27-2.21,4.53-3.5,6.87-4.12l-1.93-9.61C54.9,20.91,52.58,22.2,50.27,24.46L50.27,24.46z"/>
				<path fill="#DFF2FD" d="M59.22,29.92c-2.34,0.62-4.61,1.9-6.87,4.12c-1.42,1.38-2.75,2.85-4.13,4.29l2.01,9.69
					c1.41-1.47,2.76-2.98,4.2-4.4c2.23-2.16,4.43-3.44,6.72-4.08L59.22,29.92L59.22,29.92z"/>
				<path fill="#DFF2FD" d="M40.19,33.97c-1.57,1.05-3.28,1.98-5.05,2.76l2.04,9.59c1.79-0.77,3.51-1.72,5.09-2.77
					c2.26-1.51,4.14-3.34,5.95-5.22l-2-9.66C44.39,30.58,42.48,32.44,40.19,33.97L40.19,33.97z"/>
				<path fill="#5193FF" d="M42.27,43.55c-1.58,1.06-3.3,2-5.09,2.77l2.04,9.6c1.81-0.77,3.55-1.71,5.13-2.8
					c2.24-1.46,4.1-3.25,5.88-5.11l-2.01-9.69C46.42,40.21,44.53,42.04,42.27,43.55L42.27,43.55z"/>
				<path fill="#5193FF" d="M40.19,33.97c2.29-1.53,4.2-3.39,6.03-5.3l-2-9.63c-1.85,1.94-3.78,3.83-6.11,5.35
					c-1.55,1.06-3.25,1.98-5.01,2.75l2.04,9.59C36.91,35.95,38.62,35.02,40.19,33.97L40.19,33.97z"/>
			</g>
			<path fill="#455EE3" d="M20.48,28.14c0.67,1.94,5.16,1.2,7.19,0.77c1-0.22,2-0.51,3-0.84l-1.82-8.55
				C26.66,21.23,20.02,25.64,20.48,28.14L20.48,28.14L20.48,28.14z"/>
			<path fill="#9FD5FF" d="M38.11,24.39c0.1-0.07,0.2-0.13,0.3-0.2l-2.58-11.86c0.38,2.3-5.53,5.99-6.98,7.18
				c0,0-0.01,0.01-0.01,0.01l1.82,8.55c0.82-0.28,1.63-0.58,2.43-0.93l0,0C34.86,26.38,36.56,25.45,38.11,24.39L38.11,24.39z"/>
		</g>
		<path fill="#4F0033" d="M76.87,98.4L59.03,9.69C58.82,8.66,57.81,8,56.78,8.21c-1.03,0.22-1.69,1.22-1.47,2.25l9.96,49.57
			l-0.82,0.52l-1.21,3.04l0.91,1.21l1.86-1.11l7.13,35.49c0.18,0.88,0.95,1.49,1.81,1.51c0.15,0,0.3-0.01,0.45-0.04
			C76.42,100.44,77.08,99.43,76.87,98.4L76.87,98.4z"/>
	</g>
	<g id="Hand_00000098204959593855503890000004380103363998977448_">
		<path fill="#640D00" d="M54.18,91.02c-3.19-6.31-8.93-7.03-11.46-5.32c-1.86,1.25-10.19,7.14-14.5,10.19
			c1.67,2.5,4.17,4.24,7.12,4.96c3.58,0.87,6.6,3.4,8.08,6.78c0.58,1.33,1.37,2.51,2.34,3.52c1.98-2.28,4.7-5.42,6.24-7.19
			C54.62,100.95,57.31,97.2,54.18,91.02L54.18,91.02z"/>
		<path fill="#640D00" d="M65.95,86.83c-0.31-2.89-1.34-5.99-4.65-8.31c-3.3-2.32-5.58,1.24-7.43,3.46
			c-0.16,0.19-0.32,0.38-0.47,0.56l0,0c0,0,6.71,2.74,6.43,12.89l0,0c1.03-0.94,1.94-1.62,2.92-2.19
			C65.49,91.63,66.26,89.72,65.95,86.83L65.95,86.83z"/>
		<g>
			<path fill="#FF4365" d="M82.77,81.66L82.77,81.66c-0.21-0.54-1.92-2.81-1.1-3.91c1.13-2.06,2.13-4.12,0.29-6.15
				c-0.55-0.72-1.83-1.82-1.73-2.83c0.23-2.9-0.27-5.87-3.77-6.08c0.46-0.98,2.12-3.65,2.5-4.59l0,0c0.81-2.41-1.1-5.06-3.66-5.01
				c-1.08,0-2.06,0.45-2.75,1.16l-7.52,7.71c5.68-12.63-6.65-15.42-6.73-5.45c0.23,3.99-1.17,6.07-3.91,8.85
				c-8.78,7.82-1.74,12.63-10.07,15.39c-3.52,1.44-4.42,2.88-4.26,6.8c2.93-2.01,3.95-3.26,7.68-2.33l0,0
				c5.9,1.58,8.13-10.43,13.57-6.69c3.31,2.32,4.34,5.42,4.65,8.31c0.75,4.98-2.88,5.74-6.12,8.59c-0.51,0.31-6.44,6.62-8.14,8.9
				c10.24,3.38,8.53-5.84,15.97-10.21C72.84,90.95,85.18,87.91,82.77,81.66L82.77,81.66z"/>
			<path fill="#8C0019" d="M59.83,95.43L59.83,95.43c0.28-10.15-6.43-12.89-6.43-12.89l0,0c-2.79,3.42-5.66,2.67-5.66,2.67l0,0
				c2.29,0.66,4.73,2.43,6.44,5.81c2.56,5.05,1.23,8.47-0.76,11.19C55.26,99.89,59.83,95.43,59.83,95.43L59.83,95.43z"/>
		</g>
		
			<radialGradient id="SVGID_1_" cx="4003.8293" cy="-9550.7354" r="19.2408" gradientTransform="matrix(-0.168 0.9858 0.5619 0.0957 6093.8271 -2972.6907)" gradientUnits="userSpaceOnUse">
			<stop  offset="0.65" style="stop-color:#FF4365"/>
			<stop  offset="1" style="stop-color:#8C0019"/>
		</radialGradient>
		<path fill="url(#SVGID_1_)" d="M65.03,61.95l0.45-1.23c1.8-5.29,1.12-9.58-2.13-10.08c-3.51-0.54-5.24,2.54-5.05,5.86
			c0.23,3.99-1.17,6.07-3.91,8.85c-0.95,0.96-1.84,1.93-2.62,2.95l5.53,1.01L65.03,61.95L65.03,61.95z"/>
		
			<linearGradient id="SVGID_00000077321332259478172330000018265255440735436419_" gradientUnits="userSpaceOnUse" x1="60.4215" y1="7305.8408" x2="50.6634" y2="7316.5293" gradientTransform="matrix(1 0 0 -1 0 7400)">
			<stop  offset="0.66" style="stop-color:#FF4365"/>
			<stop  offset="1" style="stop-color:#8C0019"/>
		</linearGradient>
		<path fill="url(#SVGID_00000077321332259478172330000018265255440735436419_)" d="M59.49,91.15c-0.02-0.11-0.04-0.21-0.07-0.32
			c-1.42-6.41-6.03-8.29-6.03-8.29l0,0c-2.79,3.42-5.66,2.67-5.66,2.67l0,0c2.29,0.66,4.73,2.43,6.44,5.81
			c0.14,0.27,0.45,0.95,0.47,1.01C56.03,95.04,59.98,94.13,59.49,91.15L59.49,91.15z"/>
		<path fill="#8C0019" d="M58.29,90.24c-1.16-2.36-3.76-0.65-2.56,1.34C56.93,93.57,59.15,92,58.29,90.24z"/>
	</g>
	<g id="Confetti_00000072959179091579034300000002045297475413410227_">
		<path fill-rule="evenodd" clip-rule="evenodd" fill="#5193FF" d="M109.4,58.04c2.15-1.43,3.9-3.47,4.99-5.81
			c0.23-0.5,0.06-1.09-0.4-1.39l-3.19-2c-0.49-0.31-1.13-0.18-1.47,0.3c-1.03,1.45-2.27,2.74-3.67,3.84
			c-0.47,0.37-0.57,1.04-0.21,1.51l2.47,3.3C108.27,58.25,108.92,58.36,109.4,58.04L109.4,58.04z"/>
		<path fill-rule="evenodd" clip-rule="evenodd" fill="#5193FF" d="M17.88,67.13c-2.11-1.5-4.63-2.4-7.21-2.58
			c-0.55-0.04-1.04,0.33-1.15,0.87l-0.73,3.69c-0.11,0.57,0.24,1.12,0.8,1.27c1.72,0.44,3.37,1.14,4.89,2.06
			c0.51,0.31,1.17,0.16,1.49-0.35l2.2-3.49C18.48,68.11,18.35,67.47,17.88,67.13L17.88,67.13z"/>
		<path fill-rule="evenodd" clip-rule="evenodd" fill="#9FD5FF" d="M104.29,84.68c-2.56-0.33-5.22,0.06-7.58,1.12
			c-0.5,0.23-0.76,0.79-0.6,1.31l1.1,3.6c0.17,0.55,0.74,0.88,1.3,0.74c1.73-0.42,3.51-0.58,5.29-0.49
			c0.59,0.03,1.11-0.41,1.15-1.01l0.3-4.12C105.28,85.26,104.86,84.75,104.29,84.68L104.29,84.68z"/>
		<path fill="#9FD5FF" d="M36.55,69.38c-0.93-0.02-5.26-1.22-6.03-0.55c-3.17,2.21-9.37,6.05-10.86,9.53
			c-0.62,3.5,4.68,1.17,4.52,4.06c-1.06,2.65-12.45,10.36-10.57,13.46c0.97,1.63,4.51,0.02,4.45,2.54c-0.09,0.74-0.74,1.27-1.21,1.8
			c-1.69,1.91-3.48,3.73-5.36,5.45c-0.75,0.55-0.3,1.28,0.58,1.29c1.58,0.16,3.16,0.32,4.74,0.49c2.1,0.25,7.01-6.21,8.52-7.92
			c1.31-1.36,0.69-3.12-1.34-2.6c-3.14,1.16-3.87-1.9-1.95-3.9c2.93-3.19,6.58-5.65,9.3-9.07c1.4-1.32,0.97-3.18-1.2-2.74
			c-0.81,0.14-1.69,0.42-2.39-0.21c-2.83-2.84,6.89-9.15,8.99-10.77C37.1,70.01,36.98,69.45,36.55,69.38L36.55,69.38z"/>
		<path fill-rule="evenodd" clip-rule="evenodd" fill="#202FB0" d="M72.47,107.13c-0.19-0.56-0.79-0.88-1.36-0.7l-3.94,1.24
			c-0.55,0.17-0.87,0.75-0.73,1.31c0.33,1.31,0.86,2.58,1.55,3.74c0.79,0.2,1.56,0.49,2.31,0.85c0.91,0.45,1.87,0.78,2.83,0.99
			l1.53-1.21c0.45-0.36,0.54-1.01,0.21-1.48C73.85,110.41,73.04,108.81,72.47,107.13L72.47,107.13z"/>
		<path fill-rule="evenodd" clip-rule="evenodd" fill="#5193FF" d="M74.19,34.87c-1.28,1.75-2.21,3.77-2.7,5.88
			c-0.14,0.61,0.19,1.23,0.78,1.45l4.02,1.48c0.62,0.23,1.3-0.07,1.56-0.67c0.78-1.8,1.82-3.49,3.08-5
			C78.42,37.69,76.04,36.6,74.19,34.87L74.19,34.87z"/>
	</g>
</g>
</svg>
