<svg width="24" height="24" viewBox="0 0 24 24" xmlns="http://www.w3.org/2000/svg">
<g clip-path="url(#clip0_1478_63648)">
<path d="M8.025 18H11.025V17H9.025V16H11.025V13H8.025V14H10.025V15H8.025V18ZM15.025 18H16.025V13H15.025V15H14.025V13H13.025V16H15.025V18ZM21.025 11.05V19C21.025 19.55 20.825 20.025 20.425 20.425C20.0417 20.8083 19.575 21 19.025 21H5.025C4.475 21 4 20.8083 3.6 20.425C3.21667 20.025 3.025 19.55 3.025 19V11.05C2.64167 10.7 2.34167 10.25 2.125 9.7C1.925 9.15 1.925 8.55 2.125 7.9L3.175 4.5C3.30833 4.06667 3.54167 3.70833 3.875 3.425C4.225 3.14167 4.625 3 5.075 3H18.975C19.425 3 19.8167 3.14167 20.15 3.425C20.4833 3.69167 20.725 4.05 20.875 4.5L21.925 7.9C22.125 8.55 22.1167 9.14167 21.9 9.675C21.7 10.2083 21.4083 10.6667 21.025 11.05ZM14.225 10C14.675 10 15.0167 9.85 15.25 9.55C15.4833 9.23333 15.575 8.88333 15.525 8.5L14.975 5H13.025V8.7C13.025 9.05 13.1417 9.35833 13.375 9.625C13.6083 9.875 13.8917 10 14.225 10ZM9.725 10C10.1083 10 10.4167 9.875 10.65 9.625C10.9 9.35833 11.025 9.05 11.025 8.7V5H9.075L8.525 8.5C8.45833 8.9 8.54167 9.25 8.775 9.55C9.025 9.85 9.34167 10 9.725 10ZM5.275 10C5.575 10 5.83333 9.89167 6.05 9.675C6.28333 9.45833 6.425 9.18333 6.475 8.85L7.025 5H5.075L4.075 8.35C3.975 8.68333 4.025 9.04167 4.225 9.425C4.44167 9.80833 4.79167 10 5.275 10ZM18.775 10C19.2583 10 19.6083 9.80833 19.825 9.425C20.0417 9.04167 20.0917 8.68333 19.975 8.35L18.925 5H17.025L17.575 8.85C17.625 9.18333 17.7583 9.45833 17.975 9.675C18.2083 9.89167 18.475 10 18.775 10ZM5.025 19H19.025V11.95C18.9417 11.9833 18.8833 12 18.85 12C18.8333 12 18.8083 12 18.775 12C18.325 12 17.925 11.925 17.575 11.775C17.2417 11.625 16.9083 11.3833 16.575 11.05C16.275 11.35 15.9333 11.5833 15.55 11.75C15.1667 11.9167 14.7583 12 14.325 12C13.875 12 13.45 11.9167 13.05 11.75C12.6667 11.5833 12.325 11.35 12.025 11.05C11.7417 11.35 11.4083 11.5833 11.025 11.75C10.6583 11.9167 10.2583 12 9.825 12C9.34167 12 8.9 11.9167 8.5 11.75C8.11667 11.5833 7.775 11.35 7.475 11.05C7.125 11.4 6.775 11.65 6.425 11.8C6.09167 11.9333 5.70833 12 5.275 12C5.24167 12 5.2 12 5.15 12C5.11667 12 5.075 11.9833 5.025 11.95V19ZM19.025 19H5.025C5.075 19 5.11667 19 5.15 19C5.2 19 5.24167 19 5.275 19C5.70833 19 6.09167 19 6.425 19C6.775 19 7.125 19 7.475 19C7.625 19 7.78333 19 7.95 19C8.13333 19 8.325 19 8.525 19C8.725 19 8.93333 19 9.15 19C9.36667 19 9.59167 19 9.825 19C10.0417 19 10.25 19 10.45 19C10.65 19 10.8417 19 11.025 19C11.225 19 11.4083 19 11.575 19C11.7417 19 11.8917 19 12.025 19C12.325 19 12.6667 19 13.05 19C13.45 19 13.875 19 14.325 19C14.5417 19 14.75 19 14.95 19C15.15 19 15.3417 19 15.525 19C15.725 19 15.9083 19 16.075 19C16.2583 19 16.425 19 16.575 19C16.9083 19 17.2417 19 17.575 19C17.925 19 18.325 19 18.775 19C18.8083 19 18.8333 19 18.85 19C18.8833 19 18.9417 19 19.025 19Z" />
</g>
<defs>
<clipPath id="clip0_1478_63648">
<rect width="24" height="24" />
</clipPath>
</defs>
</svg>
