<svg width="36" height="36" viewBox="0 0 36 36" fill="none" xmlns="http://www.w3.org/2000/svg">
<path fill-rule="evenodd" clip-rule="evenodd" d="M18 3C9.72 3 3 9.72 3 18C3 26.28 9.72 33 18 33C26.28 33 33 26.28 33 18C33 9.72 26.28 3 18 3ZM18 30C11.37 30 6 24.63 6 18C6 11.37 11.37 6 18 6C24.63 6 30 11.37 30 18C30 24.63 24.63 30 18 30Z" fill="black"/>
<path d="M21 13C21 14.6569 19.6569 16 18 16C16.3431 16 15 14.6569 15 13C15 11.3431 16.3431 10 18 10C19.6569 10 21 11.3431 21 13Z" fill="black"/>
<path d="M15 22C15 23.1046 14.1046 24 13 24C11.8954 24 11 23.1046 11 22C11 20.8954 11.8954 20 13 20C14.1046 20 15 20.8954 15 22Z" fill="black"/>
<path d="M25 22C25 23.1046 24.1046 24 23 24C21.8954 24 21 23.1046 21 22C21 20.8954 21.8954 20 23 20C24.1046 20 25 20.8954 25 22Z" fill="black"/>
</svg>
