<svg width="50" height="51" viewBox="0 0 50 51" xmlns="http://www.w3.org/2000/svg">
<path d="M4.8875 36L2.075 26.1375C2 25.8375 2.025 25.525 2.15 25.2C2.3 24.85 2.5625 24.6125 2.9375 24.4875L5 23.775V16.125C5 15.4 5.25 14.7875 5.75 14.2875C6.275 13.7625 6.9 13.5 7.625 13.5H12.6875V9H21.3125V13.5H26.375C27.1 13.5 27.7125 13.7625 28.2125 14.2875C28.7375 14.7875 29 15.4 29 16.125V23.775L31.1 24.4875C31.5 24.6375 31.7625 24.875 31.8875 25.2C32.0125 25.525 32.025 25.8375 31.925 26.1375L29.1125 36C27.8875 35.925 26.7625 35.6 25.7375 35.025C24.7125 34.425 23.8125 33.7125 23.0375 32.8875C22.2625 33.7375 21.3625 34.475 20.3375 35.1C19.3125 35.7 18.2 36 17 36C15.8 36 14.6875 35.7 13.6625 35.1C12.6625 34.475 11.775 33.7375 11 32.8875C10.225 33.7125 9.3125 34.425 8.2625 35.025C7.2375 35.6 6.1125 35.925 4.8875 36ZM2 42V39.375H5C6.05 39.375 7.0875 39.2125 8.1125 38.8875C9.1375 38.5625 10.1 38.0875 11 37.4625C11.9 38.0875 12.8625 38.55 13.8875 38.85C14.9125 39.15 15.95 39.3 17 39.3C18.05 39.3 19.0875 39.15 20.1125 38.85C21.1375 38.55 22.1 38.0875 23 37.4625C23.9 38.0875 24.8625 38.5625 25.8875 38.8875C26.9125 39.2125 27.95 39.375 29 39.375H32V42H29C27.975 42 26.9625 41.875 25.9625 41.625C24.9625 41.35 23.975 40.9625 23 40.4625C22.05 40.9625 21.0625 41.35 20.0375 41.625C19.0125 41.875 18 42 17 42C16 42 14.9875 41.875 13.9625 41.625C12.9625 41.35 11.975 40.9625 11 40.4625C10.05 40.9625 9.075 41.35 8.075 41.625C7.075 41.875 6.05 42 5 42H2ZM7.625 22.9125L17 19.875L26.375 22.95V16.125H7.625V22.9125ZM17 33.375C18.225 33.375 19.2875 32.9125 20.1875 31.9875C21.1125 31.0625 22.05 30.025 23 28.875C23.925 29.925 24.675 30.7625 25.25 31.3875C25.85 31.9875 26.525 32.5 27.275 32.925L29.075 26.5875L17 22.65L4.8875 26.5875L6.725 32.85C7.475 32.45 8.15 31.9625 8.75 31.3875C9.35 30.7875 10.1 29.95 11 28.875C12 30.05 12.9375 31.1 13.8125 32.025C14.7125 32.925 15.775 33.375 17 33.375Z" />
<path d="M36.725 39V16.9875L33.8375 19.875L32 18.0375L38.0375 12L44.075 18.0375L42.2375 19.875L39.35 16.9875V21.375C39.35 22.8 39.6 24.1125 40.1 25.3125C40.625 26.4875 41.3125 27.575 42.1625 28.575C43.0125 29.55 43.975 30.45 45.05 31.275C46.125 32.1 47.2375 32.85 48.3875 33.525L46.5125 35.4C45.0125 34.525 43.65 33.5625 42.425 32.5125C41.2 31.4625 40.175 30.375 39.35 29.25V39H36.725Z" />
</svg>
