<svg xmlns="http://www.w3.org/2000/svg" width="36px" height="36px" viewBox="0 0 36 36">
<rect x="16.5" y="19" width="3" height="8"/>
<rect x="8" y="13.5" transform="matrix(0.7071 -0.7071 0.7071 0.7071 -7.0919 12.8787)" width="8" height="3"/>
<rect x="22.5" y="11" transform="matrix(0.7071 -0.7071 0.7071 0.7071 -3.5772 21.364)" width="3" height="8"/>
<path d="M18,3C9.72,3,3,9.72,3,18c0,8.28,6.72,15,15,15s15-6.72,15-15C33,9.72,26.28,3,18,3z M18,30c-6.63,0-12-5.37-12-12 c0-6.63,5.37-12,12-12c6.63,0,12,5.37,12,12C30,24.63,24.63,30,18,30z"/>
</svg>
