<?xml version="1.0" encoding="utf-8"?>
<!-- Generator: Adobe Illustrator 23.0.4, SVG Export Plug-In . SVG Version: 6.00 Build 0)  -->
<svg version="1.1" id="Layer_1" xmlns="http://www.w3.org/2000/svg" xmlns:xlink="http://www.w3.org/1999/xlink" x="0px" y="0px"
	 width="36px" height="36px" viewBox="0 0 36 36" enable-background="new 0 0 36 36" xml:space="preserve">
<path fill-rule="evenodd" clip-rule="evenodd" d="M9.95,16.12l2.83-1.01c0.57,1.6,1.38,2.58,2.02,3.25l-2.17,2.07
	C11.85,19.61,10.72,18.28,9.95,16.12z M14.69,12.93l-2.7-2.7c0.04,1.07,0.12,2.07,0.28,2.94l-2.95,0.54
	c-0.19-1.04-0.29-2.22-0.33-3.47l-2.68,2.68l-2.12-2.12L10.5,4.5l6.31,6.31L14.69,12.93z M25.5,4.5l6.31,6.31l-2.12,2.12l-2.66-2.66
	c-0.24,7.04-2.8,9.42-4.92,11.38c-1.57,1.45-2.61,2.41-2.61,5.22l0,6.13h-3v-6.13c0-0.75-0.08-1.36-0.22-1.89
	c-0.08-0.3-0.18-0.56-0.29-0.81c-0.02-0.04-0.03-0.07-0.05-0.11c-0.12-0.24-0.25-0.46-0.4-0.67c-0.03-0.04-0.06-0.08-0.08-0.11
	c-0.33-0.45-0.72-0.84-1.14-1.24l2.06-2.18c0.29,0.27,0.59,0.57,0.88,0.89c0.25,0.27,0.51,0.58,0.75,0.93
	c0.63-0.88,1.36-1.58,2.06-2.23c1.86-1.72,3.77-3.49,3.96-9.24l-2.72,2.72l-2.12-2.12L25.5,4.5z"/>
</svg>
