<?xml version="1.0" encoding="utf-8"?>
<svg width="36" height="36" viewBox="0 0 36 36" xmlns="http://www.w3.org/2000/svg">
<path d="M20.6667 6.30225C26.0089 7.52002 30 12.2934 30 18C30 23.7067 26.0089 28.48 20.6667 29.6978V26.9511C24.5156 25.8045 27.3333 22.2311 27.3333 18C27.3333 13.7689 24.5156 10.2045 20.6667 9.04891V6.30225ZM24 18C24 20.3556 22.64 22.3911 20.6667 23.36V12.6222C22.64 13.6178 24 15.6356 24 18ZM15.3333 13.7778L12.4356 16.6667H8.66667V19.3334H12.4356L15.3333 22.2311V13.7778ZM6 14H11.3333L18 7.33336V28.6667L11.3333 22H6V14Z" />
</svg>
