<?xml version="1.0" encoding="utf-8"?>
<!-- Generator: Adobe Illustrator 23.0.4, SVG Export Plug-In . SVG Version: 6.00 Build 0)  -->
<svg version="1.1" id="Layer_1" xmlns="http://www.w3.org/2000/svg" xmlns:xlink="http://www.w3.org/1999/xlink" x="0px" y="0px"
	 width="36px" height="36px" viewBox="0 0 36 36" enable-background="new 0 0 36 36" xml:space="preserve">
<path d="M19.5,13.5v3H30V6h-3v4.11C24.8,7.6,21.6,6,18,6c-3.31,0-6.31,1.35-8.49,3.51S6,14.68,6,18c0,6.63,5.37,12,12,12
	c3.32,0,6.32-1.35,8.49-3.51l-2.13-2.13C22.73,25.99,20.48,27,18,27c-4.97,0-9-4.03-9-9c0-2.48,1.01-4.73,2.64-6.36S15.52,9,18,9
	c3.32,0,6.23,1.82,7.78,4.5H19.5z"/>
</svg>
