<?xml version="1.0" encoding="UTF-8"?>
<svg width="162px" height="58px" viewBox="0 0 162 58" version="1.1" xmlns="http://www.w3.org/2000/svg" xmlns:xlink="http://www.w3.org/1999/xlink" jetway-hooks="{}">
    <!-- Generator: Sketch 59 (86127) - https://sketch.com -->
    <title>Recent_icons</title>
    <desc>Created with Sketch.</desc>
    <g jetway-hook-id="972A75B3-6EF4-409A-AACF-34EC6CE7FFFE" id="Recent_icons" stroke="none" stroke-width="1" fill="none" fill-rule="evenodd">
        <g jetway-hook-id="F194515C-9ABA-4FEF-BBC0-3D278B15DF89" id="heart">
            <path d="M29,0 C38.7377082,0 47.3544453,4.79944812 52.6137377,12.1618709 C49.682693,17.0916996 48,22.8493428 48,29 C48,35.1506572 49.682693,40.9083004 52.6128417,45.8376922 C47.3544453,53.2005519 38.7377082,58 29,58 C12.9837423,58 0,45.0162577 0,29 C0,12.9837423 12.9837423,0 29,0 Z" jetway-hook-id="EB07EA59-DC9F-41E9-B73A-0C0E5FF65747" id="Combined-Shape" fill="#D3E3FD"></path>
            <path d="M29.4,15.95 L17.8,24.65 L17.8,42.05 L41,42.05 L41,24.65 L29.4,15.95 Z M38.1,39.15 L33.75,39.15 L33.75,30.45 L25.05,30.45 L25.05,39.15 L20.7,39.15 L20.7,26.1 L29.4,19.575 L38.1,26.1 L38.1,39.15 Z" jetway-hook-id="7D8D24CA-FD78-4ABA-A287-14EDCB891145" id="ic_home" fill="#041e49" fill-rule="nonzero"></path>
        </g>
        <g jetway-hook-id="CFAE934B-FEDB-4F13-B712-DBD16D82D4F9" id="star" transform="translate(109.000000, 0.000000)">
            <path d="M24,0 C40.0162577,0 53,12.9837423 53,29 C53,45.0162577 40.0162577,58 24,58 C14.2622918,58 5.64555473,53.2005519 0.386262306,45.8381291 C3.317307,40.9083004 5,35.1506572 5,29 C5,22.8493428 3.317307,17.0916996 0.387158338,12.1623078 C5.64555473,4.79944812 14.2622918,0 24,0 Z" jetway-hook-id="AB9D651A-FBE5-49C6-8F9D-D921A97F9D71" id="Combined-Shape" fill="#D3E3FD"></path>
            <path d="M37,20.7 L31.2,20.7 L31.2,17.8 C31.2,16.1905 29.9095,14.9 28.3,14.9 L22.5,14.9 C20.8905,14.9 19.6,16.1905 19.6,17.8 L19.6,20.7 L13.8,20.7 C12.1905,20.7 10.9145,21.9905 10.9145,23.6 L10.9,39.55 C10.9,41.1595 12.1905,42.45 13.8,42.45 L37,42.45 C38.6095,42.45 39.9,41.1595 39.9,39.55 L39.9,23.6 C39.9,21.9905 38.6095,20.7 37,20.7 Z M22.5,17.8 L28.3,17.8 L28.3,20.7 L22.5,20.7 L22.5,17.8 Z M37,39.55 L13.8,39.55 L13.8,23.6 L37,23.6 L37,39.55 Z" jetway-hook-id="17E3A893-DE81-4241-B0EF-EDB3A3AE3352" id="ic_work_outline" fill="#041e49"></path>
        </g>
        <g jetway-hook-id="D96B0803-DEFC-45C1-BEC7-3E59FD307873" id="home" transform="translate(52.000000, 0.000000)">
            <circle jetway-hook-id="5F0B50CB-8972-46FB-A3DC-7D90C76AE051" id="circle" fill="#E3E9EA" cx="29" cy="29" r="29"></circle>
            <path d="M29.3855,14.9 C21.3815,14.9 14.9,21.396 14.9,29.4 C14.9,37.404 21.3815,43.9 29.3855,43.9 C37.404,43.9 43.9,37.404 43.9,29.4 C43.9,21.396 37.404,14.9 29.3855,14.9 Z M29.4,41 C22.991,41 17.8,35.809 17.8,29.4 C17.8,22.991 22.991,17.8 29.4,17.8 C35.809,17.8 41,22.991 41,29.4 C41,35.809 35.809,41 29.4,41 Z M35.9105,35.722 L27.95,30.9515 L27.95,21.309 L30.85,21.309 L30.85,29.2985 L37.3895,33.228 L35.9105,35.722 Z" jetway-hook-id="BF48D92A-737B-4C9D-8730-9745B629EEF6" id="Shape" fill="#444746"></path>
        </g>
    </g>
</svg>
