<svg xmlns="http://www.w3.org/2000/svg" width="36px" height="36px" viewBox="0 0 36 36" enable-background="new 0 0 36 36">
<circle cx="14.5" cy="9.5" r="2.5"/>
<circle cx="21.5" cy="9.5" r="2.5"/>
<circle cx="12.5" cy="14.5" r="1.5"/>
<circle cx="10.5" cy="28.5" r="2.5"/>
<circle cx="25.5" cy="28.5" r="2.5"/>
<circle cx="18" cy="17.5" r="2.5"/>
<circle cx="23.5" cy="14.5" r="1.5"/>
<path d="M25.9,22.02C28.41,19.82,30,16.6,30,13c0-6.63-5.37-12-12-12S6,6.37,6,13c0,3.6,1.59,6.82,4.1,9.02 C6.71,22.23,4,25.06,4,28.5c0,3.58,2.92,6.5,6.5,6.5h15c3.58,0,6.5-2.92,6.5-6.5C32,25.06,29.29,22.23,25.9,22.02z M9,13 c0-4.97,4.03-9,9-9s9,4.03,9,9c0,4.97-4.03,9-9,9S9,17.97,9,13z M25.5,32h-15C8.58,32,7,30.42,7,28.5S8.58,25,10.5,25h15 c1.92,0,3.5,1.58,3.5,3.5S27.42,32,25.5,32z"/>
</svg>
