<?xml version="1.0" encoding="utf-8"?>
<!-- Generator: Adobe Illustrator 23.0.4, SVG Export Plug-In . SVG Version: 6.00 Build 0)  -->
<svg version="1.1" id="Layer_1" xmlns="http://www.w3.org/2000/svg" xmlns:xlink="http://www.w3.org/1999/xlink" x="0px" y="0px"
	 width="36px" height="36px" viewBox="0 0 36 36" enable-background="new 0 0 36 36" xml:space="preserve">
<path d="M18,25.5c-4.14,0-7.5-3.36-7.5-7.5s3.36-7.5,7.5-7.5s7.5,3.36,7.5,7.5S22.14,25.5,18,25.5z M18,30c6.63,0,12-5.37,12-12
	S24.63,6,18,6S6,11.37,6,18S11.37,30,18,30z M18,3c8.28,0,15,6.72,15,15s-6.72,15-15,15S3,26.28,3,18S9.72,3,18,3z"/>
</svg>
