<?xml version="1.0" encoding="utf-8"?>
<!-- Generator: Adobe Illustrator 23.0.4, SVG Export Plug-In . SVG Version: 6.00 Build 0)  -->
<svg version="1.1" id="Layer_1" xmlns="http://www.w3.org/2000/svg" xmlns:xlink="http://www.w3.org/1999/xlink" x="0px" y="0px"
	 width="36px" height="36px" viewBox="0 0 36 36" enable-background="new 0 0 36 36" xml:space="preserve">
<path d="M22.5,28.5h-18v-1.49c0.3-1.08,4.95-3.01,9-3.01s8.7,1.94,9,3V28.5z M13.5,21c-4.01,0-12,2.01-12,6v4.5h24V27
	C25.5,23.01,17.5,21,13.5,21z M13.5,10.5c1.65,0,3,1.35,3,3s-1.35,3-3,3s-3-1.35-3-3S11.85,10.5,13.5,10.5z M13.5,19.5
	c3.32,0,6-2.68,6-6s-2.68-6-6-6s-6,2.68-6,6S10.19,19.5,13.5,19.5z M30.1,3l-2.44,2.44c4.16,4.53,4.16,11.34,0,16.11L30.1,24
	C35.96,18.17,35.97,9.08,30.1,3z M22.62,10.58c1.26,1.77,1.26,4.06,0,5.83l2.52,2.53c3.03-3.03,3.03-7.6,0-10.9L22.62,10.58z"/>
</svg>
