<?xml version="1.0" encoding="utf-8"?>
<!-- Generator: Adobe Illustrator 23.0.4, SVG Export Plug-In . SVG Version: 6.00 Build 0)  -->
<svg version="1.1" id="Layer_1" xmlns="http://www.w3.org/2000/svg" xmlns:xlink="http://www.w3.org/1999/xlink" x="0px" y="0px"
	 width="36px" height="36px" viewBox="0 0 36 36" enable-background="new 0 0 36 36" xml:space="preserve">
<path d="M16.04,11.8c0.57-0.35,1.24-0.55,1.96-0.55c2.07,0,3.75,1.68,3.75,3.75c0,0.72-0.2,1.39-0.55,1.96L16.04,11.8z M27.28,23.03
	l-2.17-2.17c1.27-2.08,1.89-3.94,1.89-5.57C27,9.85,23.02,6,18,6c-2.19,0-4.19,0.73-5.74,2.02l-2.12-2.12C12.29,4.04,15.08,3,18,3
	c6.3,0,12,4.82,12,12.29C30,17.67,29.09,20.25,27.28,23.03z M9.17,13.41C9.06,14.01,9,14.64,9,15.29c0,3.52,2.93,8.16,9,13.71
	c1.27-1.16,2.4-2.28,3.4-3.36L9.17,13.41z M23.52,27.77c-1.56,1.68-3.4,3.42-5.52,5.23C10,26.18,6,20.27,6,15.29
	c0-1.57,0.25-3.02,0.71-4.34L2.09,6.33l2.13-2.11l27.57,27.57l-2.11,2.13L23.52,27.77z"/>
</svg>
