<?xml version="1.0" encoding="utf-8"?>
<!-- Generator: Adobe Illustrator 23.0.4, SVG Export Plug-In . SVG Version: 6.00 Build 0)  -->
<svg version="1.1" id="Layer_1" xmlns="http://www.w3.org/2000/svg" xmlns:xlink="http://www.w3.org/1999/xlink" x="0px" y="0px"
	 width="36px" height="36px" viewBox="0 0 36 36" enable-background="new 0 0 36 36" xml:space="preserve">
<path d="M18,28.5c-2.37,0-4.29-1.92-4.29-4.29c0-2.85,4.29-7.71,4.29-7.71s4.29,4.86,4.29,7.71C22.29,26.58,20.37,28.5,18,28.5z
	 M27.5,12l0.64-6H7.84l0.66,6H27.5z M25.5,30l1.65-15H8.84l1.66,15.01L25.5,30z M4.5,3h27l-3.01,27.34C28.31,31.84,27.05,33,25.5,33
	h-15c-1.55,0-2.8-1.16-2.99-2.66L4.5,3z"/>
</svg>
