<svg xmlns="http://www.w3.org/2000/svg" width="36px" height="36px" viewBox="0 0 36 36">
<circle cx="10.5" cy="27.5" r="2.5"/>
<circle cx="25.5" cy="27.5" r="2.5"/>
<path d="M25.9,21.02C28.41,18.82,30,15.6,30,12c0-4.18-2.14-7.85-5.37-10H11.37C8.14,4.15,6,7.82,6,12c0,3.6,1.59,6.82,4.1,9.02 C6.71,21.23,4,24.06,4,27.5c0,3.58,2.92,6.5,6.5,6.5h15c3.58,0,6.5-2.92,6.5-6.5C32,24.06,29.29,21.23,25.9,21.02z M9,12 c0-2.83,1.31-5.35,3.35-7h11.3C25.69,6.65,27,9.17,27,12c0,4.97-4.03,9-9,9S9,16.97,9,12z M25.5,31h-15C8.58,31,7,29.42,7,27.5 S8.58,24,10.5,24h15c1.92,0,3.5,1.58,3.5,3.5S27.42,31,25.5,31z"/>
<circle cx="12" cy="12" r="2"/>
<circle cx="15" cy="17" r="2"/>
<circle cx="21" cy="17" r="2"/>
<circle cx="18" cy="12" r="2"/>
<circle cx="24" cy="12" r="2"/>
<circle cx="21" cy="7.5" r="1.5"/>
<circle cx="15" cy="7.5" r="1.5"/>
</svg>
