<svg width="36" height="36" viewBox="0 0 36 36" fill="none" xmlns="http://www.w3.org/2000/svg">
<path fill-rule="evenodd" clip-rule="evenodd" d="M18 6C14.7841 6 12.0186 7.2314 10.9885 9.15169C9.95699 11.0744 8.94873 13.0923 8.20029 15.019C7.44329 16.9676 7 18.7046 7 20.0929C7 21.2087 7.72464 22.8277 9.27155 24.4379C10.7379 25.9641 12.5101 27.3348 15.09 28C17.2909 28.5675 18.7091 28.5675 20.91 28C23.4899 27.3348 25.2621 25.9641 26.7284 24.4379C28.2754 22.8277 29 21.2087 29 20.0929C29 18.7045 28.5567 16.9676 27.7997 15.019C27.0513 13.0923 26.043 11.0744 25.0115 9.15169C23.9814 7.2314 21.2159 6 18 6ZM18 3C21.7074 3 25.8652 4.39699 27.6551 7.73348C28.707 9.69419 29.7821 11.8371 30.5961 13.9326C31.4016 16.0061 32 18.1526 32 20.0929C32 22.3058 30.7007 24.6335 28.8918 26.5163C27.0435 28.4401 23.9377 30.1652 21 31V33H15V31C12.0623 30.1652 8.95647 28.4401 7.10817 26.5163C5.29935 24.6335 4 22.3058 4 20.0929C4 18.1526 4.59838 16.0061 5.40388 13.9326C6.21794 11.8371 7.29301 9.6942 8.34486 7.73348C10.1348 4.39699 14.2926 3 18 3Z" fill="black"/>
<path d="M16 20C16 21.933 14.433 23.5 12.5 23.5C10.567 23.5 9 21.933 9 20C9 18.067 10.567 16.5 12.5 16.5C14.433 16.5 16 18.067 16 20Z" fill="black"/>
<path d="M27 20C27 21.933 25.433 23.5 23.5 23.5C21.567 23.5 20 21.933 20 20C20 18.067 21.567 16.5 23.5 16.5C25.433 16.5 27 18.067 27 20Z" fill="black"/>
<path d="M20 25C20 26.1046 19.1046 27 18 27C16.8954 27 16 26.1046 16 25C16 23.8954 16.8954 23 18 23C19.1046 23 20 23.8954 20 25Z" fill="black"/>
<path d="M20 15C20 16.1046 19.1046 17 18 17C16.8954 17 16 16.1046 16 15C16 13.8954 16.8954 13 18 13C19.1046 13 20 13.8954 20 15Z" fill="black"/>
<path d="M20 9C20 10.1046 19.1046 11 18 11C16.8954 11 16 10.1046 16 9C16 7.89543 16.8954 7 18 7C19.1046 7 20 7.89543 20 9Z" fill="black"/>
<path d="M24 12C24 13.1046 23.1046 14 22 14C20.8954 14 20 13.1046 20 12C20 10.8954 20.8954 10 22 10C23.1046 10 24 10.8954 24 12Z" fill="black"/>
<path d="M16 12C16 13.1046 15.1046 14 14 14C12.8954 14 12 13.1046 12 12C12 10.8954 12.8954 10 14 10C15.1046 10 16 10.8954 16 12Z" fill="black"/>
</svg>
