<?xml version="1.0" encoding="utf-8"?>
<!-- Generator: Adobe Illustrator 30.0.0, SVG Export Plug-In . SVG Version: 9.03 Build 0)  -->
<svg version="1.1" baseProfile="basic" id="Layer_1"
	 xmlns="http://www.w3.org/2000/svg" xmlns:xlink="http://www.w3.org/1999/xlink" x="0px" y="0px" width="2900px" height="1700px"
	 viewBox="0 0 2900 1700" xml:space="preserve">
<g>
	<g id="city_x2F_plants">
		<path fill="#00854C" d="M1846.34,870.37c0,105.77-35.85,136.8-80.1,136.8c-8.14,0-16-1.07-23.4-3.42
			c-18.74,45.36-50.41,61.1-86.39,61.1c-57.54,0-104.22-40.38-104.22-178s46.67-320.4,104.22-320.4c26.94,0,51.5,40.03,69.99,96.75
			c11.73-23.98,25.32-39.07,39.81-39.07c44.25,0,80.1,140.46,80.1,246.23H1846.34z"/>
		<path fill="#00854C" d="M745.52,1208.91c0.62,12.38-0.58,24.38-3.36,35.74c0,0.05,0,0.09-0.04,0.13
			c-1.89,7.71-4.49,15.16-7.78,22.22H448.64c5.33-18.53,16.36-34.61,31.11-46.27c11.24-8.87,19.18-21.16,22.62-35.07
			c13.6-55.23,64.37-95.83,124.28-93.75c63.65,2.22,115.7,53.39,118.9,116.99L745.52,1208.91z"/>
		<path fill="#9D9B25" d="M742.12,1244.8c-1.53,7.78-3.98,15.22-7.24,22.22h-0.55C737.63,1259.96,740.23,1252.52,742.12,1244.8
			L742.12,1244.8z"/>
		<path fill="#CB9E5D" d="M1908.78,740.04V936.4h-22.07V822.1c0-28.83-23.38-52.23-52.23-52.23c-28.85,0-52.23,23.38-52.23,52.23
			v114.3h-37.87V822.1c0-28.83-23.38-52.23-52.23-52.23c-28.85,0-52.23,23.38-52.23,52.23v114.3h-38.91c0,0-1.96-196.36,0-196.36
			h307.73L1908.78,740.04z"/>
		
			<linearGradient id="SVGID_1_" gradientUnits="userSpaceOnUse" x1="1827.6117" y1="37.3705" x2="1960.342" y2="37.3705" gradientTransform="matrix(1 0 0 1 0 880)">
			<stop  offset="0" style="stop-color:#DEE49E"/>
			<stop  offset="0.48" style="stop-color:#DDE29C"/>
			<stop  offset="0.66" style="stop-color:#DBDB95"/>
			<stop  offset="0.78" style="stop-color:#D8CF8A"/>
			<stop  offset="0.88" style="stop-color:#D3BE7B"/>
			<stop  offset="0.97" style="stop-color:#CDA867"/>
			<stop  offset="1" style="stop-color:#CB9E5D"/>
		</linearGradient>
		<path fill="url(#SVGID_1_)" d="M1801.76,943.81V764.91c0-33.8,27.4-61.21,61.21-61.21h54.47c23.76,0,46.7,8.73,64.47,24.52
			l114.02,101.46c19.78,17.62,31.11,42.83,31.11,69.32v232.05h-325.27V943.79L1801.76,943.81z"/>
		<path fill="#9F7043" d="M2127.03,918.14L1992.48,803.5c-20.71-18.38-47.36-28.49-75.05-28.49h-85.08
			c-10.87,0-21.22,2.27-30.6,6.33v37.89c8.05-7.45,18.8-12.02,30.6-12.02h85.08c19.85,0,38.94,7.27,53.76,20.45l155.84,132.78
			v-42.32L2127.03,918.14z"/>
		<path fill="#9F7043" d="M2127.03,1010.88l-134.55-114.64c-20.71-18.38-47.36-28.49-75.05-28.49h-85.08
			c-10.87,0-21.22,2.27-30.6,6.33v37.89c8.05-7.45,18.8-12.02,30.6-12.02h85.08c19.85,0,38.94,7.27,53.76,20.45l155.84,132.78
			v-42.32L2127.03,1010.88z"/>
		<path fill="#9F7043" d="M1992.48,988.94c-20.71-18.36-47.36-28.49-75.05-28.49h-85.08c-10.87,0-21.22,2.27-30.6,6.33v37.89
			c8.05-7.45,18.8-12.02,30.6-12.02h85.08c19.85,0,38.94,7.27,53.76,20.45l138.42,117.93h17.42v-27.49L1992.48,988.9L1992.48,988.94
			z"/>
		<circle fill="#00854C" cx="2075.02" cy="1131.06" r="108.19"/>
		
			<linearGradient id="SVGID_00000106858950506488671820000016049226033196473022_" gradientUnits="userSpaceOnUse" x1="1362.6205" y1="-215.6695" x2="1319.7708" y2="-153.5311" gradientTransform="matrix(1 0 0 1 0 880)">
			<stop  offset="0" style="stop-color:#DEE49E"/>
			<stop  offset="0.48" style="stop-color:#DDE29C"/>
			<stop  offset="0.66" style="stop-color:#DBDB95"/>
			<stop  offset="0.78" style="stop-color:#D8CF8A"/>
			<stop  offset="0.88" style="stop-color:#D3BE7B"/>
			<stop  offset="0.97" style="stop-color:#CDA867"/>
			<stop  offset="1" style="stop-color:#CB9E5D"/>
		</linearGradient>
		<path fill="url(#SVGID_00000106858950506488671820000016049226033196473022_)" d="M1128.13,633.1l103.55-9.24l40.89,18.42
			c17.91,8.07,29.43,25.89,29.43,45.54v465.44h-213.41l0.62-141.47c-1.11-3.33-0.44-243.79-0.13-339.76
			C1089.15,650.5,1106.6,633.12,1128.13,633.1"/>
		<path fill="#CB9E5D" d="M1041.65,998.99c-1.11-3.33-0.44-243.79-0.13-339.76c0.07-21.52,17.53-38.9,39.05-38.9h134.84
			c21.56,0,39.05,17.49,39.05,39.05v481.11h-213.41l0.62-141.47L1041.65,998.99z"/>
		<rect x="1041.03" y="703.71" fill="#9F7043" width="213.41" height="47.12"/>
		<rect x="1041.03" y="784.54" fill="#9F7043" width="213.41" height="47.12"/>
		<rect x="1041.03" y="865.39" fill="#9F7043" width="213.41" height="47.12"/>
		<rect x="1041.03" y="946.21" fill="#C8C182" width="213.41" height="47.12"/>
		<rect x="1041.03" y="1027.06" fill="#C8C182" width="213.41" height="47.12"/>
		<path fill="#CB9E5D" d="M896.01,713.57h47.19c13,0,23.54,10.54,23.54,23.54v264.12h-70.74V713.57L896.01,713.57L896.01,713.57z"/>
		<path fill="#9F7043" d="M896.01,989.59V713.57h-57.07c-11.33,0-20.56,9.05-20.83,20.38c-4.2,175.54-64.43,272.17-216.83,308.8
			c-15.03,3.62-25.67,17.03-25.67,32.49v191.78h256.61L896.01,989.59L896.01,989.59z"/>
		<rect x="1034.1" y="1088.36" fill="#C17500" width="48.74" height="101.66"/>
		<circle fill="#35C369" cx="1103.46" cy="1040.91" r="160.42"/>
		
			<linearGradient id="SVGID_00000126302184570152056520000004917733133867070874_" gradientUnits="userSpaceOnUse" x1="901.2805" y1="82.9381" x2="901.2805" y2="275.9344" gradientTransform="matrix(1 0 0 1 0 880)">
			<stop  offset="0" style="stop-color:#DEE49E"/>
			<stop  offset="0.48" style="stop-color:#DDE29C"/>
			<stop  offset="0.66" style="stop-color:#DBDB95"/>
			<stop  offset="0.78" style="stop-color:#D8CF8A"/>
			<stop  offset="0.88" style="stop-color:#D3BE7B"/>
			<stop  offset="0.97" style="stop-color:#CDA867"/>
			<stop  offset="1" style="stop-color:#CB9E5D"/>
		</linearGradient>
		<path fill="url(#SVGID_00000126302184570152056520000004917733133867070874_)" d="M901.28,957.78h140.09l-140.09,329.51H761.19
			v-187.71c0-51.09,30.89-97.08,78.15-116.44L901.28,957.78z"/>
		<path fill="#CB9E5D" d="M1041.37,957.78v216.38l-140.09,113.13v-187.71c0-51.09,30.89-97.08,78.15-116.44L1041.37,957.78z"/>
		<path fill="#00854C" d="M1246.79,1193.29c0.4,14.89-2.71,29-8.56,41.56H966.75c10.36-36.05,43.6-62.45,82.99-62.45
			c0.18,0,0.38,0,0.56,0c8.25,0.05,15.62-4.85,18.83-12.47c14.14-33.56,47.54-57.01,86.35-56.56
			C1204.83,1103.96,1245.48,1143.95,1246.79,1193.29L1246.79,1193.29z"/>
		<path fill="#35C369" d="M2068.11,1197.98c-0.42,15.69,2.87,30.56,9.04,43.81h286.24c-10.93-38.01-45.96-65.85-87.52-65.85
			c-0.2,0-0.4,0-0.58,0c-8.71,0.05-16.47-5.13-19.85-13.14c-14.93-35.4-50.12-60.12-91.04-59.63
			C2112.36,1103.79,2069.51,1145.97,2068.11,1197.98z"/>
		<path fill="#CB9E5D" d="M2105.53,1149.92c0,0-10.96-37.5-28.4-46.43l-87.28-44.65c-10.58-5.4-22.27-8.24-34.16-8.24h-36.72v99.3
			h186.56V1149.92z"/>
		<path fill="#35C369" d="M1769.16,829.75c-36.67,0-68.06,22.56-81.1,54.54c-6.07-1.35-12.4-2.05-18.87-2.05
			c-48.36,0-87.55,39.2-87.55,87.55s39.2,87.55,87.55,87.55l187.52,232.92V917.31C1856.72,868.95,1817.52,829.75,1769.16,829.75
			L1769.16,829.75z"/>
		
			<linearGradient id="SVGID_00000073715470715187874900000000222422828886062476_" gradientUnits="userSpaceOnUse" x1="1935.307" y1="112.424" x2="1858.1702" y2="189.5607" gradientTransform="matrix(1 0 0 1 0 880)">
			<stop  offset="0" style="stop-color:#DEE49E"/>
			<stop  offset="0.48" style="stop-color:#DDE29C"/>
			<stop  offset="0.66" style="stop-color:#DBDB95"/>
			<stop  offset="0.78" style="stop-color:#D8CF8A"/>
			<stop  offset="0.88" style="stop-color:#D3BE7B"/>
			<stop  offset="0.97" style="stop-color:#CDA867"/>
			<stop  offset="1" style="stop-color:#CB9E5D"/>
		</linearGradient>
		<path fill="url(#SVGID_00000073715470715187874900000000222422828886062476_)" d="M1776.8,1326.64l122.06-41.76l-6.87-315.02
			l-40.41-31.92c-13.4-10.65-30.01-16.45-47.12-16.45h-36.7c-23.34,0-42.29,18.93-42.29,42.29v263.02l51.32,99.86L1776.8,1326.64z"
			/>
		<path fill="#9F7043" d="M1776.8,1326.64h328.74v-176.73c0-18.07-14.65-32.72-32.72-32.72h-69.46c-29.54,0-56.03-18.14-66.7-45.69
			l-33.85-87.37c-4.87-12.6-17-20.91-30.51-20.91h-53.21c-23.34,0-42.29,18.93-42.29,42.29V1326.64z"/>
	</g>
	<g id="road">
		<rect x="696.07" y="1608.86" fill="#ABC470" width="1507.54" height="40.32"/>
		<polygon fill="#C5D99B" points="2203.59,1608.86 696.07,1608.86 1354.21,957.72 1545.44,957.72 		"/>
		<polygon fill="#ECEFD9" points="1502.38,1525.64 1397.28,1525.64 1412.19,1382.13 1487.47,1382.13 		"/>
	</g>
	<g id="car">
		
			<linearGradient id="SVGID_00000155826948722111868240000001630970505086997932_" gradientUnits="userSpaceOnUse" x1="1328.9554" y1="-22.1912" x2="1506.917" y2="137.6817" gradientTransform="matrix(1 0 0 1 0 880)">
			<stop  offset="0" style="stop-color:#000000"/>
			<stop  offset="0.08" style="stop-color:#010206"/>
			<stop  offset="0.2" style="stop-color:#060917"/>
			<stop  offset="0.33" style="stop-color:#0E1533"/>
			<stop  offset="0.48" style="stop-color:#1A265B"/>
			<stop  offset="0.63" style="stop-color:#283B8D"/>
			<stop  offset="0.79" style="stop-color:#3A55CA"/>
			<stop  offset="0.89" style="stop-color:#4667F4"/>
			<stop  offset="0.9" style="stop-color:#3853C5"/>
			<stop  offset="0.9" style="stop-color:#2C429C"/>
			<stop  offset="0.91" style="stop-color:#223277"/>
			<stop  offset="0.91" style="stop-color:#182456"/>
			<stop  offset="0.92" style="stop-color:#11193B"/>
			<stop  offset="0.93" style="stop-color:#0A0F25"/>
			<stop  offset="0.93" style="stop-color:#050814"/>
			<stop  offset="0.94" style="stop-color:#020308"/>
			<stop  offset="0.96" style="stop-color:#000001"/>
			<stop  offset="1" style="stop-color:#000000"/>
		</linearGradient>
		<path fill="url(#SVGID_00000155826948722111868240000001630970505086997932_)" d="M1633.54,888.02
			c-2.13-10.58-11.49-18.25-22.27-18.25h-326.91c-10.78,0-20.14,7.67-22.27,18.25l-27.03,134.89h425.48l-27.02-134.89H1633.54z"/>
		<g>
			<path d="M1163.74,1224.02h133.75v95.53c0,18.51-15.02,33.52-33.52,33.52h-66.72c-18.51,0-33.52-15.02-33.52-33.52v-95.53l0,0
				H1163.74z"/>
			<path d="M1598.18,1224.02h133.75v95.53c0,18.51-15.02,33.52-33.52,33.52h-66.72c-18.51,0-33.52-15.02-33.52-33.52
				L1598.18,1224.02L1598.18,1224.02L1598.18,1224.02z"/>
			
				<linearGradient id="SVGID_00000115492005595997868280000001689419341186552755_" gradientUnits="userSpaceOnUse" x1="1447.8184" y1="281.5883" x2="1447.8184" y2="199.1613" gradientTransform="matrix(1 0 0 1 0 880)">
				<stop  offset="0.59" style="stop-color:#3E5FEB"/>
				<stop  offset="0.75" style="stop-color:#3F6FEE"/>
				<stop  offset="1" style="stop-color:#4285F4"/>
			</linearGradient>
			<path fill="url(#SVGID_00000115492005595997868280000001689419341186552755_)" d="M1731.93,1131.66v129.68l-72.08,43.18h-424.06
				l-72.08-43.18v-129.68c0-24.82,8.47-48.9,24.03-68.25l13.22-16.45c5.14-6.42,8.69-14,10.31-22.05h473.11
				c1.6,8.05,5.14,15.62,10.31,22.05l13.22,16.45C1723.46,1082.74,1731.93,1106.83,1731.93,1131.66L1731.93,1131.66z"/>
			<path d="M1678.3,1024.93h-461l6.6-25.62h22.52c12.6,0,25.09-2.56,36.61-7.62l14.29-6.27c25.02-10.93,53.59-9.78,77.59,3.11
				c13.29,7.07,28.11,10.78,43.21,10.78h253.55l6.6,25.62H1678.3z"/>
			<path fill="#15173D" d="M1499.45,897.31c-1.71-4.65-6.14-7.74-11.11-7.74h-81.01c-4.96,0-9.4,3.09-11.11,7.74
				c-3.29,8.93-0.15,30.18,51.61,30.18S1502.74,906.24,1499.45,897.31L1499.45,897.31z"/>
			<path d="M1255.66,1104.67h389.1c25.87,0,46.85,20.98,46.85,46.85l0,0c0,25.87-20.98,46.85-46.85,46.85h-389.1
				c-25.87,0-46.85-20.98-46.85-46.85l0,0C1208.81,1125.65,1229.79,1104.67,1255.66,1104.67z"/>
			<path fill="#FFFFFF" d="M1337.01,1138.34h226.41c7.54,0,13.65,6.11,13.65,13.65l0,0c0,7.54-6.11,13.65-13.65,13.65h-226.41
				c-7.54,0-13.65-6.11-13.65-13.65l0,0C1323.36,1144.44,1329.47,1138.34,1337.01,1138.34z"/>
			<circle fill="#FFFFFF" cx="1256.22" cy="1151.99" r="47.41"/>
			<circle fill="#FFFFFF" cx="1644.2" cy="1151.99" r="47.41"/>
			<circle fill="#15173D" cx="1644.2" cy="1151.99" r="24.65"/>
			<circle fill="#15173D" cx="1256.22" cy="1151.99" r="24.65"/>
			<path d="M1731.93,1261.34c0,0-1.44,43.18-30.36,43.18h-507.49c-28.92,0-30.36-43.18-30.36-43.18
				c25.54-0.04,59.63,0.04,80.35,0.09c11.33,0.04,21.72-6.25,26.96-16.29l5.85-11.22c6.38-12.23,19.03-19.91,32.85-19.91h276.17
				c13.8,0,26.47,7.67,32.85,19.91l5.85,11.22c5.24,10.04,15.63,16.33,26.96,16.29c20.72-0.05,54.81-0.13,80.34-0.09H1731.93
				L1731.93,1261.34z"/>
			<path d="M1673.39,1002.79l6.44,22.03l10.13,0.13h29.52c6.25,0,11.93-2.53,16.05-6.65c4.13-4.07,6.65-9.78,6.65-16.05
				c0-11.09-9-20.09-20.09-20.09h-21c-12.76,0-24.02,8.36-27.65,20.56L1673.39,1002.79L1673.39,1002.79z"/>
			<path d="M1222.23,999.24l-7.47,25.56l-11.74,0.15h-34.25c-7.25,0-13.83-2.95-18.62-7.73c-4.78-4.73-7.73-11.34-7.73-18.62
				c0-12.87,10.44-23.31,23.31-23.31h24.36c14.8,0,27.85,9.69,32.09,23.85L1222.23,999.24L1222.23,999.24z"/>
			<path fill="#4667F4" d="M1646.72,863.75H1248.9l40.81-46.85c11.44-13.71,28.34-21.63,46.19-21.63h223.81
				c17.85,0,34.76,7.93,46.19,21.63L1646.72,863.75L1646.72,863.75z"/>
			<path fill="#4667F4" d="M1656.03,883.51c-1-4.94-2.8-9.56-5.2-13.74c-7.96-13.85-22.85-22.94-39.56-22.94h-326.91
				c-16.71,0-31.6,9.09-39.56,22.94c-2.4,4.18-4.2,8.8-5.2,13.74l-28.34,141.42h23.4l27.43-136.91
				c2.13-10.58,11.49-18.25,22.27-18.25h326.91c10.78,0,20.14,7.67,22.27,18.25l27.41,136.91h23.4L1656.03,883.51z"/>
			<path d="M1369.68,801.87c0,0-11.73,0-14,0c-0.87,0-2,0.73-3.49,2.75c-5.42,7.33-25.98,28.92-25.98,28.92
				c-3.29,4.42-5.42,9.62-6.11,14.96l-0.69,5.33h16.47L1369.68,801.87L1369.68,801.87z"/>
			<path fill="#202FAF" d="M1372.57,806.79c0,0-1.04-9.4-6.25-2.18c-5.31,7.33-23.98,28.92-23.98,28.92
				c-3.22,4.42-5.25,9.62-5.85,14.96l-0.6,5.33L1372.57,806.79L1372.57,806.79z"/>
			<path d="M1525.96,801.87c0,0,11.73,0,14,0c0.87,0,2,0.73,3.49,2.75c5.42,7.33,25.98,28.92,25.98,28.92
				c3.29,4.42,5.42,9.62,6.11,14.96l0.69,5.33h-16.47L1525.96,801.87L1525.96,801.87z"/>
			<path fill="#202FAF" d="M1523.06,806.79c0,0,1.04-9.4,6.25-2.18c5.31,7.33,23.98,28.92,23.98,28.92
				c3.22,4.42,5.25,9.62,5.85,14.96l0.6,5.33L1523.06,806.79L1523.06,806.79z"/>
		</g>
	</g>
	<g id="pin">
		<path fill="#FF4365" d="M1662.38,180.05L1662.38,180.05c-29.23-56.32-79.48-98.73-140.07-117.97
			c-45.27-13.91-93.39-14.62-139-1.42c-45.63,13.18-85.9,39.56-116.55,75.92c-36.36,43.12-55.96,97.66-55.96,153.98
			c-0.36,39.21,7.49,78.41,23.52,114.06c24.94,54.88,66.3,99.08,109.06,154.69c13.54,18.18,27.09,37.07,40.63,57.74
			c48.47,74.85,34.92,120.11,66.3,120.11c31.38,0,17.82-44.9,66.3-120.11c79.85-124.75,172.87-181.42,172.87-326.84
			c0-38.49-9.27-76.28-27.09-110.13L1662.38,180.05z M1450.31,381.99c-50.59,0-91.63-41.01-91.63-91.63s41.01-91.63,91.63-91.63
			c50.61,0,91.63,41.01,91.63,91.63S1500.92,381.99,1450.31,381.99z"/>
	</g>
	<g id="icons">
		<g>
			<circle fill="#ABC470" cx="2289.12" cy="709.24" r="162.24"/>
			<path fill-rule="evenodd" clip-rule="evenodd" fill="#FFFFFF" d="M2365.11,677.12c-3.13-14.33-10.36-27.92-21.71-38.94
				c-30.43-29.54-78.46-29.21-108.51,0.71c-7.84,7.8-13.65,16.85-17.43,26.52c-0.96,2.44-3.04,4.29-5.58,4.89
				c-22.47,5.38-39.18,25.62-39.18,49.74c0,28.25,22.91,51.16,51.16,51.16c0.65,0,138.26-0.04,138.26-0.04v-0.18
				c24.49,0,44.36-19.85,44.36-44.36c0-21.32-15.05-39.12-35.11-43.38c-3.09-0.65-5.53-3.04-6.22-6.13H2365.11z"/>
		</g>
		<g>
			<circle fill="#ABC470" cx="1973.83" cy="456" r="162.33"/>
			<g>
				<path fill="#FFFFFF" d="M1891.39,446.38h31.05c5.98,0,10.84,4.85,10.84,10.84v70.41h-52.7v-70.41
					C1880.57,451.23,1885.42,446.38,1891.39,446.38L1891.39,446.38z"/>
				<path fill="#FFFFFF" d="M1958.03,384.37h31.05c5.98,0,10.84,4.85,10.84,10.84v132.42h-52.7V395.2
					C1947.22,389.22,1952.07,384.37,1958.03,384.37L1958.03,384.37z"/>
				<path fill="#FFFFFF" d="M2024.7,474.9h31.05c5.98,0,10.84,4.85,10.84,10.84v41.89h-52.7v-41.89
					C2013.88,479.76,2018.74,474.9,2024.7,474.9L2024.7,474.9z"/>
			</g>
		</g>
		<g>
			<circle fill="#ABC470" cx="612.3" cy="708.73" r="162.25"/>
			<path fill="#FFFFFF" d="M689.01,631.34c-10.56-20.36-28.72-35.69-50.63-42.65c-8.51-2.62-17.29-3.93-26.09-3.93
				c-8.8,0-17.58,1.31-26.09,3.93c-21.91,6.96-40.07,22.29-50.63,42.65c-6.44,12.23-9.8,25.89-9.8,39.81
				c0,52.56,33.63,73.05,62.48,118.13c17.53,27.18,12.62,43.41,23.96,43.41c0.02,0,0.04,0,0.07,0c0.02,0,0.04,0,0.07,0
				c11.34,0,6.44-16.23,23.96-43.41c28.85-45.09,62.48-65.57,62.48-118.13C698.81,657.25,695.47,643.59,689.01,631.34z
				 M612.26,704.24c-18.25,0-33.05-14.8-33.05-33.05s14.8-33.05,33.05-33.05c18.25,0,33.05,14.8,33.05,33.05
				S630.51,704.24,612.26,704.24z"/>
		</g>
		<g>
			<circle fill="#ABC470" cx="941.11" cy="462.16" r="162.25"/>
			<g>
				<path fill="#FFFFFF" d="M890.25,370.5H992c5.98,0,10.84,4.85,10.84,10.84v162.96c0,5.98-4.85,10.84-10.84,10.84H890.25
					c-5.98,0-10.84-4.85-10.84-10.84V381.33C879.41,375.35,884.26,370.5,890.25,370.5z"/>
				<path fill="#FFFFFF" d="M921.06,341.15h40.09c5.98,0,10.84,4.85,10.84,10.84v18.51h-61.74v-18.51c0-5.98,4.85-10.84,10.84-10.84
					H921.06z"/>
				<path fill="#ABC470" d="M977.25,454.03h-24.42l7.6-32.74c1.2-5.14-4.91-8.78-8.87-5.27l-50.58,44.79
					c-3.73,3.31-1.4,9.47,3.58,9.47h24.42l-7.6,32.74c-1.2,5.14,4.91,8.78,8.87,5.27l50.58-44.79
					C984.56,460.2,982.23,454.03,977.25,454.03z"/>
			</g>
		</g>
	</g>
</g>
</svg>
