<?xml version="1.0" encoding="utf-8"?>
<!-- Generator: Adobe Illustrator 23.0.4, SVG Export Plug-In . SVG Version: 6.00 Build 0)  -->
<svg version="1.1" id="Layer_1" xmlns="http://www.w3.org/2000/svg" xmlns:xlink="http://www.w3.org/1999/xlink" x="0px" y="0px"
	 width="36px" height="36px" viewBox="0 0 36 36" enable-background="new 0 0 36 36" xml:space="preserve">
<path d="M27,7.5v-6h-3v6h-7.5l0.34,3h14.34l-2.1,21H27v3h2.58c1.26,0,2.3-0.97,2.45-2.21L34.5,7.5H27z M1.5,25.5H24v3H1.5V25.5z
	 M12.75,13.49C7.12,13.49,1.5,16.5,1.5,22.5H24C24,16.5,18.38,13.49,12.75,13.49z M1.5,32.97c0,0.84,0.67,1.51,1.52,1.51H22.5
	c0.84,0,1.51-0.67,1.51-1.51V31.5H1.5V32.97z"/>
</svg>
