<?xml version="1.0" encoding="utf-8"?>
<!-- Generator: Adobe Illustrator 23.0.4, SVG Export Plug-In . SVG Version: 6.00 Build 0)  -->
<svg version="1.1" id="Layer_1" xmlns="http://www.w3.org/2000/svg" xmlns:xlink="http://www.w3.org/1999/xlink" x="0px" y="0px"
	 width="36px" height="36px" viewBox="0 0 36 36" enable-background="new 0 0 36 36" xml:space="preserve">
<path d="M7.5,12h3v12h-3V12z M15,15h1.5v6H15V15z M13.5,24H18c0.83,0,1.5-0.67,1.5-1.5v-9c0-0.83-0.67-1.5-1.5-1.5h-4.5
	c-0.82,0-1.5,0.67-1.5,1.5v9C12,23.33,12.68,24,13.5,24z M24,15h1.5v6H24V15z M22.5,24H27c0.83,0,1.5-0.67,1.5-1.5v-9
	c0-0.83-0.67-1.5-1.5-1.5h-4.5c-0.83,0-1.5,0.67-1.5,1.5v9C21,23.33,21.67,24,22.5,24z M30,27H6V9h24V27z M3,6v24h30V6H3z"/>
</svg>
