<svg width="50" height="50" viewBox="0 0 50 50" xmlns="http://www.w3.org/2000/svg">
<path d="M16.76 50C15.36 50 14.17 49.5193 13.19 48.5579C12.21 47.5966 11.72 46.4292 11.72 45.0558H10.04C9.116 45.0558 8.318 44.7399 7.646 44.1082C7.002 43.4489 6.68 42.6661 6.68 41.7597V33.5193H25.16V26.927C25.16 26.0206 25.482 25.2515 26.126 24.6197C26.798 23.9605 27.596 23.6309 28.52 23.6309H31.88L32.9027 23.6298L36.248 23.6061L36.92 23.6309H37.844C38.572 23.6309 39.23 23.8369 39.818 24.2489C40.406 24.6609 40.812 25.2103 41.036 25.897L43.472 32.9837C43.528 33.1485 43.57 33.327 43.598 33.5193C43.626 33.6841 43.64 33.8627 43.64 34.0549V45.0558H38.6C38.6 46.4292 38.11 47.5966 37.13 48.5579C36.15 49.5193 34.96 50 33.56 50C32.16 50 30.97 49.5193 29.99 48.5579C29.01 47.5966 28.52 46.4292 28.52 45.0558H21.8C21.8 46.4292 21.31 47.5966 20.33 48.5579C19.35 49.5193 18.16 50 16.76 50ZM16.76 46.7039C17.236 46.7039 17.628 46.5528 17.936 46.2507C18.272 45.921 18.44 45.5228 18.44 45.0558C18.44 44.5888 18.272 44.2043 17.936 43.9022C17.628 43.5725 17.236 43.4077 16.76 43.4077C16.284 43.4077 15.878 43.5725 15.542 43.9022C15.234 44.2043 15.08 44.5888 15.08 45.0558C15.08 45.5228 15.234 45.921 15.542 46.2507C15.878 46.5528 16.284 46.7039 16.76 46.7039ZM33.56 46.7039C34.036 46.7039 34.428 46.5528 34.736 46.2507C35.072 45.921 35.24 45.5228 35.24 45.0558C35.24 44.5888 35.072 44.2043 34.736 43.9022C34.428 43.5725 34.036 43.4077 33.56 43.4077C33.084 43.4077 32.678 43.5725 32.342 43.9022C32.034 44.2043 31.88 44.5888 31.88 45.0558C31.88 45.5228 32.034 45.921 32.342 46.2507C32.678 46.5528 33.084 46.7039 33.56 46.7039ZM10.04 36.8155V41.7597H13.022C13.498 41.2378 14.058 40.8395 14.702 40.5648C15.346 40.2627 16.032 40.1116 16.76 40.1116C17.488 40.1116 18.174 40.2627 18.818 40.5648C19.462 40.8395 20.022 41.2378 20.498 41.7597H25.16V36.8155H10.04ZM28.52 41.7597H29.822C30.298 41.2378 30.858 40.8395 31.502 40.5648C32.146 40.2627 32.832 40.1116 33.56 40.1116C34.288 40.1116 34.974 40.2627 35.618 40.5648C36.262 40.8395 36.822 41.2378 37.298 41.7597H40.28V36.8155H28.52V41.7597ZM28.52 33.5193H40.112L37.844 26.927H28.52V33.5193ZM25.16 36.8155H20.498C20.022 36.8155 19.462 36.8155 18.818 36.8155C18.174 36.8155 17.488 36.8155 16.76 36.8155C16.032 36.8155 15.346 36.8155 14.702 36.8155C14.058 36.8155 13.498 36.8155 13.022 36.8155H10.04H25.16ZM28.52 36.8155H40.28H37.298C36.822 36.8155 36.262 36.8155 35.618 36.8155C34.974 36.8155 34.288 36.8155 33.56 36.8155C32.832 36.8155 32.146 36.8155 31.502 36.8155C30.858 36.8155 30.298 36.8155 29.822 36.8155H28.52Z" />
<path fill-rule="evenodd" clip-rule="evenodd" d="M19.28 2H26.14C29.3838 2 32.02 4.77082 32.02 8.18026C32.02 11.5897 29.3838 14.3605 26.14 14.3605H23.2V20.5408H19.28V2ZM23.2 10.2403H26.336C27.414 10.2403 28.296 9.3133 28.296 8.18026C28.296 7.04721 27.414 6.12017 26.336 6.12017H23.2V10.2403Z" />
</svg>
