<svg xmlns="http://www.w3.org/2000/svg" width="36px" height="36px" viewBox="0 0 36 36">
<circle cx="11.5" cy="18" r="3.5"/>
<path d="M18,16c2.21,0,4-1.79,4-4c0-2.21-1.79-4-4-4s-4,1.79-4,4C14,14.21,15.79,16,18,16z M15.5,12c0-0.42,0.11-0.8,0.29-1.15 L16.94,12l-1.15,1.15C15.61,12.8,15.5,12.42,15.5,12z M16.85,14.21L18,13.06l1.15,1.15C18.8,14.39,18.42,14.5,18,14.5 S17.2,14.39,16.85,14.21z M20.21,10.85c0.18,0.35,0.29,0.73,0.29,1.15s-0.11,0.8-0.29,1.15L19.06,12L20.21,10.85z M19.15,9.79 L18,10.94l-1.15-1.15C17.2,9.61,17.58,9.5,18,9.5S18.8,9.61,19.15,9.79z"/>
<circle cx="24.5" cy="18" r="3.5"/>
<path d="M18,3C9.72,3,3,9.72,3,18c0,8.28,6.72,15,15,15s15-6.72,15-15C33,9.72,26.28,3,18,3z M18,30c-6.63,0-12-5.37-12-12 c0-6.63,5.37-12,12-12c6.63,0,12,5.37,12,12C30,24.63,24.63,30,18,30z"/>
<path d="M18,20c-2.21,0-4,1.79-4,4c0,2.21,1.79,4,4,4s4-1.79,4-4C22,21.79,20.21,20,18,20z M20.5,24c0,0.42-0.11,0.8-0.29,1.15 L19.06,24l1.15-1.15C20.39,23.2,20.5,23.58,20.5,24z M19.15,21.79L18,22.94l-1.15-1.15c0.35-0.18,0.73-0.29,1.15-0.29 S18.8,21.61,19.15,21.79z M15.79,25.15C15.61,24.8,15.5,24.42,15.5,24s0.11-0.8,0.29-1.15L16.94,24L15.79,25.15z M16.85,26.21 L18,25.06l1.15,1.15C18.8,26.39,18.42,26.5,18,26.5S17.2,26.39,16.85,26.21z"/>
</svg>
