<svg width="24" height="24" viewBox="0 0 24 24" xmlns="http://www.w3.org/2000/svg">
<path d="M15.2733 19.5462H2.1819V18.4625C2.40009 17.677 5.78204 16.2733 8.7276 16.2733C11.6732 16.2733 15.0551 17.6843 15.2733 18.4552V19.5462ZM8.7276 14.0914C5.81113 14.0914 0 15.5533 0 18.4552V21.7281H17.4552V18.4552C17.4552 15.5533 11.6368 14.0914 8.7276 14.0914ZM8.7276 6.45475C9.92765 6.45475 10.9095 7.43661 10.9095 8.63665C10.9095 9.8367 9.92765 10.8186 8.7276 10.8186C7.52756 10.8186 6.5457 9.8367 6.5457 8.63665C6.5457 7.43661 7.52756 6.45475 8.7276 6.45475ZM8.7276 13.0005C11.1422 13.0005 13.0914 11.0513 13.0914 8.63665C13.0914 6.22202 11.1422 4.27285 8.7276 4.27285C6.31297 4.27285 4.3638 6.22202 4.3638 8.63665C4.3638 11.0513 6.32024 13.0005 8.7276 13.0005ZM20.8008 1L19.0262 2.77461C22.0517 6.06928 22.0517 11.0222 19.0262 14.4914L20.8008 16.2733C25.0628 12.0331 25.07 5.42199 20.8008 1ZM15.3606 6.51294C16.277 7.80026 16.277 9.46577 15.3606 10.7531L17.1934 12.5932C19.3971 10.3894 19.3971 7.06568 17.1934 4.66559L15.3606 6.51294Z" />
</svg>
