<svg xmlns="http://www.w3.org/2000/svg" width="36px" height="36px" viewBox="0 0 36 36">
<path d="M18,16.5c-1.25,0-2.25-1-2.25-2.25S16.75,12,18,12s2.25,1,2.25,2.25S19.25,16.5,18,16.5z M18,9c-2.91,0-5.25,2.34-5.25,5.25 S15.09,19.5,18,19.5s5.25-2.34,5.25-5.25S20.91,9,18,9z M27.54,25.24c-2.15-2.61-7.35-3.49-9.54-3.49s-7.4,0.89-9.54,3.49 C6.93,23.24,6,20.73,6,18c0-6.61,5.39-12,12-12s12,5.39,12,12C30,20.73,29.07,23.24,27.54,25.24z M10.6,27.42 c0.65-1.35,4.58-2.67,7.4-2.67s6.76,1.32,7.4,2.67C23.35,29.04,20.79,30,18,30S12.65,29.04,10.6,27.42z M18,3C9.72,3,3,9.72,3,18 s6.72,15,15,15s15-6.72,15-15S26.28,3,18,3z"/>
</svg>