<?xml version="1.0" encoding="utf-8"?>
<!-- Generator: Adobe Illustrator 23.0.4, SVG Export Plug-In . SVG Version: 6.00 Build 0)  -->
<svg version="1.1" id="Layer_1" xmlns="http://www.w3.org/2000/svg" xmlns:xlink="http://www.w3.org/1999/xlink" x="0px" y="0px"
	 width="36px" height="36px" viewBox="0 0 36 36" enable-background="new 0 0 36 36" xml:space="preserve">
<path d="M30,28.5H6v3h24V28.5z M27,12V7.5h3V12H27z M30,4.5H6v15c0,3.31,2.69,6,6,6h9c3.32,0,6-2.69,6-6V15h3c1.67,0,3-1.33,3-3V7.5
	C33,5.83,31.67,4.5,30,4.5z M24,7.5v12c0,1.65-1.35,3-3,3h-9c-1.65,0-3-1.35-3-3v-12H24z"/>
</svg>
