<?xml version="1.0" encoding="utf-8"?>
<!-- Generator: Adobe Illustrator 24.0.1, SVG Export Plug-In . SVG Version: 6.00 Build 0)  -->
<svg version="1.1" id="Layer_1" xmlns="http://www.w3.org/2000/svg" xmlns:xlink="http://www.w3.org/1999/xlink" x="0px" y="0px"
	 width="24px" height="24px" viewBox="0 0 24 24" enable-background="new 0 0 24 24" xml:space="preserve">
<path fill-rule="evenodd" clip-rule="evenodd" fill="#FFFFFF" d="M7,7v2h14V7H7z M7,17h14v-2H7V17z M7,13h14v-2H7V13z M4,9L4,9
	c0.55,0,1-0.45,1-1S4.55,7,4,7S3,7.45,3,8C3,8.55,3.45,9,4,9z M4,17L4,17c0.55,0,1-0.45,1-1s-0.45-1-1-1s-1,0.45-1,1S3.45,17,4,17z
	 M4,13L4,13c0.55,0,1-0.45,1-1s-0.45-1-1-1s-1,0.45-1,1S3.45,13,4,13z"/>
</svg>
