<svg width="24" height="24" viewBox="0 0 24 24" xmlns="http://www.w3.org/2000/svg">
<g clip-path="url(#clip0_1478_62764)">
<path d="M5 22C4.45 22 3.975 21.8083 3.575 21.425C3.19167 21.025 3 20.55 3 20V8C3 7.45 3.19167 6.98333 3.575 6.6C3.975 6.2 4.45 6 5 6H7C7 4.61667 7.48333 3.44167 8.45 2.475C9.43333 1.49167 10.6167 0.999999 12 0.999999C13.3833 0.999999 14.5583 1.49167 15.525 2.475C16.5083 3.44167 17 4.61667 17 6H19C19.55 6 20.0167 6.2 20.4 6.6C20.8 6.98333 21 7.45 21 8V20C21 20.55 20.8 21.025 20.4 21.425C20.0167 21.8083 19.55 22 19 22H5ZM5 20H19V8H5V20ZM12 14C13.3833 14 14.5583 13.5167 15.525 12.55C16.5083 11.5667 17 10.3833 17 9H15C15 9.83333 14.7083 10.5417 14.125 11.125C13.5417 11.7083 12.8333 12 12 12C11.1667 12 10.4583 11.7083 9.875 11.125C9.29167 10.5417 9 9.83333 9 9H7C7 10.3833 7.48333 11.5667 8.45 12.55C9.43333 13.5167 10.6167 14 12 14ZM9 6H15C15 5.16667 14.7083 4.45833 14.125 3.875C13.5417 3.29167 12.8333 3 12 3C11.1667 3 10.4583 3.29167 9.875 3.875C9.29167 4.45833 9 5.16667 9 6ZM5 20V8V20Z" />
</g>
<defs>
<clipPath id="clip0_1478_62764">
<rect width="24" height="24"/>
</clipPath>
</defs>
</svg>
