<svg width="36px" height="36px" viewBox="0 0 36 36" fill="none" xmlns="http://www.w3.org/2000/svg">
<path d="M12.9811 25.7986C13.9684 27.036 14.9739 28.5919 15.5001 29.5317C16.141 30.7534 16.4067 31.5783 16.8834 33.0559C17.1621 33.8652 17.4278 34.1105 17.9853 34.1105C18.5949 34.1105 18.8736 33.6981 19.0872 33.0559C19.5327 31.6697 19.8766 30.615 20.421 29.61C22.5207 25.642 25.9436 22.8226 27.8714 18.959C27.8714 18.959 29.14 16.5991 29.14 13.2941C29.14 10.2137 27.8896 8.07303 27.8896 8.07303L12.9889 25.8247L12.9811 25.7986Z" fill="#34A853"/>
<path d="M7.92729 18.5413C9.12821 21.2824 11.418 23.6841 12.981 25.7986L21.265 15.9569C21.265 15.9569 20.0953 17.4919 17.9827 17.4919C15.6277 17.4919 13.7104 15.6123 13.7104 13.2367C13.7104 11.6025 14.6821 10.4695 14.6821 10.4695C8.58636 11.378 8.92501 12.8582 7.90906 18.5361L7.92729 18.5413Z" fill="#FBBC04"/>
<path d="M21.3692 2.55695C24.1305 3.44714 26.475 5.32412 27.8817 8.06519L21.265 15.9751C21.265 15.9751 22.2366 14.8369 22.2366 13.2079C22.2366 10.7828 20.1943 8.95277 17.9905 8.95277C15.8986 8.95277 14.7081 10.4695 14.7081 10.4695C15.2161 9.31041 20.4652 2.95114 21.377 2.55956L21.3692 2.55695Z" fill="#4285F4"/>
<path d="M9.43823 6.03679C11.0846 4.07366 13.971 2.04266 17.9566 2.04266C19.8817 2.04266 21.3432 2.55433 21.3432 2.55433L14.7004 10.4643C14.2523 10.2207 9.88109 6.80951 9.43823 6.02635V6.03679Z" fill="#1A73E8"/>
<path d="M7.92724 18.5413C7.92724 18.5413 6.84094 16.3797 6.84094 13.268C6.84094 10.3181 7.99236 7.73364 9.44596 6.0629L14.7081 10.5008L7.93505 18.5413H7.92724Z" fill="#EA4335"/>
</svg>
