<?xml version="1.0" encoding="utf-8"?>
<!-- Generator: Adobe Illustrator 23.0.4, SVG Export Plug-In . SVG Version: 6.00 Build 0)  -->
<svg version="1.1" id="Layer_1" xmlns="http://www.w3.org/2000/svg" xmlns:xlink="http://www.w3.org/1999/xlink" x="0px" y="0px"
	 width="36px" height="36px" viewBox="0 0 36 36" enable-background="new 0 0 36 36" xml:space="preserve">
<path d="M28.5,16.5h-3c0,1.36-0.39,2.62-1.03,3.72l2.19,2.19C27.81,20.73,28.5,18.7,28.5,16.5z M4.22,4.22L2.09,6.33l17.47,17.48
	C19.07,23.92,18.54,24,18,24c-4.14,0-7.5-3.36-7.5-7.5h-3c0,5.3,3.91,9.65,9,10.38v4.62h3v-4.62c0.85-0.12,1.68-0.36,2.46-0.69
	l7.71,7.71l2.11-2.12L4.22,4.22z M16.5,7.5C16.5,6.67,17.17,6,18,6s1.5,0.67,1.5,1.5v7.75l2.73,2.73c0.17-0.47,0.27-0.96,0.27-1.49
	v-9C22.5,5.01,20.49,3,18,3s-4.5,2.01-4.5,4.5v1.75l3,3V7.5z"/>
</svg>
