<?xml version="1.0" encoding="utf-8"?>
<!-- Generator: Adobe Illustrator 23.0.4, SVG Export Plug-In . SVG Version: 6.00 Build 0)  -->
<svg version="1.1" id="Layer_1" xmlns="http://www.w3.org/2000/svg" xmlns:xlink="http://www.w3.org/1999/xlink" x="0px" y="0px"
	 width="36px" height="36px" viewBox="0 0 36 36" enable-background="new 0 0 36 36" xml:space="preserve">
<path d="M27,15c-0.83,0-1.5-0.67-1.5-1.5S26.17,12,27,12s1.5,0.67,1.5,1.5S27.83,15,27,15z M18,15H9V7.5h9V15z M29.66,10.84
	l0.01-0.01l-5.58-5.58L22.5,6.84L25.67,10c-1.41,0.54-2.42,1.89-2.42,3.5c0,2.07,1.68,3.75,3.75,3.75c0.54,0,1.03-0.12,1.5-0.32
	v10.82c0,0.83-0.67,1.5-1.5,1.5s-1.5-0.67-1.5-1.5V21c0-1.65-1.35-3-3-3H21V7.5c0-1.65-1.35-3-3-3H9c-1.65,0-3,1.35-3,3v24h15V20.25
	h2.25v7.5c0,2.07,1.68,3.75,3.75,3.75s3.75-1.68,3.75-3.75V13.5C30.75,12.47,30.33,11.52,29.66,10.84z"/>
</svg>
