<svg xmlns="http://www.w3.org/2000/svg" width="36px" height="36px" viewBox="0 0 36 36">
<circle cx="10.5" cy="18" r="2.5"/>
<circle cx="18" cy="21.5" r="2.5"/>
<circle cx="25.5" cy="18" r="2.5"/>
<path d="M35.08,16.99l-8.19-9.01C26.32,7.36,25.52,7,24.67,7H11.33c-0.85,0-1.65,0.36-2.22,0.98l-8.19,9.01 c-0.52,0.57-0.52,1.45,0,2.02l8.19,9.01C9.68,28.64,10.48,29,11.33,29h13.35c0.85,0,1.65-0.36,2.22-0.98l8.19-9.01 C35.6,18.44,35.6,17.56,35.08,16.99z M24.67,26H11.33l-7.27-8l7.27-8h13.35l7.27,8L24.67,26z"/>
</svg>
