<svg xmlns="http://www.w3.org/2000/svg" height="24px" viewBox="0 0 24 24" width="24px" >
<path d="M0 0h24v24H0V0z" fill="none"/><path d="M21.19 21.19l-4.92-4.92-1.45-1.45-7.51-7.51-1.53-1.53-2.97-2.97-1.42 1.41 3.7 3.7C5.04 8.27 5 8.63 5 9c0 5.25 7 13 7 13s1.52-1.69 3.15-4.02l4.63 4.63 1.41-1.42zM12 18.88c-1.87-2.39-4.41-6.15-4.91-8.95l6.62 6.62c-.58.84-1.17 1.64-1.71 2.33zM12 4c2.76 0 5 2.24 5 5 0 1.16-.48 2.56-1.18 3.99l1.48 1.48C18.28 12.62 19 10.68 19 9c0-3.87-3.13-7-7-7-1.98 0-3.76.82-5.03 2.14l1.42 1.42C9.3 4.6 10.58 4 12 4zm-1.85 3.33l3.52 3.52c.5-.46.83-1.11.83-1.85 0-1.38-1.12-2.5-2.5-2.5-.73 0-1.39.32-1.85.83z"/>
</svg>
