<svg xmlns="http://www.w3.org/2000/svg" width="36px" height="36px" viewBox="0 0 36 36">
<circle cx="10.5" cy="17.5" r="2.5"/>
<circle cx="14.5" cy="23.5" r="2.5"/>
<circle cx="21.5" cy="23.5" r="2.5"/>
<circle cx="18" cy="17.5" r="2.5"/>
<circle cx="25.5" cy="17.5" r="2.5"/>
<circle cx="22" cy="12" r="2"/>
<circle cx="14" cy="12" r="2"/>
<path d="M26.97,5H9.03C5.37,7.74,3,12.09,3,17c0,8.28,6.72,15,15,15s15-6.72,15-15C33,12.09,30.63,7.74,26.97,5z M18,29 c-6.63,0-12-5.37-12-12c0-3.59,1.58-6.8,4.08-9h15.84c2.5,2.2,4.08,5.41,4.08,9C30,23.63,24.63,29,18,29z"/>
</svg>
