<?xml version="1.0" encoding="utf-8"?>
<!-- Generator: Adobe Illustrator 24.2.3, SVG Export Plug-In . SVG Version: 6.00 Build 0)  -->
<svg xmlns="http://www.w3.org/2000/svg" xmlns:xlink="http://www.w3.org/1999/xlink" version="1.1" id="Layer_1" x="0px" y="0px" width="36px" height="36px" viewBox="0 0 36 36" style="enable-background:new 0 0 36 36;" xml:space="preserve">
<g>
	<rect x="4.9" y="24.4" class="st0" width="11" height="3.2" />
	<rect x="5" y="8.4" class="st0" width="11" height="3.2" />
	<rect x="2" y="16.5" class="st0" width="11" height="3.2" />
	<path class="st0" d="M23.3,34h-1.8l1.8-12.4h-6.2c-1,0-1-0.6-0.7-1.2c0.3-0.6,0.1-0.1,0.1-0.2c2.3-4.1,5.7-10.1,10.3-18.2h1.8   l-1.8,12.4H33c0.9,0,1,0.6,0.8,0.9l-0.1,0.3C26.8,27.9,23.3,34,23.3,34z" />
	<path class="st1" d="M0,0h36v36H0V0z" fill="none"/>
	<rect x="0" y="0" class="st1" width="36" height="36" fill="none"/>
</g>
</svg>
