<?xml version="1.0" encoding="utf-8"?>
<!-- Generator: Adobe Illustrator 23.0.4, SVG Export Plug-In . SVG Version: 6.00 Build 0)  -->
<svg version="1.1" id="Layer_1" xmlns="http://www.w3.org/2000/svg" xmlns:xlink="http://www.w3.org/1999/xlink" x="0px" y="0px"
	 width="36px" height="36px" viewBox="0 0 36 36" enable-background="new 0 0 36 36" xml:space="preserve">
<path fill="#4285F4" d="M18,22.5c2.49,0,4.49-2.01,4.49-4.5L22.5,7.5C22.5,5.01,20.49,3,18,3s-4.5,2.01-4.5,4.5V18
	C13.5,20.49,15.51,22.5,18,22.5z"/>
<rect x="16.5" y="28.38" fill="#34A853" width="3" height="4.62"/>
<path fill="#F4B400" d="M10.5,18h-3c0,2.9,1.17,5.52,3.07,7.42l2.11-2.11C11.34,21.94,10.5,20.07,10.5,18z"/>
<path fill="#EA4335" d="M18,25.5c-2.07,0-3.94-0.84-5.31-2.2l-2.11,2.11c1.9,1.9,4.53,3.09,7.44,3.09c5.81,0,10.47-4.71,10.47-10.5
	h-3C25.49,22.14,22.14,25.5,18,25.5z"/>
</svg>
