<?xml version="1.0" encoding="utf-8"?>
<svg version="1.1" id="verified_user" xmlns="http://www.w3.org/2000/svg" xmlns:xlink="http://www.w3.org/1999/xlink" x="0px" y="0px" width="64px" height="64px" viewBox="0 0 64 64" enable-background="new 0 0 64 64" xml:space="preserve">
  <path d="M29.0667 40.8667L44.2667 25.6667L41.4667 22.9333L29.2667 35.1333L22.5333 28.4L19.6 31.3333L29.0667 40.8667ZM32 58.6C25.7778 57.0444 20.6667 53.4444 16.6667 47.8C12.6667 42.1111 10.6667 35.8889 10.6667 29.1333V13.2667L32 5.26666L53.3333 13.2667V29.1333C53.3333 35.8889 51.3333 42.1111 47.3333 47.8C43.3333 53.4444 38.2222 57.0444 32 58.6ZM32 54.4667C37.1111 52.7778 41.2667 49.6 44.4667 44.9333C47.7111 40.2222 49.3333 34.9556 49.3333 29.1333V16.0667L32 9.53333L14.6667 16.0667V29.1333C14.6667 34.9556 16.2667 40.2222 19.4667 44.9333C22.7111 49.6 26.8889 52.7778 32 54.4667Z"/>
</svg>