<svg width="36" height="36" viewBox="0 0 36 36" fill="none" xmlns="http://www.w3.org/2000/svg">
<path d="M22.5 12C22.5 13.1046 21.6046 14 20.5 14C19.3954 14 18.5 13.1046 18.5 12C18.5 10.8954 19.3954 10 20.5 10C21.6046 10 22.5 10.8954 22.5 12Z" fill="black"/>
<path d="M13.5 18C13.5 19.3807 12.3807 20.5 11 20.5C9.61929 20.5 8.5 19.3807 8.5 18C8.5 16.6193 9.61929 15.5 11 15.5C12.3807 15.5 13.5 16.6193 13.5 18Z" fill="black"/>
<path d="M17 24C17 25.3807 15.8807 26.5 14.5 26.5C13.1193 26.5 12 25.3807 12 24C12 22.6193 13.1193 21.5 14.5 21.5C15.8807 21.5 17 22.6193 17 24Z" fill="black"/>
<path d="M21.5 26.5C22.8807 26.5 24 25.3807 24 24C24 22.6193 22.8807 21.5 21.5 21.5C20.1193 21.5 19 22.6193 19 24C19 25.3807 20.1193 26.5 21.5 26.5Z" fill="black"/>
<path d="M20.5 18C20.5 19.3807 19.3807 20.5 18 20.5C16.6193 20.5 15.5 19.3807 15.5 18C15.5 16.6193 16.6193 15.5 18 15.5C19.3807 15.5 20.5 16.6193 20.5 18Z" fill="black"/>
<path d="M25 20.5C26.3807 20.5 27.5 19.3807 27.5 18C27.5 16.6193 26.3807 15.5 25 15.5C23.6193 15.5 22.5 16.6193 22.5 18C22.5 19.3807 23.6193 20.5 25 20.5Z" fill="black"/>
<path d="M15.5 14C16.6046 14 17.5 13.1046 17.5 12C17.5 10.8954 16.6046 10 15.5 10C14.3954 10 13.5 10.8954 13.5 12C13.5 13.1046 14.3954 14 15.5 14Z" fill="black"/>
<path fill-rule="evenodd" clip-rule="evenodd" d="M26.97 5H9.03C5.37 7.74 3 12.09 3 17C3 25.28 9.72 32 18 32C26.28 32 33 25.28 33 17C33 12.09 30.63 7.74 26.97 5ZM18 29C11.37 29 6 23.63 6 17C6 13.41 7.58 10.2 10.08 8H25.92C28.42 10.2 30 13.41 30 17C30 23.63 24.63 29 18 29Z" fill="black"/>
<path d="M27.5 12C27.5 13.1046 26.6046 14 25.5 14C24.3954 14 23.5 13.1046 23.5 12C23.5 10.8954 24.3954 10 25.5 10C26.6046 10 27.5 10.8954 27.5 12Z" fill="black"/>
<path d="M10.5 14C11.6046 14 12.5 13.1046 12.5 12C12.5 10.8954 11.6046 10 10.5 10C9.39543 10 8.5 10.8954 8.5 12C8.5 13.1046 9.39543 14 10.5 14Z" fill="black"/>
</svg>
