<?xml version="1.0" encoding="utf-8"?>
<!-- Generator: Adobe Illustrator 23.0.4, SVG Export Plug-In . SVG Version: 6.00 Build 0)  -->
<svg version="1.1" id="Layer_1" xmlns="http://www.w3.org/2000/svg" xmlns:xlink="http://www.w3.org/1999/xlink" x="0px" y="0px"
	 width="36px" height="36px" viewBox="0 0 36 36" enable-background="new 0 0 36 36" xml:space="preserve">
<path d="M27,22.5h-3v3h3V22.5z M27,16.5h-3v3h3V16.5z M30,28.5H18v-3h3v-3h-3v-3h3v-3h-3v-3h12V28.5z M15,10.5h-3v-3h3V10.5z
	 M15,16.5h-3v-3h3V16.5z M15,22.5h-3v-3h3V22.5z M15,28.5h-3v-3h3V28.5z M9,10.5H6v-3h3V10.5z M9,16.5H6v-3h3V16.5z M9,22.5H6v-3h3
	V22.5z M9,28.5H6v-3h3V28.5z M18,10.5v-6H3v27h30v-21H18z"/>
</svg>
