<?xml version="1.0" encoding="utf-8"?>
<!-- Generator: Adobe Illustrator 23.0.4, SVG Export Plug-In . SVG Version: 6.00 Build 0)  -->
<svg version="1.1" id="Layer_1" xmlns="http://www.w3.org/2000/svg" xmlns:xlink="http://www.w3.org/1999/xlink" x="0px" y="0px"
	 width="36px" height="36px" viewBox="0 0 36 36" enable-background="new 0 0 36 36" xml:space="preserve">
<path d="M13.5,27l-6-6l6-6l2.11,2.11l-2.37,2.39h6.26v3h-6.26l2.37,2.39L13.5,27z M22.5,9l6,6l-6,6l-2.11-2.11l2.37-2.39H16.5v-3
	h6.25l-2.37-2.39L22.5,9z M18,30c6.61,0,12-5.39,12-12S24.61,6,18,6S6,11.39,6,18S11.39,30,18,30z M18,3c8.28,0,15,6.72,15,15
	s-6.72,15-15,15S3,26.28,3,18S9.72,3,18,3z"/>
</svg>
