<svg xmlns="http://www.w3.org/2000/svg" height="24" width="24"><path d="m6 10.95-1 .55q-.35.2-.75.1t-.6-.45l-2-3.5q-.2-.35-.1-.75T2 6.3L7.75 3H9.5q.225 0 .363.137.137.138.137.363V4q0 .825.588 1.412Q11.175 6 12 6t1.413-.588Q14 4.825 14 4v-.5q0-.225.137-.363Q14.275 3 14.5 3h1.75L22 6.3q.35.2.45.6.1.4-.1.75l-2 3.5q-.2.35-.587.437-.388.088-.763-.112l-1-.5V20q0 .425-.288.712Q17.425 21 17 21H7q-.425 0-.713-.288Q6 20.425 6 20ZM8 7.6V19h8V7.6l3.1 1.7 1.05-1.75-4.3-2.5q-.375 1.275-1.412 2.112Q13.4 8 12 8q-1.4 0-2.438-.838Q8.525 6.325 8.15 5.05l-4.3 2.5L4.9 9.3Zm4 4.425Z"/></svg>
