<svg width="36" height="36" viewBox="0 0 36 36" fill="none" xmlns="http://www.w3.org/2000/svg">
  <path d="M22.3775 11.5L24.5 13.6225L20.1225 18L24.5 22.3775L22.3775 24.5L18 20.1225L13.6225 24.5L11.5 22.3775L15.8775 18L11.5 13.6225L13.6225 11.5L18 15.8775L22.3775 11.5Z" fill="#3C4043"/>
  <path fill-rule="evenodd" clip-rule="evenodd" d="M18 3.5C9.99187 3.5 3.5 9.99187 3.5 18C3.5 26.0081 9.99187 32.5 18 32.5C26.0081 32.5 32.5 26.0081 32.5 18C32.5 9.99187 26.0081 3.5 18 3.5ZM6.5 18C6.5 11.6487 11.6487 6.5 18 6.5C24.3513 6.5 29.5 11.6487 29.5 18C29.5 24.3513 24.3513 29.5 18 29.5C11.6487 29.5 6.5 24.3513 6.5 18Z" fill="#3C4043"/>
</svg>
