<svg xmlns="http://www.w3.org/2000/svg" height="24px" viewBox="0 0 24 24" width="24px" fill="#FFFFFF"><path d="M0 0h24v24H0V0z" fill="none"/><path d="M12 7c2.21 0 4 1.79 4 4v1h1.5c1.38 0 2.5 1.12 2.5 2.5 0 .73-.32 1.39-.83 1.84l1.41 1.41c.87-.81 1.42-1.97 1.42-3.25 0-2.34-1.79-4.27-4.08-4.48C17.45 7.18 14.97 5 12 5c-1.17 0-2.28.35-3.22.95l1.46 1.46C10.78 7.15 11.38 7 12 7zm5 10L8.73 8.73 7.29 7.29 2.81 2.81 1.39 4.22l4.16 4.16C3.49 9.18 2 11.18 2 13.5 2 16.53 4.47 19 7.5 19h8.67l3.61 3.61 1.41-1.41-2.4-2.4L17 17zm-9.5 0C5.57 17 4 15.43 4 13.5c0-1.81 1.42-3.31 3.21-3.46L14.17 17H7.5z"/></svg>