<?xml version="1.0" encoding="utf-8"?>
<!-- Generator: Adobe Illustrator 23.0.4, SVG Export Plug-In . SVG Version: 6.00 Build 0)  -->
<svg version="1.1" id="Layer_1" xmlns="http://www.w3.org/2000/svg" xmlns:xlink="http://www.w3.org/1999/xlink" x="0px" y="0px"
	 width="36px" height="36px" viewBox="0 0 36 36" enable-background="new 0 0 36 36" xml:space="preserve">
<path d="M12,18c0-1.65-1.35-3-3-3s-3,1.35-3,3s1.35,3,3,3S12,19.65,12,18z M21,18c0-1.65-1.35-3-3-3s-3,1.35-3,3s1.35,3,3,3
	S21,19.65,21,18z M24,18c0,1.65,1.35,3,3,3s3-1.35,3-3s-1.35-3-3-3S24,16.35,24,18z"/>
</svg>
