<?xml version="1.0" encoding="utf-8"?>
<!-- Generator: Adobe Illustrator 23.0.4, SVG Export Plug-In . SVG Version: 6.00 Build 0)  -->
<svg version="1.1" id="Layer_1" xmlns="http://www.w3.org/2000/svg" xmlns:xlink="http://www.w3.org/1999/xlink" x="0px" y="0px"
	 width="36px" height="36px" viewBox="0 0 36 36" enable-background="new 0 0 36 36" xml:space="preserve">
<path d="M14.25,21c-3.73,0-6.75-3.01-6.75-6.75s3.02-6.75,6.75-6.75S21,10.51,21,14.25S17.99,21,14.25,21z M23.25,21h-1.18
	l-0.42-0.4c1.47-1.71,2.35-3.93,2.35-6.35c0-5.39-4.36-9.75-9.75-9.75S4.5,8.86,4.5,14.25S8.86,24,14.25,24
	c2.42,0,4.64-0.89,6.34-2.35L21,22.06v1.19l7.5,7.49l2.24-2.24L23.25,21z"/>
</svg>
