<?xml version="1.0" encoding="UTF-8"?>
<svg width="162px" height="58px" viewBox="0 0 162 58" version="1.1" xmlns="http://www.w3.org/2000/svg" xmlns:xlink="http://www.w3.org/1999/xlink" jetway-hooks="{}">
    <!-- Generator: Sketch 60 (88103) - https://sketch.com -->
    <title>Recent_icons (dark)</title>
    <desc>Created with Sketch.</desc>
    <g jetway-hook-id="9140F421-BA4C-43BB-B4CA-315AE8DE6F89" id="Recent_icons-(dark)" stroke="none" stroke-width="1" fill="none" fill-rule="evenodd">
        <g jetway-hook-id="43DC5DD6-EB1D-463E-B68F-477FCFBA8E15" id="heart">
            <path d="M29,0 C38.7377082,0 47.3544453,4.79944812 52.6137377,12.1618709 C49.682693,17.0916996 48,22.8493428 48,29 C48,35.1506572 49.682693,40.9083004 52.6128417,45.8376922 C47.3544453,53.2005519 38.7377082,58 29,58 C12.9837423,58 0,45.0162577 0,29 C0,12.9837423 12.9837423,0 29,0 Z" jetway-hook-id="8D427939-1A88-4ADB-BFB0-3B7CB5CAB8B2" id="Combined-Shape" fill="#0842a0"></path>
            <path d="M29.4,15.95 L17.8,24.65 L17.8,42.05 L41,42.05 L41,24.65 L29.4,15.95 Z M38.1,39.15 L33.75,39.15 L33.75,30.45 L25.05,30.45 L25.05,39.15 L20.7,39.15 L20.7,26.1 L29.4,19.575 L38.1,26.1 L38.1,39.15 Z" jetway-hook-id="69FEEB8C-1D49-4475-8918-BD8F9271B125" id="ic_home" fill="#D3E3FD" fill-rule="nonzero"></path>
        </g>
        <g jetway-hook-id="2B036F22-BA3B-4854-906B-0E5A75EB5E0E" id="star" transform="translate(109.000000, 0.000000)">
            <path d="M24,0 C40.0162577,0 53,12.9837423 53,29 C53,45.0162577 40.0162577,58 24,58 C14.2622918,58 5.64555473,53.2005519 0.386262306,45.8381291 C3.317307,40.9083004 5,35.1506572 5,29 C5,22.8493428 3.317307,17.0916996 0.387158338,12.1623078 C5.64555473,4.79944812 14.2622918,0 24,0 Z" jetway-hook-id="73C36E24-7864-4022-992A-8C85BEEADD92" id="Combined-Shape" fill="#0842a0"></path>
            <path d="M37,20.7 L31.2,20.7 L31.2,17.8 C31.2,16.1905 29.9095,14.9 28.3,14.9 L22.5,14.9 C20.8905,14.9 19.6,16.1905 19.6,17.8 L19.6,20.7 L13.8,20.7 C12.1905,20.7 10.9145,21.9905 10.9145,23.6 L10.9,39.55 C10.9,41.1595 12.1905,42.45 13.8,42.45 L37,42.45 C38.6095,42.45 39.9,41.1595 39.9,39.55 L39.9,23.6 C39.9,21.9905 38.6095,20.7 37,20.7 Z M22.5,17.8 L28.3,17.8 L28.3,20.7 L22.5,20.7 L22.5,17.8 Z M37,39.55 L13.8,39.55 L13.8,23.6 L37,23.6 L37,39.55 Z" jetway-hook-id="28236333-4EDD-4141-9B06-89FE464F71EF" id="ic_work_outline" fill="#D3E3FD"></path>
        </g>
        <g jetway-hook-id="E33B8A00-7574-4D0A-B4E8-90A421411F57" id="home" transform="translate(52.000000, 0.000000)">
            <circle jetway-hook-id="D3B91F4E-9C27-4650-9B39-BF72B429DB53" id="circle" fill="#444746" cx="29" cy="29" r="29"></circle>
            <path d="M29.3855,14.9 C21.3815,14.9 14.9,21.396 14.9,29.4 C14.9,37.404 21.3815,43.9 29.3855,43.9 C37.404,43.9 43.9,37.404 43.9,29.4 C43.9,21.396 37.404,14.9 29.3855,14.9 Z M29.4,41 C22.991,41 17.8,35.809 17.8,29.4 C17.8,22.991 22.991,17.8 29.4,17.8 C35.809,17.8 41,22.991 41,29.4 C41,35.809 35.809,41 29.4,41 Z M35.9105,35.722 L27.95,30.9515 L27.95,21.309 L30.85,21.309 L30.85,29.2985 L37.3895,33.228 L35.9105,35.722 Z" jetway-hook-id="D4F619F3-E30A-459C-9896-1DA9C0166051" id="Shape" fill="#C4C7C5"></path>
        </g>
    </g>
</svg>
