<svg width="48" height="48" viewBox="0 0 48 48" fill="none" xmlns="http://www.w3.org/2000/svg">
<g clip-path="url(#clip0_3_4)">
<path fill-rule="evenodd" clip-rule="evenodd" d="M24 48C37.2548 48 48 37.2548 48 24C48 10.7452 37.2548 0 24 0C10.7452 0 0 10.7452 0 24C0 37.2548 10.7452 48 24 48ZM29.1429 17.4774H31.7143C32.4857 17.4774 33 17.9156 33 18.5729V33.9095C33 34.5668 32.4857 35.005 31.7143 35.005H30.4286C30.4286 37.633 26.5714 37.6968 26.5714 35.005H21.4286C21.4286 37.633 17.5714 37.6968 17.5714 35.005H16.2857C15.5143 35.005 15 34.5668 15 33.9095V18.5729C15 17.9156 15.5143 17.4774 16.2857 17.4774H18.8571V13.0955C18.8571 12.4382 19.3714 12 20.1429 12H27.8571C28.6286 12 29.1429 12.4382 29.1429 13.0955V17.4774ZM26.5714 17.4774V14.191H21.4286V17.4774H26.5714Z" fill="black"/>
</g>
<defs>
<clipPath id="clip0_3_4">
<rect width="48" height="48" fill="white"/>
</clipPath>
</defs>
</svg>
