<svg width="32" height="47" viewBox="0 0 32 47" fill="none" xmlns="http://www.w3.org/2000/svg">
<path d="M16.0199 43.2001C15.7403 43.2001 15.6604 43.1201 15.1811 41.6401C14.7817 40.3601 14.1825 38.4001 12.6247 36.0001C11.1068 33.6401 9.50899 31.7201 7.9911 29.8801C4.43604 25.4801 1.59998 22.0401 1.59998 15.8401C1.63992 7.9601 8.07099 1.6001 16.0199 1.6001C23.9689 1.6001 30.4 8.0001 30.4 15.8401C30.4 22.0401 27.6039 25.5201 24.0089 29.9201C22.5309 31.7601 20.9731 33.6801 19.4552 36.0001C17.9373 38.3601 17.2982 40.2801 16.8987 41.5601C16.4194 43.1201 16.2996 43.2001 16.0199 43.2001Z" fill="#E8F0FE"/>
</svg>
