<?xml version="1.0" encoding="utf-8"?>
<!-- Generator: Adobe Illustrator 23.0.4, SVG Export Plug-In . SVG Version: 6.00 Build 0)  -->
<svg version="1.1" id="Layer_1" xmlns="http://www.w3.org/2000/svg" xmlns:xlink="http://www.w3.org/1999/xlink" x="0px" y="0px"
	 width="36px" height="36px" viewBox="0 0 36 36" enable-background="new 0 0 36 36" xml:space="preserve">
<path d="M30,9c1.67,0,3,1.33,3,3v16.5c0,1.67-1.33,3-3,3H6c-1.66,0-3-1.33-3-3L3.02,12c0-1.67,1.32-3,2.98-3h6V6c0-1.67,1.34-3,3-3
	h6c1.67,0,3,1.33,3,3v3H30z M6,12v16.5h24V12H6z M21,9V6h-6v3H21z"/>
</svg>
