<?xml version="1.0" encoding="utf-8"?>
<!-- Generator: Adobe Illustrator 23.0.4, SVG Export Plug-In . SVG Version: 6.00 Build 0)  -->
<svg version="1.1" id="Layer_1" xmlns="http://www.w3.org/2000/svg" xmlns:xlink="http://www.w3.org/1999/xlink" x="0px" y="0px"
	 width="36px" height="36px" viewBox="0 0 36 36" enable-background="new 0 0 36 36" xml:space="preserve">
<path d="M25.95,16.5c0,4.5-3.81,7.65-7.95,7.65S10.05,21,10.05,16.5H7.5c0,5.11,4.08,9.35,9,10.08v4.92h3v-4.92
	c4.92-0.72,9-4.95,9-10.08H25.95z M18,21c2.49,0,4.49-2.01,4.49-4.5l0.01-9C22.5,5.01,20.49,3,18,3s-4.5,2.01-4.5,4.5v9
	C13.5,18.99,15.51,21,18,21z"/>
</svg>
