<?xml version="1.0" encoding="utf-8"?>
<!-- Generator: Adobe Illustrator 23.0.4, SVG Export Plug-In . SVG Version: 6.00 Build 0)  -->
<svg version="1.1" id="Layer_1" xmlns="http://www.w3.org/2000/svg" xmlns:xlink="http://www.w3.org/1999/xlink" x="0px" y="0px"
	 width="36px" height="36px" viewBox="0 0 36 36" enable-background="new 0 0 36 36" xml:space="preserve">
<path d="M18,23.24c-2.9,0-5.25-2.35-5.25-5.25c0-2.9,2.35-5.25,5.25-5.25c2.9,0,5.25,2.35,5.25,5.25
	C23.24,20.89,20.89,23.24,18,23.24z M15.93,30.37h4.14l0.55-3.82l0.79-0.33c0.66-0.27,1.32-0.66,2.01-1.17l0.67-0.51l3.57,1.44
	l2.07-3.6L26.69,20l0.1-0.84c0.04-0.39,0.09-0.76,0.09-1.17s-0.04-0.79-0.09-1.17l-0.1-0.84l3.04-2.37l-2.08-3.6l-3.58,1.44
	l-0.67-0.52c-0.63-0.48-1.3-0.87-1.99-1.15l-0.78-0.33l-0.55-3.82h-4.14l-0.55,3.82l-0.79,0.31c-0.66,0.28-1.32,0.66-2.01,1.18
	l-0.67,0.49l-3.57-1.42L6.24,13.6l3.04,2.37l-0.1,0.84C9.13,17.2,9.09,17.61,9.09,18c0,0.39,0.03,0.79,0.09,1.17L9.28,20l-3.04,2.37
	l2.07,3.6l3.58-1.44l0.67,0.52c0.64,0.49,1.29,0.87,1.99,1.15l0.79,0.33L15.93,30.37z M20.77,33.37h-5.55
	c-1.11,0-2.04-0.81-2.17-1.9l-0.4-2.83c-0.4-0.21-0.79-0.43-1.18-0.69l-2.7,1.08c-1.05,0.39-2.2-0.04-2.71-0.97L3.3,23.29
	C2.78,22.3,3,21.13,3.84,20.47l2.29-1.78C6.12,18.46,6.1,18.24,6.1,18c0-0.22,0.01-0.46,0.03-0.69l-2.28-1.78
	c-0.88-0.67-1.11-1.89-0.55-2.82l2.77-4.78c0.51-0.93,1.66-1.35,2.68-0.94l2.71,1.09c0.39-0.25,0.78-0.48,1.17-0.69l0.4-2.86
	c0.13-1.05,1.06-1.87,2.16-1.87h5.55c1.11,0,2.04,0.81,2.17,1.9l0.4,2.83c0.4,0.21,0.79,0.43,1.18,0.69l2.7-1.08
	c1.06-0.39,2.22,0.04,2.73,0.97l2.76,4.77c0.54,0.99,0.3,2.16-0.54,2.82l-2.28,1.78c0.01,0.22,0.03,0.45,0.03,0.69
	c0,0.24-0.01,0.46-0.03,0.69l2.28,1.78c0.84,0.67,1.08,1.84,0.55,2.79l-2.79,4.83c-0.51,0.93-1.66,1.35-2.7,0.94l-2.7-1.08
	c-0.39,0.25-0.78,0.48-1.17,0.69l-0.4,2.86C22.81,32.56,21.88,33.37,20.77,33.37z"/>
</svg>
