<svg
   width="24"
   height="24"
   viewBox="0 0 24 24"
   xmlns="http://www.w3.org/2000/svg">
  <path
     d="m 16.400391,1 c -2.237798,0 -4.216658,1.112998 -5.410157,2.8164062 0.8355,0.09478 1.642451,0.2884297 2.40625,0.5683594 0.7864,-0.7351492 1.842508,-1.1855468 3.003907,-1.1855468 2.430097,-1e-7 4.40039,1.970343 4.40039,4.4003906 0,1.1614188 -0.450447,2.217547 -1.185547,3.0039066 0.2799,0.763799 0.47356,1.57075 0.56836,2.40625 C 21.886992,11.816267 23,9.8374171 23,7.5996094 23,3.954533 20.045487,1 16.400391,1 Z M 9.8007812,5.4003906 C 4.9406761,5.4003906 1,9.3391136 1,14.199219 1,19.059314 4.9406761,23 9.8007812,23 c 4.8600948,0 8.7988278,-3.940686 8.7988278,-8.800781 0,-4.8601054 -3.938733,-8.7988284 -8.7988278,-8.7988284 z m 0,2.1992188 c 3.6450968,0 6.5996098,2.9545126 6.5996098,6.5996096 0,3.645096 -2.954513,6.601562 -6.5996098,6.601562 -3.6450763,0 -6.6015624,-2.956466 -6.6015624,-6.601562 0,-3.645097 2.9564861,-6.5996096 6.6015624,-6.5996096 z M 10.900391,9.8007812 7.0507812,10.900391 v 1.65039 h 1.6484376 v 6.048828 h 2.2011722 z" />
</svg>
