<svg xmlns="http://www.w3.org/2000/svg" width="36px" height="36px" viewBox="0 0 36 36">
<path d="M18,4C9.97,4,2,6.07,2,13.8C2,21.53,4.91,32,18,32s16-10.47,16-18.2C34,6.07,26.03,4,18,4z M27,9c1.65,0,3,1.35,3,3 s-1.35,3-3,3s-3-1.35-3-3S25.35,9,27,9z M12,12c0,1.65-1.35,3-3,3s-3-1.35-3-3s1.35-3,3-3S12,10.35,12,12z M18,29 C8.67,29,5.74,22.77,5.14,16.59C6.18,17.47,7.53,18,9,18c3.31,0,6-2.69,6-6c0-1.87-0.86-3.54-2.2-4.64C14.32,7.12,16.04,7,18,7 s3.68,0.12,5.2,0.36C21.86,8.46,21,10.13,21,12c0,3.31,2.69,6,6,6c1.47,0,2.82-0.53,3.86-1.41C30.26,22.77,27.33,29,18,29z"/>
<circle cx="18" cy="24" r="3"/>
<circle cx="25" cy="24" r="2"/>
<circle cx="11" cy="24" r="2"/>
</svg>
