<svg width="32" height="32" viewBox="0 0 32 32" fill="none" xmlns="http://www.w3.org/2000/svg">
<path fill-rule="evenodd" clip-rule="evenodd" d="M19.97 6.00001C20.6012 6.00001 21.1773 6.35471 21.4597 6.91934C22.2218 8.44374 23.7237 11.4473 24.3333 12.6667H25.1667C25.6268 12.6667 26 13.0398 26 13.5C26 13.9602 25.6268 14.3333 25.1667 14.3333H24.3333V19.3333C24.3333 20.2538 23.5872 21 22.6667 21C21.7462 21 21 20.2538 21 19.3333V18.0833H11V19.3333C11 20.2538 10.2538 21 9.33333 21C8.41287 21 7.66667 20.2538 7.66667 19.3333V14.3333H6.83333C6.3731 14.3333 6 13.9602 6 13.5C6 13.0398 6.3731 12.6667 6.83333 12.6667H7.66667L10.5393 6.92132C10.8217 6.35667 11.3988 6.00001 12.03 6.00001H19.97ZM20.1667 7.66666H11.8333L9.33333 12.6667H22.6667L20.1667 7.66666Z" fill="#0000FF"/>
<path d="M7.66666 23.9158C7.66666 23.4558 8.41286 22.6667 9.33332 22.6667C10.2538 22.6667 11 23.0395 11 23.4995C11 23.9593 10.2538 24.3322 9.33332 24.3322C8.41286 24.3322 7.66666 24.3758 7.66666 23.9158Z" fill="#0000FF"/>
<path d="M12.6667 22.2492C12.6667 21.7892 13.4128 21 14.3333 21C15.2538 21 16 21.3728 16 21.8328C16 22.2927 15.2538 22.6655 14.3333 22.6655C13.4128 22.6655 12.6667 22.7092 12.6667 22.2492Z" fill="#0000FF"/>
<path d="M16 23.9158C16 23.4558 16.7462 22.6667 17.6667 22.6667C18.5872 22.6667 19.3333 23.0395 19.3333 23.4995C19.3333 23.9593 18.5872 24.3322 17.6667 24.3322C16.7462 24.3322 16 24.3758 16 23.9158Z" fill="#0000FF"/>
<path d="M21 23.9158C21 23.4558 21.7462 22.6667 22.6667 22.6667C23.5872 22.6667 24.3333 23.0395 24.3333 23.4995C24.3333 23.9593 23.5872 24.3322 22.6667 24.3322C21.7462 24.3322 21 24.3758 21 23.9158Z" fill="#0000FF"/>
<path d="M11 25.5825C11 25.1225 11.7462 24.3333 12.6667 24.3333C13.5872 24.3333 14.3333 24.7062 14.3333 25.1662C14.3333 25.626 13.5872 25.9988 12.6667 25.9988C11.7462 25.9988 11 26.0425 11 25.5825Z" fill="#0000FF"/>
</svg>
