<?xml version="1.0" encoding="utf-8"?>
<!-- Generator: Adobe Illustrator 23.0.4, SVG Export Plug-In . SVG Version: 6.00 Build 0)  -->
<svg version="1.1" id="Layer_1" xmlns="http://www.w3.org/2000/svg" xmlns:xlink="http://www.w3.org/1999/xlink" x="0px" y="0px"
	 width="36px" height="36px" viewBox="0 0 36 36" enable-background="new 0 0 36 36" xml:space="preserve">
<path d="M9.94,16.19c2.16,4.25,5.63,7.72,9.89,9.88l3.3-3.31c0.41-0.41,1.01-0.53,1.52-0.37c1.68,0.56,3.49,0.85,5.35,0.85
	c0.83,0,1.5,0.67,1.5,1.5V30c0,0.83-0.67,1.5-1.5,1.5C15.91,31.5,4.5,20.08,4.5,6c0-0.83,0.68-1.5,1.5-1.5h5.25
	c0.83,0,1.5,0.67,1.5,1.5c0,1.87,0.3,3.67,0.85,5.35c0.17,0.52,0.05,1.11-0.37,1.52L9.94,16.19z"/>
</svg>
