<svg width="36" height="36" viewBox="0 0 36 36" xmlns="http://www.w3.org/2000/svg">
<path d="M5.73999 5.7533L3.85335 7.62665L7.84094 11.6142C6.67458 13.463 6 15.6525 6 18C6 23.7067 9.98666 28.48 15.3333 29.6933V26.9467C11.48 25.8 8.66666 22.2267 8.66666 18C8.66666 16.3937 9.07297 14.8818 9.78828 13.5616L12.3122 16.0855C12.1098 16.6859 12 17.3295 12 18C12 20.36 13.36 22.3867 15.3333 23.36V19.1067L18 21.7733V28.6667L21.4467 25.22L28.3733 32.1467L30.2533 30.2667L5.73999 5.7533Z" />
<path d="M25.7501 22H30V14H24.6667L18 7.33331V14.2456L20.6667 16.9138V13.7733L23.56 16.6666H27.3333V19.3333H23.56L23.3224 19.5709L25.7501 22Z" />
<path d="M13.5506 9.79379C14.1125 9.48834 14.7093 9.23901 15.3333 9.05331V6.30664C13.9922 6.61099 12.7366 7.13933 11.6081 7.85021L13.5506 9.79379Z" />
</svg>
