<?xml version="1.0" encoding="utf-8"?>
<svg width="36" height="36" viewBox="0 0 36 36" xmlns="http://www.w3.org/2000/svg">
<path d="M27.3333 18C27.3333 13.7778 24.5156 10.2044 20.6667 9.04888V6.30221C26.0089 7.51999 30 12.2933 30 18C30 20.3467 29.3244 22.5333 28.16 24.3911L26.2133 22.4444C26.9156 21.12 27.3333 19.6 27.3333 18ZM24 18C24 18.6667 23.8756 19.3067 23.68 19.9111L20.6667 16.8889V12.6222C22.64 13.6178 24 15.6355 24 18ZM18 7.33332V14.2222L14.5422 10.7822L18 7.33332ZM15.3333 22.2311L12.4356 19.3333H8.66666V16.6667H12.8978L15.3333 19.1111V22.2311ZM5.75111 5.7511L3.85777 7.62665L10.2311 14H6V22H11.3333L18 28.6667V21.7689L22.4267 26.1955C21.8667 26.4978 21.2978 26.7555 20.6667 26.9422V29.6889C22 29.3778 23.2444 28.8355 24.3644 28.1244L28.3733 32.1422L30.2489 30.2578L5.75111 5.7511Z" />
</svg>

