<?xml version="1.0" encoding="utf-8"?>
<!-- Generator: Adobe Illustrator 23.0.4, SVG Export Plug-In . SVG Version: 6.00 Build 0)  -->
<svg version="1.1" id="Layer_1" xmlns="http://www.w3.org/2000/svg" xmlns:xlink="http://www.w3.org/1999/xlink" x="0px" y="0px"
	 width="36px" height="36px" viewBox="0 0 36 36" enable-background="new 0 0 36 36" xml:space="preserve">
<path d="M27.42,9H9.65l3.33,7.5h10.14h0.01L27.42,9z M21.89,19.5v0.01h-8.95l-1.5,3H28.5v3H11.41c-1.05,0-1.99-0.52-2.55-1.42
	c-0.55-0.9-0.6-1.99-0.14-2.92l1.61-3.2L5.03,6H1.5V3h5.47l1.34,3h20.4c0.8,0,1.55,0.43,1.95,1.11c0.39,0.69,0.39,1.56,0,2.25
	l-4.92,8.62c-0.54,0.93-1.53,1.51-2.61,1.51H21.89z M25.5,33c-1.66,0-3-1.34-3-3s1.34-3,3-3s3,1.34,3,3S27.16,33,25.5,33z M10.5,33
	c-1.66,0-3-1.34-3-3s1.34-3,3-3c1.66,0,3,1.34,3,3S12.16,33,10.5,33z"/>
</svg>
