<svg width="48" height="50" viewBox="0 0 48 50" xmlns="http://www.w3.org/2000/svg">
<path d="M 5.4492188 1.7988281 L 2.0996094 3.734375 L 5.6367188 9.859375 L 3.6835938 9.859375 L 3.6835938 13.900391 L 7.96875 13.900391 L 11.46875 19.960938 L 3.6835938 19.960938 L 3.6835938 32.083984 C 3.6835938 33.767683 4.2726031 35.198354 5.4511719 36.376953 C 6.6297507 37.555452 8.0604723 38.144531 9.7441406 38.144531 L 12.167969 38.144531 C 12.605768 39.35683 13.329645 40.333419 14.339844 41.074219 C 15.383743 41.815018 16.546673 42.185547 17.826172 42.185547 C 19.105771 42.185547 20.266748 41.815018 21.310547 41.074219 C 21.908546 40.649919 22.401063 40.149212 22.789062 39.570312 L 28.806641 49.990234 L 32.15625 48.056641 L 5.4492188 1.7988281 z M 15.230469 9.859375 L 19.845703 17.855469 L 19.845703 13.900391 L 29.947266 13.900391 L 29.947266 19.960938 L 21.0625 19.960938 L 23.394531 24.001953 L 23.482422 24.001953 L 29.947266 24.001953 L 29.947266 34.105469 L 29.228516 34.105469 L 31.560547 38.144531 L 38.433594 38.144531 L 36.210938 40.367188 L 39.039062 43.197266 L 46.111328 36.125 L 39.039062 29.052734 L 36.210938 31.982422 L 38.332031 34.105469 L 33.988281 34.105469 L 33.988281 13.900391 C 33.988281 12.789192 33.585443 11.846665 32.777344 11.072266 C 32.002845 10.264066 31.058465 9.859375 29.947266 9.859375 L 15.230469 9.859375 z M 7.7226562 24.001953 L 8.2792969 24.001953 L 9.7441406 24.001953 L 12.167969 24.001953 L 13.802734 24.001953 L 17.3125 30.083984 C 16.233501 30.170584 15.242643 30.535182 14.339844 31.175781 C 13.329645 31.916581 12.605768 32.89327 12.167969 34.105469 L 9.7441406 34.105469 C 9.1716912 34.105469 8.6833765 33.919228 8.2792969 33.548828 C 7.9088872 33.144729 7.7226562 32.656484 7.7226562 32.083984 L 7.7226562 24.001953 z M 17.826172 34.105469 C 18.398671 34.105469 18.869835 34.306938 19.240234 34.710938 C 19.644334 35.081337 19.845703 35.552601 19.845703 36.125 C 19.845703 36.697499 19.644334 37.185744 19.240234 37.589844 C 18.869835 37.960243 18.398671 38.144531 17.826172 38.144531 C 17.253772 38.144531 16.765428 37.960243 16.361328 37.589844 C 15.990928 37.185744 15.804688 36.697499 15.804688 36.125 C 15.804688 35.552601 15.990928 35.081337 16.361328 34.710938 C 16.765428 34.306938 17.253772 34.105469 17.826172 34.105469 z " />
</svg>
