<?xml version="1.0" encoding="utf-8"?>
<!-- Generator: Adobe Illustrator 30.0.0, SVG Export Plug-In . SVG Version: 9.03 Build 0)  -->
<svg version="1.1" baseProfile="basic" id="Layer_1"
	 xmlns="http://www.w3.org/2000/svg" xmlns:xlink="http://www.w3.org/1999/xlink" x="0px" y="0px" width="152px" height="114px"
	 viewBox="0 0 152 114" xml:space="preserve">
<g>
	<path fill="#DEF5FF" d="M0,0v114h152V0H0z"/>
	
		<rect x="43.03" y="73.41" transform="matrix(0.5423 -0.8402 0.8402 0.5423 -39.4982 91.022)" fill="#06B0FF" width="41.52" height="16.71"/>
	<circle fill="#64BEFF" cx="83.42" cy="51.23" r="18.64"/>
	<path fill="#9CDAFF" d="M52.4,0h41.32v16.41c0,2.88-2.34,5.22-5.22,5.22H57.62c-2.88,0-5.22-2.34-5.22-5.22L52.4,0L52.4,0L52.4,0z"
		/>
	<path fill="#06B0FF" d="M152,37.95v23.39h-11.22c-19.19,0-34.76-15.56-34.76-34.76V0h23.54v26.95h-0.01c0,6.07,4.93,11,11,11H152z"
		/>
	<path fill="#64BEFF" d="M152,0v5.82c-1.02-1.44-1.73-2.44-1.93-2.71C149.03,1.67,148.58,0,148.58,0H152z"/>
	<path fill="#06B0FF" d="M45.6,25.61C41.7,18.1,35,12.44,26.92,9.88c-3.13-0.97-6.38-1.45-9.62-1.45c-3.25,0-6.49,0.48-9.63,1.45
		C4.94,10.75,2.36,11.97,0,13.5v58.85c2.76,3.47,5.66,7.19,8.43,11.53c6.47,10.02,4.66,16.01,8.84,16.01h0.03c0.01,0,0.01,0,0.02,0
		c4.19,0,2.38-5.99,8.84-16.01c10.65-16.64,23.05-24.2,23.05-43.59C49.21,35.16,47.98,30.12,45.6,25.61z M17.28,52.51
		c-6.73,0-12.19-5.46-12.19-12.19c0-6.73,5.46-12.19,12.19-12.19c6.73,0,12.19,5.46,12.19,12.19
		C29.47,47.05,24.01,52.51,17.28,52.51z"/>
	<path fill="#64BEFF" d="M43.98,93.48c-10.29,0-18.64,8.35-18.64,18.64c0,0.64,0.03,1.26,0.09,1.88h37.09
		c0.06-0.62,0.1-1.25,0.1-1.88C62.62,101.82,54.27,93.48,43.98,93.48L43.98,93.48z"/>
	<path fill="#9CDAFF" d="M113.39,72.4c-19.75,0-35.76,16.01-35.76,35.76c0,1.99,0.17,3.93,0.48,5.83h70.58
		c0.31-1.9,0.48-3.85,0.48-5.83C149.16,88.42,133.15,72.4,113.39,72.4L113.39,72.4z"/>
</g>
<rect fill="none" width="152" height="114"/>
</svg>
