<svg width="16" height="16" viewBox="0 0 16 16" fill="none" xmlns="http://www.w3.org/2000/svg">
<path d="M8 16C12.4183 16 16 12.4183 16 8C16 3.58172 12.4183 0 8 0C3.58172 0 0 3.58172 0 8C0 12.4183 3.58172 16 8 16Z" fill="#1A73E8"/>
<path d="M9 2H7V4H9V2Z" fill="white"/>
<path d="M9 12H7V14H9V12Z" fill="white"/>
<path d="M8 13C4.8 13 4 11 4 10H6H5H6C6 10.2 6.2 11 8 11C9.8 11 10 10.1 10 10C10 9.9 9.8 9 8 9C4.8 9 4 7 4 6C4 5 4.8 3 8 3C11.2 3 12 5 12 6H10C10 5.9 9.8 5 8 5C6.2 5 6 5.9 6 6C6 6.1 6.2 7 8 7C11.2 7 12 9 12 10C12 11 11.1 13 8 13Z" fill="white"/>
</svg>
