<?xml version="1.0" encoding="utf-8"?>
<!-- Generator: Adobe Illustrator 30.0.0, SVG Export Plug-In . SVG Version: 9.03 Build 0)  -->
<svg version="1.1" baseProfile="basic" id="Layer_1"
	 xmlns="http://www.w3.org/2000/svg" xmlns:xlink="http://www.w3.org/1999/xlink" x="0px" y="0px" width="304px" height="89px"
	 viewBox="0 0 304 89" xml:space="preserve">
<g>
	<g id="Items_00000086659484846871281480000006924842790737867952_">
		<path fill="#30378F" d="M96.71,70.17c4.23-8.13,5.82-6.35-0.58-8.12c-0.32-0.09-0.72,0.09-0.89,0.38l-4.86,8.42
			c-0.53,0.98,0.33,1.43,1.16,1.56c0.64,0.17,0.88,0.8,0.54,1.39l-3.67,6.36c-0.17,0.3-0.05,0.61,0.27,0.69l3.99,1.07
			c0.32,0.09,0.72-0.09,0.89-0.38l4.86-8.42c0.53-0.98-0.33-1.43-1.16-1.56C96.6,71.39,96.36,70.77,96.71,70.17L96.71,70.17z"/>
		<path fill="#394EBD" d="M214.77,27.82l-1.71-6.39c-0.19-0.69-0.82-0.98-1.43-0.63l-0.47,0.27c-0.6,0.35-1.24,0.07-1.43-0.63
			l-1.86-6.94c-0.1-0.39-0.46-0.54-0.79-0.35l-3.4,1.96c-0.33,0.19-0.52,0.66-0.42,1.05l2.48,9.24c0.19,0.69,0.82,0.98,1.43,0.63
			l0.47-0.27c0.6-0.35,1.24-0.07,1.43,0.63l1.71,6.39c0.19,0.69,0.82,0.98,1.43,0.63l0.47-0.27c0.6-0.35,1.24-0.07,1.43,0.63
			l1.86,6.94c0.1,0.39,0.46,0.54,0.79,0.35l3.4-1.96c0.33-0.19,0.52-0.66,0.42-1.05l-2.48-9.24c-0.19-0.69-0.82-0.98-1.43-0.63
			l-0.47,0.27C215.59,28.79,214.95,28.51,214.77,27.82L214.77,27.82z"/>
		<g>
			<path fill="#FFD4F8" d="M100.52,40.93l43.16-24.92c4.55-2.63,10.38-1.07,13.01,3.49l0,0c2.63,4.55,1.07,10.38-3.49,13.01
				l-43.16,24.92c-4.55,2.63-10.38,1.07-13.01-3.49l0,0C94.41,49.39,95.97,43.56,100.52,40.93z"/>
			<g>
				<path fill="#4285F4" d="M104.96,43.78l2.31,1.76l2.63-1.24c0.36-0.17,0.75,0.18,0.62,0.56l-0.96,2.74l1.99,2.12
					c0.27,0.29,0.06,0.77-0.34,0.76l-2.91-0.06l-1.4,2.55c-0.19,0.35-0.71,0.3-0.83-0.09l-0.84-2.78l-2.86-0.54
					c-0.39-0.07-0.5-0.58-0.17-0.81l2.39-1.66l-0.37-2.88C104.2,43.8,104.65,43.54,104.96,43.78L104.96,43.78z"/>
				<path fill="#4285F4" d="M114.89,38.06l2.31,1.76l2.63-1.24c0.36-0.17,0.75,0.18,0.62,0.56l-0.96,2.74l1.99,2.12
					c0.27,0.29,0.06,0.77-0.34,0.76l-2.91-0.06l-1.4,2.55c-0.19,0.35-0.71,0.3-0.83-0.09l-0.84-2.78l-2.86-0.54
					c-0.39-0.07-0.5-0.58-0.17-0.81l2.39-1.66l-0.37-2.88C114.12,38.08,114.57,37.82,114.89,38.06L114.89,38.06z"/>
				<path fill="#4285F4" d="M124.81,32.33l2.31,1.76l2.63-1.24c0.36-0.17,0.75,0.18,0.62,0.56l-0.96,2.74l1.99,2.12
					c0.27,0.29,0.06,0.77-0.34,0.76l-2.91-0.06l-1.4,2.55c-0.19,0.35-0.71,0.3-0.83-0.09l-0.84-2.78l-2.86-0.54
					c-0.39-0.07-0.5-0.58-0.17-0.81l2.39-1.66l-0.37-2.88C124.04,32.35,124.49,32.09,124.81,32.33L124.81,32.33z"/>
				<path fill="#4285F4" d="M134.73,26.6l2.31,1.76l2.63-1.24c0.36-0.17,0.75,0.18,0.62,0.56l-0.96,2.74l1.99,2.12
					c0.27,0.29,0.06,0.77-0.34,0.76l-2.91-0.06l-1.4,2.55c-0.19,0.35-0.71,0.3-0.83-0.09l-0.84-2.78l-2.86-0.54
					c-0.39-0.07-0.5-0.58-0.17-0.81l2.39-1.66l-0.37-2.88C133.96,26.62,134.41,26.36,134.73,26.6L134.73,26.6z"/>
				<path fill="#4285F4" d="M144.65,20.87l2.31,1.76l2.63-1.24c0.36-0.17,0.75,0.18,0.62,0.56l-0.96,2.74l1.99,2.12
					c0.27,0.29,0.06,0.77-0.34,0.76L148,27.5l-1.4,2.55c-0.19,0.35-0.71,0.3-0.83-0.09l-0.84-2.78l-2.86-0.54
					c-0.39-0.07-0.5-0.58-0.17-0.81l2.39-1.66l-0.37-2.88C143.88,20.89,144.33,20.63,144.65,20.87L144.65,20.87z"/>
			</g>
		</g>
		<path fill="#30378F" d="M165.68,27.19l2.17,2.3c0.24,0.25,0.35,0.6,0.31,0.95c-0.34,2.39-2.3,4.25-4.71,4.44
			c-0.35,0.03-0.69-0.11-0.93-0.36l-2.17-2.3c-0.25-0.26-0.1-0.7,0.26-0.76c2.13-0.32,3.86-1.94,4.3-4.05
			C164.99,27.05,165.43,26.93,165.68,27.19L165.68,27.19z"/>
		<path fill="#717C1E" d="M134.81,10.11v3.16c0,0.35-0.15,0.68-0.43,0.9c-1.89,1.51-4.59,1.51-6.47,0c-0.27-0.22-0.43-0.55-0.43-0.9
			v-3.16c0-0.36,0.41-0.58,0.71-0.37c1.77,1.23,4.14,1.23,5.91,0C134.4,9.53,134.81,9.75,134.81,10.11L134.81,10.11z"/>
		<path fill="#4667EF" d="M205.72,69.31l-2.17,2.3c-0.24,0.25-0.35,0.6-0.31,0.95c0.34,2.39,2.3,4.25,4.71,4.44
			c0.35,0.03,0.69-0.11,0.93-0.36l2.17-2.3c0.25-0.26,0.1-0.7-0.26-0.76c-2.13-0.32-3.86-1.94-4.3-4.05
			C206.41,69.17,205.97,69.05,205.72,69.31L205.72,69.31z"/>
		<path fill="#4667EF" d="M85.9,33.1l-2.17,2.3c-0.24,0.25-0.35,0.6-0.31,0.95c0.34,2.39,2.3,4.25,4.71,4.44
			c0.35,0.03,0.69-0.11,0.93-0.36l2.17-2.3c0.25-0.26,0.1-0.7-0.26-0.76c-2.13-0.32-3.86-1.94-4.3-4.05
			C86.59,32.96,86.15,32.84,85.9,33.1L85.9,33.1z"/>
		<g>
			<path fill="#30378F" d="M112.78,9.59l-21.16,5.67c-1.1,0.3-1.76,1.43-1.46,2.53l3.3,12.32c0.3,1.1,1.43,1.76,2.53,1.46l8.68-2.33
				c0.66-0.18,1.33,0.21,1.51,0.87l0.32,1.2c0.1,0.39,0.49,0.65,0.89,0.55c0.41-0.1,0.65-0.51,0.54-0.9l-0.33-1.23
				c-0.18-0.66,0.21-1.33,0.87-1.51l8.68-2.33c1.1-0.3,1.76-1.43,1.46-2.53l-3.3-12.32C115.02,9.95,113.89,9.29,112.78,9.59
				L112.78,9.59z"/>
			<g>
				
					<rect x="93.8" y="19.29" transform="matrix(0.9659 -0.2588 0.2588 0.9659 -1.735 27.7042)" fill="#394EBD" width="21.1" height="2.31"/>
				
					<rect x="92.75" y="15.39" transform="matrix(0.9659 -0.2588 0.2588 0.9659 -0.7618 27.3011)" fill="#394EBD" width="21.1" height="2.31"/>
				
					<rect x="94.98" y="24.23" transform="matrix(0.9659 -0.2588 0.2588 0.9659 -3.1131 27.1299)" fill="#394EBD" width="13" height="2.31"/>
			</g>
		</g>
		<path fill-rule="evenodd" clip-rule="evenodd" fill="#6B4FF7" d="M118.57,58.93c-3.14,0.84-5.05,3.61-4.34,6.27
			c0.88,3.28,5.07,5.04,11.42,7.69l0.01,0c1.04,0.44,2.25,0.12,2.93-0.77l0,0c4.17-5.49,6.93-9.09,6.04-12.39
			c-0.71-2.66-3.75-4.1-6.89-3.26c-1.67,0.45-3.15,1.69-3.78,3.54c-0.05,0.16-0.25,0.21-0.38,0.1
			C122.14,58.81,120.24,58.48,118.57,58.93L118.57,58.93z"/>
		<path fill="#FF4365" d="M206.54,45.8c-0.93-4.21-3.48-7.88-7.12-10.2l0,0c-5.42-3.49-12.82-3.37-18.08,0.4l0,0
			c-10.27,7.62-7.55,18.92-2.4,29.09l0,0c0.57,1.43,1.13,2.91,1.65,4.5c1.86,5.76,0.18,8.5,2.24,9.05c2.06,0.55,1.96-2.63,6.46-6.72
			C198.48,64.31,209.18,58.88,206.54,45.8L206.54,45.8z M191.76,55.43c-6.51,1.1-10.04-7.38-4.65-11.2l0,0
			c6.87-4.51,13.74,5.22,7.15,10.16l0.06-0.03C193.56,54.9,192.69,55.31,191.76,55.43L191.76,55.43z"/>
		<g>
			<g>
				<path fill="#717C1E" d="M188.45,19.88h-4.1c-0.75,0-1.35,0.61-1.35,1.35c0,0.75,0.61,1.35,1.35,1.35h4.1
					c0.75,0,1.35-0.61,1.35-1.35S189.2,19.88,188.45,19.88z"/>
				<path fill="#717C1E" d="M184.35,24.27h1.08c0.75,0,1.35,0.61,1.35,1.35l0,0c0,0.75-0.61,1.35-1.35,1.35h-1.08
					c-0.75,0-1.35-0.61-1.35-1.35l0,0C182.99,24.88,183.6,24.27,184.35,24.27z"/>
				<path fill="#717C1E" d="M184.35,11.1c-1.77,0.01-1.77,2.7,0,2.71h4.1c1.77-0.01,1.77-2.7,0-2.71H184.35z"/>
				<path fill="#717C1E" d="M190.56,16.85c0-0.75-0.61-1.35-1.35-1.35h-4.86c-0.75,0-1.35,0.61-1.35,1.35
					c0,0.75,0.61,1.35,1.35,1.35h4.86C189.96,18.2,190.56,17.6,190.56,16.85z"/>
			</g>
			<path fill="#717C1E" d="M181.62,25.63c0-0.76,0.31-1.44,0.81-1.93c0.15-0.14,0.15-0.38,0-0.52c-1.06-0.97-1.06-2.9,0-3.87
				c0.48-0.44-0.91-1.08-0.81-2.45c-0.1-1.39,1.28-2,0.81-2.45c-1.62-1.58-0.07-3.22-1-3.29c-1.15,0-2.9-0.28-2.96,1.38
				c0.14,1.83-0.38,3.73-1.9,4.88c-0.33,0.34-0.9,0.38-1.21-0.02l0,0c-0.82-1.15,1.65-1.4,1.58-3.91l0-1.76
				c0-0.37,0.15-0.72,0.41-0.98c1.59-2.03,6.94-5.06,4.07-8.05l0,0c-0.2-0.2-0.52-0.2-0.72,0l-3.41,3.38
				c-0.94,0.94-2.14,1.6-3.45,1.88c-4.36,0.93-7.63,4.8-7.63,9.43c-0.03,5.78,5.05,10.14,10.74,9.64h2.27h2.22
				C182.13,26.88,181.53,26.08,181.62,25.63L181.62,25.63z"/>
		</g>
	</g>
	<g id="Person_00000065774048144821004300000007295274396852931503_">
		<path fill="#30378F" d="M154.89,45.67c0.3-0.53,1.09-1.86-0.46-2.66c-0.09-0.13-0.19-0.3-0.32-0.53l0,0l0,0v0
			c-0.43-0.8-1.2-1.34-2.09-1.34l0,0l0,0c-0.88,0-1.66,0.54-2.09,1.34v0h0l0,0c-0.12,0.23-0.22,0.4-0.32,0.53
			c-1.54,0.81-0.76,2.14-0.46,2.66l1.01,0.24v0.46l-0.37,0.03l0.03,0.73c0.19,0.17,0.84,0.27,1.06,0.81
			c0.14,0.33,0.33-0.12,0.46-0.52v0.81c0.11-0.05,0.18-0.12,0.22-0.2c0.15,0.01,0.3,0.01,0.45,0.01l0,0l0,0l0,0l0,0l0,0l0,0l0,0
			c0.15,0,0.29,0,0.45-0.01c0.05,0.07,0.12,0.14,0.22,0.2v-0.8c0.13,0.4,0.32,0.84,0.46,0.52c0.22-0.53,0.87-0.64,1.06-0.81
			l0.03-0.73l-0.44-0.04v-0.43L154.89,45.67L154.89,45.67z"/>
		<g>
			<path fill="#F09790" d="M141.29,40.77c-0.28-0.5-0.36-1.25-0.28-1.92h0c0.01-0.04,0.01-0.07,0.01-0.11c0-0.37-0.3-0.67-0.67-0.67
				c-0.27,0-0.51,0.17-0.61,0.4l0,0c0,0,0,0,0,0c0,0,0,0.01,0,0.01c-0.21,0.51,0.02,1.01-0.07,1.55c-0.01,0.07-0.11,0.09-0.14,0.03
				c-0.48-0.77-1.59-1.94-2.17-2.17c-0.01,0-0.01,0-0.02-0.01c-0.02-0.01-0.05-0.02-0.07-0.02l0,0c-0.06-0.02-0.11-0.03-0.18-0.03
				c-0.29,0-0.53,0.19-0.63,0.45c-0.07-0.02-0.14-0.04-0.22-0.04c-0.37,0-0.67,0.3-0.67,0.67c0,0.06,0.01,0.11,0.02,0.16
				c-0.25,0.1-0.43,0.34-0.43,0.62c0,0.06,0.01,0.12,0.03,0.18c-0.2,0.12-0.33,0.33-0.33,0.57c0,0.28,0.18,0.52,0.42,0.62l0,0
				c0.5,0.18,1.11,0.54,1.58,1.37c0.47,0.84,1.06,2.02,2.69,2.27l2.07-1.75C141.88,41.7,141.57,41.27,141.29,40.77L141.29,40.77z"/>
			<path fill="#F09790" d="M162.77,40.77c0.28-0.5,0.36-1.25,0.28-1.92h0c-0.01-0.04-0.01-0.07-0.01-0.11c0-0.37,0.3-0.67,0.67-0.67
				c0.27,0,0.51,0.17,0.61,0.4l0,0c0,0,0,0,0,0c0,0,0,0.01,0,0.01c0.21,0.51-0.02,1.01,0.07,1.55c0.01,0.07,0.11,0.09,0.14,0.03
				c0.48-0.77,1.59-1.94,2.17-2.17c0.01,0,0.01,0,0.02-0.01c0.02-0.01,0.05-0.02,0.07-0.02l0,0c0.06-0.02,0.11-0.03,0.18-0.03
				c0.29,0,0.53,0.19,0.63,0.45c0.07-0.02,0.14-0.04,0.22-0.04c0.37,0,0.67,0.3,0.67,0.67c0,0.06-0.01,0.11-0.02,0.16
				c0.25,0.1,0.43,0.34,0.43,0.62c0,0.06-0.01,0.12-0.03,0.18c0.2,0.12,0.33,0.33,0.33,0.57c0,0.28-0.18,0.52-0.42,0.62l0,0
				c-0.5,0.18-1.11,0.54-1.58,1.37c-0.47,0.84-1.06,2.02-2.69,2.27l-2.07-1.75C162.19,41.7,162.49,41.27,162.77,40.77L162.77,40.77z
				"/>
		</g>
		<rect x="150.61" y="49.42" fill="#F09790" width="2.97" height="2.56"/>
		<path fill="#F09790" d="M154.9,45.25c-0.07-0.04-0.15-0.06-0.23-0.06c0.01-0.07,0.01-0.15,0.01-0.22c0-1.46-1.18-2.64-2.64-2.64
			c-1.46,0-2.64,1.18-2.64,2.64c0,0.07,0,0.15,0.01,0.22c-0.08,0-0.16,0.02-0.23,0.06c-0.35,0.19-0.42,0.76-0.14,1.26
			c0.27,0.51,0.78,0.76,1.14,0.57c0.05-0.02,0.09-0.06,0.12-0.09c0.51,0.61,0.75,1.04,0.75,1.66c0,0.29-0.08,0.55-0.32,0.77h2.64
			c-0.25-0.22-0.32-0.48-0.32-0.77c0-0.62,0.24-1.05,0.75-1.66c0.04,0.04,0.08,0.07,0.12,0.09c0.35,0.19,0.86-0.06,1.14-0.57
			C155.31,46,155.25,45.44,154.9,45.25L154.9,45.25z"/>
		<path d="M152.03,42.32c-1.47,0-2.66,1.19-2.66,2.66c0,0.14,0.01,0.28,0.03,0.42c0.06,0.21,0.2,0.32,0.41,0.25
			c0.24-0.08,0.27-0.37,0.03-0.67c-0.24-0.3,0.04-0.64,0.4-0.76c0.36-0.11,0.44-0.3,0.52-0.69c0.07-0.4,0.39-0.9,1.28-0.9
			c0.89,0,1.21,0.51,1.28,0.9c0.07,0.4,0.16,0.58,0.52,0.69c0.36,0.11,0.64,0.46,0.4,0.76c-0.24,0.3-0.22,0.59,0.03,0.67
			c0.21,0.07,0.35-0.04,0.41-0.25c0.02-0.14,0.03-0.28,0.03-0.42C154.69,43.51,153.5,42.32,152.03,42.32L152.03,42.32z"/>
		<path fill="#3A3D0F" d="M158.78,60.74c-1.61,1.19-3.27,2.5-4.4,1.76c-0.44-0.29-0.78-1.57-1.03-3.32h-2.65
			c-0.25,1.75-0.59,3.04-1.03,3.32c-1.13,0.74-2.79-0.57-4.4-1.76c-1.46-1.08-3.18,1.14-2.25,2.7c1.08,1.53,3.69,2.92,8.98,2.92l0,0
			c0,0,0.01,0,0.01,0c0,0,0.01,0,0.01,0l0,0c5.29,0,7.9-1.39,8.98-2.92C161.95,61.88,160.24,59.66,158.78,60.74L158.78,60.74z"/>
		<path fill="#2F3793" d="M147.79,77.38c-1.87-2.75-5.91-2.25-6.7,0.51c-0.48,1.34-1.11,2.35-2.22,3.32l0,0
			c-0.62,0.56-1.01,1.35-1.01,2.22c0,1.69,1.45,3.06,3.23,3.06c1.4,0,2.59-0.85,3.04-2.03l0,0c1.1-2.89,2.5-2.83,3.28-3.11
			C148.22,81.07,149.32,79.66,147.79,77.38L147.79,77.38z"/>
		<path fill="#2F3793" d="M156.27,77.38c1.87-2.75,5.91-2.25,6.7,0.51c0.48,1.34,1.11,2.35,2.22,3.32l0,0
			c0.62,0.56,1.01,1.35,1.01,2.22c0,1.69-1.45,3.06-3.23,3.06c-1.4,0-2.59-0.85-3.04-2.03l0,0c-1.1-2.89-2.5-2.83-3.28-3.11
			C155.84,81.07,154.74,79.66,156.27,77.38L156.27,77.38z"/>
		<ellipse transform="matrix(0.2689 -0.9632 0.9632 0.2689 40.1673 192.6103)" cx="146.96" cy="69.85" rx="1.13" ry="3.37"/>
		<ellipse transform="matrix(0.9632 -0.2689 0.2689 0.9632 -12.9985 44.8248)" cx="157.12" cy="69.86" rx="3.37" ry="1.13"/>
		<path fill="#F09790" d="M148.65,70.74c-0.01-0.06-0.02-0.12-0.04-0.18c-0.01-0.03-0.02-0.06-0.03-0.09
			c0.34-0.36,0.55-0.85,0.55-1.39c0-1.12-0.91-2.03-2.03-2.03s-2.03,0.91-2.03,2.03c0,0.02,0,0.05,0,0.07
			c-0.75,1.29-1.76,2.82-2.11,7.39c-0.01,0.92,2.54,2.01,3.52,0.63c0.03-0.05,0.06-0.1,0.09-0.15c0.04-0.07,0.07-0.12,0.1-0.17
			c1.2-1.95,1.91-4.05,1.99-5.44C148.69,71.19,148.69,70.96,148.65,70.74L148.65,70.74L148.65,70.74z"/>
		<path fill="#F09790" d="M155.16,70.74c0.01-0.06,0.02-0.12,0.04-0.18c0.01-0.03,0.02-0.06,0.03-0.09
			c-0.34-0.36-0.55-0.85-0.55-1.39c0-1.12,0.91-2.03,2.03-2.03s2.03,0.91,2.03,2.03c0,0.02,0,0.05,0,0.07
			c0.75,1.29,1.76,2.82,2.11,7.39c0.01,0.91-2.54,2.01-3.52,0.63c-0.03-0.05-0.06-0.1-0.09-0.15c-0.04-0.07-0.07-0.12-0.1-0.17
			c-1.2-1.95-1.91-4.05-1.99-5.44C155.11,71.19,155.11,70.96,155.16,70.74L155.16,70.74L155.16,70.74z"/>
		<path fill="#4667F4" d="M142.95,76.55c-0.01,0.92,2.54,2.01,3.52,0.63c0.03-0.05,0.06-0.1,0.09-0.15c0.04-0.07,0.07-0.12,0.1-0.17
			c0.39-0.64,0.94-1.66,1.23-2.45c-0.51,1.38-4.83,0.57-4.54-0.96C143.19,74.3,143.05,75.31,142.95,76.55L142.95,76.55z"/>
		<path fill="#4667F4" d="M160.85,76.55c0.01,0.92-2.54,2.01-3.52,0.63c-0.03-0.05-0.06-0.1-0.09-0.15
			c-0.04-0.07-0.07-0.12-0.1-0.17c-0.39-0.64-0.94-1.66-1.23-2.45c0.51,1.38,4.83,0.57,4.54-0.96
			C160.61,74.3,160.76,75.31,160.85,76.55L160.85,76.55z"/>
		<path fill="#394EBD" d="M152.03,64.02L152.03,64.02c0,0.01,0.01,0.01,0.01,0.02c0-0.01,0.01-0.01,0.01-0.02
			c1.45,2.17,1.98,4.4,1.81,6.71c0.46-1.65,5.53-2.59,6.48-1.83c-1.99-2.8-1.82-7.05-4.21-9.72h-8.2c-2.23,2.32-2.26,6.95-4.21,9.72
			c0.96-0.77,6.02,0.18,6.48,1.83C150.04,68.31,150.64,66.09,152.03,64.02L152.03,64.02L152.03,64.02z"/>
		<path fill="#26006F" d="M153.75,50.39c0,0.63-0.81,1.14-1.82,1.14c-1,0-1.82-0.51-1.82-1.14h-1.81v8.8h7.47v-8.8H153.75z"/>
		<g>
			<path fill="#717C1E" d="M158.78,60.74c-1.61,1.19-3.27,2.5-4.4,1.76c-1.09-0.71-1.56-8.04-1.59-13c0-0.29,0.23-0.52,0.52-0.52
				c0.47-0.02,0.57,0.53,0.66,0.88c0.06,0.28,0.46,0.33,0.59,0.09c0.71-1.28,1.96-1.34,3-2.15c1.08-0.84,0.49-2.07,1.68-3.94l0,0
				c3.34-4.66,9.08,1.95,4.01,4.61l0,0c-4.73,2.17-1.87,2.96-5.21,6.24c-0.2,0.2-0.3,0.49-0.24,0.77c0.46,2.74,5.69,4.41,3.24,7.96
				C161.96,61.88,160.24,59.66,158.78,60.74L158.78,60.74z"/>
			<path fill="#717C1E" d="M145.28,60.74c1.61,1.19,3.27,2.5,4.4,1.76c1.09-0.71,1.56-8.04,1.59-13c0-0.29-0.23-0.52-0.52-0.52
				c-0.47-0.02-0.57,0.53-0.66,0.88c-0.06,0.28-0.46,0.33-0.59,0.09c-0.71-1.28-1.96-1.34-3-2.15c-1.08-0.84-0.49-2.07-1.68-3.94
				l0,0c-3.34-4.66-9.08,1.95-4.01,4.61l0,0c4.73,2.17,1.87,2.96,5.21,6.24c0.2,0.2,0.3,0.49,0.24,0.77
				c-0.46,2.74-5.69,4.41-3.24,7.96C142.11,61.88,143.82,59.66,145.28,60.74L145.28,60.74z"/>
		</g>
		<g>
			<circle cx="150.1" cy="52.51" r="0.72"/>
			<circle cx="149.77" cy="56.95" r="0.72"/>
		</g>
		<path fill="#FA5B1F" d="M152.87,44.95c-0.05-0.1-0.42-0.02-0.84,0.3c-0.42-0.31-0.79-0.4-0.84-0.3c-0.07,0.15,0.45,0.52,0.84,0.52
			S152.94,45.09,152.87,44.95z"/>
	</g>
</g>
</svg>
