<?xml version="1.0" encoding="UTF-8"?>
<svg id="Layer_1" xmlns="http://www.w3.org/2000/svg" width="92" height="98" xmlns:xlink="http://www.w3.org/1999/xlink" version="1.1" viewBox="0 0 92 98">
  <!-- Generator: Adobe Illustrator 30.0.0, SVG Export Plug-In . SVG Version: 2.1.1 Build 123)  -->
  <title>engine_type_promo_night</title>
<metadata><?xpacket begin="﻿" id="W5M0MpCehiHzreSzNTczkc9d"?>
<x:xmpmeta xmlns:x="adobe:ns:meta/" x:xmptk="Adobe XMP Core 9.1-c002 79.a1cd12f, 2024/11/11-19:08:46        ">
   <rdf:RDF xmlns:rdf="http://www.w3.org/1999/02/22-rdf-syntax-ns#">
      <rdf:Description rdf:about=""
            xmlns:dc="http://purl.org/dc/elements/1.1/"
            xmlns:xmp="http://ns.adobe.com/xap/1.0/"
            xmlns:xmpMM="http://ns.adobe.com/xap/1.0/mm/"
            xmlns:stEvt="http://ns.adobe.com/xap/1.0/sType/ResourceEvent#">
         <dc:title>
            <rdf:Alt>
               <rdf:li xml:lang="x-default">engine_type_promo_night</rdf:li>
            </rdf:Alt>
         </dc:title>
         <xmp:MetadataDate>2025-11-14T15:58:43-07:00</xmp:MetadataDate>
         <xmpMM:InstanceID>xmp.iid:d6a41c04-1cf2-4c8c-a46f-ea6aea9a2af3</xmpMM:InstanceID>
         <xmpMM:DocumentID>xmp.did:d6a41c04-1cf2-4c8c-a46f-ea6aea9a2af3</xmpMM:DocumentID>
         <xmpMM:OriginalDocumentID>xmp.did:d6a41c04-1cf2-4c8c-a46f-ea6aea9a2af3</xmpMM:OriginalDocumentID>
         <xmpMM:History>
            <rdf:Seq>
               <rdf:li>
                  <rdf:Description>
                     <stEvt:action>saved</stEvt:action>
                     <stEvt:instanceID>xmp.iid:d6a41c04-1cf2-4c8c-a46f-ea6aea9a2af3</stEvt:instanceID>
                     <stEvt:when>2025-11-14T15:58:43-07:00</stEvt:when>
                     <stEvt:softwareAgent>Adobe Bridge 2026</stEvt:softwareAgent>
                     <stEvt:changed>/metadata</stEvt:changed>
                  </rdf:Description>
               </rdf:li>
            </rdf:Seq>
         </xmpMM:History>
      </rdf:Description>
   </rdf:RDF>
</x:xmpmeta>
                                                                                                    
                                                                                                    
                                                                                                    
                                                                                                    
                                                                                                    
                                                                                                    
                                                                                                    
                                                                                                    
                                                                                                    
                                                                                                    
                                                                                                    
                                                                                                    
                                                                                                    
                                                                                                    
                                                                                                    
                                                                                                    
                                                                                                    
                                                                                                    
                                                                                                    
                                                                                                    
                           
<?xpacket end="w"?></metadata>
<defs>
    <linearGradient id="linear-gradient" x1="39.57" y1="-766.46" x2="54.78" y2="-780.25" gradientTransform="translate(0 800)" gradientUnits="userSpaceOnUse">
      <stop offset="0" stop-color="#000"/>
      <stop offset=".07" stop-color="#000b0b"/>
      <stop offset=".37" stop-color="#003636"/>
      <stop offset=".6" stop-color="#005151"/>
      <stop offset=".73" stop-color="#005b5b"/>
      <stop offset=".76" stop-color="#005959"/>
      <stop offset=".76" stop-color="#005252"/>
      <stop offset=".77" stop-color="#004646"/>
      <stop offset=".77" stop-color="#003535"/>
      <stop offset=".78" stop-color="#001f1f"/>
      <stop offset=".78" stop-color="#000505"/>
      <stop offset=".78" stop-color="#000"/>
      <stop offset="1" stop-color="#000"/>
    </linearGradient>
    <linearGradient id="linear-gradient1" x1="25.52" y1="-754.31" x2="35.21" y2="-763.11" xlink:href="#linear-gradient"/>
  </defs>
  <g id="Car">
    <g>
      <path d="M89,47.36c0-4.52-3.07-8.32-7.24-9.43h0l-11.87-3.16-11.05-13.37-1.22-.99c-.77-.9-1.8-1.54-2.95-1.85l-9.72-2.6,7.01,19.52h-4.99v5.47l-19.75-5.29v-.36l-12.5-3.12-.23.28c-.25.34-.72.43-1.07.2h0c-.3-.19-.42-.55-.32-.88l9.3-15.91-.06.05-.63-3.68-5.13,6.64-1.44,1.78h0c-.62.72-1.15,1.45-1.49,2.03l-6.61,11.43c-.06.1-.11.2-.16.3l-1.53,2.65-1.02,1.98c-.88,2.04-1.34,4.24-1.34,6.47h0c.01.17,0,.33,0,.5v7.94c0,2.79-.48,8.22,6.2,10.02l12.69,3.47c.12.05.24.09.37.13l9.26,2.48s.02,0,.02,0l19.86,5.32c.35.09.7.14,1.05.15l16.03,4.3c.82.22,1.65.31,2.47.28h0c2.87,0,5.32-.63,7.42-2.5,0,0,0,0,0,0,.64-.53,1.2-1.14,1.67-1.83.09-.13.18-.26.26-.4l6.37-11.04h0c2.18-3.77,2.31-7.96,2.31-10.13v-6.16c0-.1,0-.21,0-.31,0-.12,0-.23,0-.35h0Z" fill="#009e7c"/>
      <path d="M86.69,59.34h0l-.05.08c-.38.61-.64.04-.89-.24,0,0-.01-.01-.02-.02h0c-.18-.2-.58-.2-.77.15l-3.23,5.58c-.29.51-.59,1.35-.67,2.3h0c-.07.92-.17,2.07-.54,2.84l-.19.33c-.04.06-.07.11-.09.15-.06.09-.12.18-.18.27-.47.69-1.03,1.31-1.67,1.83,0,0,0,0,0,0-2.1,1.87-4.55,2.5-7.42,2.5h0c-.82.03-1.65-.06-2.47-.28l-16.03-4.3c-.35-.01-.7-.06-1.05-.15l-17.03-4.56h0c-6.77-1.84-5.24-4.17-9.12-5.21l-2.99-.8c-.13-.03-.25-.08-.37-.13l-.63-.17v2.76l-12.06-3.3c-5.43-1.46-6.13-5.34-6.2-8.23v3.19c0,2.79-.47,8.22,6.2,10.02l12.69,3.47c.12.05.24.09.37.13l9.26,2.48s.02,0,.02,0l19.86,5.32c.35.09.7.14,1.05.15l16.03,4.3c.82.22,1.65.31,2.47.28h0c2.87,0,5.32-.63,7.42-2.5,0,0,0,0,0,0,.64-.53,1.2-1.14,1.67-1.83.09-.13.18-.26.26-.4l6.37-11.04h0c2.18-3.77,2.31-7.96,2.31-10.13v-4.98c0,2.17-.13,6.36-2.31,10.13h0Z" fill="#005b5b"/>
      <path d="M88.27,44.8c-.41-.11-.92.3-1.42,1.07l-8.13,14.07c-.59.88-1.17,2.24-1.59,3.81-.78,2.93-.71,5.5.17,5.73.41.11.92-.3,1.42-1.07l8.13-14.07c.59-.88,1.17-2.24,1.59-3.81.78-2.93.71-5.5-.17-5.73Z"/>
      <path d="M84.45,54.05c-.07-.02-.15.05-.24.18l-.16.28h0s-1.22,2.12-1.22,2.12c0,.02-.02.03-.03.05l-.06.11s0,0,0,0l-1.37,2.37c-.1.15-.2.38-.27.64-.13.49-.12.93.03.97.07.02.15-.05.24-.18l1.31-2.27s0,0,0,0l.06-.11s.04-.06.06-.1l.04-.07h0s1.21-2.09,1.21-2.09c.03-.04.05-.08.08-.13l.09-.15c.1-.15.2-.38.27-.64.13-.49.12-.93-.03-.97h0Z" fill="#005b5b"/>
      <ellipse cx="86.85" cy="50.11" rx="4.01" ry="1.2" transform="translate(15.97 121.03) rotate(-75)" fill="#fff"/>
      <ellipse cx="78.72" cy="64.18" rx="4.01" ry="1.2" transform="translate(-3.65 123.61) rotate(-75)" fill="#fff"/>
      <path d="M69.89,34.77h0l-10.16-12.29-.6-.7c-.41-.48-.9-.89-1.44-1.21.49.56.61,1.4.21,2.11l-2.27,3.93-6.48-7.5c-.41-.48-.9-.89-1.44-1.21.49.56.61,1.4.21,2.11l-.92,1.6,4.98,13.87h-4.99v5.47l-10.49-2.81c-.53.17-1.11.19-1.67.06l-12.78-3.43s-.06-.01-.09-.02l-7.66-2.05-.03-.02c-.25.15-.57.15-.83-.02h0c-.3-.19-.42-.55-.32-.88l.06-.1-1.25-1.13,3.76-4.96,6.53-10.54-.48-2.82-5.13,6.64-1.44,1.78h0c-.62.72-1.15,1.45-1.49,2.03l-6.61,11.43c-.06.1-.11.2-.16.3l-1.53,2.65-1.02,1.98s-.04.1-.06.15c-.52,1.38.23,3.05,1.73,3.45l36.03,9.65c.05.01.11.03.16.04l9.82,2.63c3.37.9,6.94-.57,8.68-3.6l8.9-15.4c.22-.38.28-.8.28-1.21h0Z" fill="url(#linear-gradient)"/>
      <path d="M47.32,38.08l-.34-.59v3.46l-10.49-2.81c-.53.17-1.11.19-1.67.06l-12.78-3.43s-.06-.01-.09-.02l-7.66-2.05-.03-.02c-.25.15-.57.15-.83-.02h0c-.3-.19-.42-.55-.32-.88l.06-.1-1.25-1.13,3.76-4.96,6.53-10.54-.48-2.82-5.13,6.64-1.44,1.78h0c-.62.72-1.15,1.45-1.49,2.03l-6.61,11.43c-.06.1-.11.2-.16.3l-1.53,2.65-1.02,1.98s-.04.1-.06.15c-.52,1.38.23,3.05,1.73,3.45l36.03,9.65c.05.01.11.03.16.04l9.82,2.63c1.32.35,2.66.34,3.92.02l-8.63-16.91h0Z" fill="url(#linear-gradient1)"/>
      <path d="M9.14,35.65l3.53-4.42-.76-.69,3.76-4.96,6.53-10.54-.48-2.82-5.13,6.64-1.44,1.78h0c-.62.72-1.15,1.45-1.49,2.03l-6.61,11.43c-.06.1-.11.2-.16.3l-1.53,2.65-1.02,1.98s-.04.1-.06.15c-.52,1.38.23,3.05,1.73,3.45l3.12.84v-7.83h0Z"/>
      <path d="M58.76,21.33h0s-.02-.02-.06-.06c0,0-.02-.02-.02-.02-.37-.35-1.86-1.74-2.3-2.02h0c1.05.81,1.41,2.32.7,3.56l-7.51,13c-1.04,1.8-3.16,2.68-5.16,2.14l-19.86-5.32s-.02,0-.02,0l-9.26-2.48c-1.73-.46-2.56-2.42-1.7-3.98l-1.73,2.99c-.91,1.57-.08,3.57,1.67,4.04l9.26,2.48s.02,0,.02,0l19.86,5.32c.1.03.2.05.3.07l2.5.67c2.01.54,4.12-.34,5.16-2.14l8.61-14.89c.66-1.14.4-2.51-.46-3.35h0Z" fill="#005b5b"/>
      <path d="M55.4,18.75l-9.26-2.48s-.02,0-.02,0l-19.86-5.32c-2.01-.54-4.12.34-5.16,2.14l-7.51,13c-.91,1.57-.08,3.57,1.67,4.04l9.26,2.48s.02,0,.02,0l19.86,5.32c2.01.54,4.12-.34,5.16-2.14l7.51-13c.91-1.57.08-3.57-1.67-4.04h0Z" fill="#009e7c"/>
      <path d="M27.41,67.8c0,5.79-4.69,9.22-10.48,7.67-5.79-1.55-10.48-7.5-10.48-13.29s4.69-9.22,10.48-7.67c5.79,1.55,10.48,7.5,10.48,13.29Z" fill="#181818"/>
      <path d="M22.79,66.56c0,3.24-2.63,5.16-5.87,4.29-3.24-.87-5.87-4.2-5.87-7.44s2.63-5.16,5.87-4.29c3.24.87,5.87,4.2,5.87,7.44Z" fill="#005b5b"/>
      <polygon points="26.36 72.09 28.08 69.11 27.34 68.91 26.87 70.05 26.36 72.09" fill="#181818"/>
      <path d="M69.89,79.17c0,5.79-4.69,9.22-10.48,7.67-5.79-1.55-10.48-7.5-10.48-13.29s4.69-9.22,10.48-7.67c5.79,1.55,10.48,7.5,10.48,13.29Z" fill="#181818"/>
      <path d="M65.27,77.94c0,3.24-2.63,5.16-5.87,4.29-3.24-.87-5.87-4.2-5.87-7.44s2.63-5.16,5.87-4.29c3.24.87,5.87,4.2,5.87,7.44Z" fill="#005b5b"/>
      <path d="M69.85,80.06c-.24-.04-.1.46-.1.46h0l-.32.77-.51,2.04,1.86-3.22s-.69,0-.93-.04h0Z" fill="#181818"/>
      <path d="M45.36,36.65c-.21,0-.43-.06-.61-.19-2.91-2.02-7.71-4.05-13.15-5.55-5.57-1.54-11.12-2.31-15.23-2.13-.59.03-1.1-.43-1.12-1.03s.43-1.1,1.03-1.12c8.9-.39,23.05,3.45,29.69,8.06.49.34.61,1.01.27,1.5-.21.3-.54.46-.88.46h0Z" fill="#005b5b"/>
      <path d="M53.72,22.04c-.21,0-.43-.06-.61-.19-2.91-2.02-7.71-4.05-13.15-5.55-5.57-1.54-11.12-2.31-15.23-2.13-.6.03-1.1-.43-1.12-1.03s.43-1.1,1.03-1.12c8.9-.39,23.05,3.45,29.69,8.06.49.34.61,1.01.27,1.5-.21.3-.54.46-.88.46h0Z" fill="#005b5b"/>
      <path d="M38.19,52.47l2.99.8c.3.08.47.38.39.68h0c-.08.3-.38.47-.68.39l-2.99-.8c-.3-.08-.47-.38-.39-.68h0c.08-.3.38-.47.68-.39Z" fill="#005b5b"/>
      <path d="M47.32,41.82l6.08,13.39c1.5.12,2.98-.2,4.28-.89l-7.81-13.76c-.7.68-1.59,1.12-2.54,1.27h0Z" fill="#005b5b"/>
      <path d="M49.39,46.38v7.88l2.64.71c.45.12.91.2,1.37.24l-4.01-8.83h0Z" fill="#009e7c"/>
      <path d="M8.4,48.41l-3.49-.94c-1.14-.31-1.85-1.34-1.89-2.43,0,1.04,0,5.21,0,5.23,0,1.02.84,1.86,1.87,1.86.41,0,.78-.13,1.08-.35l2.63-1.6c.3-.17.56-.48.56-.86,0-.45-.32-.82-.74-.91h0Z" fill="#fff"/>
      <path d="M65.63,29.61c.89-1.55.8-3.85.8-4.61v-.18s0-.02,0-.03,0-.02,0-.03v-.03h0c-.03-.79-.58-1.42-1.38-1.42-.61,0-1.13.37-1.35.89-.05.09-.09.17-.12.24-.13.32-.52,1.2-.77,1.75l2.83,3.42h0Z" fill="#005b5b"/>
      <path d="M51.79,53.59c.19-.33.01-.8-.41-1.04-.37-.22-.81-.18-1.04.07,0,0-.02.02-.03.03-.21.27-.22.06-.4-.05h0c-.44-.34-1.12-.56-2.02-.35-.81.19-2.31,1.11-3.15,2.37-.3.45-.8,1.39-.8,2.63v1.36h0c.02.5.2.95.5,1.31.01.01.02.03.03.04.02.03.05.06.07.08h0s0,0,0,0c.26.26.63.43,1.03.43s.77-.17,1.04-.43h0c.07-.07.13-.15.19-.24l4.97-6.21h0Z" fill="#005b5b"/>
    </g>
  </g>
</svg>