<?xml version="1.0" encoding="utf-8"?>
<!-- Generator: Adobe Illustrator 30.0.0, SVG Export Plug-In . SVG Version: 9.03 Build 0)  -->
<svg version="1.1" baseProfile="basic" id="Layer_1"
	 xmlns="http://www.w3.org/2000/svg" xmlns:xlink="http://www.w3.org/1999/xlink" x="0px" y="0px" width="92px" height="98px"
	 viewBox="0 0 92 98" xml:space="preserve">
<g>
	<path fill="#34A853" d="M89,47.36c0-4.52-3.07-8.32-7.24-9.43l0,0l-11.87-3.16L58.84,21.4l-1.22-0.99c-0.77-0.9-1.8-1.54-2.95-1.85
		l-9.72-2.6l7.01,19.52h-4.99v5.47l-19.75-5.29v-0.36l-12.5-3.12l-0.23,0.28c-0.25,0.34-0.72,0.43-1.07,0.2l0,0
		c-0.3-0.19-0.42-0.55-0.32-0.88l9.3-15.91l-0.06,0.05l-0.63-3.68l-5.13,6.64l-1.44,1.78l0,0c-0.62,0.72-1.15,1.45-1.49,2.03
		L7.06,34.11c-0.06,0.1-0.11,0.2-0.16,0.3l-1.53,2.65l-1.02,1.98c-0.88,2.04-1.34,4.24-1.34,6.47l0,0c0.01,0.17,0,0.33,0,0.5l0,7.94
		c0,2.79-0.47,8.22,6.2,10.02l12.69,3.47c0.12,0.05,0.24,0.09,0.37,0.13l9.26,2.48c0.01,0,0.02,0.01,0.02,0.01l19.86,5.32
		c0.35,0.09,0.7,0.14,1.05,0.15l16.03,4.3c0.82,0.22,1.65,0.31,2.47,0.28l0,0c2.87,0,5.32-0.63,7.42-2.5c0,0,0,0,0,0
		c0.64-0.53,1.2-1.14,1.67-1.83c0.09-0.13,0.18-0.26,0.26-0.4l6.37-11.04l0,0C88.86,60.54,89,56.36,89,54.18v-6.16
		c0-0.1,0-0.21-0.01-0.31C89,47.59,89,47.48,89,47.36L89,47.36z"/>
	<path fill="#004E41" d="M86.69,59.34L86.69,59.34l-6.37,11.04c-0.08,0.14-0.17,0.27-0.26,0.4c-0.47,0.69-1.03,1.31-1.67,1.83
		c0,0,0,0,0,0c-2.1,1.87-4.55,2.5-7.42,2.5l0,0c-0.82,0.03-1.65-0.06-2.47-0.28l-16.03-4.3c-0.35-0.01-0.7-0.06-1.05-0.15
		l-17.03-4.56l0-0.01c-6.77-1.84-5.24-4.16-9.12-5.2l-2.99-0.8c-0.13-0.03-0.25-0.08-0.37-0.13l-0.63-0.17v2.76l-12.06-3.3
		c-5.43-1.46-6.13-5.34-6.2-8.23v3.19c0,2.79-0.47,8.22,6.2,10.02l12.69,3.47c0.12,0.05,0.24,0.09,0.37,0.13l9.26,2.48
		c0.01,0,0.02,0.01,0.02,0.01l19.86,5.32c0.35,0.09,0.7,0.14,1.05,0.15l16.03,4.3c0.82,0.22,1.65,0.31,2.47,0.28l0,0
		c2.87,0,5.32-0.63,7.42-2.5c0,0,0,0,0,0c0.64-0.53,1.2-1.14,1.67-1.83c0.09-0.13,0.18-0.26,0.26-0.4l6.37-11.04l0,0
		C88.87,60.54,89,56.36,89,54.19v-4.98C89,51.38,88.87,55.57,86.69,59.34z"/>
	<path fill="#004E41" d="M86.69,59.34c-0.4,0.75-0.68,0.13-0.93-0.15c-0.01-0.01-0.01-0.01-0.02-0.02l0,0
		c-0.18-0.2-0.58-0.2-0.77,0.15l-3.23,5.58c-0.29,0.51-0.59,1.35-0.67,2.3c0,0,0,0,0,0c-0.08,1.04-0.19,2.36-0.7,3.11
		c-0.84,1.25,1.27-0.84,1.27-0.84l3.99-6.3l-0.22,0.06l1.1-1.94c0.39-0.11,0.76-0.45,0.76-0.45l0.56-1.48
		C87.81,59.35,87.1,58.57,86.69,59.34L86.69,59.34z"/>
	<path d="M88.27,44.8c-0.41-0.11-0.92,0.3-1.42,1.07l-8.13,14.07c-0.59,0.88-1.17,2.24-1.59,3.81c-0.78,2.93-0.71,5.5,0.17,5.73
		c0.41,0.11,0.92-0.3,1.42-1.07l8.13-14.07c0.59-0.88,1.17-2.24,1.59-3.81C89.23,47.6,89.15,45.04,88.27,44.8z"/>
	<path fill="#004E41" d="M84.45,54.05c-0.07-0.02-0.15,0.05-0.24,0.18l-0.16,0.28c0,0,0,0,0,0l-1.22,2.11
		c-0.01,0.02-0.02,0.03-0.03,0.05l-0.06,0.11c0,0,0,0,0,0l-1.37,2.37c-0.1,0.15-0.2,0.38-0.27,0.64c-0.13,0.49-0.12,0.93,0.03,0.97
		c0.07,0.02,0.15-0.05,0.24-0.18l1.31-2.27c0,0,0,0,0,0l0.06-0.11c0.02-0.03,0.04-0.06,0.06-0.1l0.04-0.07c0,0,0,0,0,0l1.21-2.09
		c0.03-0.04,0.05-0.08,0.08-0.13l0.09-0.15c0.1-0.15,0.2-0.38,0.27-0.64C84.61,54.53,84.6,54.09,84.45,54.05L84.45,54.05z"/>
	
		<ellipse transform="matrix(0.2588 -0.9659 0.9659 0.2588 15.9701 121.0301)" fill="#FFFFFF" cx="86.85" cy="50.11" rx="4.01" ry="1.2"/>
	
		<ellipse transform="matrix(0.2588 -0.9659 0.9659 0.2588 -3.6424 123.6091)" fill="#FFFFFF" cx="78.72" cy="64.18" rx="4.01" ry="1.2"/>
	
		<linearGradient id="SVGID_1_" gradientUnits="userSpaceOnUse" x1="39.5746" y1="-4307.5386" x2="54.7788" y2="-4293.7446" gradientTransform="matrix(1 0 0 -1 0 -4274)">
		<stop  offset="0" style="stop-color:#000000"/>
		<stop  offset="0.24" style="stop-color:#0D3621"/>
		<stop  offset="0.46" style="stop-color:#18613B"/>
		<stop  offset="0.64" style="stop-color:#1F7C4B"/>
		<stop  offset="0.74" style="stop-color:#228652"/>
		<stop  offset="0.76" style="stop-color:#218450"/>
		<stop  offset="0.76" style="stop-color:#1F7D4C"/>
		<stop  offset="0.77" style="stop-color:#1C7145"/>
		<stop  offset="0.77" style="stop-color:#18603B"/>
		<stop  offset="0.77" style="stop-color:#124A2D"/>
		<stop  offset="0.78" style="stop-color:#0C2F1D"/>
		<stop  offset="0.78" style="stop-color:#040F09"/>
		<stop  offset="0.78" style="stop-color:#000000"/>
		<stop  offset="1" style="stop-color:#000000"/>
	</linearGradient>
	<path fill="url(#SVGID_1_)" d="M69.89,34.77L69.89,34.77L59.74,22.48l-0.6-0.7c-0.41-0.48-0.9-0.89-1.44-1.21
		c0.49,0.56,0.61,1.4,0.21,2.11l-2.27,3.93l-6.48-7.5c-0.41-0.48-0.9-0.89-1.44-1.21c0.49,0.56,0.61,1.4,0.21,2.11l-0.92,1.6
		l4.98,13.87h-4.99v5.47l-10.49-2.81c-0.53,0.17-1.11,0.19-1.67,0.06l-12.78-3.43c-0.03-0.01-0.06-0.01-0.09-0.02l-7.66-2.05
		l-0.03-0.02c-0.25,0.15-0.57,0.15-0.83-0.02l0,0c-0.3-0.19-0.42-0.55-0.32-0.88l0.06-0.1l-1.25-1.13l3.76-4.96l6.53-10.54
		l-0.48-2.82l-5.13,6.64l-1.44,1.78l0,0c-0.62,0.72-1.15,1.45-1.49,2.03L7.06,34.11c-0.06,0.1-0.11,0.2-0.16,0.3l-1.53,2.65
		l-1.02,1.98c-0.02,0.05-0.04,0.1-0.06,0.15c-0.52,1.38,0.23,3.05,1.73,3.45l36.03,9.65c0.05,0.01,0.11,0.03,0.16,0.04l9.82,2.63
		c3.37,0.9,6.94-0.57,8.68-3.6l8.9-15.4C69.83,35.6,69.89,35.18,69.89,34.77L69.89,34.77z"/>
	
		<linearGradient id="SVGID_00000181788219582680220240000008533775107744517525_" gradientUnits="userSpaceOnUse" x1="25.5168" y1="-4319.6899" x2="35.2133" y2="-4310.8931" gradientTransform="matrix(1 0 0 -1 0 -4274)">
		<stop  offset="0" style="stop-color:#000000"/>
		<stop  offset="0.24" style="stop-color:#0D3621"/>
		<stop  offset="0.46" style="stop-color:#18613B"/>
		<stop  offset="0.64" style="stop-color:#1F7C4B"/>
		<stop  offset="0.74" style="stop-color:#228652"/>
		<stop  offset="0.76" style="stop-color:#218450"/>
		<stop  offset="0.76" style="stop-color:#1F7D4C"/>
		<stop  offset="0.77" style="stop-color:#1C7145"/>
		<stop  offset="0.77" style="stop-color:#18603B"/>
		<stop  offset="0.77" style="stop-color:#124A2D"/>
		<stop  offset="0.78" style="stop-color:#0C2F1D"/>
		<stop  offset="0.78" style="stop-color:#040F09"/>
		<stop  offset="0.78" style="stop-color:#000000"/>
		<stop  offset="1" style="stop-color:#000000"/>
	</linearGradient>
	<path fill="url(#SVGID_00000181788219582680220240000008533775107744517525_)" d="M47.32,38.08l-0.34-0.59v3.46l-10.49-2.81
		c-0.53,0.17-1.11,0.19-1.67,0.06l-12.78-3.43c-0.03-0.01-0.06-0.01-0.09-0.02l-7.66-2.05l-0.03-0.02
		c-0.25,0.15-0.57,0.15-0.83-0.02l0,0c-0.3-0.19-0.42-0.55-0.32-0.88l0.06-0.1l-1.25-1.13l3.76-4.96l6.53-10.54l-0.48-2.82
		l-5.13,6.64l-1.44,1.78l0,0c-0.62,0.72-1.15,1.45-1.49,2.03L7.06,34.11c-0.06,0.1-0.11,0.2-0.16,0.3l-1.53,2.65l-1.02,1.98
		c-0.02,0.05-0.04,0.1-0.06,0.15c-0.52,1.38,0.23,3.05,1.73,3.45l36.03,9.65c0.05,0.01,0.11,0.03,0.16,0.04l9.82,2.63
		c1.32,0.35,2.66,0.34,3.92,0.02L47.32,38.08L47.32,38.08z"/>
	<path d="M9.14,35.65l3.53-4.42l-0.76-0.69l3.76-4.96l6.53-10.54l-0.48-2.82l-5.13,6.64l-1.44,1.78l0,0
		c-0.62,0.72-1.15,1.45-1.49,2.03L7.06,34.11c-0.06,0.1-0.11,0.2-0.16,0.3l-1.53,2.65l-1.02,1.98c-0.02,0.05-0.04,0.1-0.06,0.15
		c-0.52,1.38,0.23,3.05,1.73,3.45l3.12,0.84L9.14,35.65L9.14,35.65z"/>
	<path fill="#228652" d="M58.77,21.33L58.77,21.33c0,0-0.02-0.02-0.06-0.06c-0.01-0.01-0.02-0.02-0.02-0.02
		c-0.37-0.35-1.86-1.74-2.3-2.02l0,0c1.05,0.81,1.41,2.32,0.7,3.56l-7.51,13c-1.04,1.8-3.16,2.68-5.16,2.14L24.55,32.6
		c-0.01,0-0.02-0.01-0.02-0.01l-9.26-2.48c-1.73-0.46-2.56-2.42-1.7-3.98l-1.73,2.99c-0.91,1.57-0.08,3.57,1.67,4.04l9.26,2.48
		c0.01,0,0.02,0.01,0.02,0.01l19.86,5.32c0.1,0.03,0.2,0.05,0.3,0.07l2.5,0.67c2.01,0.54,4.12-0.34,5.16-2.14l8.61-14.89
		C59.89,23.54,59.63,22.17,58.77,21.33L58.77,21.33z"/>
	<path fill="#34A853" d="M55.4,18.75l-9.26-2.48c-0.01,0-0.02-0.01-0.02-0.01l-19.86-5.32c-2.01-0.54-4.12,0.34-5.16,2.14l-7.51,13
		c-0.91,1.57-0.08,3.57,1.67,4.04l9.26,2.48c0.01,0,0.02,0.01,0.02,0.01l19.86,5.32c2.01,0.54,4.12-0.34,5.16-2.14l7.51-13
		C57.98,21.22,57.15,19.22,55.4,18.75L55.4,18.75z"/>
	<path d="M27.41,67.8c0,5.79-4.69,9.22-10.48,7.67c-5.79-1.55-10.48-7.5-10.48-13.29s4.69-9.22,10.48-7.67
		C22.72,56.06,27.41,62.01,27.41,67.8z"/>
	<path fill="#004E41" d="M22.79,66.56c0,3.24-2.63,5.16-5.87,4.29c-3.24-0.87-5.87-4.2-5.87-7.44c0-3.24,2.63-5.16,5.87-4.29
		C20.17,59.99,22.79,63.32,22.79,66.56z"/>
	<polygon points="26.36,72.09 28.08,69.11 27.34,68.91 26.87,70.05 	"/>
	<path d="M69.89,79.17c0,5.79-4.69,9.22-10.48,7.67c-5.79-1.55-10.48-7.5-10.48-13.29s4.69-9.22,10.48-7.67
		C65.2,67.43,69.89,73.38,69.89,79.17z"/>
	<path fill="#004E41" d="M65.28,77.94c0,3.24-2.63,5.16-5.87,4.29c-3.24-0.87-5.87-4.2-5.87-7.44c0-3.24,2.63-5.16,5.87-4.29
		C62.65,71.37,65.28,74.7,65.28,77.94z"/>
	<path d="M69.85,80.06c-0.24-0.04-0.1,0.46-0.1,0.46l0,0l-0.32,0.77l-0.51,2.04l1.86-3.22C70.79,80.1,70.09,80.09,69.85,80.06
		L69.85,80.06z"/>
	<path fill="#004E40" d="M45.36,36.65c-0.21,0-0.43-0.06-0.61-0.19c-2.91-2.02-7.71-4.05-13.15-5.55
		c-5.57-1.54-11.12-2.31-15.23-2.13c-0.59,0.03-1.1-0.43-1.12-1.03c-0.03-0.59,0.43-1.1,1.03-1.12c8.9-0.39,23.06,3.45,29.69,8.06
		c0.49,0.34,0.61,1.01,0.27,1.5C46.03,36.49,45.7,36.66,45.36,36.65L45.36,36.65z"/>
	<path fill="#004E40" d="M53.72,22.04c-0.21,0-0.43-0.06-0.61-0.19c-2.91-2.02-7.71-4.05-13.15-5.55
		c-5.57-1.54-11.12-2.31-15.23-2.13c-0.6,0.03-1.1-0.43-1.12-1.03c-0.03-0.59,0.43-1.1,1.03-1.12c8.9-0.39,23.06,3.45,29.69,8.06
		c0.49,0.34,0.61,1.01,0.27,1.5C54.4,21.88,54.06,22.04,53.72,22.04L53.72,22.04z"/>
	<path fill="#004E41" d="M38.17,52.47l3.03,0.81c0.29,0.08,0.45,0.37,0.38,0.65l-0.01,0.04c-0.08,0.29-0.37,0.45-0.65,0.38
		l-3.03-0.81c-0.29-0.08-0.45-0.37-0.38-0.65l0.01-0.04C37.59,52.56,37.89,52.39,38.17,52.47z"/>
	<path fill="#004E41" d="M47.32,41.82l6.08,13.39c1.5,0.12,2.98-0.2,4.28-0.89l-7.81-13.76C49.16,41.23,48.27,41.67,47.32,41.82
		L47.32,41.82z"/>
	<path fill="#228652" d="M49.39,46.38v7.88l2.64,0.71c0.45,0.12,0.91,0.2,1.37,0.24L49.39,46.38L49.39,46.38z"/>
	<path fill="#BCE9FF" d="M8.4,48.41L4.9,47.47c-1.14-0.31-1.85-1.34-1.89-2.43c0,1.04,0,5.21,0,5.23c0,1.02,0.84,1.86,1.87,1.86
		c0.41,0,0.78-0.13,1.08-0.35l2.63-1.6c0.3-0.17,0.56-0.48,0.56-0.86C9.14,48.87,8.82,48.49,8.4,48.41L8.4,48.41z"/>
	<path fill="#004E41" d="M65.63,29.61c0.89-1.55,0.8-3.85,0.8-4.61v-0.18c0-0.01,0-0.02,0-0.03c0-0.01,0-0.02,0-0.03v-0.03h0
		c-0.03-0.79-0.58-1.42-1.38-1.42c-0.61,0-1.13,0.37-1.35,0.89c-0.05,0.09-0.09,0.17-0.12,0.24c-0.13,0.32-0.52,1.2-0.77,1.75
		L65.63,29.61L65.63,29.61z"/>
	<path fill="#004E41" d="M51.79,53.59c0.19-0.33,0.01-0.8-0.41-1.04c-0.37-0.22-0.81-0.18-1.04,0.07c-0.01,0.01-0.02,0.02-0.03,0.03
		c-0.21,0.27-0.22,0.06-0.4-0.05l0,0c-0.44-0.34-1.12-0.56-2.02-0.35c-0.81,0.19-2.31,1.11-3.15,2.37c-0.3,0.45-0.8,1.39-0.8,2.63
		v1.36h0c0.02,0.5,0.2,0.95,0.5,1.31c0.01,0.01,0.02,0.03,0.03,0.04c0.02,0.03,0.05,0.06,0.07,0.08v-0.01h0
		c0.26,0.26,0.63,0.43,1.03,0.43c0.4,0,0.77-0.17,1.04-0.43l0,0l0,0c0.07-0.07,0.13-0.15,0.19-0.24L51.79,53.59L51.79,53.59z"/>
</g>
</svg>
