<svg width="26" height="26" fill="none" xmlns="http://www.w3.org/2000/svg"><rect x="26" y="26" width="26" height="26" rx="13" transform="rotate(-180 26 26)" fill="#28994F"/><path fill-rule="evenodd" clip-rule="evenodd" d="M11.8203 5.90863c-.3263 0-.5909.26456-.5909.59091 0 .32635.2646.59091.5909.59091h5.3195c.4896 0 .8864.39684.8864.88636V18.0223c0 .4895-.3968.8863-.8864.8863h-5.3195c-.3263 0-.5909.2646-.5909.5909 0 .3264.2646.591.5909.591h5.3195c1.1422 0 2.0682-.926 2.0682-2.0682V7.97681c0-1.14222-.9259-2.06818-2.0682-2.06818h-5.3195zM6.07972 13.5905h5.14968v3.2502c0 .2582.3079.3922.4969.2162l4.1364-3.8412c.1253-.1168.1254-.3154.0001-.4323l-4.1349-3.84041c-.1888-.1761-.4968-.04227-.497.21594l-.0015 3.24977H6.07972c-.32635 0-.59091.2646-.59091.5909 0 .3264.26456.5909.59091.5909z" fill="#fff"/></svg>