<?xml version="1.0" encoding="utf-8"?>
<!-- Generator: Adobe Illustrator 30.0.0, SVG Export Plug-In . SVG Version: 9.03 Build 0)  -->
<svg version="1.1" baseProfile="basic" id="Layer_1"
	 xmlns="http://www.w3.org/2000/svg" xmlns:xlink="http://www.w3.org/1999/xlink" x="0px" y="0px" width="160px" height="160px"
	 viewBox="0 0 160 160" xml:space="preserve">
<path fill="#131314" d="M146.65,63.42c-24.99-6.63-56.29-15.13-81.16-21.75c-8.2-2.2-16.85,1.39-21.1,8.74L6.52,116
	c-3.7,6.41-0.31,14.58,6.83,16.5c0,0,71.78,19.24,81.31,21.78c3.96,1.04,8.25,0.72,12.01-0.88c2.81-1.18,5.32-3.06,7.24-5.43
	c0.8-0.48,39.57-68.06,39.57-68.06C157.18,73.51,153.8,65.33,146.65,63.42L146.65,63.42z"/>
<path fill="#003936" d="M146.65,63.42L97.88,50.35L75.41,89.27c-0.54,0.94-0.05,2.14,1,2.42l21.45,5.75
	c1.68,0.45,2.47,2.37,1.6,3.87L72.33,148.3l22.33,5.98c0.25,0.07,0.51,0.13,0.77,0.18c0.76,0.16,1.53,0.28,2.3,0.35
	c7.16,0.66,14.28-2.99,17.89-9.31l37.87-65.59C157.19,73.5,153.8,65.33,146.65,63.42L146.65,63.42z"/>
<path fill="#003936" d="M85.26,105.89c0.6-1.04,0.05-2.36-1.1-2.67l-14.15-3.79c-3.06-0.82-5.11-3.3-5.62-6.12
	c-0.49-4.42,1.24-5.72,3.19-9.18l20.95-36.28l-23.05-6.18c-8.2-2.2-16.85,1.39-21.1,8.74L6.52,116c-3.7,6.41-0.31,14.58,6.83,16.5
	l48.97,13.12L85.26,105.89L85.26,105.89z"/>
<path fill="#004E41" d="M67.58,84.13l20.95-36.28l-23.05-6.18c-8.2-2.2-16.85,1.39-21.1,8.74L30.63,74.23L67.58,84.13L67.58,84.13z"
	/>
<path fill="#004E41" d="M94.66,154.28c8.16,2.12,16.74-1.47,20.96-8.78l11.83-20.5l-13.78-3.69L94.66,154.28L94.66,154.28z"/>
<polygon fill="#004E41" points="103.98,118.72 91.36,115.34 72.33,148.3 84.96,151.69 "/>
<path fill="#004E41" d="M34.7,114.55c-2.5-0.67-3.69-3.53-2.4-5.78l2.44-4.24l9.57-16.6l-18.71-5.01L6.51,116
	c-3.7,6.41-0.31,14.58,6.83,16.5l48.97,13.12l11.84-20.5L34.7,114.55L34.7,114.55z"/>
<path fill="#004E41" d="M84.72,79.32c1.69,0.44,5.39,0.46,7.23-2.74l13.87-24.1l-7.94-2.13l-16.22,28.1
	C83.02,78.85,84.2,79.18,84.72,79.32L84.72,79.32z"/>
<path fill="#004E41" d="M146.65,63.42l-31.49-8.44l-2.58,4.48h0L99.03,83.01c-1.42,3.11-6.73,8.22-16,5.5
	c-2.35-0.69-4.41-1.27-6.17-1.75l-1.45,2.51c-0.54,0.94-0.05,2.14,1,2.42l8.28,2.22c0.06,0.01,0.11,0.03,0.17,0.05l13,3.48
	c1.68,0.45,2.47,2.37,1.6,3.87l-3.08,5.34l36.08,9.67l21.02-36.4C157.18,73.51,153.79,65.34,146.65,63.42L146.65,63.42z"/>
<path fill="#004E41" d="M64.39,93.31l-10.37-2.78l-9.57,16.6l34.73,9.31l6.09-10.54c0.6-1.04,0.05-2.36-1.1-2.67l-14.15-3.79
	C66.95,98.61,64.9,96.13,64.39,93.31L64.39,93.31z"/>
<path fill="#0D6545" d="M77.38,105.45L77.38,105.45L77.38,105.45c-0.03-0.1-4.98-12.35-4.98-12.35l0,0c-0.44-2.02-3.57-2.02-4.01,0
	l0,0l-4.87,12.07C61.06,111.71,79.18,111.85,77.38,105.45z"/>
<path fill="#0D6545" d="M116.93,102.5L116.93,102.5L116.93,102.5c-0.03-0.1-4.98-12.35-4.98-12.35l0,0c-0.44-2.02-3.57-2.02-4.01,0
	l0,0l-4.87,12.07C100.61,108.76,118.73,108.9,116.93,102.5z"/>
<path fill="#25233F" d="M120.98,84.32c0.68-1.17,1.41-2.41,2.16-3.69c3.36-5.7,3.59-10.15-2.74-11.85
	c-2.02-0.54-11.93-3.05-13.8-3.56h-0.04v13.85c0,0.9,0.6,1.68,1.46,1.91C109.6,81.41,120.79,84.26,120.98,84.32L120.98,84.32z"/>
<path fill="#25233F" d="M136.89,81.87c-2.7,4.61-4.6,7.91-4.6,7.91c-0.44-0.12-10.59-2.86-12.5-3.38h-0.02v13.46
	c0,1.13,0.76,2.12,1.85,2.41c2.97,0.8,10.24,2.77,10.68,2.88c0,0,1.9-3.3,4.6-7.91c1.96-3.36,2.5-6.54,2.49-9.13l0,0V73.06l0,0
	C139.34,75.58,138.78,78.65,136.89,81.87L136.89,81.87z"/>
<path fill="#25233F" d="M55.42,128.44c-1.03,1.45-2.17,0.7-2.87-0.82c-0.57-1.21-4.67-10.53-5.81-13.01
	c-1.13-2.47-2.8-2.16-4.07-0.76c-1.27,1.4-7.23,8.12-8.31,9.32c-1.08,1.21-1.4,0.32-1.71-0.57c-0.32-0.89-2.92-11.1-3.3-12.37
	c-0.34-1.15-1.52-1.25-2.16-0.32l-0.1,0.16c-0.57,1.27-3.13,8.15-3.9,10.18c-0.76,2.03-0.83,2.28-0.83,3.68v4h0.01
	c-0.01,0.94,0.77,1.81,2.08,2.16l27.13,7.2c1.71,0.45,3.68-0.17,4.4-1.4l4.9-8.4c0.18-0.32,0.27-0.64,0.26-0.96h0v-6.58
	C61.15,119.96,56.63,126.73,55.42,128.44L55.42,128.44z"/>
<polygon fill="#FBBC04" points="41.92,121.3 41.92,127.47 46.23,128.62 46.23,122.55 "/>
<path d="M22.37,92.29v15c0,0.53,0.63,0.95,1.41,0.95s1.41-0.43,1.41-0.95v-15H22.37L22.37,92.29z"/>
<path d="M30.67,82.35c-3.27-4.66-8.84-6.38-12.44-3.86l-1.44,1.01l0.15,0.21c-2.3,2.89-2.11,7.77,0.71,11.78
	c2.9,4.12,7.59,5.94,11.12,4.56l0.12,0.16l1.17-0.84c0,0,0.02-0.01,0.03-0.02c0.02-0.01,0.04-0.03,0.05-0.04l0.13-0.09h0
	C33.69,92.63,33.88,86.93,30.67,82.35L30.67,82.35z"/>
<path fill-rule="evenodd" clip-rule="evenodd" fill="#665E88" d="M29.23,82.75c-3.44-4.54-9.01-5.99-12.45-3.24
	c-3.44,2.76-3.44,8.67,0,13.21c3.44,4.54,9.01,5.99,12.45,3.24S32.67,87.29,29.23,82.75z"/>
<path fill="#131314" d="M25.7,83.21L25.7,83.21c-1.79-0.88-3.62-1.36-5.4-1.41c-0.94-0.03-1.62,0.69-1.62,1.71v5.17
	c0,0.74,0.35,1.49,0.88,2.02v1.14c0,0.34,0.26,0.69,0.59,0.78l0.59,0.15c0.33,0.08,0.59-0.13,0.59-0.47v-0.75l3.35,0.87v0.75
	c0,0.34,0.26,0.69,0.59,0.78l0.59,0.15c0.33,0.08,0.59-0.13,0.59-0.47v-1.14c0.53-0.26,0.88-0.82,0.88-1.56v-5.17
	C27.31,84.74,26.64,83.68,25.7,83.21L25.7,83.21z M20.74,90.15c-0.49-0.13-0.88-0.65-0.88-1.16s0.39-0.83,0.88-0.71
	c0.49,0.13,0.88,0.65,0.88,1.16C21.62,89.96,21.23,90.28,20.74,90.15z M25.26,91.33c-0.49-0.13-0.88-0.65-0.88-1.16
	s0.39-0.83,0.88-0.71c0.49,0.13,0.88,0.65,0.88,1.16C26.14,91.14,25.75,91.46,25.26,91.33z M26.44,88.63l-6.8-1.77v-3.1l6.8,1.77
	V88.63z"/>
<path fill="#131314" d="M27.19,109.91c0.64-0.93,1.82-0.82,2.16,0.32c0.38,1.27,2.98,11.48,3.3,12.37s0.63,1.78,1.71,0.57
	c1.08-1.21,7.04-7.93,8.31-9.32c1.27-1.39,2.93-1.71,4.07,0.76c1.13,2.47,5.24,11.8,5.81,13.01c0.7,1.52,1.84,2.27,2.87,0.82
	c1.21-1.71,5.72-8.48,5.72-8.48c0-2.73-0.39-3.46-0.68-4.04s-0.4-0.82-0.9-1.89c-1.22-2.71-4.42-9.97-5.4-12.11
	c-1.13-2.47-2.8-2.16-4.07-0.76c-1.27,1.4-7.23,8.12-8.31,9.33c-1.08,1.21-1.4,0.32-1.71-0.57c-0.32-0.89-2.92-11.1-3.3-12.37
	c-0.38-1.27-1.78-1.27-2.35,0l-0.03,0.02L27.19,109.91L27.19,109.91z"/>
<path fill="#131314" d="M139.26,70.75c-0.02-0.21-0.05-0.42-0.08-0.62c-0.25-1.79-1.25-4.28-3.4-6.28c-0.2-0.19-0.42-0.38-0.64-0.56
	c-0.46-0.37-0.97-0.72-1.53-1.04c-0.85-0.48-1.81-0.89-2.9-1.19c-2.01-0.56-16.8-4.36-18.87-4.92c-3.08,5.26-5.28,9.08-5.28,9.08
	c1.88,0.51,11.81,3.02,13.84,3.56c1.72,0.46,2.96,1.13,3.78,1.97c2.15,2.2,1.44,5.59-0.88,9.62c-0.05,0.09-0.1,0.17-0.15,0.26
	c-0.05,0.08-0.09,0.16-0.14,0.24c-1.17,1.98-2.26,3.86-3.23,5.53c0.7,0.19,2.17,0.58,3.85,1.03c0.21,0.06,0.43,0.12,0.65,0.17
	c2.7,0.73,5.73,1.54,6.91,1.87c0.26,0.07,0.68,0.19,1.12,0.31l0.04-0.07c0,0,0.47-0.81,1.28-2.21c0.39-0.67,0.85-1.47,1.38-2.38
	c0.2-0.34,0.4-0.69,0.61-1.05c0.4-0.69,0.83-1.43,1.29-2.21c0.13-0.23,0.26-0.46,0.38-0.68c0.08-0.16,0.16-0.31,0.24-0.47
	c1.14-2.28,1.64-4.46,1.8-6.39c0.04-0.43,0.06-0.84,0.06-1.25C139.39,72.24,139.34,71.45,139.26,70.75L139.26,70.75z"/>
<path fill="#96A6FB" d="M119.7,5.11H40.27c-9.07,0-16.42,7.35-16.42,16.42v36.73c0,9.07,7.35,16.42,16.42,16.42h25.03
	c4.35,0,5.64,1.95,6.56,3.59c0.93,1.64,2.36,4.07,4.14,7.28c0.96,1.73,1.65,2.72,2.3,3.28c0.1,0.09,0.21,0.17,0.33,0.25
	c0.04,0.02,0.08,0.05,0.11,0.07c0.01,0.01,0.03,0.01,0.04,0.02c0.21,0.12,0.43,0.19,0.65,0.24c0.01,0,0.02,0,0.04,0.01
	c0.05,0.01,0.11,0.02,0.16,0.02c0.04,0.01,0.09,0.01,0.13,0.01c0.05,0,0.1,0.01,0.14,0.01c0.01,0,0.02,0,0.04,0
	c0.01,0,0.03,0,0.04,0c0.01,0,0.03,0,0.04,0c0.01,0,0.02,0,0.04,0c0.05,0,0.1,0,0.14-0.01c0.04,0,0.09-0.01,0.13-0.01
	c0.05-0.01,0.11-0.01,0.16-0.02c0.01,0,0.02,0,0.04-0.01c0.22-0.04,0.44-0.12,0.65-0.24c0.01-0.01,0.03-0.01,0.04-0.02
	c0.04-0.02,0.08-0.04,0.11-0.07c0.12-0.07,0.23-0.16,0.33-0.25c0.65-0.56,1.34-1.55,2.3-3.28c1.78-3.21,3.21-5.64,4.14-7.28
	c0.93-1.64,2.21-3.59,6.56-3.59h25.03c9.07,0,16.42-7.35,16.42-16.42V21.53C136.12,12.47,128.77,5.11,119.7,5.11L119.7,5.11z"/>
<path fill-rule="evenodd" clip-rule="evenodd" fill="#131314" d="M105.99,32.93c-1.05-4.82-3.44-9.41-7.19-13.16
	c-10.4-10.4-27.17-10.43-37.61-0.05c-2.71,2.7-4.72,5.83-6.03,9.18c-0.32,0.82-1.01,1.43-1.87,1.63
	c-7.75,1.84-13.52,8.81-13.52,17.12c0,9.72,7.88,17.6,17.6,17.6c0.22,0,47.55-0.01,47.55-0.01v-0.06c8.43,0,15.26-6.83,15.26-15.26
	c0-7.36-5.22-13.51-12.16-14.94C107.01,34.76,106.21,33.96,105.99,32.93L105.99,32.93z"/>
<circle fill="#EEE4FF" cx="79.99" cy="53.86" r="5.09"/>
<path fill="#EEE4FF" d="M83.09,21.01h-6.2c-1.06,0-1.88,0.92-1.77,1.97l2.28,20.66c0.1,0.9,0.86,1.58,1.77,1.58h1.65
	c0.91,0,1.67-0.68,1.77-1.58l2.28-20.66C84.97,21.93,84.15,21.01,83.09,21.01L83.09,21.01z"/>
</svg>
