<?xml version="1.0" encoding="utf-8"?>
<!-- Generator: Adobe Illustrator 30.0.0, SVG Export Plug-In . SVG Version: 9.03 Build 0)  -->
<svg version="1.1" baseProfile="basic" id="Layer_1"
	 xmlns="http://www.w3.org/2000/svg" xmlns:xlink="http://www.w3.org/1999/xlink" x="0px" y="0px" width="160px" height="160px"
	 viewBox="0 0 160 160" xml:space="preserve">
<g>
	<path fill="#E9F8DF" d="M146.75,63.39l-31.54-8.45l-5.73-1.54l-11.57-3.1L81.66,78.45l-4.81,8.32l-1.45,2.51
		c-0.54,0.94-0.05,2.14,1.01,2.43l8.3,2.22c0.06,0.01,0.11,0.03,0.17,0.05l13.02,3.49c1.68,0.45,2.47,2.37,1.61,3.88l-3.09,5.34
		l-5.02,8.7l-19.06,33.01l12.65,3.39l9.71,2.6c0.25,0.07,0.51,0.13,0.77,0.18c0.51,0.11,1.03,0.2,1.54,0.27
		c0.26,0.03,0.51,0.06,0.77,0.08c6.66,0.59,13.21-2.43,17.07-7.99c0.3-0.43,0.58-0.87,0.84-1.33l11.85-20.53l0,0l1.65-2.85
		l1.69-2.93l1.68-2.92l21.05-36.46C157.3,73.5,153.91,65.31,146.75,63.39z"/>
	<path fill="#E9F8DF" d="M79.17,116.49l6.1-10.56c0.6-1.04,0.05-2.36-1.11-2.67L70,99.46c-3.06-0.82-5.12-3.31-5.63-6.13
		c-0.49-4.43,1.24-5.73,3.2-9.19L88.55,47.8l-23.08-6.19c-8.21-2.2-16.88,1.39-21.13,8.75L29.46,76.12l-3.93,6.8l0,0L6.41,116.05
		c-3.71,6.42-0.31,14.61,6.84,16.52l49.05,13.14l11.85-20.53L79.17,116.49z"/>
	<path fill="#C5D99B" d="M67.57,84.14L88.55,47.8l-23.08-6.19c-8.21-2.2-16.88,1.39-21.13,8.75L30.56,74.22L67.57,84.14z"/>
	<path fill="#C5D99B" d="M94.68,154.39c8.17,2.12,16.76-1.47,20.99-8.79l11.85-20.53l-13.8-3.7L94.68,154.39z"/>
	<polygon fill="#C5D99B" points="104.02,118.78 91.38,115.4 72.32,148.41 84.97,151.8 	"/>
	<path fill="#C5D99B" d="M64.37,93.33l-10.39-2.78l-9.59,16.62l34.79,9.32l6.1-10.56c0.6-1.04,0.05-2.36-1.11-2.67L70,99.46
		C66.94,98.64,64.88,96.15,64.37,93.33z"/>
	<path fill="#C5D99B" d="M146.75,63.39l-31.54-8.45l-2.58,4.49h0L99.06,83.01c-1.43,3.12-6.74,8.23-16.02,5.51
		c-2.35-0.69-4.41-1.27-6.18-1.75l-1.45,2.51c-0.54,0.94-0.05,2.14,1.01,2.43l8.3,2.22c0.06,0.01,0.11,0.03,0.17,0.05l13.02,3.49
		c1.68,0.45,2.47,2.37,1.61,3.88l-3.09,5.34l36.13,9.68l21.05-36.46C157.3,73.5,153.91,65.31,146.75,63.39z"/>
	<path fill="#C5D99B" d="M34.63,114.6c-2.51-0.67-3.7-3.54-2.4-5.79l2.45-4.25l9.59-16.62l-18.74-5.02L6.41,116.05
		c-3.71,6.42-0.31,14.61,6.84,16.52l49.05,13.14l11.85-20.53L34.63,114.6z"/>
	<path fill="#C5D99B" d="M84.73,79.32c1.69,0.44,5.4,0.46,7.24-2.74l7.18-12.47c0,0,0,0,0,0l6.72-11.67l-7.95-2.13L81.66,78.45
		C83.02,78.85,84.2,79.18,84.73,79.32z"/>
	<path fill="#00A07A" d="M77.38,105.49L77.38,105.49L77.38,105.49c-0.03-0.1-0.07-0.19-0.11-0.28l-4.87-12.09l0,0
		c-0.23-0.89-1.04-1.55-2.01-1.55c-0.97,0-1.78,0.66-2.01,1.55l0,0L63.5,105.2c-0.16,0.34-0.25,0.69-0.25,1.06
		c0,2.24,3.19,4.06,7.13,4.06c3.94,0,7.13-1.82,7.13-4.06C77.51,106,77.46,105.74,77.38,105.49z"/>
	<path fill="#2C6854" d="M116.99,102.53L116.99,102.53L116.99,102.53c-0.03-0.1-0.07-0.19-0.11-0.28L112,90.16l0,0
		c-0.23-0.89-1.04-1.55-2.01-1.55s-1.78,0.66-2.01,1.55l0,0l-4.87,12.09c-0.16,0.34-0.25,0.69-0.25,1.06c0,2.24,3.19,4.06,7.13,4.06
		c3.94,0,7.13-1.82,7.13-4.06C117.12,103.04,117.07,102.78,116.99,102.53z"/>
	<path fill="#F5F5F5" d="M121.04,84.33c0.68-1.17,1.41-2.41,2.16-3.7c3.37-5.71,3.59-10.17-2.75-11.87
		c-2.02-0.54-11.95-3.05-13.82-3.56h-0.04v13.87c0,0.9,0.6,1.68,1.47,1.92c1.58,0.43,10.86,2.76,12.4,3.17
		C120.66,84.22,120.86,84.27,121.04,84.33z"/>
	<path fill="#F5F5F5" d="M136.98,81.87c-2.7,4.62-4.57,7.85-4.57,7.85l-0.04,0.07c-0.44-0.12-0.86-0.24-1.12-0.31
		c-2.02-0.56-9.49-2.56-11.4-3.07h-0.02v13.48c0,1.13,0.76,2.12,1.85,2.41c2.97,0.8,7.97,2.14,9.57,2.58
		c0.26,0.07,0.68,0.19,1.12,0.31l0.04-0.07c0,0,1.86-3.24,4.57-7.85c1.97-3.36,2.5-6.55,2.49-9.14l0,0V73.05h0
		C139.43,75.58,138.87,78.64,136.98,81.87z"/>
	<path fill="#FC8BF1" d="M111.9,56.09c-3.09,5.27-5.29,9.1-5.29,9.1l0,0c1.88,0.51,11.83,3.02,13.86,3.57
		c6.34,1.71,6.11,6.16,2.75,11.87c-1.22,2.07-2.36,4.04-3.37,5.77l0,0l0,0c1.88,0.51,9.39,2.52,11.42,3.08l0,0
		c0.26,0.07,0.68,0.19,1.12,0.31l0.04-0.07c0,0,1.86-3.24,4.57-7.85c2.7-4.62,2.7-8.91,2.3-11.76s-2.7-7.48-8.49-9.09
		c-2.03-0.56-17.07-4.43-18.95-4.94l0,0"/>
	<path fill="#F5F5F5" d="M55.38,128.51c-1.03,1.45-2.18,0.7-2.88-0.82c-0.57-1.21-4.68-10.55-5.82-13.03
		c-1.13-2.48-2.8-2.16-4.08-0.76c-1.27,1.4-7.24,8.13-8.32,9.34c-1.08,1.21-1.4,0.32-1.71-0.57c-0.32-0.89-2.92-11.12-3.3-12.39
		c-0.34-1.15-1.52-1.26-2.16-0.32l-0.1,0.16c-0.57,1.27-3.14,8.16-3.9,10.2c-0.76,2.03-0.83,2.29-0.83,3.68c0,1.4,0,4,0,4h0.01
		c-0.01,0.94,0.77,1.82,2.08,2.16l27.17,7.21c1.72,0.45,3.69-0.17,4.4-1.4l4.91-8.41c0.18-0.32,0.27-0.64,0.26-0.96h0v-6.59
		C61.11,120.02,56.59,126.8,55.38,128.51z"/>
	<path fill="#FC8BF1" d="M27.01,110.12l7.32-12.54l0.03-0.02c0.57-1.27,1.97-1.27,2.35,0c0.38,1.27,2.99,11.5,3.3,12.39
		c0.32,0.89,0.63,1.78,1.71,0.57c1.08-1.21,7.05-7.94,8.32-9.34c1.27-1.4,2.94-1.71,4.08,0.76c0.98,2.14,4.19,9.41,5.41,12.13
		c0.5,1.07,0.61,1.31,0.9,1.89c0.29,0.58,0.68,1.32,0.68,4.05c0,0-4.52,6.78-5.73,8.49c-1.03,1.45-2.18,0.7-2.88-0.82
		c-0.57-1.21-4.68-10.55-5.82-13.03c-1.13-2.48-2.8-2.16-4.08-0.76c-1.27,1.4-7.24,8.13-8.32,9.34c-1.08,1.21-1.4,0.32-1.71-0.57
		c-0.32-0.89-2.92-11.12-3.3-12.39c-0.38-1.27-1.78-1.27-2.35,0"/>
	<polygon fill="#FF8FEA" points="41.86,121.36 41.86,127.54 46.18,128.69 46.18,122.62 	"/>
	<path d="M22.28,92.3v15.03c0,0.53,0.63,0.95,1.41,0.95c0.78,0,1.41-0.43,1.41-0.95V92.3H22.28z"/>
	<path d="M30.59,82.36c-3.28-4.66-8.85-6.39-12.45-3.86l-1.45,1.02l0.15,0.21c-2.31,2.89-2.11,7.78,0.71,11.8
		c2.9,4.13,7.6,5.95,11.14,4.57l0.12,0.16l1.17-0.85c0.01-0.01,0.02-0.01,0.03-0.02c0.02-0.01,0.04-0.03,0.05-0.04l0.13-0.09l0,0
		C33.62,92.65,33.82,86.94,30.59,82.36z"/>
	
		<ellipse transform="matrix(0.8219 -0.5696 0.5696 0.8219 -45.8958 28.6835)" fill-rule="evenodd" clip-rule="evenodd" fill="#FF8FEA" cx="22.92" cy="87.74" rx="7.98" ry="10.34"/>
	<path fill="#FFFFFF" d="M25.62,83.22L25.62,83.22c-1.79-0.88-3.63-1.36-5.41-1.41c-0.94-0.03-1.62,0.69-1.62,1.71v5.18
		c0,0.74,0.35,1.49,0.88,2.02v1.14c0,0.34,0.26,0.69,0.59,0.78l0.59,0.15c0.33,0.08,0.59-0.13,0.59-0.47v-0.75l3.35,0.87v0.75
		c0,0.34,0.26,0.69,0.59,0.78l0.59,0.15c0.33,0.08,0.59-0.13,0.59-0.47v-1.14c0.53-0.26,0.88-0.82,0.88-1.56v-5.18
		C27.24,84.74,26.56,83.68,25.62,83.22z M20.65,90.17c-0.49-0.13-0.88-0.65-0.88-1.17c0-0.52,0.4-0.83,0.88-0.71
		c0.49,0.13,0.88,0.65,0.88,1.17C21.53,89.98,21.14,90.3,20.65,90.17z M25.18,91.35c-0.49-0.13-0.88-0.65-0.88-1.17
		s0.4-0.83,0.88-0.71c0.49,0.13,0.88,0.65,0.88,1.17C26.06,91.16,25.67,91.47,25.18,91.35z M26.35,88.64l-6.81-1.77v-3.1l6.81,1.77
		V88.64z"/>
	<path fill="#4285F4" d="M119.76,5H40.21c-9.08,0-16.44,7.36-16.44,16.44v36.79c0,9.08,7.36,16.44,16.44,16.44h25.07
		c4.36,0,5.64,1.95,6.57,3.6c0.93,1.64,2.36,4.07,4.14,7.29c0.96,1.73,1.65,2.73,2.3,3.28c0.1,0.09,0.21,0.17,0.33,0.25
		c0.04,0.02,0.08,0.05,0.11,0.07c0.01,0.01,0.03,0.01,0.04,0.02c0.21,0.12,0.43,0.19,0.65,0.24c0.01,0,0.02,0,0.04,0.01
		c0.05,0.01,0.11,0.02,0.16,0.02c0.04,0.01,0.09,0.01,0.13,0.01c0.05,0,0.1,0.01,0.14,0.01c0.01,0,0.02,0,0.04,0s0.03,0,0.04,0
		c0.01,0,0.03,0,0.04,0s0.02,0,0.04,0c0.05,0,0.1,0,0.14-0.01c0.04,0,0.09-0.01,0.13-0.01c0.05-0.01,0.11-0.01,0.16-0.02
		c0.01,0,0.02,0,0.04-0.01c0.22-0.04,0.44-0.12,0.65-0.24c0.01-0.01,0.03-0.01,0.04-0.02c0.04-0.02,0.08-0.04,0.11-0.07
		c0.12-0.07,0.23-0.16,0.33-0.25c0.65-0.56,1.34-1.55,2.3-3.28c1.79-3.22,3.22-5.64,4.14-7.29c0.93-1.64,2.21-3.6,6.57-3.6h25.07
		c9.08,0,16.44-7.36,16.44-16.44V21.44C136.2,12.36,128.84,5,119.76,5z"/>
	<path fill-rule="evenodd" clip-rule="evenodd" fill="#FFFFFF" d="M106.03,32.86c-1.05-4.83-3.45-9.42-7.2-13.18
		C88.41,9.26,71.61,9.24,61.17,19.63c-2.71,2.7-4.73,5.84-6.04,9.19c-0.32,0.82-1.01,1.43-1.87,1.64
		C45.5,32.3,39.72,39.28,39.72,47.6c0,9.73,7.89,17.62,17.62,17.62c0.22,0,47.63-0.01,47.63-0.01v-0.06
		c8.44,0,15.28-6.84,15.28-15.28c0-7.37-5.22-13.53-12.17-14.96C107.05,34.69,106.25,33.89,106.03,32.86z"/>
	<ellipse fill="#202FAE" cx="79.99" cy="53.82" rx="5.09" ry="5.09"/>
	<path fill="#202FAE" d="M83.09,20.92h-6.21c-1.06,0-1.89,0.92-1.77,1.98l2.28,20.69c0.1,0.9,0.86,1.59,1.77,1.59h1.65
		c0.91,0,1.67-0.68,1.77-1.59l2.28-20.69C84.98,21.84,84.15,20.92,83.09,20.92z"/>
</g>
</svg>
