<?xml version="1.0" encoding="utf-8"?>
<!-- Generator: Adobe Illustrator 30.0.0, SVG Export Plug-In . SVG Version: 9.03 Build 0)  -->
<svg version="1.1" baseProfile="basic" id="Layer_1"
	 xmlns="http://www.w3.org/2000/svg" xmlns:xlink="http://www.w3.org/1999/xlink" x="0px" y="0px" width="320px" height="320px"
	 viewBox="0 0 320 320" xml:space="preserve">
<g>
	<g id="ISLAND_00000170266840741541307220000009388103986869060022_">
		<g>
			<path fill="#E9F8DF" d="M293.74,126.72l-63.19-16.93l-11.49-3.08l-23.19-6.21l-32.56,56.4l-9.63,16.68l-2.91,5.03
				c-1.09,1.89-0.09,4.29,2.01,4.86l16.62,4.45c0.11,0.03,0.23,0.06,0.34,0.1l26.08,6.99c3.36,0.9,4.96,4.75,3.22,7.76l-6.19,10.71
				l-10.07,17.44l-38.2,66.14l25.35,6.79l19.45,5.21c0.51,0.13,1.02,0.26,1.54,0.36c1.03,0.22,2.06,0.4,3.08,0.53
				c0.51,0.07,1.03,0.12,1.54,0.17c13.35,1.18,26.47-4.87,34.21-16.01c0.6-0.86,1.16-1.74,1.69-2.66l23.75-41.13l0,0l3.3-5.71
				l3.39-5.88l3.38-5.85l42.18-73.05C314.88,146.97,308.09,130.57,293.74,126.72z"/>
			<path fill="#E9F8DF" d="M158.35,233.11l12.22-21.16c1.2-2.08,0.1-4.73-2.22-5.35l-28.39-7.61c-6.14-1.64-10.26-6.63-11.28-12.29
				c-0.98-8.88,2.49-11.48,6.41-18.42l42.04-72.81l-46.25-12.39c-16.46-4.41-33.82,2.78-42.34,17.54l-29.79,51.6l-7.87,13.64l0,0
				l-38.33,66.39c-7.43,12.86-0.63,29.27,13.71,33.11l98.27,26.33l23.75-41.14L158.35,233.11z"/>
		</g>
		<g>
			<path fill="#C5D99B" d="M135.09,168.29l42.04-72.81l-46.25-12.39c-16.46-4.41-33.82,2.78-42.34,17.54l-27.6,47.8L135.09,168.29z"
				/>
			<path fill="#C5D99B" d="M189.41,309.06c16.37,4.25,33.59-2.94,42.06-17.61l23.75-41.13l-27.65-7.41L189.41,309.06z"/>
			<polygon fill="#C5D99B" points="208.12,237.7 182.81,230.92 144.61,297.06 169.96,303.86 			"/>
			<path fill="#C5D99B" d="M128.68,186.7l-20.81-5.58l-19.21,33.3l69.7,18.68l12.22-21.16c1.2-2.08,0.1-4.73-2.22-5.35l-28.39-7.61
				C133.82,197.35,129.7,192.37,128.68,186.7z"/>
			<path fill="#C5D99B" d="M293.74,126.72l-63.19-16.93l-5.18,8.99h0l-27.2,47.26c-2.86,6.24-13.51,16.5-32.1,11.04
				c-4.71-1.38-8.84-2.54-12.39-3.5l-2.91,5.03c-1.09,1.89-0.09,4.29,2.01,4.86l16.62,4.45c0.11,0.03,0.23,0.06,0.34,0.1l26.08,6.99
				c3.36,0.9,4.96,4.75,3.22,7.76l-6.19,10.71l72.4,19.4l42.18-73.05C314.88,146.97,308.09,130.57,293.74,126.72z"/>
			<path fill="#C5D99B" d="M69.1,229.32c-5.03-1.35-7.41-7.09-4.81-11.6l4.91-8.51l19.21-33.3l-37.55-10.06l-38.32,66.39
				c-7.43,12.86-0.63,29.27,13.71,33.11l98.27,26.33l23.75-41.14L69.1,229.32z"/>
			<path fill="#C5D99B" d="M169.48,158.64c3.39,0.89,10.81,0.92,14.5-5.5l14.38-24.98c0,0,0,0,0,0l13.46-23.39l-15.93-4.27
				l-32.56,56.4C166.06,157.69,168.42,158.36,169.48,158.64z"/>
		</g>
	</g>
	<g id="Props_00000155131330384215327250000003262755859498180767_">
		<g>
			<path fill="#00A07A" d="M154.75,211.07L154.75,211.07L154.75,211.07c-0.06-0.19-0.14-0.38-0.23-0.57l-9.77-24.22l0,0
				c-0.47-1.79-2.09-3.11-4.02-3.11s-3.56,1.32-4.02,3.11l0,0l-9.77,24.22c-0.32,0.68-0.49,1.38-0.49,2.12
				c0,4.5,6.4,8.14,14.28,8.14c7.89,0,14.28-3.65,14.28-8.14C155.01,212.09,154.92,211.57,154.75,211.07z"/>
			<path fill="#2C6854" d="M234.11,205.14L234.11,205.14L234.11,205.14c-0.06-0.19-0.14-0.38-0.23-0.57l-9.77-24.22l0,0
				c-0.47-1.79-2.09-3.11-4.02-3.11c-1.94,0-3.56,1.32-4.02,3.11l0,0l-9.77,24.22c-0.32,0.68-0.49,1.38-0.49,2.12
				c0,4.5,6.4,8.14,14.28,8.14c7.88,0,14.28-3.65,14.28-8.14C234.38,206.16,234.28,205.64,234.11,205.14z"/>
		</g>
		<g>
			<g>
				<path fill="#F5F5F5" d="M242.24,168.68c1.37-2.35,2.82-4.84,4.34-7.41c6.75-11.44,7.2-20.38-5.5-23.79
					c-4.05-1.09-23.94-6.12-27.7-7.13h-0.08v27.8c0,1.8,1.2,3.37,2.94,3.84c3.16,0.86,21.76,5.53,24.84,6.36
					C241.48,168.45,241.86,168.56,242.24,168.68z"/>
				<path fill="#F5F5F5" d="M274.17,163.75c-5.41,9.25-9.15,15.74-9.15,15.74l-0.08,0.13c-0.88-0.24-1.73-0.48-2.24-0.62
					c-4.05-1.13-19.01-5.12-22.85-6.16h-0.04v27.01c0,2.27,1.52,4.25,3.71,4.84c5.95,1.6,15.98,4.28,19.18,5.17
					c0.51,0.14,1.36,0.38,2.24,0.62l0.08-0.13c0,0,3.74-6.49,9.15-15.74c3.94-6.74,5.01-13.13,4.99-18.32l0,0v-30.23h0
					C279.08,151.14,277.95,157.28,274.17,163.75z"/>
			</g>
			<path fill="#FC8BF1" d="M223.91,112.08c-6.19,10.56-10.61,18.24-10.61,18.24l0,0c3.77,1.02,23.7,6.06,27.77,7.15
				c12.7,3.42,12.25,12.34,5.5,23.79c-2.45,4.16-4.73,8.09-6.76,11.57l0,0l0,0c3.77,1.02,18.82,5.04,22.89,6.17l0,0
				c0.51,0.14,1.36,0.38,2.24,0.62l0.08-0.13c0,0,3.74-6.49,9.15-15.74c5.41-9.25,5.41-17.84,4.61-23.57
				c-0.8-5.72-5.41-14.99-17.01-18.2c-4.07-1.13-34.2-8.88-37.97-9.9l0,0"/>
		</g>
		<g>
			<path fill="#F5F5F5" d="M110.67,257.2c-2.07,2.91-4.36,1.4-5.77-1.65c-1.14-2.42-9.38-21.13-11.65-26.1
				c-2.27-4.96-5.62-4.33-8.17-1.53c-2.55,2.8-14.51,16.29-16.68,18.71c-2.16,2.42-2.8,0.64-3.44-1.14
				c-0.64-1.78-5.86-22.28-6.62-24.82c-0.69-2.3-3.05-2.52-4.34-0.65l-0.19,0.33c-1.14,2.55-6.29,16.36-7.82,20.43
				s-1.66,4.58-1.66,7.38s0,8.02,0,8.02h0.01c-0.02,1.88,1.54,3.64,4.17,4.34l54.44,14.45c3.44,0.91,7.39-0.34,8.83-2.8l9.84-16.85
				c0.37-0.63,0.53-1.28,0.52-1.92h0v-13.21C122.16,240.18,113.09,253.76,110.67,257.2z"/>
			<path fill="#FC8BF1" d="M53.83,220.34l14.66-25.12l0.06-0.03c1.14-2.55,3.95-2.55,4.71,0c0.77,2.55,5.98,23.04,6.62,24.82
				c0.64,1.78,1.27,3.56,3.44,1.14c2.16-2.42,14.13-15.91,16.68-18.71c2.55-2.8,5.89-3.44,8.17,1.53
				c1.97,4.29,8.39,18.86,10.83,24.3c1.01,2.15,1.22,2.63,1.8,3.8c0.59,1.17,1.37,2.64,1.37,8.11c0,0-9.07,13.58-11.49,17.02
				c-2.07,2.91-4.36,1.4-5.77-1.65c-1.14-2.42-9.38-21.13-11.65-26.1c-2.27-4.96-5.62-4.33-8.17-1.53
				c-2.55,2.8-14.51,16.29-16.68,18.71c-2.16,2.42-2.8,0.64-3.44-1.14c-0.64-1.78-5.86-22.28-6.62-24.82
				c-0.77-2.55-3.56-2.55-4.71,0"/>
			<polygon fill="#FF8FEA" points="83.58,242.87 83.58,255.26 92.23,257.57 92.23,245.39 			"/>
		</g>
		<g>
			<path d="M44.34,184.65v30.11c0,1.06,1.27,1.91,2.83,1.91c1.56,0,2.83-0.86,2.83-1.91v-30.11H44.34z"/>
			<path d="M61.01,164.72c-6.57-9.34-17.74-12.81-24.96-7.74l-2.9,2.04l0.3,0.42c-4.62,5.8-4.23,15.59,1.43,23.65
				c5.81,8.27,15.23,11.93,22.32,9.15l0.23,0.32l2.35-1.7c0.02-0.01,0.04-0.02,0.05-0.03c0.04-0.03,0.07-0.06,0.11-0.08l0.26-0.18
				l0,0C67.06,185.34,67.46,173.9,61.01,164.72z"/>
			<g>
				
					<ellipse transform="matrix(0.8219 -0.5696 0.5696 0.8219 -91.8453 57.2525)" fill-rule="evenodd" clip-rule="evenodd" fill="#FF8FEA" cx="45.64" cy="175.51" rx="15.99" ry="20.71"/>
				<path fill="#FFFFFF" d="M51.04,166.44l-0.02-0.01c-3.56-1.76-7.25-2.72-10.82-2.82c-1.89-0.05-3.24,1.38-3.24,3.44v10.38
					c0,1.49,0.7,2.98,1.77,4.05v2.29c0,0.69,0.53,1.39,1.18,1.56l1.18,0.31c0.65,0.17,1.18-0.26,1.18-0.95v-1.5l6.71,1.75v1.5
					c0,0.69,0.53,1.39,1.18,1.56l1.18,0.31c0.65,0.17,1.18-0.26,1.18-0.95v-2.29c1.07-0.51,1.77-1.64,1.77-3.13v-10.37
					C54.28,169.51,52.93,167.38,51.04,166.44z M41.08,180.38c-0.98-0.26-1.77-1.3-1.77-2.34c0-1.04,0.79-1.67,1.77-1.42
					c0.98,0.26,1.77,1.3,1.77,2.34C42.85,180,42.06,180.63,41.08,180.38z M50.15,182.74c-0.98-0.26-1.77-1.3-1.77-2.34
					c0-1.04,0.79-1.67,1.77-1.42c0.98,0.26,1.77,1.3,1.77,2.34C51.92,182.36,51.13,182.99,50.15,182.74z M52.51,177.31l-13.65-3.55
					v-6.21l13.65,3.55V177.31z"/>
			</g>
		</g>
	</g>
	<g id="Pin_00000121974821920281476710000013875472056437232265_">
		<g>
			<path fill="#4285F4" d="M239.66,9.72H80.28c-18.2,0-32.95,14.75-32.95,32.95v73.72c0,18.2,14.75,32.95,32.95,32.95h50.23
				c8.73,0,11.31,3.92,13.17,7.21c1.86,3.29,4.73,8.16,8.3,14.6c1.92,3.46,3.31,5.46,4.61,6.58c0.21,0.18,0.42,0.35,0.66,0.5
				c0.08,0.05,0.15,0.09,0.23,0.14c0.03,0.01,0.05,0.03,0.08,0.04c0.43,0.23,0.86,0.39,1.31,0.48c0.02,0,0.05,0.01,0.07,0.01
				c0.11,0.02,0.21,0.04,0.32,0.05c0.09,0.01,0.18,0.02,0.26,0.03c0.09,0.01,0.19,0.01,0.29,0.01c0.03,0,0.05,0,0.08,0
				s0.05,0,0.08,0c0.03,0,0.05,0,0.08,0c0.03,0,0.05,0,0.08,0c0.1,0,0.2-0.01,0.29-0.01c0.09-0.01,0.18-0.01,0.26-0.03
				c0.11-0.01,0.22-0.03,0.32-0.05c0.02,0,0.05-0.01,0.07-0.01c0.45-0.09,0.88-0.24,1.31-0.48c0.03-0.01,0.05-0.03,0.08-0.04
				c0.08-0.05,0.15-0.09,0.23-0.14c0.23-0.15,0.45-0.31,0.66-0.5c1.3-1.11,2.69-3.11,4.61-6.58c3.58-6.44,6.44-11.31,8.3-14.6
				c1.86-3.29,4.44-7.21,13.17-7.21h50.23c18.2,0,32.95-14.75,32.95-32.95V42.67C272.61,24.48,257.86,9.72,239.66,9.72z"/>
			<path fill-rule="evenodd" clip-rule="evenodd" fill="#FFFFFF" d="M212.15,65.55c-2.1-9.68-6.91-18.88-14.43-26.4
				c-20.88-20.88-54.53-20.92-75.46-0.11c-5.44,5.41-9.47,11.7-12.09,18.41c-0.64,1.64-2.03,2.87-3.75,3.28
				C90.87,64.43,79.3,78.41,79.3,95.09c0,19.5,15.81,35.31,35.31,35.31c0.45,0,95.43-0.03,95.43-0.03v-0.12
				c16.91,0,30.62-13.71,30.62-30.62c0-14.78-10.47-27.1-24.39-29.98C214.2,69.22,212.6,67.6,212.15,65.55z"/>
			<g>
				
					<ellipse transform="matrix(0.3162 -0.9487 0.9487 0.3162 7.3589 225.3053)" fill="#202FAE" cx="159.98" cy="107.55" rx="10.21" ry="10.21"/>
				<path fill="#202FAE" d="M166.2,41.62h-12.45c-2.12,0-3.78,1.85-3.54,3.96l4.57,41.45c0.2,1.81,1.73,3.18,3.54,3.18h3.32
					c1.82,0,3.35-1.37,3.54-3.18l4.57-41.45C169.97,43.47,168.32,41.62,166.2,41.62z"/>
			</g>
		</g>
	</g>
</g>
</svg>
