<?xml version="1.0" encoding="UTF-8"?>
<svg width="88" height="88" viewBox="0 0 88 88" fill="none" xmlns="http://www.w3.org/2000/svg">
<path d="M28.7159 67.052C27.737 65.8935 26.4732 65.3235 25.2403 65.3482C25.2279 65.3482 25.2156 65.3482 25.197 65.3482C25.1846 65.3482 25.1721 65.3482 25.1535 65.3482C23.9206 65.3235 22.6631 65.8935 21.6842 67.052C19.5963 69.524 19.6022 73.8423 21.6963 76.3143C22.669 77.4605 23.9268 78.0243 25.1535 77.9995C25.1659 77.9995 25.1785 77.9995 25.197 77.9995C25.2094 77.9995 25.2217 77.9995 25.2403 77.9995C26.467 78.0243 27.7308 77.4605 28.7035 76.3143C30.8038 73.8423 30.8038 69.524 28.7159 67.052Z" fill="#8C9196"/>
<path d="M46.5595 75.2176C37.9601 75.2176 29.3667 75.2114 20.7673 75.2176C18.066 75.2176 16.4119 74.0776 15.8729 71.4445C14.8878 66.6244 15.0923 61.8477 16.8766 57.201C20.024 49.0105 25.3955 42.8088 33.27 38.8623C35.8597 37.5674 38.623 36.985 41.5287 37.0036C47.086 37.0346 52.6372 37.016 58.1946 37.0222C67.872 37.0284 74.334 42.4247 75.7837 52.0711C76.8742 59.3385 76.6884 66.5996 74.6067 73.7369C74.2783 74.8583 73.8508 75.2486 72.6427 75.2424C63.9504 75.1804 55.2518 75.2114 46.5595 75.2114V75.2176Z" fill="#4285F4"/>
<path d="M29.9116 70.4408H20.8228C19.9183 70.4408 19.1871 69.7097 19.1871 68.8052C19.1871 67.9006 19.9183 67.1696 20.8228 67.1696H29.9116C30.8162 67.1696 31.5473 67.9006 31.5473 68.8052C31.5535 69.7035 30.8162 70.4408 29.9116 70.4408Z" stroke="#3A77CE" stroke-width="0.789" stroke-miterlimit="10" stroke-linecap="round" stroke-linejoin="round"/>
<path d="M59.2482 57.5725C59.2854 57.5725 59.3224 57.5663 59.3595 57.5477L63.3186 55.5156C63.4363 55.4536 63.4858 55.3049 63.4238 55.1872C63.3619 55.0695 63.2133 55.0199 63.0956 55.0819L59.1366 57.114C59.0189 57.176 58.9694 57.3247 59.0313 57.4424C59.0747 57.5229 59.1615 57.5725 59.2482 57.5725Z" fill="#3A77CE"/>
<path d="M51.8817 72.5967C51.8941 72.5967 51.9063 72.5967 51.9249 72.5905L59.2915 71.3638C59.4216 71.339 59.5144 71.2151 59.4896 71.085C59.4649 70.9548 59.3411 70.8619 59.211 70.8867L51.8445 72.1134C51.7143 72.1382 51.6215 72.2621 51.6463 72.3922C51.6587 72.5099 51.7639 72.5967 51.8817 72.5967Z" fill="#3A77CE"/>
<path d="M72.3772 60.2424V55.3542C72.3772 53.4274 73.8393 51.8351 75.7103 51.6245C75.7351 51.7731 75.76 51.9156 75.7847 52.0643C75.7847 52.0767 75.7908 52.0891 75.7908 52.1015C74.149 52.275 72.8667 53.6628 72.8667 55.348V60.2362C72.8667 62.0391 74.3288 63.5013 76.1317 63.5013H76.3486C76.3362 63.6624 76.3299 63.8296 76.3175 63.9907H76.1254C74.0623 63.9969 72.3772 62.3117 72.3772 60.2424Z" fill="#3A77CE"/>
<path d="M40.8545 65.3476C42.0936 63.8793 43.7538 63.0677 45.4575 63.0862C45.4699 63.0862 45.4762 63.0862 45.4948 63.0862C45.5133 63.0862 45.5009 63.0862 45.5876 63.0862C45.6062 63.0862 45.6062 63.0862 45.6124 63.0862C47.2976 63.0677 48.9705 63.8855 50.2158 65.3476C52.3842 67.9126 52.8241 72.0078 51.5478 75.2109C51.3743 75.2109 51.2009 75.2109 51.0275 75.2109C52.3347 72.1503 51.9383 68.1542 49.838 65.6636C48.6856 64.3006 47.1365 63.5571 45.5876 63.5695C45.5752 63.5695 45.563 63.5695 45.5568 63.5695C45.5444 63.5695 45.5259 63.5695 45.5135 63.5695C45.5011 63.5695 45.4887 63.5695 45.4763 63.5695C43.9274 63.5571 42.3847 64.2944 41.2323 65.6636C39.132 68.1542 38.7354 72.1565 40.0489 75.2171C39.8754 75.2171 39.702 75.2171 39.5285 75.2171C38.2461 72.014 38.686 67.9188 40.8545 65.3476Z" fill="white"/>
<path d="M61.0825 65.3476C62.3216 63.8793 63.9756 63.0677 65.6856 63.0862C65.698 63.0862 65.7042 63.0862 65.7228 63.0862C65.7414 63.0862 65.7354 63.0862 65.816 63.0862C65.8346 63.0862 65.8343 63.0862 65.8405 63.0862C67.5257 63.0677 69.1986 63.8855 70.4439 65.3476C72.6185 67.925 73.0585 72.0326 71.7698 75.2357C71.5963 75.2357 71.4228 75.2357 71.2555 75.2357C72.5752 72.1689 72.1849 68.1542 70.0784 65.6636C68.9261 64.3006 67.3833 63.5571 65.8344 63.5695C65.822 63.5695 65.8098 63.5695 65.8036 63.5695C65.7912 63.5695 65.7724 63.5695 65.76 63.5695C65.7476 63.5695 65.7352 63.5695 65.7228 63.5695C64.1739 63.5571 62.6253 64.2944 61.4791 65.6636C59.3788 68.148 58.9821 72.1441 60.2893 75.2047C60.1158 75.2047 59.9425 75.2047 59.769 75.2047C58.4741 72.0016 58.9141 67.9126 61.0825 65.3476Z" fill="white"/>
<path d="M49.0435 67.052C48.0646 65.8934 46.8008 65.3234 45.5679 65.3482C45.5555 65.3482 45.5433 65.3482 45.5247 65.3482C45.5123 65.3482 45.4997 65.3482 45.4811 65.3482C44.2482 65.3234 42.9904 65.8934 42.0116 67.052C39.9237 69.524 39.9299 73.8422 42.024 76.3143C42.9967 77.4604 44.2544 78.0242 45.4811 77.9994C45.4935 77.9994 45.5061 77.9994 45.5247 77.9994C45.5371 77.9994 45.5493 77.9994 45.5679 77.9994C46.7946 78.0242 48.0584 77.4604 49.0311 76.3143C51.1314 73.8422 51.1376 69.524 49.0435 67.052Z" fill="#BEC3C8"/>
<path d="M69.2728 67.052C68.2939 65.8935 67.0302 65.3235 65.8035 65.3482C65.7911 65.3482 65.7786 65.3482 65.76 65.3482C65.7476 65.3482 65.7353 65.3482 65.7167 65.3482C64.4838 65.3235 63.2261 65.8935 62.2472 67.052C60.1593 69.524 60.1655 73.8423 62.2596 76.3143C63.2323 77.4605 64.49 78.0243 65.7167 77.9995C65.7291 77.9995 65.7414 77.9995 65.76 77.9995C65.7724 77.9995 65.7849 77.9995 65.8035 77.9995C67.0302 78.0243 68.294 77.4605 69.2667 76.3143C71.3608 73.8423 71.3669 69.524 69.2728 67.052Z" fill="#BEC3C8"/>
<path d="M39.3356 57.1822C41.188 57.1822 42.8545 57.2008 44.5273 57.176C45.7664 57.1574 46.6835 56.6246 46.9995 55.3669C47.3403 54.0225 46.2993 52.8144 44.6946 52.6843C43.9264 52.6223 43.1521 52.6595 42.3777 52.6595C41.6652 52.6533 40.9526 52.6595 40.0728 52.6595C40.2091 52.1081 40.2401 51.7302 40.395 51.4018C43.2387 45.1381 47.6872 40.572 54.5642 39.0975C58.8143 38.1867 62.86 38.9798 65.8462 42.5979C68.6962 46.0488 67.8598 50.8999 63.8699 52.9631C58.2568 55.8688 52.5693 58.632 46.857 61.3394C43.7345 62.8201 40.7419 61.2031 39.3356 57.1822Z" fill="#EFF2F3"/>
<path d="M48.3444 39.7668C47.9788 40.0456 47.6072 40.3182 47.2417 40.6032C42.3472 44.4258 38.5491 49.0663 36.4364 54.983C35.8417 56.6434 34.9929 57.2939 33.1962 57.3063C28.9027 57.3311 24.6031 57.3435 20.3096 57.3063C17.9925 57.2877 17.1561 55.8504 18.1908 53.781C21.0469 48.0812 25.1484 43.5089 30.6066 40.2005C31.3005 39.7792 32.2111 39.5189 33.0289 39.5066C38.0906 39.4446 43.1586 39.4756 48.2203 39.4756C48.2575 39.5685 48.301 39.6676 48.3444 39.7668Z" fill="#EFF2F3"/>
<path d="M59.2479 38.2737V56.1231" stroke="#4285F4" stroke-width="0.789" stroke-miterlimit="10" stroke-linecap="round" stroke-linejoin="round"/>
<path d="M35.6863 59.2453C36.8449 59.2329 37.8301 60.5216 37.8363 62.0457C37.8363 63.4335 36.8449 64.7036 35.7235 64.7408C34.5464 64.7841 33.5056 63.5079 33.4994 62.0085C33.4932 60.503 34.4782 59.2577 35.6863 59.2453Z" fill="white"/>
<path d="M17.7876 62.0147C17.8062 63.4397 16.821 64.747 15.7368 64.7346C15.5943 64.7346 15.4581 64.7098 15.3218 64.6664C15.4023 62.8945 15.681 61.135 16.1643 59.394C17.0502 59.71 17.7752 60.8128 17.7876 62.0147Z" fill="white"/>
<path d="M26.0298 34.9776C34.584 34.9776 41.5186 28.043 41.5186 19.4888C41.5186 10.9346 34.584 4 26.0298 4C17.4756 4 10.541 10.9346 10.541 19.4888C10.541 28.043 17.4756 34.9776 26.0298 34.9776Z" fill="#34A853"/>
<path fill-rule="evenodd" clip-rule="evenodd" d="M27.4747 13.7063H28.6818C29.2095 13.7063 29.6432 14.14 29.6432 14.6676V25.7556C29.6432 26.2832 29.2095 26.7169 28.6746 26.7169H23.3764C22.8487 26.7169 22.415 26.2832 22.415 25.7483V14.6676C22.415 14.14 22.8487 13.7063 23.3764 13.7063H24.5835V12.2607H27.4747V13.7063ZM25.3063 21.2958V25.2713L28.1975 19.8502H26.7519V15.8747L23.8607 21.2958H25.3063Z" fill="white"/>
</svg>
