<?xml version="1.0" encoding="utf-8"?>
<!-- Generator: Adobe Illustrator 30.0.0, SVG Export Plug-In . SVG Version: 9.03 Build 0)  -->
<svg version="1.1" baseProfile="basic" id="Layer_1"
	 xmlns="http://www.w3.org/2000/svg" xmlns:xlink="http://www.w3.org/1999/xlink" x="0px" y="0px" width="360px" height="300px"
	 viewBox="0 0 360 300" xml:space="preserve">
<g>
	<rect x="0.33" fill="#DEF5FF" width="359.67" height="300"/>
	
		<rect x="113.58" y="193.18" transform="matrix(0.5423 -0.8402 0.8402 0.5423 -103.7901 239.8116)" fill="#06B0FF" width="109.27" height="43.97"/>
	<circle fill="#64BEFF" cx="219.86" cy="134.82" r="49.05"/>
	<path fill="#9CDAFF" d="M138.24,0h108.73v43.18c0,7.58-6.15,13.73-13.73,13.73h-81.26c-7.58,0-13.73-6.15-13.73-13.73L138.24,0
		L138.24,0L138.24,0z"/>
	<path fill="#06B0FF" d="M360,98.01v62.77c-45.42-5.34-80.66-43.98-80.66-90.84V0h61.93v70.93l-0.01-0.01
		C341.26,83.31,349.05,93.89,360,98.01z"/>
	<path fill="#06B0FF" d="M120.34,67.39c-10.26-19.76-27.89-34.64-49.15-41.4c-8.26-2.54-16.8-3.81-25.33-3.81
		c-8.54,0-17.07,1.27-25.33,3.81c-7.2,2.29-13.97,5.51-20.2,9.53v154.86c7.28,9.14,14.89,18.93,22.2,30.35
		c17.01,26.39,12.25,42.14,23.26,42.14h0.13c11.01,0,6.26-15.75,23.27-42.14c28.01-43.78,60.65-63.67,60.65-114.69
		C129.84,92.53,126.59,79.27,120.34,67.39z M45.81,138.18c-17.72,0-32.08-14.36-32.08-32.08c0-17.72,14.36-32.08,32.08-32.08
		s32.08,14.36,32.08,32.08C77.89,123.82,63.53,138.18,45.81,138.18z"/>
	<path fill="#64BEFF" d="M116.06,245.99c-27.09,0-49.05,21.96-49.05,49.05c0,1.68,0.08,3.33,0.25,4.96h97.61
		c0.16-1.63,0.25-3.29,0.25-4.96C165.12,267.95,143.15,245.99,116.06,245.99L116.06,245.99z"/>
	<path fill="#9CDAFF" d="M360,213.21V300H205.87c-0.82-5-1.25-10.12-1.25-15.35c0-51.97,42.13-94.11,94.11-94.11h0.01
		C322.14,190.54,343.54,199.07,360,213.21z"/>
</g>
<rect fill="none" width="360" height="300"/>
</svg>
