<svg width="44" height="44" xmlns="http://www.w3.org/2000/svg"><path d="M31.06598 43.21762l-4.8449-6.62434H17.4373l-4.77452 6.54448-4.46372.02783 4.7248-6.57231-8.7451-.05566v-4.45334h35.35611v4.45334l-8.8998.05566 4.85042 6.62434zM15.22754 19.8376c.62426 0 1.14907-.21154 1.57445-.64017.42001-.4178.64994-.99198.6353-1.5865 0-.62904-.20992-1.15787-.6353-1.5865-.41463-.42323-.98444-.65491-1.57445-.64017-.59001-.01471-1.15982.21694-1.57445.64017-.42001.4178-.64994.99197-.6353 1.5865 0 .62903.20992 1.15787.6353 1.5865.41463.42322.98444.6549 1.57445.64017zm13.25854 0c.62426 0 1.14908-.21154 1.57446-.64017.42-.4178.64993-.99198.6353-1.5865 0-.62904-.20992-1.15787-.6353-1.5865-.41463-.42323-.98444-.65491-1.57446-.64017-.59-.01471-1.15982.21694-1.57445.64017-.42.4178-.64993.99197-.6353 1.5865 0 .62903.20992 1.15787.6353 1.5865.41463.42322.98444.6549 1.57445.64017zM6.38851 13.38026l3.6461-10.68802c.1823-.5177.48614-.94633.91152-1.28033.42538-.334.89496-.501 1.40872-.501h19.00392c.51377 0 .98334.167 1.40872.501.42538.334.72922.76263.91153 1.28033l3.6461 10.68802v14.69601c0 .5177-.16573.94634-.4972 1.28034-.33146.334-.75684.501-1.27061.501h-.8839c-.51377 0-.93915-.167-1.27061-.501-.33147-.334-.4972-.76263-.4972-1.28034v-2.672H10.80802v2.672c0 .5177-.16573.94634-.4972 1.28034-.33145.334-.75683.501-1.2706.501h-.8839c-.51377 0-.93915-.167-1.27062-.501-.33146-.334-.4972-.76263-.4972-1.28034zm5.85586-3.56268h19.22489l-1.54683-4.45334H13.7912zm-1.43635 4.45334v6.68001zm0 6.68001H32.9056v-6.68H10.80802z" style="stroke-width:0.055455"/></svg>