<?xml version="1.0" encoding="utf-8"?>
<!-- Generator: Adobe Illustrator 30.0.0, SVG Export Plug-In . SVG Version: 9.03 Build 0)  -->
<svg version="1.1" baseProfile="basic" id="Layer_1"
	 xmlns="http://www.w3.org/2000/svg" xmlns:xlink="http://www.w3.org/1999/xlink" x="0px" y="0px" width="260px" height="260px"
	 viewBox="0 0 260 260" xml:space="preserve">
<g>
	<g id="Container_00000085244109448832411020000015854383989613286830_">
		<path fill="#005B5B" d="M52.48,75.53h155.05c24.56,0,44.48,19.91,44.48,44.48v20.14c0,24.56-19.91,44.48-44.48,44.48H52.48
			C27.91,184.62,8,164.7,8,140.14v-20.14C8,95.44,27.91,75.53,52.48,75.53z"/>
	</g>
	<g id="Island_00000182515312215282495240000010506951351661565116_">
		<g>
			<g>
				<path fill="#003439" d="M185.15,148.46l-4.12,0.79c-1.5-1.18-3.4-2.13-5.7-2.79l-39.02-11.19
					c-11.45-3.28-28.33,1.92-37.71,11.63l-17.72,17.88c-1.37,1.42-2.5,2.85-3.4,4.28l-2.62,0.5v6.76c-0.05,0.63-0.05,1.25,0,1.85v0
					l0,0c0.39,4.61,3.72,8.39,9.79,10.13l39.02,11.19c11.45,3.28,28.33-1.92,37.71-11.63l17.72-17.88c4.15-4.3,6.13-8.76,6.06-12.69
					h0L185.15,148.46L185.15,148.46z"/>
				<path fill="#0D6545" d="M131.2,187.14c-2.35,0-4.5-0.28-6.41-0.83l-39.02-11.19c-4.65-1.33-6.18-3.7-6.65-5.46
					c-0.38-1.43-0.25-3.06,0.4-4.84c0.76-2.09,2.25-4.32,4.28-6.43l17.72-17.88l0.02-0.02c3.23-3.35,7.58-6.2,12.58-8.27
					c4.84-2,10.04-3.1,14.65-3.1c2.35,0,4.5,0.28,6.41,0.83l39.02,11.19c4.65,1.33,6.18,3.7,6.65,5.46c0.38,1.43,0.25,3.06-0.4,4.84
					c-0.76,2.09-2.25,4.32-4.28,6.43l-17.72,17.87l-0.02,0.02c-3.23,3.35-7.58,6.2-12.58,8.27
					C141.01,186.04,135.8,187.14,131.2,187.14L131.2,187.14z"/>
				<path fill="#004E41" d="M181.86,157.41c0.1-0.14,0.2-0.28,0.29-0.42c0.03-0.04,0.06-0.09,0.09-0.13
					c0.09-0.13,0.17-0.26,0.25-0.39c0.03-0.04,0.05-0.09,0.08-0.13c0.09-0.14,0.17-0.27,0.25-0.41c0.02-0.03,0.04-0.06,0.06-0.1
					c0.09-0.16,0.19-0.32,0.28-0.49c0,0,0-0.01,0.01-0.01c0.29-0.53,0.55-1.06,0.78-1.59l0,0l0,0c3.04-7.04,0.34-13.49-7.59-16.21
					l0,0l0,0c-0.17-0.06-0.33-0.11-0.5-0.17c-0.17-0.05-0.34-0.11-0.52-0.16l-37.84-10.85l0,0l-1.18-0.34
					c-0.27-0.08-0.54-0.15-0.82-0.22c-0.04-0.01-0.09-0.02-0.13-0.03c-0.28-0.07-0.56-0.13-0.84-0.19c-0.02,0-0.04-0.01-0.07-0.01
					c-8.22-1.64-18.66,0.6-27.17,5.45l0,0c0,0,0,0,0,0c-0.22,0.13-0.44,0.25-0.65,0.38c-0.02,0.01-0.04,0.03-0.06,0.04
					c-0.2,0.12-0.4,0.24-0.6,0.37c-0.02,0.01-0.04,0.02-0.06,0.03c-0.88,0.55-1.74,1.12-2.57,1.73l0,0c-0.2,0.15-0.41,0.3-0.61,0.45
					c-0.01,0.01-0.02,0.01-0.03,0.02c-0.2,0.15-0.4,0.3-0.59,0.46c0,0,0,0,0,0l0,0c-1.25,0.99-2.43,2.04-3.5,3.15l-17.72,17.88
					c-1.79,1.86-3.18,3.74-4.17,5.6c-0.01,0.02-0.02,0.03-0.03,0.05c-0.08,0.15-0.16,0.3-0.23,0.45c-0.02,0.04-0.04,0.08-0.06,0.12
					c-0.06,0.13-0.13,0.26-0.18,0.39c-0.02,0.05-0.04,0.09-0.06,0.14c-0.06,0.13-0.11,0.26-0.17,0.39
					c-0.02,0.04-0.04,0.08-0.05,0.12c-0.07,0.17-0.14,0.34-0.2,0.51l0,0l0,0c-2.27,6.07-0.24,11.6,5.77,14.55
					c0.01,0.01,0.03,0.01,0.04,0.02c0.12,0.06,0.23,0.11,0.35,0.17c0.03,0.01,0.05,0.02,0.08,0.04c0.11,0.05,0.22,0.1,0.34,0.15
					c0.04,0.02,0.08,0.03,0.12,0.05c0.1,0.04,0.21,0.09,0.32,0.13c0.05,0.02,0.11,0.04,0.16,0.06c0.1,0.04,0.19,0.08,0.29,0.11
					c0.07,0.03,0.14,0.05,0.21,0.08c0.09,0.03,0.17,0.06,0.26,0.09c0.09,0.03,0.19,0.06,0.28,0.09c0.07,0.02,0.14,0.04,0.21,0.07
					c0.17,0.05,0.33,0.1,0.5,0.15l39.02,11.19c8.14,2.33,19.03,0.38,28.01-4.44l0,0c0,0,0,0,0,0c0.94-0.5,1.86-1.04,2.75-1.6
					c0.02-0.01,0.03-0.02,0.05-0.03c0.2-0.12,0.39-0.25,0.58-0.38c0.04-0.02,0.07-0.05,0.11-0.07c0.18-0.12,0.36-0.24,0.54-0.36
					c0.03-0.02,0.07-0.05,0.1-0.07c0.42-0.29,0.84-0.59,1.25-0.9c0,0,0,0,0,0l0,0c1.56-1.17,3.01-2.43,4.31-3.78l17.72-17.88
					c0.87-0.9,1.65-1.81,2.33-2.73l0,0c0.13-0.17,0.26-0.35,0.38-0.52C181.82,157.47,181.84,157.45,181.86,157.41L181.86,157.41z
					 M174.2,141.15c4.65,1.33,6.18,3.7,6.65,5.46c0.38,1.43,0.25,3.06-0.4,4.84c-0.14,0.37-0.3,0.75-0.48,1.13l-14.26-4.23
					l7.38-7.51L174.2,141.15L174.2,141.15z M135.18,129.97l33.28,9.54l-7.35,7.48l-33.99-10.07l7.07-7.2
					C134.54,129.79,134.87,129.87,135.18,129.97L135.18,129.97z M122.97,185.79l-34.24-9.82l6.71-6.83l33.99,10.07L122.97,185.79
					L122.97,185.79z M99.26,165.26l24.05-24.47l33.99,10.07l-24.05,24.47L99.26,165.26L99.26,165.26z M114.12,132.24
					c4.84-2,10.04-3.1,14.65-3.1c0.01,0,0.03,0,0.04,0l-6.3,6.41l-9.52-2.82C113.37,132.56,113.74,132.39,114.12,132.24z
					 M101.53,140.52l0.02-0.02c1.58-1.64,3.44-3.16,5.5-4.53l11.66,3.45L94.65,163.9l-12.44-3.69c0.48-0.61,1.01-1.22,1.59-1.82
					L101.53,140.52L101.53,140.52z M79.12,169.67c-0.38-1.43-0.25-3.06,0.4-4.84c0.04-0.12,0.09-0.24,0.14-0.36l11.17,3.31
					l-6.68,6.79C80.76,173.21,79.53,171.2,79.12,169.67z M131.2,187.14c-1.18,0-2.32-0.07-3.4-0.21l6.24-6.34l11.75,3.48
					C140.96,186.05,135.79,187.14,131.2,187.14L131.2,187.14z M176.17,157.88l-17.72,17.87l-0.02,0.02
					c-1.82,1.88-3.98,3.6-6.42,5.12l-14.15-4.19l24.05-24.47l15.28,4.53C176.87,157.14,176.53,157.51,176.17,157.88L176.17,157.88z"
					/>
			</g>
			<g>
				<path fill-rule="evenodd" clip-rule="evenodd" d="M89.6,138.35c0.17,0.44,0.81,0.42,0.95-0.03c0.85-2.82,3.09-7,3.09-7
					c4.5,8.07,2.41,17.36,0.67,22.35c0.2,0.23,0.39,0.49,0.58,0.77c0,0,1.95-1.82,2.24-4.17c0.04-0.37,0.47-0.54,0.76-0.31
					c0.63,0.5,1.43,1.42,1.37,2.8c4.53-15.31-3.67-24.11-3.67-24.11l7.77-1.89c0.61-0.15,0.89-0.87,0.54-1.39
					c-3.19-4.82-8.67-1.25-8.67-1.25c0.13-2.71,1.51-6.15,2.65-8.58c0.55-1.18-0.79-2.33-1.87-1.6c-4.45,3.02-5.54,9.18-5.54,9.18
					c-5.8-6.2-10.69-3.14-12.93-1.01c-0.57,0.55-0.25,1.52,0.54,1.61c5.79,0.67,9.45,3.17,9.45,3.17c-4.96,0.31-6.92,4.02-7.7,6.87
					c-0.31,1.13,0.96,2.04,1.93,1.39c3.69-2.45,8.26-4.22,8.26-4.22C88.09,133.26,88.89,136.52,89.6,138.35L89.6,138.35z"/>
				
					<linearGradient id="SVGID_00000107554157663955879250000017337730560409104046_" gradientUnits="userSpaceOnUse" x1="97.1787" y1="-715.8698" x2="96.5125" y2="-732.4432" gradientTransform="matrix(1 0 0 1 0 880)">
					<stop  offset="0.29" style="stop-color:#009E7C;stop-opacity:0"/>
					<stop  offset="0.34" style="stop-color:#009E7C;stop-opacity:0.04"/>
					<stop  offset="0.41" style="stop-color:#009E7C;stop-opacity:0.15"/>
					<stop  offset="0.5" style="stop-color:#009E7C;stop-opacity:0.32"/>
					<stop  offset="0.59" style="stop-color:#009E7C;stop-opacity:0.57"/>
					<stop  offset="0.68" style="stop-color:#009E7C;stop-opacity:0.88"/>
					<stop  offset="0.71" style="stop-color:#009E7C"/>
				</linearGradient>
				<path fill-rule="evenodd" clip-rule="evenodd" fill="url(#SVGID_00000107554157663955879250000017337730560409104046_)" d="
					M91.55,157.85c-0.27-1.19-1.06-3.89-3.05-5.89c-0.26-0.27-0.09-0.72,0.28-0.75c1.37-0.12,3.99,0.13,6.1,3.22
					c0,0,1.95-1.82,2.24-4.17c0.04-0.37,0.47-0.54,0.76-0.31c0.74,0.58,1.7,1.73,1.26,3.52c0,0,2.69-2.44,5.38-2.48
					c0.4-0.01,0.59,0.5,0.29,0.76c-1.38,1.18-4.19,3.82-5.17,6.41c-0.12,0.32-0.43,0.53-0.77,0.52l-6.56-0.21
					C91.94,158.46,91.63,158.21,91.55,157.85L91.55,157.85z"/>
				<g>
					<circle fill="#F29900" cx="95.91" cy="128.43" r="1.79"/>
					<circle fill="#F29900" cx="92.43" cy="131.86" r="1.79"/>
				</g>
			</g>
		</g>
	</g>
	<g id="Plus_Code_00000160910216307814806220000003727713707521114275_">
		<path fill="#4667F4" d="M165.32,59.53h-65.05c-5.36,0-9.7,4.34-9.7,9.7v19.1c0,5.36,4.34,9.7,9.7,9.7h23.86
			c2.57,0,3.33,1.15,3.88,2.12c0.55,0.97,1.39,2.4,2.44,4.3c0.57,1.02,0.97,1.61,1.36,1.93c0.06,0.05,0.13,0.1,0.19,0.15
			c0.02,0.01,0.04,0.03,0.07,0.04c0.01,0,0.02,0.01,0.02,0.01c0.13,0.07,0.25,0.11,0.39,0.14c0.01,0,0.01,0,0.02,0
			c0.03,0.01,0.06,0.01,0.09,0.01c0.03,0,0.05,0,0.08,0.01c0.03,0,0.06,0,0.09,0c0.01,0,0.01,0,0.02,0s0.01,0,0.02,0s0.01,0,0.02,0
			s0.01,0,0.02,0c0.03,0,0.06,0,0.09,0c0.03,0,0.05,0,0.08-0.01c0.03,0,0.06-0.01,0.09-0.01c0.01,0,0.01,0,0.02,0
			c0.13-0.03,0.26-0.07,0.39-0.14c0.01,0,0.02-0.01,0.02-0.01c0.02-0.01,0.04-0.03,0.07-0.04c0.07-0.04,0.13-0.09,0.19-0.15
			c0.38-0.33,0.79-0.92,1.36-1.93c1.05-1.9,1.9-3.33,2.44-4.3c0.55-0.97,1.31-2.12,3.88-2.12h23.86c5.36,0,9.7-4.34,9.7-9.7v-19.1
			C175.02,63.87,170.68,59.53,165.32,59.53L165.32,59.53z"/>
		<g>
			<path fill="#FFFFFF" d="M97.87,73.73h1.72l2.26,6.67l0.37,1.14h0.09l0.37-1.14l2.36-6.67h1.74l-3.68,10.1h-1.65L97.87,73.73
				L97.87,73.73z"/>
			<path fill="#FFFFFF" d="M108.12,83.31l4.46-8l-0.03-0.04h-4.88v-1.53h6.7v1.62l-4.84,8.71L108.12,83.31L108.12,83.31z"/>
			<path fill="#FFFFFF" d="M117.19,83.76c-0.48-0.2-0.91-0.51-1.27-0.92c-0.36-0.41-0.62-0.91-0.77-1.51l1.46-0.57
				c0.13,0.53,0.37,0.96,0.72,1.28c0.35,0.32,0.78,0.49,1.28,0.49c0.56,0,1.02-0.17,1.38-0.52c0.36-0.35,0.54-0.8,0.54-1.35
				s-0.18-1-0.53-1.36c-0.35-0.36-0.81-0.54-1.37-0.54c-0.32,0-0.62,0.07-0.88,0.21s-0.49,0.33-0.68,0.57l-1.61-0.71l0.62-5.09h5.47
				v1.48h-4.13l-0.37,2.66l0.09,0.01c0.51-0.4,1.11-0.61,1.8-0.61c0.57,0,1.1,0.14,1.6,0.43c0.5,0.29,0.89,0.68,1.19,1.19
				c0.3,0.51,0.44,1.09,0.44,1.74c0,0.65-0.15,1.23-0.46,1.76c-0.31,0.52-0.73,0.93-1.26,1.22c-0.54,0.3-1.14,0.44-1.81,0.44
				C118.16,84.06,117.68,83.96,117.19,83.76L117.19,83.76z"/>
			<path fill="#FFFFFF" d="M122.97,73.73h1.72l2.26,6.67l0.37,1.14h0.09l0.37-1.14l2.36-6.67h1.74l-3.68,10.1h-1.65L122.97,73.73
				L122.97,73.73z"/>
			<path fill="#FFFFFF" d="M139.21,79.67h-2.48v2.48h-1.34v-2.48h-2.48v-1.33h2.48v-2.48h1.34v2.48h2.48L139.21,79.67L139.21,79.67z
				"/>
			<path fill="#FFFFFF" d="M142.89,83.66c-0.54-0.26-0.96-0.63-1.26-1.1c-0.31-0.47-0.46-0.98-0.46-1.54s0.15-1.04,0.45-1.47
				c0.3-0.43,0.69-0.76,1.16-1v-0.09c-0.37-0.25-0.68-0.55-0.91-0.92s-0.35-0.77-0.35-1.2c0-0.53,0.13-1.01,0.41-1.45
				c0.27-0.44,0.65-0.78,1.13-1.02c0.49-0.25,1.03-0.37,1.64-0.37s1.16,0.12,1.64,0.37s0.87,0.59,1.14,1.02
				c0.27,0.44,0.41,0.92,0.41,1.45c0,0.43-0.12,0.83-0.35,1.2c-0.24,0.37-0.54,0.68-0.91,0.92v0.09c0.47,0.24,0.86,0.57,1.16,1
				c0.3,0.43,0.45,0.92,0.45,1.47s-0.15,1.07-0.46,1.54c-0.31,0.47-0.73,0.83-1.27,1.1c-0.54,0.26-1.14,0.4-1.81,0.4
				S143.43,83.92,142.89,83.66L142.89,83.66z M146.06,82.08c0.36-0.3,0.54-0.69,0.54-1.17s-0.18-0.86-0.55-1.16
				c-0.36-0.31-0.82-0.46-1.36-0.46c-0.54,0-0.98,0.15-1.34,0.46c-0.36,0.31-0.55,0.69-0.55,1.16c0,0.47,0.18,0.87,0.54,1.17
				s0.81,0.45,1.35,0.45C145.24,82.52,145.7,82.38,146.06,82.08L146.06,82.08z M145.84,77.43c0.3-0.26,0.45-0.61,0.45-1.04
				c0-0.43-0.15-0.76-0.45-1.01c-0.3-0.25-0.68-0.38-1.14-0.38c-0.46,0-0.83,0.13-1.13,0.38c-0.3,0.25-0.45,0.59-0.45,1.01
				c0,0.42,0.15,0.77,0.45,1.03c0.3,0.26,0.68,0.4,1.13,0.4S145.54,77.69,145.84,77.43L145.84,77.43z"/>
			<path fill="#FFFFFF" d="M156.87,83.54c-0.72,0.35-1.5,0.52-2.33,0.52c-0.98,0-1.87-0.23-2.66-0.7s-1.42-1.1-1.88-1.91
				c-0.46-0.81-0.68-1.7-0.68-2.67s0.23-1.86,0.68-2.66s1.08-1.44,1.88-1.91s1.68-0.71,2.66-0.71s1.87,0.23,2.67,0.7
				c0.8,0.47,1.43,1.11,1.88,1.91c0.46,0.8,0.68,1.69,0.68,2.66c0,0.78-0.15,1.51-0.45,2.19c-0.3,0.68-0.72,1.26-1.27,1.75
				l0.75,1.11l-1.2,0.8L156.87,83.54L156.87,83.54z M156,82.25l-1.16-1.72l1.21-0.82l1.13,1.72c0.32-0.33,0.57-0.72,0.74-1.17
				c0.17-0.45,0.26-0.95,0.26-1.48c0-0.73-0.16-1.39-0.49-1.95s-0.76-1.01-1.32-1.33c-0.56-0.32-1.17-0.48-1.83-0.48
				s-1.28,0.16-1.83,0.48c-0.55,0.32-0.99,0.76-1.31,1.33s-0.49,1.22-0.49,1.95c0,0.73,0.16,1.39,0.49,1.95
				c0.32,0.57,0.76,1.01,1.31,1.33c0.55,0.32,1.16,0.48,1.83,0.48C155.05,82.55,155.53,82.45,156,82.25L156,82.25z"/>
			<path fill="#FFFFFF" d="M162.15,83.4c-0.65-0.44-1.1-1.08-1.34-1.92l1.5-0.62c0.14,0.52,0.38,0.92,0.71,1.21
				c0.34,0.29,0.75,0.43,1.23,0.43s0.91-0.15,1.27-0.45c0.35-0.3,0.53-0.68,0.53-1.14s-0.19-0.86-0.56-1.16
				c-0.37-0.3-0.84-0.45-1.4-0.45h-0.87v-1.49h0.78c0.48,0,0.89-0.13,1.22-0.39c0.33-0.26,0.49-0.62,0.49-1.07
				c0-0.4-0.15-0.72-0.44-0.96c-0.3-0.24-0.67-0.36-1.12-0.36c-0.45,0-0.79,0.12-1.05,0.35c-0.26,0.24-0.45,0.53-0.57,0.87
				l-1.49-0.62c0.2-0.56,0.56-1.05,1.09-1.48c0.53-0.43,1.21-0.64,2.03-0.64c0.61,0,1.16,0.12,1.64,0.35s0.87,0.56,1.14,0.98
				c0.27,0.42,0.41,0.89,0.41,1.41c0,0.52-0.13,0.98-0.38,1.35c-0.26,0.37-0.57,0.65-0.94,0.85v0.09c0.49,0.21,0.89,0.52,1.21,0.94
				c0.31,0.42,0.47,0.93,0.47,1.52s-0.15,1.12-0.45,1.58c-0.3,0.46-0.71,0.83-1.25,1.09s-1.12,0.4-1.77,0.4
				C163.5,84.06,162.8,83.84,162.15,83.4L162.15,83.4z"/>
		</g>
	</g>
	<g id="stars_00000023986986758453286630000017699503655341940617_">
		<g>
			<g>
				<circle fill="#BCE9FF" cx="176.53" cy="117.42" r="0.57"/>
				<circle fill="#BCE9FF" cx="217.16" cy="139.4" r="0.57"/>
				<circle fill="#BCE9FF" cx="203.28" cy="89.44" r="0.57"/>
				<circle fill="#BCE9FF" cx="235.4" cy="100.04" r="0.57"/>
				<circle fill="#BCE9FF" cx="193.45" cy="122.93" r="0.28"/>
				<circle fill="#BCE9FF" cx="234.29" cy="135.04" r="0.28"/>
				<circle fill="#BCE9FF" cx="191.32" cy="96.27" r="0.28"/>
				<circle fill="#BCE9FF" cx="165.03" cy="122.65" r="0.28"/>
				<circle fill="#BCE9FF" cx="233.11" cy="113.99" r="0.28"/>
				<circle fill="#BCE9FF" cx="225.79" cy="90.71" r="0.28"/>
				<circle fill="#BCE9FF" cx="189.61" cy="126.37" r="0.71"/>
				<circle fill="#BCE9FF" cx="228.06" cy="109.41" r="0.71"/>
				<circle fill="#BCE9FF" cx="229.07" cy="131.94" r="0.71"/>
				<circle fill="#BCE9FF" cx="209.94" cy="105.12" r="0.71"/>
			</g>
			<g>
				<circle fill="#BCE9FF" cx="29.67" cy="130.7" r="0.57"/>
				<circle fill="#BCE9FF" cx="34.46" cy="97.94" r="0.57"/>
				<circle fill="#BCE9FF" cx="66.68" cy="87.64" r="0.57"/>
				<circle fill="#BCE9FF" cx="46.6" cy="125.21" r="0.28"/>
				<circle fill="#BCE9FF" cx="71.91" cy="119.78" r="0.28"/>
				<circle fill="#BCE9FF" cx="28.79" cy="110.5" r="0.28"/>
				<circle fill="#BCE9FF" cx="23.45" cy="141.68" r="0.28"/>
				<circle fill="#BCE9FF" cx="76.57" cy="101.28" r="0.28"/>
				<circle fill="#BCE9FF" cx="53.42" cy="85.74" r="0.28"/>
				<circle fill="#BCE9FF" cx="45.52" cy="130.25" r="0.71"/>
				<circle fill="#BCE9FF" cx="69.8" cy="100.55" r="0.71"/>
				<circle fill="#BCE9FF" cx="65.87" cy="120.34" r="0.71"/>
				<circle fill="#BCE9FF" cx="49.06" cy="106.71" r="0.71"/>
			</g>
		</g>
	</g>
	<g id="main_house_00000169520508064861967160000008976331801741075595_">
		<g>
			<g>
				<g>
					<polygon fill="#394EC1" points="140.31,143.7 140.31,166.81 108.33,157.69 108.33,136.07 111.08,127.22 111.08,116.13 
						146.47,120.8 146.47,135.28 					"/>
					<path fill="#232765" d="M125.69,148.81v13.93l-6.92-2.01v-13.51c0-0.44,0.42-0.76,0.85-0.64l5.59,1.59
						C125.5,148.25,125.69,148.51,125.69,148.81L125.69,148.81z"/>
					<polygon fill="#474747" points="108.33,157.06 113.52,162.38 137.11,169.35 140.31,166.17 					"/>
					<path d="M139.16,167.31v-4.26l0.38-0.38c0.06-0.05,0.09-0.13,0.09-0.2v-0.01c0-0.23-0.28-0.35-0.44-0.18l-2.79,2.75v0.78
						l0.57-0.57v4.06l-23.44-6.92v0.63l23.55,7.01l3.24-3.22v-0.63L139.16,167.31L139.16,167.31z M138.53,163.69v4.26l-0.94,0.93
						v-4.26L138.53,163.69z"/>
					<g>
						<polygon fill="#232765" points="132.98,173.24 126.76,171.61 126.76,165.77 132.98,167.41 						"/>
						<polygon fill="#232765" points="132.98,167.41 126.76,165.77 130.18,162.35 136.39,163.99 						"/>
						<polygon points="132.98,173.24 136.39,169.8 136.39,163.99 132.98,167.41 						"/>
					</g>
					<path fill="#FBBC04" d="M124.26,150.67v5c0,0.29-0.28,0.5-0.56,0.42l-3.18-0.92c-0.19-0.05-0.32-0.22-0.32-0.42v-4.98
						c0-0.29,0.28-0.5,0.56-0.42l3.18,0.9C124.13,150.3,124.26,150.47,124.26,150.67L124.26,150.67z"/>
					<g>
						<ellipse fill="#4285F4" cx="131.68" cy="163.93" rx="3.32" ry="2.5"/>
						<path fill="#47A1FB" d="M131.68,146.85c-1.58,0-2.86,3.87-2.86,8.64c0,1.04,0.06,2.05,0.17,2.97c0.17,1.37,0.44,2.57,0.8,3.52
							c0.54,0.28,1.19,0.44,1.89,0.44c0.7,0,1.35-0.16,1.89-0.44c0.36-0.94,0.63-2.15,0.8-3.52c0.11-0.93,0.17-1.93,0.17-2.97
							C134.54,150.72,133.26,146.85,131.68,146.85z"/>
						<ellipse fill="#4285F4" cx="131.68" cy="147.04" rx="3.32" ry="2.5"/>
					</g>
					<g>
						<polygon fill="#232765" points="110.11,160.62 103.9,158.98 107.31,155.57 113.52,157.21 						"/>
						<g>
							<polygon fill="#232765" points="110.11,166.46 103.9,164.83 103.9,158.99 110.11,160.63 							"/>
							<polygon points="110.11,166.46 113.52,163.02 113.52,157.21 110.11,160.63 							"/>
						</g>
					</g>
					<g>
						<ellipse fill="#4285F4" cx="108.81" cy="157.06" rx="3.32" ry="2.5"/>
						<path fill="#47A1FB" d="M108.81,139.98c-1.58,0-2.86,3.87-2.86,8.64c0,1.04,0.06,2.05,0.17,2.97c0.17,1.37,0.44,2.57,0.8,3.52
							c0.54,0.28,1.19,0.44,1.89,0.44s1.35-0.16,1.89-0.44c0.36-0.94,0.63-2.15,0.8-3.52c0.11-0.93,0.17-1.93,0.17-2.97
							C111.67,143.85,110.39,139.98,108.81,139.98z"/>
						<ellipse fill="#4285F4" cx="108.81" cy="140.17" rx="3.32" ry="2.5"/>
					</g>
					<path fill="#232765" d="M140.79,127.69c-0.28,0-0.56-0.12-0.75-0.35l-4.37-5.2c-0.35-0.42-0.3-1.04,0.12-1.39
						c0.42-0.35,1.04-0.3,1.39,0.12l4.37,5.2c0.35,0.42,0.3,1.04-0.12,1.39C141.24,127.61,141.01,127.69,140.79,127.69
						L140.79,127.69z"/>
					<path fill="#232765" d="M132.8,125.5c-0.28,0-0.56-0.12-0.75-0.35l-4.37-5.2c-0.35-0.42-0.3-1.04,0.12-1.39
						c0.42-0.35,1.04-0.3,1.39,0.12l4.37,5.2c0.35,0.42,0.3,1.04-0.12,1.39C133.25,125.43,133.02,125.5,132.8,125.5L132.8,125.5z"/>
					<path fill="#232765" d="M124.81,123.4c-0.28,0-0.56-0.12-0.75-0.35l-4.37-5.2c-0.35-0.42-0.3-1.04,0.12-1.39
						c0.42-0.35,1.04-0.3,1.39,0.12l4.37,5.2c0.35,0.42,0.3,1.04-0.12,1.39C125.26,123.33,125.03,123.4,124.81,123.4L124.81,123.4z"
						/>
					<path fill="#232765" d="M116.82,120.74c-0.28,0-0.56-0.12-0.75-0.35l-4.37-5.2c-0.35-0.42-0.3-1.04,0.12-1.39
						c0.42-0.35,1.04-0.3,1.39,0.12l4.37,5.2c0.35,0.42,0.3,1.04-0.12,1.39C117.27,120.66,117.04,120.74,116.82,120.74
						L116.82,120.74z"/>
					<path fill="#003439" d="M118.51,160.84l-1.7,1.5c-0.23,0.2-0.15,0.59,0.15,0.67l5.78,1.72c0.22,0.07,0.46,0.01,0.63-0.15
						l1.72-1.6c0.2-0.19,0.12-0.53-0.14-0.6l-5.82-1.69C118.92,160.65,118.68,160.7,118.51,160.84L118.51,160.84z"/>
				</g>
				<g>
					
						<linearGradient id="SVGID_00000067924034468407412890000014172028677505587879_" gradientUnits="userSpaceOnUse" x1="138.8882" y1="-740.6227" x2="142.3075" y2="-738.562" gradientTransform="matrix(1 0 0 1 0 880)">
						<stop  offset="0.06" style="stop-color:#232765"/>
						<stop  offset="0.69" style="stop-color:#131314"/>
					</linearGradient>
					<path fill="url(#SVGID_00000067924034468407412890000014172028677505587879_)" d="M146.1,133.66l-3.5-1.07l-8.36,13.9
						c0.19,0.1,0.36,0.22,0.52,0.36c0.72,0.6,2.2,1.61,3,0.7l8.34-13.87V133.66L146.1,133.66z"/>
					
						<linearGradient id="SVGID_00000091706795789383895470000005651200675176135849_" gradientUnits="userSpaceOnUse" x1="134.8705" y1="-741.6018" x2="138.7115" y2="-739.1672" gradientTransform="matrix(1 0 0 1 0 880)">
						<stop  offset="0.06" style="stop-color:#232765"/>
						<stop  offset="0.69" style="stop-color:#131314"/>
					</linearGradient>
					<path fill="url(#SVGID_00000091706795789383895470000005651200675176135849_)" d="M139.09,131.52l-8.83,14.67
						c0.16,0.08,0.33,0.15,0.5,0.2c0.52,0.18,1.05,0.24,1.58,0.2c0.46-0.03,0.89-0.29,1.35-0.26c0.19,0.01,0.37,0.07,0.54,0.16
						l8.36-13.9L139.09,131.52L139.09,131.52z"/>
					
						<linearGradient id="SVGID_00000055682366272441492350000013643057541078874011_" gradientUnits="userSpaceOnUse" x1="141.7735" y1="-739.4874" x2="144.9979" y2="-737.2039" gradientTransform="matrix(1 0 0 1 0 880)">
						<stop  offset="0.06" style="stop-color:#232765"/>
						<stop  offset="0.69" style="stop-color:#131314"/>
					</linearGradient>
					<path fill="url(#SVGID_00000055682366272441492350000013643057541078874011_)" d="M146.1,133.69l-8.34,13.87
						c0,0,0.01-0.01,0.01-0.01l7.84-9.93c0.32-0.34,0.49-0.8,0.49-1.28L146.1,133.69L146.1,133.69z"/>
					
						<linearGradient id="SVGID_00000167360458741282419910000014577501958163688625_" gradientUnits="userSpaceOnUse" x1="103.6066" y1="-750.9298" x2="106.7415" y2="-749.2271" gradientTransform="matrix(1 0 0 1 0 880)">
						<stop  offset="0.06" style="stop-color:#232765"/>
						<stop  offset="0.69" style="stop-color:#131314"/>
					</linearGradient>
					<path fill="url(#SVGID_00000167360458741282419910000014577501958163688625_)" d="M110.75,122.84
						c-0.56-0.19-1.17-0.04-1.54,0.39l-8.33,13.54c-0.21,0.33-0.12,0.78,0.2,1.04c0.24,0.19,0.48,0.34,0.72,0.44l9.22-15.32
						L110.75,122.84L110.75,122.84z"/>
					
						<linearGradient id="SVGID_00000165205848959417190720000016301571788111274165_" gradientUnits="userSpaceOnUse" x1="106.6319" y1="-749.7857" x2="110.4252" y2="-747.538" gradientTransform="matrix(1 0 0 1 0 880)">
						<stop  offset="0.06" style="stop-color:#232765"/>
						<stop  offset="0.69" style="stop-color:#131314"/>
					</linearGradient>
					<path fill="url(#SVGID_00000165205848959417190720000016301571788111274165_)" d="M111.02,122.92l-9.22,15.32
						c1.32,0.56,2.46-0.16,2.46-0.16c0.54-0.19,1.15-0.05,1.57,0.37l8.7-14.46L111.02,122.92L111.02,122.92z"/>
					
						<linearGradient id="SVGID_00000105416618647558951080000014406490164243321502_" gradientUnits="userSpaceOnUse" x1="110.4253" y1="-748.9265" x2="114.1271" y2="-746.8638" gradientTransform="matrix(1 0 0 1 0 880)">
						<stop  offset="0.06" style="stop-color:#232765"/>
						<stop  offset="0.69" style="stop-color:#131314"/>
					</linearGradient>
					<path fill="url(#SVGID_00000105416618647558951080000014406490164243321502_)" d="M114.53,124l-8.7,14.46
						c0.03,0.03,0.07,0.06,0.1,0.1c0.43,0.49,1.04,0.91,1.77,1.16c0.48,0.16,0.96,0.23,1.4,0.21l8.94-14.85L114.53,124L114.53,124z"
						/>
					
						<linearGradient id="SVGID_00000150070685513469512230000007029687679419456920_" gradientUnits="userSpaceOnUse" x1="113.7578" y1="-747.7861" x2="117.6923" y2="-745.7253" gradientTransform="matrix(1 0 0 1 0 880)">
						<stop  offset="0.06" style="stop-color:#232765"/>
						<stop  offset="0.69" style="stop-color:#131314"/>
					</linearGradient>
					<path fill="url(#SVGID_00000150070685513469512230000007029687679419456920_)" d="M118.04,125.07l-8.94,14.85
						c0.33-0.01,0.64-0.07,0.92-0.17c0.58-0.21,1.25-0.02,1.67,0.47c0.25,0.29,0.56,0.55,0.92,0.76l8.93-14.84L118.04,125.07
						L118.04,125.07z"/>
					
						<linearGradient id="SVGID_00000061451593859980178100000004503908751194113694_" gradientUnits="userSpaceOnUse" x1="117.4115" y1="-746.7253" x2="121.1114" y2="-744.571" gradientTransform="matrix(1 0 0 1 0 880)">
						<stop  offset="0.06" style="stop-color:#232765"/>
						<stop  offset="0.69" style="stop-color:#131314"/>
					</linearGradient>
					<path fill="url(#SVGID_00000061451593859980178100000004503908751194113694_)" d="M121.55,126.15l-8.93,14.84
						c0.26,0.16,0.54,0.29,0.85,0.39c0.85,0.28,1.68,0.28,2.33,0.04c0.24-0.09,0.5-0.1,0.75-0.06l8.51-14.15L121.55,126.15
						L121.55,126.15z"/>
					
						<linearGradient id="SVGID_00000114766731163449608920000003259271243463125636_" gradientUnits="userSpaceOnUse" x1="124.4026" y1="-744.556" x2="128.1025" y2="-742.4495" gradientTransform="matrix(1 0 0 1 0 880)">
						<stop  offset="0.06" style="stop-color:#232765"/>
						<stop  offset="0.69" style="stop-color:#131314"/>
					</linearGradient>
					<path fill="url(#SVGID_00000114766731163449608920000003259271243463125636_)" d="M128.56,128.29l-8.95,14.87
						c0.71,0.17,1.39,0.14,1.94-0.06c0.58-0.21,1.25-0.02,1.67,0.47c0.06,0.07,0.12,0.13,0.19,0.2l8.66-14.39L128.56,128.29
						L128.56,128.29z"/>
					
						<linearGradient id="SVGID_00000120519564215851999410000016701396505205201835_" gradientUnits="userSpaceOnUse" x1="128.0409" y1="-743.6891" x2="131.695" y2="-741.5348" gradientTransform="matrix(1 0 0 1 0 880)">
						<stop  offset="0.06" style="stop-color:#232765"/>
						<stop  offset="0.69" style="stop-color:#131314"/>
					</linearGradient>
					<path fill="url(#SVGID_00000120519564215851999410000016701396505205201835_)" d="M132.07,129.37l-8.66,14.39
						c0.41,0.41,0.95,0.75,1.58,0.96c0.67,0.22,1.33,0.27,1.9,0.16l8.69-14.44L132.07,129.37z"/>
					
						<linearGradient id="SVGID_00000106867141632701630500000006928023753971380412_" gradientUnits="userSpaceOnUse" x1="131.3915" y1="-742.71" x2="135.2784" y2="-740.5081" gradientTransform="matrix(1 0 0 1 0 880)">
						<stop  offset="0.06" style="stop-color:#232765"/>
						<stop  offset="0.69" style="stop-color:#131314"/>
					</linearGradient>
					<path fill="url(#SVGID_00000106867141632701630500000006928023753971380412_)" d="M135.58,130.44l-8.69,14.44
						c0.15-0.03,0.29-0.07,0.43-0.11c0.58-0.21,1.25-0.02,1.67,0.47c0.32,0.38,0.76,0.71,1.27,0.95l8.83-14.67L135.58,130.44
						L135.58,130.44z"/>
					
						<linearGradient id="SVGID_00000024000738350511464180000010914932394032542397_" gradientUnits="userSpaceOnUse" x1="121.1447" y1="-745.9368" x2="124.6117" y2="-743.8304" gradientTransform="matrix(1 0 0 1 0 880)">
						<stop  offset="0.06" style="stop-color:#232765"/>
						<stop  offset="0.69" style="stop-color:#131314"/>
					</linearGradient>
					<path fill-rule="evenodd" clip-rule="evenodd" fill="url(#SVGID_00000024000738350511464180000010914932394032542397_)" d="
						M125.06,127.22l-8.51,14.15c0.34,0.06,0.67,0.24,0.92,0.53c0.43,0.49,1.04,0.91,1.77,1.16c0.13,0.04,0.26,0.08,0.39,0.11
						l8.95-14.87L125.06,127.22z"/>
				</g>
				<path fill="#2F3793" d="M152.63,117.03v-1.21c0-0.15-0.02-0.29-0.05-0.42l-6.47,10.45v4.23l-9.81,16.38
					c-0.27,0.47-0.11,1.07,0.36,1.34c0.41,0.24,0.94,0.14,1.24-0.23l2.41-2.61v21.85l12.28-12.22L152.63,117.03L152.63,117.03
					L152.63,117.03z"/>
			</g>
			<g>
				
					<linearGradient id="SVGID_00000053503510798731502610000011405816547015328447_" gradientUnits="userSpaceOnUse" x1="146.9733" y1="-760.632" x2="152.2445" y2="-757.2505" gradientTransform="matrix(1 0 0 1 0 880)">
					<stop  offset="0.06" style="stop-color:#232765"/>
					<stop  offset="0.69" style="stop-color:#131314"/>
				</linearGradient>
				<path fill="url(#SVGID_00000053503510798731502610000011405816547015328447_)" d="M146.16,125.78c0.38-0.59,5.93-7.37,5.93-7.37
					c0.33-0.37,0.54-0.89,0.54-1.4v-1.21c0.01-0.7-0.44-1.29-1.1-1.51l-6.97,11.58C145.07,126.1,145.78,126.2,146.16,125.78
					L146.16,125.78z"/>
				
					<linearGradient id="SVGID_00000111165009920895774880000003984484065780056732_" gradientUnits="userSpaceOnUse" x1="109.4861" y1="-771.9779" x2="113.3828" y2="-769.7401" gradientTransform="matrix(1 0 0 1 0 880)">
					<stop  offset="0.06" style="stop-color:#232765"/>
					<stop  offset="0.69" style="stop-color:#131314"/>
				</linearGradient>
				<path fill="url(#SVGID_00000111165009920895774880000003984484065780056732_)" d="M115.88,104.19
					c-0.79-0.25-1.62,0.05-2.02,0.73c-1.61,2.57-3,5.14-4.65,7.68c-0.67,1.03-0.55,2.05,0.08,2.85l6.75-11.22L115.88,104.19
					L115.88,104.19z"/>
				
					<linearGradient id="SVGID_00000013902952507862655670000000575022069049432231_" gradientUnits="userSpaceOnUse" x1="112.7383" y1="-770.4522" x2="116.6351" y2="-768.292" gradientTransform="matrix(1 0 0 1 0 880)">
					<stop  offset="0.06" style="stop-color:#232765"/>
					<stop  offset="0.69" style="stop-color:#131314"/>
				</linearGradient>
				<path fill="url(#SVGID_00000013902952507862655670000000575022069049432231_)" d="M116.03,104.23l-6.75,11.22
					c0.4,0.51,1.02,0.92,1.77,1.18c0.54,0.18,1.07,0.24,1.55,0.21l6.98-11.6L116.03,104.23L116.03,104.23z"/>
				
					<linearGradient id="SVGID_00000008856681460865349060000009726703711924075411_" gradientUnits="userSpaceOnUse" x1="116.4701" y1="-769.265" x2="120.0188" y2="-767.2202" gradientTransform="matrix(1 0 0 1 0 880)">
					<stop  offset="0.06" style="stop-color:#232765"/>
					<stop  offset="0.69" style="stop-color:#131314"/>
				</linearGradient>
				<path fill="url(#SVGID_00000008856681460865349060000009726703711924075411_)" d="M119.58,105.24l-6.98,11.6
					c0.28-0.02,0.54-0.08,0.78-0.16c0.57-0.21,1.24-0.02,1.67,0.47c0.27,0.31,0.62,0.6,1.03,0.83l7.05-11.72L119.58,105.24
					L119.58,105.24z"/>
				
					<linearGradient id="SVGID_00000177460737320214893970000007262861958078307977_" gradientUnits="userSpaceOnUse" x1="119.9082" y1="-768.2064" x2="123.5344" y2="-766.1994" gradientTransform="matrix(1 0 0 1 0 880)">
					<stop  offset="0.06" style="stop-color:#232765"/>
					<stop  offset="0.69" style="stop-color:#131314"/>
				</linearGradient>
				<path fill="url(#SVGID_00000177460737320214893970000007262861958078307977_)" d="M123.13,106.24l-7.05,11.72
					c0.23,0.13,0.48,0.24,0.74,0.33c0.85,0.28,1.68,0.28,2.33,0.04c0.28-0.1,0.59-0.11,0.88-0.03l6.66-11.06L123.13,106.24
					L123.13,106.24z"/>
				
					<linearGradient id="SVGID_00000127011240526746731200000016680558582208229540_" gradientUnits="userSpaceOnUse" x1="123.5339" y1="-767.5392" x2="127.2198" y2="-765.3491" gradientTransform="matrix(1 0 0 1 0 880)">
					<stop  offset="0.06" style="stop-color:#232765"/>
					<stop  offset="0.69" style="stop-color:#131314"/>
				</linearGradient>
				<path fill="url(#SVGID_00000127011240526746731200000016680558582208229540_)" d="M126.68,107.25l-6.66,11.06
					c0.3,0.08,0.57,0.25,0.79,0.5c0.43,0.49,1.04,0.91,1.77,1.16c0.17,0.06,0.35,0.1,0.52,0.14l7.13-11.85L126.68,107.25
					L126.68,107.25z"/>
				
					<linearGradient id="SVGID_00000161601720378678069250000004819445251224403621_" gradientUnits="userSpaceOnUse" x1="126.9439" y1="-766.1902" x2="130.5702" y2="-764.0698" gradientTransform="matrix(1 0 0 1 0 880)">
					<stop  offset="0.06" style="stop-color:#232765"/>
					<stop  offset="0.69" style="stop-color:#131314"/>
				</linearGradient>
				<path fill="url(#SVGID_00000161601720378678069250000004819445251224403621_)" d="M130.23,108.26l-7.13,11.85
					c0.66,0.13,1.29,0.1,1.81-0.09c0.57-0.21,1.24-0.02,1.67,0.47c0.09,0.1,0.18,0.19,0.28,0.28l6.92-11.5L130.23,108.26
					L130.23,108.26z"/>
				
					<linearGradient id="SVGID_00000170982123506194498520000004970083087246146181_" gradientUnits="userSpaceOnUse" x1="130.6241" y1="-765.2852" x2="134.2126" y2="-763.2025" gradientTransform="matrix(1 0 0 1 0 880)">
					<stop  offset="0.06" style="stop-color:#232765"/>
					<stop  offset="0.69" style="stop-color:#131314"/>
				</linearGradient>
				<path fill="url(#SVGID_00000170982123506194498520000004970083087246146181_)" d="M133.78,109.26l-6.92,11.5
					c0.4,0.37,0.91,0.68,1.49,0.87c0.73,0.25,1.46,0.28,2.06,0.13l6.92-11.5L133.78,109.26L133.78,109.26z"/>
				
					<linearGradient id="SVGID_00000113330262063011011200000014955695180272588168_" gradientUnits="userSpaceOnUse" x1="134.161" y1="-764.3571" x2="137.827" y2="-762.1968" gradientTransform="matrix(1 0 0 1 0 880)">
					<stop  offset="0.06" style="stop-color:#232765"/>
					<stop  offset="0.69" style="stop-color:#131314"/>
				</linearGradient>
				<path fill="url(#SVGID_00000113330262063011011200000014955695180272588168_)" d="M137.33,110.27l-6.92,11.5
					c0.09-0.02,0.18-0.05,0.26-0.08c0.57-0.21,1.24-0.02,1.67,0.47c0.35,0.4,0.82,0.76,1.38,1l7.15-11.88L137.33,110.27
					L137.33,110.27z"/>
				
					<linearGradient id="SVGID_00000049940296285538981750000013521132788048433852_" gradientUnits="userSpaceOnUse" x1="137.595" y1="-763.149" x2="141.1059" y2="-761.1042" gradientTransform="matrix(1 0 0 1 0 880)">
					<stop  offset="0.06" style="stop-color:#232765"/>
					<stop  offset="0.69" style="stop-color:#131314"/>
				</linearGradient>
				<path fill="url(#SVGID_00000049940296285538981750000013521132788048433852_)" d="M140.88,111.27l-7.15,11.88
					c0.13,0.06,0.25,0.11,0.39,0.15c0.85,0.28,1.68,0.28,2.33,0.04c0.41-0.15,0.87-0.1,1.25,0.13l6.74-11.2L140.88,111.27
					L140.88,111.27z"/>
				
					<linearGradient id="SVGID_00000181788157721355168120000005821642800278750604_" gradientUnits="userSpaceOnUse" x1="141.1504" y1="-762.4064" x2="145.0849" y2="-760.1686" gradientTransform="matrix(1 0 0 1 0 880)">
					<stop  offset="0.06" style="stop-color:#232765"/>
					<stop  offset="0.69" style="stop-color:#131314"/>
				</linearGradient>
				<path fill="url(#SVGID_00000181788157721355168120000005821642800278750604_)" d="M144.43,112.28l-6.74,11.2
					c0.16,0.09,0.3,0.2,0.42,0.34c0.43,0.49,1.04,0.91,1.77,1.16c0.32,0.11,0.63,0.17,0.94,0.2l7.16-11.89L144.43,112.28
					L144.43,112.28z"/>
				
					<linearGradient id="SVGID_00000165932562213993507900000014700513397770185892_" gradientUnits="userSpaceOnUse" x1="144.7731" y1="-761.1064" x2="148.5147" y2="-758.8686" gradientTransform="matrix(1 0 0 1 0 880)">
					<stop  offset="0.06" style="stop-color:#232765"/>
					<stop  offset="0.69" style="stop-color:#131314"/>
				</linearGradient>
				<path fill="url(#SVGID_00000165932562213993507900000014700513397770185892_)" d="M151.44,114.26l-3.46-0.98l-7.16,11.89
					c0.53,0.05,1.02-0.01,1.43-0.18c0.38-0.15,0.82-0.11,1.19,0.09c0.36,0.19,0.62,0.53,1,0.72c0.04,0.02,0.07,0.04,0.11,0.05
					l6.97-11.58C151.5,114.28,151.47,114.27,151.44,114.26L151.44,114.26z"/>
			</g>
		</g>
	</g>
</g>
</svg>
