<?xml version="1.0" encoding="utf-8"?>
<!-- Generator: Adobe Illustrator 30.0.0, SVG Export Plug-In . SVG Version: 9.03 Build 0)  -->
<svg version="1.1" baseProfile="basic" id="Layer_1"
	 xmlns="http://www.w3.org/2000/svg" xmlns:xlink="http://www.w3.org/1999/xlink" x="0px" y="0px" width="260px" height="260px"
	 viewBox="0 0 260 260" xml:space="preserve">
<g>
	<g id="Container_00000034068351116801751990000010243907974867664034_">
		<path fill="#DDF0CE" d="M48.47,80.92h155.05c24.56,0,44.48,19.91,44.48,44.48v20.14c0,24.56-19.91,44.48-44.48,44.48H48.47
			c-24.56,0-44.48-19.91-44.48-44.48V125.4C3.99,100.84,23.91,80.92,48.47,80.92z"/>
	</g>
	<g id="Island_00000132798535870496482770000007028861057705653434_">
		<g>
			<g>
				<path d="M181.15,153.85l-4.12,0.79c-1.5-1.18-3.4-2.13-5.7-2.79l-39.02-11.19c-11.45-3.28-28.33,1.92-37.71,11.63l-17.72,17.88
					c-1.37,1.42-2.5,2.85-3.4,4.28l-2.62,0.5v6.76c-0.05,0.63-0.05,1.25,0,1.85v0l0,0c0.39,4.61,3.72,8.39,9.79,10.13l39.02,11.19
					c11.45,3.28,28.33-1.92,37.71-11.63l17.72-17.88c4.15-4.3,6.13-8.76,6.06-12.69h0L181.15,153.85L181.15,153.85z"/>
				<path fill="#DEE200" d="M127.2,192.53c-2.35,0-4.5-0.28-6.41-0.83l-39.02-11.19c-4.65-1.33-6.18-3.7-6.65-5.46
					c-0.38-1.43-0.25-3.06,0.4-4.84c0.76-2.09,2.25-4.32,4.28-6.43l17.72-17.88l0.02-0.02c3.23-3.35,7.58-6.2,12.58-8.27
					c4.84-2,10.04-3.1,14.65-3.1c2.35,0,4.5,0.28,6.41,0.83l39.02,11.19c4.65,1.33,6.18,3.7,6.65,5.46c0.38,1.43,0.25,3.06-0.4,4.84
					c-0.76,2.09-2.25,4.32-4.28,6.43l-17.72,17.87l-0.02,0.02c-3.23,3.35-7.58,6.2-12.58,8.27C137,191.43,131.8,192.53,127.2,192.53
					L127.2,192.53z"/>
				<path fill="#005B5B" d="M177.86,162.8c0.1-0.14,0.2-0.28,0.29-0.42c0.03-0.04,0.06-0.09,0.09-0.13
					c0.09-0.13,0.17-0.26,0.25-0.39c0.03-0.04,0.05-0.09,0.08-0.13c0.09-0.14,0.17-0.27,0.25-0.41c0.02-0.03,0.04-0.06,0.06-0.1
					c0.09-0.16,0.19-0.32,0.28-0.49c0,0,0-0.01,0.01-0.01c0.29-0.53,0.55-1.06,0.78-1.59l0,0l0,0c3.04-7.04,0.34-13.49-7.59-16.21
					l0,0l0,0c-0.17-0.06-0.33-0.11-0.5-0.17c-0.17-0.05-0.34-0.11-0.52-0.16l-37.84-10.85l0,0l-1.18-0.34
					c-0.27-0.08-0.54-0.15-0.82-0.22c-0.04-0.01-0.09-0.02-0.13-0.03c-0.28-0.07-0.56-0.13-0.84-0.19c-0.02,0-0.04-0.01-0.07-0.01
					c-8.22-1.64-18.66,0.6-27.17,5.45l0,0c0,0,0,0,0,0c-0.22,0.13-0.44,0.25-0.65,0.38c-0.02,0.01-0.04,0.03-0.06,0.04
					c-0.2,0.12-0.4,0.24-0.6,0.37c-0.02,0.01-0.04,0.02-0.06,0.03c-0.88,0.55-1.74,1.12-2.57,1.73l0,0c-0.2,0.15-0.41,0.3-0.61,0.45
					c-0.01,0.01-0.02,0.01-0.03,0.02c-0.2,0.15-0.4,0.3-0.59,0.46c0,0,0,0,0,0l0,0c-1.25,0.99-2.43,2.04-3.5,3.15l-17.72,17.88
					c-1.79,1.86-3.18,3.74-4.17,5.6c-0.01,0.02-0.02,0.03-0.03,0.05c-0.08,0.15-0.16,0.3-0.23,0.45c-0.02,0.04-0.04,0.08-0.06,0.12
					c-0.06,0.13-0.13,0.26-0.18,0.39c-0.02,0.05-0.04,0.09-0.06,0.14c-0.06,0.13-0.11,0.26-0.17,0.39
					c-0.02,0.04-0.04,0.08-0.05,0.12c-0.07,0.17-0.14,0.34-0.2,0.51l0,0l0,0c-2.27,6.07-0.24,11.6,5.77,14.55
					c0.01,0.01,0.03,0.01,0.04,0.02c0.12,0.06,0.23,0.11,0.35,0.17c0.03,0.01,0.05,0.02,0.08,0.04c0.11,0.05,0.22,0.1,0.34,0.15
					c0.04,0.02,0.08,0.03,0.12,0.05c0.1,0.04,0.21,0.09,0.32,0.13c0.05,0.02,0.11,0.04,0.16,0.06c0.1,0.04,0.19,0.08,0.29,0.11
					c0.07,0.03,0.14,0.05,0.21,0.08c0.09,0.03,0.17,0.06,0.26,0.09c0.09,0.03,0.19,0.06,0.28,0.09c0.07,0.02,0.14,0.04,0.21,0.07
					c0.17,0.05,0.33,0.1,0.5,0.15l39.02,11.19c8.14,2.33,19.03,0.38,28.01-4.44l0,0c0,0,0,0,0,0c0.94-0.5,1.86-1.04,2.75-1.6
					c0.02-0.01,0.03-0.02,0.05-0.03c0.2-0.12,0.39-0.25,0.58-0.38c0.04-0.02,0.07-0.05,0.11-0.07c0.18-0.12,0.36-0.24,0.54-0.36
					c0.03-0.02,0.07-0.05,0.1-0.07c0.42-0.29,0.84-0.59,1.25-0.9c0,0,0,0,0,0l0,0c1.56-1.17,3.01-2.43,4.31-3.78l17.72-17.88
					c0.87-0.9,1.65-1.81,2.33-2.73l0,0c0.13-0.17,0.26-0.35,0.38-0.52C177.81,162.87,177.83,162.84,177.86,162.8L177.86,162.8z
					 M170.19,146.55c4.65,1.33,6.18,3.7,6.65,5.46c0.38,1.43,0.25,3.06-0.4,4.84c-0.14,0.37-0.3,0.75-0.48,1.13l-14.26-4.23
					l7.38-7.51L170.19,146.55L170.19,146.55z M131.18,135.36l33.28,9.54l-7.35,7.48l-33.99-10.07l7.07-7.2
					C130.53,135.19,130.86,135.27,131.18,135.36L131.18,135.36z M118.96,191.19l-34.24-9.82l6.71-6.83l33.99,10.07L118.96,191.19
					L118.96,191.19z M95.25,170.66l24.05-24.47l33.99,10.07l-24.05,24.47L95.25,170.66L95.25,170.66z M110.12,137.63
					c4.84-2,10.04-3.1,14.65-3.1c0.01,0,0.03,0,0.04,0l-6.3,6.41l-9.52-2.82C109.36,137.95,109.74,137.79,110.12,137.63z
					 M97.52,145.92l0.02-0.02c1.58-1.64,3.44-3.16,5.5-4.53l11.66,3.45l-24.05,24.47l-12.44-3.69c0.48-0.61,1.01-1.22,1.59-1.82
					L97.52,145.92L97.52,145.92z M75.11,175.06c-0.38-1.43-0.25-3.06,0.4-4.84c0.04-0.12,0.09-0.24,0.14-0.36l11.17,3.31l-6.68,6.79
					C76.75,178.6,75.52,176.59,75.11,175.06z M127.2,192.53c-1.18,0-2.32-0.07-3.4-0.21l6.24-6.34l11.75,3.48
					C136.96,191.44,131.78,192.53,127.2,192.53L127.2,192.53z M172.16,163.28l-17.72,17.87l-0.02,0.02
					c-1.82,1.88-3.98,3.6-6.42,5.12l-14.15-4.19l24.05-24.47l15.28,4.53C172.86,162.53,172.52,162.9,172.16,163.28L172.16,163.28z"
					/>
			</g>
			<g>
				<path fill-rule="evenodd" clip-rule="evenodd" d="M85.59,143.74c0.17,0.44,0.81,0.42,0.95-0.03c0.85-2.82,3.09-7,3.09-7
					c4.5,8.07,2.41,17.36,0.67,22.35c0.2,0.23,0.39,0.49,0.58,0.77c0,0,1.95-1.82,2.24-4.17c0.04-0.37,0.47-0.54,0.76-0.31
					c0.63,0.5,1.43,1.42,1.37,2.8c4.53-15.31-3.67-24.11-3.67-24.11l7.77-1.89c0.61-0.15,0.89-0.87,0.54-1.39
					c-3.19-4.82-8.67-1.25-8.67-1.25c0.13-2.71,1.51-6.15,2.65-8.58c0.55-1.18-0.79-2.33-1.87-1.6c-4.45,3.02-5.54,9.18-5.54,9.18
					c-5.8-6.2-10.69-3.14-12.93-1.01c-0.57,0.55-0.25,1.52,0.54,1.61c5.79,0.67,9.45,3.17,9.45,3.17c-4.96,0.31-6.92,4.02-7.7,6.87
					c-0.31,1.13,0.96,2.04,1.93,1.39c3.69-2.45,8.26-4.22,8.26-4.22C84.08,138.65,84.89,141.91,85.59,143.74L85.59,143.74z"/>
				
					<linearGradient id="SVGID_1_" gradientUnits="userSpaceOnUse" x1="93.1726" y1="-710.477" x2="92.5064" y2="-727.0504" gradientTransform="matrix(1 0 0 1 0 880)">
					<stop  offset="0.29" style="stop-color:#E37400;stop-opacity:0"/>
					<stop  offset="0.33" style="stop-color:#E37400;stop-opacity:0.02"/>
					<stop  offset="0.38" style="stop-color:#E47700;stop-opacity:0.1"/>
					<stop  offset="0.45" style="stop-color:#E67B00;stop-opacity:0.21"/>
					<stop  offset="0.52" style="stop-color:#E88100;stop-opacity:0.37"/>
					<stop  offset="0.59" style="stop-color:#EB8900;stop-opacity:0.58"/>
					<stop  offset="0.67" style="stop-color:#EF9200;stop-opacity:0.83"/>
					<stop  offset="0.71" style="stop-color:#F29900"/>
				</linearGradient>
				<path fill-rule="evenodd" clip-rule="evenodd" fill="url(#SVGID_1_)" d="M87.55,163.25c-0.27-1.19-1.06-3.89-3.05-5.89
					c-0.26-0.27-0.09-0.72,0.28-0.75c1.37-0.12,3.99,0.13,6.1,3.22c0,0,1.95-1.82,2.24-4.17c0.04-0.37,0.47-0.54,0.76-0.31
					c0.74,0.58,1.7,1.73,1.26,3.52c0,0,2.69-2.44,5.38-2.48c0.4-0.01,0.59,0.5,0.29,0.76c-1.38,1.18-4.19,3.82-5.17,6.41
					c-0.12,0.32-0.43,0.53-0.77,0.52l-6.56-0.21C87.94,163.86,87.63,163.6,87.55,163.25L87.55,163.25z"/>
				<g>
					<circle fill="#F29900" cx="91.9" cy="133.83" r="1.79"/>
					<circle fill="#FBBC04" cx="88.42" cy="137.26" r="1.79"/>
				</g>
			</g>
		</g>
	</g>
	<g id="Plus_Code_00000163768119498372473070000010807591357951539345_">
		<path fill="#4285F4" d="M161.31,64.92H96.27c-5.36,0-9.7,4.34-9.7,9.7v19.1c0,5.36,4.34,9.7,9.7,9.7h23.86
			c2.57,0,3.33,1.15,3.88,2.12c0.55,0.97,1.39,2.4,2.44,4.3c0.57,1.02,0.97,1.61,1.36,1.93c0.06,0.05,0.13,0.1,0.19,0.15
			c0.02,0.01,0.04,0.03,0.07,0.04c0.01,0,0.02,0.01,0.02,0.01c0.13,0.07,0.25,0.11,0.39,0.14c0.01,0,0.01,0,0.02,0
			c0.03,0.01,0.06,0.01,0.09,0.01c0.03,0,0.05,0,0.08,0.01c0.03,0,0.06,0,0.09,0c0.01,0,0.01,0,0.02,0s0.01,0,0.02,0s0.01,0,0.02,0
			s0.01,0,0.02,0c0.03,0,0.06,0,0.09,0c0.03,0,0.05,0,0.08-0.01c0.03,0,0.06-0.01,0.09-0.01c0.01,0,0.01,0,0.02,0
			c0.13-0.03,0.26-0.07,0.39-0.14c0.01,0,0.02-0.01,0.02-0.01c0.02-0.01,0.04-0.03,0.07-0.04c0.07-0.04,0.13-0.09,0.19-0.15
			c0.38-0.33,0.79-0.92,1.36-1.93c1.05-1.9,1.9-3.33,2.44-4.3s1.31-2.12,3.88-2.12h23.86c5.36,0,9.7-4.34,9.7-9.7v-19.1
			C171.01,69.26,166.67,64.92,161.31,64.92L161.31,64.92z"/>
		<g>
			<path fill="#FFFFFF" d="M93.87,79.12h1.72l2.26,6.67l0.37,1.14h0.09l0.37-1.14l2.36-6.67h1.74l-3.68,10.1h-1.65L93.87,79.12
				L93.87,79.12z"/>
			<path fill="#FFFFFF" d="M104.11,88.7l4.46-8l-0.03-0.04h-4.88v-1.53h6.7v1.62l-4.84,8.71L104.11,88.7L104.11,88.7z"/>
			<path fill="#FFFFFF" d="M113.19,89.15c-0.48-0.2-0.91-0.51-1.27-0.92c-0.36-0.41-0.62-0.91-0.77-1.51l1.46-0.57
				c0.13,0.53,0.37,0.96,0.72,1.28c0.35,0.32,0.78,0.49,1.28,0.49c0.56,0,1.02-0.17,1.38-0.52c0.36-0.35,0.54-0.8,0.54-1.35
				s-0.18-1-0.53-1.36s-0.81-0.54-1.37-0.54c-0.32,0-0.62,0.07-0.88,0.21c-0.26,0.14-0.49,0.33-0.68,0.57l-1.61-0.71l0.62-5.09h5.47
				v1.48h-4.13l-0.37,2.66l0.09,0.01c0.51-0.4,1.11-0.61,1.8-0.61c0.57,0,1.1,0.14,1.6,0.43c0.5,0.29,0.89,0.68,1.19,1.19
				c0.3,0.51,0.44,1.09,0.44,1.74c0,0.65-0.15,1.23-0.46,1.76c-0.31,0.52-0.73,0.93-1.26,1.22c-0.54,0.3-1.14,0.44-1.81,0.44
				C114.16,89.45,113.67,89.35,113.19,89.15L113.19,89.15z"/>
			<path fill="#FFFFFF" d="M118.97,79.12h1.72l2.26,6.67l0.37,1.14h0.09l0.37-1.14l2.36-6.67h1.74l-3.68,10.1h-1.65L118.97,79.12
				L118.97,79.12z"/>
			<path fill="#FFFFFF" d="M135.21,85.06h-2.48v2.48h-1.34v-2.48h-2.48v-1.33h2.48v-2.48h1.34v2.48h2.48L135.21,85.06L135.21,85.06z
				"/>
			<path fill="#FFFFFF" d="M138.89,89.05c-0.54-0.26-0.96-0.63-1.26-1.1c-0.31-0.47-0.46-0.98-0.46-1.54c0-0.56,0.15-1.04,0.45-1.47
				c0.3-0.43,0.69-0.76,1.16-1v-0.09c-0.37-0.25-0.68-0.55-0.91-0.92c-0.24-0.37-0.35-0.77-0.35-1.2c0-0.53,0.13-1.01,0.41-1.45
				c0.27-0.44,0.65-0.78,1.13-1.02c0.49-0.25,1.03-0.37,1.64-0.37s1.16,0.12,1.64,0.37s0.87,0.59,1.14,1.02
				c0.27,0.44,0.41,0.92,0.41,1.45c0,0.43-0.12,0.83-0.35,1.2c-0.24,0.37-0.54,0.68-0.91,0.92v0.09c0.47,0.24,0.86,0.57,1.16,1
				c0.3,0.43,0.45,0.92,0.45,1.47c0,0.55-0.15,1.07-0.46,1.54c-0.31,0.47-0.73,0.83-1.27,1.1c-0.54,0.26-1.14,0.4-1.81,0.4
				C140.03,89.45,139.43,89.32,138.89,89.05L138.89,89.05z M142.06,87.47c0.36-0.3,0.54-0.69,0.54-1.17s-0.18-0.86-0.55-1.16
				c-0.36-0.31-0.82-0.46-1.36-0.46c-0.54,0-0.98,0.15-1.34,0.46c-0.36,0.31-0.55,0.69-0.55,1.16s0.18,0.87,0.54,1.17
				c0.36,0.3,0.81,0.45,1.35,0.45C141.23,87.92,141.7,87.77,142.06,87.47L142.06,87.47z M141.84,82.83c0.3-0.26,0.45-0.61,0.45-1.04
				s-0.15-0.76-0.45-1.01c-0.3-0.25-0.68-0.38-1.14-0.38c-0.46,0-0.83,0.13-1.13,0.38c-0.3,0.25-0.45,0.59-0.45,1.01
				c0,0.42,0.15,0.77,0.45,1.03c0.3,0.26,0.68,0.4,1.13,0.4C141.14,83.22,141.54,83.09,141.84,82.83L141.84,82.83z"/>
			<path fill="#FFFFFF" d="M152.87,88.93c-0.72,0.35-1.5,0.52-2.33,0.52c-0.98,0-1.87-0.23-2.66-0.7c-0.79-0.47-1.42-1.1-1.88-1.91
				c-0.46-0.81-0.68-1.7-0.68-2.67c0-0.97,0.23-1.86,0.68-2.66c0.46-0.8,1.08-1.44,1.88-1.91c0.79-0.47,1.68-0.71,2.66-0.71
				c0.98,0,1.87,0.23,2.67,0.7c0.8,0.47,1.43,1.11,1.88,1.91c0.46,0.8,0.68,1.69,0.68,2.66c0,0.78-0.15,1.51-0.45,2.19
				c-0.3,0.68-0.72,1.26-1.27,1.75l0.75,1.11l-1.2,0.8L152.87,88.93L152.87,88.93z M152,87.64l-1.16-1.72l1.21-0.82l1.13,1.72
				c0.32-0.33,0.57-0.72,0.74-1.17c0.17-0.45,0.26-0.95,0.26-1.48c0-0.73-0.16-1.39-0.49-1.95s-0.76-1.01-1.32-1.33
				c-0.56-0.32-1.17-0.48-1.83-0.48c-0.67,0-1.28,0.16-1.83,0.48c-0.55,0.32-0.99,0.76-1.31,1.33s-0.49,1.22-0.49,1.95
				s0.16,1.39,0.49,1.95c0.32,0.57,0.76,1.01,1.31,1.33c0.55,0.32,1.16,0.48,1.83,0.48C151.04,87.94,151.52,87.84,152,87.64
				L152,87.64z"/>
			<path fill="#FFFFFF" d="M158.14,88.8c-0.65-0.44-1.1-1.08-1.34-1.92l1.5-0.62c0.14,0.52,0.38,0.92,0.71,1.21
				c0.34,0.29,0.75,0.43,1.23,0.43s0.91-0.15,1.27-0.45c0.35-0.3,0.53-0.68,0.53-1.14c0-0.46-0.19-0.86-0.56-1.16
				c-0.37-0.3-0.84-0.45-1.4-0.45h-0.87V83.2H160c0.48,0,0.89-0.13,1.22-0.39c0.33-0.26,0.49-0.62,0.49-1.07
				c0-0.4-0.15-0.72-0.44-0.96c-0.3-0.24-0.67-0.36-1.12-0.36s-0.79,0.12-1.05,0.35c-0.26,0.24-0.45,0.53-0.57,0.87l-1.49-0.62
				c0.2-0.56,0.56-1.05,1.09-1.48c0.53-0.43,1.21-0.64,2.03-0.64c0.61,0,1.16,0.12,1.64,0.35s0.87,0.56,1.14,0.98
				c0.27,0.42,0.41,0.89,0.41,1.41s-0.13,0.98-0.38,1.35c-0.26,0.37-0.57,0.65-0.94,0.85v0.09c0.49,0.21,0.89,0.52,1.21,0.94
				c0.31,0.42,0.47,0.93,0.47,1.52s-0.15,1.12-0.45,1.58c-0.3,0.46-0.71,0.83-1.25,1.09s-1.12,0.4-1.77,0.4
				C159.5,89.45,158.79,89.23,158.14,88.8L158.14,88.8z"/>
		</g>
	</g>
	<g id="House_00000145052775710278071380000005263119846198453415_">
		<g>
			<polygon fill="#9FD5FF" points="130.68,148.09 136.3,149.09 136.3,172.19 104.32,163.08 104.32,141.45 107.07,132.6 
				107.07,121.51 142.46,126.18 142.46,140.66 			"/>
			<path fill="#4667F4" d="M121.68,154.19v13.93l-6.92-2.01V152.6c0-0.44,0.42-0.76,0.84-0.64l5.59,1.59
				C121.49,153.63,121.68,153.89,121.68,154.19L121.68,154.19z"/>
			<polygon fill="#ABABAB" points="104.32,162.44 109.51,167.76 133.11,174.74 136.3,171.56 			"/>
			<path d="M135.15,172.7v-4.26l0.38-0.38c0.06-0.05,0.09-0.13,0.09-0.21v-0.01c0-0.23-0.28-0.35-0.44-0.18l-2.79,2.75v0.78
				l0.57-0.57v4.06l-23.44-6.92v0.63l23.55,7.01l3.24-3.22v-0.63L135.15,172.7L135.15,172.7z M134.52,169.07v4.26l-0.94,0.93V170
				L134.52,169.07z"/>
			<polygon fill="#4667F4" points="126.17,167.73 122.76,171.15 122.76,176.99 128.97,178.63 128.97,172.79 132.38,169.37 			"/>
			<polygon fill="#15173D" points="128.97,178.63 132.38,175.18 132.38,169.37 128.97,172.79 			"/>
			<path fill="#BCE9FF" d="M120.25,156.05v5c0,0.29-0.28,0.5-0.56,0.42l-3.18-0.92c-0.19-0.05-0.32-0.23-0.32-0.42v-4.98
				c0-0.29,0.28-0.5,0.56-0.42l3.18,0.9C120.12,155.68,120.25,155.85,120.25,156.05L120.25,156.05z"/>
			<ellipse fill="#DEF5FF" cx="127.68" cy="169.31" rx="3.32" ry="2.5"/>
			<path fill="#F3FCFF" d="M127.68,152.23c-1.58,0-2.86,3.87-2.86,8.64c0,1.04,0.06,2.05,0.17,2.97c0.17,1.37,0.44,2.57,0.8,3.52
				c0.54,0.28,1.19,0.44,1.89,0.44s1.35-0.17,1.89-0.44c0.36-0.94,0.63-2.15,0.8-3.52c0.11-0.93,0.17-1.93,0.17-2.97
				C130.53,156.1,129.25,152.23,127.68,152.23L127.68,152.23z"/>
			<ellipse fill="#DEF5FF" cx="127.68" cy="152.43" rx="3.32" ry="2.5"/>
			<g>
				<polygon fill="#4667F4" points="103.3,160.95 99.89,164.37 106.1,166 109.51,162.59 				"/>
				<polygon fill="#4667F4" points="99.89,170.21 106.1,171.85 106.1,166.01 99.89,164.37 				"/>
			</g>
			<polygon fill="#15173D" points="106.1,171.85 109.51,168.4 109.51,162.59 106.1,166.01 			"/>
			<ellipse fill="#DEF5FF" cx="104.8" cy="162.44" rx="3.32" ry="2.5"/>
			<path fill="#F3FCFF" d="M104.8,145.36c-1.58,0-2.86,3.87-2.86,8.64c0,1.04,0.06,2.05,0.17,2.97c0.17,1.37,0.44,2.57,0.8,3.52
				c0.54,0.28,1.19,0.44,1.89,0.44c0.7,0,1.35-0.17,1.89-0.44c0.36-0.94,0.63-2.15,0.8-3.52c0.11-0.93,0.17-1.93,0.17-2.97
				C107.66,149.23,106.38,145.36,104.8,145.36L104.8,145.36z"/>
			<ellipse fill="#DEF5FF" cx="104.8" cy="145.56" rx="3.32" ry="2.5"/>
			<path fill="#4667F4" d="M136.78,133.07c-0.28,0-0.56-0.12-0.75-0.35l-4.37-5.2c-0.35-0.42-0.3-1.04,0.12-1.39
				c0.42-0.35,1.04-0.3,1.39,0.12l4.37,5.2c0.35,0.42,0.3,1.04-0.12,1.39C137.23,132.99,137,133.07,136.78,133.07L136.78,133.07z"/>
			<path fill="#4667F4" d="M128.79,130.89c-0.28,0-0.56-0.12-0.75-0.35l-4.37-5.2c-0.35-0.42-0.3-1.04,0.12-1.39
				c0.42-0.35,1.04-0.3,1.39,0.12l4.37,5.2c0.35,0.42,0.3,1.04-0.12,1.39C129.24,130.81,129.01,130.89,128.79,130.89L128.79,130.89z
				"/>
			<path fill="#4667F4" d="M120.8,128.78c-0.28,0-0.56-0.12-0.75-0.35l-4.37-5.2c-0.35-0.42-0.3-1.04,0.12-1.39s1.04-0.3,1.39,0.12
				l4.37,5.2c0.35,0.42,0.3,1.04-0.12,1.39C121.25,128.71,121.02,128.78,120.8,128.78L120.8,128.78z"/>
			<path fill="#4667F4" d="M112.81,126.12c-0.28,0-0.56-0.12-0.75-0.35l-4.37-5.2c-0.35-0.42-0.3-1.04,0.12-1.39
				c0.42-0.35,1.04-0.3,1.39,0.12l4.37,5.2c0.35,0.42,0.3,1.04-0.12,1.39C113.26,126.04,113.03,126.12,112.81,126.12L112.81,126.12z
				"/>
			
				<linearGradient id="SVGID_00000089567978949291583650000017446943876518367126_" gradientUnits="userSpaceOnUse" x1="105.739" y1="1612.4569" x2="109.8533" y2="1610.0642" gradientTransform="matrix(1 0 0 -1 0 1726)">
				<stop  offset="0.08" style="stop-color:#4667F4"/>
				<stop  offset="0.69" style="stop-color:#15173D"/>
			</linearGradient>
			<path fill="url(#SVGID_00000089567978949291583650000017446943876518367126_)" d="M111.87,109.58c-0.79-0.25-1.62,0.05-2.02,0.73
				c-1.61,2.57-3,5.14-4.65,7.68c-0.67,1.03-0.55,2.05,0.08,2.85l6.75-11.22L111.87,109.58L111.87,109.58z"/>
			
				<linearGradient id="SVGID_00000067212836510039334390000010313108502010565544_" gradientUnits="userSpaceOnUse" x1="108.5451" y1="1611.2384" x2="112.8396" y2="1608.7192" gradientTransform="matrix(1 0 0 -1 0 1726)">
				<stop  offset="0.08" style="stop-color:#4667F4"/>
				<stop  offset="0.7" style="stop-color:#15173D"/>
			</linearGradient>
			<path fill="url(#SVGID_00000067212836510039334390000010313108502010565544_)" d="M112.02,109.63l-6.75,11.22
				c0.4,0.51,1.02,0.92,1.77,1.18c0.54,0.18,1.07,0.24,1.55,0.21l6.98-11.6L112.02,109.63L112.02,109.63z"/>
			
				<linearGradient id="SVGID_00000114042246647828133450000005932597834662792595_" gradientUnits="userSpaceOnUse" x1="111.972" y1="1610.1443" x2="116.5087" y2="1607.5564" gradientTransform="matrix(1 0 0 -1 0 1726)">
				<stop  offset="0.08" style="stop-color:#4667F4"/>
				<stop  offset="0.69" style="stop-color:#15173D"/>
			</linearGradient>
			<path fill="url(#SVGID_00000114042246647828133450000005932597834662792595_)" d="M115.57,110.63l-6.98,11.6
				c0.28-0.02,0.54-0.08,0.78-0.16c0.58-0.21,1.24-0.02,1.67,0.47c0.27,0.32,0.62,0.6,1.03,0.83l7.05-11.72L115.57,110.63
				L115.57,110.63z"/>
			
				<linearGradient id="SVGID_00000055698108584504458410000010301128138306704012_" gradientUnits="userSpaceOnUse" x1="115.4145" y1="1609.1331" x2="120.3221" y2="1606.2837" gradientTransform="matrix(1 0 0 -1 0 1726)">
				<stop  offset="0.08" style="stop-color:#4667F4"/>
				<stop  offset="0.67" style="stop-color:#15173D"/>
			</linearGradient>
			<path fill="url(#SVGID_00000055698108584504458410000010301128138306704012_)" d="M119.12,111.64l-7.05,11.72
				c0.23,0.13,0.48,0.24,0.74,0.33c0.84,0.29,1.68,0.28,2.33,0.05c0.28-0.1,0.59-0.11,0.88-0.03l6.65-11.06L119.12,111.64
				L119.12,111.64z"/>
			
				<linearGradient id="SVGID_00000150799750179939060830000013954106378937373838_" gradientUnits="userSpaceOnUse" x1="119.233" y1="1608.3506" x2="123.7333" y2="1605.6278" gradientTransform="matrix(1 0 0 -1 0 1726)">
				<stop  offset="0.08" style="stop-color:#4667F4"/>
				<stop  offset="0.69" style="stop-color:#15173D"/>
			</linearGradient>
			<path fill="url(#SVGID_00000150799750179939060830000013954106378937373838_)" d="M122.67,112.64l-6.65,11.06
				c0.3,0.08,0.57,0.25,0.79,0.5c0.43,0.49,1.04,0.91,1.77,1.16c0.17,0.06,0.35,0.1,0.52,0.14l7.13-11.85L122.67,112.64z"/>
			
				<linearGradient id="SVGID_00000116925751496953221570000003619969167219528863_" gradientUnits="userSpaceOnUse" x1="122.5179" y1="1607.056" x2="127.2925" y2="1604.2345" gradientTransform="matrix(1 0 0 -1 0 1726)">
				<stop  offset="0.08" style="stop-color:#4667F4"/>
				<stop  offset="0.66" style="stop-color:#15173D"/>
			</linearGradient>
			<path fill="url(#SVGID_00000116925751496953221570000003619969167219528863_)" d="M126.22,113.65l-7.13,11.85
				c0.66,0.14,1.29,0.1,1.81-0.09c0.58-0.21,1.24-0.02,1.67,0.47c0.09,0.1,0.18,0.19,0.28,0.29l6.92-11.5L126.22,113.65
				L126.22,113.65z"/>
			
				<linearGradient id="SVGID_00000113341809355684431120000006256409555769760161_" gradientUnits="userSpaceOnUse" x1="126.2867" y1="1606.125" x2="130.6776" y2="1603.4857" gradientTransform="matrix(1 0 0 -1 0 1726)">
				<stop  offset="0.08" style="stop-color:#4667F4"/>
				<stop  offset="0.69" style="stop-color:#15173D"/>
			</linearGradient>
			<path fill="url(#SVGID_00000113341809355684431120000006256409555769760161_)" d="M129.77,114.65l-6.92,11.5
				c0.4,0.37,0.91,0.68,1.49,0.87c0.74,0.25,1.46,0.28,2.06,0.12l6.92-11.5L129.77,114.65L129.77,114.65z"/>
			
				<linearGradient id="SVGID_00000076605182677158299680000013243490258896696995_" gradientUnits="userSpaceOnUse" x1="129.8273" y1="1605.1252" x2="134.4454" y2="1602.4882" gradientTransform="matrix(1 0 0 -1 0 1726)">
				<stop  offset="0.08" style="stop-color:#4667F4"/>
				<stop  offset="0.66" style="stop-color:#15173D"/>
			</linearGradient>
			<path fill="url(#SVGID_00000076605182677158299680000013243490258896696995_)" d="M133.32,115.66l-6.92,11.5
				c0.09-0.02,0.18-0.05,0.26-0.08c0.58-0.21,1.24-0.02,1.67,0.47c0.35,0.4,0.83,0.75,1.39,1.01l7.15-11.88L133.32,115.66z"/>
			
				<linearGradient id="SVGID_00000177483179802354667730000000672360084098760585_" gradientUnits="userSpaceOnUse" x1="133.349" y1="1603.8929" x2="137.8278" y2="1601.2881" gradientTransform="matrix(1 0 0 -1 0 1726)">
				<stop  offset="0.08" style="stop-color:#4667F4"/>
				<stop  offset="0.69" style="stop-color:#15173D"/>
			</linearGradient>
			<path fill="url(#SVGID_00000177483179802354667730000000672360084098760585_)" d="M136.87,116.66l-7.15,11.88
				c0.12,0.06,0.25,0.11,0.39,0.15c0.84,0.29,1.68,0.28,2.33,0.05c0.41-0.15,0.87-0.09,1.25,0.12l6.74-11.2L136.87,116.66
				L136.87,116.66z"/>
			
				<linearGradient id="SVGID_00000044880838538947135970000005898763868296232845_" gradientUnits="userSpaceOnUse" x1="137.0477" y1="1603.1132" x2="141.192" y2="1600.6776" gradientTransform="matrix(1 0 0 -1 0 1726)">
				<stop  offset="0.08" style="stop-color:#4667F4"/>
				<stop  offset="0.73" style="stop-color:#15173D"/>
			</linearGradient>
			<path fill="url(#SVGID_00000044880838538947135970000005898763868296232845_)" d="M140.42,117.67l-6.74,11.2
				c0.15,0.09,0.3,0.2,0.42,0.34c0.43,0.49,1.04,0.91,1.77,1.16c0.32,0.11,0.63,0.17,0.94,0.2l7.16-11.89L140.42,117.67
				L140.42,117.67z"/>
			
				<linearGradient id="SVGID_00000135659242699557774380000004872915892462190476_" gradientUnits="userSpaceOnUse" x1="140.2718" y1="1601.9968" x2="144.3711" y2="1599.5656" gradientTransform="matrix(1 0 0 -1 0 1726)">
				<stop  offset="0.08" style="stop-color:#4667F4"/>
				<stop  offset="0.77" style="stop-color:#15173D"/>
			</linearGradient>
			<path fill="url(#SVGID_00000135659242699557774380000004872915892462190476_)" d="M143.97,118.68l-7.16,11.89
				c0.53,0.05,1.02-0.01,1.43-0.17c0.38-0.15,0.82-0.11,1.19,0.09c0.36,0.2,0.62,0.53,1,0.72c0.04,0.02,0.07,0.04,0.11,0.05
				l6.97-11.58c-0.03-0.01-0.06-0.02-0.09-0.03L143.97,118.68z"/>
			
				<linearGradient id="SVGID_00000111188930437484931540000008513647548864022404_" gradientUnits="userSpaceOnUse" x1="143.7432" y1="1600.7395" x2="146.5433" y2="1598.9279" gradientTransform="matrix(1 0 0 -1 0 1726)">
				<stop  offset="0.08" style="stop-color:#4667F4"/>
				<stop  offset="0.81" style="stop-color:#15173D"/>
			</linearGradient>
			<path fill="url(#SVGID_00000111188930437484931540000008513647548864022404_)" d="M142.15,131.18c0.38-0.59,5.93-7.36,5.93-7.36
				c0.33-0.37,0.54-0.89,0.54-1.4v-1.21c0.01-0.7-0.45-1.29-1.1-1.51l-6.97,11.58C141.06,131.49,141.77,131.59,142.15,131.18
				L142.15,131.18z"/>
			<path fill="#005B5B" d="M114.51,166.23l-1.7,1.5c-0.23,0.21-0.15,0.59,0.15,0.68l5.78,1.72c0.22,0.07,0.46,0.01,0.63-0.15
				l1.72-1.6c0.2-0.19,0.12-0.53-0.14-0.6l-5.82-1.69C114.91,166.03,114.67,166.08,114.51,166.23z"/>
			
				<linearGradient id="SVGID_00000158007648117432397250000003223803262028030336_" gradientUnits="userSpaceOnUse" x1="99.1852" y1="1591.9501" x2="103.6876" y2="1589.2466" gradientTransform="matrix(1 0 0 -1 0 1726)">
				<stop  offset="0.08" style="stop-color:#4667F4"/>
				<stop  offset="0.73" style="stop-color:#15173D"/>
			</linearGradient>
			<path fill="url(#SVGID_00000158007648117432397250000003223803262028030336_)" d="M106.74,128.22c-0.57-0.19-1.17-0.04-1.54,0.39
				l-8.33,13.54c-0.21,0.33-0.12,0.78,0.2,1.04c0.24,0.2,0.48,0.34,0.72,0.44l9.22-15.32L106.74,128.22L106.74,128.22z"/>
			
				<linearGradient id="SVGID_00000077283861056728738770000002078755571478662787_" gradientUnits="userSpaceOnUse" x1="102.0384" y1="1590.7102" x2="107.1432" y2="1587.7858" gradientTransform="matrix(1 0 0 -1 0 1726)">
				<stop  offset="0.08" style="stop-color:#4667F4"/>
				<stop  offset="0.67" style="stop-color:#15173D"/>
			</linearGradient>
			<path fill="url(#SVGID_00000077283861056728738770000002078755571478662787_)" d="M107.01,128.3l-9.22,15.32
				c1.32,0.56,2.46-0.16,2.46-0.16c0.53-0.2,1.15-0.05,1.57,0.37l8.7-14.46L107.01,128.3L107.01,128.3z"/>
			
				<linearGradient id="SVGID_00000084513422419732692190000011493658371346370993_" gradientUnits="userSpaceOnUse" x1="105.845" y1="1589.8738" x2="110.401" y2="1587.3224" gradientTransform="matrix(1 0 0 -1 0 1726)">
				<stop  offset="0.08" style="stop-color:#4667F4"/>
				<stop  offset="0.73" style="stop-color:#15173D"/>
			</linearGradient>
			<path fill="url(#SVGID_00000084513422419732692190000011493658371346370993_)" d="M110.52,129.38l-8.7,14.46
				c0.03,0.03,0.07,0.06,0.1,0.1c0.43,0.49,1.04,0.91,1.77,1.16c0.48,0.16,0.96,0.23,1.4,0.21l8.94-14.85L110.52,129.38
				L110.52,129.38z"/>
			
				<linearGradient id="SVGID_00000098934340271058912500000002839164806429193866_" gradientUnits="userSpaceOnUse" x1="109.3922" y1="1588.6495" x2="114.244" y2="1585.9609" gradientTransform="matrix(1 0 0 -1 0 1726)">
				<stop  offset="0.08" style="stop-color:#4667F4"/>
				<stop  offset="0.67" style="stop-color:#15173D"/>
			</linearGradient>
			<path fill="url(#SVGID_00000098934340271058912500000002839164806429193866_)" d="M114.03,130.45l-8.94,14.85
				c0.33-0.01,0.65-0.07,0.92-0.17c0.58-0.21,1.25-0.02,1.67,0.47c0.25,0.29,0.56,0.55,0.92,0.76l8.93-14.84L114.03,130.45
				L114.03,130.45z"/>
			
				<linearGradient id="SVGID_00000083084072145502173650000000486843284810652086_" gradientUnits="userSpaceOnUse" x1="112.8858" y1="1587.6288" x2="117.5533" y2="1584.9552" gradientTransform="matrix(1 0 0 -1 0 1726)">
				<stop  offset="0.08" style="stop-color:#4667F4"/>
				<stop  offset="0.69" style="stop-color:#15173D"/>
			</linearGradient>
			<path fill="url(#SVGID_00000083084072145502173650000000486843284810652086_)" d="M117.54,131.53l-8.93,14.84
				c0.26,0.16,0.54,0.29,0.85,0.39c0.84,0.29,1.68,0.28,2.33,0.05c0.24-0.09,0.5-0.1,0.75-0.06l8.51-14.15L117.54,131.53
				L117.54,131.53z"/>
			
				<linearGradient id="SVGID_00000032608941566593610600000010660516641346601894_" gradientUnits="userSpaceOnUse" x1="116.5037" y1="1586.7583" x2="121.3019" y2="1584.134" gradientTransform="matrix(1 0 0 -1 0 1726)">
				<stop  offset="0.08" style="stop-color:#4667F4"/>
				<stop  offset="0.69" style="stop-color:#15173D"/>
			</linearGradient>
			<path fill="url(#SVGID_00000032608941566593610600000010660516641346601894_)" d="M121.05,132.6l-8.51,14.15
				c0.34,0.06,0.67,0.24,0.92,0.53c0.43,0.49,1.04,0.91,1.77,1.16c0.13,0.04,0.26,0.08,0.39,0.11l8.94-14.87L121.05,132.6
				L121.05,132.6z"/>
			
				<linearGradient id="SVGID_00000023268066196034446320000000404843089730317486_" gradientUnits="userSpaceOnUse" x1="119.9047" y1="1585.4624" x2="124.9517" y2="1582.5743" gradientTransform="matrix(1 0 0 -1 0 1726)">
				<stop  offset="0.08" style="stop-color:#4667F4"/>
				<stop  offset="0.64" style="stop-color:#15173D"/>
			</linearGradient>
			<path fill="url(#SVGID_00000023268066196034446320000000404843089730317486_)" d="M124.56,133.68l-8.94,14.87
				c0.71,0.17,1.39,0.14,1.94-0.06c0.58-0.21,1.25-0.02,1.67,0.47c0.06,0.07,0.12,0.13,0.19,0.2l8.66-14.39L124.56,133.68
				L124.56,133.68z"/>
			
				<linearGradient id="SVGID_00000137834837597208057680000000431011230732127666_" gradientUnits="userSpaceOnUse" x1="123.5029" y1="1584.5479" x2="128.4298" y2="1581.7949" gradientTransform="matrix(1 0 0 -1 0 1726)">
				<stop  offset="0.08" style="stop-color:#4667F4"/>
				<stop  offset="0.68" style="stop-color:#15173D"/>
			</linearGradient>
			<path fill="url(#SVGID_00000137834837597208057680000000431011230732127666_)" d="M128.07,134.75l-8.66,14.39
				c0.41,0.41,0.95,0.75,1.58,0.96c0.67,0.23,1.33,0.27,1.9,0.16l8.69-14.44L128.07,134.75L128.07,134.75z"/>
			
				<linearGradient id="SVGID_00000121240694820259654900000016784576991898587036_" gradientUnits="userSpaceOnUse" x1="126.898" y1="1583.6178" x2="132.0993" y2="1580.6355" gradientTransform="matrix(1 0 0 -1 0 1726)">
				<stop  offset="0.08" style="stop-color:#4667F4"/>
				<stop  offset="0.66" style="stop-color:#15173D"/>
			</linearGradient>
			<path fill="url(#SVGID_00000121240694820259654900000016784576991898587036_)" d="M131.58,135.82l-8.69,14.44
				c0.15-0.03,0.29-0.06,0.43-0.11c0.58-0.21,1.25-0.02,1.67,0.47c0.33,0.38,0.76,0.71,1.27,0.95l8.83-14.67L131.58,135.82
				L131.58,135.82z"/>
			
				<linearGradient id="SVGID_00000119814012703767895490000012514754343733475496_" gradientUnits="userSpaceOnUse" x1="130.3975" y1="1582.4202" x2="135.646" y2="1579.3413" gradientTransform="matrix(1 0 0 -1 0 1726)">
				<stop  offset="0.08" style="stop-color:#4667F4"/>
				<stop  offset="0.66" style="stop-color:#15173D"/>
			</linearGradient>
			<path fill="url(#SVGID_00000119814012703767895490000012514754343733475496_)" d="M135.09,136.9l-8.83,14.67
				c0.16,0.08,0.33,0.15,0.5,0.2c0.52,0.17,1.05,0.24,1.58,0.21c0.46-0.03,0.89-0.29,1.36-0.26c0.19,0.01,0.37,0.07,0.54,0.16
				l8.36-13.9L135.09,136.9L135.09,136.9z"/>
			
				<linearGradient id="SVGID_00000131350765964003070330000007778068100831545224_" gradientUnits="userSpaceOnUse" x1="133.9499" y1="1581.5879" x2="139.5521" y2="1578.6185" gradientTransform="matrix(1 0 0 -1 0 1726)">
				<stop  offset="0.08" style="stop-color:#4667F4"/>
				<stop  offset="0.65" style="stop-color:#15173D"/>
			</linearGradient>
			<path fill="url(#SVGID_00000131350765964003070330000007778068100831545224_)" d="M138.59,137.97l-8.36,13.9
				c0.19,0.1,0.36,0.23,0.52,0.36c0.72,0.6,2.2,1.61,3,0.69l8.34-13.86v-0.03L138.59,137.97z"/>
			<path fill="#47A1FB" d="M148.62,122.41v-1.21c0-0.15-0.02-0.29-0.05-0.42l-6.47,10.46v4.23l-9.81,16.39
				c-0.27,0.47-0.11,1.07,0.36,1.34c0.41,0.24,0.94,0.14,1.24-0.23l2.41-2.62v21.85l12.29-12.22L148.62,122.41L148.62,122.41
				L148.62,122.41z"/>
			<path fill="#15173D" d="M145.22,132.61l0.43-0.43c0.4-0.4,1.09-0.12,1.09,0.45v2.63c0,0.13-0.05,0.25-0.14,0.34l-1.97,1.97
				c-0.09,0.09-0.24,0.03-0.24-0.1v-2.83C144.38,133.89,144.68,133.16,145.22,132.61L145.22,132.61z"/>
		</g>
	</g>
</g>
</svg>
