<svg version="1.1" id="Layer_1" xmlns="http://www.w3.org/2000/svg" xmlns:xlink="http://www.w3.org/1999/xlink" x="0px" y="0px" width="600px" height="200px" viewBox="0 0 600 200" enable-background="new 0 0 600 200" xml:space="preserve"><linearGradient id="SVGID_1_" gradientUnits="userSpaceOnUse" x1="281.4511" y1="722.9912" x2="269.1711" y2="763.4212" gradientTransform="matrix(1 0 0 1 0 -566)"><stop offset="0" style="stop-color:#202124;stop-opacity:0.1"></stop><stop offset="0.03" style="stop-color:#202124;stop-opacity:0.09"></stop><stop offset="1" style="stop-color:#202124;stop-opacity:0"></stop></linearGradient><path fill="url(#SVGID_1_)" d="M305.56,204.86c1.9-4.05,2-7.45,1-10.57l0,0c-1.63-5.24-6.33-9.7-10.73-15.18l0,0 c-1.484-1.814-2.851-3.721-4.09-5.71c-4.49-7.34-0.3-11.22-5.15-11.58s-4.65,3.84-15.48,10c-17.93,10.26-35,14.29-41.15,27.37 c-1.62,3.215-1.755,6.977-0.37,10.3l0,0c2.25,5.35,8.37,9.79,17.15,12.23l0,0c3.568,0.97,7.222,1.586,10.91,1.84 c11.14,0.849,22.318-1.054,32.55-5.54l0,0C297.5,214.72,303.09,210.14,305.56,204.86z M263.91,210.3c-8-0.59-12.71-4.76-10.58-9.31 c0.92-2,3-3.67,5.64-4.94l0,0l0.17-0.08l0,0c3.898-1.708,8.156-2.432,12.4-2.11c8,0.6,12.71,4.77,10.58,9.31 c-1.224,2.174-3.138,3.878-5.44,4.84l0,0l-0.36,0.18l0,0l-0.21,0.09l-0.19,0.08C272.126,209.944,268.01,210.609,263.91,210.3z"></path><linearGradient id="SVGID_2_" gradientUnits="userSpaceOnUse" x1="394.5" y1="622.13" x2="394.5" y2="704.1" gradientTransform="matrix(1 0 0 1 0 -566)"><stop offset="0" style="stop-color:#EFF1F2"></stop><stop offset="1" style="stop-color:#EFF1F2;stop-opacity:0"></stop></linearGradient><path fill="url(#SVGID_2_)" d="M290.72,117.85L265,147.24l259-1.31v-21.15l-7.72-6.93L454.63,60 c-4.403-4.132-11.233-4.219-15.74-0.2c-8.09,7.2-20.38,18.12-42.09,27.88C355.17,106.4,311.13,98.92,290.72,117.85z"></path><path fill="#FFFFFF" d="M434.85,81.58c2.45,2.17,4.76,4.22,8.36,4.22c4.27,0,6.52-2.36,8.7-4.64s4.44-4.65,8.79-4.65 c6.1,0,10.59,2.54,14.95,5c1.48,0.84,2.92,1.65,4.4,2.34l-1.18-1.1c-1-0.52-2-1.08-3-1.65c-4.41-2.49-9-5.06-15.18-5.06 c-4.55,0-6.88,2.44-9.13,4.79s-4.29,4.5-8.36,4.5c-3.42,0-5.67-2-8-4.1c-2.77-2.45-5.91-5.23-11.43-5.23c-2.32,0-6.12,1.25-9.93,2.8 c-1.06,0.667-2.15,1.307-3.27,1.92c4.78-2.13,10.27-4.26,13.2-4.26C429.08,76.46,432,79.06,434.85,81.58z"></path><linearGradient id="SVGID_3_" gradientUnits="userSpaceOnUse" x1="84.36" y1="621.49" x2="84.36" y2="729.33" gradientTransform="matrix(1 0 0 1 0 -566)"><stop offset="0" style="stop-color:#EFF1F2"></stop><stop offset="1" style="stop-color:#EFF1F2;stop-opacity:0"></stop></linearGradient><path fill="url(#SVGID_3_)" d="M92.72,166l-4.49-64.88l3.66-10.32h-5.26l-0.39-10.41c1.17-0.16,2-0.5,2-0.91s-0.83-0.75-2-0.91 c1.2-0.15,2-0.5,2-0.91s-0.88-0.78-2.13-0.93l-0.72-19.08c0.977-0.318,1.511-1.367,1.194-2.344 c-0.318-0.977-1.367-1.511-2.344-1.194c-0.977,0.318-1.511,1.367-1.194,2.344c0.184,0.566,0.628,1.01,1.194,1.194l-0.76,19.06 c-1.25,0.15-2.14,0.51-2.14,0.93s0.84,0.76,2,0.91c-1.2,0.16-2,0.51-2,0.91s0.82,0.75,2,0.91l-0.41,10.41h-5l3.41,10.27L76,166 H92.72z"></path><linearGradient id="SVGID_4_" gradientUnits="userSpaceOnUse" x1="162.31" y1="616.08" x2="162.31" y2="723.14" gradientTransform="matrix(1 0 0 1 0 -566)"><stop offset="0" style="stop-color:#EFF1F2"></stop><stop offset="1" style="stop-color:#EFF1F2;stop-opacity:0"></stop></linearGradient><path fill="url(#SVGID_4_)" d="M146.88,109.63V48.69h-12c-9.615,0-17.41,7.795-17.41,17.41c0,0.003,0,0.007,0,0.01v96.83h89.68 V142.8h-26.47v-6.41c0-14.779-11.981-26.76-26.76-26.76H146.88z"></path><linearGradient id="SVGID_5_" gradientUnits="userSpaceOnUse" x1="387.17" y1="696.5" x2="387.17" y2="710.74" gradientTransform="matrix(1 0 0 1 0 -566)"><stop offset="0" style="stop-color:#EFF1F2"></stop><stop offset="1" style="stop-color:#EFF1F2;stop-opacity:0"></stop></linearGradient><path fill="url(#SVGID_5_)" d="M372.35,111.14v25l0.51,0.45c4.385-4.184,11.285-4.184,15.67,0c4.389-4.185,11.291-4.185,15.68,0 c4.534-4.328,11.719-4.161,16.047,0.373c0.021,0.022,0.042,0.044,0.063,0.067c4.473-3.836,11.136-3.619,15.35,0.5 c4.619-4.263,11.818-3.974,16.081,0.645c1.79,1.939,2.85,4.441,2.999,7.075H319.59v-8.56c0-0.983,0.797-1.78,1.78-1.78h0.7 c0.005-6.155,4.985-11.148,11.14-11.17h13.36V78h7.89c9.88,0,17.89,8.01,17.89,17.89l0,0L372.35,111.14L372.35,111.14z"></path><linearGradient id="SVGID_6_" gradientUnits="userSpaceOnUse" x1="207.19" y1="669.94" x2="207.19" y2="718.06" gradientTransform="matrix(1 0 0 1 0 -566)"><stop offset="0" style="stop-color:#EFF1F2"></stop><stop offset="1" style="stop-color:#EFF1F2;stop-opacity:0"></stop></linearGradient><path fill="url(#SVGID_6_)" d="M234.53,127.12H216v-24.23h-52.54v49.54h87.46v-8.92C250.92,134.458,243.582,127.12,234.53,127.12 L234.53,127.12z"></path><path fill="#EFF1F2" d="M454.53,145.2h39.9c-0.01-3.333-2.668-6.053-6-6.14c-2.272,0.01-4.252,1.55-4.82,3.75 c-0.5-2.556-2.746-4.395-5.35-4.38c-2.346,0.001-4.389,1.602-4.95,3.88c-0.785-2.573-3.506-4.022-6.079-3.237 c-1.579,0.482-2.807,1.73-3.261,3.317c-0.658-1.884-2.434-3.147-4.43-3.15C459.54,139.24,454.48,139.36,454.53,145.2z"></path><path fill="#4282F2" d="M286.93,32.65c-24.52-0.936-45.156,18.183-46.092,42.703c-0.388,10.163,2.723,20.151,8.812,28.297 c0,0,10,11.66,14.2,17.77c3.87,5.69,15.33,23.22,17.7,35.24c0.537,2.14,2.434,3.661,4.64,3.72h0.12 c2.212-0.035,4.129-1.54,4.69-3.68c2.37-12,13.83-29.55,17.7-35.24c4.16-6.11,14.2-17.77,14.2-17.77 c5.762-7.702,8.858-17.071,8.82-26.69C331.72,51.93,312.25,31.69,286.93,32.65z"></path><path fill="#D8DADE" d="M182.67,36.7L182.67,36.7c-2.423-4.635-6.583-8.123-11.57-9.7l0,0c-7.63-2.414-15.962,0.015-21.1,6.15l0,0 c-2.996,3.557-4.636,8.06-4.63,12.71c-0.036,3.259,0.647,6.485,2,9.45l0,0c2.07,4.53,5.5,8.18,9,12.74l0,0 c1.15,1.48,2.3,3,3.43,4.79c4,6.21,2.81,9.93,5.34,9.93s1.44-3.72,5.46-9.93c6.63-10.28,14.32-15,14.32-27 C184.922,42.656,184.15,39.519,182.67,36.7z"></path><path fill="#D8DADE" d="M203.87,138.64l-9.71-12.19v-34.1h-54.47c-3.294,0.027-5.95,2.706-5.95,6v68.28h60.42v-27.17h9.3 c0.282,0.003,0.512-0.223,0.515-0.505C203.976,138.841,203.939,138.73,203.87,138.64z"></path><linearGradient id="SVGID_7_" gradientUnits="userSpaceOnUse" x1="204.4457" y1="585.5457" x2="158.1857" y2="713.9657" gradientTransform="matrix(1 0 0 1 0 -566)"><stop offset="0" style="stop-color:#EFF1F2"></stop><stop offset="1" style="stop-color:#EFF1F2;stop-opacity:0"></stop></linearGradient><path fill="url(#SVGID_7_)" d="M203.87,138.64l-9.71-12.19v-34.1h-54.47c-3.294,0.027-5.95,2.706-5.95,6v68.28h60.42v-27.17h9.3 c0.282,0.003,0.512-0.223,0.515-0.505C203.976,138.841,203.939,138.73,203.87,138.64z"></path><path fill="#FFFFFF" d="M194.16,125.71H149V92.35h-0.66v74.23H149v-40l10,13.47c0.062,0.081,0.158,0.129,0.26,0.13h2.37v26.36h0.66 v-19.78h10.28v19.82h0.66v-19.82H184v19.82h0.66v-26.36h9.5v-0.66h-34.72l-9.82-13.19h44.54V125.71z M184,146.1h-21.7v-5.88H184 V146.1z"></path><path fill="#FFFFFF" d="M155.39,146c-2.209,0-4,1.791-4,4s1.791,4,4,4s4-1.791,4-4S157.599,146,155.39,146z M155.39,153.29 c-1.834,0.006-3.324-1.476-3.33-3.31s1.476-3.324,3.31-3.33s3.324,1.476,3.33,3.31c0,0.003,0,0.007,0,0.01 c-0.027,1.81-1.5,3.265-3.31,3.27V153.29z"></path><path fill="#FFFFFF" d="M153.17,122.74h37.58c0.182,0,0.33-0.148,0.33-0.33l0,0v-17c0-0.182-0.148-0.33-0.33-0.33l0,0h-37.58 c-0.182,0-0.33,0.148-0.33,0.33l0,0v17C152.84,122.592,152.988,122.74,153.17,122.74L153.17,122.74z M153.5,105.74h36.92v16.39 H153.5V105.74z"></path><path fill="#D8DADE" d="M215.14,166.52l0.79-0.21l-5-18.95c-0.045-0.18-0.205-0.307-0.39-0.31h-9.36 c-0.193,0.005-0.359,0.141-0.4,0.33l-3.89,19l0.81,0.17l0.86-4.19h6.3l1.17,4.22l0.79-0.22l-1.11-4H214L215.14,166.52z  M198.69,161.52l2.51-12.27l3.39,12.27H198.69z M205.44,161.52l-3.76-13.61h8.5l3.62,13.61H205.44z"></path><path fill="#D8DADE" d="M93.63,166.58h53.29c-0.35-5.35-4.27-8.2-8-8.2c-3.03,0.018-5.671,2.069-6.44,5 c-0.672-3.413-3.672-5.867-7.15-5.85c-3.132,0.001-5.86,2.139-6.61,5.18c-1.057-3.436-4.7-5.365-8.137-4.308 c-2.103,0.647-3.737,2.313-4.343,4.428c-0.873-2.518-3.245-4.208-5.91-4.21C100.33,158.62,93.55,158.78,93.63,166.58z"></path><path fill="#E6EBF0" d="M99,166.58c-0.31-2.32-0.9-5.26-1.33-7.27c-0.206,0.095-0.406,0.202-0.6,0.32c0.47,2.23,1,4.89,1.27,7 L99,166.58z"></path><path fill="#E6EBF0" d="M102.54,166.58l-3-7.87c-0.22,0.036-0.437,0.086-0.65,0.15l2.94,7.72H102.54z"></path><path fill="#E6EBF0" d="M112.87,166.58l4.6-6.11c-0.147-0.166-0.304-0.323-0.47-0.47l-5,6.6L112.87,166.58z"></path><path fill="#E6EBF0" d="M110.13,166.58h0.67c-0.187-2.833,0.128-5.677,0.93-8.4c-0.25,0-0.49,0.08-0.72,0.13 C110.243,160.996,109.945,163.793,110.13,166.58z"></path><path fill="#E6EBF0" d="M121.37,166.58h0.8c2.085-3.075,5.104-5.4,8.61-6.63c-0.17-0.18-0.35-0.35-0.53-0.52 C126.605,160.808,123.494,163.313,121.37,166.58z"></path><path fill="#FFFFFF" d="M163,52c-0.701,0.004-1.375-0.273-1.87-0.77L157,47.05c-0.716-0.841-0.614-2.104,0.228-2.819 c0.751-0.639,1.856-0.635,2.602,0.009l3.15,3.18l7.5-8.2c0.672-0.877,1.928-1.042,2.804-0.37c0.877,0.672,1.042,1.928,0.37,2.804 c-0.07,0.092-0.149,0.178-0.234,0.256L165,51.08l0,0c-0.524,0.546-1.243,0.863-2,0.88V52z"></path><path fill="#D8DADE" d="M424.94,62.23L424.94,62.23c-2.36-4.512-6.407-7.909-11.26-9.45l0,0c-7.43-2.337-15.536,0.031-20.54,6l0,0 c-2.92,3.463-4.518,7.85-4.51,12.38c-0.041,3.168,0.618,6.306,1.93,9.19l0,0c2,4.41,5.35,8,8.79,12.4l0,0 c1.11,1.44,2.24,3,3.33,4.67c3.9,6,2.73,9.66,5.21,9.66s1.4-3.61,5.3-9.66c6.47-10,13.95-14.59,13.95-26.27 C427.142,68.042,426.387,64.981,424.94,62.23z"></path><path fill="#D8DADE" d="M442,139.15c-23.94-8.32-31.37-16.14-33.51-19.27c1.177-0.362,1.838-1.609,1.477-2.787 c-0.362-1.177-1.609-1.838-2.787-1.477s-1.838,1.609-1.477,2.787c0.217,0.707,0.77,1.26,1.477,1.477c-2.14,3.13-9.56,11-33.5,19.27 c-0.266,0.109-0.393,0.412-0.284,0.678c0.075,0.183,0.247,0.308,0.444,0.322h8V166h52v-25.84h8c0.287-0.016,0.507-0.261,0.491-0.547 c-0.011-0.2-0.136-0.376-0.321-0.453L442,139.15z"></path><path fill="#FFFFFF" d="M418.47,138.16h-21.18c-0.171,0.006-0.314-0.129-0.32-0.3c0-0.003,0-0.007,0-0.01v-6.66 c0-0.171,0.139-0.31,0.31-0.31c0.003,0,0.007,0,0.01,0h21.18c0.171,0,0.31,0.139,0.31,0.31v6.66 C418.78,138.021,418.641,138.16,418.47,138.16z M397.6,137.54h20.55v-6H397.6V137.54z"></path><path fill="#FFFFFF" d="M430.11,143.58h-44.47c-0.177,0-0.32,0.143-0.32,0.32l0,0V166H386v-15.55h21.61V166h0.63v-15.55h21.56V166 h0.63v-22.1C430.43,143.723,430.287,143.58,430.11,143.58z M407.56,149.82H386v-5.61h21.61L407.56,149.82z M429.8,149.82h-21.61 v-5.61h21.61V149.82z"></path><path fill="#FFFFFF" d="M406.59,78c-0.665,0.007-1.303-0.257-1.77-0.73l-3.92-3.94c-0.684-0.796-0.592-1.996,0.204-2.679 c0.716-0.615,1.775-0.611,2.486,0.009l3,3l7.12-7.8c0.663-0.813,1.86-0.935,2.673-0.272c0.813,0.663,0.935,1.86,0.272,2.673 c-0.045,0.056-0.094,0.109-0.145,0.159l-8,8.71l0,0c-0.501,0.525-1.194,0.825-1.92,0.83V78z"></path><path fill="#FFFFFF" d="M279.37,92.93c-1.764,0.01-3.457-0.689-4.7-1.94L264.3,80.55c-1.952-1.963-1.943-5.138,0.02-7.09 c1.963-1.952,5.138-1.943,7.09,0.02l7.95,8l18.86-20.63c1.869-2.046,5.044-2.189,7.09-0.32s2.189,5.044,0.32,7.09l-21.1,23.06l0,0 c-1.326,1.384-3.153,2.177-5.07,2.2L279.37,92.93z"></path><path fill="#F8B904" d="M135.39,126.53c3.045,1.862,5.751,4.229,8,7l5.42-9.08c-3.37-4.48-11.39-9.84-17.73-11.09l-5.43,9.08 C129.105,123.24,132.399,124.623,135.39,126.53z"></path><path fill="#E84336" d="M96.92,77.84c-3.053,1.206-6.289,1.883-9.57,2l3,8c5.16,0,13.55-2.87,18-6.83l-3-8 C102.83,75.08,99.98,76.713,96.92,77.84z"></path><path fill="#4282F2" d="M139.55,12.7c-1.303-0.549-2.402-1.494-3.14-2.7L131,22.86c1.557,2.403,4.421,3.615,7.23,3.06l5.42-12.85 C142.278,13.372,140.846,13.243,139.55,12.7z"></path><path fill="#E84336" d="M475.75,171.82c2.886-1.564,6.018-2.626,9.26-3.14l-4-7.6c-5.12,0.61-13.1,4.51-17,9l4,7.6 C470.237,175.3,472.855,173.318,475.75,171.82z"></path><path fill="#F8B904" d="M224.35,90c-1.904,0.044-3.801-0.237-5.61-0.83l0.09,10c3.651,1.101,7.554,1.042,11.17-0.17l-0.09-10 C228.128,89.65,226.247,89.988,224.35,90z"></path><path fill="#F8B904" d="M421.48,125.91c-2.012-0.923-3.739-2.37-5-4.19l-4.35,9.63c2,3.16,7.13,5.89,11.39,5.34l4.35-9.64 C425.676,127.252,423.469,126.858,421.48,125.91z"></path><path fill="#00AC4D" d="M353.69,69.47c1.885-0.272,3.802-0.222,5.67,0.15l-1.3-9.87c-3.749-0.666-7.612-0.156-11.06,1.46l1.31,9.87 C350.001,70.246,351.819,69.702,353.69,69.47z"></path><linearGradient id="SVGID_8_" gradientUnits="userSpaceOnUse" x1="242.16" y1="716.91" x2="242.16" y2="748.31" gradientTransform="matrix(1 0 0 1 0 -566)"><stop offset="0" style="stop-color:#E6E8EB"></stop><stop offset="0.13" style="stop-color:#E6E8EB;stop-opacity:0.98"></stop><stop offset="0.26" style="stop-color:#E8EAEC;stop-opacity:0.93"></stop><stop offset="0.39" style="stop-color:#EAECEE;stop-opacity:0.84"></stop><stop offset="0.52" style="stop-color:#EDEEF1;stop-opacity:0.72"></stop><stop offset="0.66" style="stop-color:#F1F2F4;stop-opacity:0.56"></stop><stop offset="0.79" style="stop-color:#F6F7F8;stop-opacity:0.37"></stop><stop offset="0.93" style="stop-color:#FCFCFC;stop-opacity:0.14"></stop><stop offset="1" style="stop-color:#FFFFFF;stop-opacity:0"></stop></linearGradient><path fill="url(#SVGID_8_)" d="M245.57,168.24c2.405-3.35,5.364-6.265,8.75-8.62l-10-7.05C238.87,156.06,232,164.84,230,172l10,7 C241.243,175.128,243.126,171.491,245.57,168.24z"></path></svg>