<?xml version="1.0" encoding="utf-8"?>
<!-- Generator: Adobe Illustrator 30.0.0, SVG Export Plug-In . SVG Version: 9.03 Build 0)  -->
<svg version="1.1" baseProfile="basic" id="Layer_1"
	 xmlns="http://www.w3.org/2000/svg" xmlns:xlink="http://www.w3.org/1999/xlink" x="0px" y="0px" width="600px" height="200px"
	 viewBox="0 0 600 200" xml:space="preserve">
<g>
	<g id="BG__x26__Confetti_00000150093142248944669840000007513650817403225254_">
		<path fill="#4900C1" d="M314.2,10.49l1.16,1.61c3.33,4.6,9.64,5.85,14.48,2.88l1.69-1.04c6.3-3.87,14.53-0.46,16.25,6.73
			l0.46,1.93c1.32,5.52,6.67,9.1,12.28,8.2l1.96-0.31c7.3-1.17,13.6,5.14,12.44,12.44l-0.31,1.96c-0.9,5.61,2.68,10.96,8.2,12.28
			l1.93,0.46c7.19,1.72,10.6,9.95,6.73,16.25l-1.04,1.69c-2.97,4.84-1.72,11.15,2.88,14.48l1.61,1.16c5.98,4.34,5.98,13.25,0,17.59
			l-1.61,1.16c-4.6,3.33-5.85,9.64-2.88,14.48l1.04,1.69c3.87,6.3,0.46,14.53-6.73,16.25l-1.93,0.46c-5.52,1.32-9.1,6.67-8.2,12.28
			l0.31,1.96c1.17,7.3-5.14,13.6-12.44,12.44l-1.96-0.31c-5.61-0.9-10.96,2.68-12.28,8.2l-0.46,1.93
			c-1.72,7.19-9.95,10.6-16.25,6.73l-1.69-1.04c-4.84-2.97-11.15-1.72-14.48,2.88l-1.16,1.61c-4.34,5.98-13.25,5.98-17.59,0
			l-1.16-1.61c-3.33-4.6-9.64-5.85-14.48-2.88l-1.69,1.04c-6.3,3.87-14.53,0.46-16.25-6.73l-0.46-1.93
			c-1.32-5.52-6.67-9.1-12.28-8.2l-1.96,0.31c-7.3,1.17-13.6-5.14-12.44-12.44l0.31-1.96c0.9-5.61-2.68-10.96-8.2-12.28l-1.93-0.46
			c-7.19-1.72-10.6-9.95-6.73-16.25l1.04-1.69c2.97-4.84,1.72-11.15-2.88-14.48l-1.61-1.16c-5.98-4.34-5.98-13.25,0-17.59l1.61-1.16
			c4.6-3.33,5.85-9.64,2.88-14.48l-1.04-1.69c-3.87-6.3-0.46-14.53,6.73-16.25l1.93-0.46c5.52-1.32,9.1-6.67,8.2-12.28l-0.31-1.96
			c-1.17-7.3,5.14-13.6,12.44-12.44l1.96,0.31c5.61,0.9,10.96-2.68,12.28-8.2l0.46-1.93c1.72-7.19,9.95-10.6,16.25-6.73l1.69,1.04
			c4.84,2.97,11.15,1.72,14.48-2.88l1.16-1.61C300.95,4.5,309.86,4.5,314.2,10.49L314.2,10.49z"/>
		<path fill="#009E7C" d="M253.01,107.43c4.26,4.42,10.68,6.7,16.78,5.95c0.92-0.11,1.72-0.69,2.15-1.51l2.89-5.41
			c0.35-0.66-0.17-1.44-0.91-1.36c-5.88,0.63-12.03-1.55-16.22-5.73c-0.67-0.67-1.78-0.52-2.23,0.32l-2.81,5.27
			C252.23,105.77,252.37,106.77,253.01,107.43L253.01,107.43z"/>
		<path fill="#40C76E" d="M187.76,165.89c2.35,5.8,7.55,10.39,13.59,11.99c0.91,0.24,1.88,0,2.61-0.61l4.79-4.02
			c0.58-0.49,0.38-1.43-0.35-1.63c-5.8-1.65-10.77-6.03-13.14-11.57c-0.38-0.88-1.49-1.17-2.22-0.55l-4.66,3.91
			C187.65,164.02,187.41,165.02,187.76,165.89L187.76,165.89z"/>
		<path fill="#6B4FF3" d="M384.07,146.62c-3.49,5.19-9.52,8.61-15.77,8.94c-0.94,0.05-1.84-0.39-2.43-1.13l-3.86-4.92
			c-0.47-0.6-0.08-1.47,0.67-1.53c6.01-0.42,11.79-3.68,15.25-8.62c0.55-0.79,1.7-0.83,2.29-0.08l3.75,4.79
			C384.56,144.81,384.59,145.84,384.07,146.62L384.07,146.62z"/>
		<path fill="#47A1FB" d="M246.5,150.01c-4.27,3.69-10.34,5.25-15.86,4.05c-0.83-0.18-1.51-0.78-1.85-1.56l-2.2-5.2
			c-0.27-0.63,0.28-1.3,0.95-1.17c5.34,1.06,11.14-0.42,15.33-3.9c0.67-0.56,1.68-0.33,2.01,0.47l2.14,5.06
			C247.35,148.55,247.14,149.45,246.5,150.01L246.5,150.01z"/>
		<path fill="#47A1FB" d="M362.47,78c-5.63,0.51-11.46-1.78-15.24-5.97c-0.57-0.63-0.78-1.51-0.59-2.34l1.25-5.5
			c0.15-0.67,0.99-0.9,1.46-0.4c3.71,3.98,9.29,6.17,14.72,5.78c0.87-0.06,1.55,0.71,1.36,1.56l-1.22,5.36
			C364.01,77.31,363.31,77.92,362.47,78L362.47,78z"/>
		<path fill="#FF4365" d="M457.81,155.48c-2.73,5.9-8.36,10.39-14.72,11.75c-0.96,0.2-1.95-0.1-2.67-0.76l-4.76-4.41
			c-0.58-0.54-0.33-1.5,0.44-1.68c6.1-1.41,11.49-5.71,14.23-11.34c0.44-0.9,1.6-1.13,2.34-0.46l4.64,4.3
			C458.02,153.54,458.23,154.59,457.81,155.48L457.81,155.48z"/>
		<path fill="#4667F4" d="M249.15,28.41c-1.79,5.29-6.19,9.66-11.5,11.41c-0.8,0.26-1.68,0.1-2.36-0.4l-4.48-3.33
			c-0.54-0.4-0.42-1.25,0.22-1.48c5.09-1.77,9.3-5.95,11.12-11.01c0.29-0.81,1.27-1.12,1.95-0.6l4.36,3.24
			C249.15,26.74,249.42,27.61,249.15,28.41z"/>
		<path fill="#C1D992" d="M156.23,33.54c4.89,4.09,11.76,5.73,17.97,4.29c0.94-0.22,1.7-0.9,2.05-1.79l2.38-5.91
			c0.29-0.72-0.34-1.47-1.09-1.3c-6,1.29-12.58-0.27-17.36-4.12c-0.76-0.61-1.9-0.34-2.26,0.57l-2.32,5.75
			C155.23,31.9,155.49,32.92,156.23,33.54L156.23,33.54z"/>
		
			<ellipse transform="matrix(0.2323 -0.9727 0.9727 0.2323 286.3277 425.4326)" fill="#FF4365" cx="412.65" cy="31.34" rx="3.51" ry="4.54"/>
		
			<ellipse transform="matrix(0.2323 -0.9727 0.9727 0.2323 -34.9424 283.1841)" fill="#47A1FB" cx="161.91" cy="163.73" rx="3.51" ry="4.54"/>
		
			<ellipse transform="matrix(0.3079 -0.9514 0.9514 0.3079 93.6007 495.991)" fill="#9576FB" cx="387.7" cy="183.66" rx="5.1" ry="6.4"/>
		
			<ellipse transform="matrix(0.3079 -0.9514 0.9514 0.3079 16.9217 181.27)" fill="#FF4365" cx="133.05" cy="79" rx="5.1" ry="6.4"/>
		
			<ellipse transform="matrix(0.9115 -0.4112 0.4112 0.9115 15.6803 197.7697)" fill="#6B4FF3" cx="467.53" cy="62.44" rx="6" ry="3.96"/>
	</g>
	<g id="Characters_00000158003564243947519840000001756760993291476398_">
		<g>
			<g>
				<path fill="#00185A" d="M307.39,165.43c4.02-5.18,2.97-14.43,2.77-18.46c-0.2-4.02,3.37-7.54,7.95-7.54s7.24,2.57,8.6,9.3v22.98
					h-19.31L307.39,165.43L307.39,165.43z"/>
				<path fill="#00185A" d="M303.57,165.43c-4.02-5.18-2.97-14.43-2.77-18.46c0.2-4.02-3.37-7.54-7.95-7.54
					c-4.58,0-7.24,2.57-8.6,9.3v22.98h19.31L303.57,165.43L303.57,165.43z"/>
			</g>
			<g>
				<g>
					<path d="M321.27,123.35c-1.68,0-4.19,0.19-6.75-0.5c-2.55-0.69-6.14-3.35-9.04-3.35c-2.9,0-6.49,2.67-9.04,3.35
						c-2.55,0.69-5.07,0.5-6.75,0.5v4.24h9.87c1.48,0,2.68,1.2,2.68,2.68v3.98h6.48v-3.98c0-1.48,1.2-2.68,2.68-2.68h9.87
						L321.27,123.35L321.27,123.35z"/>
					<path fill="#474747" d="M305.48,107.67c-10.08,0-18.25,6.4-18.25,14.29s8.17,14.29,18.25,14.29s18.25-6.4,18.25-14.29
						S315.56,107.67,305.48,107.67z M305.48,133.08c-7.83,0-14.18-4.98-14.18-11.11c0-6.13,6.35-11.11,14.18-11.11
						s14.18,4.98,14.18,11.11C319.66,128.1,313.31,133.08,305.48,133.08z"/>
					<ellipse fill="#474747" cx="305.48" cy="124.03" rx="5.16" ry="4.53"/>
					<ellipse fill="#FF4365" cx="305.48" cy="124.03" rx="3.01" ry="2.65"/>
				</g>
				
					<linearGradient id="SVGID_1_" gradientUnits="userSpaceOnUse" x1="305.483" y1="11334.8779" x2="323.6394" y2="11334.8779" gradientTransform="matrix(1 0 0 -1 0 11450)">
					<stop  offset="0.08" style="stop-color:#000000"/>
					<stop  offset="0.42" style="stop-color:#1F1F1F"/>
					<stop  offset="0.79" style="stop-color:#3C3C3C"/>
					<stop  offset="1" style="stop-color:#474747"/>
				</linearGradient>
				<path fill="url(#SVGID_1_)" d="M323.47,119.59c-1.45-6.76-8.95-11.92-17.99-11.92v3.18c7.13,0,13.03,4.12,14.03,9.49
					c0.03,0.14,0.05,0.29,0.07,0.44c0.08,0.6,0.4,1.16,0.92,1.48c0.32,0.19,0.69,0.31,1.09,0.31c0.91,0,1.67-0.58,1.96-1.38
					c0.08-0.22,0.1-0.46,0.07-0.7C323.59,120.19,323.53,119.89,323.47,119.59L323.47,119.59z"/>
				
					<linearGradient id="SVGID_00000129171409811588762980000014945300481577168822_" gradientUnits="userSpaceOnUse" x1="287.3266" y1="11334.8779" x2="305.483" y2="11334.8779" gradientTransform="matrix(1 0 0 -1 0 11450)">
					<stop  offset="0" style="stop-color:#474747"/>
					<stop  offset="0.21" style="stop-color:#3C3C3C"/>
					<stop  offset="0.59" style="stop-color:#1F1F1F"/>
					<stop  offset="0.92" style="stop-color:#000000"/>
				</linearGradient>
				<path fill="url(#SVGID_00000129171409811588762980000014945300481577168822_)" d="M287.49,119.59
					c1.45-6.76,8.95-11.92,17.99-11.92v3.18c-7.13,0-13.03,4.12-14.03,9.49c-0.03,0.14-0.05,0.29-0.07,0.44
					c-0.08,0.6-0.4,1.16-0.92,1.48c-0.32,0.19-0.69,0.31-1.09,0.31c-0.91,0-1.67-0.58-1.96-1.38c-0.08-0.22-0.1-0.46-0.07-0.7
					C287.38,120.19,287.43,119.89,287.49,119.59L287.49,119.59z"/>
			</g>
			<g>
				
					<linearGradient id="SVGID_00000174588660773344027510000014710137358499382677_" gradientUnits="userSpaceOnUse" x1="324.3433" y1="11303.4961" x2="324.3433" y2="11336.4502" gradientTransform="matrix(1 0 0 -1 0 11450)">
					<stop  offset="0" style="stop-color:#5F2A23"/>
					<stop  offset="0.29" style="stop-color:#6F3630"/>
					<stop  offset="0.69" style="stop-color:#7E423D"/>
					<stop  offset="1" style="stop-color:#844742"/>
				</linearGradient>
				<path fill="url(#SVGID_00000174588660773344027510000014710137358499382677_)" d="M330.8,133.47c-0.68-1.77-0.78-3.71-0.23-5.53
					l1.47-4.87c0.58-1.91-0.36-3.95-2.18-4.77l-0.33-0.15c-0.22-0.1-0.4-0.26-0.53-0.46l-0.37-0.59c-0.57-0.9-1.56-1.45-2.63-1.43
					l-0.39,0c-0.29,0-0.56-0.13-0.73-0.36c-1.26-1.64-2.74-2.11-4.45-1.56c1.53,1.7,2.59,3.68,3.05,5.82
					c0.06,0.29,0.11,0.58,0.15,0.87c0.03,0.24,0.01,0.5-0.07,0.73c-0.29,0.81-1.06,1.38-1.96,1.38c-0.46,0-0.88-0.15-1.22-0.39
					c-0.45-0.32-0.72-0.84-0.79-1.38c-0.02-0.15-0.04-0.3-0.07-0.45c-0.07-0.39-0.18-0.78-0.3-1.16l-1.29,0.97
					c-1.09,0.82-1.74,2.11-1.74,3.48l0,0c0,1.71,0.82,3.33,2.21,4.34l2.02,1.47c1.6,1.16,2.47,3.07,2.31,5.04
					c-0.28,3.37-0.52,8.7,0.32,12.02h9.18C332.73,143.93,332.69,138.38,330.8,133.47L330.8,133.47z"/>
				
					<linearGradient id="SVGID_00000163755680168744427180000012419072976664291493_" gradientUnits="userSpaceOnUse" x1="16656.5801" y1="11303.5" x2="16656.5801" y2="11336.4551" gradientTransform="matrix(-1 0 0 -1 16943.1992 11450)">
					<stop  offset="0" style="stop-color:#5F2A23"/>
					<stop  offset="0.29" style="stop-color:#6F3630"/>
					<stop  offset="0.69" style="stop-color:#7E423D"/>
					<stop  offset="1" style="stop-color:#844742"/>
				</linearGradient>
				<path fill="url(#SVGID_00000163755680168744427180000012419072976664291493_)" d="M280.16,133.47c0.68-1.77,0.78-3.71,0.23-5.53
					l-1.47-4.87c-0.58-1.91,0.36-3.95,2.18-4.77l0.33-0.15c0.22-0.1,0.4-0.26,0.53-0.46l0.37-0.59c0.57-0.9,1.56-1.45,2.63-1.43
					l0.39,0c0.29,0,0.56-0.13,0.73-0.36c1.26-1.64,2.74-2.11,4.45-1.56c-1.53,1.7-2.59,3.68-3.05,5.82
					c-0.06,0.29-0.11,0.58-0.15,0.87c-0.03,0.24-0.01,0.5,0.07,0.73c0.29,0.81,1.06,1.38,1.96,1.38c0.46,0,0.88-0.15,1.22-0.39
					c0.45-0.32,0.72-0.84,0.79-1.38c0.02-0.15,0.04-0.3,0.07-0.45c0.07-0.39,0.18-0.78,0.3-1.16l1.29,0.97
					c1.09,0.82,1.74,2.11,1.74,3.48l0,0c0,1.71-0.82,3.33-2.21,4.34l-2.02,1.47c-1.6,1.16-2.47,3.07-2.31,5.04
					c0.28,3.37,0.52,8.7-0.32,12.02h-9.18C278.23,143.93,278.27,138.38,280.16,133.47L280.16,133.47z"/>
			</g>
			<path fill="#009E7C" d="M329.11,143.68c-5.1,0-9.24,4.14-9.24,9.24c0,0.76,0.09,1.49,0.26,2.19l0,0c0,0,0,0.01,0,0.02
				c0.06,0.24,0.13,0.48,0.21,0.72c0.81,2.82,2.25,8.18,0.49,10.05c-0.39,0.41-1.05,0.39-1.44-0.03l-1.13-1.21
				c-1.75-1.87-4.17-2.96-6.73-3.03l-6.05,0.01l-6.05-0.01c-2.56,0.07-4.98,1.17-6.73,3.03l-1.13,1.21
				c-0.39,0.41-1.05,0.44-1.44,0.03c-1.76-1.87-0.33-7.23,0.49-10.05c0.08-0.24,0.15-0.47,0.21-0.72c0-0.01,0-0.01,0-0.02l0,0
				c0.17-0.7,0.26-1.44,0.26-2.19c0-5.1-4.14-9.24-9.24-9.24c-5.1,0-9.24,4.14-9.24,9.24c0,1,0.16,1.96,0.46,2.87
				c1.57,5.08,6.33,8.52,7.24,15.18c1.02,7.39,4.53,11.63,12.8,10.29c7.03-1.13,8.85-1.53,12.37-1.53l0,0
				c3.51,0,5.34,0.39,12.37,1.53c8.27,1.33,11.78-2.9,12.8-10.29c0.91-6.65,5.67-10.09,7.24-15.18c0.29-0.9,0.46-1.86,0.46-2.87
				c0-5.1-4.14-9.24-9.24-9.24H329.11z"/>
			<g>
				<path fill="#844742" d="M316.58,169.6c-1.04-0.84-2.31-2.16-2.73-2.98c-0.01-0.02-0.01-0.03-0.02-0.05
					c-0.02-0.04-0.04-0.07-0.05-0.11v0c-1.24-2.59-3.6-4.52-6.44-5.11l0,0c-0.64-0.16-0.76-0.59-0.76-1.11
					c0-0.61-0.49-1.11-1.09-1.11c-0.6,0-1.09,0.5-1.09,1.11c0,0,0,0,0,0.01c0,0.52-0.13,0.95-0.76,1.11
					c-2.84,0.59-5.21,2.52-6.44,5.11v0c-0.01,0.03-0.03,0.07-0.05,0.11c-0.01,0.02-0.01,0.03-0.02,0.05
					c-0.42,0.82-1.69,2.14-2.73,2.98c-0.55,0.44-0.81,1.16-0.66,1.86l0,0c0.21,0.97,1.14,1.61,2.12,1.46l0.67-0.1
					c0.97,4.14,4.62,7.21,8.97,7.21s7.99-3.08,8.97-7.21l0.67,0.1c0.98,0.15,1.91-0.49,2.12-1.46l0,0
					C317.39,170.76,317.14,170.05,316.58,169.6L316.58,169.6z"/>
				<path d="M311.8,165.99c-0.17,0.31-0.16,0.69-0.01,1.01c0.3,0.68,0.93,1.27,0.89,2.07c0.1,1.42-1.25,3.11-2.66,2.02
					c-1.55-1.41-1.31-4.01-4.53-4.01s-2.98,2.6-4.53,4.01c-1.42,1.09-2.76-0.6-2.66-2.02c-0.04-0.8,0.59-1.39,0.89-2.07
					c0.14-0.32,0.16-0.7-0.01-1.01c-0.38-0.7-1.26-0.49-1.79,0.11c-0.71,1.34-1.11,2.86-1.11,4.49c0,5.21,4.13,9.43,9.22,9.43
					c5.09,0,9.22-4.22,9.22-9.43c0-1.63-0.4-3.15-1.11-4.49C313.06,165.5,312.18,165.29,311.8,165.99L311.8,165.99z"/>
				<ellipse cx="305.59" cy="183.07" rx="5.94" ry="4.96"/>
			</g>
		</g>
		<g>
			<path fill="#D39972" d="M212.58,115.31c1.14-0.39,2.4-3.08,3.19-5.08c0.58-1.45,1.7-2.61,3.13-3.25l0,0
				c1.18-0.52,2.55-0.42,3.64,0.27l0.56,0.36c0,0,1.24-0.76,2.5-1.47c1.18-0.67,5.12,0.76,3.11,5.62c-0.12,0.29-0.18,0.59-0.18,0.9
				l0.01,1.45c0.01,1.18-0.66,2.27-1.72,2.8l0,0c-0.25,0.12-0.45,0.33-0.56,0.59l0,0c-0.47,1.07-1.53,1.76-2.71,1.75l-5.66-0.02
				c0,0-1.5,0.19-2.97,1.01l-3.62-1.44L212.58,115.31L212.58,115.31z"/>
			<path fill="#D39972" d="M192.96,81.33c0.91-0.79,3.87-0.53,6-0.22c1.54,0.23,3.12-0.17,4.38-1.09l0,0c1.04-0.76,1.64-2,1.58-3.29
				l-0.03-0.66c0,0,1.28-0.69,2.52-1.43c1.17-0.69,1.91-4.82-3.31-5.51c-0.31-0.04-0.6-0.14-0.87-0.3l-1.25-0.73
				c-1.02-0.6-2.3-0.56-3.28,0.1l0,0c-0.23,0.16-0.51,0.22-0.79,0.19l0,0c-1.16-0.13-2.29,0.45-2.87,1.47l-2.81,4.91
				c0,0-0.91,1.2-2.36,2.06l-0.56,3.85L192.96,81.33L192.96,81.33z"/>
			<path fill="#FF4365" d="M227.37,89.86c-0.26-0.46-0.85-0.61-1.31-0.35l-9.22,5.32c-1.27,0.73-2.85,0.58-3.96-0.37l-1.32-1.14
				l-0.32-1.71c-0.27-1.44,0.4-2.88,1.66-3.61l9.22-5.32c0.46-0.26,0.61-0.85,0.35-1.31c-0.26-0.46-0.85-0.61-1.31-0.35l-9.22,5.32
				c-1.97,1.14-3.01,3.39-2.58,5.63l0.4,2.12l0.74-0.14L210,94.51l1.63,1.4c1.73,1.48,4.2,1.71,6.16,0.58l9.22-5.32
				C227.47,90.91,227.63,90.32,227.37,89.86L227.37,89.86z"/>
			<rect x="222.59" y="82.53" transform="matrix(0.866 -0.5 0.5 0.866 -13.3118 123.2927)" width="1.65" height="7.91"/>
			<g>
				
					<linearGradient id="SVGID_00000067212481497021689330000016085046502779651251_" gradientUnits="userSpaceOnUse" x1="-2374.981" y1="3317.6274" x2="-2370.4585" y2="3317.6274" gradientTransform="matrix(0.5 0.866 0.866 -0.5 -1463.4148 3800.0723)">
					<stop  offset="0" style="stop-color:#000000"/>
					<stop  offset="0" style="stop-color:#010101"/>
					<stop  offset="0.14" style="stop-color:#1F1F1F"/>
					<stop  offset="0.27" style="stop-color:#353535"/>
					<stop  offset="0.39" style="stop-color:#424242"/>
					<stop  offset="0.5" style="stop-color:#474747"/>
					<stop  offset="0.6" style="stop-color:#404040"/>
					<stop  offset="0.75" style="stop-color:#2D2D2D"/>
					<stop  offset="0.93" style="stop-color:#0E0E0E"/>
					<stop  offset="1" style="stop-color:#000000"/>
				</linearGradient>
				<path fill="url(#SVGID_00000067212481497021689330000016085046502779651251_)" d="M243.38,74.32l0.48,0.84
					c0.49,0.85,0.2,1.94-0.65,2.43l-37.41,21.6c-0.85,0.49-1.94,0.2-2.43-0.65l-0.48-0.84c-0.49-0.85-0.2-1.94,0.65-2.43l37.41-21.6
					C241.8,73.17,242.89,73.47,243.38,74.32z"/>
				<g>
					<rect x="240.92" y="73.74" transform="matrix(0.866 -0.5 0.5 0.866 -5.6578 130.8919)" width="0.99" height="4.52"/>
					<rect x="237.92" y="75.48" transform="matrix(0.866 -0.5 0.5 0.866 -6.9298 129.6217)" width="0.99" height="4.52"/>
					<rect x="234.91" y="77.22" transform="matrix(0.866 -0.5 0.5 0.866 -8.2008 128.3498)" width="0.99" height="4.52"/>
					<rect x="231.9" y="78.95" transform="matrix(0.866 -0.5 0.5 0.866 -9.472 127.0788)" width="0.99" height="4.52"/>
					<rect x="228.89" y="80.69" transform="matrix(0.866 -0.5 0.5 0.866 -10.7422 125.8076)" width="0.99" height="4.52"/>
					<rect x="225.89" y="82.43" transform="matrix(0.866 -0.5 0.5 0.866 -12.0143 124.5375)" width="0.99" height="4.52"/>
					<rect x="222.88" y="84.16" transform="matrix(0.866 -0.5 0.5 0.866 -13.2852 123.2655)" width="0.99" height="4.52"/>
					<rect x="219.87" y="85.9" transform="matrix(0.866 -0.5 0.5 0.866 -14.5554 121.9943)" width="0.99" height="4.52"/>
					<rect x="216.87" y="87.63" transform="matrix(0.866 -0.5 0.5 0.866 -15.8267 120.7234)" width="0.99" height="4.52"/>
					<rect x="213.86" y="89.37" transform="matrix(0.866 -0.5 0.5 0.866 -17.0977 119.453)" width="0.99" height="4.52"/>
					<rect x="210.85" y="91.11" transform="matrix(0.866 -0.5 0.5 0.866 -18.3689 118.1821)" width="0.99" height="4.52"/>
					<rect x="207.84" y="92.84" transform="matrix(0.866 -0.5 0.5 0.866 -19.6399 116.9101)" width="0.99" height="4.52"/>
					<rect x="204.84" y="94.58" transform="matrix(0.866 -0.5 0.5 0.866 -20.9119 115.6399)" width="0.99" height="4.52"/>
				</g>
			</g>
			<path fill="#FF4365" d="M172.92,118.24l-0.4-2.12l-0.74,0.14l0.49-0.57l-1.63-1.4c-1.73-1.48-4.2-1.71-6.16-0.58l-9.22,5.32
				c-0.46,0.26-0.61,0.85-0.35,1.31c0.26,0.46,0.85,0.61,1.31,0.35l9.22-5.32c1.27-0.73,2.85-0.58,3.96,0.37l1.32,1.14l0.32,1.71
				c0.27,1.44-0.4,2.88-1.66,3.61l-9.22,5.32c-0.46,0.26-0.61,0.85-0.35,1.31c0.26,0.46,0.85,0.61,1.31,0.35l9.22-5.32
				C172.31,122.74,173.35,120.48,172.92,118.24L172.92,118.24z"/>
			<rect x="158.04" y="119.77" transform="matrix(0.866 -0.5 0.5 0.866 -40.5789 96.01)" width="1.65" height="7.91"/>
			<g>
				
					<linearGradient id="SVGID_00000116223345049257633040000015401166527574226330_" gradientUnits="userSpaceOnUse" x1="14153.9434" y1="6399.1777" x2="14158.4658" y2="6399.1777" gradientTransform="matrix(-0.5 -0.866 -0.866 0.5 12778.8574 9183.834)">
					<stop  offset="0" style="stop-color:#000000"/>
					<stop  offset="0" style="stop-color:#010101"/>
					<stop  offset="0.14" style="stop-color:#1F1F1F"/>
					<stop  offset="0.27" style="stop-color:#353535"/>
					<stop  offset="0.39" style="stop-color:#424242"/>
					<stop  offset="0.5" style="stop-color:#474747"/>
					<stop  offset="0.6" style="stop-color:#404040"/>
					<stop  offset="0.75" style="stop-color:#2D2D2D"/>
					<stop  offset="0.93" style="stop-color:#0E0E0E"/>
					<stop  offset="1" style="stop-color:#000000"/>
				</linearGradient>
				<path fill="url(#SVGID_00000116223345049257633040000015401166527574226330_)" d="M138.9,135.9l-0.48-0.84
					c-0.49-0.85-0.2-1.94,0.65-2.43l37.41-21.6c0.85-0.49,1.94-0.2,2.43,0.65l0.48,0.84c0.49,0.85,0.2,1.94-0.65,2.43l-37.41,21.6
					C140.48,137.04,139.39,136.75,138.9,135.9z"/>
				<g>
					<rect x="140.37" y="131.95" transform="matrix(0.866 -0.5 0.5 0.866 -48.2316 88.4103)" width="0.99" height="4.52"/>
					<rect x="143.37" y="130.21" transform="matrix(0.866 -0.5 0.5 0.866 -46.9603 89.6808)" width="0.99" height="4.52"/>
					<rect x="146.38" y="128.47" transform="matrix(0.866 -0.5 0.5 0.866 -45.6888 90.9524)" width="0.99" height="4.52"/>
					<rect x="149.39" y="126.74" transform="matrix(0.866 -0.5 0.5 0.866 -44.4183 92.2236)" width="0.99" height="4.52"/>
					<rect x="152.4" y="125" transform="matrix(0.866 -0.5 0.5 0.866 -43.1467 93.4952)" width="0.99" height="4.52"/>
					<rect x="155.4" y="123.26" transform="matrix(0.866 -0.5 0.5 0.866 -41.8762 94.7649)" width="0.99" height="4.52"/>
					<rect x="158.41" y="121.53" transform="matrix(0.866 -0.5 0.5 0.866 -40.6054 96.0373)" width="0.99" height="4.52"/>
					<rect x="161.42" y="119.79" transform="matrix(0.866 -0.5 0.5 0.866 -39.3341 97.3078)" width="0.99" height="4.52"/>
					<rect x="164.43" y="118.05" transform="matrix(0.866 -0.5 0.5 0.866 -38.0625 98.5794)" width="0.99" height="4.52"/>
					<rect x="167.43" y="116.32" transform="matrix(0.866 -0.5 0.5 0.866 -36.792 99.8491)" width="0.99" height="4.52"/>
					<rect x="170.44" y="114.58" transform="matrix(0.866 -0.5 0.5 0.866 -35.5212 101.1215)" width="0.99" height="4.52"/>
					<rect x="173.45" y="112.85" transform="matrix(0.866 -0.5 0.5 0.866 -34.25 102.392)" width="0.99" height="4.52"/>
					<rect x="176.46" y="111.11" transform="matrix(0.866 -0.5 0.5 0.866 -32.9784 103.6635)" width="0.99" height="4.52"/>
				</g>
			</g>
			<path fill="#474747" d="M167.95,113.85l3.96,6.86l-2.29,1.32c-1.89,1.09-4.32,0.44-5.41-1.45l0,0c-1.09-1.89-0.44-4.32,1.45-5.41
				L167.95,113.85L167.95,113.85L167.95,113.85z"/>
			<path d="M176.8,113.33l-6.36-14.13c-5.68,3.27-8.54,10.77-6.3,14.66c1.8,3.12,3.01,1.92,4.36,4.26c1.35,2.34-0.3,2.79,1.5,5.91
				c2.25,3.89,10.17,5.16,15.84,1.88L176.8,113.33L176.8,113.33z"/>
			<g>
				<path fill="#D39972" d="M196.65,113.96c0.81,1.51,1.37,3.16,1.66,4.86c1.98-1.47,4.56-3.13,7.19-4.11l0,0
					c0.32-0.11,0.64-0.25,0.95-0.43c2.57-1.48,3.45-4.77,1.97-7.34c-0.93-1.62-2.58-2.56-4.31-2.68l0,0
					c-3.71-0.33-6.09,3.27-9.43,4.4c-0.65,0.22-1.31,0.4-1.94,0.55C194.33,110.52,195.67,112.14,196.65,113.96L196.65,113.96z"/>
				<path d="M194.75,121.75c0,0,1.43-1.35,3.56-2.94c-0.29-1.69-0.85-3.34-1.66-4.86c-0.98-1.82-2.32-3.44-3.92-4.75
					c-2.61,0.61-4.84,0.66-4.84,0.66L194.75,121.75L194.75,121.75z"/>
			</g>
			<path fill="#D39972" d="M180.4,99.9c-0.9-1.46-2.05-2.77-3.37-3.87c2.26-0.98,4.99-2.38,7.15-4.17l0,0
				c0.26-0.22,0.54-0.43,0.85-0.6c2.57-1.48,5.86-0.6,7.34,1.97c0.93,1.62,0.93,3.51,0.16,5.07l0,0c-1.57,3.38-5.88,3.63-8.53,5.97
				c-0.52,0.46-1,0.93-1.45,1.41C182.21,103.64,181.48,101.66,180.4,99.9L180.4,99.9z"/>
			<path fill="#023936" d="M212.58,115.31c-4.45,1.58-14.24,4.36-14.24,4.36l2.97,10.35c5.1-4.49,9.72-7.7,13.61-9.78
				c0.08-1.05-0.1-2.12-0.59-3.05C213.94,116.43,213.32,115.77,212.58,115.31L212.58,115.31z"/>
			<path fill="#4285F4" d="M198.39,133.06c3.61-2.09,4.98-6.48,3.06-9.81c-1.6-2.95-4.84-4.7-7.05-6.39
				c-1.98,0.42-3.89,1.2-5.61,2.29c-2.14,1.36-3.96,3.22-5.29,5.38c0.06,0.03,0.11,0.07,0.16,0.1c2.19,1.43,3.35,4.98,5.52,7.31
				c0.01,0.01,0.02,0.02,0.03,0.04c0.03,0.03,0.05,0.05,0.07,0.08l0,0C191.51,134.36,195.27,134.86,198.39,133.06z"/>
			<path fill="#023936" d="M192.96,81.33c-3.59,3.06-10.9,10.15-10.9,10.15l-7.48-7.75c6.44-2.17,11.53-4.57,15.28-6.9
				c0.95,0.45,1.78,1.15,2.35,2.03C192.67,79.59,192.93,80.46,192.96,81.33z"/>
			<g>
				<path fill="#4285F4" d="M170.49,84.74c3.61-2.09,8.1-1.08,10.03,2.26c1.76,2.87,1.65,6.53,2.01,9.3
					c-1.36,1.51-2.98,2.77-4.79,3.71c-2.25,1.17-4.77,1.82-7.3,1.9c0-0.07,0-0.13-0.01-0.19c-0.15-2.61-2.64-5.39-3.57-8.44
					c0-0.01-0.01-0.03-0.01-0.05c-0.01-0.03-0.02-0.07-0.03-0.1l0,0C165.93,90.05,167.37,86.54,170.49,84.74L170.49,84.74z"/>
				<path fill="#023936" d="M192.33,114.65c-1.26-2.65-1.31-4.52-3.49-8.29l0,0c-2.17-3.77-3.77-4.75-5.43-7.17
					c-0.49-0.72-0.73-1.73-0.88-2.9c-1.36,1.51-2.98,2.77-4.79,3.71c-2.25,1.17-4.77,1.82-7.3,1.9c0.06,2.55-1.37,8.04,2.03,13.91
					l0,0c3.39,5.87,8.86,7.39,11.04,8.71c1.34-2.15,3.16-4.01,5.29-5.38c1.71-1.09,3.62-1.87,5.61-2.29
					C193.46,116.14,192.7,115.44,192.33,114.65L192.33,114.65z"/>
			</g>
			
				<rect x="185.26" y="99.37" transform="matrix(0.866 -0.5 0.5 0.866 -23.829 112.7229)" fill="#FF4365" width="26.34" height="2.92"/>
			<g>
				<path fill="#D39972" d="M195.23,104.46L195.23,104.46c-0.15-0.53,0.11-0.8,0.49-1.01c0.44-0.26,0.6-0.82,0.35-1.25
					s-0.81-0.58-1.26-0.32c0,0,0,0,0,0c-0.38,0.22-0.74,0.3-1.12-0.09c-2.38-2.67-6.45-3.37-9.74-1.47
					c-3.76,2.17-5.08,6.91-2.96,10.59c2.12,3.68,6.89,4.9,10.65,2.73C194.92,111.73,196.35,107.86,195.23,104.46L195.23,104.46z"/>
				<path fill="#D39972" d="M194.22,111.23c-0.44,0.56-0.91,2.16-1.1,3.33c-0.09,0.58-0.5,1.07-1.06,1.25l0,0
					c-0.79,0.25-1.64-0.15-1.93-0.92l-0.41-1.06L194.22,111.23z"/>
				<path fill="#D39972" d="M187.31,99.26c-0.71,0.1-2.33-0.29-3.43-0.72c-0.55-0.21-1.18-0.1-1.61,0.3l0,0
					c-0.61,0.56-0.69,1.49-0.17,2.14l0.71,0.88L187.31,99.26L187.31,99.26z"/>
				<path fill="#4667F4" d="M195.58,109.38L195.58,109.38c0.21-1.15,0.01-2.33-0.57-3.34l-1.4-2.43l-1.36-2.35
					c-0.37-0.65-0.87-1.22-1.49-1.64c-1.59-1.1-3.62-1.14-5.22-0.21l-4.84,2.79c-1.04,0.6-1.91,1.44-2.55,2.45l-3.71,5.85
					c-0.43,0.68-0.45,1.55-0.05,2.25l1.7,2.94c0.41,0.7,1.17,1.12,1.98,1.09l6.92-0.29c1.2-0.05,2.36-0.39,3.4-0.98l4.84-2.79
					C194.45,112,195.31,110.78,195.58,109.38L195.58,109.38z"/>
				<path d="M192.3,106.98L192.3,106.98c0.33,0.57,0.22,1.28-0.25,1.73l-4.14,3.9c-0.67,0.64-1.7,0.71-2.46,0.18l-1.44-1.01
					L192.3,106.98z"/>
				<path d="M190.03,103.05L190.03,103.05c-0.33-0.57-1-0.83-1.62-0.64l-5.45,1.63c-0.89,0.27-1.46,1.12-1.38,2.04l0.16,1.75
					L190.03,103.05L190.03,103.05z"/>
				<path d="M181.06,108.23l-0.51-0.89c-0.24-0.42-0.81-0.5-1.16-0.16l-2.22,2.18c-0.33,0.32-0.39,0.82-0.17,1.21l0,0L181.06,108.23
					z"/>
				<path d="M183.33,112.16l0.51,0.89c0.24,0.42,0.02,0.95-0.44,1.08l-3,0.83c-0.44,0.12-0.91-0.07-1.13-0.46l0,0L183.33,112.16
					L183.33,112.16z"/>
				
					<linearGradient id="SVGID_00000011736881054948234180000017035698965071870637_" gradientUnits="userSpaceOnUse" x1="-2372.7156" y1="3263.9412" x2="-2372.7156" y2="3282.2778" gradientTransform="matrix(0.5 0.866 0.866 -0.5 -1463.4126 3800.0662)">
					<stop  offset="0" style="stop-color:#4667EF"/>
					<stop  offset="0.22" style="stop-color:#6E99F4"/>
					<stop  offset="0.41" style="stop-color:#8EC0F9"/>
					<stop  offset="0.51" style="stop-color:#9BD0FB"/>
					<stop  offset="0.59" style="stop-color:#92C5FA"/>
					<stop  offset="0.74" style="stop-color:#7BA9F8"/>
					<stop  offset="0.92" style="stop-color:#577CF5"/>
					<stop  offset="1" style="stop-color:#4667F4"/>
				</linearGradient>
				<polygon fill="url(#SVGID_00000011736881054948234180000017035698965071870637_)" points="191.63,102.13 193.9,106.06 
					178.02,115.23 175.75,111.3 				"/>
			</g>
			<polygon fill="#C3C3C3" points="216.4,90.66 216.22,90.34 209.16,78.11 206.84,79.45 213.9,91.68 214.08,92 221.15,104.23 
				223.47,102.89 			"/>
			
				<linearGradient id="SVGID_00000067234227912450172090000016325269411746501263_" gradientUnits="userSpaceOnUse" x1="-2372.7231" y1="3301.9924" x2="-2372.7231" y2="3306.7915" gradientTransform="matrix(0.5 0.866 0.866 -0.5 -1463.4127 3800.0757)">
				<stop  offset="0" style="stop-color:#C3C3C3"/>
				<stop  offset="0.2" style="stop-color:#BDBDBD"/>
				<stop  offset="0.45" style="stop-color:#AEAEAE"/>
				<stop  offset="0.73" style="stop-color:#949494"/>
				<stop  offset="1" style="stop-color:#757575"/>
			</linearGradient>
			<polygon fill="url(#SVGID_00000067234227912450172090000016325269411746501263_)" points="213.26,90.58 214.72,93.11 
				210.57,95.51 209.1,92.98 			"/>
			<g>
				<path d="M226.05,107.38l-0.36-0.62c-0.24-0.41-0.1-0.94,0.32-1.18l0.22-0.13c0.34-0.2,0.46-0.64,0.26-0.98l-0.47-0.82
					c-0.2-0.35-0.56-0.57-0.95-0.61l-1.6-0.14l-2.32,1.34l2.59,4.48c0.15,0.25,0.06,0.58-0.19,0.73l-0.64,0.37
					c-0.64,0.37-0.91,1.18-0.56,1.82c0.36,0.67,1.2,0.9,1.85,0.53l0.69-0.4C226.42,110.88,226.94,108.91,226.05,107.38
					L226.05,107.38z"/>
				<path d="M209.79,75.52l-0.47-0.82c-0.2-0.34-0.64-0.46-0.98-0.26l-0.22,0.13c-0.41,0.24-0.94,0.1-1.18-0.32l-0.36-0.62
					c-0.89-1.54-2.85-2.06-4.39-1.18l-0.64,0.37c-0.64,0.37-0.91,1.18-0.56,1.82s1.2,0.9,1.85,0.53l0.69-0.4
					c0.25-0.15,0.58-0.06,0.73,0.19l2.59,4.48l2.32-1.34l0.68-1.46C210,76.29,209.98,75.87,209.79,75.52L209.79,75.52z"/>
			</g>
			<g>
				
					<rect x="207.11" y="78.65" transform="matrix(0.866 -0.5 0.5 0.866 -11.8574 114.8866)" fill="#474747" width="2.68" height="1.83"/>
				
					<rect x="220.51" y="101.85" transform="matrix(0.866 -0.5 0.5 0.866 -21.6632 124.6933)" fill="#474747" width="2.68" height="1.83"/>
			</g>
			<circle cx="209.83" cy="94.24" r="1.46"/>
			<g>
				<path d="M164.15,124.17L164.15,124.17c0.19,0.33,0.08,0.75-0.25,0.94l-6.35,3.66c-0.33,0.19-0.75,0.08-0.94-0.25v0
					c-0.19-0.33-0.08-0.75,0.25-0.94l6.35-3.66C163.54,123.72,163.96,123.84,164.15,124.17z"/>
				<path d="M161.27,119.18L161.27,119.18c0.19,0.33,0.08,0.75-0.25,0.94l-6.35,3.66c-0.33,0.19-0.75,0.08-0.94-0.25l0,0
					c-0.19-0.33-0.08-0.75,0.25-0.94l6.35-3.66C160.66,118.74,161.08,118.85,161.27,119.18z"/>
			</g>
		</g>
		<g>
			<path fill="#394EC1" d="M423.06,116.28c1.91,0.59,2.84,0.72,4.09,1.41c1.26,0.7,2.5,2.68,4.55,3.62l0,0
				c1.91,1.16,4.37,0.78,5.68-0.95c1.31-1.73,1.01-4.2-0.62-5.73l0,0c0,0-0.01-0.01-0.01-0.01c-0.03-0.03-0.07-0.06-0.11-0.09
				c-1.67-1.46-3.32-1.94-5.64-1.8c-2.37,0.14-3.85-1.1-4.79-2.1L423.06,116.28L423.06,116.28z"/>
			<path fill="#003936" d="M433.82,111.8L433.82,111.8c-1.8-1.76-4.16-2.39-6.27-3.27c0.19-0.28,0.36-0.57,0.54-0.87
				c2.54-4.39,2.85-8.96,0.71-10.2c-2.15-1.24-5.94,1.32-8.48,5.71c-2.39,4.15-2.81,8.45-1.04,9.96l-0.52,2.6
				c3.42,1.43,5.01,5.17,8.4,6.58c0.05,0.02,0.1,0.04,0.15,0.06c0.01,0,0.01,0.01,0.02,0.01l0,0c2.31,0.89,5.28-0.46,6.88-3.23
				C435.73,116.49,435.51,113.43,433.82,111.8L433.82,111.8z"/>
			<path fill="#394EC1" d="M401.8,84.04c-1.73-1.04-2.62-1.38-3.66-2.38c-1.04-1-1.66-3.27-3.43-4.7l0,0
				c-1.55-1.61-4.14-1.81-5.99-0.39c-1.85,1.42-2.32,3.97-1.16,5.88l0,0c0,0,0.01,0.01,0.01,0.01c0.03,0.04,0.05,0.08,0.08,0.12
				c1.21,1.85,2.72,2.73,5.09,3.13c2.42,0.41,3.51,2.01,4.14,3.23L401.8,84.04L401.8,84.04z"/>
			<path fill="#003936" d="M421.11,88.59c-5.21-0.04-8.29,0.11-10.54-1.81c-1.78-1.52-3.93-3.77-7.18-4.81l0,0
				c-2.15-0.75-4.87,0.18-6.6,2.45c-2.06,2.7-1.92,6.28,0.31,7.99c0.28,0.21,0.57,0.38,0.88,0.52l0,0
				c2.31,1.21,8.27,5.66,11.04,11.51L421.11,88.59L421.11,88.59z"/>
			<g>
				<path d="M362.65,110.26l1.68-5.19c0.24-0.73,1.02-1.13,1.75-0.89l12.4,4.01c0.73,0.24,1.13,1.02,0.89,1.75l-1.68,5.19
					c-0.24,0.73-1.02,1.13-1.75,0.89l-12.4-4.01C362.81,111.78,362.41,110.99,362.65,110.26z"/>
				<path fill="#474747" d="M376.84,114.73c-0.17,0.3-0.54,0.44-0.88,0.34l-11.87-3.84c-0.39-0.13-0.61-0.55-0.48-0.94l1.51-4.66
					c0.02-0.05,0.04-0.1,0.06-0.14c0.17-0.3,0.54-0.44,0.88-0.34l11.87,3.84c0.39,0.13,0.61,0.55,0.48,0.94l-1.51,4.66
					C376.89,114.64,376.86,114.69,376.84,114.73z"/>
			</g>
			
				<ellipse transform="matrix(0.5 -0.866 0.866 0.5 91.4869 376.9737)" fill="#FBA199" cx="372.21" cy="109.26" rx="1.63" ry="1.73"/>
			<path fill="#FBA199" d="M371.86,110.85c2.05,0.46,4.87,1.7,4.81,2.57c-0.06,0.87-3.18,1.62-5.44,1c-1.49-0.41-3.44-1.01-4.6-1.37
				c-0.57-0.18-1.18,0.09-1.43,0.63l0,0c-0.25,0.52-0.09,1.15,0.39,1.49c1,0.72,2.17,1.17,2.17,1.17c0.9,1.27,2.15,1.88,3.14,1.95
				c0.67,0.87,5.78,1.66,9.1,0.43c3.33-1.23,12.94,0.08,17.41,1.56c4.47,1.48,10.11,2.34,12.91,1.88l-6.22-11.29
				c-11.4,3-16.19,2.11-19.06,1.07c-2.38-0.87-2.54-1.78-6.08-2.08c-3.54-0.31-5.57-1.83-5.94-1.99L371.86,110.85L371.86,110.85z"/>
			<path fill="#FBA199" d="M419.73,71.07c-5.21-1.62-8.12-4.92-10.97-7.16c-2.85-2.24-5.83-1.51-6.34-0.58
				c-0.57-0.17-1.89,0.44-2.04,1.3c0,0-1.79,0.69-2.75,1.35c-0.05,0.03-0.11,0.07-0.16,0.11c-0.5,0.43-0.54,1.22-0.07,1.76
				c0.43,0.5,1.13,0.6,1.63,0.28l0,0c1.4-0.87,3.8-1.8,5.66-1.29s3.22,2.69,2.48,3.79c-0.57,0.86-2.31,0.34-4.42-0.72
				c-0.59-0.31-1.32-0.26-1.83,0.17c-0.68,0.58-0.72,1.65-0.1,2.37c0.27,0.31,0.61,0.51,0.98,0.59l0,0c0,0,0.01,0,0.01,0
				c0.01,0,0.02,0,0.03,0.01c3.41,0.69,5.98,1.14,10.62,2.12c4.66,0.98,13.29,7.64,13.29,7.64l9.5-1.68l4.75-0.84
				C436.58,76.13,424.94,72.69,419.73,71.07L419.73,71.07z"/>
			<path fill="#005B5B" d="M442.29,86.26c0-4.94-4-8.94-8.94-8.94c-2.88,0-5.44,1.36-7.08,3.48l0,0c-3.5,4.5-10,6.51-14.53,11.93
				c-4.4,5.26-2.6,11.03-6.97,15.41c-0.14,0.12-0.27,0.25-0.4,0.38c-0.01,0.01-0.01,0.01-0.02,0.02l0,0
				c-1.58,1.61-2.56,3.82-2.56,6.26c0,4.94,4,8.94,8.94,8.94c3.8,0,7.05-2.37,8.34-5.72l0,0c3.31-8.59,9.71-19.7,17.73-23.51
				c0.17-0.07,0.33-0.14,0.49-0.23c0.01,0,0.01-0.01,0.02-0.01l0,0C440.27,92.81,442.29,89.77,442.29,86.26L442.29,86.26z"/>
			<path fill="#FBA199" d="M422.4,85.78c-0.53-0.48-1.28-0.61-1.94-0.36c-1.33,0.51-3.27,0.98-4.11,0.86h0
				c-2.86-0.22-5.71,0.86-7.65,3.02l0,0c-0.46,0.47-0.89,0.37-1.35,0.1c-0.53-0.31-1.21-0.13-1.51,0.39
				c-0.3,0.52-0.11,1.19,0.42,1.5c0,0,0,0,0.01,0c0.45,0.26,0.76,0.59,0.58,1.21c-0.91,2.76-0.42,5.77,1.21,8.13h0
				c0.53,0.67,1.09,2.59,1.31,3.99c0.11,0.7,0.6,1.28,1.28,1.5c0.94,0.3,1.96-0.18,2.32-1.11l0.49-1.27l-2.58-1.49
				c0.99-0.03,1.61-1.17,1.06-2.06c-1.16-1.85-1.83-5.06-0.57-7.24c1.26-2.18,4.37-3.21,6.55-3.13c1.04,0.04,1.72-1.07,1.25-1.95
				l2.58,1.49l0.85-1.06C423.22,87.57,423.13,86.45,422.4,85.78L422.4,85.78z"/>
			<path d="M423.93,100.25c2.55-4.41,0.96-10.1-3.55-12.7c-0.9-0.52-1.86-0.88-2.82-1.08c0.7,0.41,1.18,0.85,1.5,1.29
				c0.66,0.89-0.04,2.15-1.15,2.11c-2.18-0.08-5.29,0.95-6.55,3.13c-1.26,2.18-0.59,5.39,0.57,7.24c0.59,0.94-0.15,2.17-1.26,2.05
				c-0.54-0.06-1.16-0.25-1.87-0.66c0.66,0.73,1.44,1.38,2.35,1.9C415.67,106.12,421.39,104.66,423.93,100.25L423.93,100.25z"/>
		</g>
	</g>
	<g id="Pin_00000014600663136001103740000006147320463488768191_">
		<g>
			<path fill="#FF4365" d="M330.62,34.31c-3.47-6.69-9.44-11.73-16.64-14.01c-2.8-0.86-5.68-1.29-8.57-1.29
				c-2.89,0-5.78,0.43-8.57,1.29c-7.2,2.29-13.17,7.32-16.64,14.01c-2.12,4.02-3.22,8.51-3.22,13.08c0,17.27,11.05,24,20.53,38.82
				c5.76,8.93,4.15,14.27,7.87,14.27c0.01,0,0.01,0,0.02,0c0.01,0,0.01,0,0.02,0c3.72,0,2.12-5.34,7.87-14.27
				c9.48-14.82,20.53-21.55,20.53-38.82C333.84,42.83,332.74,38.34,330.62,34.31L330.62,34.31z M305.39,58.28
				c-6,0-10.86-4.86-10.86-10.86s4.86-10.86,10.86-10.86s10.86,4.86,10.86,10.86S311.39,58.28,305.39,58.28z"/>
			<circle fill="#131314" cx="305.39" cy="47.42" r="10.86"/>
		</g>
	</g>
</g>
</svg>
