<?xml version="1.0" encoding="utf-8"?>
<!-- Generator: Adobe Illustrator 22.1.0, SVG Export Plug-In . SVG Version: 6.00 Build 0)  -->
<svg version="1.1" id="Layer_1" xmlns="http://www.w3.org/2000/svg" xmlns:xlink="http://www.w3.org/1999/xlink" x="0px" y="0px"
	 width="36px" height="36px" viewBox="0 0 36 36" enable-background="new 0 0 36 36" xml:space="preserve">
<g>
	<path d="M16.16,22h-1.07v-5.38h-1.3v-0.79l2.37-0.23V22z"/>
	<path d="M18.8,19.14l0.37-3.54h3.38v0.92h-2.49l-0.19,1.6c0.13-0.09,0.27-0.17,0.44-0.23c0.17-0.06,0.35-0.09,0.56-0.1
		c0.6-0.01,1.07,0.18,1.41,0.57s0.51,0.92,0.51,1.59c0,0.63-0.18,1.14-0.54,1.54c-0.36,0.4-0.88,0.6-1.55,0.6
		c-0.56,0-1.04-0.15-1.43-0.46c-0.39-0.31-0.58-0.75-0.56-1.32l0.01-0.02l1-0.04c0,0.31,0.09,0.55,0.27,0.72
		c0.18,0.17,0.42,0.26,0.71,0.26c0.33,0,0.58-0.12,0.76-0.35c0.17-0.23,0.26-0.54,0.26-0.92c0-0.39-0.09-0.7-0.27-0.94
		c-0.18-0.24-0.43-0.36-0.76-0.36c-0.29,0-0.51,0.05-0.65,0.14c-0.14,0.1-0.25,0.23-0.31,0.41L18.8,19.14z"/>
</g>
<path d="M28.11,18.3c0,5.45-4.54,9.87-10.11,9.87S7.89,23.75,7.89,18.3c0-5.45,4.54-9.87,10.11-9.87c0.27,0,0.52,0.04,0.79,0.06
	l-2.53,2.47l2.04,1.99l6.07-5.92l-6.08-5.94l-2.04,1.99l2.64,2.58C18.61,5.64,18.3,5.61,18,5.61c-7.18,0-13,5.68-13,12.7
	C5,25.32,10.82,31,18,31s13-5.68,13-12.7H28.11z"/>
</svg>
