<?xml version="1.0" encoding="utf-8"?>
<!-- Generator: Adobe Illustrator 30.0.0, SVG Export Plug-In . SVG Version: 9.03 Build 0)  -->
<svg version="1.1" baseProfile="basic" id="Layer_1"
	 xmlns="http://www.w3.org/2000/svg" xmlns:xlink="http://www.w3.org/1999/xlink" x="0px" y="0px" width="720px" height="400px"
	 viewBox="0 0 720 400" xml:space="preserve">
<g>
	<g id="BG_00000039841190429957516790000000125983318631233982_">
		<path fill="#FFC8A0" d="M80.51,35.56h227.98c32.59,0,59.01,26.42,59.01,59.01v227.98c0,32.59-26.42,59.01-59.01,59.01H80.51
			c-32.59,0-59.01-26.42-59.01-59.01V94.57C21.5,61.98,47.92,35.56,80.51,35.56z"/>
		<path fill="#CCE7B9" d="M446.51,188.61h192.98c32.59,0,59.01,26.42,59.01,59.01v74.95c0,32.59-26.42,59.01-59.01,59.01H446.51
			c-32.59,0-59.01-26.42-59.01-59.01v-74.95C387.5,215.03,413.92,188.61,446.51,188.61z"/>
		<path fill="#FFB600" d="M453.96,35.56H631.4c36.88,0,66.78,29.9,66.78,66.78v0c0,36.88-29.9,66.78-66.78,66.78H453.96
			c-36.88,0-66.78-29.9-66.78-66.78v0C387.18,65.45,417.08,35.56,453.96,35.56z"/>
		<path fill="#FFE600" d="M403.45,146.02c12.24,14.15,30.33,23.09,50.51,23.09H631.4c20.18,0,38.26-8.95,50.51-23.09H403.45
			L403.45,146.02z"/>
	</g>
	<g id="Spaghetti_00000152226448630072108540000003169588054967626388_">
		<path fill="#F5F5F5" d="M194.51,344.92c-36.43,0-70.68-14.19-96.43-39.94c-25.76-25.76-39.94-60.01-39.94-96.43
			s14.19-70.68,39.94-96.43c25.76-25.76,60.01-39.94,96.43-39.94s70.68,14.19,96.43,39.94c25.76,25.76,39.94,60.01,39.94,96.43
			s-14.19,70.68-39.94,96.43C265.18,330.73,230.93,344.92,194.51,344.92L194.51,344.92z"/>
		<path fill="#FF5719" d="M194.51,80.86c70.51,0,127.68,57.16,127.68,127.68s-57.16,127.68-127.68,127.68S66.83,279.05,66.83,208.53
			S123.99,80.86,194.51,80.86 M194.51,63.44c-19.58,0-38.58,3.84-56.48,11.41c-17.28,7.31-32.79,17.77-46.11,31.09
			c-13.32,13.32-23.78,28.83-31.09,46.11c-7.57,17.9-11.41,36.9-11.41,56.48s3.84,38.58,11.41,56.48
			c7.31,17.28,17.77,32.79,31.09,46.11c13.32,13.32,28.83,23.78,46.11,31.09c17.9,7.57,36.9,11.41,56.48,11.41
			s38.58-3.84,56.48-11.41c17.28-7.31,32.79-17.77,46.11-31.09c13.32-13.32,23.78-28.83,31.09-46.11
			c7.57-17.9,11.41-36.9,11.41-56.48s-3.84-38.58-11.41-56.48c-7.31-17.28-17.77-32.79-31.09-46.11
			c-13.32-13.32-28.83-23.78-46.11-31.09C233.09,67.28,214.09,63.44,194.51,63.44L194.51,63.44L194.51,63.44z"/>
		<path fill="#004E41" d="M272.07,153.59l-9.57-14.86l74.86-53.56c6.2-4.44,14.85-2.79,18.98,3.63l0,0
			c4.13,6.41,2.06,14.97-4.55,18.78L272.07,153.59L272.07,153.59z"/>
		<polygon fill="#FB9100" points="235.8,136.86 260.47,124.36 284.67,141.32 288.35,180.4 288.35,199.99 260.47,199.99 
			246.33,173.02 		"/>
		<path fill="#FFD800" d="M337.2,223.59c-0.18,0-0.37,0-0.55,0c-13-0.13-26.37-4.89-37.65-13.4c-8.91-6.72-15.23-14.91-18.27-23.67
			c-2.82-8.11-2.86-16.29-2.91-24.2c-0.04-8.12-0.09-15.78-3.43-21.44c-3.39-5.73-10.87-9.09-17.4-7.81
			c-6.53,1.28-12.2,7.22-13.16,13.81c-0.7,4.76-5.13,8.05-9.88,7.34c-4.76-0.7-8.05-5.13-7.34-9.88
			c2.06-13.97,13.18-25.63,27.04-28.35s28.56,3.87,35.75,16.03c5.74,9.71,5.8,20.6,5.85,30.21c0.04,6.79,0.07,13.2,1.94,18.58
			c2.41,6.94,8.03,12.25,12.31,15.48c8.32,6.28,18.03,9.79,27.34,9.89c9.69,0.09,19.11-3.69,25.17-10.13
			c3.3-3.5,8.8-3.66,12.31-0.37c3.5,3.3,3.66,8.8,0.37,12.31C365.31,217.92,351.68,223.59,337.2,223.59L337.2,223.59z"/>
		<path fill="#FB9100" d="M167.67,78.88c-1.31-0.13-2.63-0.19-3.96-0.19c-14.2,0-29.01,7.22-40.32,19.84
			c-11.67,13.03-18.65,29.82-19.64,47.29s4.05,34.94,14.18,49.2l14.19-10.08c-7.85-11.06-11.76-24.6-10.99-38.14
			c0.77-13.54,6.17-26.56,15.22-36.66c7.99-8.92,18.03-14.05,27.28-14.05c0.79,0,1.57,0.04,2.35,0.11c6.21,0.6,12.55,3.75,17.4,8.64
			c4.7,4.74,8.18,11.12,10.04,18.43l16.87-4.3c-2.63-10.31-7.66-19.43-14.54-26.38C187.98,84.75,178.01,79.88,167.67,78.88
			L167.67,78.88z"/>
		<path fill="#FFB600" d="M117.25,93.01c3.32,2.97,3.86,7.98,1.24,11.59c-8.71,11.98-13.89,26.36-14.73,41.21
			c-0.99,17.47,4.05,34.94,14.18,49.2l6.22-4.42l8.25,15.5l-4.39,3.12l-14.19,10.08l-10.08-14.19
			c-12.41-17.47-18.58-38.87-17.37-60.27c1.03-18.21,7.37-35.83,18.06-50.51C107.45,90.18,113.43,89.59,117.25,93.01L117.25,93.01
			L117.25,93.01z"/>
		<path fill="#EF6D00" d="M217.38,285.84c3.71,2.22,7.56,4.52,9.79,5.04c0.33,0.07,0.72,0.11,1.14,0.11c1.61,0,3.5-0.57,5.19-1.56
			c4.65-2.72,7.01-7.1,8.16-10.29c1.61-4.45,1.95-9.54,0.99-14.54c-4.13-0.71-8.09-2.03-11.72-3.93
			c-4.33,8.44-10.72,15.88-18.44,21.36c-0.24,0.17-0.49,0.33-0.74,0.5c0.55,0.31,1.11,0.62,1.66,0.94
			C214.8,284.29,216.17,285.11,217.38,285.84L217.38,285.84z"/>
		<path fill="#FB9100" d="M208.44,300.77c5.1,3.05,9.92,5.94,14.82,7.07c1.63,0.37,3.32,0.56,5.04,0.56c4.67,0,9.56-1.35,13.98-3.94
			c13.25-7.75,20.15-23.88,17.87-40.56c-1.73,0.44-3.47,0.77-5.24,0.99c-1.75,0.22-3.51,0.33-5.24,0.33c-2.38,0-4.73-0.21-7.04-0.61
			c0.96,4.99,0.63,10.09-0.99,14.54c-1.16,3.19-3.51,7.57-8.16,10.29c-1.69,0.99-3.58,1.56-5.19,1.56c-0.42,0-0.81-0.04-1.14-0.11
			c-2.23-0.52-6.07-2.81-9.79-5.04c-1.21-0.72-2.58-1.55-3.98-2.35c-0.55-0.32-1.11-0.63-1.66-0.94c-6.48,4.45-13.9,7.57-21.62,9.17
			c4.86,1.75,9.69,4.02,14.56,6.85C205.96,299.29,207.22,300.05,208.44,300.77L208.44,300.77z"/>
		<path fill="#EF6D00" d="M116.86,255.54c-2.03,0-4.06-0.7-5.71-2.14c-1.07-0.93-2.11-1.89-3.12-2.86
			c0.26,4.04,1.11,8.03,2.59,11.79c5.19,13.18,19.48,24.16,33.25,25.53c1.08,0.11,2.19,0.15,3.32,0.15c2.37,0,4.87-0.19,7.46-0.39
			c0.64-0.05,1.29-0.1,1.94-0.15c-0.08-0.05-0.16-0.09-0.24-0.14c-6.85-4.1-11.83-10.43-13.92-17.47
			c-6.44-2.01-13.23-7.87-15.6-13.91c-0.9-2.28-1.38-4.77-1.45-7.27c-0.3,1.39-0.94,2.73-1.94,3.87
			C121.72,254.52,119.3,255.54,116.86,255.54L116.86,255.54z"/>
		<path fill="#FFB600" d="M221.77,253.96l2.75-2.72l-7.22-2.71c-2.89,7.7-8.18,14.55-14.88,19.31c-3.54,2.51-7.52,4.45-11.68,5.76
			c-3.71,1.16-7.59,1.82-11.46,1.9c-3.86,0.09-9.42-0.38-13.98-3.11c-1.23-0.74-3.6-3.07-4.53-4.05c-1.04,0.02-0.81,1.49-1.86,1.55
			c-1.97,0.1-3.88,0.24-5.56,0.37c-2.27,0.17-4.42,0.34-6.13,0.34c-0.63,0-1.16-0.02-1.59-0.07c-1.03-0.1-2.1-0.33-3.17-0.67
			c2.09,7.05,7.07,13.38,13.92,17.47c0.08,0.05,0.16,0.09,0.24,0.14c1.03-0.07,2.09-0.15,3.15-0.2c1.44-0.07,2.86-0.11,4.26-0.11
			c9.08,0,17.65,1.48,26.11,4.54c7.72-1.59,15.14-4.72,21.62-9.17c0.25-0.17,0.5-0.33,0.74-0.5c7.72-5.48,14.11-12.92,18.44-21.36
			C227.54,258.91,224.44,256.66,221.77,253.96L221.77,253.96z"/>
		<polygon fill="#FB9100" points="125.57,156.8 97.01,183.59 99.24,221.45 116.68,239.14 131.09,231.21 122.57,204.24 
			141.01,181.88 		"/>
		<path fill="#FFD800" d="M276.46,256.2c-5,3.63-10.53,6.24-16.29,7.7c2.27,16.67-4.63,32.8-17.87,40.56
			c-4.42,2.59-9.31,3.94-13.98,3.94c-1.72,0-3.41-0.18-5.04-0.56c-4.91-1.13-9.73-4.01-14.82-7.07c-1.22-0.73-2.48-1.49-3.75-2.22
			c-4.87-2.82-9.7-5.09-14.56-6.85c-8.46-3.05-17.03-4.54-26.11-4.54c-1.41,0-2.83,0.04-4.26,0.11c-1.07,0.05-2.11,0.12-3.15,0.2
			c-0.65,0.05-1.31,0.09-1.94,0.15c-2.59,0.2-5.09,0.39-7.46,0.39c-1.14,0-2.25-0.04-3.32-0.15c-13.77-1.37-28.06-12.35-33.25-25.53
			c-1.48-3.76-2.34-7.75-2.59-11.79c-6.13-5.87-11.18-12.4-14.97-19.32c-3.76,12.16-3.3,25.64,1.36,37.49
			c7.65,19.44,27.27,34.44,47.72,36.48c1.72,0.17,3.4,0.24,5.06,0.24c3.01,0,5.93-0.22,8.78-0.44c1.61-0.12,3.12-0.24,4.62-0.31
			c1.16-0.06,2.3-0.09,3.43-0.09c11.25,0,21.23,2.84,31.93,9.04c1.16,0.67,2.31,1.36,3.53,2.09c5.76,3.45,12.27,7.35,19.86,9.1
			c2.89,0.66,5.87,0.99,8.89,0.99c7.77,0,15.75-2.17,22.84-6.31c11-6.44,19.13-16.47,23.5-29c3.76-10.78,4.4-22.86,1.87-34.28
			L276.46,256.2z"/>
		<path fill="#FB9100" d="M282.24,216.17c-1.95,8.15-5.48,15.28-10.22,20.66c-0.12,0.14-0.24,0.28-0.36,0.41
			c-5.2,5.74-12.1,9.52-18.91,10.38c-4.68,0.59-9.43-0.24-13.4-2.21c-1.96-0.97-3.73-2.21-5.21-3.71l-9.62,9.54l-2.75,2.72
			c2.68,2.7,5.77,4.95,9.15,6.72c3.64,1.9,7.6,3.22,11.72,3.93c2.31,0.4,4.66,0.61,7.04,0.61c1.74,0,3.49-0.11,5.24-0.33
			c1.76-0.22,3.51-0.55,5.24-0.99c5.76-1.46,11.29-4.07,16.29-7.7c2.89-2.1,5.61-4.52,8.09-7.26c2.18-2.41,4.18-5.05,5.98-7.89
			c3.87-6.12,6.81-13.17,8.64-20.82L282.24,216.17L282.24,216.17z"/>
		<path fill="#FFD800" d="M184.1,71.45c-6.29-10.1-16.3-18.41-28.21-23.41c-4.43-1.86-9.54,0.22-11.4,4.65
			c-1.86,4.43,0.22,9.54,4.65,11.4c8.61,3.62,15.78,9.5,20.17,16.56c4.56,7.33,6.16,16.26,4.28,23.89
			c-2.73,11.05-12.09,19.26-19.47,24.2c-6.18,4.14-12.92,7.48-20.04,11.01c-4.26,2.11-8.66,4.29-12.97,6.68
			c-15.42,8.53-25.39,17.67-31.38,28.77c-4.23,7.83-6.39,16.97-6.39,26.35c0,4.94,0.61,9.94,1.83,14.85
			c0.94,3.76,2.23,7.48,3.86,11.13c3.21,7.21,7.71,14.12,13.34,20.48c0.93,1.05,1.88,2.09,2.88,3.11c1.53,1.57,3.5,2.44,5.52,2.6
			c2.42,0.2,4.91-0.61,6.79-2.44c1.09-1.06,1.84-2.34,2.25-3.7c0.05-1.01,0.17-2.01,0.36-2.99c-0.11-2.03-0.92-4.04-2.45-5.61
			c-7.88-8.08-13.29-17.34-15.65-26.77c-0.15-0.62-0.3-1.25-0.42-1.87c-1.94-9.49-0.73-19.18,3.41-26.84
			c4.34-8.03,12.12-14.96,24.49-21.81c3.97-2.2,8-4.19,12.27-6.31c7.31-3.62,14.87-7.37,21.99-12.14
			c9.93-6.65,22.63-18.03,26.69-34.49C193.53,96.43,191.2,82.85,184.1,71.45L184.1,71.45z"/>
		<path fill="#460000" d="M178.55,143.81c-1.47-1.47-3.22-2.48-5.08-3.04c-1.63-0.49-2.87-1.78-3.36-3.41
			c-1.51-5.01-6.16-8.66-11.66-8.66c-2.1,0-4.08,0.54-5.81,1.48c-1.47,0.8-3.24,0.72-4.72-0.07c-4.61-2.47-10.48-1.77-14.36,2.12
			c-1.47,1.47-2.48,3.22-3.04,5.08c-0.49,1.63-1.78,2.87-3.41,3.36c-5.01,1.51-8.66,6.16-8.66,11.66c0,2.1,0.54,4.08,1.48,5.81
			c0.8,1.47,0.72,3.24-0.07,4.72c-2.47,4.61-1.77,10.48,2.12,14.36c1.47,1.47,3.22,2.48,5.08,3.04c1.63,0.49,2.87,1.78,3.36,3.41
			c1.51,5.01,6.16,8.66,11.66,8.66c2.1,0,4.08-0.54,5.81-1.48c1.47-0.8,3.24-0.72,4.72,0.07c4.61,2.47,10.48,1.77,14.36-2.12
			c1.47-1.47,2.48-3.22,3.04-5.08c0.49-1.63,1.78-2.87,3.41-3.36c5.01-1.51,8.66-6.16,8.66-11.66c0-2.1-0.54-4.08-1.48-5.81
			c-0.8-1.47-0.72-3.24,0.07-4.72C183.15,153.57,182.44,147.7,178.55,143.81z"/>
		<path fill="#FFB600" d="M250.59,176.42l-15.11-8.66c4.77-8.32,5.08-19.25,0.79-27.83c-4.28-8.58-13.21-14.9-22.73-16.09
			c-9.54-1.19-19.87,2.45-27.63,9.75c-7.33,6.9-12.39,16.94-14.26,28.28l-17.18-2.82c2.48-15.09,9.41-28.63,19.5-38.13
			c11.49-10.82,27.09-16.18,41.72-14.35c15.37,1.92,29.22,11.72,36.14,25.58C258.77,146.02,258.28,162.98,250.59,176.42
			L250.59,176.42z"/>
		<path fill="#FFB600" d="M292.72,249.39l-2.19-8.35c-1.8,2.84-3.8,5.49-5.98,7.89c-2.48,2.74-5.2,5.17-8.09,7.26
			c2.53,11.42,1.88,23.5-1.87,34.28c-4.37,12.53-12.49,22.56-23.5,29c-2.2,1.29-4.49,2.39-6.83,3.29c-4.1,1.58-6.33,6.02-5.22,10.27
			l0,0c1.3,5.02,6.67,7.83,11.5,5.96c3.21-1.24,6.34-2.74,9.35-4.5c14.62-8.56,25.39-21.8,31.14-38.3
			C296.17,281.44,296.77,264.81,292.72,249.39L292.72,249.39z"/>
		<path fill="#8C0019" d="M275.03,189.5c-0.32-11.98-8.83-21.82-20.02-24.31c-5.76-1.33-10.04-6.18-10.64-12.07l-0.01,0.01
			c-1.85-18.5-17.7-32.71-36.58-32.21c-16.42,0.44-29.95,11.88-33.76,27.07l0,0c-1.39,5.54-6.18,9.58-11.88,10.01l0,0
			c-12.79,0.97-22.84,11.28-23.6,23.98h0c-0.39,6.37-4.81,11.79-10.98,13.44l0,0c-11.19,2.99-19.3,13.34-18.97,25.43
			c0.37,13.84,11.66,24.81,25.4,24.92v0.01c10.56,0.09,19.89,6.92,23.16,16.97c3.41,10.52,13.43,18,25.05,17.69
			c7.36-0.2,13.91-3.49,18.45-8.59v0.01c2.67-3,6.95-3.96,10.64-2.38l0,0c3.3,1.41,6.94,2.16,10.76,2.05
			c14.14-0.38,25.3-12.16,24.92-26.3c-0.03-1.13-0.14-2.24-0.31-3.32h0c-1.86-11.74,3.95-23.36,14.45-28.92
			C269.59,208.63,275.3,199.67,275.03,189.5L275.03,189.5z"/>
		<path fill="#460000" d="M295.33,203.16c-1.58-1.58-3.46-2.67-5.46-3.27c-1.75-0.53-3.09-1.91-3.62-3.67
			c-1.62-5.39-6.62-9.31-12.54-9.31c-2.27,0-4.39,0.57-6.25,1.59c-1.59,0.86-3.49,0.78-5.08-0.08c-4.96-2.66-11.27-1.9-15.45,2.28
			c-1.58,1.58-2.67,3.46-3.27,5.46c-0.53,1.75-1.91,3.09-3.67,3.62c-5.39,1.62-9.31,6.62-9.31,12.54c0,2.27,0.57,4.39,1.59,6.25
			c0.86,1.59,0.78,3.49-0.08,5.08c-2.66,4.96-1.9,11.27,2.28,15.45c1.58,1.58,3.46,2.67,5.46,3.27c1.75,0.53,3.09,1.91,3.62,3.67
			c1.62,5.39,6.62,9.31,12.54,9.31c2.27,0,4.39-0.57,6.25-1.59c1.59-0.86,3.49-0.78,5.08,0.08c4.96,2.66,11.27,1.9,15.45-2.28
			c1.58-1.58,2.67-3.46,3.27-5.46c0.53-1.75,1.91-3.09,3.67-3.62c5.39-1.62,9.31-6.62,9.31-12.54c0-2.27-0.57-4.39-1.59-6.25
			c-0.86-1.59-0.78-3.49,0.08-5.08C300.28,213.66,299.51,207.35,295.33,203.16L295.33,203.16z"/>
		<path fill="#460000" d="M159.38,238.85c-1.47-1.47-3.22-2.48-5.08-3.04c-1.63-0.49-2.87-1.78-3.36-3.41
			c-1.51-5.01-6.16-8.66-11.66-8.66c-2.1,0-4.08,0.54-5.81,1.48c-1.47,0.8-3.24,0.72-4.72-0.07c-4.61-2.47-10.48-1.77-14.36,2.12
			c-1.47,1.47-2.48,3.22-3.04,5.08c-0.49,1.63-1.78,2.87-3.41,3.36c-5.01,1.51-8.66,6.16-8.66,11.66c0,2.1,0.54,4.08,1.48,5.81
			c0.8,1.47,0.72,3.24-0.07,4.72c-2.47,4.61-1.77,10.48,2.12,14.36c1.47,1.47,3.22,2.48,5.08,3.04c1.63,0.49,2.87,1.78,3.36,3.41
			c1.51,5.01,6.16,8.66,11.66,8.66c2.1,0,4.08-0.54,5.81-1.48c1.47-0.8,3.24-0.72,4.72,0.07c4.61,2.47,10.48,1.77,14.36-2.12
			c1.47-1.47,2.48-3.22,3.04-5.08c0.49-1.63,1.78-2.87,3.41-3.36c5.01-1.51,8.66-6.16,8.66-11.66c0-2.1-0.54-4.08-1.48-5.81
			c-0.8-1.47-0.72-3.24,0.07-4.72C163.98,248.61,163.27,242.74,159.38,238.85z"/>
		<g>
			<path fill="#35C369" d="M148.77,216.56c16.32,8.04,37.37-1.32,37.37-1.32l-59.09-29.11
				C127.05,186.13,132.46,208.52,148.77,216.56L148.77,216.56z"/>
			<path fill="#00854C" d="M164.41,184.81c-16.32-8.04-37.36,1.32-37.36,1.32l59.09,29.11
				C186.14,215.24,180.73,192.85,164.41,184.81L164.41,184.81z"/>
		</g>
		<g>
			<path fill="#00A84E" d="M206.36,216.8l4.03,2.09c1.06,0.55,1.47,1.85,0.92,2.91l-2.09,4.03c-0.55,1.06-1.85,1.47-2.91,0.92
				l-4.03-2.09c-1.06-0.55-1.47-1.85-0.92-2.91l2.09-4.03C204,216.66,205.31,216.25,206.36,216.8z"/>
			<path fill="#00A84E" d="M221.49,245.52l4.03,2.09c1.06,0.55,1.47,1.85,0.92,2.91l-2.09,4.03c-0.55,1.06-1.85,1.47-2.91,0.92
				l-4.03-2.09c-1.06-0.55-1.47-1.85-0.92-2.91l2.09-4.03C219.13,245.38,220.43,244.97,221.49,245.52z"/>
			<path fill="#00A84E" d="M181.99,246.07h4.54c1.19,0,2.16,0.97,2.16,2.16v4.54c0,1.19-0.97,2.16-2.16,2.16h-4.54
				c-1.19,0-2.16-0.97-2.16-2.16v-4.54C179.83,247.03,180.8,246.07,181.99,246.07z"/>
			<path fill="#00A84E" d="M120.69,208.5l4.29-1.47c1.13-0.39,2.35,0.21,2.74,1.34l1.47,4.29c0.39,1.13-0.21,2.35-1.34,2.74
				l-4.29,1.47c-1.13,0.39-2.35-0.21-2.74-1.34l-1.47-4.29C118.96,210.11,119.56,208.88,120.69,208.5z"/>
			<path fill="#00A84E" d="M182.79,160.99l3.73,2.59c0.98,0.68,1.22,2.02,0.54,3l-2.59,3.73c-0.68,0.98-2.02,1.22-3,0.54l-3.73-2.59
				c-0.98-0.68-1.22-2.02-0.54-3l2.59-3.73C180.47,160.55,181.81,160.31,182.79,160.99z"/>
			<path fill="#00A84E" d="M211.92,140.67l2.03,4.06c0.53,1.06,0.1,2.36-0.96,2.89l-4.06,2.03c-1.06,0.53-2.36,0.1-2.89-0.96
				l-2.03-4.06c-0.53-1.06-0.1-2.36,0.96-2.89l4.06-2.03C210.09,139.17,211.38,139.6,211.92,140.67z"/>
			<path fill="#00A84E" d="M249.13,171.35l3.93,2.27c1.03,0.6,1.38,1.91,0.79,2.95l-2.27,3.93c-0.6,1.03-1.91,1.38-2.95,0.79
				l-3.93-2.27c-1.03-0.6-1.38-1.91-0.79-2.95l2.27-3.93C246.78,171.11,248.1,170.76,249.13,171.35z"/>
		</g>
		<g>
			<path fill="#35C369" d="M211.71,158.07c-6.46,12.02,0.01,28.05,0.01,28.05l23.38-43.54
				C235.09,142.58,218.16,146.05,211.71,158.07z"/>
			<path fill="#00854C" d="M235.1,170.64c6.46-12.02-0.01-28.05-0.01-28.05l-23.38,43.54C211.71,186.12,228.64,182.66,235.1,170.64z
				"/>
		</g>
	</g>
	<g id="Pencil_00000170278527496316771210000004501692572235127475_">
		<path fill="#FFFFFF" d="M465.58,247.17h154.84c13.93,0,25.23,11.3,25.23,25.23v66.48c0,13.93-11.3,25.23-25.23,25.23H465.58
			c-13.93,0-25.23-11.3-25.23-25.23V272.4C440.35,258.47,451.64,247.17,465.58,247.17z"/>
		<g>
			<path fill="#CCE7B9" d="M495.1,277.46h94.4c1.45,0,2.63,1.18,2.63,2.63v12.19c0,1.45-1.18,2.63-2.63,2.63h-94.4
				c-1.45,0-2.63-1.18-2.63-2.63v-12.19C492.47,278.64,493.65,277.46,495.1,277.46z"/>
			<path fill="#CCE7B9" d="M494.54,312.31h57.39c1.14,0,2.07,0.92,2.07,2.07v13.32c0,1.14-0.92,2.07-2.07,2.07h-57.39
				c-1.14,0-2.07-0.92-2.07-2.07v-13.32C492.47,313.23,493.4,312.31,494.54,312.31z"/>
		</g>
		<g>
			<g>
				<path fill="#FFC8A0" d="M555.8,318.22c-4.82-4.82-7.12-10.91-6.48-15.82l5.32-19.84c1.5-5.59,4.44-10.69,8.54-14.79l15.13-15.13
					l43.08,43.08l-15.13,15.13c-4.1,4.1-9.19,7.04-14.79,8.54l-19.84,5.32C566.71,325.35,560.62,323.05,555.8,318.22L555.8,318.22z"
					/>
				<path d="M544.43,320.64l4.89-18.24c-0.65,4.91,1.66,11,6.48,15.82c4.82,4.82,10.91,7.12,15.82,6.48l-18.24,4.89
					C547.95,331.04,542.97,326.07,544.43,320.64L544.43,320.64z"/>
			</g>
			<g>
				<path fill="#FBBC04" d="M661.64,191.55L561.15,292.04c-4.06-9.2-3.61-18.64,2.07-24.32l87.3-87.3L661.64,191.55L661.64,191.55z"
					/>
				<path fill="#FCBC05" d="M693.59,223.5l-87.3,87.3c-5.68,5.68-15.12,6.14-24.32,2.07l100.49-100.49L693.59,223.5L693.59,223.5z"
					/>
				<path fill="#F29900" d="M682.46,212.37L581.97,312.86c-4.28-1.89-8.51-4.76-12.29-8.53s-6.64-8.01-8.53-12.29l100.49-100.49
					L682.46,212.37L682.46,212.37z"/>
			</g>
			<path fill="#00854C" d="M687.89,229.19l-21.24,21.24c-0.07,0.07-0.13,0.15-0.21,0.22c-0.07,0.07-0.15,0.14-0.22,0.21l-0.04,0.04
				l0,0c-8.4,8.01-24.58,5.07-36.35-6.71c-11.77-11.77-14.72-27.95-6.7-36.35l-0.01-0.01l21.7-21.7L687.89,229.19L687.89,229.19z"/>
			
				<linearGradient id="SVGID_1_" gradientUnits="userSpaceOnUse" x1="18301.6445" y1="1336.5031" x2="18369.3027" y2="1336.5031" gradientTransform="matrix(-1 0 0 -1 18999.9902 1546)">
				<stop  offset="0" style="stop-color:#FF8FEA"/>
				<stop  offset="0" style="stop-color:#FF8EE7"/>
				<stop  offset="0.15" style="stop-color:#FF7FB1"/>
				<stop  offset="0.3" style="stop-color:#FF7382"/>
				<stop  offset="0.45" style="stop-color:#FF695C"/>
				<stop  offset="0.59" style="stop-color:#FF613F"/>
				<stop  offset="0.73" style="stop-color:#FF5B29"/>
				<stop  offset="0.87" style="stop-color:#FF581D"/>
				<stop  offset="1" style="stop-color:#FF5719"/>
			</linearGradient>
			<path fill="url(#SVGID_1_)" d="M687.13,186.88c11.89,11.89,14.79,28.29,6.46,36.61c-0.07,0.07-0.15,0.14-0.23,0.21l-14.64,14.64
				c-0.07,0.07-0.14,0.15-0.21,0.23c-8.32,8.32-24.72,5.43-36.61-6.46s-14.79-28.29-6.46-36.61l15.08-15.08
				C658.84,172.1,675.24,174.99,687.13,186.88L687.13,186.88z"/>
		</g>
		<g>
			<path fill="#35C369" d="M481.35,206.09h-42.09c-15.35,0-27.8,12.45-27.8,27.8v26.76c0,15.35,12.45,27.8,27.8,27.8h23.21
				c0.48,6.19,9.09,13.73,14.02,13.73c-1.06-4.16-0.87-10.94,0-13.73h4.87c15.35,0,27.8-12.45,27.8-27.8v-26.76
				C509.15,218.54,496.7,206.09,481.35,206.09L481.35,206.09z"/>
			<path fill="#FFFF00" d="M462.58,222.81l6.26,14.96l16.17,1.33c2.19,0.18,3.07,2.91,1.41,4.34l-12.29,10.58l3.73,15.78
				c0.5,2.14-1.82,3.82-3.69,2.68l-13.86-8.42l-13.86,8.42c-1.88,1.14-4.19-0.55-3.69-2.68l3.73-15.78l-12.29-10.58
				c-1.66-1.43-0.78-4.16,1.41-4.34l16.17-1.33l6.26-14.96C458.86,220.78,461.73,220.78,462.58,222.81L462.58,222.81z"/>
		</g>
	</g>
	<g id="Bowling_00000086670766976074846610000009061893066575649695_">
		<g>
			<path fill="#FEEAFD" d="M437.82,70.17L437.82,70.17c-0.97-0.26-1.94-0.47-2.92-0.62l0,0c-13.6-2.03-25.17-10.97-30.58-23.61l0,0
				c-0.68-1.58-1.69-3.06-3.06-4.31c-4.48-4.09-11.38-4.33-16.13-0.56c-5.67,4.5-6.31,12.78-1.55,18.09c0.93,1.04,2,1.88,3.15,2.53
				l0,0c11.97,6.77,19.58,19.25,20.11,32.98l0,0c0.04,0.99,0.14,1.98,0.3,2.96h-0.01c0,0,2.86,33.17,36.49,39.3
				c4.39,0.8,8.91-0.45,12.23-3.43l6.14-5.5l6.15-5.5c3.26-2.92,5.05-7.16,4.76-11.52C470.63,76.68,437.81,70.16,437.82,70.17
				L437.82,70.17z"/>
			<g>
				<path fill="#FF5719" d="M401.18,75.76c1.71,2.83,3.06,5.88,4.02,9.07l20.09-17.99c-3.07-1.3-5.94-2.98-8.57-4.99L401.18,75.76
					L401.18,75.76z"/>
				<path fill="#FF5719" d="M406.17,49.68l-15.93,14.27c2.6,1.86,4.95,4,7.01,6.39l14.5-12.99
					C409.61,55.05,407.73,52.47,406.17,49.68L406.17,49.68z"/>
			</g>
		</g>
		<g>
			<path fill="#FFCED8" d="M494.65,58.71L494.65,58.71c-1,0.07-1.99,0.18-2.96,0.37l0,0c-13.52,2.5-27.37-2.18-36.6-12.36l0,0
				c-1.15-1.27-2.59-2.34-4.3-3.08c-5.56-2.41-12.17-0.39-15.43,4.72c-3.89,6.11-1.81,14.14,4.43,17.61c1.22,0.68,2.5,1.13,3.8,1.37
				l0,0c13.52,2.5,24.78,11.82,29.75,24.64l0,0c0.36,0.92,0.78,1.83,1.25,2.7v0.01c0,0,13.5,30.43,47.29,25.27
				c4.41-0.67,8.28-3.32,10.45-7.22l4.02-7.2l4.02-7.2c2.13-3.82,2.44-8.42,0.75-12.45C527.8,54.19,494.65,58.72,494.65,58.71
				L494.65,58.71z"/>
			<g>
				<path fill="#FF5719" d="M461.83,75.93c2.54,2.12,4.81,4.56,6.75,7.27l13.14-23.55c-3.32-0.23-6.59-0.88-9.73-1.92L461.83,75.93
					L461.83,75.93z"/>
				<path fill="#FF5719" d="M447.64,68.32c3.07,0.91,5.99,2.18,8.71,3.76l9.48-17c-2.78-1.48-5.39-3.3-7.77-5.43L447.64,68.32
					L447.64,68.32z"/>
			</g>
		</g>
		<g>
			<path fill="#FEEAFD" d="M525.58,79.99L525.58,79.99c-0.78-0.62-1.59-1.2-2.43-1.73l0,0c-11.66-7.28-18.71-20.08-18.65-33.83l0,0
				c0.01-1.72-0.33-3.48-1.1-5.18c-2.48-5.54-8.71-8.5-14.57-6.94c-6.99,1.87-10.88,9.21-8.63,15.98c0.44,1.33,1.09,2.53,1.88,3.58
				l0,0c8.28,10.97,10.29,25.45,5.31,38.26l0,0c-0.36,0.92-0.66,1.87-0.9,2.84h-0.01c0,0-10.58,31.56,17.82,50.58
				c3.71,2.48,8.35,3.14,12.59,1.73l7.83-2.6l7.83-2.6c4.15-1.38,7.48-4.56,8.96-8.67C553.09,99.03,525.58,79.99,525.58,79.99
				L525.58,79.99z"/>
			<g>
				<path fill="#FF5719" d="M489.82,80.44l25.59-8.51c-2.29-2.42-4.26-5.1-5.88-7.99l-19.79,6.58
					C490.18,73.8,490.21,77.14,489.82,80.44z"/>
				<path fill="#FF5719" d="M504.7,48.59l-20.29,6.74c1.65,2.74,2.95,5.65,3.88,8.65l18.47-6.14
					C505.72,54.88,505.02,51.78,504.7,48.59L504.7,48.59z"/>
			</g>
		</g>
		<g>
			<path fill="#FFEAFD" d="M561.34,65.64L561.34,65.64c-0.89-0.46-1.79-0.87-2.72-1.22l0,0c-12.86-4.86-22.28-16.04-24.9-29.53l0,0
				c-0.33-1.69-1.01-3.34-2.09-4.86c-3.51-4.95-10.21-6.64-15.65-3.95c-6.5,3.2-8.87,11.15-5.34,17.36
				c0.69,1.21,1.56,2.26,2.55,3.14l0,0c10.27,9.14,15.06,22.95,12.68,36.49l0,0c-0.17,0.98-0.28,1.97-0.33,2.96h-0.01
				c0,0-4.21,33.03,27.35,46.12c4.12,1.71,8.8,1.44,12.68-0.76l7.16-4.08l7.17-4.08c3.8-2.16,6.45-5.93,7.09-10.26
				C592.04,78.95,561.34,65.64,561.34,65.64L561.34,65.64z"/>
			<g>
				<path fill="#FF5719" d="M534.73,38.92l-18.58,10.58c2.15,2.36,3.99,4.96,5.5,7.73l16.92-9.63
					C536.96,44.89,535.66,41.98,534.73,38.92L534.73,38.92z"/>
			</g>
		</g>
		<path fill="#F96BD6" d="M540.51,41.84c4.21,4.24,11.89,12,15.7,15.85c0.22,0.23,0.59,0.2,0.79-0.05
			c3.25-4.24,9.8-12.79,13.39-17.47c0.3-0.38,0.9-0.2,0.94,0.28c0.48,6.02,1.33,16.75,1.77,22.26c0.03,0.33,0.34,0.55,0.66,0.46
			c5.63-1.53,17.63-4.79,23.87-6.48c0.47-0.13,0.84,0.39,0.58,0.79c-3.68,5.63-10.48,16.01-13.87,21.19
			c-0.19,0.29-0.05,0.68,0.28,0.79c6.09,1.95,19.08,6.09,25.75,8.23c0.46,0.15,0.5,0.79,0.05,0.98
			c-6.47,2.84-18.89,8.27-24.82,10.87c-0.32,0.14-0.42,0.55-0.19,0.81c3.99,4.82,12.15,14.67,16.49,19.91
			c0.31,0.37-0.01,0.93-0.49,0.85c-6.55-1.02-19.08-2.97-25.01-3.89c-0.33-0.05-0.62,0.21-0.6,0.54c0.27,5.6,0.81,16.62,1.11,22.72
			c0.02,0.48-0.56,0.74-0.9,0.39c-4.21-4.24-11.89-12-15.7-15.85c-0.22-0.23-0.59-0.2-0.79,0.05c-3.25,4.24-9.8,12.79-13.39,17.47
			c-0.3,0.38-0.9,0.2-0.94-0.28c-0.48-6.01-1.33-16.75-1.77-22.26c-0.03-0.33-0.34-0.55-0.66-0.46c-5.63,1.53-17.63,4.79-23.87,6.48
			c-0.47,0.13-0.84-0.39-0.58-0.79c3.68-5.63,10.48-16.01,13.87-21.19c0.19-0.29,0.05-0.68-0.28-0.79
			c-6.09-1.95-19.08-6.09-25.75-8.23c-0.46-0.15-0.5-0.79-0.05-0.98c6.47-2.84,18.89-8.27,24.82-10.87
			c0.32-0.14,0.42-0.55,0.19-0.81c-3.99-4.82-12.15-14.67-16.49-19.91c-0.31-0.37,0.01-0.93,0.49-0.85
			c6.55,1.02,19.08,2.97,25.01,3.89c0.33,0.05,0.62-0.21,0.6-0.54c-0.27-5.6-0.81-16.62-1.11-22.72
			C539.59,41.75,540.17,41.5,540.51,41.84L540.51,41.84z M530.26,21.6l2.02,34.12c0.02,0.26-0.21,0.46-0.46,0.42l-36.58-5.69
			c-0.37-0.06-0.61,0.37-0.37,0.65l23.46,28.33c0.17,0.2,0.09,0.52-0.15,0.63l-34.92,15.3c-0.34,0.15-0.31,0.64,0.04,0.75
			l36.35,11.61c0.25,0.08,0.36,0.38,0.21,0.6l-19.89,30.39c-0.2,0.31,0.09,0.7,0.44,0.61l35.3-9.59c0.24-0.07,0.48,0.11,0.51,0.35
			l2.68,33.85c0.03,0.37,0.5,0.5,0.72,0.21l20.74-27.06c0.15-0.19,0.43-0.21,0.61-0.04l24.23,24.45c0.26,0.26,0.7,0.07,0.69-0.3
			L584.2,127c-0.01-0.26,0.21-0.46,0.46-0.42l36.59,5.69c0.37,0.06,0.61-0.37,0.37-0.65l-23.46-28.33c-0.17-0.2-0.09-0.52,0.15-0.63
			l25.24-14.87L596.85,75c-0.25-0.08-0.36-0.38-0.21-0.6l19.89-30.39c0.2-0.31-0.09-0.7-0.44-0.61l-35.3,9.59
			c-0.24,0.07-0.48-0.11-0.51-0.35l-2.68-33.85c-0.03-0.37-0.5-0.5-0.72-0.21l-20.74,27.07c-0.15,0.19-0.43,0.21-0.6,0.04
			l-24.59-24.39C530.68,21.03,530.24,21.23,530.26,21.6L530.26,21.6z"/>
		<path fill="#FFFF00" d="M540.51,41.84c4.21,4.24,11.89,12,15.7,15.85c0.22,0.23,0.59,0.2,0.79-0.05
			c3.25-4.24,9.8-12.79,13.39-17.47c0.3-0.38,0.9-0.2,0.94,0.28c0.48,6.02,1.33,16.75,1.77,22.26c0.03,0.33,0.34,0.55,0.66,0.46
			c5.63-1.53,17.63-4.79,23.87-6.48c0.47-0.13,0.84,0.39,0.58,0.79c-3.68,5.63-10.48,16.01-13.87,21.19
			c-0.19,0.29-0.05,0.68,0.28,0.79c6.09,1.95,19.08,6.09,25.75,8.23c0.46,0.15,0.5,0.79,0.05,0.98
			c-6.47,2.84-18.89,8.27-24.82,10.87c-0.32,0.14-0.42,0.55-0.19,0.81c3.99,4.82,12.15,14.67,16.49,19.91
			c0.31,0.37-0.01,0.93-0.49,0.85c-6.55-1.02-19.08-2.97-25.01-3.89c-0.33-0.05-0.62,0.21-0.6,0.54c0.27,5.6,0.81,16.62,1.11,22.72
			c0.02,0.48-0.56,0.74-0.9,0.39c-4.21-4.24-11.89-12-15.7-15.85c-0.22-0.23-0.59-0.2-0.79,0.05c-3.25,4.24-9.8,12.79-13.39,17.47
			c-0.3,0.38-0.9,0.2-0.94-0.28c-0.48-6.01-1.33-16.75-1.77-22.26c-0.03-0.33-0.34-0.55-0.66-0.46c-5.63,1.53-17.63,4.79-23.87,6.48
			c-0.47,0.13-0.84-0.39-0.58-0.79c3.68-5.63,10.48-16.01,13.87-21.19c0.19-0.29,0.05-0.68-0.28-0.79
			c-6.09-1.95-19.08-6.09-25.75-8.23c-0.46-0.15-0.5-0.79-0.05-0.98c6.47-2.84,18.89-8.27,24.82-10.87
			c0.32-0.14,0.42-0.55,0.19-0.81c-3.99-4.82-12.15-14.67-16.49-19.91c-0.31-0.37,0.01-0.93,0.49-0.85
			c6.55,1.02,19.08,2.97,25.01,3.89c0.33,0.05,0.62-0.21,0.6-0.54c-0.27-5.6-0.81-16.62-1.11-22.72
			C539.59,41.75,540.17,41.5,540.51,41.84L540.51,41.84z"/>
		
			<ellipse transform="matrix(0.7071 -0.7071 0.7071 0.7071 100.1986 453.2133)" fill="#8C0019" cx="597.18" cy="105.66" rx="34.22" ry="45.71"/>
		<g>
			<ellipse transform="matrix(0.7071 -0.7071 0.7071 0.7071 114.738 466.2127)" cx="620.14" cy="94.61" rx="5.06" ry="6.76"/>
			<ellipse transform="matrix(0.7071 -0.7071 0.7071 0.7071 106.9634 455.7556)" cx="603.63" cy="98.76" rx="5.06" ry="6.76"/>
			<ellipse transform="matrix(0.7071 -0.7071 0.7071 0.7071 119.5292 450.5507)" cx="603.63" cy="80.99" rx="5.06" ry="6.76"/>
		</g>
		<g>
			<path fill="#F5F5F5" d="M664.55,100.14h-22.66c-0.76,0-1.38-0.62-1.38-1.38c0-0.76,0.62-1.38,1.38-1.38h22.66
				c0.76,0,1.38,0.62,1.38,1.38C665.93,99.52,665.31,100.14,664.55,100.14z"/>
			<path fill="#F5F5F5" d="M681.77,113.49H672c-0.76,0-1.38-0.62-1.38-1.38c0-0.76,0.62-1.38,1.38-1.38h9.78
				c0.76,0,1.38,0.62,1.38,1.38C683.15,112.87,682.53,113.49,681.77,113.49z"/>
			<path fill="#F5F5F5" d="M669.03,128.48h-15.81c-0.76,0-1.38-0.62-1.38-1.38s0.62-1.38,1.38-1.38h15.81
				c0.76,0,1.38,0.62,1.38,1.38S669.79,128.48,669.03,128.48z"/>
			<path fill="#F5F5F5" d="M648.34,128.48h-4.89c-0.76,0-1.38-0.62-1.38-1.38s0.62-1.38,1.38-1.38h4.89c0.76,0,1.38,0.62,1.38,1.38
				S649.09,128.48,648.34,128.48z"/>
			<path fill="#F5F5F5" d="M658.96,113.49h-40.72c-0.76,0-1.38-0.62-1.38-1.38c0-0.76,0.62-1.38,1.38-1.38h40.72
				c0.76,0,1.38,0.62,1.38,1.38C660.34,112.87,659.72,113.49,658.96,113.49z"/>
		</g>
	</g>
</g>
</svg>
