<svg xmlns="http://www.w3.org/2000/svg" xmlns:xlink="http://www.w3.org/1999/xlink" width="320" height="140" viewBox="0 0 320 140"><path fill="#D2E3FC" d="M0 0h320v140H0z"/><linearGradient id="a" gradientUnits="userSpaceOnUse" x1="213.6765" y1="86.8855" x2="227.6115" y2="100.8205" gradientTransform="matrix(1 0 0 -1 0 140)"><stop offset="0" style="stop-color:#FFFFFF;stop-opacity:0"/><stop offset=".1236" style="stop-color:#F6F9FE;stop-opacity:0.1236"/><stop offset=".3252" style="stop-color:#DEEAFD;stop-opacity:0.3252"/><stop offset=".5797" style="stop-color:#B6D0FB;stop-opacity:0.5797"/><stop offset=".8744" style="stop-color:#7FADF7;stop-opacity:0.8744"/><stop offset="1" style="stop-color:#669DF6"/></linearGradient><path opacity=".5" fill="url(#a)" d="M240.369 51.937l-13.935 13.935-25.515-25.515 13.935-13.935z"/><linearGradient id="b" gradientUnits="userSpaceOnUse" x1="31.751" y1="11.201" x2="56.678" y2="36.128" gradientTransform="matrix(1 0 0 -1 0 140)"><stop offset="0" style="stop-color:#FFFFFF;stop-opacity:0"/><stop offset=".1236" style="stop-color:#F6F9FE;stop-opacity:0.1236"/><stop offset=".3252" style="stop-color:#DEEAFD;stop-opacity:0.3252"/><stop offset=".5797" style="stop-color:#B6D0FB;stop-opacity:0.5797"/><stop offset=".8744" style="stop-color:#7FADF7;stop-opacity:0.8744"/><stop offset="1" style="stop-color:#669DF6"/></linearGradient><path opacity=".5" fill="url(#b)" d="M69.671 116.865l-24.927 24.927-25.986-25.986 24.927-24.927z"/><linearGradient id="c" gradientUnits="userSpaceOnUse" x1="51.4535" y1="104.4985" x2="70.3965" y2="123.4415" gradientTransform="matrix(1 0 0 -1 0 140)"><stop offset="0" style="stop-color:#FFFFFF;stop-opacity:0"/><stop offset=".1236" style="stop-color:#F6F9FE;stop-opacity:0.1236"/><stop offset=".3252" style="stop-color:#DEEAFD;stop-opacity:0.3252"/><stop offset=".5797" style="stop-color:#B6D0FB;stop-opacity:0.5797"/><stop offset=".8744" style="stop-color:#7FADF7;stop-opacity:0.8744"/><stop offset="1" style="stop-color:#669DF6"/></linearGradient><path opacity=".5" fill="url(#c)" d="M80.592 26.754L61.744 45.792 41.258 25.306 60.106 6.268z"/><linearGradient id="d" gradientUnits="userSpaceOnUse" x1="-9.499" y1="19.451" x2="8.928" y2="37.878" gradientTransform="matrix(1 0 0 -1 0 140)"><stop offset="0" style="stop-color:#FFFFFF;stop-opacity:0"/><stop offset=".1236" style="stop-color:#F6F9FE;stop-opacity:0.1236"/><stop offset=".3252" style="stop-color:#DEEAFD;stop-opacity:0.3252"/><stop offset=".5797" style="stop-color:#B6D0FB;stop-opacity:0.5797"/><stop offset=".8744" style="stop-color:#7FADF7;stop-opacity:0.8744"/><stop offset="1" style="stop-color:#669DF6"/></linearGradient><path opacity=".5" fill="url(#d)" d="M19.171 112.365L.744 130.792l-20.486-20.486 18.427-18.427z"/><linearGradient id="e" gradientUnits="userSpaceOnUse" x1="241.2747" y1="49.1583" x2="264.1283" y2="72.0117" gradientTransform="matrix(1 0 0 -1 0 140)"><stop offset="0" style="stop-color:#FFFFFF;stop-opacity:0"/><stop offset=".1236" style="stop-color:#F6F9FE;stop-opacity:0.1236"/><stop offset=".3252" style="stop-color:#DEEAFD;stop-opacity:0.3252"/><stop offset=".5797" style="stop-color:#B6D0FB;stop-opacity:0.5797"/><stop offset=".8744" style="stop-color:#7FADF7;stop-opacity:0.8744"/><stop offset="1" style="stop-color:#669DF6"/></linearGradient><path opacity=".5" fill="url(#e)" d="M269.693 73.553L246.84 96.406l-11.13-11.129 22.853-22.853z"/><linearGradient id="f" gradientUnits="userSpaceOnUse" x1="273.371" y1="75.6951" x2="296.2223" y2="98.5463" gradientTransform="matrix(.96 .2233 -.2233 -.96 32.3158 71.9298)"><stop offset="0" style="stop-color:#FFFFFF;stop-opacity:0"/><stop offset=".1236" style="stop-color:#F6F9FE;stop-opacity:0.1236"/><stop offset=".3252" style="stop-color:#DEEAFD;stop-opacity:0.3252"/><stop offset=".5797" style="stop-color:#B6D0FB;stop-opacity:0.5797"/><stop offset=".8744" style="stop-color:#7FADF7;stop-opacity:0.8744"/><stop offset="1" style="stop-color:#669DF6"/></linearGradient><path opacity=".5" fill="url(#f)" d="M301.269 50.057l-16.835 16.834-13.17-13.17 16.835-16.834z"/><linearGradient id="g" gradientUnits="userSpaceOnUse" x1="251.9503" y1="3.102" x2="274.8022" y2="25.9539" gradientTransform="matrix(1.1899 .4532 -.4532 -1.1899 -28.8433 10.7707)"><stop offset="0" style="stop-color:#FFFFFF;stop-opacity:0"/><stop offset=".1236" style="stop-color:#F6F9FE;stop-opacity:0.1236"/><stop offset=".3252" style="stop-color:#DEEAFD;stop-opacity:0.3252"/><stop offset=".5797" style="stop-color:#B6D0FB;stop-opacity:0.5797"/><stop offset=".8744" style="stop-color:#7FADF7;stop-opacity:0.8744"/><stop offset="1" style="stop-color:#669DF6"/></linearGradient><path opacity=".3" fill="url(#g)" d="M295.525 113.572l-16.835 16.834-18.287-18.286 16.835-16.835z"/><linearGradient id="h" gradientUnits="userSpaceOnUse" x1="19.915" y1="-17.775" x2="42.768" y2="5.078" gradientTransform="matrix(1 0 0 -1 0 140)"><stop offset="0" style="stop-color:#FFFFFF;stop-opacity:0"/><stop offset=".1236" style="stop-color:#F6F9FE;stop-opacity:0.1236"/><stop offset=".3252" style="stop-color:#DEEAFD;stop-opacity:0.3252"/><stop offset=".5797" style="stop-color:#B6D0FB;stop-opacity:0.5797"/><stop offset=".8744" style="stop-color:#7FADF7;stop-opacity:0.8744"/><stop offset="1" style="stop-color:#669DF6"/></linearGradient><path opacity=".3" fill="url(#h)" d="M48.333 140.487L25.48 163.34l-11.129-11.13 22.852-22.853z"/><linearGradient id="i" gradientUnits="userSpaceOnUse" x1="291.5482" y1="126.2667" x2="302.9747" y2="137.6933" gradientTransform="matrix(1 0 0 -1 0 140)"><stop offset="0" style="stop-color:#FFFFFF;stop-opacity:0"/><stop offset=".1236" style="stop-color:#F6F9FE;stop-opacity:0.1236"/><stop offset=".3252" style="stop-color:#DEEAFD;stop-opacity:0.3252"/><stop offset=".5797" style="stop-color:#B6D0FB;stop-opacity:0.5797"/><stop offset=".8744" style="stop-color:#7FADF7;stop-opacity:0.8744"/><stop offset="1" style="stop-color:#669DF6"/></linearGradient><path opacity=".5" fill="url(#i)" d="M309.968 9.3l-11.427 11.426L284.555 6.74l11.426-11.426z"/><linearGradient id="j" gradientUnits="userSpaceOnUse" x1="-9.249" y1="81.201" x2="7.178" y2="97.628" gradientTransform="matrix(1 0 0 -1 0 140)"><stop offset="0" style="stop-color:#FFFFFF;stop-opacity:0"/><stop offset=".1236" style="stop-color:#F6F9FE;stop-opacity:0.1236"/><stop offset=".3252" style="stop-color:#DEEAFD;stop-opacity:0.3252"/><stop offset=".5797" style="stop-color:#B6D0FB;stop-opacity:0.5797"/><stop offset=".8744" style="stop-color:#7FADF7;stop-opacity:0.8744"/><stop offset="1" style="stop-color:#669DF6"/></linearGradient><path opacity=".5" fill="url(#j)" d="M27.671 62.865L11.244 79.292l-40.986-40.986 16.427-16.427z"/><path fill="#FFF" d="M41.25624 93.30556l42.42529-42.4253 25.98592 25.98593-42.42529 42.4253z"/><linearGradient id="k" gradientUnits="userSpaceOnUse" x1="366.644" y1="-1246.6931" x2="312.7" y2="-1246.6931" gradientTransform="scale(1 -1) rotate(45 -1191.56245 -992.1858)"><stop offset="0" style="stop-color:#FFFFFF"/><stop offset="1" style="stop-color:#AECBFA"/></linearGradient><path opacity=".4" fill="url(#k)" d="M54.716 79.848c-3.185 3.185-3.185 8.35 0 11.535l20.218 20.218 34.737-34.737-25.986-25.985-28.969 28.969z"/><path fill="#E8F0FE" d="M86.071 73.418L69.1 90.389 52.925 70.501l12.993-12.993z"/><path fill="#1A73E8" d="M78.377 96.449c-7.423-.001-13.588-6.04-13.743-13.464-.157-7.58 5.881-13.875 13.461-14.033l.293-.003c7.421 0 13.586 6.04 13.741 13.464.076 3.672-1.282 7.153-3.824 9.804s-5.965 4.153-9.637 4.229l-.291.003z"/><path fill="#8AB4F8" d="M78.386 69.949c6.918 0 12.597 5.535 12.742 12.484.147 7.04-5.441 12.866-12.481 13.013-.091.002-.181.003-.271.003-6.918 0-12.597-5.535-12.742-12.484-.147-7.04 5.441-12.866 12.481-13.013.091-.002.181-.003.271-.003m0-2c-.104 0-.208.001-.313.003-8.131.17-14.609 6.923-14.439 15.054.166 7.964 6.779 14.442 14.742 14.442.104 0 .208-.001.313-.003 3.939-.082 7.61-1.693 10.337-4.537 2.727-2.843 4.184-6.579 4.102-10.518-.166-7.962-6.779-14.441-14.742-14.441z"/><ellipse transform="rotate(-1.146 48.77036 91.9978)" fill="#AECBFA" cx="48.688" cy="92.039" rx="2.062" ry="2.062"/><linearGradient id="l" gradientUnits="userSpaceOnUse" x1="-637.3096" y1="-178.1206" x2="-617.7115" y2="-178.1206" gradientTransform="matrix(0 -1 -1 0 -99.7397 -548.2487)"><stop offset="0" style="stop-color:#1A73E8"/><stop offset="1" style="stop-color:#174EA6"/></linearGradient><path opacity=".4" fill="url(#l)" d="M65.634 82.965c.01.475.05.942.111 1.402.82-6.124 6-10.907 12.37-11.04 6.553-.137 12.052 4.697 12.9 11.044.084-.633.127-1.279.113-1.938-.147-7.04-5.973-12.628-13.013-12.481s-12.628 5.973-12.481 13.013z"/><circle fill="#FFF" cx="303.297" cy="1.435" r="10"/><path fill="none" stroke="#EA4335" stroke-width="1.2" stroke-linecap="round" stroke-linejoin="round" stroke-miterlimit="10" d="M300.843-3.642V6.511l6.989-5.142-6.989-5.011"/><path fill="#E8F0FE" d="M25.519 62.21c.781.781 2.047.781 2.828 0 .781-.781.781-2.047 0-2.828l-2.828 2.828z"/><path fill="#E8F0FE" d="M26.9313 60.7959l25.4556-25.4556 1.4142 1.4142-25.4556 25.4556z"/><path fill="#FFF" d="M-14.079 22.612L25.519 62.21l1.768-1.768c-.195.195-.512.195-.707 0l-.707-.707c-.195-.195-.195-.512 0-.707l2.121-2.121c.195-.195.512-.195.707 0l.707.707c.195.195.195.512 0 .707l17.678-17.678c-.195.195-.512.195-.707 0l-.707-.707c-.195-.195-.195-.512 0-.707l2.121-2.121c.195-.195.512-.195.707 0l.707.707c.195.195.195.512 0 .707l1.768-1.768L11.377-2.843l-25.456 25.455zM26.58 54.786c.195.195.195.512 0 .707l-2.121 2.121c-.195.195-.512.195-.707 0l-.707-.707c-.195-.195-.195-.512 0-.707l2.121-2.121c.195-.195.512-.195.707 0l.707.707zm-2.829-2.829c.195.195.195.512 0 .707l-2.121 2.121c-.195.195-.512.195-.707 0l-.707-.707c-.195-.195-.195-.512 0-.707l2.121-2.121c.195-.195.512-.195.707 0l.707.707zm-2.828-2.828c.195.195.195.512 0 .707l-2.121 2.121c-.195.195-.512.195-.707 0l-.707-.707c-.195-.195-.195-.512 0-.707l2.121-2.121c.195-.195.512-.195.707 0l.707.707zM18.095 46.3c.195.195.195.512 0 .707l-2.121 2.121c-.195.195-.512.195-.707 0l-.707-.707c-.195-.195-.195-.512 0-.707l2.121-2.121c.195-.195.512-.195.707 0l.707.707zm-2.829-2.828c.195.195.195.512 0 .707L13.145 46.3c-.195.195-.512.195-.707 0l-.707-.707c-.195-.195-.195-.512 0-.707l2.121-2.121c.195-.195.512-.195.707 0l.707.707zm-2.828-2.828c.195.195.195.512 0 .707l-2.121 2.121c-.195.195-.512.195-.707 0l-.707-.707c-.195-.195-.195-.512 0-.707l2.121-2.121c.195-.195.512-.195.707 0l.707.707zm-2.829-2.829c.195.195.195.512 0 .707l-2.121 2.121c-.195.195-.512.195-.707 0l-.707-.707c-.195-.195-.195-.512 0-.707l2.121-2.121c.195-.195.512-.195.707 0l.707.707zm-2.828-2.828c.195.195.195.512 0 .707L4.66 37.815c-.195.195-.512.195-.707 0l-.707-.707c-.195-.195-.195-.512 0-.707l2.121-2.121c.195-.195.512-.195.707 0l.707.707zm-2.829-2.829c.195.195.195.512 0 .707l-2.121 2.121c-.195.195-.512.195-.707 0l-.707-.706c-.195-.195-.195-.512 0-.707l2.121-2.121c.195-.195.512-.195.707 0l.707.706zM1.124 29.33c.195.195.195.512 0 .707l-2.121 2.121c-.195.195-.512.195-.707 0l-.707-.707c-.195-.195-.195-.512 0-.707l2.121-2.121c.195-.195.512-.195.707 0l.707.707zm-2.828-2.829c.195.195.195.512 0 .707l-2.121 2.121c-.195.195-.512.195-.707 0l-.707-.707c-.195-.195-.195-.512 0-.707l2.121-2.121c.195-.195.512-.195.707 0l.707.707zm-2.829-2.828c.195.195.195.512 0 .707l-2.121 2.121c-.195.195-.512.195-.707 0l-.707-.707c-.195-.195-.195-.512 0-.707l2.121-2.121c.195-.195.512-.195.707 0l.707.707zm-2.828-2.828c.195.195.195.512 0 .707l-2.121 2.121c-.195.195-.512.195-.707 0l-.707-.707c-.195-.195-.195-.512 0-.707l2.121-2.121c.195-.195.512-.195.707 0l.707.707zm53.74 14.142c.195.195.195.512 0 .707l-2.121 2.121c-.195.195-.512.195-.707 0l-.707-.707c-.195-.195-.195-.512 0-.707l2.121-2.121c.195-.195.512-.195.707 0l.707.707zm-2.829-2.829c.195.195.195.512 0 .707l-2.121 2.121c-.195.195-.512.195-.707 0l-.707-.707c-.195-.195-.195-.512 0-.707l2.121-2.121c.195-.195.512-.195.707 0l.707.707zm-2.828-2.828c.195.195.195.512 0 .707l-2.121 2.121c-.195.195-.512.195-.707 0l-.707-.707c-.195-.195-.195-.512 0-.707l2.121-2.121c.195-.195.512-.195.707 0l.707.707zm-2.828-2.829c.195.195.195.512 0 .707l-2.121 2.121c-.195.195-.512.195-.707 0l-.707-.707c-.195-.195-.195-.512 0-.707l2.121-2.121c.195-.195.512-.195.707 0l.707.707zm-2.829-2.828c.195.195.195.512 0 .707l-2.121 2.121c-.195.195-.512.195-.707 0l-.707-.707c-.195-.195-.195-.512 0-.707l2.121-2.121c.195-.195.512-.195.707 0l.707.707zm-2.828-2.828c.195.195.195.512 0 .707l-2.121 2.121c-.195.195-.512.195-.707 0l-.707-.707c-.195-.195-.195-.512 0-.707l2.121-2.121c.195-.195.512-.195.707 0l.707.707zm-2.829-2.829c.195.195.195.512 0 .707l-2.121 2.121c-.195.195-.512.195-.707 0l-.707-.707c-.195-.195-.195-.512 0-.707l2.121-2.121c.195-.195.512-.195.707 0l.707.707zm-2.828-2.828c.195.195.195.512 0 .707l-2.121 2.121c-.195.195-.512.195-.707 0l-.707-.707c-.195-.195-.195-.512 0-.707l2.121-2.121c.195-.195.512-.195.707 0l.707.707zm-2.829-2.829c.195.195.195.512 0 .707l-2.121 2.121c-.195.195-.512.195-.707 0l-.707-.707c-.195-.195-.195-.512 0-.707l2.121-2.121c.195-.195.512-.195.707 0l.707.707zm-2.828-2.828c.195.195.195.512 0 .707l-2.121 2.121c-.195.195-.512.195-.707 0l-.707-.707c-.195-.195-.195-.512 0-.707l2.121-2.121c.195-.195.512-.195.707 0l.707.707zm-2.828-2.829c.195.195.195.512 0 .707L15.974 9.53c-.195.195-.512.195-.707 0l-.707-.707c-.195-.195-.195-.512 0-.707l2.121-2.121c.195-.195.512-.195.707 0l.707.707zm-2.829-2.828c.195.195.195.512 0 .707l-2.121 2.121c-.195.195-.512.195-.707 0l-.707-.707c-.195-.195-.195-.512 0-.707l2.121-2.121c.195-.195.512-.195.707 0l.707.707zm-2.828-2.828c.195.195.195.512 0 .707l-2.121 2.121c-.195.195-.512.195-.707 0l-.708-.707c-.195-.195-.195-.512 0-.707L11.023.339c.195-.195.512-.195.707 0l.708.707z"/><path fill="#E8F0FE" d="M24.105 24.027L12.791 35.34c-.781.781-2.047.781-2.828 0L-5.594 19.784c-.781-.781-.781-2.047 0-2.828L5.72 5.642c.781-.781 2.047-.781 2.828 0l15.556 15.556c.782.781.782 2.048.001 2.829z"/><linearGradient id="m" gradientUnits="userSpaceOnUse" x1="4858.0337" y1="-2343.4221" x2="4878.0337" y2="-2343.4221" gradientTransform="scale(1 -1) rotate(45 -365.35735 -7047.0767)"><stop offset="0" style="stop-color:#D2E3FC"/><stop offset="1" style="stop-color:#FFFFFF"/></linearGradient><path opacity=".2" fill="url(#m)" d="M24.105 24.027L12.791 35.34c-.781.781-2.047.781-2.828 0L-5.594 19.784c-.781-.781-.781-2.047 0-2.828L5.72 5.642c.781-.781 2.047-.781 2.828 0l15.556 15.556c.782.781.782 2.048.001 2.829z"/><path fill="#D2E3FC" d="M43.904 43.826L32.59 55.139c-.781.781-2.047.781-2.828 0L14.205 39.583c-.781-.781-.781-2.047 0-2.828l11.314-11.314c.781-.781 2.047-.781 2.828 0l15.556 15.556c.782.781.782 2.048.001 2.829z"/><linearGradient id="n" gradientUnits="userSpaceOnUse" x1="4858.0337" y1="-2371.4224" x2="4878.0337" y2="-2371.4224" gradientTransform="scale(1 -1) rotate(45 -365.35735 -7047.0767)"><stop offset="0" style="stop-color:#8AB4F8"/><stop offset="1" style="stop-color:#FFFFFF"/></linearGradient><path opacity=".2" fill="url(#n)" d="M43.904 43.826L32.59 55.139c-.781.781-2.047.781-2.828 0L14.205 39.583c-.781-.781-.781-2.047 0-2.828l11.314-11.314c.781-.781 2.047-.781 2.828 0l15.556 15.556c.782.781.782 2.048.001 2.829z"/><path fill="#AECBFA" d="M39.661 25.441l1.414 1.414 1.061-1.061c.195-.195.512-.195.707 0l.707.707c.195.195.195.512 0 .707l-1.061 1.061 1.414 1.414 1.061-1.061c.195-.195.512-.195.707 0l.707.707c.195.195.195.512 0 .707l-1.061 1.061 1.414 1.414 1.061-1.061c.195-.195.512-.195.707 0l.707.707c.195.195.195.512 0 .707l-1.061 1.061 1.414 1.414 1.061-1.061c.195-.195.512-.195.707 0l.707.707c.195.195.195.512 0 .707l-1.061 1.061c.781.781 2.047.781 2.828 0s.781-2.047 0-2.828L42.49 22.612l-2.829 2.829z"/><ellipse transform="rotate(-45 29.05401 40.29023)" fill="none" stroke="#4285F4" stroke-width="2" stroke-miterlimit="10" cx="29.054" cy="40.29" rx="6" ry="6"/><path fill="none" stroke="#34A853" stroke-width="2" stroke-linecap="round" stroke-linejoin="round" stroke-miterlimit="10" d="M2.892 16.956l2.828 8.485 5.657-5.657z"/><path fill="none" stroke="#FBBC05" stroke-width="2" stroke-linecap="round" stroke-linejoin="round" stroke-miterlimit="10" d="M15.62 18.37v7.071"/><path fill="#FFF" d="M255.34128-11.25087l1.4142-1.4142 25.4556 25.4556-1.4142 1.4142z"/><path fill="#FFF" d="M239.789 52.388l39.598-39.598-1.768-1.768c.195.195.195.512 0 .707l-.707.707c-.195.195-.512.195-.707 0l-2.121-2.121c-.195-.195-.195-.512 0-.707l.707-.707c.195-.195.512-.195.707 0L257.82-8.776c.195.195.195.512 0 .707l-.707.707c-.195.195-.512.195-.707 0l-2.121-2.121c-.195-.195-.195-.512 0-.707l.707-.707c.195-.195.512-.195.707 0l-1.768-1.768-39.598 39.598 25.456 25.455zm14.495-56.922c-.195.195-.512.195-.707 0l-2.121-2.121c-.195-.195-.195-.512 0-.707l.707-.707c.195-.195.512-.195.707 0l2.121 2.121c.195.195.195.512 0 .707l-.707.707zm-2.828 2.829c-.195.195-.512.195-.707 0l-2.121-2.121c-.195-.195-.195-.512 0-.707l.707-.707c.195-.195.512-.195.707 0l2.121 2.121c.195.195.195.512 0 .707l-.707.707zm-2.828 2.828c-.195.195-.512.195-.707 0L245.8-.998c-.195-.195-.195-.512 0-.707l.707-.707c.195-.195.512-.195.707 0l2.121 2.121c.195.195.195.512 0 .707l-.707.707zm-2.829 2.829c-.195.195-.512.195-.707 0l-2.121-2.121c-.195-.195-.195-.512 0-.707l.707-.707c.195-.195.512-.195.707 0l2.121 2.121c.195.195.195.512 0 .707l-.707.707zm-2.828 2.828c-.195.195-.512.195-.707 0l-2.121-2.121c-.195-.195-.195-.512 0-.707l.707-.707c.195-.195.512-.195.707 0l2.121 2.121c.195.195.195.512 0 .707l-.707.707zm-2.829 2.829c-.195.195-.512.195-.707 0l-2.121-2.121c-.195-.195-.195-.512 0-.707l.707-.707c.195-.195.512-.195.707 0l2.121 2.121c.195.195.195.512 0 .707l-.707.707zm-2.828 2.828c-.195.195-.512.195-.707 0l-2.121-2.121c-.195-.195-.195-.512 0-.707l.707-.707c.195-.195.512-.195.707 0l2.121 2.121c.195.195.195.512 0 .707l-.707.707zm-2.829 2.828c-.195.195-.512.195-.707 0l-2.121-2.121c-.195-.195-.195-.512 0-.707l.707-.707c.195-.195.512-.195.707 0l2.121 2.121c.195.195.195.512 0 .707l-.707.707zm-2.828 2.829c-.195.195-.512.195-.707 0l-2.121-2.121c-.195-.195-.195-.512 0-.707l.707-.707c.195-.195.512-.195.707 0l2.121 2.121c.195.195.195.512 0 .707l-.707.707zm-2.828 2.828c-.195.195-.512.195-.707 0L226 18.801c-.195-.195-.195-.512 0-.707l.707-.707c.195-.195.512-.195.707 0l2.121 2.121c.195.195.195.512 0 .707l-.706.707zM226 23.751c-.195.195-.512.195-.707 0l-2.121-2.121c-.195-.195-.195-.512 0-.707l.707-.707c.195-.195.512-.195.707 0l2.121 2.121c.195.195.195.512 0 .707l-.707.707zm-2.828 2.828c-.195.195-.512.195-.707 0l-2.121-2.121c-.195-.195-.195-.512 0-.707l.707-.707c.195-.195.512-.195.707 0l2.121 2.121c.195.195.195.512 0 .707l-.707.707zm-2.829 2.828c-.195.195-.512.195-.707 0l-2.121-2.121c-.195-.195-.195-.512 0-.707l.707-.707c.195-.195.512-.195.707 0l2.121 2.121c.195.195.195.512 0 .707l-.707.707zm53.74-14.142c-.195.195-.512.195-.707 0l-2.121-2.121c-.195-.195-.195-.512 0-.707l.707-.707c.195-.195.512-.195.707 0l2.121 2.121c.195.195.195.512 0 .707l-.707.707zm-2.828 2.829c-.195.195-.512.195-.707 0l-2.121-2.121c-.195-.195-.195-.512 0-.707l.707-.707c.195-.195.512-.195.707 0l2.121 2.121c.195.195.195.512 0 .707l-.707.707zm-2.828 2.828c-.195.195-.512.195-.707 0l-2.121-2.121c-.195-.195-.195-.512 0-.707l.707-.707c.195-.195.512-.195.707 0l2.121 2.121c.195.195.195.512 0 .707l-.707.707zm-2.829 2.829c-.195.195-.512.195-.707 0l-2.121-2.121c-.195-.195-.195-.512 0-.707l.707-.707c.195-.195.512-.195.707 0l2.121 2.121c.195.195.195.512 0 .707l-.707.707zm-2.828 2.828c-.195.195-.512.195-.707 0l-2.121-2.121c-.195-.195-.195-.512 0-.707l.707-.707c.195-.195.512-.195.707 0l2.121 2.121c.195.195.195.512 0 .707l-.707.707zm-2.829 2.828c-.195.195-.512.195-.707 0l-2.121-2.121c-.195-.195-.195-.512 0-.707l.707-.707c.195-.195.512-.195.707 0l2.121 2.121c.195.195.195.512 0 .707l-.707.707zm-2.828 2.829c-.195.195-.512.195-.707 0l-2.121-2.121c-.195-.195-.195-.512 0-.707l.707-.707c.195-.195.512-.195.707 0l2.121 2.121c.195.195.195.512 0 .707l-.707.707zm-2.829 2.828c-.195.195-.512.195-.707 0l-2.121-2.121c-.195-.195-.195-.512 0-.707l.707-.707c.195-.195.512-.195.707 0l2.121 2.121c.195.195.195.512 0 .707l-.707.707zm-2.828 2.829c-.195.195-.512.195-.707 0l-2.121-2.121c-.195-.195-.195-.512 0-.707l.707-.707c.195-.195.512-.195.707 0l2.121 2.121c.195.195.195.512 0 .707l-.707.707zm-2.828 2.828c-.195.195-.512.195-.707 0L245.8 38.6c-.195-.195-.195-.512 0-.707l.707-.707c.195-.195.512-.195.707 0l2.121 2.121c.195.195.195.512 0 .707l-.707.707zm-2.829 2.829c-.195.195-.512.195-.707 0l-2.121-2.121c-.195-.195-.195-.512 0-.707l.707-.707c.195-.195.512-.195.707 0l2.121 2.121c.195.195.195.512 0 .707l-.707.707zm-2.828 2.828c-.195.195-.512.195-.707 0l-2.121-2.121c-.195-.195-.195-.512 0-.707l.707-.707c.195-.195.512-.195.707 0l2.121 2.121c.195.195.195.512 0 .707l-.707.707zm-2.829 2.828c-.195.195-.512.195-.707 0l-2.121-2.121c-.195-.195-.195-.512 0-.707l.707-.707c.195-.195.512-.195.707 0l2.121 2.121c.195.195.195.512 0 .707l-.707.707z"/><path fill="#E8F0FE" d="M252.517 25.518l-11.314-11.314c-.781-.781-2.047-.781-2.828 0L222.819 29.76c-.781.781-.781 2.047 0 2.828l11.314 11.314c.781.781 2.047.781 2.828 0l15.556-15.556c.781-.78.781-2.047 0-2.828z"/><linearGradient id="o" gradientUnits="userSpaceOnUse" x1="4909.7764" y1="-2618.3625" x2="4929.7764" y2="-2618.3625" gradientTransform="rotate(45 -617.04416 -6946.4733)"><stop offset="0" style="stop-color:#D2E3FC"/><stop offset="1" style="stop-color:#FFFFFF"/></linearGradient><path opacity=".2" fill="url(#o)" d="M252.517 25.518l-11.314-11.314c-.781-.781-2.047-.781-2.828 0L222.819 29.76c-.781.781-.781 2.047 0 2.828l11.314 11.314c.781.781 2.047.781 2.828 0l15.556-15.556c.781-.78.781-2.047 0-2.828z"/><path fill="#D2E3FC" d="M272.316 5.719L261.002-5.594c-.781-.781-2.047-.781-2.828 0L242.617 9.962c-.781.781-.781 2.047 0 2.828l11.314 11.314c.781.781 2.047.781 2.828 0l15.556-15.556c.782-.781.782-2.048.001-2.829z"/><linearGradient id="p" gradientUnits="userSpaceOnUse" x1="4909.7764" y1="-2646.3623" x2="4929.7764" y2="-2646.3623" gradientTransform="rotate(45 -617.04416 -6946.4733)"><stop offset="0" style="stop-color:#8AB4F8"/><stop offset="1" style="stop-color:#FFFFFF"/></linearGradient><path opacity=".2" fill="url(#p)" d="M272.316 5.719L261.002-5.594c-.781-.781-2.047-.781-2.828 0L242.617 9.962c-.781.781-.781 2.047 0 2.828l11.314 11.314c.781.781 2.047.781 2.828 0l15.556-15.556c.782-.781.782-2.048.001-2.829z"/><path fill="#AECBFA" d="M268.073 24.104l1.414-1.414 1.061 1.061c.195.195.512.195.707 0l.707-.707c.195-.195.195-.512 0-.707l-1.061-1.061 1.414-1.414 1.061 1.061c.195.195.512.195.707 0l.707-.707c.195-.195.195-.512 0-.707l-1.061-1.061 1.414-1.414 1.061 1.061c.195.195.512.195.707 0l.707-.707c.195-.195.195-.512 0-.707l-1.061-1.061 1.414-1.414 1.061 1.061c.195.195.512.195.707 0l.707-.707c.195-.195.195-.512 0-.707l-1.061-1.061c.781-.781 2.047-.781 2.828 0s.781 2.047 0 2.828l-11.314 11.314-2.826-2.83z"/><ellipse transform="rotate(-45 257.46549 9.26)" fill="none" stroke="#E8F0FE" stroke-width="2" stroke-miterlimit="10" cx="257.464" cy="9.257" rx="6" ry="6"/><path fill="none" stroke="#AECBFA" stroke-width="2" stroke-linecap="round" stroke-linejoin="round" stroke-miterlimit="10" d="M231.303 32.589l2.829-8.485 5.657 5.657z"/><path fill="none" stroke="#8AB4F8" stroke-width="2" stroke-linecap="round" stroke-linejoin="round" stroke-miterlimit="10" d="M244.031 31.175v-7.071"/><ellipse transform="rotate(-45 265.15228 66.64843)" fill="#34A853" cx="265.152" cy="66.645" rx="8.115" ry="8.115"/><path fill="#34A853" d="M254.266 77.532l3.016-12.87 9.972 9.805z"/><linearGradient id="q" gradientUnits="userSpaceOnUse" x1="-61.3852" y1="254.7623" x2="-48.4874" y2="268.3867" gradientTransform="scale(1 -1) rotate(-45 -297.34377 -278.86853)"><stop offset="0" style="stop-color:#006838"/><stop offset="1" style="stop-color:#34A853"/></linearGradient><path opacity=".5" fill="url(#q)" d="M270.892 72.382c3.169-3.169 3.169-8.307 0-11.476s-8.307-3.169-11.476 0c-1.077 1.077-1.787 2.381-2.132 3.758l-.002-.002-3.016 12.87 12.243-2.889c1.604-.271 3.144-1.023 4.383-2.261z"/><ellipse transform="rotate(-45 42.27478 135.22159)" fill="#AECBFA" cx="42.276" cy="135.22" rx="8.115" ry="8.115"/><path fill="#AECBFA" d="M31.389 146.108l3.017-12.869 9.972 9.805z"/><linearGradient id="r" gradientUnits="userSpaceOnUse" x1="-170.4916" y1="48.674" x2="-157.5938" y2="62.2984" gradientTransform="scale(1 -1) rotate(-45 -297.34377 -278.86853)"><stop offset="0" style="stop-color:#8AB4F8"/><stop offset="1" style="stop-color:#AECBFA"/></linearGradient><path opacity=".5" fill="url(#r)" d="M48.015 140.958c3.169-3.169 3.169-8.307 0-11.476-3.169-3.169-8.307-3.169-11.476 0-1.077 1.077-1.787 2.381-2.132 3.758l-.002-.002-3.016 12.87 12.243-2.889c1.605-.27 3.145-1.022 4.383-2.261z"/><g><g fill="#EA4335"><ellipse transform="rotate(-45 67.28554 13.43153)" cx="67.285" cy="13.431" rx="9.92" ry="9.92"/><path d="M80.597 26.741l-15.734-3.688L76.85 10.862z"/></g><linearGradient id="s" gradientUnits="userSpaceOnUse" x1="-294.1624" y1="-889.929" x2="-285.0217" y2="-883.4636" gradientTransform="scale(1 -1) rotate(45 -1154.29008 -21.93863)"><stop offset="0" style="stop-color:#EA4335"/><stop offset="1" style="stop-color:#EA4335"/></linearGradient><path opacity=".5" fill="url(#s)" d="M60.305 6.427c-3.874 3.874-3.874 10.155 0 14.029 1.316 1.316 2.911 2.184 4.594 2.606l-.002.002 15.733 3.688-3.532-14.967c-.331-1.962-1.25-3.844-2.764-5.358-3.874-3.874-10.155-3.874-14.029 0z"/></g><ellipse transform="rotate(-9.154 8.9982 102.0007)" fill="#669DF6" cx="8.999" cy="102.004" rx="14.999" ry="14.999"/><linearGradient id="t" gradientUnits="userSpaceOnUse" x1="5.2793" y1="35.1421" x2="-9.5673" y2="23.7427" gradientTransform="matrix(1 0 0 -1 0 140)"><stop offset="0" style="stop-color:#669DF6"/><stop offset="1" style="stop-color:#1A73E8"/></linearGradient><path fill="url(#t)" d="M14.471 113.722c-8.177 1.318-15.875-4.243-17.193-12.42-.671-4.165.445-8.204 2.78-11.341-4.344 3.232-6.786 8.71-5.865 14.426 1.318 8.178 9.016 13.738 17.193 12.42 4.012-.647 7.391-2.831 9.64-5.852-1.871 1.392-4.093 2.37-6.555 2.767z"/><g fill="none" stroke="#FFF" stroke-width="1.2" stroke-linecap="round" stroke-linejoin="round" stroke-miterlimit="10"><path d="M1.45939 98.91316l12.52452-2.42785 1.84515 9.51857-12.52453 2.42785z" stroke-width="1.199964"/><path d="M14.539 99.372l2.666-2.336 1.408 7.265-3.291-1.026"/></g><linearGradient id="u" gradientUnits="userSpaceOnUse" x1="274.9868" y1="-19.3737" x2="293.4138" y2="-.9468" gradientTransform="matrix(1 0 0 -1 0 140)"><stop offset="0" style="stop-color:#FFFFFF;stop-opacity:0"/><stop offset=".1236" style="stop-color:#F6F9FE;stop-opacity:0.1236"/><stop offset=".3252" style="stop-color:#DEEAFD;stop-opacity:0.3252"/><stop offset=".5797" style="stop-color:#B6D0FB;stop-opacity:0.5797"/><stop offset=".8744" style="stop-color:#7FADF7;stop-opacity:0.8744"/><stop offset="1" style="stop-color:#669DF6"/></linearGradient><path opacity=".5" fill="url(#u)" d="M303.657 151.19l-18.427 18.427-20.486-20.487 18.426-18.426z"/><linearGradient id="v" gradientUnits="userSpaceOnUse" x1="181.7793" y1="121.2717" x2="200.2058" y2="139.6982" gradientTransform="matrix(.9442 -.0558 .0558 -.9442 3.183 143.183)"><stop offset="0" style="stop-color:#FFFFFF;stop-opacity:0"/><stop offset=".1236" style="stop-color:#F6F9FE;stop-opacity:0.1236"/><stop offset=".3252" style="stop-color:#DEEAFD;stop-opacity:0.3252"/><stop offset=".5797" style="stop-color:#B6D0FB;stop-opacity:0.5797"/><stop offset=".8744" style="stop-color:#7FADF7;stop-opacity:0.8744"/><stop offset="1" style="stop-color:#669DF6"/></linearGradient><path opacity=".5" fill="url(#v)" d="M209.112 9.208l-18.426 18.426-18.199-18.198 18.426-18.427z"/><ellipse transform="rotate(-9.154 293.4842 140.83044)" fill="#AECBFA" cx="293.495" cy="140.836" rx="14.999" ry="14.999"/><linearGradient id="w" gradientUnits="userSpaceOnUse" x1="289.7653" y1="-3.6829" x2="274.9188" y2="-15.0823" gradientTransform="matrix(1 0 0 -1 0 140)"><stop offset="0" style="stop-color:#AECBFA"/><stop offset="1" style="stop-color:#4285F4"/></linearGradient><path fill="url(#w)" d="M298.957 152.547c-8.177 1.318-15.875-4.243-17.193-12.42-.671-4.165.445-8.204 2.78-11.341-4.344 3.232-6.786 8.71-5.865 14.426 1.318 8.178 9.016 13.738 17.193 12.42 4.012-.647 7.391-2.831 9.64-5.852-1.871 1.392-4.093 2.37-6.555 2.767z"/><g fill="none" stroke="#FFF" stroke-width="1.2" stroke-linecap="round" stroke-linejoin="round" stroke-miterlimit="10"><path d="M285.93017 137.72446l12.52453-2.42785 1.84515 9.51856-12.52453 2.42785z" stroke-width="1.199964"/><path d="M299.025 138.197l2.666-2.336 1.408 7.264-3.291-1.025"/></g><g><path fill="#AECBFA" d="M150.76805 60.73398l24.4395-24.4395 27.49416 27.49418-24.4395 24.4395z"/><path fill="#FFF" d="M169.661 97.06L141.94 69.339c-.781-.781-.781-2.047 0-2.828l31.856-31.856c.781-.781 2.047-.781 2.828 0l27.721 27.721c.781.781.781 2.047 0 2.828L172.489 97.06c-.781.781-2.047.781-2.828 0z"/><linearGradient id="x" gradientUnits="userSpaceOnUse" x1="140.1395" y1="41.1395" x2="157.0025" y2="58.0025" gradientTransform="matrix(1 0 0 -1 0 140)"><stop offset="0" style="stop-color:#FFFFFF;stop-opacity:0"/><stop offset=".1236" style="stop-color:#F6F9FE;stop-opacity:0.1236"/><stop offset=".3252" style="stop-color:#DEEAFD;stop-opacity:0.3252"/><stop offset=".5797" style="stop-color:#B6D0FB;stop-opacity:0.5797"/><stop offset=".8744" style="stop-color:#7FADF7;stop-opacity:0.8744"/><stop offset="1" style="stop-color:#669DF6"/></linearGradient><path opacity=".5" fill="url(#x)" d="M155.414 114.135l-30.549-30.549 16.863-16.863 30.549 30.549z"/><path fill="#AECBFA" d="M150.76805 60.73398l24.4395-24.4395 27.49416 27.49418-24.4395 24.4395z"/><g><defs><path id="y" transform="rotate(-45 176.73668 62.26287)" d="M159.455 42.819h34.563v38.883h-34.563z"/></defs><clipPath id="z"><use xlink:href="#y" overflow="visible"/></clipPath><g clip-path="url(#z)"><ellipse transform="rotate(-25.829 175.90756 71.59735)" fill="#4285F4" cx="175.907" cy="71.6" rx="21.597" ry="21.597"/><ellipse transform="rotate(-25.829 175.90756 71.59735)" fill="#2C66BF" cx="175.907" cy="71.6" rx="18.849" ry="18.849"/><ellipse transform="rotate(-25.829 184.3186 62.9638)" fill="none" stroke="#FFF" stroke-width="1.2" stroke-miterlimit="10" cx="184.318" cy="62.967" rx="5.091" ry="5.091"/><ellipse transform="rotate(-25.829 163.32232 65.5272)" fill="#34A853" cx="163.322" cy="65.53" rx="5.995" ry="5.995"/><linearGradient id="A" gradientUnits="userSpaceOnUse" x1="156.3577" y1="729.1962" x2="160.3739" y2="732.5848" gradientTransform="scale(1 -1) rotate(-64.17 -474.15816 327.51618)"><stop offset="0" style="stop-color:#34A853"/><stop offset=".2745" style="stop-color:#2E9E4D"/><stop offset=".7328" style="stop-color:#1E853E"/><stop offset=".9933" style="stop-color:#137333"/></linearGradient><circle opacity=".4" fill="url(#A)" cx="163.321" cy="65.538" r="5.995"/><ellipse transform="rotate(-56.693 165.36013 77.91091)" fill="#34A853" cx="165.352" cy="77.907" rx="4.598" ry="4.598"/><linearGradient id="B" gradientUnits="userSpaceOnUse" x1="-2937.9587" y1="4351.062" x2="-2934.8784" y2="4353.6611" gradientTransform="scale(1 -1) rotate(56.693 2719.39981 5012.37118)"><stop offset="0" style="stop-color:#34A853"/><stop offset=".2745" style="stop-color:#2E9E4D"/><stop offset=".7328" style="stop-color:#1E853E"/><stop offset=".9933" style="stop-color:#137333"/></linearGradient><circle opacity=".4" fill="url(#B)" cx="165.358" cy="77.9" r="4.598"/><g fill="#34A853"><ellipse transform="rotate(-6.28 167.7672 70.9459)" cx="167.791" cy="70.881" rx="6.239" ry="6.239"/><ellipse transform="rotate(-6.28 161.69633 71.78328)" cx="161.72" cy="71.721" rx="4.679" ry="4.679"/></g><path fill="none" stroke="#58C472" stroke-width=".6" stroke-linecap="round" stroke-miterlimit="10" d="M161.309 71.811l13.988-.44"/><g fill="#34A853"><ellipse transform="rotate(-84.134 171.14587 67.60989)" cx="171.152" cy="67.612" rx="6.24" ry="6.24"/><ellipse transform="rotate(-84.134 177.3451 68.16768)" cx="177.351" cy="68.17" rx="4.68" ry="4.68"/></g><linearGradient id="C" gradientUnits="userSpaceOnUse" x1="163.9729" y1="737.8349" x2="169.3897" y2="729.5208" gradientTransform="scale(1 -1) rotate(-64.17 -474.15816 327.51618)"><stop offset="0" style="stop-color:#34A853"/><stop offset=".2745" style="stop-color:#2E9E4D"/><stop offset=".7328" style="stop-color:#1E853E"/><stop offset=".9933" style="stop-color:#137333"/></linearGradient><path opacity=".4" fill="url(#C)" d="M175.231 72.359c.483.238 1.016.396 1.583.454 2.561.263 4.851-1.6 5.114-4.161.263-2.561-1.6-4.851-4.161-5.114-.634-.065-1.251 0-1.825.174-1.005-1.221-2.473-2.062-4.17-2.236-3.421-.351-6.479 2.137-6.831 5.558-.351 3.421 2.137 6.479 5.558 6.831 1.788.183 3.476-.41 4.732-1.506z"/><path fill="none" stroke="#58C472" stroke-width=".6" stroke-linecap="round" stroke-miterlimit="10" d="M161.848 66.351l14.822 1.927"/><path fill="none" stroke="#58C472" stroke-width=".6" stroke-linecap="round" stroke-linejoin="round" stroke-miterlimit="10" d="M174.654 64.975l-3.076 2.668 2.686 3.097M170.762 64.438l-3.076 2.668 2.686 3.097"/><g fill="#34A853"><ellipse transform="rotate(-30.582 186.12658 79.71385)" cx="186.126" cy="79.719" rx="4.598" ry="4.598"/><ellipse transform="rotate(-30.582 190.12269 77.41463)" cx="190.122" cy="77.42" rx="3.449" ry="3.449"/></g><path fill="none" stroke="#58C472" stroke-width=".5" stroke-linecap="round" stroke-miterlimit="10" d="M180.04 83.082l9.72-5.398"/><path fill="none" stroke="#58C472" stroke-width=".5" stroke-linecap="round" stroke-linejoin="round" stroke-miterlimit="10" d="M187.094 76.599l-.662 2.956 2.976.666M184.528 77.998l-.661 2.955 2.976.666"/><ellipse transform="rotate(-25.829 179.50272 77.17081)" fill="#EA4335" cx="179.502" cy="77.174" rx="3.367" ry="3.367"/><ellipse transform="rotate(-25.829 187.26205 68.29052)" fill="#EA4335" cx="187.262" cy="68.294" rx="2.71" ry="2.71"/><linearGradient id="D" gradientUnits="userSpaceOnUse" x1="193.6344" y1="86.1186" x2="169.8116" y2="62.2958" gradientTransform="matrix(1 0 0 -1 0 140)"><stop offset="0" style="stop-color:#2C66BF"/><stop offset="1" style="stop-color:#174EA6"/></linearGradient><path opacity=".4" fill="url(#D)" d="M192.873 63.397c-4.535-9.37-15.808-13.29-25.178-8.755-2.677 1.296-4.908 3.142-6.625 5.336 1.041-.815 2.184-1.534 3.423-2.133 9.37-4.535 20.643-.616 25.178 8.755 3.24 6.693 2.164 14.357-2.129 19.843 6.834-5.352 9.267-14.915 5.331-23.046z"/></g></g></g><g><path fill="#FFF" d="M158.006 128.107l-26.456 26.456c-.781.781-2.047.781-2.828 0l-28.284-28.284c-.781-.781-.781-2.047 0-2.828l26.456-26.456c.781-.781 2.047-.781 2.828 0l28.284 28.284c.781.78.781 2.047 0 2.828z"/><linearGradient id="E" gradientUnits="userSpaceOnUse" x1="87.0795" y1="-27.9205" x2="115.364" y2=".364" gradientTransform="matrix(1 0 0 -1 0 140)"><stop offset="0" style="stop-color:#FFFFFF;stop-opacity:0"/><stop offset=".1236" style="stop-color:#F6F9FE;stop-opacity:0.1236"/><stop offset=".3252" style="stop-color:#DEEAFD;stop-opacity:0.3252"/><stop offset=".5797" style="stop-color:#B6D0FB;stop-opacity:0.5797"/><stop offset=".8744" style="stop-color:#7FADF7;stop-opacity:0.8744"/><stop offset="1" style="stop-color:#669DF6"/></linearGradient><path opacity=".5" fill="url(#E)" d="M130.92 155.192l-28.284 28.285-31.113-31.113 28.285-28.284z"/><path fill="#669DF6" d="M102.84863 123.86406l25.4556-25.4556 22.6272 22.6272-25.4556 25.4556z"/><ellipse transform="rotate(-45 124.93236 129.08102)" fill="none" stroke="#F9AB00" stroke-width="1.2" stroke-miterlimit="10" cx="124.933" cy="129.079" rx="8.421" ry="8.421"/></g><path fill="#FFF" d="M99.1784 22.01577l41.01393-41.01392 29.35526 29.35525-41.01392 41.01393z"/><linearGradient id="F" gradientUnits="userSpaceOnUse" x1="100.3574" y1="89.8065" x2="114.8721" y2="104.3211" gradientTransform="matrix(1 0 0 -1 0 140)"><stop offset="0" style="stop-color:#FFFFFF;stop-opacity:0"/><stop offset=".1236" style="stop-color:#F6F9FE;stop-opacity:0.1236"/><stop offset=".3252" style="stop-color:#DEEAFD;stop-opacity:0.3252"/><stop offset=".5797" style="stop-color:#B6D0FB;stop-opacity:0.5797"/><stop offset=".8744" style="stop-color:#7FADF7;stop-opacity:0.8744"/><stop offset="1" style="stop-color:#669DF6"/></linearGradient><path opacity=".5" fill="url(#F)" d="M115.035 64.871L85.68 35.516l14.514-14.515 29.356 29.356z"/><path fill="#669DF6" d="M106.91709 20.5161l33.27541-33.27543 23.11581 23.11581-33.27542 33.27542z"/><ellipse transform="rotate(-45 127.93432 20.0814)" fill="none" stroke="#D2E3FC" stroke-width="2" stroke-miterlimit="10" cx="127.934" cy="20.08" rx="8.421" ry="8.421"/><path fill="none" stroke="#FBBC05" stroke-width="2" stroke-linecap="round" stroke-linejoin="round" stroke-miterlimit="10" d="M149.62-3v15.441"/><g><path fill="#FFF" d="M185.6763 115.35754l36.35484-36.35484 39.51346 39.51345-36.35484 36.35484z"/><path fill="#4285F4" d="M192.91417 114.35843l29.11555-29.11555 33.27542 33.27542-29.11555 29.11555z"/><path fill="#E1E2E6" d="M207.47238 114.35748l14.55777-14.55778 25.99654 25.99653-14.55778 14.55778z"/><ellipse transform="rotate(-45 222.03256 93.56291)" fill="none" stroke="#FBBC05" stroke-width="1.2" stroke-miterlimit="10" cx="222.033" cy="93.56" rx="2.941" ry="2.941"/><g fill="#4285F4"><path d="M212.6717 115.39817l2.07957-2.07958 2.07958 2.07958-2.07958 2.07958zM216.83098 111.2384l2.07958-2.07957 2.07959 2.07958-2.07958 2.07958zM220.9906 107.07924l2.07957-2.07958 2.07958 2.07958-2.07958 2.07958zM216.83105 119.55737l2.07958-2.07958 2.07958 2.07958-2.07958 2.07958zM220.99066 115.3981l2.07958-2.07957 2.07958 2.07958-2.07958 2.07958zM225.14995 111.23844l2.07958-2.07958 2.07958 2.07958-2.07958 2.07958zM220.99062 123.71707l2.07958-2.07958 2.07958 2.07958-2.07958 2.07958zM225.14991 119.5573l2.07958-2.07957 2.07959 2.07958-2.07959 2.07958zM229.30952 115.39814l2.07958-2.07958 2.07958 2.07958-2.07958 2.07958zM225.14998 127.87627l2.07958-2.07958 2.07958 2.07958-2.07958 2.07958zM229.30959 123.717l2.07958-2.07957 2.07958 2.07958-2.07958 2.07958zM233.46888 119.55734l2.07958-2.07958 2.07958 2.07958-2.07958 2.07958zM229.30955 132.03597l2.07958-2.07958 2.07958 2.07958-2.07958 2.07958zM233.46884 127.8763l2.07958-2.07957 2.07959 2.07958-2.07959 2.07958zM237.62855 123.71704l2.07958-2.07958 2.07958 2.07958-2.07958 2.07958zM233.4682 136.19447l2.07958-2.07959 2.07958 2.07959-2.07958 2.07958zM237.62852 132.0359l2.07958-2.07957 2.07958 2.07958-2.07958 2.07958zM241.7864 127.87665l2.07958-2.07958 2.07958 2.07958-2.07958 2.07958z"/></g><linearGradient id="G" gradientUnits="userSpaceOnUse" x1="-4145.2397" y1="1466.2906" x2="-4145.2397" y2="1485.4088" gradientTransform="scale(1 -1) rotate(45 -29.32933 5979.54275)"><stop offset="0" style="stop-color:#4285F4"/><stop offset="1" style="stop-color:#174EA6"/></linearGradient><path opacity=".35" fill="url(#G)" d="M255.231 118.596l-7.199 7.199-11.119-11.119 1.2-5.999 5.999-1.2z"/><linearGradient id="H" gradientUnits="userSpaceOnUse" x1="-4176.0664" y1="1466.2914" x2="-4176.0664" y2="1492.7621" gradientTransform="scale(1 -1) rotate(45 -29.32933 5979.54275)"><stop offset="0" style="stop-color:#4285F4"/><stop offset="1" style="stop-color:#174EA6"/></linearGradient><path opacity=".35" fill="url(#H)" d="M233.473 140.353l-7.279 7.279-10.398-10.398 3.119-3.12-8.319-8.319 4.16-4.159z"/><linearGradient id="I" gradientUnits="userSpaceOnUse" x1="180.937" y1="-19.614" x2="206.2925" y2="5.7415" gradientTransform="matrix(1 0 0 -1 0 140)"><stop offset="0" style="stop-color:#FFFFFF;stop-opacity:0"/><stop offset=".1236" style="stop-color:#F6F9FE;stop-opacity:0.1236"/><stop offset=".3252" style="stop-color:#DEEAFD;stop-opacity:0.3252"/><stop offset=".5797" style="stop-color:#B6D0FB;stop-opacity:0.5797"/><stop offset=".8744" style="stop-color:#7FADF7;stop-opacity:0.8744"/><stop offset="1" style="stop-color:#669DF6"/></linearGradient><path opacity=".5" fill="url(#I)" d="M226.05 154.016l-25.356 25.355-39.514-39.514 25.355-25.356z"/></g><g><path fill="#8AB4F8" d="M292.472 79.45l-13.941 13.941c-4.112 4.112-4.112 10.779 0 14.891 3.519 3.519 8.906 4.024 12.965 1.521l3.926 3.926v-7.446l11.941-11.941c4.112-4.112 4.112-10.779 0-14.891-4.112-4.113-10.779-4.113-14.891-.001z"/><g fill="none" stroke="#FFF" stroke-width="2" stroke-linecap="round" stroke-linejoin="round" stroke-miterlimit="10"><path d="M283.407 99.375l14.747-14.748M287.621 103.589l14.748-14.747"/></g></g><g><path fill="#AECBFA" d="M295.573 29.209l-9.22 9.22c-3.71 3.71-3.731 9.705-.047 13.389 3.684 3.684 9.679 3.663 13.389-.047l7.105-7.106 6.756-.024-3.488-3.488c2.508-3.692 2.145-8.741-1.107-11.992-3.683-3.683-9.678-3.662-13.388.048z"/><path fill="none" stroke="#FFF" stroke-width="2" stroke-linecap="round" stroke-linejoin="round" stroke-miterlimit="10" d="M292.589 45.715l9.961-9.962"/></g><g><path fill="#8AB4F8" d="M211.754-3.103c2.011 6.945-1.944 14.214-8.835 16.237-6.89 2.023-14.106-1.967-16.118-8.912-2.011-6.945 1.944-14.214 8.835-16.237 6.891-2.022 14.107 1.968 16.118 8.912z"/><linearGradient id="J" gradientUnits="userSpaceOnUse" x1="-799.6306" y1="263.6458" x2="-816.1476" y2="247.1288" gradientTransform="scale(1 -1) rotate(20.671 426.53564 2868.53998)"><stop offset="0" style="stop-color:#8AB4F8"/><stop offset="1" style="stop-color:#4285F4"/></linearGradient><path opacity=".4" fill="url(#J)" d="M204.42 9.814c-6.89 2.023-14.106-1.967-16.118-8.912-.725-2.504-.674-5.051.01-7.379-1.937 3.069-2.602 6.932-1.511 10.699 2.011 6.945 9.227 10.935 16.118 8.912 4.406-1.293 7.611-4.732 8.824-8.858-1.633 2.588-4.17 4.613-7.323 5.538z"/><path fill="none" stroke="#FFF" stroke-linecap="round" stroke-linejoin="round" stroke-miterlimit="10" d="M199.147 6.468s-3.591-2.929-4.702-3.866c-2.662-2.246-1.771-4.992-.056-5.875 2.635-1.357 4.708 1.959 4.708 1.959s1.912-3.166 4.421-1.989c2.01.942 2.574 3.491.083 5.935-.569.559-1.72 1.547-2.709 2.381"/></g><ellipse transform="rotate(-45 67.28559 13.4314)" fill="none" stroke="#FFF" stroke-width="1.2" stroke-miterlimit="10" cx="67.285" cy="13.431" rx="3.772" ry="3.772"/><ellipse transform="rotate(-45 265.15228 66.64843)" fill="#FFF" cx="265.152" cy="66.645" rx="3.086" ry="3.086"/><ellipse transform="rotate(-45 42.27478 135.22159)" fill="#FFF" cx="42.276" cy="135.22" rx="3.086" ry="3.086"/></svg>