<svg width="120" height="120" viewBox="0 0 120 120" fill="none" xmlns="http://www.w3.org/2000/svg">
<g clip-path="url(#clip0_1090_29442)">
<path d="M97.1429 120H22.8571C10.2286 120 0 109.771 0 97.1429V22.8571C0 10.2286 10.2286 0 22.8571 0H97.1429C109.771 0 120 10.2286 120 22.8571V97.1429C120 109.771 109.771 120 97.1429 120Z" fill="#A2CCFC"/>
<path d="M97.1429 0H81.5143C64.3143 10.2286 50.5429 25.5143 41.8 43.6571C32.6857 62.6857 19.4 79.1143 0 86.7714V97.1429C0 109.771 10.2286 120 22.8571 120H97.1429C109.771 120 120 109.771 120 97.1429V22.8571C120 10.2286 109.771 0 97.1429 0Z" fill="#E8E8E8"/>
<path d="M112.057 13.0286L90 21.4286L68.9429 41.0571L60 60.8571L113.257 113.343C117.429 109.2 120 103.486 120 97.1429V22.8571C120 19.3429 119.171 16 117.743 13.0286H112.057Z" fill="#C5E09E"/>
<path d="M62.5714 60.5714C69.4571 46.1714 82.2 19.7714 118.6 15.0857C117.886 13.1428 116.943 11.3142 115.771 9.6571C77.8857 15.4 64.6571 43 57.4286 58.1142C43.2857 87.6571 19.0571 103.229 2.25714 107.029C3.14286 108.857 4.22857 110.543 5.54286 112.057C23.6571 107.057 48.2286 90.6 62.5714 60.5714Z" fill="white"/>
<path d="M115.171 111.143L61.8 57.7715L57.7714 61.8001L111.143 115.171C112.657 114 114 112.657 115.171 111.143Z" fill="white"/>
</g>
<defs>
<clipPath id="clip0_1090_29442">
<rect width="120" height="120" fill="white"/>
</clipPath>
</defs>
</svg>
