<?xml version="1.0" encoding="utf-8"?>
<!-- Generator: Adobe Illustrator 30.0.0, SVG Export Plug-In . SVG Version: 9.03 Build 0)  -->
<svg version="1.1" baseProfile="basic" id="Layer_1"
	 xmlns="http://www.w3.org/2000/svg" xmlns:xlink="http://www.w3.org/1999/xlink" x="0px" y="0px" width="150px" height="80px"
	 viewBox="0 0 150 80" xml:space="preserve">
<g>
	<g id="BG_00000112605198725999773180000005304259619240852359_">
		<path fill-rule="evenodd" clip-rule="evenodd" fill="#202FB0" d="M104.49,13.86c-0.28-0.02-0.56,0.07-0.79,0.25
			c-2.14,1.69-4.11,3.59-5.86,5.67c-0.42,0.5-0.84,1.03-0.9,1.7c-0.03,0.32,0.04,0.65,0.23,0.9c0.42,0.57,1.14,0.5,1.78,0.51
			c0.65,0.02,1.44,0.26,1.4,1.04c-0.01,0.24-0.11,0.47-0.25,0.66c-1.28,1.67-2.64,3.26-4.1,4.77c-0.26,0.27-0.08,0.71,0.29,0.72
			l3.87,0.16c0.19,0.01,0.37-0.06,0.5-0.19c1.75-1.71,3.34-3.58,4.73-5.59c0.21-0.3,0.42-0.61,0.45-0.99
			c0.02-0.18-0.01-0.35-0.1-0.51c-0.27-0.48-0.9-0.45-1.38-0.3c-0.55,0.16-1.13,0.42-1.66,0.04c-0.28-0.2-0.44-0.53-0.47-0.88
			c-0.06-0.77,0.38-1.41,0.83-1.98c1.48-1.92,3.17-3.67,5.03-5.22c0.23-0.19,0.11-0.57-0.19-0.58L104.49,13.86z"/>
		<path fill="#FFD4F8" d="M71.79,77.5c-8.58-0.23-6.38-8.16-13.42-9.83c-4.58-1-7.53-6.11-6.11-10.58c1.92-5.74-3.99-8.24-2.8-13.77
			c0.41-2.3,1.7-4.27,3.64-5.56c5.16-3.16,2.24-8.88,6.71-12.35c4.22-3.81,9.28,0.09,13.33-4.46c3.16-3.46,9.06-3.47,12.22,0
			c4.01,4.54,9.13,0.67,13.33,4.46c1.79,1.5,2.85,3.6,3,5.93c0.16,6.06,6.57,6.38,7.34,11.98c0.41,2.3-0.13,4.59-1.51,6.47
			c-3.77,4.74,0.93,9.11-2.08,13.9c-2.66,5.02-8.75,3.09-11,8.75c-1.78,4.34-7.33,6.35-11.48,4.18c-2.32-1.15-5.09-1.15-7.42,0
			C74.34,77.2,73.07,77.5,71.79,77.5L71.79,77.5z"/>
	</g>
	<g id="Flag">
		<g>
			<g>
				<path fill="#999999" d="M38.9,24.56C38.9,24.56,38.9,24.56,38.9,24.56l-1.46-6.74c0,0,0,0-0.01,0c0,0,0,0,0.01,0l-1.46-6.73
					c0,0,0,0-0.01,0l4.39,20.2c0,0,0,0,0.01,0L38.9,24.56C38.91,24.56,38.9,24.56,38.9,24.56L38.9,24.56z"/>
				<path fill="#455EE3" d="M37.44,17.82l1.46,6.73c2.19-1.11,4.96-2.58,7.43-3.68l-1.44-6.75C42.42,15.23,39.64,16.7,37.44,17.82
					L37.44,17.82z"/>
				<path fill="#202FB0" d="M46.49,13.46c-0.51,0.2-1.05,0.43-1.59,0.67l1.44,6.75c0.55-0.25,1.09-0.47,1.59-0.67
					c2.06-0.81,4.16-1.49,6.33-1.93l-1.43-6.74C50.65,11.97,48.55,12.65,46.49,13.46L46.49,13.46z"/>
				<path fill="#202FB0" d="M38.9,24.56l1.46,6.73c2.18-1.11,4.94-2.57,7.4-3.66l-1.44-6.75C43.87,21.98,41.09,23.44,38.9,24.56
					L38.9,24.56z"/>
				<path fill="#455EE3" d="M47.93,20.2c-0.51,0.2-1.04,0.43-1.59,0.67l1.44,6.75c0.55-0.24,1.09-0.47,1.59-0.67
					c2.06-0.81,4.16-1.49,6.33-1.95l-1.43-6.74C52.08,18.72,49.98,19.39,47.93,20.2L47.93,20.2z"/>
				<path fill="#202FB0" d="M44.9,14.13l-1.43-6.74c-2.48,1.1-5.28,2.57-7.48,3.7l1.46,6.73C39.64,16.7,42.42,15.23,44.9,14.13
					L44.9,14.13z"/>
				<path fill="#455EE3" d="M46.49,13.46c2.06-0.81,4.16-1.48,6.33-1.93l-1.43-6.74c-2.17,0.45-4.27,1.12-6.33,1.93
					c-0.51,0.2-1.05,0.43-1.6,0.67l1.43,6.74C45.45,13.88,45.98,13.66,46.49,13.46L46.49,13.46z"/>
			</g>
			<path fill="#202FB0" d="M53.8,10.48C53.8,10.48,53.8,10.47,53.8,10.48c1.02-0.83,5.08-3.37,4.92-5l-0.03-0.15
				c-0.07-0.24-0.24-0.45-0.55-0.64c-1.1-0.58-2.93-0.49-4.51-0.28c-0.61,0.08-1.19,0.18-1.67,0.27c-0.19,0.04-0.39,0.08-0.58,0.12
				l1.37,6.46C53.17,10.95,53.53,10.69,53.8,10.48L53.8,10.48L53.8,10.48z"/>
			<g>
				<path fill="#5193FF" d="M55.89,30.55c1.27-0.28,2.54-0.7,3.76-1.23l-1.44-6.75c-1.23,0.54-2.51,0.96-3.79,1.24
					c-1.33,0.29-4.23,0.75-5-0.29l1.46,6.73C51.66,31.3,54.56,30.84,55.89,30.55L55.89,30.55z"/>
				<path fill="#DFF2FD" d="M54.43,23.82c1.28-0.28,2.56-0.7,3.79-1.24l-1.43-6.74c-1.24,0.54-2.53,0.96-3.82,1.24
					c-1.43,0.31-4.59,0.82-5.06-0.54l1.52,6.99C50.2,24.57,53.1,24.11,54.43,23.82L54.43,23.82z"/>
				<path fill="#DFF2FD" d="M59.65,29.32c-1.22,0.53-2.49,0.95-3.76,1.23c-1.33,0.29-4.23,0.75-5-0.29l1.41,6.48
					c0.47,1.37,3.62,0.85,5.06,0.54c1.26-0.28,2.52-0.69,3.73-1.21L59.65,29.32L59.65,29.32z"/>
				<path fill="#DFF2FD" d="M68.86,13.95c1.63-1.59,3.25-2.5,4.94-2.92l-1.36-6.76c-1.72,0.41-3.37,1.33-5.04,2.95
					c-0.96,0.94-1.86,1.94-2.79,2.92l1.4,6.77C66.96,15.92,67.88,14.91,68.86,13.95L68.86,13.95z"/>
				<path fill="#5193FF" d="M68.86,13.95c-0.98,0.95-1.9,1.97-2.85,2.96l1.41,6.79c0.97-1.01,1.91-2.04,2.9-3.02
					c1.59-1.56,3.19-2.46,4.83-2.89l-1.36-6.76C72.11,11.45,70.49,12.36,68.86,13.95L68.86,13.95z"/>
				<path fill="#DFF2FD" d="M75.16,17.79c-1.65,0.43-3.24,1.34-4.83,2.89c-1,0.97-1.93,2.01-2.9,3.02l1.41,6.81
					c0.99-1.03,1.94-2.1,2.95-3.09c1.57-1.52,3.12-2.42,4.73-2.87L75.16,17.79L75.16,17.79z"/>
				<path fill="#DFF2FD" d="M61.77,20.64c-1.11,0.74-2.31,1.4-3.55,1.94l1.44,6.75c1.26-0.54,2.47-1.21,3.58-1.95
					c1.59-1.06,2.91-2.35,4.18-3.67l-1.41-6.79C64.73,18.26,63.38,19.56,61.77,20.64L61.77,20.64z"/>
				<path fill="#5193FF" d="M63.24,27.37c-1.11,0.74-2.32,1.4-3.58,1.95l1.44,6.75c1.27-0.54,2.49-1.21,3.61-1.97
					c1.57-1.03,2.88-2.29,4.13-3.59l-1.41-6.81C66.15,25.03,64.82,26.31,63.24,27.37L63.24,27.37z"/>
				<path fill="#5193FF" d="M61.77,20.64c1.61-1.08,2.95-2.38,4.24-3.73l-1.4-6.77c-1.3,1.37-2.66,2.69-4.3,3.76
					c-1.09,0.74-2.28,1.39-3.53,1.93l1.43,6.74C59.47,22.03,60.67,21.38,61.77,20.64L61.77,20.64z"/>
			</g>
			<path fill="#455EE3" d="M47.91,16.54c0.47,1.37,3.63,0.85,5.06,0.54c0.7-0.16,1.41-0.36,2.11-0.59l-1.28-6.01
				C52.26,11.68,47.59,14.79,47.91,16.54L47.91,16.54L47.91,16.54z"/>
			<path fill="#9FD5FF" d="M60.31,13.91c0.07-0.05,0.14-0.09,0.21-0.14l-1.81-8.34c0.27,1.62-3.89,4.21-4.91,5.05
				c0,0-0.01,0-0.01,0.01l1.28,6.01c0.58-0.19,1.15-0.41,1.71-0.65l0,0C58.03,15.3,59.22,14.65,60.31,13.91L60.31,13.91z"/>
		</g>
		<path fill="#4F0033" d="M87.56,65.95L75.02,3.56c-0.15-0.72-0.86-1.19-1.58-1.03c-0.72,0.15-1.19,0.86-1.03,1.58l7.01,34.86
			l-0.58,0.37l-0.85,2.14l0.64,0.85l1.31-0.78l5.02,24.95c0.13,0.62,0.67,1.05,1.27,1.06c0.1,0,0.21-0.01,0.31-0.03
			C87.25,67.38,87.72,66.67,87.56,65.95L87.56,65.95z"/>
	</g>
	<g id="Hand">
		<path fill="#640D00" d="M71.61,60.76c-2.25-4.44-6.28-4.94-8.06-3.74c-1.31,0.88-7.17,5.02-10.19,7.17
			c1.18,1.75,2.94,2.98,5.01,3.49c2.52,0.61,4.64,2.39,5.68,4.77c0.41,0.93,0.97,1.76,1.65,2.47c1.39-1.6,3.31-3.81,4.39-5.06
			C71.92,67.74,73.81,65.11,71.61,60.76L71.61,60.76z"/>
		<path fill="#640D00" d="M79.89,57.82c-0.22-2.03-0.94-4.21-3.27-5.85c-2.32-1.63-3.92,0.87-5.23,2.43
			c-0.11,0.13-0.22,0.27-0.33,0.39l0,0c0,0,4.72,1.93,4.52,9.06l0,0c0.73-0.66,1.36-1.14,2.05-1.54
			C79.56,61.19,80.11,59.85,79.89,57.82L79.89,57.82z"/>
		<g>
			<path fill="#FF4365" d="M91.71,54.17L91.71,54.17c-0.15-0.38-1.35-1.98-0.77-2.75c0.79-1.45,1.5-2.89,0.21-4.32
				c-0.39-0.51-1.29-1.28-1.22-1.99c0.16-2.04-0.19-4.12-2.65-4.28c0.32-0.69,1.49-2.56,1.76-3.23l0,0c0.57-1.7-0.77-3.56-2.57-3.52
				c-0.76,0-1.45,0.31-1.94,0.82l-5.29,5.42c4-8.88-4.67-10.84-4.73-3.83c0.16,2.81-0.82,4.27-2.75,6.22
				c-6.17,5.5-1.22,8.88-7.08,10.82c-2.48,1.01-3.11,2.03-3,4.78c2.06-1.42,2.78-2.29,5.4-1.64l0,0c4.15,1.11,5.71-7.34,9.54-4.7
				c2.32,1.63,3.05,3.81,3.27,5.85c0.53,3.5-2.03,4.04-4.31,6.04c-0.36,0.22-4.53,4.65-5.73,6.26c7.2,2.38,6-4.11,11.23-7.18
				C84.73,60.71,93.41,58.57,91.71,54.17L91.71,54.17z"/>
			<path fill="#8C0019" d="M75.58,63.86L75.58,63.86c0.2-7.14-4.52-9.06-4.52-9.06l0,0c-1.96,2.4-3.98,1.88-3.98,1.88l0,0
				c1.61,0.46,3.33,1.71,4.53,4.09c1.8,3.55,0.87,5.96-0.54,7.87C72.37,67,75.58,63.86,75.58,63.86L75.58,63.86z"/>
		</g>
		
			<radialGradient id="SVGID_1_" cx="15031.8691" cy="-18555.9629" r="13.5304" gradientTransform="matrix(-0.168 0.9858 0.5619 0.0957 13023.5615 -13002.8369)" gradientUnits="userSpaceOnUse">
			<stop  offset="0.65" style="stop-color:#FF4365"/>
			<stop  offset="1" style="stop-color:#8C0019"/>
		</radialGradient>
		<path fill="url(#SVGID_1_)" d="M79.24,40.31l0.32-0.86c1.27-3.72,0.79-6.73-1.5-7.09c-2.47-0.38-3.69,1.79-3.55,4.12
			c0.16,2.81-0.82,4.27-2.75,6.22c-0.67,0.68-1.3,1.36-1.84,2.07l3.89,0.71L79.24,40.31L79.24,40.31z"/>
		
			<linearGradient id="SVGID_00000065752629518892391980000001291026930611745215_" gradientUnits="userSpaceOnUse" x1="75.9996" y1="-12110.9668" x2="69.1376" y2="-12103.4502" gradientTransform="matrix(1 0 0 -1 0 -12048)">
			<stop  offset="0.66" style="stop-color:#FF4365"/>
			<stop  offset="1" style="stop-color:#8C0019"/>
		</linearGradient>
		<path fill="url(#SVGID_00000065752629518892391980000001291026930611745215_)" d="M75.35,60.85c-0.02-0.08-0.03-0.15-0.05-0.22
			c-1-4.51-4.24-5.83-4.24-5.83l0,0c-1.96,2.4-3.98,1.88-3.98,1.88l0,0c1.61,0.46,3.33,1.71,4.53,4.09c0.1,0.19,0.31,0.67,0.33,0.71
			C72.91,63.59,75.69,62.94,75.35,60.85L75.35,60.85z"/>
		<path fill="#8C0019" d="M74.5,60.21c-0.81-1.66-2.65-0.45-1.8,0.94C73.54,62.55,75.11,61.45,74.5,60.21z"/>
	</g>
	<g id="Confetti">
		<path fill-rule="evenodd" clip-rule="evenodd" fill="#5193FF" d="M110.45,37.57c1.51-1.01,2.75-2.44,3.51-4.09
			c0.16-0.35,0.04-0.77-0.28-0.97l-2.24-1.41c-0.34-0.22-0.8-0.12-1.03,0.21c-0.72,1.02-1.6,1.93-2.58,2.7
			c-0.33,0.26-0.4,0.73-0.15,1.06l1.74,2.32C109.65,37.72,110.11,37.79,110.45,37.57L110.45,37.57z"/>
		<path fill-rule="evenodd" clip-rule="evenodd" fill="#5193FF" d="M46.09,43.96c-1.48-1.06-3.26-1.69-5.07-1.82
			c-0.39-0.03-0.73,0.24-0.81,0.61l-0.51,2.6c-0.08,0.4,0.17,0.79,0.56,0.89c1.21,0.31,2.37,0.8,3.44,1.45
			c0.36,0.22,0.82,0.11,1.05-0.24l1.55-2.46C46.51,44.65,46.42,44.2,46.09,43.96L46.09,43.96z"/>
		<path fill-rule="evenodd" clip-rule="evenodd" fill="#9FD5FF" d="M106.85,56.3c-1.8-0.23-3.67,0.04-5.33,0.79
			c-0.35,0.16-0.54,0.55-0.42,0.92l0.77,2.53c0.12,0.39,0.52,0.62,0.92,0.52c1.21-0.29,2.47-0.41,3.72-0.35
			c0.42,0.02,0.78-0.29,0.81-0.71l0.21-2.89C107.54,56.71,107.25,56.35,106.85,56.3L106.85,56.3z"/>
		<path fill="#9FD5FF" d="M59.21,45.54c-0.65-0.02-3.7-0.86-4.24-0.39c-2.23,1.55-6.59,4.25-7.64,6.7
			c-0.44,2.46,3.29,0.82,3.18,2.86c-0.74,1.87-8.76,7.28-7.43,9.46c0.69,1.14,3.17,0.01,3.13,1.79c-0.07,0.52-0.52,0.89-0.85,1.27
			c-1.19,1.34-2.45,2.62-3.77,3.84c-0.53,0.39-0.21,0.9,0.41,0.9c1.11,0.11,2.22,0.23,3.34,0.34c1.48,0.17,4.93-4.36,5.99-5.57
			c0.92-0.96,0.49-2.2-0.94-1.83c-2.21,0.82-2.72-1.34-1.37-2.74c2.06-2.24,4.62-3.97,6.54-6.38c0.98-0.93,0.68-2.24-0.85-1.93
			c-0.57,0.1-1.19,0.3-1.68-0.15c-1.99-2,4.85-6.44,6.32-7.57C59.6,45.98,59.52,45.59,59.21,45.54L59.21,45.54z"/>
		<path fill-rule="evenodd" clip-rule="evenodd" fill="#202FB0" d="M84.47,72.09c-0.13-0.4-0.56-0.62-0.96-0.49l-2.77,0.87
			c-0.39,0.12-0.61,0.53-0.51,0.92c0.23,0.92,0.6,1.81,1.09,2.63c0.56,0.14,1.1,0.34,1.62,0.6c0.64,0.32,1.31,0.55,1.99,0.7
			l1.07-0.85c0.32-0.25,0.38-0.71,0.15-1.04C85.44,74.4,84.87,73.27,84.47,72.09L84.47,72.09z"/>
		<path fill-rule="evenodd" clip-rule="evenodd" fill="#5193FF" d="M85.68,21.27c-0.9,1.23-1.55,2.65-1.9,4.14
			c-0.1,0.43,0.13,0.86,0.55,1.02l2.82,1.04c0.43,0.16,0.91-0.05,1.1-0.47c0.55-1.27,1.28-2.46,2.16-3.52
			C88.66,23.26,86.98,22.49,85.68,21.27L85.68,21.27z"/>
	</g>
</g>
</svg>
