<?xml version="1.0" encoding="utf-8"?>
<!-- Generator: Adobe Illustrator 30.0.0, SVG Export Plug-In . SVG Version: 9.03 Build 0)  -->
<svg version="1.1" baseProfile="basic" id="Layer_1"
	 xmlns="http://www.w3.org/2000/svg" xmlns:xlink="http://www.w3.org/1999/xlink" x="0px" y="0px" width="340px" height="200px"
	 viewBox="0 0 340 200" xml:space="preserve">
<g>
	<g id="Cup_00000029038396571133123020000014554085254817712031_">
		<g>
			<path fill="#FFD6FD" d="M274.88,15.55c-16.67-3.93-31.9,0.11-33.99,9.02l0,0c-0.42,1.79-0.78,4.1-0.99,6.75
				c-3.33-4.64-8.77-7.67-14.92-7.67c-10.14,0-18.35,8.21-18.35,18.35s8.21,18.35,18.35,18.35c7.14,0,13.32-4.08,16.36-10.03
				c1.66,6.64,4.77,12.99,10.15,17.33c2.13,1.88,5.21,3.5,8.82,4.51c0.06,0.02,0.12,0.03,0.18,0.05c0.33,0.09,0.66,0.18,1,0.26
				c0.34,0.08,0.67,0.15,1.01,0.22c0.06,0.01,0.12,0.02,0.18,0.03c3.68,0.71,7.16,0.63,9.91-0.1c16.71-3.68,26.54-24.62,28.7-33.82
				C303.37,29.88,291.55,19.48,274.88,15.55z M224.97,53.01c-6.08,0-11.01-4.93-11.01-11.01c0-6.08,4.93-11.01,11.01-11.01
				c6.08,0,11.01,4.93,11.01,11.01S231.05,53.01,224.97,53.01z"/>
			
				<ellipse transform="matrix(0.2292 -0.9734 0.9734 0.2292 178.1237 288.2668)" fill="#FC8BF1" cx="271.08" cy="31.67" rx="12.38" ry="25.02"/>
			<path fill="#7D0304" d="M268.24,43.73c10.44,2.46,20.12,1.3,24.65-2.46c-0.28-5.91-8.88-12.43-20.5-15.16
				c-11.62-2.73-22.22-0.74-25.11,4.42C249.66,35.92,257.8,41.27,268.24,43.73z"/>
		</g>
	</g>
	<g id="House">
		<g>
			<path fill="#E7FC00" d="M224.29,76.71c-6.61,3.08-14.49,0.21-17.57-6.4s-0.21-14.49,6.4-17.57c6.61-3.08,14.49-0.21,17.57,6.4
				C233.76,65.75,230.9,73.63,224.29,76.71z M215.49,57.84c-3.79,1.77-5.44,6.3-3.67,10.09c1.77,3.79,6.3,5.44,10.09,3.67
				c3.79-1.77,5.44-6.3,3.67-10.09C223.81,57.72,219.28,56.08,215.49,57.84z"/>
			
				<linearGradient id="SVGID_1_" gradientUnits="userSpaceOnUse" x1="270.9757" y1="-618.4969" x2="226.7665" y2="-721.24" gradientTransform="matrix(1 0 0 1 0 800)">
				<stop  offset="0" style="stop-color:#FF5F00"/>
				<stop  offset="0.2905" style="stop-color:#F19800"/>
				<stop  offset="0.7753" style="stop-color:#E7FC00"/>
			</linearGradient>
			<path fill="url(#SVGID_1_)" d="M292.43,94.13l-21.01-7.76l-10.78-23.36c-0.85-1.85-3.04-2.65-4.89-1.8l-8.69,4.01
				c-1.85,0.85-2.65,3.04-1.8,4.89l3.67,7.95l-21.49-7.93l-10.17,4.74l-23.43,65.23c-1.9,5.3,3.54,10.26,8.64,7.88l9.19-4.28
				L235.1,194l72.1-33.62l-23.45-50.29l9.15-4.27C298.01,103.43,297.71,96.08,292.43,94.13z"/>
			<path fill="#E7FC00" d="M261.75,141.67l-11.68,5.39c-3.13,1.45-4.5,5.15-3.05,8.29l12.57,27.24l22.98-10.71l-12.53-27.15
				C268.59,141.59,264.88,140.22,261.75,141.67z"/>
			<circle fill="#FFFFFF" cx="268.88" cy="158.28" r="2.95"/>
		</g>
	</g>
	<g id="Bus_00000084527629563394561720000007833054674812331159_">
		<g>
			<path fill="#FF8FEA" d="M247.03,122.45c-3.71-20.99-22.34-35.6-43.06-34.84c3.92-2.88,6.09-7.83,5.19-12.95
				c-1.27-7.19-8.12-11.98-15.31-10.71c-7.19,1.27-11.98,8.12-10.71,15.31c0.9,5.12,4.64,9.02,9.31,10.39
				c-19.73,6.38-32.24,26.48-28.53,47.47c4.05,22.95,25.94,38.27,48.89,34.22C235.77,167.28,251.08,145.4,247.03,122.45z
				 M188.68,78.28c-0.73-4.12,2.02-8.05,6.15-8.78c4.12-0.72,8.05,2.02,8.78,6.15s-2.02,8.05-6.15,8.78
				C193.34,85.15,189.41,82.4,188.68,78.28z"/>
			<path fill="#FFEAFD" d="M224.62,144.25c2.22-2.18,3.38-5.38,2.82-8.68l-3.89-23.02c-0.77-4.56-4.61-7.97-9.24-8.2l-0.05,0
				c-8.71-0.43-17.41,1.04-25.49,4.31c-4.29,1.73-6.8,6.22-6.03,10.78l3.9,23.03c0.56,3.3,2.7,5.94,5.51,7.27l0.63,3.7
				c0.39,2.29,2.56,3.83,4.85,3.44l0.04-0.01c2.29-0.39,3.83-2.56,3.44-4.85l-0.33-1.96l15.82-2.67l0.33,1.96
				c0.39,2.29,2.56,3.83,4.85,3.44l0.04-0.01c2.29-0.39,3.83-2.56,3.44-4.85L224.62,144.25z M197.06,145
				c-2.3,0.39-4.48-1.16-4.87-3.46c-0.39-2.3,1.16-4.48,3.46-4.87c2.3-0.39,4.48,1.16,4.87,3.46
				C200.91,142.43,199.36,144.61,197.06,145z M189.56,132.49l-2.33-13.78l32.16-5.44l2.33,13.78L189.56,132.49z M218.43,141.39
				c-2.3,0.39-4.48-1.16-4.87-3.46c-0.39-2.3,1.16-4.48,3.46-4.87c2.3-0.39,4.48,1.16,4.87,3.46
				C222.28,138.82,220.73,141,218.43,141.39z"/>
		</g>
	</g>
	<g id="Fingers">
		<g>
			<path fill="#E2986F" d="M104.31,40.96c8.03-0.67,14.55,2.53,18.43,14.11c3.88,11.58,5.96,29.84,17.72,26.49
				c11.76-3.35-1.89-36.27-1.89-36.27s-13.89-13.74-15.09-13.59c-1.19,0.15-10.75,0.29-11.65,0c-0.89-0.3-3.4-0.15-4.69,0.89
				C105.86,33.63,104.31,40.96,104.31,40.96z"/>
			<path fill="#EDA87A" d="M106.24,37.07c3.49-2.06,22.09-0.8,27.57,16.81s26.1-8.68,26.1-8.68l-15.79-12.72l-23.91-9.22
				c0,0-15.1,5.69-14.71,6.35C105.89,30.27,106.24,37.07,106.24,37.07z"/>
			<path fill="#FFC8A0" d="M125.26,28.42c14.48,5.53,35.39,16.9,35.39,16.9l14.23-14.3c0,0-20.83-12.38-27.01-16.14
				c-8.33-5.07-23.7-13-44.12-6.29"/>
			<path fill="#FDC69F" d="M178.48,47.19c0,0-5.37,4.94-5.41,5c5.27,0.79,10.1-0.62,12.83-4.62c1.93-2.83,1.74-5.65,0.6-7.54
				C184.02,41.87,181.17,44.34,178.48,47.19z"/>
		</g>
	</g>
	<g id="Pin_00000141415341770315460200000014025932637031398328_">
		<g>
			<path fill="#FF4365" d="M201.75,97.1c2.01-8.49,0.59-17.42-4-24.86l0,0c-3.47-5.51-8.41-9.9-14.35-12.63
				c-5.94-2.72-12.5-3.59-18.95-2.56l0,0c-7.66,1.23-14.59,5.15-19.65,11.01c-3.56,4.05-6.26,8.84-7.79,13.99
				c-2.33,7.95-1.99,16.27-2.53,25.9l0,0c-0.22,3.11-0.51,6.29-0.95,9.66c-1.67,12.14-7.15,15.64-3.88,18.46
				c3.27,2.82,5.89-3.08,17.69-6.56c19.51-5.82,34.29-3.38,47.34-18.52C198.14,106.99,200.56,102.23,201.75,97.1L201.75,97.1z
				 M166.33,101.63c-1.77-0.49-3.4-1.38-4.78-2.56c-1.82-1.57-3.15-3.62-3.84-5.9c-0.69-2.28-0.7-4.74-0.07-7.05
				c0.63-2.3,1.97-4.38,3.73-5.97c1.76-1.59,4.01-2.63,6.34-3.01l0,0c1.82-0.31,3.67-0.2,5.44,0.29c1.77,0.49,3.4,1.38,4.81,2.6
				c1.82,1.57,3.15,3.62,3.84,5.9c0.69,2.28,0.7,4.74,0.07,7.05c-0.63,2.3-1.97,4.38-3.73,5.97s-4.01,2.63-6.34,3.01l0.14-0.01
				l-0.38,0.06c-1.76,0.24-3.5,0.16-5.2-0.34L166.33,101.63z"/>
			<circle fill="#FFFFFF" cx="169.76" cy="89.55" r="12.6"/>
		</g>
	</g>
	<g id="Carabiner">
		<g>
			<path fill="#C5C5C5" d="M172.11,89.19c-4.97,0-9.96-1.02-14.68-3.07l0,0c-5.5-2.39-9.46-7.34-10.57-13.23
				c-1.12-5.89,0.75-11.94,4.99-16.19l30.23-30.23c5.29-5.29,12.32-8.2,19.8-8.2c7.48,0,14.51,2.91,19.8,8.2
				c6.32,6.32,9.2,15.02,7.91,23.86c-1.29,8.84-6.55,16.35-14.41,20.59l-25.63,13.83C184.09,87.7,178.11,89.19,172.11,89.19z
				 M201.88,28.82c-4.66,0-9.04,1.81-12.34,5.11l-30.23,30.23c-1.8,1.8-2.55,4.26-2.08,6.75c0.48,2.49,2.08,4.51,4.41,5.52l0,0
				c7.43,3.23,15.77,2.88,22.9-0.97l25.63-13.83c4.9-2.64,8.17-7.32,8.98-12.83c0.8-5.51-0.99-10.93-4.93-14.87
				C210.93,30.64,206.54,28.82,201.88,28.82z"/>
		</g>
		<path fill="#474747" d="M158.25,63.1l-5.33-5.33c-1.62-1.62-1.62-4.25,0-5.87l24.36-24.36c1.62-1.62,4.25-1.62,5.87,0l5.33,5.33
			c1.62,1.62,1.62,4.25,0,5.87L164.11,63.1C162.49,64.72,159.87,64.72,158.25,63.1z"/>
	</g>
	<g id="Hand_00000001662925375587596590000010110041766101306302_">
		<g>
			<path fill="#FFC8A0" d="M160.84,40.52c-2.34,0.13-4.55,0.6-6.48,1.66c-9.56,5.16-19.83,8.82-30.45,10.91
				c-1.66,0.28-2.48,0.39-3.76,0.41c-7.24,0.11-13.48-5.67-13.57-12.91c-0.09-7.3,5.8-13.21,13.08-13.25
				c1.69-0.01,4.73,0.76,5.59,1.09L103.75,8.59C83.93,15.11,70.01,36.05,51.77,65.6l3.72,35.26l25.17,10.96l17.94-7.01
				c7.03-2.79,10.44-4.44,18.8-16.28c0.03-0.05,0.07-0.1,0.1-0.15c4.87-6.85,11.61-12.15,19.38-15.37c7.56-3.13,14.5-5.37,18.9-6.43
				c8.78-2.11,16.38-5.99,17.33-12.88C174.43,44.1,167.44,40.16,160.84,40.52z"/>
			<path fill="#FFFF00" d="M170.99,45.89c-1.11-4.3-6.46-6.67-12.87-5.01c-6.41,1.66-10.07,5.9-8.95,10.2
				c1.11,4.3,5.82,7.27,12.23,5.61C167.81,55.02,172.11,50.19,170.99,45.89z"/>
			<g>
				<path fill="#34A853" d="M104.91,106.17c-0.23-0.46-0.51-0.92-0.87-1.38c-1.64-2.12-4.54-3.21-7.76-3.71
					c-0.6-0.09-1.2-0.17-1.81-0.23c-4.44-0.42-9.11,0.05-11.62,0.27c0.75-2.29,1.34-4.53,1.66-6.68c0.15-1,0.23-1.98,0.24-2.94
					c0.03-2.57-0.46-4.98-1.74-7.15c-0.75-1.26-1.75-2.44-3.07-3.52c-0.4-0.33-0.8-0.62-1.21-0.89c-0.63-0.41-1.26-0.76-1.9-1.04
					c-1.79-0.79-3.63-1.1-5.5-1.03c-1.04,0.04-2.09,0.19-3.15,0.44c-1.53,0.36-3.09,0.92-4.66,1.63c-0.72,0.33-1.45,0.68-2.18,1.06
					c-0.62,0.32-1.24,0.66-1.86,1.01c-0.02-0.18-0.04-0.38-0.07-0.58c-0.05-0.45-0.11-0.95-0.17-1.49
					c-0.04-0.33-0.08-0.68-0.13-1.04c-0.45-3.46-1.26-8.09-2.96-11.73c-0.83-1.76-1.86-3.28-3.17-4.34
					c-0.41-0.33-0.85-0.62-1.31-0.85c-4.04-1.98-7.31-0.12-9.96,3.46c-0.91,1.22-1.74,2.65-2.5,4.19c-1.4,2.83-2.58,6.05-3.57,9.15
					c-0.12,0.39-0.25,0.78-0.36,1.17c-0.11,0.35-0.22,0.7-0.32,1.04c-0.57,1.89-1.06,3.68-1.49,5.24c-0.66,2.38-0.79,4.5-0.55,6.37
					c0.08,0.65,0.21,1.27,0.38,1.86c1.1,3.82,3.86,6.38,6.66,7.85c0.72,0.38,1.44,0.68,2.14,0.92c0.28,0.07,0.57,0.14,0.85,0.22
					c2.38,0.65,4.66,1.6,6.81,2.74c0.18,0.1,0.36,0.19,0.54,0.29c2.19,1.21,4.25,2.65,6.15,4.27c1.53,1.3,2.97,2.72,4.27,4.26
					c1.23,1.45,2.37,3,3.36,4.64c0.53,0.89,1.02,1.8,1.46,2.74c0.11,0.19,0.23,0.37,0.35,0.57c0.36,0.57,0.78,1.13,1.26,1.69
					c0.32,0.37,0.67,0.74,1.04,1.09c0.22,0.2,0.44,0.41,0.68,0.6c3.4,2.84,8.55,4.44,15.05,1.14c2.47-1.26,5.55-2.82,8.62-4.61
					c1.72-1,3.42-2.08,5.01-3.21c4.54-3.23,8.1-6.92,8.06-10.73C105.58,108,105.36,107.08,104.91,106.17z"/>
			</g>
		</g>
	</g>
	<g id="Overlaps">
		<g>
			<path fill="#FC8BF1" d="M195.69,69.4c3.8-0.24,7.25,2.41,7.92,6.25c0.13,0.75,0.15,1.48,0.06,2.2l5.6,0.61
				c0.14-1.23,0.11-2.51-0.12-3.79c-1.02-5.75-5.61-9.96-11.08-10.77L195.69,69.4z"/>
			<path fill="#E7FC00" d="M213.29,52.67l0.46,6.28c0,0,1.1-0.8,1.74-1.1c3.79-1.77,8.32-0.12,10.09,3.67
				c0.16,0.34,0.29,0.69,0.4,1.04l4.63-3.57C227.5,52.55,219.81,49.74,213.29,52.67z"/>
			<path fill="#FFD4F8" d="M208.01,35l6.13,5.05c0.92-5.15,5.42-9.06,10.84-9.06c0.72,0,1.42,0.07,2.1,0.2l-3.59-7.47
				C216.48,24.28,210.58,28.77,208.01,35z"/>
			<path fill="#FF4365" d="M202.6,91.08c0.32-6.57-1.34-13.14-4.85-18.84c-3.07-4.88-7.29-8.87-12.33-11.62l-17.7,16.52
				c1.82-0.31,3.67-0.2,5.44,0.29c1.77,0.49,3.4,1.38,4.81,2.6c1.82,1.57,3.15,3.62,3.84,5.9c0.5,1.66,0.64,3.42,0.44,5.15
				L202.6,91.08L202.6,91.08L202.6,91.08z"/>
		</g>
	</g>
</g>
</svg>
