<svg width="2811" height="512" fill="none" xmlns="http://www.w3.org/2000/svg"><g clip-path="url(#clip0)"><path d="M1724.92 389.45v-350h45l121.68 213.13h2l121.68-213.13h45v350h-45V181.7l2-58.66h-2l-109.5 192.11h-26.4L1769.89 123h-2l2 58.66v207.79h-44.97zM2191.78 397.27c-25.42 0-46.68-7.333-63.79-22s-25.66-34.057-25.66-58.17c0-26.06 10.1-46.507 30.3-61.34 20.2-14.833 45.13-22.247 74.79-22.24 26.4 0 48.07 4.887 65 14.66v-6.84c0-17.6-6.03-31.697-18.09-42.29-12.06-10.593-26.89-15.887-44.48-15.88-12.43-.157-24.68 3.05-35.44 9.28-10.6 6.2-17.85 14.673-21.75 25.42l-41.06-17.6c5.53-14.333 16.45-27.61 32.75-39.83 16.3-12.22 37.81-18.33 64.52-18.33 30.63 0 56.05 8.96 76.26 26.88 20.21 17.92 30.31 43.177 30.3 75.77v144.69h-43v-33.24h-2c-17.89 27.373-44.1 41.06-78.65 41.06zm7.33-41.06c18.58 0 35.45-6.927 50.6-20.78 15.15-13.853 22.73-30.227 22.73-49.12-12.71-10.433-31.78-15.647-57.19-15.64-21.84 0-38.3 4.723-49.38 14.17-11.08 9.447-16.62 20.527-16.62 33.24 0 11.733 5.05 21.02 15.16 27.86s21.67 10.263 34.7 10.27zM2484 397.27c-18.26 0-34.64-3.91-49.13-11.73-14.49-7.82-25.33-17.597-32.51-29.33h-2l2 33.24V495h-45V149.93h43v33.24h2c7.17-11.727 18.01-21.503 32.51-29.33 14.5-7.827 30.88-11.737 49.13-11.73 30.95 0 57.67 12.22 80.16 36.66 22.49 24.44 33.74 54.747 33.73 90.92 0 36.173-11.24 66.48-33.73 90.92-22.49 24.44-49.21 36.66-80.16 36.66zm-7.34-41.06c20.85 0 38.78-7.903 53.77-23.71 14.99-15.807 22.49-36.743 22.49-62.81s-7.5-47.007-22.49-62.82c-14.99-15.813-32.92-23.713-53.77-23.7-21.18 0-39.18 7.82-54 23.46s-22.23 36.66-22.24 63.06c0 26.387 7.41 47.407 22.24 63.06 14.83 15.653 32.83 23.473 54 23.46zM2716.42 397.27c-26.72 0-48.8-6.517-66.23-19.55-17.01-12.488-30.28-29.396-38.37-48.89l40.08-16.61c12.71 30 34.38 45 65 45 14 0 25.49-3.097 34.47-9.29s13.46-14.34 13.44-24.44c0-15.64-10.92-26.23-32.75-31.77L2683.67 280c-15.33-3.907-29.83-11.32-43.5-22.24-13.67-10.92-20.51-25.667-20.53-44.24 0-21.18 9.37-38.37 28.11-51.57 18.74-13.2 40.98-19.797 66.72-19.79 21.18 0 40.08 4.807 56.7 14.42 16.3 9.241 28.91 23.831 35.69 41.3L2767.75 214c-8.8-21.18-27.05-31.77-54.75-31.77-13.33 0-24.57 2.77-33.72 8.31-9.15 5.54-13.71 13.027-13.69 22.46 0 13.687 10.59 22.977 31.77 27.87l47.42 11.24c22.48 5.22 39.1 14.183 49.86 26.89 10.76 12.707 16.14 27.04 16.13 43 0 21.507-8.8 39.43-26.4 53.77-17.6 14.34-40.25 21.507-67.95 21.5z" fill="#5F6368"/><path d="M202.4 235.58v-54.26H384c2.02 10.973 3.005 22.112 2.94 33.27 0 40.68-11.14 91.06-47 126.9-34.86 36.33-79.42 55.71-138.5 55.71C92 397.2 0 308.07 0 198.6S92 0 201.45 0C262 0 305.09 23.74 337.53 54.74L299.27 93C276 71.21 244.55 54.25 201.45 54.25c-79.9 0-142.37 64.42-142.37 144.35 0 79.93 62.47 144.4 142.37 144.4 51.82 0 81.36-20.83 100.24-39.72 15.39-15.39 25.53-37.47 29.46-67.65l-128.75-.05z" fill="#4285F4"/><path d="M663.64 269.32C663.64 343 606 397.2 535.32 397.2 464.64 397.2 407 343 407 269.32c0-74.11 57.63-127.88 128.34-127.88 70.71 0 128.3 53.77 128.3 127.88zm-56.17 0c0-46-33.41-77.5-72.15-77.5-38.74 0-72.16 31.48-72.16 77.5 0 45.53 33.41 77.5 72.16 77.5s72.15-31.97 72.15-77.5z" fill="#EA4335"/><path d="M943.589 269.32c0 73.68-57.59 127.88-128.32 127.88-70.73 0-128.33-54.2-128.33-127.88 0-74.11 57.62-127.88 128.33-127.88 70.71 0 128.32 53.77 128.32 127.88zm-56.17 0c0-46-33.41-77.5-72.15-77.5-38.74 0-72.16 31.48-72.16 77.5 0 45.53 33.41 77.5 72.16 77.5s72.15-31.97 72.15-77.5z" fill="#FBBC04"/><path d="M1211.93 149.19v229.6c0 94.46-55.69 133.21-121.55 133.21-62 0-99.28-41.66-113.32-75.56l48.94-20.35c8.71 20.83 30 45.53 64.41 45.53 42.13 0 68.28-26.16 68.28-75.08v-18.4h-1.94c-12.59 15.5-36.8 29.06-67.31 29.06-63.93 0-122.52-55.71-122.52-127.39 0-72.18 58.59-128.37 122.52-128.37 30.51 0 54.72 13.56 67.31 28.58h1.94v-20.83h53.24zm-49.4 120.62c0-45.05-30-78-68.28-78-38.74 0-71.19 32.94-71.19 78 0 44.56 32.45 77 71.19 77 38.26.01 68.28-32.44 68.28-77z" fill="#4285F4"/><path d="M1307.07 14.8201V389.45h-56.17V14.8201h56.17z" fill="#34A853"/><path d="M1524 311.46l43.58 29.07c-14 20.82-47.94 56.67-106.54 56.67-72.64 0-126.88-56.19-126.88-127.88 0-76 54.73-127.88 120.58-127.88 66.35 0 98.79 52.8 109.45 81.38l5.81 14.53-171 70.72c13.08 25.67 33.42 38.75 62 38.75s48.47-14.04 63-35.36zm-134.15-46L1504.14 218c-6.3-16-25.18-27.12-47.46-27.12-28.57-.03-68.28 25.12-66.83 74.57v.01z" fill="#EA4335"/></g><defs><clipPath id="clip0"><path fill="#fff" d="M0 0h2810.77v512H0z"/></clipPath></defs></svg>