<svg width="2811" height="512" viewBox="0 0 2811 512" fill="none" xmlns="http://www.w3.org/2000/svg">
<g clip-path="url(#clip0)">
<path d="M1724.92 389.45V39.45H1769.92L1891.6 252.58H1893.6L2015.28 39.45H2060.28V389.45H2015.28V181.7L2017.28 123.04H2015.28L1905.78 315.15H1879.38L1769.89 123H1767.89L1769.89 181.66V389.45H1724.92Z" fill="white"/>
<path d="M2191.78 397.27C2166.36 397.27 2145.1 389.937 2127.99 375.27C2110.88 360.603 2102.33 341.213 2102.33 317.1C2102.33 291.04 2112.43 270.593 2132.63 255.76C2152.83 240.927 2177.76 233.513 2207.42 233.52C2233.82 233.52 2255.49 238.407 2272.42 248.18V241.34C2272.42 223.74 2266.39 209.643 2254.33 199.05C2242.27 188.457 2227.44 183.163 2209.85 183.17C2197.42 183.013 2185.17 186.22 2174.41 192.45C2163.81 198.65 2156.56 207.123 2152.66 217.87L2111.6 200.27C2117.13 185.937 2128.05 172.66 2144.35 160.44C2160.65 148.22 2182.16 142.11 2208.87 142.11C2239.5 142.11 2264.92 151.07 2285.13 168.99C2305.34 186.91 2315.44 212.167 2315.43 244.76V389.45H2272.43V356.21H2270.43C2252.54 383.583 2226.33 397.27 2191.78 397.27ZM2199.11 356.21C2217.69 356.21 2234.56 349.283 2249.71 335.43C2264.86 321.577 2272.44 305.203 2272.44 286.31C2259.73 275.877 2240.66 270.663 2215.25 270.67C2193.41 270.67 2176.95 275.393 2165.87 284.84C2154.79 294.287 2149.25 305.367 2149.25 318.08C2149.25 329.813 2154.3 339.1 2164.41 345.94C2174.52 352.78 2186.08 356.203 2199.11 356.21Z" fill="white"/>
<path d="M2484 397.27C2465.74 397.27 2449.36 393.36 2434.87 385.54C2420.38 377.72 2409.54 367.943 2402.36 356.21H2400.36L2402.36 389.45V495H2357.36V149.93H2400.36V183.17H2402.36C2409.53 171.443 2420.37 161.667 2434.87 153.84C2449.37 146.013 2465.75 142.103 2484 142.11C2514.95 142.11 2541.67 154.33 2564.16 178.77C2586.65 203.21 2597.9 233.517 2597.89 269.69C2597.89 305.863 2586.65 336.17 2564.16 360.61C2541.67 385.05 2514.95 397.27 2484 397.27ZM2476.66 356.21C2497.51 356.21 2515.44 348.307 2530.43 332.5C2545.42 316.693 2552.92 295.757 2552.92 269.69C2552.92 243.623 2545.42 222.683 2530.43 206.87C2515.44 191.057 2497.51 183.157 2476.66 183.17C2455.48 183.17 2437.48 190.99 2422.66 206.63C2407.84 222.27 2400.43 243.29 2400.42 269.69C2400.42 296.077 2407.83 317.097 2422.66 332.75C2437.49 348.403 2455.49 356.223 2476.66 356.21Z" fill="white"/>
<path d="M2716.42 397.27C2689.7 397.27 2667.62 390.753 2650.19 377.72C2633.18 365.232 2619.91 348.324 2611.82 328.83L2651.9 312.22C2664.61 342.22 2686.28 357.22 2716.9 357.22C2730.9 357.22 2742.39 354.123 2751.37 347.93C2760.35 341.737 2764.83 333.59 2764.81 323.49C2764.81 307.85 2753.89 297.26 2732.06 291.72L2683.67 280C2668.34 276.093 2653.84 268.68 2640.17 257.76C2626.5 246.84 2619.66 232.093 2619.64 213.52C2619.64 192.34 2629.01 175.15 2647.75 161.95C2666.49 148.75 2688.73 142.153 2714.47 142.16C2735.65 142.16 2754.55 146.967 2771.17 156.58C2787.47 165.821 2800.08 180.411 2806.86 197.88L2767.75 214C2758.95 192.82 2740.7 182.23 2713 182.23C2699.67 182.23 2688.43 185 2679.28 190.54C2670.13 196.08 2665.57 203.567 2665.59 213C2665.59 226.687 2676.18 235.977 2697.36 240.87L2744.78 252.11C2767.26 257.33 2783.88 266.293 2794.64 279C2805.4 291.707 2810.78 306.04 2810.77 322C2810.77 343.507 2801.97 361.43 2784.37 375.77C2766.77 390.11 2744.12 397.277 2716.42 397.27Z" fill="white"/>
<path d="M202.4 235.58V181.32H384C386.02 192.293 387.005 203.432 386.94 214.59C386.94 255.27 375.8 305.65 339.94 341.49C305.08 377.82 260.52 397.2 201.44 397.2C92 397.2 0 308.07 0 198.6C0 89.13 92 0 201.45 0C262 0 305.09 23.74 337.53 54.74L299.27 93C276 71.21 244.55 54.25 201.45 54.25C121.55 54.25 59.08 118.67 59.08 198.6C59.08 278.53 121.55 343 201.45 343C253.27 343 282.81 322.17 301.69 303.28C317.08 287.89 327.22 265.81 331.15 235.63L202.4 235.58Z" fill="white"/>
<path d="M663.64 269.32C663.64 343 606 397.2 535.32 397.2C464.64 397.2 407 343 407 269.32C407 195.21 464.63 141.44 535.34 141.44C606.05 141.44 663.64 195.21 663.64 269.32ZM607.47 269.32C607.47 223.32 574.06 191.82 535.32 191.82C496.58 191.82 463.16 223.3 463.16 269.32C463.16 314.85 496.57 346.82 535.32 346.82C574.07 346.82 607.47 314.85 607.47 269.32Z" fill="white"/>
<path d="M943.59 269.32C943.59 343 886 397.2 815.27 397.2C744.54 397.2 686.94 343 686.94 269.32C686.94 195.21 744.56 141.44 815.27 141.44C885.98 141.44 943.59 195.21 943.59 269.32ZM887.42 269.32C887.42 223.32 854.01 191.82 815.27 191.82C776.53 191.82 743.11 223.3 743.11 269.32C743.11 314.85 776.52 346.82 815.27 346.82C854.02 346.82 887.42 314.85 887.42 269.32V269.32Z" fill="white"/>
<path d="M1211.93 149.19V378.79C1211.93 473.25 1156.24 512 1090.38 512C1028.38 512 991.1 470.34 977.06 436.44L1026 416.09C1034.71 436.92 1056 461.62 1090.41 461.62C1132.54 461.62 1158.69 435.46 1158.69 386.54V368.14H1156.75C1144.16 383.64 1119.95 397.2 1089.44 397.2C1025.51 397.2 966.92 341.49 966.92 269.81C966.92 197.63 1025.51 141.44 1089.44 141.44C1119.95 141.44 1144.16 155 1156.75 170.02H1158.69V149.19H1211.93ZM1162.53 269.81C1162.53 224.76 1132.53 191.81 1094.25 191.81C1055.51 191.81 1023.06 224.75 1023.06 269.81C1023.06 314.37 1055.51 346.81 1094.25 346.81C1132.51 346.82 1162.53 314.37 1162.53 269.81Z" fill="white"/>
<path d="M1307.07 14.8199V389.45H1250.9V14.8199H1307.07Z" fill="white"/>
<path d="M1524 311.46L1567.58 340.53C1553.58 361.35 1519.64 397.2 1461.04 397.2C1388.4 397.2 1334.16 341.01 1334.16 269.32C1334.16 193.32 1388.89 141.44 1454.74 141.44C1521.09 141.44 1553.53 194.24 1564.19 222.82L1570 237.35L1399 308.07C1412.08 333.74 1432.42 346.82 1461 346.82C1489.58 346.82 1509.47 332.78 1524 311.46ZM1389.85 265.46L1504.14 218C1497.84 202 1478.96 190.88 1456.68 190.88C1428.11 190.85 1388.4 216 1389.85 265.45V265.46Z" fill="white"/>
</g>
<defs>
<clipPath id="clip0">
<rect width="2810.77" height="512" fill="white"/>
</clipPath>
</defs>
</svg>
