<svg width="40" height="16" viewBox="0 0 40 16" xmlns="http://www.w3.org/2000/svg"><title>Google Pay Logo/G-Pay</title><g fill-rule="nonzero" fill="none"><path d="M12.6868 6.8986A7.46917 7.46917 0 0 0 12.57357 5.6H6.4717v2.45581h3.49434c-.1424.79337-.60721 1.49498-1.2868 1.94233v1.59628h2.0868c1.28447-1.2273 1.98226-2.93323 1.92075-4.69582z" fill="#4285F4"/><path d="M6.4717 13.13488c1.57698.04418 3.1116-.5068 4.29056-1.54046L8.67925 9.99814c-1.018.6448-2.28073.79056-3.42224.395-1.1415-.39555-2.03416-1.28817-2.41927-2.41919H.69057V9.6186c1.09825 2.15521 3.33501 3.51569 5.78113 3.51628z" fill="#34A853"/><path d="M2.83774 7.97395a3.77822 3.77822 0 0 1 0-2.44093V3.88837H.69057c-.91922 1.80255-.91922 3.92769 0 5.73023l2.14717-1.64465z" fill="#FABB05"/><path d="M6.4717 2.8986c.92286-.01486 1.81467.3286 2.48302.95628L10.8 2.03535C9.6295.95012 8.07826.35402 6.4717.37209 4.02558.3727 1.78882 1.73316.69057 3.88837l2.14717 1.64465C3.3517 3.978 4.81314 2.91853 6.4717 2.8986z" fill="#E94335"/><path d="M19.24528 7.86605v4.50232h-1.45283V1.25023h3.84151c.92883-.0138 1.82453.34002 2.4868.98233.6724.59738 1.05066 1.45183 1.03773 2.34418.01933.89792-.35965 1.75945-1.03774 2.35907-.66756.63044-1.56274.972-2.48679.94884l-2.38868-.0186zm0-5.2614v3.89582h2.42642c.53849.01659 1.05912-.19146 1.43396-.57303.3721-.3566.58203-.84649.58203-1.35814 0-.51165-.20994-1.00153-.58203-1.35814-.3686-.3987-.89455-.61999-1.4415-.6065h-2.41888zM28.50189 4.51349c.92406-.05106 1.83246.25152 2.53585.84465.63599.60477.97465 1.45184.9283 2.32186v4.68837h-1.4v-1.05302h-.06415c-.5082.8208-1.41723 1.31704-2.39246 1.30605-.78017.02426-1.54112-.24135-2.13207-.7442-.55455-.46172-.8691-1.14489-.8566-1.86046-.01926-.7277.31779-1.4201.90566-1.86046.70272-.5036 1.5587-.75562 2.42641-.71442.7322-.0296 1.45984.12671 2.1132.45395v-.32744c.00321-.48923-.21716-.95389-.6-1.26511-.38357-.34115-.88348-.52716-1.4-.52093-.77492-.01777-1.50307.3645-1.92075 1.00837l-1.27547-.79256c.71082-.99866 1.89716-1.561 3.13208-1.48465zm-1.87547 5.53302c-.00222.36825.17633.71482.47924.93023.32214.2498.72236.38134 1.13208.3721.61138-.0005 1.19762-.24001 1.63018-.66605.4506-.40183.7048-.97492.69812-1.57395-.55036-.3812-1.2154-.56744-1.8868-.52837-.5235-.0184-1.03925.12894-1.4717.42046-.36115.22866-.57998.62238-.58112 1.04558zM39.91698 4.75907l-4.82264 10.96558h-1.50943l1.79622-3.81767L32.2 4.75907h1.57358l2.3019 5.46605h.03018l2.23774-5.46605z" fill="#E8EAED"/></g></svg>
