<?xml version="1.0" encoding="utf-8"?>
<!-- Generator: Adobe Illustrator 30.0.0, SVG Export Plug-In . SVG Version: 9.03 Build 0)  -->
<svg version="1.1" baseProfile="basic" id="Layer_1"
	 xmlns="http://www.w3.org/2000/svg" xmlns:xlink="http://www.w3.org/1999/xlink" x="0px" y="0px" width="112px" height="94px"
	 viewBox="0 0 112 94" xml:space="preserve">
<g>
	<g id="Clouds_00000006690783770292103650000006058101338188095672_">
		<path fill="#BCE9FF" d="M82.18,23.6c0.65-0.27,1.11-0.86,1.27-1.55c0.6-2.61,2.93-4.55,5.72-4.55c2.61,0,4.83,1.71,5.59,4.07
			c0.45,1.29,1.85,1.99,3.16,1.56l0,0c0.4-0.13,0.83-0.19,1.28-0.15c1.56,0.14,2.79,1.44,2.85,3.01c0.07,1.79-1.36,3.26-3.14,3.26
			c-0.04,0-0.08,0-0.12,0c0,0-15.54,0-15.61,0c-1.56-0.07-2.8-1.36-2.81-2.92C80.36,25.1,81.11,24.04,82.18,23.6L82.18,23.6z"/>
		<path fill="#BCE9FF" d="M41.31,25.81c-3.66,0-6.66,2.79-6.99,6.36c-0.18,1.84-2.35,2.71-3.75,1.51l0,0
			c-0.61-0.53-1.41-0.84-2.29-0.84c-1.94,0-3.51,1.57-3.51,3.51c0,1.94,1.57,3.51,3.51,3.51h13.03c3.88,0,7.03-3.15,7.03-7.03
			S45.19,25.81,41.31,25.81L41.31,25.81z"/>
	</g>
	<g id="Papers">
		<polygon fill="#64BEFF" points="36.08,60.81 23.74,73.15 3.5,68.22 21.02,57.87 		"/>
		<polygon fill="#4667F4" points="29.52,61.78 19.09,59.79 19.87,59.34 30.17,61.32 		"/>
		<g>
			<path fill="#BCE9FF" d="M19.72,41.43c-2.65,5.61-3.93,7.89-8.78,10.57l4.13,2.79c0.2,1.78,1.23,3.92,3.03,4.79
				c2.68,2.12,7.77,2.02,13.85-9.84C26.07,45.7,19.83,41.5,19.72,41.43L19.72,41.43z"/>
			<path fill="#64BEFF" d="M17.81,59.31c-1.12-1.05-1.77-2.63-1.92-4l-2.46-1.66l0,0l-2.99-2.02L3.5,46.96
				c0.19,1.71,1.16,3.74,2.83,4.66l11.71,7.89L17.81,59.31L17.81,59.31z"/>
		</g>
		<g>
			<polygon fill="#4667F4" points="28.98,51.11 19.78,44.9 20.07,44.36 29.29,50.58 			"/>
			<polygon fill="#4667F4" points="25.43,51.03 18.85,46.66 19.19,46.15 25.8,50.54 			"/>
			<polygon fill="#4667F4" points="17.79,52.01 15.37,50.43 15.79,49.98 18.22,51.56 			"/>
			<path fill="#4667F4" d="M25.24,56.57l-0.26-0.16c-2.11-1.25-4.17-2.5-6.11-3.72l-0.36-0.23l0.43-0.45l0.26,0.16
				c1.94,1.22,3.99,2.47,6.09,3.71l0.39,0.23L25.24,56.57L25.24,56.57z"/>
		</g>
		<polygon fill="#4667F4" points="25.47,62.77 17.92,61.33 18.71,60.88 26.11,62.31 		"/>
		<path fill="#4667F4" d="M22.51,63.44l-5.94-1.14l-0.79,0.45l6.06,1.16C22.06,63.75,22.3,63.59,22.51,63.44L22.51,63.44z"/>
		<polygon fill="#4667F4" points="24.84,63.88 24.16,64.34 26.22,64.74 26.87,64.27 		"/>
	</g>
	<g id="Coffee_Cup">
		<path fill="#FE5B1E" d="M107.23,54.08l-1.48,13.79c0,1.43-2.7,2.58-6.03,2.58s-6.03-1.15-6.03-2.58l-1.48-13.79h0.02
			c-0.01-0.07-0.02-0.14-0.02-0.21c0-1.77,3.36-3.21,7.51-3.21s7.51,1.44,7.51,3.21c0,0.07-0.01,0.14-0.02,0.21H107.23L107.23,54.08
			z"/>
		<path fill="#DEF5FF" d="M99.73,58.42c-3.95,0-7.17-1.33-7.37-3l0.84,8.13c0,0,0,0,0,0.01v0l0,0c0.18,1.47,3.03,2.65,6.52,2.65
			c3.49,0,6.34-1.17,6.52-2.65h0.01l0.85-8.13C106.89,57.09,103.67,58.42,99.73,58.42L99.73,58.42z"/>
		<path fill="#003936" d="M99.73,54.72c-4.85,0-8.77-1.68-8.77-3.76v1.02c0,2.07,3.93,3.76,8.77,3.76c4.85,0,8.77-1.68,8.77-3.76
			v-1.02C108.5,53.04,104.57,54.72,99.73,54.72z"/>
		<ellipse fill="#0D6545" cx="99.73" cy="50.96" rx="8.77" ry="3.76"/>
		<path fill="#013936" d="M99.73,52.95c-4.35,0-7.88-1.51-7.88-3.37v0.85h0c0.09,1.83,3.58,3.3,7.87,3.3c4.29,0,7.78-1.47,7.87-3.3
			h0v-0.85C107.6,51.44,104.08,52.95,99.73,52.95z"/>
		<ellipse fill="#0D6545" cx="99.73" cy="49.58" rx="7.88" ry="3.37"/>
		<path fill="#1F8A52" d="M99.73,47.51c-3.11,0-5.68,0.89-6.02,2.04c0.34,1.15,2.9,2.04,6.02,2.04s5.68-0.89,6.02-2.04
			C105.41,48.4,102.84,47.51,99.73,47.51z"/>
		<path fill="#013936" d="M99.73,47.51c3.11,0,5.68,0.89,6.02,2.04c0.02-0.09,0.04-0.17,0.04-0.26c0-1.27-2.71-2.3-6.06-2.3
			s-6.06,1.03-6.06,2.3c0,0.09,0.01,0.17,0.04,0.26C94.05,48.4,96.61,47.51,99.73,47.51z"/>
		<path d="M99.71,51.91c-0.36,0-1.15,0-1.15,0.25c0,0.13,0.13,0.25,0.23,0.31c0.16,0.09,0.3,0.17,0.85,0.17c0.02,0,0.05,0,0.07,0
			c0.02,0,0.04,0,0.07,0c0.54,0,0.68-0.08,0.85-0.17c0.1-0.06,0.23-0.18,0.23-0.31C100.86,51.94,100.07,51.91,99.71,51.91z"/>
	</g>
	<g id="Computer">
		<path fill="#64BEFF" d="M91.05,71.04c-0.92-1.62-10.28-13-10.28-13H42.59c0,0-9.45,11.38-10.37,13c-0.71,1.24-0.08,3.02,3.15,3.02
			H87.9C91.13,74.06,91.76,72.27,91.05,71.04L91.05,71.04z"/>
		<path fill="#9CDAFF" d="M78.54,32.79H44.82c-1.23,0-2.23,1-2.23,2.23v23.02h38.18V35.02C80.77,33.79,79.77,32.79,78.54,32.79z"/>
		<path fill="#9CDAFF" d="M91.31,72.04c-0.03,1.02-0.99,2.02-3.41,2.02H35.37c-2.42,0-3.37-1-3.41-2.02h0v2.55h0
			c-0.01,1.05,0.93,2.1,3.41,2.1H87.9c2.48,0,3.42-1.05,3.41-2.1h0L91.31,72.04L91.31,72.04z"/>
		<path d="M78.17,33.82H45.2c-0.86,0-1.56,0.7-1.56,1.56v21.47h36.09V35.38C79.73,34.52,79.03,33.82,78.17,33.82L78.17,33.82z"/>
		<path fill="#1F8A52" d="M82.36,64.79c-0.79-1.1-1.83-2.56-2.71-3.89c-0.84-1.29-1.63-1.5-2.86-1.5H46.57
			c-1.23,0-2.02,0.21-2.86,1.5c-0.88,1.34-1.92,2.8-2.71,3.89c-0.57,0.8-1.36,2.38,1.78,2.38h37.79
			C83.72,67.17,82.94,65.59,82.36,64.79L82.36,64.79z"/>
		<path fill="#FFFFFF" d="M68.35,71.49c-0.11-0.66-0.19-1.28-0.39-2.24c-0.19-0.9-1.18-0.75-1.69-0.75H57.1
			c-0.52,0-1.51-0.14-1.69,0.75c-0.2,0.96-0.28,1.57-0.39,2.24c-0.09,0.54-0.46,1.4,0.92,1.4h11.51
			C68.81,72.9,68.44,72.03,68.35,71.49L68.35,71.49z"/>
		<path fill="#330632" d="M77.87,64.16h4.04c-0.03-0.04-0.05-0.08-0.08-0.11H77.8l-1.33-2.41h3.67c-0.03-0.04-0.05-0.08-0.08-0.11
			h-3.66l-1.17-2.13h-0.13l1.17,2.13h-3.56l-0.88-2.13h-0.12l0.88,2.13h-3.56l-0.59-2.13h-0.12l0.59,2.13h-3.48l-0.3-2.13h-0.11
			l0.3,2.13h-3.6V59.4h-0.11v2.13h-3.59l0.3-2.13H58.2l-0.3,2.13h-3.48l0.59-2.13H54.9l-0.59,2.13h-3.56l0.88-2.13h-0.12l-0.88,2.13
			h-3.56l1.17-2.13h-0.13l-1.17,2.13h-3.65c-0.02,0.04-0.05,0.08-0.08,0.11h3.66l-1.33,2.41h-4.01c-0.03,0.04-0.05,0.08-0.08,0.11
			h4.03l-1.66,3.01h0.13l1.66-3.01h3.92l-1.24,3.01h0.12l1.24-3.01h3.93l-0.83,3.01h0.12l0.83-3.01h3.83l-0.42,3.01h0.11l0.42-3.01
			h3.96v3.01h0.11v-3.01h3.97l0.42,3.01h0.11l-0.42-3.01h3.83l0.83,3.01h0.12l-0.83-3.01h3.93l1.24,3.01h0.12l-1.24-3.01h3.92
			l1.66,3.01h0.13L77.87,64.16L77.87,64.16z M49.58,64.05h-3.91l1.33-2.41h3.57L49.58,64.05L49.58,64.05z M53.62,64.05h-3.91l1-2.41
			h3.58L53.62,64.05L53.62,64.05z M57.56,64.05h-3.82l0.66-2.41h3.49L57.56,64.05z M61.62,64.05h-3.95l0.34-2.41h3.61V64.05z
			 M61.73,64.05v-2.41h3.62l0.34,2.41H61.73L61.73,64.05z M65.8,64.05l-0.34-2.41h3.49l0.66,2.41H65.8z M69.73,64.05l-0.66-2.41
			h3.58l1,2.41H69.73L69.73,64.05z M73.77,64.05l-1-2.41h3.57l1.33,2.41H73.77z"/>
	</g>
	<g id="Pin_00000085234741684114402350000005747467681451622016_">
		<g>
			<path fill="#FF4365" d="M75.05,25.44c-1.84-3.55-5.01-6.22-8.83-7.44l0,0c-2.85-0.88-5.89-0.92-8.76-0.09
				c-2.88,0.83-5.41,2.49-7.35,4.79l0,0c-2.29,2.72-3.53,6.16-3.53,9.71c-0.02,2.47,0.47,4.94,1.48,7.19
				c1.57,3.46,4.18,6.25,6.88,9.75l0,0c0.85,1.15,1.71,2.34,2.56,3.64c3.06,4.72,2.2,7.57,4.18,7.57c1.98,0,1.12-2.83,4.18-7.57
				c5.03-7.86,10.9-11.44,10.9-20.61C76.76,29.96,76.18,27.58,75.05,25.44L75.05,25.44L75.05,25.44z M64.11,37.62
				c-0.76,0.36-1.59,0.54-2.43,0.54c-1.1,0-2.18-0.31-3.1-0.9c-0.92-0.58-1.66-1.44-2.13-2.43c-0.47-0.99-0.63-2.11-0.49-3.19
				c0.14-1.08,0.61-2.11,1.3-2.94l0,0c0.54-0.65,1.21-1.17,1.98-1.53c0.76-0.36,1.59-0.54,2.45-0.54c1.1,0,2.18,0.31,3.1,0.9
				c0.92,0.58,1.66,1.44,2.13,2.43c0.47,0.99,0.63,2.11,0.49,3.19c-0.14,1.08-0.61,2.11-1.3,2.94l0.05-0.05l-0.11,0.14
				c-0.54,0.61-1.17,1.1-1.91,1.44H64.11L64.11,37.62z"/>
			<circle fill="#FFFFFF" cx="61.68" cy="32.39" r="5.78"/>
		</g>
	</g>
</g>
</svg>
