<?xml version="1.0" encoding="utf-8"?>
<!-- Generator: Adobe Illustrator 30.0.0, SVG Export Plug-In . SVG Version: 9.03 Build 0)  -->
<svg version="1.1" baseProfile="basic" id="Layer_1"
	 xmlns="http://www.w3.org/2000/svg" xmlns:xlink="http://www.w3.org/1999/xlink" x="0px" y="0px" width="112px" height="94px"
	 viewBox="0 0 112 94" xml:space="preserve">
<g>
	<g id="Environment">
		<path fill="#CCE7B9" d="M108.36,76.18c-0.36-0.47-0.86-0.85-2.22-1.95l-11.88-9.56c-1.08-0.97-2.65-1.71-3.55-1.71H21.29
			c-0.9,0-2.46,0.75-3.55,1.71L5.86,74.24C4.51,75.33,4,75.71,3.64,76.18c-0.33,0.48-0.07,1.12,0.61,1.21
			c0.06,0,0.12,0.01,0.18,0.01c0.03,0,0.06,0,0.08,0c0.05,0,102.91,0,102.96,0c0.03,0,0.05,0,0.08,0c0.06,0,0.12-0.01,0.18-0.01
			C108.42,77.3,108.69,76.67,108.36,76.18L108.36,76.18z"/>
		<g>
			<path fill="#BCE9FF" d="M74.75,48.74c0.26-0.31,0.62-0.48,0.98-0.53c0.48-0.06,0.9-0.37,1.08-0.82c0.43-1.06,1.48-1.79,2.7-1.76
				c1.48,0.04,2.7,1.23,2.76,2.71c0.08,1.63-1.22,2.98-2.84,2.98c-0.83,0-3.15,0.01-3.56,0c-0.41-0.01-0.82-0.19-1.12-0.53
				C74.25,50.2,74.25,49.32,74.75,48.74L74.75,48.74z"/>
			<path fill="#BCE9FF" d="M74.6,28.7c-0.73-0.3-1.24-0.96-1.42-1.72c-0.67-2.9-3.27-5.07-6.38-5.07c-2.91,0-5.38,1.9-6.23,4.53
				c-0.5,1.44-2.07,2.22-3.52,1.74l0,0c-0.44-0.15-0.92-0.21-1.42-0.16c-1.74,0.16-3.11,1.61-3.17,3.35
				c-0.07,1.99,1.52,3.64,3.5,3.64c0.04,0,0.09,0,0.13,0c0,0,17.32,0,17.4,0c1.74-0.07,3.12-1.52,3.13-3.25
				C76.63,30.37,75.8,29.19,74.6,28.7L74.6,28.7z"/>
			<path fill="#BCE9FF" d="M92.98,37.37c0.35-0.14,0.59-0.46,0.67-0.82c0.32-1.38,1.56-2.41,3.04-2.41c1.39,0,2.56,0.91,2.97,2.16
				c0.24,0.69,0.98,1.06,1.68,0.83l0,0c0.21-0.07,0.44-0.1,0.68-0.08c0.83,0.08,1.48,0.77,1.51,1.6c0.04,0.95-0.72,1.73-1.67,1.73
				c-0.02,0-0.04,0-0.06,0c0,0-8.25,0-8.29,0c-0.83-0.03-1.49-0.72-1.49-1.55C92.01,38.16,92.41,37.6,92.98,37.37L92.98,37.37z"/>
			<path fill="#BCE9FF" d="M18.14,41.78c-1.07,0-2.02,0.48-2.67,1.23c-0.27,0.32-0.66,0.5-1.08,0.49c-0.01,0-0.03,0-0.04,0
				c-1.06,0-1.98,0.63-2.4,1.53c-0.38,0.82-1.33,1.19-2.16,0.87c-0.04-0.02-0.08-0.03-0.12-0.05l0,0c-0.22-0.1-0.47-0.15-0.73-0.13
				c-0.79,0.05-1.42,0.7-1.45,1.48c-0.03,0.88,0.67,1.6,1.54,1.6h9.1c1.94,0,3.51-1.57,3.51-3.51
				C21.65,43.35,20.07,41.78,18.14,41.78L18.14,41.78z"/>
			<path fill="#BCE9FF" d="M45.36,36.37c-0.49,0-0.94,0.13-1.34,0.35l0,0c-0.37,0.21-0.83,0.08-1.05-0.29
				c-0.62-1.11-1.81-1.86-3.17-1.86c-1.78,0-3.26,1.27-3.57,2.96c-0.18,0.87-1.02,1.44-1.89,1.27l0,0
				c-0.09-0.02-0.19-0.03-0.29-0.03c-0.85,0-1.54,0.69-1.54,1.54s0.69,1.54,1.54,1.54h11.32l-0.06-0.04c0.02,0,0.04,0,0.06,0
				c1.5,0,2.72-1.22,2.72-2.72S46.86,36.37,45.36,36.37L45.36,36.37z"/>
		</g>
		<path fill="#EDF9E2" d="M47.78,77.41c5.69,0,11.38,0,17.06,0c2.12-0.74,3.05-1.44,1.04-2.23c-1.28-0.5-3.18-0.87-4.67-1.18
			c-1.25-0.26-2.51-0.51-3.05-0.75c-0.67-0.31,0.27-0.5,1.55-0.65c-2.34,0-4.68,0-7.02,0c-1.6,0.15-2.95,0.35-2.91,0.65
			c0.03,0.25,0.77,0.49,1.48,0.75c0.84,0.31,1.97,0.68,2.2,1.18C53.84,75.96,51.44,76.67,47.78,77.41L47.78,77.41z"/>
	</g>
	<g id="Trees_Back">
		<path fill="#00854C" d="M78.85,67.1c0,1.49,0,4.5-8.47,4.5s-8.47-3.01-8.47-4.5c0-2.81,3.79-5.67,8.47-5.67
			S78.85,64.29,78.85,67.1z"/>
		<path fill="#009E7C" d="M47.06,69.01c0,1.19,0,3.59-6.76,3.59s-6.76-2.4-6.76-3.59c0-1.19,3.03-17.15,6.76-17.15
			C44.03,51.86,47.06,67.82,47.06,69.01L47.06,69.01z"/>
	</g>
	<g id="House_00000066504432226164587590000018153870354256711062_">
		<g>
			<polygon fill="#394EC1" points="42.84,53.2 42.84,46.84 51.13,46.84 			"/>
			<polygon fill="#394EC1" points="69.04,53.2 69.04,46.84 60.74,46.84 			"/>
		</g>
		<rect x="42.85" y="48.49" fill="#FC8BF1" width="26.18" height="0.41"/>
		<rect x="42.85" y="50.38" fill="#FC8BF1" width="26.18" height="0.41"/>
		<polygon fill="#F5F5F5" points="71.8,59.27 71.8,72.6 40.21,72.6 40.21,59.27 56.01,47.14 		"/>
		<polygon fill="#394EC1" points="72.99,60.18 56.01,47.14 39.02,60.18 37.72,58.48 56.01,44.44 74.3,58.48 		"/>
		<g>
			<rect x="43.41" y="60.18" fill="#47A1FB" width="6.64" height="7.62"/>
			<rect x="61.82" y="60.18" fill="#47A1FB" width="6.64" height="7.62"/>
		</g>
		<g>
			<rect x="52.43" y="60.18" fill="#F96BD6" width="7.01" height="12.42"/>
			<g>
				<rect x="54.17" y="61.42" fill="#9CDAFF" width="1.16" height="4.75"/>
				<rect x="56.54" y="61.42" fill="#9CDAFF" width="1.16" height="4.75"/>
			</g>
			<rect x="54.28" y="67.39" fill="#FFB3FC" width="3.31" height="0.83"/>
		</g>
		<rect x="40.21" y="71.31" fill="#F4F4F4" width="12.22" height="1.29"/>
		<rect x="59.44" y="71.31" fill="#F4F4F4" width="12.29" height="1.29"/>
		<path fill="#47A1FB" d="M59.58,56.94h-7.29c0.49-1.55,1.94-2.67,3.65-2.67S59.09,55.39,59.58,56.94z"/>
		<path fill="#AFCDE9" d="M64.81,46.84l2.05-0.86c0.21-0.09,0.36-0.26,0.42-0.48l0.41-1.53c0.07-0.27,0.31-0.45,0.59-0.45l0,0
			c0.31,0,0.57,0.23,0.61,0.54l0.16,1.43c0.05,0.48-0.08,0.97-0.37,1.35l0,0L64.81,46.84L64.81,46.84z"/>
		<path fill="#E49C37" d="M68.88,44.06c0.35-0.13,0.57,0.14,0.57,0.14l-0.53,0.27L68.88,44.06z"/>
		<polygon fill="#FFB3FC" points="65.35,66.39 65.35,62.02 68.46,62.02 68.46,61.59 65.35,61.59 65.35,60.18 64.93,60.18 
			64.93,61.59 61.82,61.59 61.82,62.02 64.93,62.02 64.93,66.39 61.82,66.39 61.82,67.8 68.46,67.8 68.46,66.39 		"/>
		<polygon fill="#FFB3FC" points="50.06,62.02 50.06,61.59 46.95,61.59 46.95,60.18 46.53,60.18 46.53,61.59 43.41,61.59 
			43.41,62.02 46.53,62.02 46.53,66.39 43.41,66.39 43.41,67.8 50.06,67.8 50.06,66.39 46.95,66.39 46.95,62.02 		"/>
		<polygon fill="#5193FF" points="37.72,58.48 55.95,44.48 55.95,42.45 41.68,53.41 		"/>
		<polygon fill="#4667F4" points="74.3,58.48 55.95,44.48 55.95,42.45 70.22,53.41 		"/>
	</g>
	<g id="Trees_Front">
		<path fill="#33CA98" d="M101.03,72c0,0.97,0,2.93-5.53,2.93c-5.53,0-5.53-1.96-5.53-2.93c0-0.97,2.47-14.01,5.53-14.01
			S101.03,71.03,101.03,72z"/>
		<path fill="#00854C" d="M28.25,68.13c0,0.79,0,2.37-4.46,2.37s-4.46-1.59-4.46-2.37c0-0.79,2-11.32,4.46-11.32
			S28.25,67.35,28.25,68.13z"/>
		<path fill="#009E7C" d="M23.78,68.52c0,1.58,0,3.43-6.28,3.43s-6.28-1.85-6.28-3.43c0-2.83,2.81-6,6.28-6S23.78,65.69,23.78,68.52
			z"/>
		<path fill="#33CA98" d="M25.85,72.59c0,0.87,0,2.63-4.95,2.63s-4.95-1.76-4.95-2.63c0-1.64,2.22-3.31,4.95-3.31
			S25.85,70.95,25.85,72.59z"/>
		<path fill="#33CA98" d="M74.26,71.58c0,0.68,0,2.06-3.88,2.06s-3.88-1.38-3.88-2.06c0-1.29,1.74-2.6,3.88-2.6
			C72.52,68.98,74.26,70.29,74.26,71.58z"/>
	</g>
	<g id="Pin_00000129886266896054162420000011243759061326153128_">
		<g>
			<path fill="#FF4365" d="M63.2,20.99c-1-1.92-2.71-3.37-4.78-4.03c-0.8-0.25-1.63-0.37-2.46-0.37s-1.66,0.12-2.46,0.37
				c-2.07,0.66-3.78,2.1-4.78,4.03c-0.61,1.16-0.92,2.44-0.92,3.76c0,4.96,3.17,6.9,5.9,11.15c1.65,2.57,1.19,4.1,2.26,4.1
				c0,0,0,0,0.01,0s0,0,0.01,0c1.07,0,0.61-1.53,2.26-4.1c2.72-4.26,5.9-6.19,5.9-11.15C64.12,23.43,63.8,22.15,63.2,20.99
				L63.2,20.99z"/>
			<ellipse fill="#FFFFFF" cx="55.95" cy="24.75" rx="3.12" ry="3.12"/>
		</g>
	</g>
</g>
</svg>
