<svg width="56" height="56" viewBox="0 0 56 56" fill="none" xmlns="http://www.w3.org/2000/svg">
<path d="M45.3333 56H10.6667C4.77333 56 0 51.2267 0 45.3333V10.6667C0 4.77333 4.77333 0 10.6667 0H45.3333C51.2267 0 56 4.77333 56 10.6667V45.3333C56 51.2267 51.2267 56 45.3333 56Z" fill="#A2CCFC"/>
<path d="M45.3333 0H38.04C30.0133 4.77333 23.5867 11.9067 19.5067 20.3733C15.2533 29.2533 9.05333 36.92 0 40.4933V45.3333C0 51.2267 4.77333 56 10.6667 56H45.3333C51.2267 56 56 51.2267 56 45.3333V10.6667C56 4.77333 51.2267 0 45.3333 0Z" fill="#E8E8E8"/>
<path d="M52.2933 6.08002L42 10L32.1733 19.16L28 28.4L52.8533 52.8933C54.8 50.96 56 48.2933 56 45.3333V10.6667C56 9.02668 55.6133 7.46668 54.9467 6.08002H52.2933Z" fill="#C5E09E"/>
<path d="M29.2 28.2667C32.4133 21.5467 38.36 9.22665 55.3467 7.03999C55.0133 6.13332 54.5733 5.27999 54.0267 4.50665C36.3467 7.18665 30.1733 20.0667 26.8 27.12C20.2 40.9066 8.89335 48.1733 1.05334 49.9466C1.46668 50.8 1.97334 51.5867 2.58668 52.2933C11.04 49.96 22.5067 42.28 29.2 28.2667Z" fill="white"/>
<path d="M53.7466 51.8666L28.84 26.96L26.96 28.84L51.8666 53.7466C52.5733 53.2 53.2 52.5733 53.7466 51.8666Z" fill="white"/>
<path fill-rule="evenodd" clip-rule="evenodd" d="M10 28C10 18.0748 18.0748 10 28 10C37.9252 10 46 18.0748 46 28C46 37.9252 37.9252 46 28 46C18.0748 46 10 37.9252 10 28Z" fill="#689F38"/>
<path fill-rule="evenodd" clip-rule="evenodd" d="M35.15 22.0533C34.485 21.7133 33.73 21.3333 32.505 21.3333C31.28 21.3333 30.525 21.7133 29.86 22.0533L29.8578 22.0544C29.2738 22.3489 28.809 22.5833 28.005 22.5833C27.201 22.5833 26.7362 22.3489 26.1522 22.0544L26.15 22.0533C25.485 21.7133 24.73 21.3333 23.505 21.3333C22.28 21.3333 21.525 21.7133 20.86 22.0533L20.8578 22.0544C20.2738 22.3489 19.809 22.5833 19.005 22.5833V24.3333C20.23 24.3333 20.985 23.9533 21.65 23.6133L21.6522 23.6122C22.2362 23.3177 22.701 23.0833 23.505 23.0833C24.309 23.0833 24.7738 23.3177 25.3578 23.6122L25.36 23.6133L25.3749 23.6208C26.0363 23.954 26.7891 24.3333 28.005 24.3333C29.23 24.3333 29.985 23.9533 30.65 23.6133L30.6522 23.6122C31.2362 23.3177 31.701 23.0833 32.505 23.0833C33.309 23.0833 33.7738 23.3177 34.3578 23.6122L34.36 23.6133L34.3749 23.6208C35.0363 23.954 35.7891 24.3333 37.005 24.3333V22.5833C36.201 22.5833 35.7362 22.3489 35.1522 22.0544L35.15 22.0533ZM32.505 32C31.28 32 30.525 32.38 29.86 32.72L29.8578 32.7211C29.2738 33.0156 28.809 33.25 28.005 33.25C27.201 33.25 26.7362 33.0156 26.1522 32.7211L26.15 32.72C25.485 32.38 24.73 32 23.505 32C22.28 32 21.525 32.38 20.86 32.72L20.8578 32.7211C20.2738 33.0156 19.809 33.25 19.005 33.25V35C20.23 35 20.985 34.62 21.65 34.28L21.6522 34.2789C22.2362 33.9844 22.701 33.75 23.505 33.75C24.309 33.75 24.7738 33.9844 25.3578 34.2789L25.36 34.28L25.3749 34.2875C26.0363 34.6207 26.7891 35 28.005 35C29.23 35 29.985 34.62 30.65 34.28L30.6522 34.2789C31.2362 33.9844 31.701 33.75 32.505 33.75C33.309 33.75 33.7738 33.9844 34.3578 34.2789L34.36 34.28L34.3749 34.2875C35.0363 34.6207 35.7891 35 37.005 35V33.25C36.201 33.25 35.7362 33.0156 35.1522 32.7211L35.15 32.72C34.485 32.38 33.73 32 32.505 32ZM29.86 27.3866C30.525 27.0466 31.28 26.6666 32.505 26.6666C33.73 26.6666 34.485 27.0466 35.15 27.3866L35.1522 27.3878C35.7362 27.6822 36.201 27.9166 37.005 27.9166V29.6666C35.7891 29.6666 35.0363 29.2873 34.3749 28.9541L34.36 28.9466L34.3578 28.9455C33.7738 28.6511 33.309 28.4166 32.505 28.4166C31.701 28.4166 31.2362 28.6511 30.6522 28.9455L30.65 28.9466C29.985 29.2866 29.23 29.6666 28.005 29.6666C26.7891 29.6666 26.0363 29.2873 25.3749 28.9541L25.36 28.9466L25.3578 28.9455C24.7738 28.6511 24.309 28.4166 23.505 28.4166C22.701 28.4166 22.2362 28.6511 21.6522 28.9455L21.65 28.9466C20.985 29.2866 20.23 29.6666 19.005 29.6666V27.9166C19.809 27.9166 20.2738 27.6822 20.8578 27.3878L20.86 27.3866C21.525 27.0466 22.28 26.6666 23.505 26.6666C24.73 26.6666 25.485 27.0466 26.15 27.3866L26.1522 27.3878C26.7362 27.6822 27.201 27.9166 28.005 27.9166C28.809 27.9166 29.2738 27.6822 29.8578 27.3878L29.86 27.3866Z" fill="white"/>
</svg>
