<?xml version="1.0" encoding="utf-8"?>
<!-- Generator: Adobe Illustrator 22.0.1, SVG Export Plug-In . SVG Version: 6.00 Build 0)  -->
<svg version="1.1" id="Layer_1" xmlns="http://www.w3.org/2000/svg" xmlns:xlink="http://www.w3.org/1999/xlink" x="0px" y="0px"
	 width="24px" height="24px" viewBox="0 0 24 24" enable-background="new 0 0 24 24" xml:space="preserve">
<path d="M21,19h3v2h-3v3h-2v-3h-3v-2h3v-3h2V19z M12,11.5c-1.38,0-2.5-1.12-2.5-2.5s1.12-2.5,2.5-2.5s2.5,1.12,2.5,2.5
	S13.38,11.5,12,11.5z M7,9c0,2.85,2.92,7.21,5,9.88c2.12-2.69,5-7,5-9.88c0-2.76-2.24-5-5-5S7,6.24,7,9z M12,2c3.87,0,7,3.13,7,7
	c0,5.25-7,13-7,13S5,14.25,5,9C5,5.13,8.13,2,12,2z"/>
</svg>
