<svg width="40" height="40" fill="none" xmlns="http://www.w3.org/2000/svg"><path d="M20 0C8.96042 0 0 8.96042 0 20c0 11.0396 8.96042 20 20 20 11.0396 0 20-8.9604 20-20C40 8.96042 31.0396 0 20 0z" fill="#E0E0E0"/><path fill-rule="evenodd" clip-rule="evenodd" d="M25 12.7271c0 2.7667-2.2333 5-5 5s-5-2.2333-5-5c0-2.76665 2.2333-4.99999 5-4.99999s5 2.23334 5 4.99999zM9.09167 26.3625c0-2.7271 4.79793-5.6812 10.90833-5.6812 6.1104 0 10.9083 2.9541 10.9083 5.6812-2.3104 3.5542-6.3562 5.9084-10.9083 5.9084s-8.5979-2.3542-10.90833-5.9084z" fill="#BDBDBD"/></svg>