<?xml version="1.0" encoding="utf-8"?>
<!-- Generator: Adobe Illustrator 27.3.1, SVG Export Plug-In . SVG Version: 6.00 Build 0)  -->
<svg version="1.1" id="Layer_1" xmlns="http://www.w3.org/2000/svg" xmlns:xlink="http://www.w3.org/1999/xlink" x="0px" y="0px"
	 width="56px" height="56px" viewBox="0 0 56 56" enable-background="new 0 0 56 56" xml:space="preserve">
<path fill="#99E2F9" d="M45.29,56.22H10.63c-5.89,0-10.67-4.77-10.67-10.67V10.89c0-5.89,4.77-10.67,10.67-10.67h34.67
	c5.89,0,10.67,4.77,10.67,10.67v34.67C55.96,51.45,51.19,56.22,45.29,56.22z"/>
<path fill="#F3F0F0" d="M45.29,0.22H38c-8.03,4.77-14.45,11.91-18.53,20.37C15.21,29.47,9.01,37.14-0.04,40.71v4.84
	c0,5.89,4.77,10.67,10.67,10.67h34.67c5.89,0,10.67-4.77,10.67-10.67V10.89C55.96,4.99,51.19,0.22,45.29,0.22z"/>
<path fill="#C5EEE0" d="M52.25,6.3l-10.29,3.92l-9.83,9.16l-4.17,9.24l24.85,24.49c1.95-1.93,3.15-4.6,3.15-7.56V10.89
	c0-1.64-0.39-3.2-1.05-4.59H52.25z"/>
<path fill="#C8D4DF" d="M29.16,28.49c3.21-6.72,9.16-19.04,26.15-21.23c-0.33-0.91-0.77-1.76-1.32-2.53
	C36.31,7.41,30.13,20.29,26.76,27.34C20.16,41.13,8.85,48.39,1.01,50.17c0.41,0.85,0.92,1.64,1.53,2.35
	C11,50.18,22.47,42.5,29.16,28.49z"/>
<path fill="#C8D4DF" d="M53.71,52.09L28.8,27.18l-1.88,1.88l24.91,24.91C52.53,53.42,53.16,52.79,53.71,52.09z"/>
<path fill-rule="evenodd" clip-rule="evenodd" fill="#689F38" d="M9.96,28.22c0-9.93,8.07-18,18-18s18,8.07,18,18s-8.07,18-18,18
	S9.96,38.15,9.96,28.22z"/>
<path fill-rule="evenodd" clip-rule="evenodd" fill="#FFFFFF" d="M35.11,22.27c-0.67-0.34-1.42-0.72-2.65-0.72
	c-1.23,0-1.98,0.38-2.65,0.72l0,0c-0.58,0.29-1.05,0.53-1.85,0.53c-0.8,0-1.27-0.23-1.85-0.53l0,0c-0.66-0.34-1.42-0.72-2.65-0.72
	c-1.22,0-1.98,0.38-2.64,0.72l0,0c-0.58,0.29-1.05,0.53-1.85,0.53v1.75c1.23,0,1.98-0.38,2.65-0.72l0,0
	c0.58-0.29,1.05-0.53,1.85-0.53c0.8,0,1.27,0.23,1.85,0.53l0,0l0.01,0.01c0.66,0.33,1.41,0.71,2.63,0.71c1.23,0,1.98-0.38,2.65-0.72
	l0,0c0.58-0.29,1.05-0.53,1.85-0.53c0.8,0,1.27,0.23,1.85,0.53l0,0l0.01,0.01c0.66,0.33,1.41,0.71,2.63,0.71V22.8
	C36.16,22.8,35.7,22.57,35.11,22.27L35.11,22.27z M32.47,32.22c-1.23,0-1.98,0.38-2.65,0.72l0,0c-0.58,0.29-1.05,0.53-1.85,0.53
	c-0.8,0-1.27-0.23-1.85-0.53l0,0c-0.66-0.34-1.42-0.72-2.65-0.72c-1.22,0-1.98,0.38-2.64,0.72l0,0c-0.58,0.29-1.05,0.53-1.85,0.53
	v1.75c1.23,0,1.98-0.38,2.65-0.72l0,0c0.58-0.29,1.05-0.53,1.85-0.53c0.8,0,1.27,0.23,1.85,0.53l0,0l0.01,0.01
	c0.66,0.33,1.41,0.71,2.63,0.71c1.23,0,1.98-0.38,2.65-0.72l0,0c0.58-0.29,1.05-0.53,1.85-0.53c0.8,0,1.27,0.23,1.85,0.53l0,0
	l0.01,0.01c0.66,0.33,1.41,0.71,2.63,0.71v-1.75c-0.8,0-1.27-0.23-1.85-0.53l0,0C34.45,32.6,33.69,32.22,32.47,32.22z M29.82,27.61
	c0.66-0.34,1.42-0.72,2.65-0.72c1.22,0,1.98,0.38,2.65,0.72l0,0c0.58,0.29,1.05,0.53,1.85,0.53v1.75c-1.22,0-1.97-0.38-2.63-0.71
	l-0.01-0.01l0,0c-0.58-0.29-1.05-0.53-1.85-0.53c-0.8,0-1.27,0.23-1.85,0.53l0,0c-0.66,0.34-1.42,0.72-2.65,0.72
	c-1.22,0-1.97-0.38-2.63-0.71l-0.01-0.01l0,0c-0.58-0.29-1.05-0.53-1.85-0.53c-0.8,0-1.27,0.23-1.85,0.53l0,0
	c-0.66,0.34-1.42,0.72-2.65,0.72v-1.75c0.8,0,1.27-0.23,1.85-0.53l0,0c0.66-0.34,1.42-0.72,2.64-0.72c1.23,0,1.98,0.38,2.65,0.72
	l0,0c0.58,0.29,1.05,0.53,1.85,0.53C28.77,28.14,29.24,27.9,29.82,27.61L29.82,27.61z"/>
</svg>
