<?xml version="1.0" encoding="utf-8"?>
<!-- Generator: Adobe Illustrator 27.3.1, SVG Export Plug-In . SVG Version: 6.00 Build 0)  -->
<svg version="1.1" id="Layer_1" xmlns="http://www.w3.org/2000/svg" xmlns:xlink="http://www.w3.org/1999/xlink" x="0px" y="0px"
	 width="48px" height="48px" viewBox="0 0 48 48" enable-background="new 0 0 48 48" xml:space="preserve">
<g>
	<defs>
		<rect id="SVGID_1_" x="0.09" y="0.02" width="47.84" height="47.84"/>
	</defs>
	<clipPath id="SVGID_00000178903874422626537010000006285147783375756931_">
		<use xlink:href="#SVGID_1_"  overflow="visible"/>
	</clipPath>
	<g clip-path="url(#SVGID_00000178903874422626537010000006285147783375756931_)">
		<path fill="#1D1D1D" d="M8.06,0.02h31.89c4.4,0,7.97,3.57,7.97,7.97v31.89c0,4.4-3.57,7.97-7.97,7.97H8.06
			c-4.4,0-7.97-3.57-7.97-7.97V7.99C0.09,3.59,3.66,0.02,8.06,0.02z"/>
		<path fill="#C8D4DF" d="M7.21,0.02h33.6c3.93,0,7.12,3.19,7.12,7.12v33.6c0,3.93-3.19,7.12-7.12,7.12H7.21
			c-3.93,0-7.12-3.19-7.12-7.12V7.13C0.09,3.2,3.28,0.02,7.21,0.02z"/>
		<path fill="#F8F6F6" d="M-0.16,7.93C-0.16,3.55,3.39,0,7.77,0h32.9c4.38,0,7.38,3.55,7.38,7.93v32.35c0,4.38-3.55,7.93-7.93,7.93
			H7.77c-4.38,0-7.93-3.55-7.93-7.93V7.93z"/>
		<path fill="#C8D4DF" d="M27.37,41.89c9.3-1.78,15.43-10.74,13.74-20.07C39.4,12.41,30.4,6.18,21,7.9
			C11.61,9.61,5.39,18.62,7.1,28.02C8.9,37.42,17.97,43.64,27.37,41.89z"/>
		<path fill="#C8D4DF" d="M9.44,48.21l5.03-13.58l9.61,3.2l-3.97,10.37H9.44z"/>
		<path fill="#C8D4DF" d="M-0.48,9.2l48.53,19.19v10.47L-0.48,19.66V9.2z"/>
		<path fill="#C8D4DF" d="M23.47,26.32l24.58-10.47L47.9,6.42c-0.18-0.98-0.07-0.79-0.26-1.14L23.47,15.86V26.32z"/>
		<path fill="#F8F6F6" d="M25.37,33.16c4.52-0.87,7.5-5.22,6.68-9.76c-0.83-4.57-5.21-7.6-9.78-6.77c-4.57,0.83-7.59,5.21-6.76,9.78
			C16.39,30.98,20.8,34.01,25.37,33.16z"/>
		<path fill="#84D8BD" d="M25.22,32.26c4.04-0.77,6.7-4.66,5.97-8.71c-0.74-4.08-4.65-6.78-8.73-6.04
			c-4.08,0.74-6.78,4.65-6.04,8.73C17.21,30.32,21.15,33.02,25.22,32.26z"/>
		<path fill-rule="evenodd" clip-rule="evenodd" fill="#FFFFFF" d="M20.27,39.55l-3.93,10.6l-4.46-1.65l4.76-12.85
			c0.23-0.63,0.72-1.13,1.34-1.38c0.62-0.25,1.32-0.23,1.93,0.07c5,2.43,10.89,0.24,13.45-4.93l0.75-1.89l4.43,1.75l-0.78,1.98
			c-0.02,0.06-0.05,0.11-0.07,0.17C34.47,38,27.2,41.52,20.27,39.55z"/>
		<path fill-rule="evenodd" clip-rule="evenodd" fill="#1B8F1D" d="M19.69,38.36l-3.93,10.65l-2.68-0.99l4.44-12.05
			c0.14-0.38,0.43-0.68,0.81-0.83c0.37-0.15,0.79-0.14,1.16,0.04c5.52,2.68,11.97,0.22,14.73-5.4l0.76-1.93l2.66,1.05l-0.78,1.98
			c-0.01,0.03-0.03,0.07-0.04,0.1C33.67,37.47,26.4,40.74,19.69,38.36z"/>
		<path fill-rule="evenodd" clip-rule="evenodd" fill="#F8F6F6" d="M21.27,9.76c8.1-1.48,15.86,3.89,17.34,12l0,0
			c0.32,1.79,0.31,3.56,0.02,5.25l11.01,4.21l-1.59,4.15L35.2,30.46c-1.11-0.42-1.69-1.64-1.32-2.77c0.53-1.6,0.68-3.36,0.35-5.14
			c-1.04-5.69-6.49-9.46-12.17-8.42c-3.5,0.64-6.28,2.95-7.66,5.98c-0.49,1.08-1.75,1.58-2.85,1.14L-2.26,15.7l1.65-4.12l11.99,4.82
			C13.54,13.03,17.03,10.53,21.27,9.76z"/>
		<path fill-rule="evenodd" clip-rule="evenodd" fill="#207036" d="M21.41,10.54c7.67-1.4,15.02,3.69,16.42,11.36l0,0
			c0.35,1.92,0.29,3.82-0.12,5.62l11.48,4.45l-1.03,2.66l-12.69-4.92c-0.71-0.27-1.08-1.06-0.84-1.78c0.57-1.73,0.73-3.61,0.38-5.53
			c-1.12-6.12-6.98-10.18-13.09-9.06c-3.77,0.69-6.76,3.18-8.24,6.43c-0.32,0.7-1.12,1.02-1.83,0.73l-13.82-5.55l1.06-2.65
			l12.61,5.07C13.71,13.91,17.17,11.31,21.41,10.54z"/>
		<path fill="#84D8BD" d="M9.99,11.1l-9.9-4.39C0.09,3.85,2.8,0,7.29,0h33.23c3.55,0,5.43,1.93,6.12,3.15L34.89,8.09
			c-5.55-3.49-9.51-3.17-12.85-2.85C16.71,5.87,12.68,8.25,9.99,11.1z"/>
		<path fill="#C5EEE0" d="M39.48,37.9l8.56,3.49c0,5.46-5.39,6.61-8.09,6.82H23.31l1.27-3.17C31.71,44.88,36.31,41.71,39.48,37.9z"
			/>
		<path fill="#C5EEE0" d="M10.15,39.17c-4.76-5.07-5.87-9.83-5.87-14.43l-4.44-1.59l0.28,18.86c0,2.28,2.81,5.13,5.23,5.84h1.42
			L10.15,39.17z"/>
		<path fill="#84D8BD" d="M48.05,25.53V18.4l-4.44,1.74c0.48,2.54,0.48,2.38,0.63,4.12L48.05,25.53z"/>
	</g>
</g>
</svg>
