<svg width="42" height="42" viewBox="0 0 42 42" fill="none" xmlns="http://www.w3.org/2000/svg">
<path d="M34 42H8C3.58 42 0 38.42 0 34V8C0 3.58 3.58 0 8 0H34C38.42 0 42 3.58 42 8V34C42 38.42 38.42 42 34 42Z" fill="#A2CCFC"/>
<path d="M34 0H28.53C22.51 3.58 17.69 8.93 14.63 15.28C11.44 21.94 6.79 27.69 0 30.37V34C0 38.42 3.58 42 8 42H34C38.42 42 42 38.42 42 34V8C42 3.58 38.42 0 34 0Z" fill="#E8E8E8"/>
<path d="M39.22 4.56L31.5 7.5L24.13 14.37L21 21.3L39.64 39.67C41.1 38.22 42 36.22 42 34V8C42 6.77 41.71 5.6 41.21 4.56H39.22Z" fill="#C5E09E"/>
<path d="M21.9 21.2C24.31 16.16 28.77 6.92 41.51 5.28C41.26 4.6 40.93 3.96 40.52 3.38C27.26 5.39 22.63 15.05 20.1 20.34C15.15 30.68 6.67 36.13 0.790001 37.46C1.1 38.1 1.48 38.69 1.94 39.22C8.28 37.47 16.88 31.71 21.9 21.2Z" fill="white"/>
<path d="M40.31 38.9L21.63 20.22L20.22 21.63L38.9 40.31C39.43 39.9 39.9 39.43 40.31 38.9Z" fill="white"/>
<path fill-rule="evenodd" clip-rule="evenodd" d="M35 21C35 28.7315 28.7315 35 21 35C13.2685 35 7 28.7315 7 21C7 13.2685 13.2685 7 21 7C28.7315 7 35 13.2685 35 21" fill="#DF2A00" fill-opacity="0.16"/>
<path fill-rule="evenodd" clip-rule="evenodd" d="M9.33333 21C9.33333 14.567 14.567 9.33333 21 9.33333C27.433 9.33333 32.6667 14.567 32.6667 21C32.6667 27.433 27.433 32.6667 21 32.6667C14.567 32.6667 9.33333 27.433 9.33333 21" fill="#DF2A00"/>
<path fill-rule="evenodd" clip-rule="evenodd" d="M20.062 27.456C19.7598 27.4572 19.4915 27.2519 19.4157 26.9544L17.9562 21.2564L17.5817 21.7639C17.4557 21.9354 17.2562 22.0357 17.0438 22.0357H13.5007C13.132 22.0357 12.8333 21.737 12.8333 21.3672C12.8333 20.9985 13.132 20.6999 13.5007 20.6999H16.7067L17.717 19.3314C17.8698 19.1225 18.1288 19.0222 18.382 19.0712C18.6352 19.1202 18.8382 19.3127 18.9012 19.5612L19.7762 22.9749L20.6208 14.6005C20.6535 14.2762 20.9148 14.023 21.2403 14.002C21.5635 13.9764 21.8598 14.1969 21.9345 14.513L23.5083 21.1222L24.332 19.4352C24.4358 19.2229 24.6423 19.0805 24.8768 19.0619C25.1113 19.0432 25.34 19.1482 25.4765 19.3407L26.4448 20.6999H29.5155C29.8842 20.6999 30.1828 20.9985 30.1828 21.3672C30.1828 21.737 29.8842 22.0357 29.5155 22.0357H26.0995C25.8837 22.0357 25.6807 21.9319 25.5558 21.7545L25.0402 21.03L23.891 23.3855C23.7673 23.6387 23.4967 23.7857 23.2178 23.7554C22.9367 23.725 22.7068 23.5209 22.6403 23.2467L21.5518 18.6757L20.727 26.8552C20.6943 27.1784 20.4353 27.4315 20.1122 27.4549C20.0958 27.456 20.0795 27.456 20.062 27.456" fill="white"/>
</svg>
