<svg width="36" height="36" viewBox="0 0 36 36" fill="none" xmlns="http://www.w3.org/2000/svg">
<path d="M29.1429 36H6.85714C3.06857 36 0 32.9314 0 29.1429V6.85714C0 3.06857 3.06857 0 6.85714 0H29.1429C32.9314 0 36 3.06857 36 6.85714V29.1429C36 32.9314 32.9314 36 29.1429 36Z" fill="#A2CCFC"/>
<path d="M29.1429 0H24.4543C19.2943 3.06857 15.1629 7.65429 12.54 13.0971C9.80571 18.8057 5.82 23.7343 0 26.0314V29.1429C0 32.9314 3.06857 36 6.85714 36H29.1429C32.9314 36 36 32.9314 36 29.1429V6.85714C36 3.06857 32.9314 0 29.1429 0Z" fill="#E8E8E8"/>
<path d="M33.6171 3.90856L27 6.42856L20.6829 12.3171L18 18.2571L33.9771 34.0028C35.2286 32.76 36 31.0457 36 29.1428V6.85713C36 5.80285 35.7514 4.79999 35.3229 3.90856H33.6171Z" fill="#C5E09E"/>
<path d="M18.7713 18.1714C20.837 13.8514 24.6599 5.93141 35.5799 4.5257C35.3656 3.94284 35.0827 3.39427 34.7313 2.89713C23.3656 4.61998 19.397 12.9 17.2284 17.4343C12.9856 26.2971 5.717 30.9686 0.677002 32.1086C0.942716 32.6571 1.26843 33.1628 1.66272 33.6171C7.097 32.1171 14.4684 27.18 18.7713 18.1714Z" fill="white"/>
<path d="M34.5513 33.3428L18.5399 17.3314L17.3313 18.54L33.3427 34.5514C33.797 34.2 34.1999 33.7971 34.5513 33.3428Z" fill="white"/>
<path fill-rule="evenodd" clip-rule="evenodd" d="M6 18C6 11.3832 11.3832 6 18 6C24.6168 6 30 11.3832 30 18C30 24.6168 24.6168 30 18 30C11.3832 30 6 24.6168 6 18" fill="#0D652D" fill-opacity="0.2"/>
<path fill-rule="evenodd" clip-rule="evenodd" d="M8 18C8 12.486 12.486 8 18 8C23.514 8 28 12.486 28 18C28 23.514 23.514 28 18 28C12.486 28 8 23.514 8 18" fill="#689F38"/>
<mask id="mask0" style="mask-type:alpha" maskUnits="userSpaceOnUse" x="12" y="13" width="12" height="10">
<path fill-rule="evenodd" clip-rule="evenodd" d="M20.7031 20.7C19.9681 20.7 19.5151 20.928 19.1161 21.132C18.7651 21.309 18.4861 21.45 18.0031 21.45C17.5201 21.45 17.2411 21.309 16.8901 21.132C16.4911 20.928 16.0381 20.7 15.3031 20.7C14.5681 20.7 14.1151 20.928 13.7161 21.132C13.3651 21.309 13.0861 21.45 12.6031 21.45V22.5C13.3381 22.5 13.7911 22.272 14.1901 22.068C14.5411 21.891 14.8201 21.75 15.3031 21.75C15.7861 21.75 16.0651 21.891 16.4161 22.068C16.8151 22.269 17.2681 22.5 18.0031 22.5C18.7381 22.5 19.1911 22.272 19.5901 22.068C19.9411 21.891 20.2201 21.75 20.7031 21.75C21.1861 21.75 21.4651 21.891 21.8161 22.068C22.2151 22.269 22.6681 22.5 23.4031 22.5V21.45C22.9201 21.45 22.6411 21.309 22.2901 21.132C21.8911 20.928 21.4381 20.7 20.7031 20.7ZM20.7031 18.2999C19.9681 18.2999 19.5151 18.5279 19.1161 18.7319C18.7651 18.9089 18.4861 19.0499 18.0031 19.0499C17.5201 19.0499 17.2411 18.9089 16.8901 18.7319C16.4911 18.5279 16.0381 18.2999 15.3031 18.2999C14.5681 18.2999 14.1151 18.5279 13.7161 18.7319C13.3651 18.9089 13.0861 19.0499 12.6031 19.0499V20.0999C13.3381 20.0999 13.7911 19.8719 14.1901 19.6679C14.5411 19.4909 14.8201 19.3499 15.3031 19.3499C15.7861 19.3499 16.0651 19.4909 16.4161 19.6679C16.8151 19.8689 17.2681 20.0999 18.0031 20.0999C18.7381 20.0999 19.1911 19.8719 19.5901 19.6679C19.9411 19.4909 20.2201 19.3499 20.7031 19.3499C21.1861 19.3499 21.4651 19.4909 21.8161 19.6679C22.2151 19.8689 22.6681 20.0999 23.4031 20.0999V19.0499C22.9201 19.0499 22.6411 18.9089 22.2901 18.7319C21.8911 18.5279 21.4381 18.2999 20.7031 18.2999ZM22.29 13.932C21.891 13.728 21.438 13.5 20.703 13.5C19.968 13.5 19.515 13.728 19.116 13.932C18.765 14.109 18.486 14.25 18.003 14.25C17.52 14.25 17.241 14.109 16.89 13.932C16.491 13.728 16.038 13.5 15.303 13.5C14.568 13.5 14.115 13.728 13.716 13.932C13.365 14.109 13.086 14.25 12.603 14.25V15.3C13.338 15.3 13.791 15.072 14.19 14.868C14.541 14.691 14.82 14.55 15.303 14.55C15.786 14.55 16.065 14.691 16.416 14.868C16.815 15.069 17.268 15.3 18.003 15.3C18.738 15.3 19.191 15.072 19.59 14.868C19.941 14.691 20.22 14.55 20.703 14.55C21.186 14.55 21.465 14.691 21.816 14.868C22.215 15.069 22.668 15.3 23.403 15.3V14.25C22.92 14.25 22.641 14.109 22.29 13.932ZM20.7031 15.9001C19.9681 15.9001 19.5151 16.1281 19.1161 16.3321C18.7651 16.5091 18.4861 16.6501 18.0031 16.6501C17.5201 16.6501 17.2411 16.5091 16.8901 16.3321C16.4911 16.1281 16.0381 15.9001 15.3031 15.9001C14.5681 15.9001 14.1151 16.1281 13.7161 16.3321C13.3651 16.5091 13.0861 16.6501 12.6031 16.6501V17.7001C13.3381 17.7001 13.7911 17.4721 14.1901 17.2681C14.5411 17.0911 14.8201 16.9501 15.3031 16.9501C15.7861 16.9501 16.0651 17.0911 16.4161 17.2681C16.8151 17.4691 17.2681 17.7001 18.0031 17.7001C18.7381 17.7001 19.1911 17.4721 19.5901 17.2681C19.9411 17.0911 20.2201 16.9501 20.7031 16.9501C21.1861 16.9501 21.4651 17.0911 21.8161 17.2681C22.2151 17.4691 22.6681 17.7001 23.4031 17.7001V16.6501C22.9201 16.6501 22.6411 16.5091 22.2901 16.3321C21.8911 16.1281 21.4381 15.9001 20.7031 15.9001Z" fill="white"/>
</mask>
<g mask="url(#mask0)">
<path fill-rule="evenodd" clip-rule="evenodd" d="M20.703 13.5C21.438 13.5 21.891 13.728 22.29 13.932L22.2914 13.9327C22.6417 14.1094 22.9206 14.25 23.403 14.25V15.3C22.6735 15.3 22.2218 15.0724 21.8249 14.8725L21.816 14.868L21.8147 14.8673C21.4643 14.6906 21.1854 14.55 20.703 14.55C20.2206 14.55 19.9417 14.6906 19.5914 14.8673L19.59 14.868C19.191 15.072 18.738 15.3 18.003 15.3C17.2735 15.3 16.8218 15.0724 16.4249 14.8725L16.416 14.868L16.4147 14.8673C16.0643 14.6906 15.7854 14.55 15.303 14.55C14.8206 14.55 14.5417 14.6906 14.1914 14.8673L14.1914 14.8673L14.1914 14.8673L14.19 14.868C13.791 15.072 13.338 15.3 12.603 15.3V14.25C13.0854 14.25 13.3643 14.1094 13.7147 13.9327L13.716 13.932C14.115 13.728 14.568 13.5 15.303 13.5C16.038 13.5 16.491 13.728 16.89 13.932L16.8914 13.9327C17.2417 14.1094 17.5206 14.25 18.003 14.25C18.4854 14.25 18.7643 14.1094 19.1147 13.9327L19.116 13.932C19.515 13.728 19.968 13.5 20.703 13.5ZM19.1161 21.132C19.5151 20.928 19.9681 20.7 20.7031 20.7C21.4381 20.7 21.8911 20.928 22.2901 21.132L22.2914 21.1327C22.6418 21.3094 22.9207 21.45 23.4031 21.45V22.5C22.6735 22.5 22.2218 22.2724 21.825 22.0725L21.8161 22.068L21.8148 22.0673C21.4644 21.8906 21.1855 21.75 20.7031 21.75C20.2207 21.75 19.9418 21.8906 19.5914 22.0673L19.5901 22.068C19.1911 22.272 18.7381 22.5 18.0031 22.5C17.2735 22.5 16.8218 22.2724 16.425 22.0725L16.4161 22.068L16.4148 22.0673C16.0644 21.8906 15.7855 21.75 15.3031 21.75C14.8207 21.75 14.5418 21.8906 14.1914 22.0673L14.1901 22.068C13.7911 22.272 13.3381 22.5 12.6031 22.5V21.45C13.0855 21.45 13.3644 21.3094 13.7148 21.1327L13.7161 21.132C14.1151 20.928 14.5681 20.7 15.3031 20.7C16.0381 20.7 16.4911 20.928 16.8901 21.132L16.8914 21.1327C17.2418 21.3094 17.5207 21.45 18.0031 21.45C18.4855 21.45 18.7644 21.3094 19.1148 21.1327L19.1161 21.132ZM20.7031 18.2999C19.9681 18.2999 19.5151 18.5279 19.1161 18.7319L19.1147 18.7326C18.7644 18.9093 18.4855 19.0499 18.0031 19.0499C17.5207 19.0499 17.2418 18.9093 16.8914 18.7326L16.8901 18.7319C16.4911 18.5279 16.0381 18.2999 15.3031 18.2999C14.5681 18.2999 14.1151 18.5279 13.7161 18.7319L13.7147 18.7326C13.3644 18.9093 13.0855 19.0499 12.6031 19.0499V20.0999C13.3381 20.0999 13.7911 19.8719 14.1901 19.6679L14.1914 19.6672C14.5418 19.4905 14.8207 19.3499 15.3031 19.3499C15.7855 19.3499 16.0644 19.4905 16.4147 19.6672L16.4161 19.6679L16.425 19.6724C16.8218 19.8723 17.2735 20.0999 18.0031 20.0999C18.7381 20.0999 19.1911 19.8719 19.5901 19.6679L19.5914 19.6672C19.9418 19.4905 20.2207 19.3499 20.7031 19.3499C21.1855 19.3499 21.4644 19.4905 21.8148 19.6672L21.8161 19.6679L21.825 19.6724C22.2218 19.8723 22.6735 20.0999 23.4031 20.0999V19.0499C22.9207 19.0499 22.6418 18.9093 22.2914 18.7326L22.2901 18.7319C21.8911 18.5279 21.4381 18.2999 20.7031 18.2999ZM19.1161 16.3321C19.5151 16.1281 19.9681 15.9001 20.7031 15.9001C21.4381 15.9001 21.8911 16.1281 22.2901 16.3321L22.2914 16.3328C22.6418 16.5095 22.9207 16.6501 23.4031 16.6501V17.7001C22.6735 17.7001 22.2218 17.4725 21.825 17.2726L21.8161 17.2681L21.8148 17.2674C21.4644 17.0907 21.1855 16.9501 20.7031 16.9501C20.2207 16.9501 19.9418 17.0907 19.5914 17.2674L19.5901 17.2681C19.1911 17.4721 18.7381 17.7001 18.0031 17.7001C17.2735 17.7001 16.8218 17.4725 16.425 17.2726L16.4161 17.2681L16.4147 17.2674C16.0644 17.0907 15.7855 16.9501 15.3031 16.9501C14.8207 16.9501 14.5418 17.0907 14.1914 17.2674L14.1901 17.2681C13.7911 17.4721 13.3381 17.7001 12.6031 17.7001V16.6501C13.0855 16.6501 13.3644 16.5095 13.7147 16.3328L13.7161 16.3321C14.1151 16.1281 14.5681 15.9001 15.3031 15.9001C16.0381 15.9001 16.4911 16.1281 16.8901 16.3321L16.8914 16.3328C17.2418 16.5095 17.5207 16.6501 18.0031 16.6501C18.4855 16.6501 18.7644 16.5095 19.1148 16.3328L19.1161 16.3321Z" fill="white"/>
</g>
<mask id="mask1" style="mask-type:alpha" maskUnits="userSpaceOnUse" x="12" y="13" width="12" height="10">
<path fill-rule="evenodd" clip-rule="evenodd" d="M20.7031 20.7C19.9681 20.7 19.5151 20.928 19.1161 21.132C18.7651 21.309 18.4861 21.45 18.0031 21.45C17.5201 21.45 17.2411 21.309 16.8901 21.132C16.4911 20.928 16.0381 20.7 15.3031 20.7C14.5681 20.7 14.1151 20.928 13.7161 21.132C13.3651 21.309 13.0861 21.45 12.6031 21.45V22.5C13.3381 22.5 13.7911 22.272 14.1901 22.068C14.5411 21.891 14.8201 21.75 15.3031 21.75C15.7861 21.75 16.0651 21.891 16.4161 22.068C16.8151 22.269 17.2681 22.5 18.0031 22.5C18.7381 22.5 19.1911 22.272 19.5901 22.068C19.9411 21.891 20.2201 21.75 20.7031 21.75C21.1861 21.75 21.4651 21.891 21.8161 22.068C22.2151 22.269 22.6681 22.5 23.4031 22.5V21.45C22.9201 21.45 22.6411 21.309 22.2901 21.132C21.8911 20.928 21.4381 20.7 20.7031 20.7ZM20.7031 18.2999C19.9681 18.2999 19.5151 18.5279 19.1161 18.7319C18.7651 18.9089 18.4861 19.0499 18.0031 19.0499C17.5201 19.0499 17.2411 18.9089 16.8901 18.7319C16.4911 18.5279 16.0381 18.2999 15.3031 18.2999C14.5681 18.2999 14.1151 18.5279 13.7161 18.7319C13.3651 18.9089 13.0861 19.0499 12.6031 19.0499V20.0999C13.3381 20.0999 13.7911 19.8719 14.1901 19.6679C14.5411 19.4909 14.8201 19.3499 15.3031 19.3499C15.7861 19.3499 16.0651 19.4909 16.4161 19.6679C16.8151 19.8689 17.2681 20.0999 18.0031 20.0999C18.7381 20.0999 19.1911 19.8719 19.5901 19.6679C19.9411 19.4909 20.2201 19.3499 20.7031 19.3499C21.1861 19.3499 21.4651 19.4909 21.8161 19.6679C22.2151 19.8689 22.6681 20.0999 23.4031 20.0999V19.0499C22.9201 19.0499 22.6411 18.9089 22.2901 18.7319C21.8911 18.5279 21.4381 18.2999 20.7031 18.2999ZM22.29 13.932C21.891 13.728 21.438 13.5 20.703 13.5C19.968 13.5 19.515 13.728 19.116 13.932C18.765 14.109 18.486 14.25 18.003 14.25C17.52 14.25 17.241 14.109 16.89 13.932C16.491 13.728 16.038 13.5 15.303 13.5C14.568 13.5 14.115 13.728 13.716 13.932C13.365 14.109 13.086 14.25 12.603 14.25V15.3C13.338 15.3 13.791 15.072 14.19 14.868C14.541 14.691 14.82 14.55 15.303 14.55C15.786 14.55 16.065 14.691 16.416 14.868C16.815 15.069 17.268 15.3 18.003 15.3C18.738 15.3 19.191 15.072 19.59 14.868C19.941 14.691 20.22 14.55 20.703 14.55C21.186 14.55 21.465 14.691 21.816 14.868C22.215 15.069 22.668 15.3 23.403 15.3V14.25C22.92 14.25 22.641 14.109 22.29 13.932ZM20.7031 15.9001C19.9681 15.9001 19.5151 16.1281 19.1161 16.3321C18.7651 16.5091 18.4861 16.6501 18.0031 16.6501C17.5201 16.6501 17.2411 16.5091 16.8901 16.3321C16.4911 16.1281 16.0381 15.9001 15.3031 15.9001C14.5681 15.9001 14.1151 16.1281 13.7161 16.3321C13.3651 16.5091 13.0861 16.6501 12.6031 16.6501V17.7001C13.3381 17.7001 13.7911 17.4721 14.1901 17.2681C14.5411 17.0911 14.8201 16.9501 15.3031 16.9501C15.7861 16.9501 16.0651 17.0911 16.4161 17.2681C16.8151 17.4691 17.2681 17.7001 18.0031 17.7001C18.7381 17.7001 19.1911 17.4721 19.5901 17.2681C19.9411 17.0911 20.2201 16.9501 20.7031 16.9501C21.1861 16.9501 21.4651 17.0911 21.8161 17.2681C22.2151 17.4691 22.6681 17.7001 23.4031 17.7001V16.6501C22.9201 16.6501 22.6411 16.5091 22.2901 16.3321C21.8911 16.1281 21.4381 15.9001 20.7031 15.9001Z" fill="white"/>
</mask>
<g mask="url(#mask1)">
<path fill-rule="evenodd" clip-rule="evenodd" d="M22.29 13.932C21.891 13.728 21.438 13.5 20.703 13.5C19.968 13.5 19.515 13.728 19.116 13.932L19.1147 13.9327C18.7643 14.1094 18.4854 14.25 18.003 14.25C17.5206 14.25 17.2417 14.1094 16.8914 13.9327L16.89 13.932C16.491 13.728 16.038 13.5 15.303 13.5C14.568 13.5 14.115 13.728 13.716 13.932L13.7147 13.9327C13.3643 14.1094 13.0854 14.25 12.603 14.25V14.325C13.0854 14.325 13.3643 14.1844 13.7147 14.0077L13.716 14.007L13.7249 14.0025C14.1218 13.8026 14.5735 13.575 15.303 13.575C16.038 13.575 16.491 13.803 16.89 14.007L16.8914 14.0077C17.2417 14.1844 17.5206 14.325 18.003 14.325C18.4854 14.325 18.7643 14.1844 19.1147 14.0077L19.116 14.007L19.1249 14.0025C19.5218 13.8026 19.9735 13.575 20.703 13.575C21.438 13.575 21.891 13.803 22.29 14.007L22.2914 14.0077C22.6417 14.1844 22.9206 14.325 23.403 14.325V14.25C22.9206 14.25 22.6417 14.1094 22.2914 13.9327L22.29 13.932ZM19.1161 18.7319C19.5151 18.5279 19.9681 18.2999 20.7031 18.2999C21.4381 18.2999 21.8911 18.5279 22.2901 18.7319L22.2914 18.7326C22.6418 18.9093 22.9207 19.0499 23.4031 19.0499V19.1249C22.9207 19.1249 22.6418 18.9843 22.2914 18.8076L22.2901 18.8069C21.8911 18.6029 21.4381 18.3749 20.7031 18.3749C19.9735 18.3749 19.5218 18.6025 19.125 18.8024L19.1161 18.8069L19.1148 18.8076C18.7644 18.9843 18.4855 19.1249 18.0031 19.1249C17.5207 19.1249 17.2418 18.9843 16.8914 18.8076L16.8901 18.8069C16.4911 18.6029 16.0381 18.3749 15.3031 18.3749C14.5735 18.3749 14.1218 18.6025 13.725 18.8024L13.7161 18.8069L13.7148 18.8076C13.3644 18.9843 13.0855 19.1249 12.6031 19.1249V19.0499C13.0855 19.0499 13.3644 18.9093 13.7147 18.7326L13.7161 18.7319C14.1151 18.5279 14.5681 18.2999 15.3031 18.2999C16.0381 18.2999 16.4911 18.5279 16.8901 18.7319L16.8914 18.7326C17.2418 18.9093 17.5207 19.0499 18.0031 19.0499C18.4855 19.0499 18.7644 18.9093 19.1147 18.7326L19.1161 18.7319ZM19.1161 21.132C19.5151 20.928 19.9681 20.7 20.7031 20.7C21.4381 20.7 21.8911 20.928 22.2901 21.132L22.2914 21.1327C22.6418 21.3094 22.9207 21.45 23.4031 21.45V21.525C22.9207 21.525 22.6418 21.3844 22.2914 21.2077L22.2901 21.207C21.8911 21.003 21.4381 20.775 20.7031 20.775C19.9735 20.775 19.5218 21.0026 19.125 21.2025L19.1161 21.207L19.1148 21.2077C18.7644 21.3844 18.4855 21.525 18.0031 21.525C17.5207 21.525 17.2418 21.3844 16.8914 21.2077L16.8901 21.207C16.4911 21.003 16.0381 20.775 15.3031 20.775C14.5735 20.775 14.1218 21.0026 13.725 21.2025L13.7161 21.207L13.7148 21.2077C13.3644 21.3844 13.0855 21.525 12.6031 21.525V21.45C13.0855 21.45 13.3644 21.3094 13.7148 21.1327L13.7161 21.132C14.1151 20.928 14.5681 20.7 15.3031 20.7C16.0381 20.7 16.4911 20.928 16.8901 21.132L16.8914 21.1327C17.2418 21.3094 17.5207 21.45 18.0031 21.45C18.4855 21.45 18.7644 21.3094 19.1148 21.1327L19.1161 21.132ZM19.1161 16.3321C19.5151 16.1281 19.9681 15.9001 20.7031 15.9001C21.4381 15.9001 21.8911 16.1281 22.2901 16.3321L22.2914 16.3328C22.6418 16.5095 22.9207 16.6501 23.4031 16.6501V16.7251C22.9207 16.7251 22.6418 16.5845 22.2914 16.4078L22.2901 16.4071C21.8911 16.2031 21.4381 15.9751 20.7031 15.9751C19.9735 15.9751 19.5218 16.2027 19.125 16.4026L19.1161 16.4071L19.1148 16.4078C18.7644 16.5845 18.4855 16.7251 18.0031 16.7251C17.5207 16.7251 17.2418 16.5845 16.8914 16.4078L16.8901 16.4071C16.4911 16.2031 16.0381 15.9751 15.3031 15.9751C14.5735 15.9751 14.1218 16.2027 13.725 16.4026L13.7161 16.4071L13.7147 16.4078C13.3644 16.5845 13.0855 16.7251 12.6031 16.7251V16.6501C13.0855 16.6501 13.3644 16.5095 13.7147 16.3328L13.7161 16.3321C14.1151 16.1281 14.5681 15.9001 15.3031 15.9001C16.0381 15.9001 16.4911 16.1281 16.8901 16.3321L16.8914 16.3328C17.2418 16.5095 17.5207 16.6501 18.0031 16.6501C18.4855 16.6501 18.7644 16.5095 19.1148 16.3328L19.1161 16.3321Z" fill="white" fill-opacity="0.2"/>
</g>
<mask id="mask2" style="mask-type:alpha" maskUnits="userSpaceOnUse" x="12" y="13" width="12" height="10">
<path fill-rule="evenodd" clip-rule="evenodd" d="M20.7031 20.7C19.9681 20.7 19.5151 20.928 19.1161 21.132C18.7651 21.309 18.4861 21.45 18.0031 21.45C17.5201 21.45 17.2411 21.309 16.8901 21.132C16.4911 20.928 16.0381 20.7 15.3031 20.7C14.5681 20.7 14.1151 20.928 13.7161 21.132C13.3651 21.309 13.0861 21.45 12.6031 21.45V22.5C13.3381 22.5 13.7911 22.272 14.1901 22.068C14.5411 21.891 14.8201 21.75 15.3031 21.75C15.7861 21.75 16.0651 21.891 16.4161 22.068C16.8151 22.269 17.2681 22.5 18.0031 22.5C18.7381 22.5 19.1911 22.272 19.5901 22.068C19.9411 21.891 20.2201 21.75 20.7031 21.75C21.1861 21.75 21.4651 21.891 21.8161 22.068C22.2151 22.269 22.6681 22.5 23.4031 22.5V21.45C22.9201 21.45 22.6411 21.309 22.2901 21.132C21.8911 20.928 21.4381 20.7 20.7031 20.7ZM20.7031 18.2999C19.9681 18.2999 19.5151 18.5279 19.1161 18.7319C18.7651 18.9089 18.4861 19.0499 18.0031 19.0499C17.5201 19.0499 17.2411 18.9089 16.8901 18.7319C16.4911 18.5279 16.0381 18.2999 15.3031 18.2999C14.5681 18.2999 14.1151 18.5279 13.7161 18.7319C13.3651 18.9089 13.0861 19.0499 12.6031 19.0499V20.0999C13.3381 20.0999 13.7911 19.8719 14.1901 19.6679C14.5411 19.4909 14.8201 19.3499 15.3031 19.3499C15.7861 19.3499 16.0651 19.4909 16.4161 19.6679C16.8151 19.8689 17.2681 20.0999 18.0031 20.0999C18.7381 20.0999 19.1911 19.8719 19.5901 19.6679C19.9411 19.4909 20.2201 19.3499 20.7031 19.3499C21.1861 19.3499 21.4651 19.4909 21.8161 19.6679C22.2151 19.8689 22.6681 20.0999 23.4031 20.0999V19.0499C22.9201 19.0499 22.6411 18.9089 22.2901 18.7319C21.8911 18.5279 21.4381 18.2999 20.7031 18.2999ZM22.29 13.932C21.891 13.728 21.438 13.5 20.703 13.5C19.968 13.5 19.515 13.728 19.116 13.932C18.765 14.109 18.486 14.25 18.003 14.25C17.52 14.25 17.241 14.109 16.89 13.932C16.491 13.728 16.038 13.5 15.303 13.5C14.568 13.5 14.115 13.728 13.716 13.932C13.365 14.109 13.086 14.25 12.603 14.25V15.3C13.338 15.3 13.791 15.072 14.19 14.868C14.541 14.691 14.82 14.55 15.303 14.55C15.786 14.55 16.065 14.691 16.416 14.868C16.815 15.069 17.268 15.3 18.003 15.3C18.738 15.3 19.191 15.072 19.59 14.868C19.941 14.691 20.22 14.55 20.703 14.55C21.186 14.55 21.465 14.691 21.816 14.868C22.215 15.069 22.668 15.3 23.403 15.3V14.25C22.92 14.25 22.641 14.109 22.29 13.932ZM20.7031 15.9001C19.9681 15.9001 19.5151 16.1281 19.1161 16.3321C18.7651 16.5091 18.4861 16.6501 18.0031 16.6501C17.5201 16.6501 17.2411 16.5091 16.8901 16.3321C16.4911 16.1281 16.0381 15.9001 15.3031 15.9001C14.5681 15.9001 14.1151 16.1281 13.7161 16.3321C13.3651 16.5091 13.0861 16.6501 12.6031 16.6501V17.7001C13.3381 17.7001 13.7911 17.4721 14.1901 17.2681C14.5411 17.0911 14.8201 16.9501 15.3031 16.9501C15.7861 16.9501 16.0651 17.0911 16.4161 17.2681C16.8151 17.4691 17.2681 17.7001 18.0031 17.7001C18.7381 17.7001 19.1911 17.4721 19.5901 17.2681C19.9411 17.0911 20.2201 16.9501 20.7031 16.9501C21.1861 16.9501 21.4651 17.0911 21.8161 17.2681C22.2151 17.4691 22.6681 17.7001 23.4031 17.7001V16.6501C22.9201 16.6501 22.6411 16.5091 22.2901 16.3321C21.8911 16.1281 21.4381 15.9001 20.7031 15.9001Z" fill="white"/>
</mask>
<g mask="url(#mask2)">
<path fill-rule="evenodd" clip-rule="evenodd" d="M21.816 14.7929L21.8147 14.7922C21.4643 14.6155 21.1854 14.4749 20.703 14.4749C20.2206 14.4749 19.9417 14.6155 19.5914 14.7922L19.59 14.7929L19.5811 14.7974C19.1843 14.9973 18.7326 15.2249 18.003 15.2249C17.268 15.2249 16.815 14.9969 16.416 14.7929L16.4147 14.7922C16.0643 14.6155 15.7854 14.4749 15.303 14.4749C14.8206 14.4749 14.5417 14.6155 14.1914 14.7922L14.19 14.7929L14.1811 14.7974C13.7843 14.9973 13.3326 15.2249 12.603 15.2249V15.2999C13.338 15.2999 13.791 15.0719 14.19 14.8679L14.1914 14.8672C14.5417 14.6905 14.8206 14.5499 15.303 14.5499C15.7854 14.5499 16.0643 14.6905 16.4147 14.8672L16.416 14.8679L16.4249 14.8724C16.8218 15.0723 17.2735 15.2999 18.003 15.2999C18.738 15.2999 19.191 15.0719 19.59 14.8679L19.5914 14.8672C19.9417 14.6905 20.2206 14.5499 20.703 14.5499C21.1854 14.5499 21.4643 14.6905 21.8147 14.8672L21.816 14.8679L21.8249 14.8724C22.2218 15.0723 22.6735 15.2999 23.403 15.2999V15.2249C22.668 15.2249 22.215 14.9969 21.816 14.7929ZM19.5914 19.5925C19.9418 19.4158 20.2207 19.2751 20.7031 19.2751C21.1855 19.2751 21.461 19.4141 21.8084 19.5893L21.8161 19.5931C22.2151 19.7971 22.6681 20.0251 23.4031 20.0251V20.1001C22.6735 20.1001 22.2218 19.8726 21.825 19.6726L21.8161 19.6681L21.8148 19.6675C21.4644 19.4908 21.1855 19.3501 20.7031 19.3501C20.2207 19.3501 19.9418 19.4908 19.5914 19.6675L19.5901 19.6681C19.1911 19.8721 18.7381 20.1001 18.0031 20.1001C17.2735 20.1001 16.8218 19.8726 16.425 19.6726L16.4161 19.6681L16.4147 19.6675C16.0644 19.4908 15.7855 19.3501 15.3031 19.3501C14.8207 19.3501 14.5418 19.4908 14.1914 19.6675L14.1901 19.6681C13.7911 19.8721 13.3381 20.1001 12.6031 20.1001V20.0251C13.3326 20.0251 13.7843 19.7976 14.1812 19.5976L14.1901 19.5931L14.1914 19.5925C14.5418 19.4158 14.8207 19.2751 15.3031 19.2751C15.7855 19.2751 16.0644 19.4158 16.4148 19.5925L16.4161 19.5931C16.8151 19.7971 17.2681 20.0251 18.0031 20.0251C18.7326 20.0251 19.1843 19.7976 19.5812 19.5976L19.5901 19.5931L19.5914 19.5925ZM19.5914 21.9923C19.9418 21.8156 20.2207 21.6749 20.7031 21.6749C21.1855 21.6749 21.461 21.8139 21.8084 21.9891L21.8161 21.9929C22.2151 22.1969 22.6681 22.4249 23.4031 22.4249V22.4999C22.6735 22.4999 22.2218 22.2724 21.825 22.0724L21.8161 22.0679L21.8148 22.0673C21.4644 21.8906 21.1855 21.7499 20.7031 21.7499C20.2207 21.7499 19.9418 21.8906 19.5914 22.0673L19.5901 22.0679C19.1911 22.2719 18.7381 22.4999 18.0031 22.4999C17.2735 22.4999 16.8218 22.2724 16.425 22.0724L16.4161 22.0679L16.4147 22.0673C16.0644 21.8906 15.7855 21.7499 15.3031 21.7499C14.8207 21.7499 14.5418 21.8906 14.1914 22.0673L14.1901 22.0679C13.7911 22.2719 13.3381 22.4999 12.6031 22.4999V22.4249C13.3326 22.4249 13.7843 22.1974 14.1812 21.9974L14.1901 21.9929L14.1914 21.9923C14.5418 21.8156 14.8207 21.6749 15.3031 21.6749C15.7855 21.6749 16.0644 21.8156 16.4148 21.9923L16.4161 21.9929C16.8151 22.1969 17.2681 22.4249 18.0031 22.4249C18.7326 22.4249 19.1843 22.1974 19.5812 21.9974L19.5901 21.9929L19.5914 21.9923ZM19.5914 17.1924C19.9418 17.0157 20.2207 16.875 20.7031 16.875C21.1855 16.875 21.461 17.014 21.8084 17.1892L21.8161 17.193C22.2151 17.397 22.6681 17.625 23.4031 17.625V17.7C22.6735 17.7 22.2218 17.4725 21.825 17.2725L21.8161 17.268L21.8148 17.2674C21.4644 17.0907 21.1855 16.95 20.7031 16.95C20.2207 16.95 19.9418 17.0907 19.5914 17.2674L19.5901 17.268C19.1911 17.472 18.7381 17.7 18.0031 17.7C17.2735 17.7 16.8218 17.4725 16.425 17.2725L16.4161 17.268L16.4147 17.2674C16.0644 17.0907 15.7855 16.95 15.3031 16.95C14.8207 16.95 14.5418 17.0907 14.1914 17.2674L14.1901 17.268C13.7911 17.472 13.3381 17.7 12.6031 17.7V17.625C13.3326 17.625 13.7843 17.3975 14.1812 17.1975L14.1901 17.193L14.1914 17.1924C14.5418 17.0157 14.8207 16.875 15.3031 16.875C15.7855 16.875 16.0644 17.0157 16.4148 17.1924L16.4161 17.193C16.8151 17.397 17.2681 17.625 18.0031 17.625C18.7326 17.625 19.1843 17.3975 19.5812 17.1975L19.5901 17.193L19.5914 17.1924Z" fill="#212121" fill-opacity="0.1"/>
</g>
</svg>
