<svg width="42" height="42" viewBox="0 0 42 42" fill="none" xmlns="http://www.w3.org/2000/svg">
<path d="M34 42H8C3.58 42 0 38.42 0 34V8C0 3.58 3.58 0 8 0H34C38.42 0 42 3.58 42 8V34C42 38.42 38.42 42 34 42Z" fill="#A2CCFC"/>
<path d="M34 0H28.53C22.51 3.58 17.69 8.93 14.63 15.28C11.44 21.94 6.79 27.69 0 30.37V34C0 38.42 3.58 42 8 42H34C38.42 42 42 38.42 42 34V8C42 3.58 38.42 0 34 0Z" fill="#E8E8E8"/>
<path d="M39.22 4.56L31.5 7.5L24.13 14.37L21 21.3L39.64 39.67C41.1 38.22 42 36.22 42 34V8C42 6.77 41.71 5.6 41.21 4.56H39.22Z" fill="#C5E09E"/>
<path d="M21.9 21.2C24.31 16.16 28.77 6.92 41.51 5.28C41.26 4.6 40.93 3.96 40.52 3.38C27.26 5.39 22.63 15.05 20.1 20.34C15.15 30.68 6.67 36.13 0.790001 37.46C1.1 38.1 1.48 38.69 1.94 39.22C8.28 37.47 16.88 31.71 21.9 21.2Z" fill="white"/>
<path d="M40.31 38.9L21.63 20.22L20.22 21.63L38.9 40.31C39.43 39.9 39.9 39.43 40.31 38.9Z" fill="white"/>
<path fill-rule="evenodd" clip-rule="evenodd" d="M35 21C35 28.7315 28.7315 35 21 35C13.2685 35 7 28.7315 7 21C7 13.2685 13.2685 7 21 7C28.7315 7 35 13.2685 35 21" fill="#DF2A00" fill-opacity="0.16"/>
<path fill-rule="evenodd" clip-rule="evenodd" d="M21 9.33334C27.433 9.33334 32.6667 14.567 32.6667 21C32.6667 27.433 27.433 32.6667 21 32.6667C14.567 32.6667 9.33333 27.433 9.33333 21C9.33333 14.567 14.567 9.33334 21 9.33334Z" fill="#DF2A00"/>
<path fill-rule="evenodd" clip-rule="evenodd" d="M9.57717 18.6208C9.75828 17.7501 10.0368 16.9146 10.4007 16.1264C11.3232 15.6313 12.2196 15.1914 13.1154 14.7946C17.1708 12.9921 21.0838 13.0411 23.8476 14.9276C23.8919 14.9556 28.1188 18.0904 27.2869 19.6526C26.7234 20.7073 25.4016 20.1438 24.9676 19.9583C23.9351 19.5511 22.5923 19.2384 21.5796 19.8696C20.7781 20.3689 20.2799 21.2591 20.3091 22.1376C20.3429 23.1689 20.9111 24.2434 21.7231 24.8128C22.7159 25.5081 23.8289 26.0074 25.1228 26.3376C26.1331 26.5954 27.2344 26.7319 28.5866 26.7669C29.5394 26.7903 30.3858 26.7776 31.1629 26.7252C30.8007 27.3657 30.3797 27.9686 29.9073 28.5268C29.7648 28.5288 29.6202 28.5298 29.4733 28.5298C29.1723 28.5298 28.8631 28.5251 28.5411 28.5169C27.0536 28.4773 25.8298 28.3233 24.6899 28.0328C23.2083 27.6548 21.8724 27.0528 20.7198 26.2466C19.4598 25.3634 18.6116 23.7733 18.5603 22.1948C18.5101 20.7026 19.3326 19.2069 20.6544 18.3844C21.7593 17.6949 23.1534 17.5748 24.7261 18.0239C24.1976 17.4534 23.5163 16.8188 22.8618 16.3731C19.6628 14.1879 15.4756 15.6614 13.8248 16.3941C12.6126 16.9319 11.3969 17.5514 10.1089 18.2899C10.0602 18.3183 9.83914 18.4564 9.57717 18.6208Z" fill="white"/>
<mask id="mask0" mask-type="alpha" maskUnits="userSpaceOnUse" x="9" y="13" width="23" height="16">
<path fill-rule="evenodd" clip-rule="evenodd" d="M9.57717 18.6208C9.75828 17.7501 10.0368 16.9146 10.4007 16.1264C11.3232 15.6313 12.2196 15.1914 13.1154 14.7946C17.1708 12.9921 21.0838 13.0411 23.8476 14.9276C23.8919 14.9556 28.1188 18.0904 27.2869 19.6526C26.7234 20.7073 25.4016 20.1438 24.9676 19.9583C23.9351 19.5511 22.5923 19.2384 21.5796 19.8696C20.7781 20.3689 20.2799 21.2591 20.3091 22.1376C20.3429 23.1689 20.9111 24.2434 21.7231 24.8128C22.7159 25.5081 23.8289 26.0074 25.1228 26.3376C26.1331 26.5954 27.2344 26.7319 28.5866 26.7669C29.5394 26.7903 30.3858 26.7776 31.1629 26.7252C30.8007 27.3657 30.3797 27.9686 29.9073 28.5268C29.7648 28.5288 29.6202 28.5298 29.4733 28.5298C29.1723 28.5298 28.8631 28.5251 28.5411 28.5169C27.0536 28.4773 25.8298 28.3233 24.6899 28.0328C23.2083 27.6548 21.8724 27.0528 20.7198 26.2466C19.4598 25.3634 18.6116 23.7733 18.5603 22.1948C18.5101 20.7026 19.3326 19.2069 20.6544 18.3844C21.7593 17.6949 23.1534 17.5748 24.7261 18.0239C24.1976 17.4534 23.5163 16.8188 22.8618 16.3731C19.6628 14.1879 15.4756 15.6614 13.8248 16.3941C12.6126 16.9319 11.3969 17.5514 10.1089 18.2899C10.0602 18.3183 9.83914 18.4564 9.57717 18.6208Z" fill="white"/>
</mask>
<g mask="url(#mask0)">
</g>
</svg>
