<svg width="42" height="42" viewBox="0 0 42 42" fill="none" xmlns="http://www.w3.org/2000/svg">
<path d="M34 42H8C3.58 42 0 38.42 0 34V8C0 3.58 3.58 0 8 0H34C38.42 0 42 3.58 42 8V34C42 38.42 38.42 42 34 42Z" fill="#A2CCFC"/>
<path d="M34 0H28.53C22.51 3.58 17.69 8.93 14.63 15.28C11.44 21.94 6.79 27.69 0 30.37V34C0 38.42 3.58 42 8 42H34C38.42 42 42 38.42 42 34V8C42 3.58 38.42 0 34 0Z" fill="#E8E8E8"/>
<path d="M39.22 4.56L31.5 7.5L24.13 14.37L21 21.3L39.64 39.67C41.1 38.22 42 36.22 42 34V8C42 6.77 41.71 5.6 41.21 4.56H39.22Z" fill="#C5E09E"/>
<path d="M21.9 21.2C24.31 16.16 28.77 6.92 41.51 5.28C41.26 4.6 40.93 3.96 40.52 3.38C27.26 5.39 22.63 15.05 20.1 20.34C15.15 30.68 6.67 36.13 0.790001 37.46C1.1 38.1 1.48 38.69 1.94 39.22C8.28 37.47 16.88 31.71 21.9 21.2Z" fill="white"/>
<path d="M40.31 38.9L21.63 20.22L20.22 21.63L38.9 40.31C39.43 39.9 39.9 39.43 40.31 38.9Z" fill="white"/>
<path fill-rule="evenodd" clip-rule="evenodd" d="M21 35C13.2685 35 7 28.7315 7 21C7 13.2685 13.2685 7 21 7C28.7315 7 35 13.2685 35 21C35 28.7315 28.7315 35 21 35Z" fill="#DF2A00" fill-opacity="0.16"/>
<path fill-rule="evenodd" clip-rule="evenodd" d="M21 9.33333C27.433 9.33333 32.6667 14.567 32.6667 21C32.6667 27.433 27.433 32.6667 21 32.6667C14.567 32.6667 9.33333 27.433 9.33333 21C9.33333 14.567 14.567 9.33333 21 9.33333Z" fill="#DF2A00"/>
<path fill-rule="evenodd" clip-rule="evenodd" d="M24.4386 15.6771C24.4386 14.1083 23.2824 12.8333 21.8597 12.8333H21V14.7292H21.8597C22.3325 14.7292 22.7193 15.1557 22.7193 15.6771C22.7193 16.1984 22.3325 16.625 21.8597 16.625H12.8333V18.5208H21.8597C23.2824 18.5208 24.4386 17.2459 24.4386 15.6771ZM26.5877 19.4688H12.8333V21.3646H26.5877C27.0605 21.3646 27.4474 21.7911 27.4474 22.3125C27.4474 22.8339 27.0605 23.2604 26.5877 23.2604H25.7281V25.1562H26.5877C28.0104 25.1562 29.1667 23.8813 29.1667 22.3125C29.1667 20.7437 28.0104 19.4688 26.5877 19.4688ZM18.4211 22.3125H12.8333V24.2083H18.4211C18.8939 24.2083 19.2807 24.6349 19.2807 25.1562C19.2807 25.6776 18.8939 26.1042 18.4211 26.1042H17.5614V28H18.4211C19.8438 28 21 26.7251 21 25.1562C21 23.5874 19.8438 22.3125 18.4211 22.3125Z" fill="white"/>
</svg>
