<svg width="42" height="42" viewBox="0 0 42 42" fill="none" xmlns="http://www.w3.org/2000/svg">
<path d="M34 42H8C3.58 42 0 38.42 0 34V8C0 3.58 3.58 0 8 0H34C38.42 0 42 3.58 42 8V34C42 38.42 38.42 42 34 42Z" fill="#A2CCFC"/>
<path d="M34 0H28.53C22.51 3.58 17.69 8.93 14.63 15.28C11.44 21.94 6.79 27.69 0 30.37V34C0 38.42 3.58 42 8 42H34C38.42 42 42 38.42 42 34V8C42 3.58 38.42 0 34 0Z" fill="#E8E8E8"/>
<path d="M39.22 4.56L31.5 7.5L24.13 14.37L21 21.3L39.64 39.67C41.1 38.22 42 36.22 42 34V8C42 6.77 41.71 5.6 41.21 4.56H39.22Z" fill="#C5E09E"/>
<path d="M21.9 21.2C24.31 16.16 28.77 6.92 41.51 5.28C41.26 4.6 40.93 3.96 40.52 3.38C27.26 5.39 22.63 15.05 20.1 20.34C15.15 30.68 6.67 36.13 0.790001 37.46C1.1 38.1 1.48 38.69 1.94 39.22C8.28 37.47 16.88 31.71 21.9 21.2Z" fill="white"/>
<path d="M40.31 38.9L21.63 20.22L20.22 21.63L38.9 40.31C39.43 39.9 39.9 39.43 40.31 38.9Z" fill="white"/>
<path fill-rule="evenodd" clip-rule="evenodd" d="M35 21C35 28.7315 28.7315 35 21 35C13.2685 35 7 28.7315 7 21C7 13.2685 13.2685 7 21 7C28.7315 7 35 13.2685 35 21" fill="#DF2A00" fill-opacity="0.16"/>
<path fill-rule="evenodd" clip-rule="evenodd" d="M9.33333 21C9.33333 14.567 14.567 9.33333 21 9.33333C27.433 9.33333 32.6667 14.567 32.6667 21C32.6667 27.433 27.433 32.6667 21 32.6667C14.567 32.6667 9.33333 27.433 9.33333 21" fill="#DF2A00"/>
<path fill-rule="evenodd" clip-rule="evenodd" d="M20.0993 26.4687C19.8812 26.9109 20.083 27.4511 20.51 27.6704C20.7142 27.7754 20.9463 27.8419 21.175 27.8326C25.0087 27.7054 27.5882 23.3899 23.8338 18.8154C23.8782 23.3327 21.0922 24.4679 20.0993 26.4687" fill="white"/>
<path fill-rule="evenodd" clip-rule="evenodd" d="M20.8672 14.1664C20.3084 15.606 19.4637 16.8719 18.5012 18.0619C16.4677 20.5714 14.9849 24.4202 18.2259 26.6952C18.2259 24.9557 19.6971 23.4437 20.7109 22.1732C21.6676 20.9727 22.7117 19.6835 22.9159 18.1097C23.1364 16.4192 22.0677 15.2024 20.8672 14.1664" fill="white"/>
</svg>
