<svg width="42" height="42" viewBox="0 0 42 42" fill="none" xmlns="http://www.w3.org/2000/svg">
<path d="M34 42H8C3.58 42 0 38.42 0 34V8C0 3.58 3.58 0 8 0H34C38.42 0 42 3.58 42 8V34C42 38.42 38.42 42 34 42Z" fill="#A2CCFC"/>
<path d="M34 0H28.53C22.51 3.58 17.69 8.93 14.63 15.28C11.44 21.94 6.79 27.69 0 30.37V34C0 38.42 3.58 42 8 42H34C38.42 42 42 38.42 42 34V8C42 3.58 38.42 0 34 0Z" fill="#E8E8E8"/>
<path d="M39.22 4.56L31.5 7.5L24.13 14.37L21 21.3L39.64 39.67C41.1 38.22 42 36.22 42 34V8C42 6.77 41.71 5.6 41.21 4.56H39.22Z" fill="#C5E09E"/>
<path d="M21.9 21.2C24.31 16.16 28.77 6.92 41.51 5.28C41.26 4.6 40.93 3.96 40.52 3.38C27.26 5.39 22.63 15.05 20.1 20.34C15.15 30.68 6.67 36.13 0.790001 37.46C1.1 38.1 1.48 38.69 1.94 39.22C8.28 37.47 16.88 31.71 21.9 21.2Z" fill="white"/>
<path d="M40.31 38.9L21.63 20.22L20.22 21.63L38.9 40.31C39.43 39.9 39.9 39.43 40.31 38.9Z" fill="white"/>
<path fill-rule="evenodd" clip-rule="evenodd" d="M35 21C35 28.7315 28.7315 35 21 35C13.2685 35 7 28.7315 7 21C7 13.2685 13.2685 7 21 7C28.7315 7 35 13.2685 35 21" fill="#DF2A00" fill-opacity="0.16"/>
<path fill-rule="evenodd" clip-rule="evenodd" d="M9.33333 21C9.33333 14.567 14.567 9.33334 21 9.33334C27.433 9.33334 32.6667 14.567 32.6667 21C32.6667 27.433 27.433 32.6667 21 32.6667C14.567 32.6667 9.33333 27.433 9.33333 21" fill="#DF2A00"/>
<path fill-rule="evenodd" clip-rule="evenodd" d="M24.7877 18.4206C23.6035 18.4206 22.984 17.8186 22.4859 17.3356C22.0332 16.8958 21.7065 16.5796 20.9949 16.5796C20.2832 16.5796 19.9565 16.8958 19.505 17.3344C19.0069 17.8186 18.3885 18.4206 17.2044 18.4206C16.0202 18.4206 15.4019 17.8186 14.9037 17.3344C14.4534 16.8958 14.1267 16.5796 13.4162 16.5796C13.0942 16.5796 12.8329 16.3183 12.8329 15.9963C12.8329 15.6743 13.0942 15.4129 13.4162 15.4129C14.6004 15.4129 15.2199 16.0138 15.718 16.4991C16.1684 16.9378 16.495 17.2539 17.2044 17.2539C17.9149 17.2539 18.2404 16.9378 18.6919 16.4991C19.19 16.0138 19.8095 15.4129 20.9949 15.4129C22.1802 15.4129 22.7997 16.0138 23.2979 16.4991C23.7505 16.9378 24.0772 17.2539 24.7877 17.2539C25.5005 17.2539 25.8272 16.9378 26.2799 16.4979C26.778 16.0138 27.3987 15.4129 28.5829 15.4129C28.906 15.4129 29.1662 15.6743 29.1662 15.9963C29.1662 16.3183 28.906 16.5796 28.5829 16.5796C27.8712 16.5796 27.5445 16.8958 27.0919 17.3344C26.5937 17.8186 25.973 18.4206 24.7877 18.4206" fill="white"/>
<path fill-rule="evenodd" clip-rule="evenodd" d="M24.7877 22.5039C23.6035 22.5039 22.984 21.9019 22.4859 21.4189C22.0332 20.9791 21.7065 20.6629 20.9949 20.6629C20.2832 20.6629 19.9565 20.9791 19.505 21.4178C19.0069 21.9019 18.3885 22.5039 17.2044 22.5039C16.0202 22.5039 15.4019 21.9019 14.9037 21.4178C14.4534 20.9791 14.1267 20.6629 13.4162 20.6629C13.0942 20.6629 12.8329 20.4016 12.8329 20.0796C12.8329 19.7576 13.0942 19.4963 13.4162 19.4963C14.6004 19.4963 15.2199 20.0971 15.718 20.5824C16.1684 21.0211 16.495 21.3373 17.2044 21.3373C17.9149 21.3373 18.2404 21.0211 18.6919 20.5824C19.19 20.0971 19.8095 19.4963 20.9949 19.4963C22.1802 19.4963 22.7997 20.0971 23.2979 20.5824C23.7505 21.0211 24.0772 21.3373 24.7877 21.3373C25.5005 21.3373 25.8272 21.0211 26.2799 20.5813C26.778 20.0971 27.3987 19.4963 28.5829 19.4963C28.906 19.4963 29.1662 19.7576 29.1662 20.0796C29.1662 20.4016 28.906 20.6629 28.5829 20.6629C27.8712 20.6629 27.5445 20.9791 27.0919 21.4178C26.5937 21.9019 25.973 22.5039 24.7877 22.5039" fill="white"/>
<path fill-rule="evenodd" clip-rule="evenodd" d="M24.7877 26.5873C23.6035 26.5873 22.984 25.9853 22.4859 25.5023C22.0332 25.0624 21.7065 24.7463 20.9949 24.7463C20.2832 24.7463 19.9565 25.0624 19.505 25.5011C19.0069 25.9853 18.3885 26.5873 17.2044 26.5873C16.0202 26.5873 15.4019 25.9853 14.9037 25.5011C14.4534 25.0624 14.1267 24.7463 13.4162 24.7463C13.0942 24.7463 12.8329 24.4849 12.8329 24.1629C12.8329 23.8409 13.0942 23.5796 13.4162 23.5796C14.6004 23.5796 15.2199 24.1804 15.718 24.6658C16.1684 25.1044 16.495 25.4206 17.2044 25.4206C17.9149 25.4206 18.2404 25.1044 18.6919 24.6658C19.19 24.1804 19.8095 23.5796 20.9949 23.5796C22.1802 23.5796 22.7997 24.1804 23.2979 24.6658C23.7505 25.1044 24.0772 25.4206 24.7877 25.4206C25.5005 25.4206 25.8272 25.1044 26.2799 24.6646C26.778 24.1804 27.3987 23.5796 28.5829 23.5796C28.906 23.5796 29.1662 23.8409 29.1662 24.1629C29.1662 24.4849 28.906 24.7463 28.5829 24.7463C27.8712 24.7463 27.5445 25.0624 27.0919 25.5011C26.5937 25.9853 25.973 26.5873 24.7877 26.5873" fill="white"/>
</svg>
