<svg width="42" height="42" viewBox="0 0 42 42" fill="none" xmlns="http://www.w3.org/2000/svg">
<path d="M34 42H8C3.58 42 0 38.42 0 34V8C0 3.58 3.58 0 8 0H34C38.42 0 42 3.58 42 8V34C42 38.42 38.42 42 34 42Z" fill="#A2CCFC"/>
<path d="M34 0H28.53C22.51 3.58 17.69 8.93 14.63 15.28C11.44 21.94 6.79 27.69 0 30.37V34C0 38.42 3.58 42 8 42H34C38.42 42 42 38.42 42 34V8C42 3.58 38.42 0 34 0Z" fill="#E8E8E8"/>
<path d="M39.22 4.56L31.5 7.5L24.13 14.37L21 21.3L39.64 39.67C41.1 38.22 42 36.22 42 34V8C42 6.77 41.71 5.6 41.21 4.56H39.22Z" fill="#C5E09E"/>
<path d="M21.9 21.2C24.31 16.16 28.77 6.92 41.51 5.28C41.26 4.6 40.93 3.96 40.52 3.38C27.26 5.39 22.63 15.05 20.1 20.34C15.15 30.68 6.67 36.13 0.790001 37.46C1.1 38.1 1.48 38.69 1.94 39.22C8.28 37.47 16.88 31.71 21.9 21.2Z" fill="white"/>
<path d="M40.31 38.9L21.63 20.22L20.22 21.63L38.9 40.31C39.43 39.9 39.9 39.43 40.31 38.9Z" fill="white"/>
<path fill-rule="evenodd" clip-rule="evenodd" d="M35 21C35 28.7315 28.7315 35 21 35C13.2685 35 7 28.7315 7 21C7 13.2685 13.2685 7 21 7C28.7315 7 35 13.2685 35 21" fill="#DF2A00" fill-opacity="0.16"/>
<path fill-rule="evenodd" clip-rule="evenodd" d="M9.33333 21C9.33333 14.567 14.567 9.33333 21 9.33333C27.433 9.33333 32.6667 14.567 32.6667 21C32.6667 27.433 27.433 32.6667 21 32.6667C14.567 32.6667 9.33333 27.433 9.33333 21" fill="#DF2A00"/>
<path fill-rule="evenodd" clip-rule="evenodd" d="M21.5833 23.3333C21.5833 23.3333 19.8333 24.4598 19.8333 26.069C19.8333 27.1375 20.615 28 21.5833 28C22.5517 28 23.3333 27.1375 23.3333 26.069C23.3333 24.4598 21.5833 23.3333 21.5833 23.3333ZM18.6083 22.1667C18.3381 20.8354 17.1611 19.8333 15.75 19.8333C15.393 19.8333 15.051 19.8975 14.7349 20.0148C14.2697 19.2891 14 18.426 14 17.5C14 14.9227 16.0893 12.8333 18.6667 12.8333C20.8411 12.8333 22.6683 14.3206 23.1863 16.3333H25.6667C27.2775 16.3333 28.5833 17.6392 28.5833 19.25C28.5833 20.8608 27.2775 22.1667 25.6667 22.1667H18.6083Z" fill="white"/>
<path d="M26.8333 23.3333C26.8333 23.3333 25.6667 24.1782 25.6667 25.3851C25.6667 26.1864 26.1878 26.8333 26.8333 26.8333C27.4789 26.8333 28 26.1864 28 25.3851C28 24.1782 26.8333 23.3333 26.8333 23.3333Z" fill="white"/>
<path d="M16.3333 21C16.3333 21 15.1667 21.8448 15.1667 23.0517C15.1667 23.8531 15.6878 24.5 16.3333 24.5C16.9789 24.5 17.5 23.8531 17.5 23.0517C17.5 21.8448 16.3333 21 16.3333 21Z" fill="white"/>
</svg>
