<?xml version="1.0" encoding="UTF-8"?>
<svg width="42px" height="42px" viewBox="0 0 42 42" version="1.1" xmlns="http://www.w3.org/2000/svg" xmlns:xlink="http://www.w3.org/1999/xlink">
    <title>ic_covid19</title>
    <g id="Page-1" stroke="none" stroke-width="1" fill="none" fill-rule="evenodd">
        <g id="ic_covid19" fill-rule="nonzero">
            <path d="M34,42 L8,42 C3.58,42 0,38.42 0,34 L0,8 C0,3.58 3.58,0 8,0 L34,0 C38.42,0 42,3.58 42,8 L42,34 C42,38.42 38.42,42 34,42 Z" id="Path" fill="#A2CCFC"></path>
            <path d="M34,0 L28.53,0 C22.51,3.58 17.69,8.93 14.63,15.28 C11.44,21.94 6.79,27.69 0,30.37 L0,34 C0,38.42 3.58,42 8,42 L34,42 C38.42,42 42,38.42 42,34 L42,8 C42,3.58 38.42,0 34,0 Z" id="Path" fill="#E8E8E8"></path>
            <path d="M39.22,4.56 L31.5,7.5 L24.13,14.37 L21,21.3 L39.64,39.67 C41.1,38.22 42,36.22 42,34 L42,8 C42,6.77 41.71,5.6 41.21,4.56 L39.22,4.56 Z" id="Path" fill="#C5E09E"></path>
            <path d="M21.9,21.2 C24.31,16.16 28.77,6.92 41.51,5.28 C41.26,4.6 40.93,3.96 40.52,3.38 C27.26,5.39 22.63,15.05 20.1,20.34 C15.15,30.68 6.67,36.13 0.79,37.46 C1.1,38.1 1.48,38.69 1.94,39.22 C8.28,37.47 16.88,31.71 21.9,21.2 Z" id="Path" fill="#FFFFFF"></path>
            <path d="M40.31,38.9 L21.63,20.22 L20.22,21.63 L38.9,40.31 C39.43,39.9 39.9,39.43 40.31,38.9 L40.31,38.9 Z" id="Path" fill="#FFFFFF"></path>
            <path d="M21,35 C28.7311111,35 35,28.7311111 35,21 C35,13.2688889 28.7311111,7 21,7 C13.2688889,7 7,13.2688889 7,21 C7,28.7311111 13.2688889,35 21,35 Z" id="Path" fill="#C5221F"></path>
            <path d="M29.7111111,24.6244444 L22.6333333,12.3822222 C21.9022222,11.1377778 20.0977778,11.1377778 19.3822222,12.3822222 L12.2888889,24.6244444 C11.5577778,25.8688889 12.46,27.44 13.9222222,27.44 L28.0933333,27.44 C29.54,27.44 30.4422222,25.8688889 29.7111111,24.6244444 Z M13.9222222,25.5577778 L21,13.3155556 L28.0777778,25.5577778 L13.9222222,25.5577778 Z" id="Shape" fill="#FFFFFF"></path>
            <path d="M20.0666667,18.0444444 L20.0666667,19.9266667 C20.0666667,20.44 20.4866667,20.86 21,20.86 C21.5133333,20.86 21.9333333,20.44 21.9333333,19.9266667 L21.9333333,18.0444444 C21.9333333,17.5311111 21.5133333,17.1111111 21,17.1111111 C20.4866667,17.0955556 20.0666667,17.5155556 20.0666667,18.0444444 Z" id="Path" fill="#FFFFFF"></path>
            <path d="M21,24.6244444 C21.5133333,24.6244444 21.9333333,24.2044444 21.9333333,23.6911111 C21.9333333,23.1777778 21.5133333,22.7577778 21,22.7577778 C20.4866667,22.7577778 20.0666667,23.1777778 20.0666667,23.6911111 C20.0666667,24.2044444 20.4866667,24.6244444 21,24.6244444 Z" id="Path" fill="#FFFFFF"></path>
        </g>
    </g>
</svg>
