<svg width="42" height="42" viewBox="0 0 42 42" fill="none" xmlns="http://www.w3.org/2000/svg">
<path d="M34 42H8C3.58 42 0 38.42 0 34V8C0 3.58 3.58 0 8 0H34C38.42 0 42 3.58 42 8V34C42 38.42 38.42 42 34 42Z" fill="#A2CCFC"/>
<path d="M34 0H28.53C22.51 3.58 17.69 8.93 14.63 15.28C11.44 21.94 6.79 27.69 0 30.37V34C0 38.42 3.58 42 8 42H34C38.42 42 42 38.42 42 34V8C42 3.58 38.42 0 34 0Z" fill="#E8E8E8"/>
<path d="M39.22 4.56L31.5 7.5L24.13 14.37L21 21.3L39.64 39.67C41.1 38.22 42 36.22 42 34V8C42 6.77 41.71 5.6 41.21 4.56H39.22Z" fill="#C5E09E"/>
<path d="M21.9 21.2C24.31 16.16 28.77 6.92 41.51 5.28C41.26 4.6 40.93 3.96 40.52 3.38C27.26 5.39 22.63 15.05 20.1 20.34C15.15 30.68 6.67 36.13 0.790001 37.46C1.1 38.1 1.48 38.69 1.94 39.22C8.28 37.47 16.88 31.71 21.9 21.2Z" fill="white"/>
<path d="M40.31 38.9L21.63 20.22L20.22 21.63L38.9 40.31C39.43 39.9 39.9 39.43 40.31 38.9Z" fill="white"/>
<path fill-rule="evenodd" clip-rule="evenodd" d="M35 21C35 28.7315 28.7315 35 21 35C13.2685 35 7 28.7315 7 21C7 13.2685 13.2685 7 21 7C28.7315 7 35 13.2685 35 21" fill="#DF2A00" fill-opacity="0.16"/>
<path fill-rule="evenodd" clip-rule="evenodd" d="M9.33333 21C9.33333 14.567 14.567 9.33334 21 9.33334C27.433 9.33334 32.6667 14.567 32.6667 21C32.6667 27.433 27.433 32.6667 21 32.6667C14.567 32.6667 9.33333 27.433 9.33333 21" fill="#DF2A00"/>
<path fill-rule="evenodd" clip-rule="evenodd" d="M27.5955 16.4632H14.404C14.0179 16.4632 13.704 16.1493 13.704 15.7632C13.704 15.377 14.0179 15.0643 14.404 15.0643H27.5955C27.9829 15.0643 28.2955 15.377 28.2955 15.7632C28.2955 16.1493 27.9829 16.4632 27.5955 16.4632" fill="white"/>
<path fill-rule="evenodd" clip-rule="evenodd" d="M26.3344 19.5405H16.8295C16.4422 19.5405 16.1295 19.2267 16.1295 18.8405C16.1295 18.4543 16.4422 18.1417 16.8295 18.1417H26.3344C26.7217 18.1417 27.0344 18.4543 27.0344 18.8405C27.0344 19.2267 26.7217 19.5405 26.3344 19.5405" fill="white"/>
<path fill-rule="evenodd" clip-rule="evenodd" d="M24.2978 22.6178H18.6243C18.237 22.6178 17.9243 22.304 17.9243 21.9178C17.9243 21.5317 18.237 21.219 18.6243 21.219H24.2978C24.6851 21.219 24.9978 21.5317 24.9978 21.9178C24.9978 22.304 24.6851 22.6178 24.2978 22.6178" fill="white"/>
<path fill-rule="evenodd" clip-rule="evenodd" d="M22.1639 25.6952H20.2739C19.8877 25.6952 19.5739 25.3813 19.5739 24.9952C19.5739 24.609 19.8877 24.2963 20.2739 24.2963H22.1639C22.5512 24.2963 22.8639 24.609 22.8639 24.9952C22.8639 25.3813 22.5512 25.6952 22.1639 25.6952" fill="white"/>
<path fill-rule="evenodd" clip-rule="evenodd" d="M20.2742 28.8625C20.168 28.8625 20.077 28.8473 19.986 28.8158C19.895 28.768 19.804 28.7202 19.7434 28.6408C19.6675 28.5627 19.6069 28.4822 19.5765 28.3877C19.531 28.2932 19.5159 28.1812 19.5159 28.0692C19.5159 27.8638 19.5917 27.6573 19.7434 27.515C20.0164 27.2128 20.532 27.2292 20.805 27.515C20.9567 27.6573 21.0325 27.8638 21.0325 28.0692C21.0325 28.1812 21.0174 28.2757 20.9719 28.3877C20.9415 28.4822 20.8809 28.5627 20.805 28.6408C20.7444 28.7202 20.6534 28.768 20.5624 28.8158C20.4714 28.8473 20.3804 28.8625 20.2742 28.8625" fill="white"/>
</svg>
