<svg width="42" height="42" viewBox="0 0 42 42" fill="none" xmlns="http://www.w3.org/2000/svg">
<path d="M34 42H8C3.58 42 0 38.42 0 34V8C0 3.58 3.58 0 8 0H34C38.42 0 42 3.58 42 8V34C42 38.42 38.42 42 34 42Z" fill="#A2CCFC"/>
<path d="M34 0H28.53C22.51 3.58 17.69 8.93 14.63 15.28C11.44 21.94 6.79 27.69 0 30.37V34C0 38.42 3.58 42 8 42H34C38.42 42 42 38.42 42 34V8C42 3.58 38.42 0 34 0Z" fill="#E8E8E8"/>
<path d="M39.22 4.56L31.5 7.5L24.13 14.37L21 21.3L39.64 39.67C41.1 38.22 42 36.22 42 34V8C42 6.77 41.71 5.6 41.21 4.56H39.22Z" fill="#C5E09E"/>
<path d="M21.9 21.2C24.31 16.16 28.77 6.92 41.51 5.28C41.26 4.6 40.93 3.96 40.52 3.38C27.26 5.39 22.63 15.05 20.1 20.34C15.15 30.68 6.67 36.13 0.790001 37.46C1.1 38.1 1.48 38.69 1.94 39.22C8.28 37.47 16.88 31.71 21.9 21.2Z" fill="white"/>
<path d="M40.31 38.9L21.63 20.22L20.22 21.63L38.9 40.31C39.43 39.9 39.9 39.43 40.31 38.9Z" fill="white"/>
<path fill-rule="evenodd" clip-rule="evenodd" d="M7 21C7 28.7315 13.2685 35 21 35C28.7315 35 35 28.7315 35 21C35 13.2685 28.7315 7 21 7C13.2685 7 7 13.2685 7 21" fill="#DF2A00" fill-opacity="0.16"/>
<path fill-rule="evenodd" clip-rule="evenodd" d="M32.6667 21C32.6667 14.567 27.433 9.33334 21 9.33334C14.567 9.33334 9.33333 14.567 9.33333 21C9.33333 27.433 14.567 32.6667 21 32.6667C27.433 32.6667 32.6667 27.433 32.6667 21" fill="#DF2A00"/>
<path fill-rule="evenodd" clip-rule="evenodd" d="M21 22.6885C21.9333 22.6885 22.6893 21.9337 22.6893 21.0003C22.6893 20.067 21.9333 19.311 21 19.311C20.0678 19.311 19.3118 20.067 19.3118 21.0003C19.3118 21.9337 20.0678 22.6885 21 22.6885M13.8565 22.9615C14.2672 22.7819 14.7828 22.902 15.008 23.2299V23.231C15.7757 24.3475 17.0403 25.079 18.3948 25.3462C17.318 24.8282 16.3823 23.8762 15.7908 22.5357C15.3732 21.5942 15.1748 20.5629 15.176 19.5444C15.1772 17.1445 16.2598 14.7984 18.1148 13.522C18.4438 13.2957 18.858 13.4462 19.0388 13.8557C19.2197 14.2652 19.0995 14.782 18.7705 15.0072C17.6517 15.7749 16.9213 17.0407 16.653 18.3952C17.1722 17.3172 18.1253 16.3815 19.4647 15.79C20.4073 15.3735 21.4375 15.1752 22.456 15.1764C24.8558 15.1775 27.2008 16.2579 28.4783 18.1129C28.7047 18.4419 28.5553 18.8572 28.1458 19.038C27.734 19.2177 27.2195 19.0987 26.9932 18.7709V18.7697C26.2255 17.6532 24.962 16.9229 23.6075 16.6534C24.6843 17.1725 25.62 18.1245 26.2115 19.4639C26.628 20.4065 26.8252 21.4379 26.8252 22.4552C26.8252 24.855 25.7413 27.2012 23.8875 28.4787C23.5573 28.7039 23.1455 28.5534 22.9647 28.145C22.7838 27.7344 22.9028 27.2187 23.2318 26.9924C24.3495 26.2247 25.0798 24.9589 25.3482 23.6044C24.829 24.6824 23.877 25.6192 22.5377 26.2107C21.5938 26.626 20.5648 26.8255 19.544 26.8244C17.1465 26.8244 14.8003 25.7417 13.524 23.8867C13.2965 23.5577 13.4458 23.1435 13.8565 22.9615" fill="white"/>
</svg>
