<svg xmlns="http://www.w3.org/2000/svg" width="24" height="24" viewBox="0 0 24 24"><path d="M11 8H7V13H11V8Z"/><path d="M17 8H13V13H17V8Z"/><path d="M8.2 17.4C8.86274 17.4 9.4 16.8627 9.4 16.2C9.4 15.5373 8.86274 15 8.2 15C7.53726 15 7 15.5373 7 16.2C7 16.8627 7.53726 17.4 8.2 17.4Z"/><path d="M15.7 17.4C16.3627 17.4 16.9 16.8627 16.9 16.2C16.9 15.5373 16.3627 15 15.7 15C15.0373 15 14.5 15.5373 14.5 16.2C14.5 16.8627 15.0373 17.4 15.7 17.4Z"/><path d="M10 19L7.5 22H16.5L14 19H10Z"/><path d="M17.8 2.8C16 2.1 13.9 2 12 2C10.1 2 8 2.1 6.2 2.8C3.5 3.8 2 6 2 8.9V22H5L7.5 19H7C5.9 19 5 18.1 5 17.1V9V8.5C5 5.5 6.7 5 12 5C17.3 5 19 5.5 19 8.5V9V17C19 18.1 18.1 18.9 17.1 18.9H16.5L19 21.9H22V8.9C22 6 20.5 3.8 17.8 2.8Z"/></svg>
