<svg xmlns="http://www.w3.org/2000/svg" width="24" height="24" viewBox="0 0 24 24"><path d="M17 16.9C17.5 16.8 17.8 16.5 18 16L19.7 13C20 12.4 20 12 20 12V4C20 2.9 19.1 2 18 2H12.5H11.5H6C4.9 2 4 2.9 4 4V12C4 12 4 12.4 4.3 13L6 16C6.3 16.4 6.6 16.7 7.1 16.9L4 22H6.3L6.9 21H17.1L17.7 22H20L17 16.9ZM6 10V5H18V10H6ZM9.2 12.5C9.9 12.5 10.4 13.1 10.4 13.7C10.4 14.3 9.9 15 9.2 15C8.5 15 8 14.4 8 13.7C8 13 8.6 12.5 9.2 12.5ZM8.1 19L9.3 17H11.5H12.4H14.6L15.8 19H8.1ZM14.8 15C14.1 15 13.6 14.4 13.6 13.8C13.6 13.2 14.2 12.6 14.8 12.6C15.4 12.6 16 13.2 16 13.8C16 14.4 15.4 15 14.8 15Z"/></svg>
