<svg xmlns="http://www.w3.org/2000/svg" width="24" height="24"><g fill="none" fill-rule="evenodd"><path d="M0 0L24 0 24 24 0 24z"/><path fill="#000" d="M2.81,2.81 L21.19,21.19 L19.78,22.61 L15.681,18.510 C14.642,19.630 13.415,20.793 12,22 C6.667,17.451 4,13.517 4,10.196 C4,9.149 4.168,8.180 4.472,7.303 L1.39,4.22 L2.81,2.81 Z M6,10.196 C6,12.541 7.952,15.638 12,19.334 C12.847,18.561 13.602,17.813 14.27,17.094 L6.111,8.94 C6.038,9.342 6,9.761 6,10.196 Z M12,2 C16.198,2 20,5.216 20,10.196 C20,11.777 19.396,13.497 18.187,15.356 L16.738,13.909 C17.584,12.521 18,11.278 18,10.196 C18,6.566 15.346,4 12,4 C10.537,4 9.207,4.49 8.173,5.345 L6.757,3.928 C8.193,2.691 10.054,2 12,2 Z M12,7.5 C13.381,7.5 14.5,8.619 14.5,10 C14.5,10.478 14.366,10.924 14.133,11.304 L10.696,7.867 C11.076,7.634 11.522,7.5 12,7.5 Z"/></g></svg>