<?xml version="1.0" encoding="utf-8"?>
<!-- Generator: Adobe Illustrator 27.3.1, SVG Export Plug-In . SVG Version: 6.00 Build 0)  -->
<svg version="1.1" id="Layer_1" xmlns="http://www.w3.org/2000/svg" xmlns:xlink="http://www.w3.org/1999/xlink" x="0px" y="0px"
	 width="48px" height="48px" viewBox="0 0 48 48" enable-background="new 0 0 48 48" xml:space="preserve">
<g>
	<defs>
		<rect id="SVGID_1_" x="0.07" y="0.09" width="47.78" height="47.78"/>
	</defs>
	<clipPath id="SVGID_00000088105543519235385100000017088207432618089908_">
		<use xlink:href="#SVGID_1_"  overflow="visible"/>
	</clipPath>
	<g clip-path="url(#SVGID_00000088105543519235385100000017088207432618089908_)">
		<path fill="#F8F6F6" d="M8.04,0.09h31.85c4.4,0,7.96,3.57,7.96,7.96v31.85c0,4.4-3.57,7.96-7.96,7.96H8.04
			c-4.4,0-7.96-3.57-7.96-7.96V8.05C0.07,3.66,3.64,0.09,8.04,0.09z"/>
		<path fill="#84D8BD" d="M16.4,16.72V0.09h22.93c6.39,0,8.52,4.91,8.52,8.09c0.05,9.07,0.12,27.69,0,27.45
			c-0.15-0.3-1.81-2.72-2.12-3.48c-0.3-0.76-1.66-3.18-3.78-4.08c-2.12-0.91-1.06-2.12-1.51-2.87c-0.45-0.76,0.76-1.36,1.06-2.27
			c0.3-0.91-0.76-0.91-1.06-2.12c-0.3-1.21-3.33,1.21-5.29,1.21c-1.97,0-4.08-0.6-4.69-1.21c-0.6-0.6-1.21-1.06-2.72-1.21
			c-1.51-0.15-0.76-0.76-0.76-1.06c0-0.3,0.15-1.21-0.45-1.06c-0.6,0.15-1.06-0.3-1.97-0.76c-0.73-0.36-1.11-0.15-1.21,0H16.4z"/>
		<path fill="#99E2F9" d="M0.07,8.48c0-4.69,2.64-8.39,8.39-8.39h12.63c-0.45,1.21-0.6,0.48-0.6,1.81c0,1.66-0.3,1.36,0,2.87
			c0.19,0.95,0.3,1.06,0,1.66l-0.91-0.15c-0.47-0.09-0.62,0.03-0.76,0.45c0,0.55,0.33,1.51,1.66,2.12c1.33,0.6,0.55,1.56,0,1.97
			c-0.45,0.6,2.33,1.3,3.18,2.87c1.06,0.45-0.6,2.12-1.06,4.84c-0.45,2.72-0.15,2.42-0.91,4.38c-0.76,1.97-2.27,4.69-2.87,5.29
			c-0.6,0.6-3.18,1.06-3.93,1.06h-3.02c-4.08,0-3.02,2.87-3.78,4.08s1.81,3.17,1.66,4.84c-0.15,1.66,2.27,1.66,3.18,2.57
			c0.91,0.91,1.97,1.51,1.97,4.38c0.73,1.81,0.3,2.42,0,2.72h-7c-4.27,0-7.82-3.63-7.82-7.68L0.07,8.48z"/>
		<path fill-rule="evenodd" clip-rule="evenodd" fill="#C8D4DF" d="M28.19,30.9c0.2-1.73,0.46-3.65,0.63-4.89l1.2,0.17
			c-0.18,1.23-0.43,3.14-0.63,4.86c-0.1,0.86-0.18,1.67-0.23,2.32c-0.05,0.68-0.07,1.12-0.04,1.29c0.04,0.33,0.3,0.68,0.85,0.98
			c0.54,0.29,1.27,0.46,2.02,0.46c0.78,0,1.64,0.26,2.35,0.56c0.73,0.3,1.37,0.66,1.75,0.9l0.02,0.01l0.02,0.02
			c0.67,0.52,1.76,1.33,2.82,2.05c0.53,0.36,1.05,0.69,1.51,0.96c0.47,0.27,0.83,0.45,1.06,0.52c0.28,0.08,0.81,0.13,1.54,0.12
			c0.7-0.01,1.52-0.06,2.34-0.14c1.63-0.15,1.94-0.02,2.47-0.1c-0.17,0.56-0.13,0.82-0.31,1.21c-0.57,0-0.43,0-2.05,0.09
			c-0.83,0.08-1.68,0.13-2.43,0.14c-0.73,0.01-1.42-0.02-1.9-0.17c-0.37-0.11-0.84-0.35-1.32-0.63c-0.49-0.28-1.04-0.64-1.58-1.01
			c-1.08-0.73-2.17-1.55-2.86-2.08c-0.33-0.21-0.9-0.52-1.54-0.79c-0.66-0.27-1.35-0.46-1.89-0.46c-0.91,0-1.85-0.21-2.59-0.6
			c-0.73-0.39-1.38-1.02-1.49-1.9c-0.04-0.31-0.01-0.88,0.04-1.53C28,32.59,28.09,31.76,28.19,30.9z"/>
		<path fill-rule="evenodd" clip-rule="evenodd" fill="#F6E9C8" d="M24.08,14.13c0.04,0.34-0.18,0.84-0.46,1.49
			c-0.33,0.77-0.75,1.74-0.94,2.91c-0.15,0.92-0.22,1.49-0.27,1.92c-0.1,0.85-0.14,1.16-0.64,2.46c-0.76,1.97-2.27,4.69-2.87,5.29
			c-0.6,0.6-3.18,1.06-3.93,1.06h-3.02c-2.98,0-3.22,1.53-3.43,2.82c-0.08,0.48-0.15,0.93-0.35,1.26c-0.4,0.64,0.13,1.49,0.7,2.4
			c0.5,0.81,1.03,1.65,0.96,2.44C9.8,38.47,9.85,38.7,9.95,38.9c-0.07-0.03-0.14-0.07-0.2-0.14c-0.13-0.15-0.22-0.34-0.31-0.54
			C9.34,38,9.24,37.77,9.05,37.6c-0.14-0.12-0.29-0.18-0.44-0.24C8.4,37.28,8.2,37.2,8.09,36.94c-0.14-0.32-0.38-0.61-0.61-0.9
			c-0.28-0.35-0.57-0.71-0.7-1.13c-0.07-0.24-0.08-0.48-0.09-0.73c-0.01-0.2-0.01-0.4-0.05-0.6c-0.03-0.14-0.08-0.27-0.14-0.39
			c-0.03-0.08-0.06-0.15-0.09-0.23c-0.19-0.56-0.29-1.2-0.29-1.8c0-0.48,0.31-1.59,0.72-1.86c0.2-0.13,0.42-0.22,0.64-0.32
			c0.28-0.12,0.56-0.24,0.79-0.43c0.19-0.15,0.57-0.23,0.89-0.29c0.11-0.02,0.22-0.04,0.3-0.07c0.27-0.07,0.56-0.1,0.84-0.13
			c0.35-0.04,0.7-0.07,1.03-0.19c0.19-0.07,0.36-0.15,0.54-0.23c0.22-0.1,0.44-0.21,0.69-0.28c0.31-0.09,0.63-0.17,0.95-0.24
			c0.33-0.08,0.66-0.15,0.98-0.25c0.17-0.05,0.35-0.08,0.52-0.11c0.12-0.02,0.24-0.04,0.36-0.06c0.08-0.02,0.15-0.07,0.22-0.12
			c0.05-0.04,0.1-0.08,0.16-0.1c0.22-0.1,0.44-0.27,0.66-0.43c0.16-0.12,0.31-0.23,0.46-0.32c0.74-0.44,1.17-0.84,1.63-1.57
			c0.23-0.37,0.49-0.75,0.8-1.08c0.18-0.19,0.25-0.48,0.31-0.76c0.04-0.17,0.08-0.34,0.14-0.49c0.07-0.16,0.09-0.34,0.11-0.52
			c0.02-0.2,0.04-0.39,0.12-0.54c0.23-0.41,0.46-1.15,0.49-1.63c0.01-0.13,0.02-0.26,0.04-0.39c0.02-0.18,0.04-0.35,0.04-0.54
			c0-0.55,0.39-0.88,0.79-1.2c0.13-0.11,0.26-0.22,0.38-0.33c0.24-0.24,0.41-0.65,0.5-0.97c0.08-0.29,0.4-0.55,0.69-0.78
			c0.14-0.11,0.27-0.22,0.36-0.32c0.04-0.05,0.11-0.1,0.18-0.15c0.16-0.13,0.35-0.28,0.35-0.45L24.08,14.13z"/>
		<path fill-rule="evenodd" clip-rule="evenodd" fill="#809BB9" d="M47.85,9.43v3.36L28.29,27.91c-3.66,3.05-8.34,7.38-7.37,14.17
			l0,0.01l0.76,5.77h-2.7l-0.75-5.42c-1.2-8.43,4.75-13.65,8.34-16.65l0.02-0.02L47.85,9.43z"/>
		<path fill-rule="evenodd" clip-rule="evenodd" fill="#99E2F9" d="M35.72,11.21c-0.2-0.19-0.35-0.32-0.5-0.39
			c-0.11-0.05-0.24-0.11-0.38-0.17l-0.03-0.01c-0.15-0.07-0.32-0.14-0.49-0.22c-0.32-0.15-0.68-0.34-0.92-0.58
			c-0.38-0.36-0.69-0.65-1.06-0.82c-0.21-0.09-0.42-0.21-0.6-0.32c-0.04-0.02-0.08-0.05-0.12-0.07c-0.22-0.13-0.41-0.22-0.61-0.28
			c-0.27-0.08-0.55-0.19-0.81-0.3c-0.02-0.01-0.03-0.01-0.04-0.02c-0.24-0.1-0.47-0.19-0.69-0.26c-0.01,0-0.01,0-0.02,0
			c-0.04,0-0.1,0.01-0.17,0.03c-0.07,0.02-0.14,0.03-0.21,0.05l-0.01,0C29,7.88,28.93,7.9,28.87,7.92c-0.13,0.02-0.2,0.09-0.38,0.25
			c-0.02,0.01-0.03,0.03-0.05,0.05c-0.22,0.19-0.52,0.43-1.04,0.43c-0.35,0-0.71-0.06-1.02-0.12c-0.01,0-0.02,0-0.03,0
			c-0.34-0.06-0.62-0.11-0.87-0.11c-0.09,0-0.16,0-0.23,0c-0.13,0-0.24,0-0.36,0.01c-0.11,0.01-0.16,0.03-0.17,0.04
			c-0.26,0.37-0.59,0.66-0.88,0.92c-0.06,0.05-0.11,0.1-0.16,0.14c-0.29,0.27-0.7,0.33-1.02,0.34c-0.32,0.01-0.66-0.02-0.92-0.05
			c-0.01,0-0.02,0-0.03,0C21.66,9.8,21.6,9.8,21.53,9.79c-0.57-0.06-1.33-0.13-2-0.51c-0.22-0.12-0.29-0.4-0.17-0.62
			s0.4-0.29,0.62-0.17c0.49,0.28,1.05,0.33,1.65,0.39c0.06,0.01,0.12,0.01,0.18,0.02l0,0c0.28,0.03,0.56,0.06,0.82,0.05
			c0.27-0.01,0.4-0.06,0.44-0.1c0.06-0.06,0.13-0.11,0.19-0.17c0.29-0.26,0.53-0.48,0.73-0.76c0.22-0.31,0.58-0.38,0.81-0.41
			c0.17-0.02,0.37-0.02,0.53-0.01c0.06,0,0.11,0,0.14,0c0.35,0,0.71,0.06,1.03,0.12l0.01,0c0.34,0.06,0.62,0.11,0.88,0.11
			c0.18,0,0.28-0.06,0.44-0.2c0.02-0.01,0.03-0.03,0.05-0.05c0.16-0.15,0.42-0.38,0.8-0.46c0.02,0,0.07-0.02,0.14-0.04l0,0
			c0.07-0.02,0.15-0.04,0.24-0.06c0.09-0.02,0.19-0.04,0.29-0.05c0.09-0.01,0.23-0.01,0.37,0.03C29.98,7,30.24,7.1,30.48,7.19
			c0.02,0.01,0.03,0.01,0.05,0.02c0.26,0.1,0.51,0.2,0.74,0.27c0.29,0.09,0.56,0.23,0.78,0.36c0.05,0.03,0.09,0.05,0.14,0.08
			c0.18,0.1,0.34,0.19,0.51,0.27c0.52,0.23,0.93,0.62,1.28,0.96c0.01,0.01,0.02,0.02,0.04,0.03c0.13,0.13,0.37,0.27,0.69,0.42
			c0.15,0.07,0.31,0.14,0.46,0.21l0.03,0.01c0.14,0.06,0.28,0.12,0.4,0.18c0.29,0.14,0.54,0.36,0.74,0.55
			c0.05,0.05,0.1,0.1,0.15,0.14c0.15,0.14,0.27,0.26,0.39,0.35c0.02,0.02,0.05,0.04,0.08,0.06c0.14,0.1,0.32,0.23,0.47,0.42
			c0.29,0.37,0.64,0.62,1.13,0.96c0.21,0.14,0.25,0.43,0.11,0.63c-0.14,0.21-0.43,0.25-0.63,0.11l0,0
			c-0.47-0.33-0.93-0.65-1.31-1.14c-0.06-0.08-0.12-0.12-0.23-0.2c-0.04-0.03-0.09-0.06-0.14-0.1c-0.18-0.13-0.36-0.31-0.51-0.46
			C35.79,11.28,35.75,11.25,35.72,11.21z"/>
	</g>
</g>
</svg>
