<?xml version="1.0" encoding="utf-8"?>
<!-- Generator: Adobe Illustrator 22.0.1, SVG Export Plug-In . SVG Version: 6.00 Build 0)  -->
<svg version="1.0" id="Layer_1" xmlns="http://www.w3.org/2000/svg" width="20" height="16">
<path fill="#FFFFFF" d="M4,0h12c2.2,0,4,1.8,4,4v8c0,2.2-1.8,4-4,4H4c-2.2,0-4-1.8-4-4V4C0,1.8,1.8,0,4,0z"/>
<path fill="#DCDEE1" d="M16,1c1.7,0,3,1.3,3,3v8c0,1.7-1.3,3-3,3H4c-1.7,0-3-1.3-3-3V4c0-1.7,1.3-3,3-3H16 M16,0H4C1.8,0,0,1.8,0,4 v8c0,2.2,1.8,4,4,4h12c2.2,0,4-1.8,4-4V4C20,1.8,18.2,0,16,0z"/>
<polygon fill="#626262" points="7,5 7,3 5,3 5,5 5,5 5,11 5,11 5,13 7,13 7,11 7,11 7,5 "/>
<path fill="#626262" d="M9,11c0,1.1,0.9,2,2,2h2c1.1,0,2-0.9,2-2V9h-2v2h-2V5h2v2h2V5c0-1.1-0.9-2-2-2h-2C9.9,3,9,3.9,9,5V11z"/>
</svg>
