<svg xmlns="http://www.w3.org/2000/svg" viewBox="0 0 24 24" width="24" height="24"><path fill="#000000" d="M12 1C5.92 1 1 5.92 1 12s4.92 11 11 11 11-4.92 11-11S18.08 1 12 1z M 10.08 5.00 C 10.18 4.99 10.28 5.00 10.38 5.03 L 12 5.58 L 13.61 5.03 C 14.00 4.90 14.43 5.11 14.57 5.50 L 16.35 10.22 L 7.64 10.22 L 9.41 5.50 C 9.52 5.21 9.79 5.02 10.08 5.00 z M 5.02 11.00 L 18.97 11.00 L 18.97 11.77 L 5.02 11.77 L 5.02 11.00 z M 8.51 12.55 C 9.79 12.55 10.86 13.44 11.14 14.64 C 11.59 14.44 12.20 14.37 12.85 14.65 C 13.13 13.44 14.19 12.55 15.48 12.55 C 16.97 12.55 18.19 13.76 18.19 15.26 C 18.19 16.75 16.97 17.97 15.48 17.97 C 14.06 17.97 12.92 16.88 12.79 15.49 C 12.04 15.01 11.43 15.31 11.20 15.47 C 11.09 16.87 9.94 17.97 8.51 17.97 C 7.02 17.97 5.80 16.75 5.80 15.26 C 5.80 13.76 7.02 12.55 8.51 12.55 z M 8.51 13.32 C 7.44 13.32 6.57 14.19 6.57 15.26 C 6.57 16.33 7.44 17.19 8.51 17.19 C 9.58 17.19 10.45 16.33 10.45 15.26 C 10.45 14.19 9.58 13.32 8.51 13.32 z M 15.48 13.32 C 14.41 13.32 13.54 14.19 13.54 15.26 C 13.54 16.33 14.41 17.19 15.48 17.19 C 16.55 17.19 17.42 16.33 17.42 15.26 C 17.42 14.19 16.55 13.32 15.48 13.32 z"/></svg>
