<svg version="1.1" xmlns="http://www.w3.org/2000/svg" xmlns:xlink="http://www.w3.org/1999/xlink" x="0px" y="0px" width="46px" height="46px" viewBox="0 0 46 46" enable-background="new 0 0 46 46" xml:space="preserve"><g><path fill="#1A73E8" d="M22.46,44.13l-13.67-9.7c-0.25-0.18-0.4-0.46-0.4-0.77c0-0.3,0.15-0.59,0.4-0.77l4.41-3.09l1.08,1.54 l-3.32,2.32l12.59,8.93L22.46,44.13z"/><path fill="#1A73E8" d="M37.61,33.65c0-0.07-0.01-0.14-0.03-0.21c0-0.02-0.01-0.03-0.02-0.05c-0.01-0.05-0.03-0.1-0.05-0.14 c-0.01-0.02-0.02-0.04-0.04-0.07c-0.01-0.02-0.02-0.05-0.04-0.07c-0.01-0.02-0.02-0.03-0.04-0.04c-0.02-0.02-0.03-0.04-0.05-0.06 c-0.03-0.03-0.07-0.07-0.11-0.09c-0.01-0.01-0.02-0.02-0.03-0.03L32.8,29.8l-1.08,1.54l3.32,2.32L23,42.21L9.87,32.89l-1.09,1.53 l13.67,9.7l0,0c0.16,0.11,0.35,0.18,0.54,0.18c0.19,0,0.38-0.06,0.54-0.17l13.67-9.7c0.06-0.04,0.11-0.09,0.16-0.14 c0.01-0.02,0.02-0.03,0.04-0.05c0.03-0.04,0.06-0.08,0.08-0.12c0.01-0.02,0.02-0.04,0.03-0.06c0.02-0.04,0.04-0.09,0.05-0.13 c0.01-0.02,0.01-0.04,0.02-0.07c0.01-0.05,0.02-0.11,0.02-0.16C37.61,33.68,37.61,33.67,37.61,33.65 C37.61,33.65,37.61,33.65,37.61,33.65z"/><path fill="#1A73E8" d="M22.96,37.72c-1.47,0-1.83-1.2-2.18-2.36c-0.3-0.99-0.71-2.34-1.79-4.02c-1.14-1.77-2.34-3.25-3.49-4.68 c-2.86-3.55-5.33-6.61-5.33-12.04c0-7.06,5.74-12.8,12.8-12.8c7.06,0,12.8,5.74,12.8,12.8c0,5.45-2.46,8.52-5.31,12.08 c-1.14,1.42-2.32,2.89-3.45,4.64c-1.07,1.66-1.49,3-1.8,3.99C24.83,36.5,24.45,37.72,22.96,37.72z M22.92,35.9 c0.01,0,0.02,0,0.04,0c0.06,0,0.09-0.01,0.09-0.01c0.11-0.1,0.28-0.66,0.43-1.12c0.32-1.02,0.8-2.56,2-4.43 c1.18-1.83,2.39-3.34,3.56-4.79c2.75-3.43,4.92-6.13,4.92-10.94c0-6.06-4.93-10.99-10.99-10.99S11.97,8.55,11.97,14.61 c0,4.79,2.18,7.49,4.93,10.9c1.18,1.47,2.41,2.99,3.6,4.83c1.22,1.89,1.69,3.45,2.01,4.48C22.64,35.25,22.8,35.77,22.92,35.9 C22.91,35.91,22.91,35.9,22.92,35.9z"/><g><path fill="#1A73E8" d="M22.91,7.72c-3.65,0-6.61,2.96-6.61,6.61h-2.2l2.86,2.86l0.05,0.1l2.97-2.96h-2.2 c0-2.84,2.3-5.14,5.14-5.14s5.14,2.3,5.14,5.14s-2.3,5.14-5.14,5.14c-1.42,0-2.7-0.58-3.63-1.51l-1.04,1.04 c1.2,1.2,2.84,1.94,4.67,1.94c3.65,0,6.61-2.96,6.61-6.61S26.56,7.72,22.91,7.72z M22.17,11.39v3.67l3.15,1.87l0.53-0.89 l-2.57-1.53v-3.12H22.17z"/><path fill="#1A73E8" d="M22.91,21.12c-1.81,0-3.51-0.71-4.8-1.99l-0.12-0.12l1.29-1.29l0.12,0.13c0.94,0.94,2.18,1.46,3.51,1.46 c2.74,0,4.97-2.23,4.97-4.97s-2.23-4.97-4.97-4.97c-2.68,0-4.87,2.13-4.97,4.79h2.45l-3.44,3.43l-0.15-0.29l-3.14-3.14h2.45 c0.09-3.66,3.1-6.61,6.79-6.61c3.74,0,6.79,3.05,6.79,6.79S26.65,21.12,22.91,21.12z M18.48,19c1.2,1.14,2.77,1.77,4.42,1.77 c3.55,0,6.44-2.89,6.44-6.44s-2.89-6.44-6.44-6.44s-6.44,2.89-6.44,6.44v0.18h-1.96l2.51,2.51l2.52-2.51h-1.96v-0.18 c0-2.93,2.39-5.32,5.32-5.32s5.32,2.39,5.32,5.32s-2.39,5.32-5.32,5.32c-1.36,0-2.64-0.51-3.63-1.44L18.48,19z M25.38,17.17 L22,15.17v-3.95h1.45v3.2l2.64,1.57L25.38,17.17z M22.35,14.97l2.91,1.73l0.35-0.59l-2.51-1.49v-3.05h-0.75V14.97z"/></g></g></svg>
