<svg width="13" height="17" viewBox="0 0 13 17" fill="none" xmlns="http://www.w3.org/2000/svg">
<path d="M10.6275 3.68252L9.825 2.88002L5.6625 7.04252V7.85252H6.4725L10.6275 3.68252ZM9 2.05502L9.9675 1.08752C10.0714 0.982299 10.1952 0.898761 10.3317 0.841746C10.4682 0.78473 10.6146 0.755371 10.7625 0.755371C10.9104 0.755371 11.0568 0.78473 11.1933 0.841746C11.3298 0.898761 11.4536 0.982299 11.5575 1.08752L12.42 1.95002C12.8625 2.39252 12.8625 3.10502 12.42 3.54002L11.91 4.05002L11.895 4.06502L11.46 4.50002L6.96 9.00002H4.5V6.55502L9 2.05502ZM7.29 1.64252L6.8775 2.05502L5.925 3.00752C3.45 3.04502 1.5 4.95752 1.5 7.65752C1.5 9.41252 2.9625 11.7375 6 14.5125C9.0375 11.7375 10.5 9.42002 10.5 7.65752V7.58252L11.85 6.23252C11.9475 6.68252 12 7.16252 12 7.65752C12 10.1475 9.9975 13.095 6 16.5075C2.0025 13.095 0 10.1475 0 7.65752C0 3.92252 2.85 1.50752 6 1.50752C6.435 1.50752 6.87 1.55252 7.29 1.64252Z" fill="#1A73E8"/>
</svg>

