<?xml version="1.0" encoding="utf-8"?>
<!-- Generator: Adobe Illustrator 30.0.0, SVG Export Plug-In . SVG Version: 9.03 Build 0)  -->
<svg version="1.1" baseProfile="basic" id="Layer_1"
	 xmlns="http://www.w3.org/2000/svg" xmlns:xlink="http://www.w3.org/1999/xlink" x="0px" y="0px" width="320px" height="320px"
	 viewBox="0 0 320 320" xml:space="preserve">
<g>
	<g id="Land_00000103944429650692355880000003637942890865271708_">
		<path fill="#003439" d="M96.78,176.82l-40.77,70.89c-4.59,7.99-0.37,18.17,8.53,20.55l152.65,40.9
			c11.63,3.12,23.91-1.98,29.92-12.42l37.54-65.27c3.8-6.61,0.31-15.03-7.06-17l-165.01-44.21
			C106.44,168.62,99.95,171.31,96.78,176.82L96.78,176.82z"/>
		<polygon fill="#004E41" points="85.55,252.79 75.02,271.08 119.34,282.95 129.88,264.66 		"/>
	</g>
	<g id="Shop_00000126323726380690198110000004098167471137592476_">
		<g>
			<path fill="#004E41" d="M267.27,156.58c0-4.81-3.28-8.99-7.95-10.14l-142.23-34.9c-4.66-1.14-9.51,0.93-11.9,5.09l-31.12,54.11
				l0.18,0.04v78.97l157.87,42.3v0.05l0.02-0.04l0.15,0.04v-0.3l34.98-60.82V156.58L267.27,156.58z"/>
			<path fill="#0D6545" d="M267.27,156.58c0-1.99-0.57-3.87-1.56-5.47l-33.59,58.42v82.53l0,0v0.05l0.18-0.3l0,0l34.98-60.82V156.58
				L267.27,156.58z"/>
			<path fill="#15173D" d="M149.23,259.01l56.95,15.24c4.71,1.26,9.33-2.29,9.33-7.16v-50.03c0-3.37-2.28-6.32-5.54-7.17
				l-56.95-14.9c-4.7-1.23-9.29,2.32-9.29,7.17v49.69C143.73,255.22,145.98,258.15,149.23,259.01L149.23,259.01z"/>
			<polygon fill="#003439" points="129.88,205.91 129.88,264.66 85.55,252.79 85.55,195.58 			"/>
			<path fill="#005B5B" d="M94.86,247.89l23.92,6.41c2.2,0.59,4.37-1.07,4.37-3.35v-14.32c0-1.57-1.06-2.95-2.57-3.35l-23.92-6.41
				c-2.2-0.59-4.37,1.07-4.37,3.35v14.32C92.29,246.11,93.34,247.48,94.86,247.89z"/>
			<g>
				<path fill="#009E7C" d="M131.74,190.46l2.83-4.92l-32.53-7.98l-2.81,4.88c-4.15,7.22-6.34,15.4-6.34,23.73v4.15l32.51,7.98v-4.1
					C125.4,205.86,127.58,197.68,131.74,190.46L131.74,190.46z"/>
				<path fill="#009E7C" d="M167.1,193.52l-2.85,4.96c-4.15,7.22-6.34,15.4-6.34,23.73v4.05l32.51,7.98v-4.01
					c0-8.33,2.19-16.51,6.34-23.73l2.88-5L167.1,193.52L167.1,193.52z"/>
			</g>
			<g>
				<path fill="#0D6545" d="M223.07,242.26l-32.65-8.01v-4.01c0-8.33,2.19-16.51,6.34-23.73l2.88-5l32.67,8.01l0,0v0.01v16.68
					L223.07,242.26L223.07,242.26z"/>
				<path fill="#0D6545" d="M164.25,198.49l2.85-4.96l-32.53-7.98l-2.83,4.92c-4.15,7.22-6.34,15.4-6.34,23.73v4.1l32.51,7.98v-4.05
					C157.9,213.89,160.09,205.71,164.25,198.49L164.25,198.49z"/>
				<path fill="#0D6545" d="M99.23,182.44l2.81-4.88l-27.78-6.82l-3.08,5.36c-4.02,7-6.14,14.93-6.14,23v1.26
					c0,1.83,1.25,3.43,3.03,3.86l24.83,6.09v-4.15C92.89,197.83,95.07,189.66,99.23,182.44L99.23,182.44z"/>
			</g>
			<path fill="#003936" d="M232.3,209.53l-3.08,5.35c-4.02,7-6.14,14.93-6.14,23v4.37l9.22-16.04L232.3,209.53L232.3,209.53z"/>
			
				<linearGradient id="SVGID_1_" gradientUnits="userSpaceOnUse" x1="166.4695" y1="-961.0425" x2="191.363" y2="-961.0425" gradientTransform="matrix(1 0 0 -1 0 -704)">
				<stop  offset="0" style="stop-color:#F29900"/>
				<stop  offset="1" style="stop-color:#8F4D13"/>
			</linearGradient>
			<path fill="url(#SVGID_1_)" d="M166.48,255.57c0.01,2.2,1.33,4.27,3.16,5.5c1.82,1.23,4.09,1.68,6.29,1.59
				c1.04-0.04,2.08-0.2,3.08-0.47c0.29-0.08,0.6-0.16,0.89-0.1c0.31,0.06,0.57,0.27,0.82,0.46c2.27,1.66,5.5,1.88,7.97,0.55
				c1.11-0.6,2.1-1.53,2.48-2.73c0.56-1.74-0.23-3.63-1.25-5.15c-0.67-1-1.44-1.93-2.4-2.65c-1.2-0.9-2.63-1.44-4.08-1.81
				c-2.12-0.54-4.32-0.73-6.5-0.58c-1.5,0.1-2.98,0.37-4.46,0.6c-0.95,0.15-1.91,0.3-2.86,0.39c-0.5,0.05-1.07,0.02-1.52,0.25
				C166.84,252.06,166.46,254.33,166.48,255.57L166.48,255.57z"/>
			
				<linearGradient id="SVGID_00000145031995173070976290000002005516857058425524_" gradientUnits="userSpaceOnUse" x1="178.8695" y1="-950.7033" x2="199.4016" y2="-950.7033" gradientTransform="matrix(1 0 0 -1 0 -704)">
				<stop  offset="0" style="stop-color:#8F4D13"/>
				<stop  offset="1" style="stop-color:#F29900"/>
			</linearGradient>
			<path fill="url(#SVGID_00000145031995173070976290000002005516857058425524_)" d="M179.92,250.91c0.55,0.77,1.36,1.3,2.2,1.74
				c3.09,1.59,6.74,1.97,10.14,1.3c0.89-0.18,1.77-0.43,2.57-0.86c0.92-0.51,1.7-1.25,2.38-2.06c0.81-0.95,1.52-2.01,1.9-3.21
				c0.38-1.19,0.42-2.52-0.09-3.67c-0.5-1.15-1.58-2.07-2.82-2.2c-0.19-0.02-0.4-0.03-0.57-0.12c-0.18-0.09-0.3-0.26-0.43-0.42
				c-0.99-1.25-2.5-2.07-4.09-2.23c-1.59-0.15-3.23,0.36-4.45,1.39c-0.16,0.13-0.31,0.28-0.51,0.33c-0.17,0.04-0.35,0.01-0.53-0.01
				c-1.76-0.24-3.64,0.23-4.96,1.42c-1.18,1.05-1.83,2.71-1.79,4.28C178.92,247.98,179.08,249.74,179.92,250.91L179.92,250.91z"/>
			<path fill="#F29900" d="M163.72,240.61c-1.32-0.46-2.72-0.78-4.11-0.6c-1.39,0.18-2.75,0.92-3.4,2.16
				c-0.33,0.63-0.46,1.36-0.49,2.07c-0.12,2.76,1.25,5.53,3.52,7.11c0.76,0.53,1.6,0.93,2.46,1.27c3.71,1.45,7.84,1.8,11.74,0.99
				c1.58-0.33,3.15-0.86,4.45-1.82c1.3-0.96,2.31-2.4,2.48-4.01c0.21-1.93-0.83-3.87-2.39-5.02c-1.56-1.16-3.56-1.61-5.5-1.56
				c-1.81,0.04-3.42,0.71-5.17,0.95c-0.62,0.08-0.97-0.13-1.47-0.46C165.16,241.23,164.49,240.88,163.72,240.61L163.72,240.61z"/>
			<ellipse fill="#232765" cx="188.65" cy="245.92" rx="2.13" ry="1.28"/>
			<ellipse fill="#232765" cx="178.66" cy="257.04" rx="2.13" ry="1.28"/>
			<ellipse fill="#232765" cx="165.92" cy="246.71" rx="2.13" ry="1.28"/>
		</g>
	</g>
	<g id="Tree_00000115473319335148383360000013690400975357092757_">
		<g>
			<path fill="#5B4100" d="M275.43,269.45c-4.21-0.69-8.55,0.82-9.68,3.35c-0.19,0.43-0.28,0.86-0.27,1.28c0-0.01,0-0.03,0-0.04
				v12.61c0,2.1,2.32,4.02,5.84,4.59c4.21,0.69,8.55-0.82,9.68-3.35c0.19-0.42,0.27-0.83,0.27-1.24v-12.61c0,0,0,0.01,0,0.02
				C281.29,271.95,278.96,270.02,275.43,269.45L275.43,269.45z M266.71,276.6c0,0-0.01-0.01-0.02-0.02
				C266.7,276.59,266.71,276.59,266.71,276.6z M266.42,276.29c0,0-0.03-0.03-0.04-0.05C266.39,276.26,266.41,276.28,266.42,276.29z
				 M266.14,275.95c-0.01-0.02-0.03-0.04-0.04-0.06C266.11,275.91,266.12,275.93,266.14,275.95z M265.49,274.41c0,0,0,0.02,0,0.03
				C265.49,274.43,265.49,274.42,265.49,274.41z M265.89,275.57c0,0-0.01-0.01-0.01-0.03C265.88,275.55,265.89,275.56,265.89,275.57
				z M265.72,275.23c0,0-0.01-0.04-0.02-0.06C265.71,275.19,265.72,275.21,265.72,275.23z M265.59,274.85
				c-0.01-0.02-0.01-0.04-0.02-0.07C265.58,274.8,265.58,274.82,265.59,274.85z M267.04,276.88c0.02,0.02,0.04,0.03,0.06,0.05
				C267.08,276.91,267.05,276.9,267.04,276.88z M269.99,278.34c0.03,0.01,0.07,0.02,0.1,0.03
				C270.06,278.36,270.03,278.35,269.99,278.34z M267.45,277.19c0.02,0.01,0.04,0.03,0.07,0.04
				C267.5,277.22,267.47,277.2,267.45,277.19z M267.9,277.47c0,0,0.01,0.01,0.02,0.01C267.91,277.49,267.91,277.48,267.9,277.47z
				 M268.35,277.71c0.03,0.01,0.06,0.03,0.09,0.04C268.41,277.74,268.38,277.72,268.35,277.71z M268.88,277.95
				c0.03,0.01,0.06,0.02,0.09,0.03C268.94,277.98,268.91,277.96,268.88,277.95z M269.46,278.17c0,0,0.01,0,0.01,0
				C269.46,278.17,269.46,278.17,269.46,278.17z M270.63,278.5c0.03,0.01,0.07,0.01,0.1,0.02
				C270.7,278.51,270.66,278.51,270.63,278.5z M281.25,274.38c0,0,0-0.03,0.01-0.04C281.25,274.35,281.25,274.37,281.25,274.38z
				 M281.1,275c0.01-0.03,0.02-0.06,0.03-0.09C281.12,274.94,281.11,274.97,281.1,275z M281.19,274.71
				c0.01-0.03,0.01-0.06,0.02-0.09C281.2,274.65,281.19,274.68,281.19,274.71z"/>
			<circle fill="#009E7C" cx="273.53" cy="251.7" r="27.47"/>
		</g>
	</g>
	<g id="Notifications_00000129926659651890093590000004664115174849517452_">
		<path fill-rule="evenodd" clip-rule="evenodd" fill="#3D5FEC" d="M154.31,136.94l-132.49,0.14C9.77,137.1,0,146.88,0,158.94
			C0,171,9.77,180.78,21.82,180.8h132.49l0,0c12.05-0.02,21.82-9.83,21.82-21.93C176.13,146.77,166.36,136.97,154.31,136.94
			L154.31,136.94z"/>
		<g>
			<path fill="#FDFD6D" d="M28.59,147.12l2.77,6.62l7.15,0.59c0.97,0.08,1.36,1.29,0.63,1.92l-5.44,4.68l1.65,6.98
				c0.22,0.94-0.8,1.69-1.63,1.19l-6.13-3.72l-6.13,3.72c-0.83,0.51-1.86-0.24-1.63-1.19l1.65-6.98l-5.44-4.68
				c-0.74-0.63-0.34-1.84,0.63-1.92l7.15-0.59l2.77-6.62C26.95,146.22,28.22,146.22,28.59,147.12L28.59,147.12z"/>
			<path fill="#FDFD6D" d="M58.82,147.12l2.77,6.62l7.15,0.59c0.97,0.08,1.36,1.29,0.63,1.92l-5.44,4.68l1.65,6.98
				c0.22,0.94-0.8,1.69-1.63,1.19l-6.13-3.72l-6.13,3.72c-0.83,0.51-1.86-0.24-1.63-1.19l1.65-6.98l-5.44-4.68
				c-0.74-0.63-0.34-1.84,0.63-1.92l7.15-0.59l2.77-6.62C57.18,146.22,58.45,146.22,58.82,147.12L58.82,147.12z"/>
			<path fill="#FDFD6D" d="M89.05,147.12l2.77,6.62l7.15,0.59c0.97,0.08,1.36,1.29,0.63,1.92l-5.44,4.68l1.65,6.98
				c0.22,0.94-0.8,1.69-1.63,1.19l-6.13-3.72l-6.13,3.72c-0.83,0.51-1.86-0.24-1.63-1.19l1.65-6.98l-5.44-4.68
				c-0.74-0.63-0.34-1.84,0.63-1.92l7.15-0.59l2.77-6.62C87.41,146.22,88.68,146.22,89.05,147.12L89.05,147.12z"/>
			<path fill="#FDFD6D" d="M119.29,147.12l2.77,6.62l7.15,0.59c0.97,0.08,1.36,1.29,0.63,1.92l-5.44,4.68l1.65,6.98
				c0.22,0.94-0.8,1.69-1.63,1.19l-6.13-3.72l-6.13,3.72c-0.83,0.51-1.86-0.24-1.63-1.19l1.65-6.98l-5.44-4.68
				c-0.74-0.63-0.34-1.84,0.63-1.92l7.15-0.59l2.77-6.62C117.65,146.22,118.92,146.22,119.29,147.12L119.29,147.12z"/>
			<path fill="#FDFD6D" d="M149.52,147.12l2.77,6.62l7.15,0.59c0.97,0.08,1.36,1.29,0.63,1.92l-5.44,4.68l1.65,6.98
				c0.22,0.94-0.8,1.69-1.63,1.19l-6.13-3.72l-6.13,3.72c-0.83,0.51-1.86-0.24-1.63-1.19l1.65-6.98l-5.44-4.68
				c-0.74-0.63-0.34-1.84,0.63-1.92l7.15-0.59l2.77-6.62C147.88,146.22,149.14,146.22,149.52,147.12L149.52,147.12z"/>
		</g>
		<g>
			<path fill="#FF4365" d="M262.38,40.51c-6.94-13.36-18.86-23.43-33.25-28l0,0c-10.74-3.3-22.17-3.47-32.99-0.34
				c-10.83,3.13-20.39,9.39-27.66,18.02l0,0c-8.63,10.23-13.28,23.18-13.28,36.54c-0.09,9.31,1.78,18.61,5.58,27.07
				c5.92,13.03,15.73,23.52,25.89,36.71l0,0c3.22,4.31,6.43,8.8,9.64,13.7c11.5,17.77,8.29,28.51,15.73,28.51
				c7.44,0,4.23-10.66,15.73-28.51c18.95-29.61,41.03-43.06,41.03-77.57C268.81,57.51,266.6,48.54,262.38,40.51L262.38,40.51
				L262.38,40.51z"/>
			<g>
				<path fill="#FBBC04" d="M236.17,38.87c3.1,0.17,6-1.19,7.42-3.78c2.07-3.81,0.17-8.84-4.25-11.25s-9.68-1.27-11.75,2.54
					c-1.42,2.6-0.97,5.77,0.85,8.28c-11.8-4.04-25.13,0.89-31.28,12.2c-0.69,1.28-1.27,2.59-1.73,3.92
					c-2.7,7.59-9.41,13.04-17.4,14.13l0,0c-4.21,0.58-8.1,3.08-10.28,7.09c-3.65,6.71-1.17,15.11,5.54,18.75l45.77,24.89
					c6.71,3.65,15.11,1.17,18.75-5.54c2.19-4.02,2.17-8.64,0.37-12.48l0,0c-3.43-7.3-2.5-15.89,2.41-22.29
					c0.86-1.11,1.65-2.3,2.35-3.58C249.09,60.44,245.98,46.58,236.17,38.87L236.17,38.87z M231.35,28.42
					c0.92-1.7,3.65-2.08,5.95-0.83c2.3,1.25,3.46,3.74,2.54,5.45c-0.92,1.7-3.65,2.08-5.95,0.83
					C231.58,32.62,230.42,30.12,231.35,28.42z"/>
				<path d="M231.26,114.96c-2.64,4.86-16.59,2.38-36.8-8.61c-20.21-10.99-29.87-21.35-27.23-26.21c2.64-4.86,16.59-2.38,36.8,8.61
					C224.25,99.74,233.91,110.1,231.26,114.96z"/>
				
					<linearGradient id="SVGID_00000168098265609940855040000011738549029464284838_" gradientUnits="userSpaceOnUse" x1="192.743" y1="-812.3735" x2="206.4929" y2="-790.2794" gradientTransform="matrix(1 0 0 -1 0 -704)">
					<stop  offset="0" style="stop-color:#FBBC04"/>
					<stop  offset="1" style="stop-color:#E37400"/>
				</linearGradient>
				<path fill="url(#SVGID_00000168098265609940855040000011738549029464284838_)" d="M210.52,92.47c-2.03-1.23-4.19-2.47-6.49-3.72
					s-4.52-2.39-6.65-3.43c-3.9,1.87-7.9,5.18-10.19,9.38c-0.58,1.07-1.06,2.12-1.43,3.14c-0.36,0.99-0.63,1.95-0.81,2.89
					c-1.05,5.49,0.98,10.09,5.68,12.65c4.69,2.55,9.66,1.75,13.7-2.11c0.69-0.65,1.34-1.39,1.97-2.22c0.67-0.88,1.3-1.86,1.89-2.94
					C210.47,101.92,211.08,96.76,210.52,92.47L210.52,92.47z"/>
			</g>
		</g>
	</g>
</g>
</svg>
