<?xml version="1.0" encoding="utf-8"?>
<!-- Generator: Adobe Illustrator 24.2.0, SVG Export Plug-In . SVG Version: 6.00 Build 0)  -->
<svg version="1.1" id="Layer_1" xmlns="http://www.w3.org/2000/svg" xmlns:xlink="http://www.w3.org/1999/xlink" x="0px" y="0px"
	 width="28px" height="28px" viewBox="0 0 28 28" enable-background="new 0 0 28 28" xml:space="preserve">
<g id="Pin" transform="translate(16.000000, 10.750000)">
	<g id="Group-3" transform="translate(1.865711, 0.252218)">
		<g id="Clip-2">
		</g>
		<defs>
			<filter id="Adobe_OpacityMaskFilter" filterUnits="userSpaceOnUse" x="-10.79" y="-10.04" width="9.66" height="6.84">
				<feColorMatrix  type="matrix" values="1 0 0 0 0  0 1 0 0 0  0 0 1 0 0  0 0 0 1 0"/>
			</filter>
		</defs>
		<mask maskUnits="userSpaceOnUse" x="-10.79" y="-10.04" width="9.66" height="6.84" id="mask-2_2_"/>
		<path id="Fill-1" mask="url(#mask-2_2_)" fill-rule="evenodd" clip-rule="evenodd" fill="#1A73E8" d="M-1.13-9.62
			c-0.86-0.27-1.78-0.42-2.73-0.42c-2.78,0-5.27,1.26-6.93,3.24l4.27,3.6L-1.13-9.62z"/>
	</g>
	<g id="Group-6" transform="translate(0.000000, 3.369865)">
		<g id="Clip-5">
		</g>
		<defs>
			<filter id="Adobe_OpacityMaskFilter_1_" filterUnits="userSpaceOnUse" x="-11.05" y="-9.92" width="6.39" height="10.16">
				<feColorMatrix  type="matrix" values="1 0 0 0 0  0 1 0 0 0  0 0 1 0 0  0 0 0 1 0"/>
			</filter>
		</defs>
		<mask maskUnits="userSpaceOnUse" x="-11.05" y="-9.92" width="6.39" height="10.16" id="mask-4_2_"/>
		<path id="Fill-4" mask="url(#mask-4_2_)" fill-rule="evenodd" clip-rule="evenodd" fill="#EA4335" d="M-8.93-9.92
			c-1.32,1.58-2.12,3.61-2.12,5.83c0,1.71,0.34,3.09,0.9,4.33l5.5-6.55L-8.93-9.92z"/>
	</g>
	<path id="Fill-7" fill-rule="evenodd" clip-rule="evenodd" fill="#4285F4" d="M-2-4.19c1.91,0,3.46,1.55,3.46,3.47
		c0,0.85-0.31,1.64-0.82,2.24c0,0,2.73-3.26,5.39-6.42c-1.1-2.11-3-3.74-5.29-4.47l-5.39,6.42C-4.02-3.71-3.07-4.19-2-4.19"/>
	<path id="Fill-9" fill-rule="evenodd" clip-rule="evenodd" fill="#FBBC04" d="M-2,2.75c-1.91,0-3.46-1.55-3.46-3.47
		c0-0.85,0.3-1.62,0.81-2.23l-5.5,6.55c0.94,2.09,2.5,3.77,4.11,5.88l6.68-7.97C0.01,2.27-0.94,2.75-2,2.75"/>
	<path id="Fill-11" fill-rule="evenodd" clip-rule="evenodd" fill="#34A853" d="M0.51,11.66C3.53,6.93,7.05,4.78,7.05-0.72
		c0-1.51-0.37-2.93-1.02-4.18L-6.04,9.49c0.51,0.67,1.03,1.39,1.53,2.18c1.83,2.84,1.33,4.55,2.51,4.55S-1.32,14.5,0.51,11.66"/>
</g>
</svg>
