<?xml version="1.0" encoding="utf-8"?>
<svg xmlns="http://www.w3.org/2000/svg" enable-background="new 0 0 24 24" height="24px" viewBox="0 0 24 24" width="24px" fill="#000000"><path d="M0,0h24v24H0V0z" fill="none"/><path d="M0,0h24v24H0V0z" fill="none"/><path d="M3,17h6.31l-0.95,4.57l-0.03,0.32c0,0.41,0.17,0.79,0.44,1.06L9.83,24c0,0,7.09-6.85,7.17-7h5V4H6 C5.17,4,4.46,4.5,4.16,5.22l-3.02,7.05C1.05,12.5,1,12.74,1,13v2C1,16.1,1.9,17,3,17z M17,6h3v9h-3V6z M3,13l3-7h9v10l-4.34,4.34 L12,15H3V13z"/></svg>
