<svg width="296" height="176" viewBox="0 0 296 176" fill="none" xmlns="http://www.w3.org/2000/svg">
<path d="M242.24 40.23H185.76C186.51 44.25 186.82 48.42 186.65 52.68C185.41 82.46 160.39 105.72 130.58 105.72H110.51C116.33 128.32 136.84 145 161.25 145H218.74L248.46 175.49V148.38C248.46 146.31 249.95 144.57 251.98 144.21C276.48 139.92 295.13 118.62 295.28 92.92C295.45 63.94 271.22 40.23 242.24 40.23Z" fill="#DADCE0"/>
<path d="M180.75 50.3602C180.75 46.8802 180.39 43.5002 179.7 40.2302C175.02 17.8302 155.11 0.950195 131.34 0.950195H49.7002C22.4502 0.950195 0.290039 23.1202 0.290039 50.3602C0.290039 75.7002 19.2702 96.8202 44.4502 99.4902C45.9602 99.6502 47.1099 100.93 47.1099 102.45V125.92L71.7202 100.68C72.2802 100.11 73.0501 99.7902 73.8501 99.7902H109.37H131.34C158.58 99.7802 180.75 77.6102 180.75 50.3602Z" fill="#4285F4"/>
</svg>
