<svg width="296" height="175" viewBox="0 0 296 175" fill="none" xmlns="http://www.w3.org/2000/svg">
<path d="M242.861 39.6797H186.381C187.131 43.6997 187.441 47.8697 187.271 52.1297C186.031 81.9097 161.011 105.17 131.201 105.17H111.131C116.951 127.77 137.461 144.45 161.871 144.45H219.361L249.081 174.94V147.83C249.081 145.76 250.571 144.02 252.601 143.66C277.101 139.37 295.751 118.07 295.901 92.3697C296.061 63.3897 271.841 39.6797 242.861 39.6797Z" fill="#5F6368"/>
<path d="M181.36 49.8099C181.36 46.3299 181.001 42.9499 180.311 39.6799C175.631 17.2799 155.721 0.399902 131.951 0.399902H50.3105C23.0605 0.399902 0.900391 22.5699 0.900391 49.8099C0.900391 75.1499 19.8805 96.2699 45.0605 98.9399C46.5705 99.0999 47.7207 100.38 47.7207 101.9V125.37L72.3306 100.13C72.8906 99.5599 73.6604 99.2399 74.4604 99.2399H109.98H131.951C159.191 99.2199 181.36 77.0599 181.36 49.8099Z" fill="#F9DA6C"/>
</svg>
