<?xml version="1.0" encoding="utf-8"?>
<!-- Generator: Adobe Illustrator 21.0.2, SVG Export Plug-In . SVG Version: 6.00 Build 0)  -->
<svg version="1.1" id="Layer_1" xmlns="http://www.w3.org/2000/svg" xmlns:xlink="http://www.w3.org/1999/xlink" x="0px" y="0px"
	 width="24px" height="24px" viewBox="0 0 24 24" enable-background="new 0 0 24 24" xml:space="preserve">
<title>24</title>
<desc>Created with Sketch.</desc>
<g id="_x32_4">
	<g id="ic_x2F_volume_x5F_up_x5F_24dp">
		<g id="Shape">
			<path id="path-1_1_" d="M3,9h4l5-5v16l-5-5H3V9z M10,8.83L7.83,11H5v2h2.83L10,15.17V8.83z M16.5,12c0,1.77-1.02,3.29-2.5,4.02
				V7.97C15.48,8.71,16.5,10.23,16.5,12z M14,3.23c4.01,0.91,7,4.49,7,8.77s-2.99,7.86-7,8.77v-2.06c2.89-0.86,5-3.54,5-6.71
				s-2.11-5.85-5-6.71V3.23z"/>
		</g>
	</g>
</g>
<rect fill="none" width="24" height="24"/>
</svg>
