<?xml version="1.0" encoding="utf-8"?>
<!-- Generator: Adobe Illustrator 21.0.2, SVG Export Plug-In . SVG Version: 6.00 Build 0)  -->
<svg version="1.1" id="Layer_1" xmlns="http://www.w3.org/2000/svg" xmlns:xlink="http://www.w3.org/1999/xlink" x="0px" y="0px"
	 width="24px" height="24px" viewBox="0 0 24 24" enable-background="new 0 0 24 24" xml:space="preserve">
<g id="compound_path">
	<polygon points="13,11 16,11 16,13 13,13 13,16 11,16 11,13 8,13 8,11 11,11 11,8 13,8 	"/>
	<path d="M12.06,2.02c-5.49,0-9.94,4.45-9.94,9.94c0,1.49,0.32,2.91,0.92,4.18L1.02,23l6.87-2.02c1.27,0.59,2.68,0.92,4.18,0.92
		c5.49,0,9.94-4.45,9.94-9.94S17.55,2.02,12.06,2.02z M12.11,19.81c-1.16,0-2.27-0.24-3.32-0.73c-0.5-0.23-1.06-0.27-1.59-0.12
		l-3.05,0.9l0.9-3.05c0.16-0.53,0.12-1.09-0.12-1.59c-0.48-1.04-0.73-2.16-0.73-3.32c0-4.36,3.55-7.91,7.9-7.91
		c4.36,0,7.9,3.55,7.9,7.91C20.01,16.26,16.47,19.81,12.11,19.81z"/>
</g>
<rect id="bounding_box" fill="none" width="24" height="24"/>
</svg>
