<?xml version="1.0" encoding="utf-8"?>
<!-- Generator: Adobe Illustrator 22.0.1, SVG Export Plug-In . SVG Version: 6.00 Build 0)  -->
<svg version="1.1" id="Layer_1" xmlns="http://www.w3.org/2000/svg" xmlns:xlink="http://www.w3.org/1999/xlink" x="0px" y="0px"
	 width="24px" height="24px" viewBox="0 0 24 24" enable-background="new 0 0 24 24" xml:space="preserve">
<path d="M11,18.33l-3.47-1.16c-0.33-0.11-0.7-0.04-0.96,0.19l-0.49,0.42l4.36,3.74c0.36,0.31,0.82,0.48,1.3,0.48h5.06
	c0.43,0,0.82-0.28,0.95-0.69l1.17-3.64c0.22-0.68-0.07-1.41-0.69-1.76l-3.78-2.14c-0.3-0.17-0.64-0.26-0.99-0.26H13V7
	c0-0.55-0.45-1-1-1s-1,0.45-1,1V18.33z M9,11V7c0-1.66,1.34-3,3-3c1.66,0,3,1.34,3,3v4c1.21-0.91,2-2.36,2-4c0-2.76-2.24-5-5-5
	C9.24,2,7,4.24,7,7C7,8.64,7.79,10.09,9,11z M9,13.33C6.64,12.2,5,9.79,5,7c0-3.87,3.13-7,7-7s7,3.13,7,7
	c0,2.24-1.05,4.23-2.68,5.51l2.91,1.65c1.44,0.82,2.12,2.54,1.61,4.12l-1.17,3.64C19.26,23.16,18.11,24,16.8,24h-5.06
	c-0.96,0-1.88-0.34-2.6-0.96L3,17.77l2.28-1.93c0.8-0.68,1.9-0.89,2.89-0.56L9,15.56V13.33z"/>
</svg>
