<?xml version="1.0" encoding="utf-8"?>
<!-- Generator: Adobe Illustrator 30.0.0, SVG Export Plug-In . SVG Version: 9.03 Build 0)  -->
<svg version="1.1" baseProfile="basic" id="Layer_1"
	 xmlns="http://www.w3.org/2000/svg" xmlns:xlink="http://www.w3.org/1999/xlink" x="0px" y="0px" width="128px" height="92px"
	 viewBox="0 0 128 92" xml:space="preserve">
<g>
	<g id="Land_00000019662688707282670520000017545917674496642736_">
		<path fill="#C5D99B" d="M44.61,50.82L32.93,71.13c-1.32,2.29-0.11,5.21,2.44,5.89l43.74,11.72c3.33,0.89,6.85-0.57,8.57-3.56
			l10.75-18.7c1.09-1.89,0.09-4.31-2.02-4.87L49.13,48.94C47.37,48.47,45.52,49.24,44.61,50.82L44.61,50.82z"/>
		<polygon fill="#EAEED6" points="41.39,72.58 38.37,77.83 51.07,81.23 54.09,75.99 		"/>
	</g>
	<g id="Shop_00000046311404754933211260000014092009812857517197_">
		<g>
			<path fill="#DFE59F" d="M93.46,45.02c0-1.38-0.94-2.58-2.28-2.9l-40.75-10c-1.33-0.33-2.72,0.27-3.41,1.46l-8.92,15.5l0.05,0.01
				v22.63l45.23,12.12v0.01l0.01-0.01l0.04,0.01v-0.09l10.02-17.43L93.46,45.02L93.46,45.02z"/>
			<path fill="#9ECFA3" d="M93.46,45.02c0-0.57-0.16-1.11-0.45-1.57l-9.63,16.74v23.65l0,0v0.01l0.05-0.09l0,0l10.02-17.43V45.02
				L93.46,45.02z"/>
			<path fill="#64BEFF" d="M59.64,74.37l16.32,4.37c1.35,0.36,2.67-0.66,2.67-2.05V62.35c0-0.97-0.65-1.81-1.59-2.06l-16.32-4.27
				c-1.35-0.35-2.66,0.66-2.66,2.06v14.24C58.06,73.28,58.71,74.12,59.64,74.37L59.64,74.37z"/>
			<polygon fill="#00854C" points="54.09,59.15 54.09,75.99 41.39,72.58 41.39,56.19 			"/>
			<path fill="#9ECFA3" d="M44.06,71.18l6.85,1.84c0.63,0.17,1.25-0.31,1.25-0.96v-4.1c0-0.45-0.3-0.84-0.74-0.96l-6.85-1.84
				c-0.63-0.17-1.25,0.31-1.25,0.96v4.1C43.32,70.67,43.62,71.07,44.06,71.18z"/>
			<g>
				<path fill="#F4F4C7" d="M54.62,54.73l0.81-1.41l-9.32-2.29l-0.8,1.4c-1.19,2.07-1.82,4.41-1.82,6.8v1.19l9.31,2.29v-1.18
					C52.81,59.14,53.43,56.8,54.62,54.73L54.62,54.73z"/>
				<path fill="#F4F4C7" d="M64.76,55.6l-0.82,1.42c-1.19,2.07-1.82,4.41-1.82,6.8v1.16l9.31,2.29v-1.15c0-2.39,0.63-4.73,1.82-6.8
					l0.82-1.43L64.76,55.6L64.76,55.6z"/>
			</g>
			<g>
				<path fill="#9ECFA3" d="M80.79,69.57l-9.35-2.3v-1.15c0-2.39,0.63-4.73,1.82-6.8l0.82-1.43l9.36,2.3l0,0v0v4.78L80.79,69.57
					L80.79,69.57z"/>
				<path fill="#9ECFA3" d="M63.94,57.03l0.82-1.42l-9.32-2.29l-0.81,1.41c-1.19,2.07-1.82,4.41-1.82,6.8v1.18l9.31,2.29v-1.16
					C62.12,61.44,62.75,59.1,63.94,57.03L63.94,57.03z"/>
				<path fill="#9ECFA3" d="M45.31,52.43l0.8-1.4l-7.96-1.95l-0.88,1.54c-1.15,2-1.76,4.28-1.76,6.59v0.36
					c0,0.52,0.36,0.98,0.87,1.11l7.11,1.75v-1.19C43.49,56.84,44.12,54.5,45.31,52.43L45.31,52.43z"/>
			</g>
			<path fill="#6C9E82" fill-opacity="0.91" d="M83.44,60.19l-0.88,1.53c-1.15,2-1.76,4.28-1.76,6.59v1.25l2.64-4.59L83.44,60.19
				L83.44,60.19z"/>
			
				<linearGradient id="SVGID_1_" gradientUnits="userSpaceOnUse" x1="64.5755" y1="-1587.8043" x2="71.7079" y2="-1587.8043" gradientTransform="matrix(1 0 0 -1 0 -1514)">
				<stop  offset="0" style="stop-color:#FFE921"/>
				<stop  offset="1" style="stop-color:#F29900"/>
			</linearGradient>
			<path fill="url(#SVGID_1_)" d="M64.58,73.38c0,0.63,0.38,1.22,0.9,1.58s1.17,0.48,1.8,0.45c0.3-0.01,0.6-0.06,0.88-0.13
				c0.08-0.02,0.17-0.05,0.26-0.03c0.09,0.02,0.16,0.08,0.24,0.13c0.65,0.48,1.58,0.54,2.28,0.16c0.32-0.17,0.6-0.44,0.71-0.78
				c0.16-0.5-0.07-1.04-0.36-1.48c-0.19-0.29-0.41-0.55-0.69-0.76c-0.34-0.26-0.75-0.41-1.17-0.52c-0.61-0.15-1.24-0.21-1.86-0.17
				c-0.43,0.03-0.85,0.11-1.28,0.17c-0.27,0.04-0.55,0.08-0.82,0.11c-0.14,0.01-0.31,0.01-0.44,0.07
				C64.68,72.38,64.57,73.03,64.58,73.38L64.58,73.38z"/>
			
				<linearGradient id="SVGID_00000174587299280198541710000005946768944318530218_" gradientUnits="userSpaceOnUse" x1="68.1283" y1="-1584.9867" x2="74.0111" y2="-1584.9867" gradientTransform="matrix(1 0 0 -1 0 -1514)">
				<stop  offset="0" style="stop-color:#F29900"/>
				<stop  offset="1" style="stop-color:#FFE921"/>
			</linearGradient>
			<path fill="url(#SVGID_00000174587299280198541710000005946768944318530218_)" d="M68.43,72.19c0.16,0.22,0.39,0.37,0.63,0.5
				c0.88,0.46,1.93,0.57,2.91,0.37c0.26-0.05,0.51-0.12,0.74-0.25c0.26-0.15,0.49-0.36,0.68-0.59c0.23-0.27,0.43-0.58,0.54-0.92
				c0.11-0.34,0.12-0.72-0.02-1.05c-0.14-0.33-0.45-0.59-0.81-0.63c-0.06-0.01-0.11-0.01-0.16-0.03c-0.05-0.03-0.09-0.08-0.12-0.12
				c-0.28-0.36-0.72-0.59-1.17-0.64c-0.45-0.04-0.93,0.1-1.27,0.4c-0.05,0.04-0.09,0.08-0.15,0.09c-0.05,0.01-0.1,0-0.15,0
				c-0.5-0.07-1.04,0.07-1.42,0.41c-0.34,0.3-0.53,0.78-0.51,1.23C68.14,71.35,68.19,71.86,68.43,72.19L68.43,72.19z"/>
			<path fill="#FFE921" d="M63.79,69.1c-0.38-0.13-0.78-0.22-1.18-0.17c-0.4,0.05-0.79,0.26-0.97,0.62
				c-0.1,0.18-0.13,0.39-0.14,0.59c-0.04,0.79,0.36,1.59,1.01,2.04c0.22,0.15,0.46,0.27,0.71,0.36c1.06,0.42,2.25,0.51,3.36,0.28
				c0.45-0.09,0.9-0.25,1.28-0.52c0.37-0.28,0.66-0.69,0.71-1.15c0.06-0.55-0.24-1.11-0.68-1.44c-0.45-0.33-1.02-0.46-1.58-0.45
				c-0.52,0.01-0.98,0.2-1.48,0.27c-0.18,0.02-0.28-0.04-0.42-0.13C64.2,69.27,64.01,69.17,63.79,69.1L63.79,69.1z"/>
			<ellipse fill="#3A85F7" cx="70.93" cy="70.62" rx="0.61" ry="0.37"/>
			<ellipse fill="#3A85F7" cx="68.07" cy="73.8" rx="0.61" ry="0.37"/>
			<ellipse fill="#3A85F7" cx="64.42" cy="70.84" rx="0.61" ry="0.37"/>
		</g>
	</g>
	<g id="Tree_00000036216264855498594930000015354863919251100320_">
		<g>
			<path fill="#5B4100" d="M95.79,77.36c-1.21-0.2-2.45,0.23-2.77,0.96c-0.05,0.12-0.08,0.25-0.08,0.37c0,0,0-0.01,0-0.01v3.61
				c0,0.6,0.66,1.15,1.67,1.31c1.21,0.2,2.45-0.23,2.77-0.96c0.05-0.12,0.08-0.24,0.08-0.36v-3.61c0,0,0,0,0,0.01
				C97.47,78.08,96.81,77.52,95.79,77.36L95.79,77.36z M93.3,79.41C93.3,79.41,93.29,79.4,93.3,79.41
				C93.29,79.4,93.29,79.41,93.3,79.41z M93.21,79.32c0,0-0.01-0.01-0.01-0.02C93.2,79.31,93.21,79.32,93.21,79.32z M93.13,79.22
				c0-0.01-0.01-0.01-0.01-0.02C93.12,79.21,93.13,79.22,93.13,79.22z M92.95,78.78C92.95,78.78,92.95,78.79,92.95,78.78
				C92.95,78.79,92.95,78.78,92.95,78.78z M93.06,79.11C93.06,79.11,93.06,79.11,93.06,79.11C93.06,79.11,93.06,79.11,93.06,79.11z
				 M93.01,79.02c0,0,0-0.01-0.01-0.02C93.01,79.01,93.01,79.01,93.01,79.02z M92.97,78.91c0-0.01,0-0.01-0.01-0.02
				C92.97,78.89,92.97,78.9,92.97,78.91z M93.39,79.49c0.01,0.01,0.01,0.01,0.02,0.02C93.4,79.5,93.39,79.49,93.39,79.49z
				 M94.24,79.91c0.01,0,0.02,0.01,0.03,0.01C94.26,79.91,94.25,79.91,94.24,79.91z M93.51,79.58c0.01,0,0.01,0.01,0.02,0.01
				C93.52,79.58,93.51,79.58,93.51,79.58z M93.64,79.66C93.64,79.66,93.64,79.66,93.64,79.66C93.64,79.66,93.64,79.66,93.64,79.66z
				 M93.77,79.73c0.01,0,0.02,0.01,0.02,0.01C93.78,79.73,93.77,79.73,93.77,79.73z M93.92,79.8c0.01,0,0.02,0.01,0.02,0.01
				C93.93,79.8,93.93,79.8,93.92,79.8z M94.08,79.86C94.08,79.86,94.09,79.86,94.08,79.86C94.09,79.86,94.08,79.86,94.08,79.86z
				 M94.42,79.95c0.01,0,0.02,0,0.03,0.01C94.44,79.96,94.43,79.95,94.42,79.95z M97.46,78.77c0,0,0-0.01,0-0.01
				C97.46,78.76,97.46,78.77,97.46,78.77z M97.42,78.95c0-0.01,0.01-0.02,0.01-0.02C97.43,78.93,97.42,78.94,97.42,78.95z
				 M97.44,78.87c0-0.01,0-0.02,0.01-0.03C97.45,78.85,97.45,78.86,97.44,78.87z"/>
			<circle fill="#00854C" cx="95.25" cy="72.27" r="7.87"/>
		</g>
	</g>
	<g id="Notifications_00000080179717835644901770000011477175999890718900_">
		<path fill-rule="evenodd" clip-rule="evenodd" fill="#3D5FEC" d="M61.09,39.39l-37.96,0.04c-3.45,0.01-6.25,2.81-6.25,6.26
			c0,3.45,2.8,6.26,6.25,6.26h37.96l0,0c3.45-0.01,6.25-2.82,6.25-6.28C67.34,42.21,64.54,39.4,61.09,39.39L61.09,39.39z"/>
		<g>
			<path fill="#FDFD6D" d="M25.07,42.31l0.79,1.9l2.05,0.17c0.28,0.02,0.39,0.37,0.18,0.55l-1.56,1.34l0.47,2
				c0.06,0.27-0.23,0.48-0.47,0.34l-1.76-1.07l-1.76,1.07c-0.24,0.14-0.53-0.07-0.47-0.34l0.47-2l-1.56-1.34
				c-0.21-0.18-0.1-0.53,0.18-0.55l2.05-0.17l0.79-1.9C24.6,42.05,24.97,42.05,25.07,42.31L25.07,42.31z"/>
			<path fill="#FDFD6D" d="M33.73,42.31l0.79,1.9l2.05,0.17c0.28,0.02,0.39,0.37,0.18,0.55l-1.56,1.34l0.47,2
				c0.06,0.27-0.23,0.48-0.47,0.34l-1.76-1.07l-1.76,1.07c-0.24,0.14-0.53-0.07-0.47-0.34l0.47-2l-1.56-1.34
				c-0.21-0.18-0.1-0.53,0.18-0.55l2.05-0.17l0.79-1.9C33.26,42.05,33.63,42.05,33.73,42.31L33.73,42.31z"/>
			<path fill="#FDFD6D" d="M42.39,42.31l0.79,1.9l2.05,0.17c0.28,0.02,0.39,0.37,0.18,0.55l-1.56,1.34l0.47,2
				c0.06,0.27-0.23,0.48-0.47,0.34l-1.76-1.07l-1.76,1.07c-0.24,0.14-0.53-0.07-0.47-0.34l0.47-2l-1.56-1.34
				c-0.21-0.18-0.1-0.53,0.18-0.55l2.05-0.17l0.79-1.9C41.92,42.05,42.29,42.05,42.39,42.31L42.39,42.31z"/>
			<path fill="#FDFD6D" d="M51.06,42.31l0.79,1.9l2.05,0.17c0.28,0.02,0.39,0.37,0.18,0.55l-1.56,1.34l0.47,2
				c0.06,0.27-0.23,0.48-0.47,0.34l-1.76-1.07l-1.76,1.07c-0.24,0.14-0.53-0.07-0.47-0.34l0.47-2l-1.56-1.34
				c-0.21-0.18-0.1-0.53,0.18-0.55l2.05-0.17l0.79-1.9C50.59,42.05,50.95,42.05,51.06,42.31L51.06,42.31z"/>
			<path fill="#FDFD6D" d="M59.72,42.31l0.79,1.9l2.05,0.17c0.28,0.02,0.39,0.37,0.18,0.55l-1.56,1.34l0.47,2
				c0.06,0.27-0.23,0.48-0.47,0.34l-1.76-1.07l-1.76,1.07c-0.24,0.14-0.53-0.07-0.47-0.34l0.47-2l-1.56-1.34
				c-0.21-0.18-0.1-0.53,0.18-0.55l2.05-0.17l0.79-1.9C59.25,42.05,59.61,42.05,59.72,42.31L59.72,42.31z"/>
		</g>
		<g>
			<path fill="#FF4365" d="M92.05,11.76c-1.99-3.83-5.4-6.71-9.53-8.02l0,0c-3.08-0.94-6.35-0.99-9.45-0.1
				c-3.1,0.9-5.84,2.69-7.93,5.16l0,0c-2.47,2.93-3.81,6.64-3.81,10.47c-0.02,2.67,0.51,5.33,1.6,7.76
				c1.7,3.73,4.51,6.74,7.42,10.52l0,0c0.92,1.24,1.84,2.52,2.76,3.93c3.3,5.09,2.38,8.17,4.51,8.17c2.13,0,1.21-3.05,4.51-8.17
				c5.43-8.48,11.76-12.34,11.76-22.23C93.9,16.63,93.27,14.06,92.05,11.76L92.05,11.76L92.05,11.76z"/>
			<g>
				<path fill="#FFE921" d="M84.55,11.29c0.89,0.05,1.72-0.34,2.13-1.08c0.59-1.09,0.05-2.53-1.22-3.22
					c-1.27-0.69-2.77-0.36-3.37,0.73c-0.41,0.74-0.28,1.65,0.24,2.37c-3.38-1.16-7.2,0.25-8.96,3.5c-0.2,0.37-0.36,0.74-0.5,1.12
					c-0.77,2.17-2.7,3.74-4.99,4.05l0,0c-1.21,0.17-2.32,0.88-2.95,2.03c-1.05,1.92-0.33,4.33,1.59,5.37l13.11,7.13
					c1.92,1.05,4.33,0.33,5.37-1.59c0.63-1.15,0.62-2.48,0.11-3.58l0,0c-0.98-2.09-0.72-4.55,0.69-6.39
					c0.25-0.32,0.47-0.66,0.67-1.03C88.25,17.48,87.36,13.5,84.55,11.29L84.55,11.29z M83.16,8.3c0.26-0.49,1.05-0.6,1.71-0.24
					c0.66,0.36,0.99,1.07,0.73,1.56c-0.26,0.49-1.05,0.6-1.71,0.24C83.23,9.5,82.9,8.79,83.16,8.3z"/>
				<path d="M83.14,33.09c-0.76,1.39-4.75,0.68-10.54-2.47c-5.79-3.15-8.56-6.12-7.8-7.51c0.76-1.39,4.75-0.68,10.54,2.47
					C81.13,28.73,83.9,31.7,83.14,33.09z"/>
				
					<linearGradient id="SVGID_00000047018992678814575000000006614537010226037123_" gradientUnits="userSpaceOnUse" x1="72.1033" y1="-1545.2081" x2="76.0429" y2="-1538.8778" gradientTransform="matrix(1 0 0 -1 0 -1514)">
					<stop  offset="0" style="stop-color:#FFE921"/>
					<stop  offset="1" style="stop-color:#F29900"/>
				</linearGradient>
				<path fill="url(#SVGID_00000047018992678814575000000006614537010226037123_)" d="M77.2,26.65c-0.58-0.35-1.2-0.71-1.86-1.07
					s-1.29-0.69-1.9-0.98c-1.12,0.54-2.26,1.48-2.92,2.69c-0.17,0.31-0.3,0.61-0.41,0.9c-0.1,0.28-0.18,0.56-0.23,0.83
					c-0.3,1.57,0.28,2.89,1.63,3.62c1.35,0.73,2.77,0.5,3.93-0.6c0.2-0.19,0.38-0.4,0.56-0.64c0.19-0.25,0.37-0.53,0.54-0.84
					C77.18,29.36,77.36,27.88,77.2,26.65L77.2,26.65z"/>
			</g>
		</g>
	</g>
</g>
</svg>
