<?xml version="1.0" encoding="utf-8"?>
<!-- Generator: Adobe Illustrator 30.0.0, SVG Export Plug-In . SVG Version: 9.03 Build 0)  -->
<svg version="1.1" baseProfile="basic" id="Layer_1"
	 xmlns="http://www.w3.org/2000/svg" xmlns:xlink="http://www.w3.org/1999/xlink" x="0px" y="0px" width="152px" height="97px"
	 viewBox="0 0 152 97" xml:space="preserve">
<g>
	<g id="Land_00000065035607968217660820000006748171231065556620_">
		<path fill="#C5D99B" d="M54.88,53.6L42.52,75.09c-1.39,2.42-0.11,5.51,2.59,6.23l46.28,12.4c3.53,0.95,7.25-0.6,9.07-3.77
			l11.38-19.79c1.15-2,0.09-4.56-2.14-5.15l-50.03-13.4C57.81,51.11,55.84,51.93,54.88,53.6L54.88,53.6z"/>
		<polygon fill="#EAEED6" points="51.48,76.63 48.29,82.18 61.72,85.78 64.92,80.23 		"/>
	</g>
	<g id="Shop_00000145737530840598601330000014666976443204344713_">
		<g>
			<path fill="#DFE59F" d="M106.57,47.46c0-1.46-1-2.73-2.41-3.07L61.04,33.81c-1.41-0.35-2.88,0.28-3.61,1.54L48,51.75l0.05,0.01
				v23.94l47.86,12.82v0.01l0.01-0.01l0.05,0.01v-0.09l10.6-18.44L106.57,47.46L106.57,47.46z"/>
			<path fill="#9ECFA3" d="M106.57,47.46c0-0.6-0.17-1.17-0.47-1.66L95.91,63.51v25.02l0,0v0.01l0.05-0.09l0,0l10.6-18.44V47.46
				L106.57,47.46z"/>
			<path fill="#64BEFF" d="M70.78,78.52l17.27,4.62c1.43,0.38,2.83-0.69,2.83-2.17V65.8c0-1.02-0.69-1.92-1.68-2.17l-17.27-4.52
				c-1.42-0.37-2.82,0.7-2.82,2.17v15.07C69.12,77.37,69.8,78.26,70.78,78.52L70.78,78.52z"/>
			<polygon fill="#00854C" points="64.92,62.42 64.92,80.23 51.48,76.63 51.48,59.29 			"/>
			<path fill="#9ECFA3" d="M54.3,75.15l7.25,1.94c0.67,0.18,1.32-0.32,1.32-1.02v-4.34c0-0.48-0.32-0.89-0.78-1.02l-7.25-1.94
				c-0.67-0.18-1.32,0.32-1.32,1.02v4.34C53.52,74.61,53.84,75.02,54.3,75.15z"/>
			<g>
				<path fill="#F4F4C7" d="M65.48,57.73l0.86-1.49l-9.86-2.42l-0.85,1.48c-1.26,2.19-1.92,4.67-1.92,7.19v1.26l9.86,2.42v-1.24
					C63.56,62.4,64.22,59.92,65.48,57.73L65.48,57.73z"/>
				<path fill="#F4F4C7" d="M76.2,58.66l-0.86,1.5c-1.26,2.19-1.92,4.67-1.92,7.19v1.23l9.86,2.42v-1.22c0-2.53,0.66-5.01,1.92-7.19
					l0.87-1.52L76.2,58.66L76.2,58.66z"/>
			</g>
			<g>
				<path fill="#9ECFA3" d="M93.17,73.44l-9.9-2.43v-1.22c0-2.53,0.66-5.01,1.92-7.19l0.87-1.52l9.9,2.43l0,0v0v5.06L93.17,73.44
					L93.17,73.44z"/>
				<path fill="#9ECFA3" d="M75.34,60.17l0.86-1.5l-9.86-2.42l-0.86,1.49c-1.26,2.19-1.92,4.67-1.92,7.19v1.24l9.86,2.42v-1.23
					C73.41,64.84,74.08,62.36,75.34,60.17L75.34,60.17z"/>
				<path fill="#9ECFA3" d="M55.62,55.3l0.85-1.48l-8.42-2.07l-0.94,1.63c-1.22,2.12-1.86,4.52-1.86,6.97v0.38
					c0,0.55,0.38,1.04,0.92,1.17l7.53,1.85V62.5C53.7,59.97,54.37,57.49,55.62,55.3L55.62,55.3z"/>
			</g>
			<path fill="#6C9E82" fill-opacity="0.91" d="M95.97,63.52l-0.93,1.62c-1.22,2.12-1.86,4.52-1.86,6.97v1.33l2.8-4.86L95.97,63.52
				L95.97,63.52z"/>
			
				<linearGradient id="SVGID_1_" gradientUnits="userSpaceOnUse" x1="76.0113" y1="-2399.9209" x2="83.5583" y2="-2399.9209" gradientTransform="matrix(1 0 0 -1 0 -2322)">
				<stop  offset="0" style="stop-color:#FFE921"/>
				<stop  offset="1" style="stop-color:#F29900"/>
			</linearGradient>
			<path fill="url(#SVGID_1_)" d="M76.01,77.47c0,0.67,0.4,1.29,0.96,1.67c0.55,0.37,1.24,0.51,1.91,0.48
				c0.32-0.01,0.63-0.06,0.94-0.14c0.09-0.02,0.18-0.05,0.27-0.03c0.09,0.02,0.17,0.08,0.25,0.14c0.69,0.5,1.67,0.57,2.42,0.17
				c0.34-0.18,0.64-0.46,0.75-0.83c0.17-0.53-0.07-1.1-0.38-1.56c-0.2-0.3-0.44-0.58-0.73-0.8c-0.36-0.27-0.8-0.44-1.24-0.55
				c-0.64-0.16-1.31-0.22-1.97-0.18c-0.45,0.03-0.9,0.11-1.35,0.18c-0.29,0.04-0.58,0.09-0.87,0.12c-0.15,0.01-0.32,0.01-0.46,0.08
				C76.12,76.41,76.01,77.1,76.01,77.47L76.01,77.47z"/>
			
				<linearGradient id="SVGID_00000090981370794540791990000010593443326101141391_" gradientUnits="userSpaceOnUse" x1="79.7706" y1="-2396.9395" x2="85.9954" y2="-2396.9395" gradientTransform="matrix(1 0 0 -1 0 -2322)">
				<stop  offset="0" style="stop-color:#F29900"/>
				<stop  offset="1" style="stop-color:#FFE921"/>
			</linearGradient>
			<path fill="url(#SVGID_00000090981370794540791990000010593443326101141391_)" d="M80.09,76.21c0.17,0.23,0.41,0.39,0.67,0.53
				c0.94,0.48,2.04,0.6,3.08,0.39c0.27-0.05,0.54-0.13,0.78-0.26c0.28-0.15,0.52-0.38,0.72-0.62c0.25-0.29,0.46-0.61,0.58-0.97
				c0.12-0.36,0.13-0.76-0.03-1.11c-0.15-0.35-0.48-0.63-0.86-0.67c-0.06-0.01-0.12-0.01-0.17-0.04c-0.05-0.03-0.09-0.08-0.13-0.13
				c-0.3-0.38-0.76-0.63-1.24-0.68c-0.48-0.05-0.98,0.11-1.35,0.42c-0.05,0.04-0.1,0.08-0.16,0.1c-0.05,0.01-0.11,0-0.16,0
				c-0.53-0.07-1.1,0.07-1.5,0.43c-0.36,0.32-0.56,0.82-0.54,1.3C79.78,75.33,79.83,75.86,80.09,76.21L80.09,76.21z"/>
			<path fill="#FFE921" d="M75.18,72.94c-0.4-0.14-0.83-0.24-1.25-0.18c-0.42,0.05-0.83,0.28-1.03,0.65
				c-0.1,0.19-0.14,0.41-0.15,0.63c-0.04,0.84,0.38,1.68,1.07,2.16c0.23,0.16,0.49,0.28,0.75,0.38c1.12,0.44,2.38,0.54,3.56,0.3
				c0.48-0.1,0.96-0.26,1.35-0.55c0.39-0.29,0.7-0.73,0.75-1.21c0.06-0.58-0.25-1.17-0.72-1.52s-1.08-0.49-1.67-0.47
				c-0.55,0.01-1.04,0.22-1.57,0.29c-0.19,0.02-0.29-0.04-0.45-0.14C75.61,73.13,75.41,73.02,75.18,72.94L75.18,72.94z"/>
			<ellipse fill="#3A85F7" cx="82.74" cy="74.55" rx="0.65" ry="0.39"/>
			<ellipse fill="#3A85F7" cx="79.71" cy="77.92" rx="0.65" ry="0.39"/>
			<ellipse fill="#3A85F7" cx="75.85" cy="74.79" rx="0.65" ry="0.39"/>
		</g>
	</g>
	<g id="Tree_00000025431402570426491540000007117676748051181494_">
		<g>
			<path fill="#5B4100" d="M109.04,81.68c-1.28-0.21-2.59,0.25-2.94,1.02c-0.06,0.13-0.08,0.26-0.08,0.39c0,0,0-0.01,0-0.01v3.82
				c0,0.64,0.7,1.22,1.77,1.39c1.28,0.21,2.59-0.25,2.93-1.02c0.06-0.13,0.08-0.25,0.08-0.38v-3.82c0,0,0,0,0,0.01
				C110.82,82.44,110.12,81.85,109.04,81.68L109.04,81.68z M106.4,83.85C106.4,83.85,106.4,83.85,106.4,83.85
				C106.4,83.85,106.4,83.85,106.4,83.85z M106.31,83.76c0,0-0.01-0.01-0.01-0.02C106.31,83.75,106.31,83.75,106.31,83.76z
				 M106.23,83.65c0-0.01-0.01-0.01-0.01-0.02C106.22,83.64,106.22,83.65,106.23,83.65z M106.03,83.19
				C106.03,83.19,106.03,83.19,106.03,83.19C106.03,83.19,106.03,83.19,106.03,83.19z M106.15,83.54
				C106.15,83.54,106.15,83.53,106.15,83.54C106.15,83.53,106.15,83.53,106.15,83.54z M106.1,83.44c0,0,0-0.01-0.01-0.02
				C106.1,83.42,106.1,83.43,106.1,83.44z M106.06,83.32c0-0.01,0-0.01-0.01-0.02C106.06,83.3,106.06,83.31,106.06,83.32z
				 M106.5,83.93c0.01,0.01,0.01,0.01,0.02,0.02C106.51,83.94,106.51,83.94,106.5,83.93z M107.4,84.38c0.01,0,0.02,0.01,0.03,0.01
				C107.42,84.38,107.41,84.38,107.4,84.38z M106.63,84.03c0.01,0,0.01,0.01,0.02,0.01C106.64,84.04,106.63,84.03,106.63,84.03z
				 M106.76,84.12C106.76,84.12,106.77,84.12,106.76,84.12C106.77,84.12,106.77,84.12,106.76,84.12z M106.9,84.19
				c0.01,0,0.02,0.01,0.03,0.01C106.92,84.19,106.91,84.19,106.9,84.19z M107.06,84.26c0.01,0,0.02,0.01,0.03,0.01
				C107.08,84.27,107.07,84.26,107.06,84.26z M107.23,84.33C107.23,84.33,107.24,84.33,107.23,84.33
				C107.24,84.33,107.24,84.33,107.23,84.33z M107.59,84.43c0.01,0,0.02,0,0.03,0.01C107.61,84.43,107.6,84.43,107.59,84.43z
				 M110.81,83.18c0,0,0-0.01,0-0.01C110.81,83.17,110.81,83.17,110.81,83.18z M110.77,83.36c0-0.01,0.01-0.02,0.01-0.03
				C110.77,83.35,110.77,83.35,110.77,83.36z M110.79,83.28c0-0.01,0-0.02,0.01-0.03C110.79,83.26,110.79,83.27,110.79,83.28z"/>
			<circle fill="#00854C" cx="108.47" cy="76.3" r="8.33"/>
		</g>
	</g>
	<g id="Notifications_00000098920895155044990610000015567358099546007198_">
		<path fill-rule="evenodd" clip-rule="evenodd" fill="#3D5FEC" d="M72.32,41.51l-40.17,0.04c-3.65,0.01-6.62,2.97-6.62,6.63
			c0,3.66,2.96,6.62,6.62,6.63h40.17l0,0c3.65-0.01,6.62-2.98,6.62-6.65C78.94,44.49,75.98,41.52,72.32,41.51L72.32,41.51z"/>
		<g>
			<path fill="#FDFD6D" d="M34.21,44.59l0.84,2.01l2.17,0.18c0.29,0.02,0.41,0.39,0.19,0.58l-1.65,1.42l0.5,2.12
				c0.07,0.29-0.24,0.51-0.49,0.36l-1.86-1.13l-1.86,1.13c-0.25,0.15-0.56-0.07-0.49-0.36l0.5-2.12l-1.65-1.42
				c-0.22-0.19-0.1-0.56,0.19-0.58l2.17-0.18l0.84-2.01C33.71,44.32,34.1,44.32,34.21,44.59L34.21,44.59z"/>
			<path fill="#FDFD6D" d="M43.38,44.59l0.84,2.01l2.17,0.18c0.29,0.02,0.41,0.39,0.19,0.58l-1.65,1.42l0.5,2.12
				c0.07,0.29-0.24,0.51-0.49,0.36l-1.86-1.13l-1.86,1.13c-0.25,0.15-0.56-0.07-0.49-0.36l0.5-2.12l-1.65-1.42
				c-0.22-0.19-0.1-0.56,0.19-0.58l2.17-0.18l0.84-2.01C42.88,44.32,43.26,44.32,43.38,44.59L43.38,44.59z"/>
			<path fill="#FDFD6D" d="M52.54,44.59l0.84,2.01l2.17,0.18c0.29,0.02,0.41,0.39,0.19,0.58l-1.65,1.42l0.5,2.12
				c0.07,0.29-0.24,0.51-0.49,0.36l-1.86-1.13l-1.86,1.13c-0.25,0.15-0.56-0.07-0.49-0.36l0.5-2.12l-1.65-1.42
				c-0.22-0.19-0.1-0.56,0.19-0.58l2.17-0.18l0.84-2.01C52.04,44.32,52.43,44.32,52.54,44.59L52.54,44.59z"/>
			<path fill="#FDFD6D" d="M61.71,44.59l0.84,2.01l2.17,0.18c0.29,0.02,0.41,0.39,0.19,0.58l-1.65,1.42l0.5,2.12
				c0.07,0.29-0.24,0.51-0.49,0.36l-1.86-1.13l-1.86,1.13c-0.25,0.15-0.56-0.07-0.49-0.36l0.5-2.12l-1.65-1.42
				c-0.22-0.19-0.1-0.56,0.19-0.58l2.17-0.18l0.84-2.01C61.21,44.32,61.59,44.32,61.71,44.59L61.71,44.59z"/>
			<path fill="#FDFD6D" d="M70.87,44.59l0.84,2.01l2.17,0.18c0.29,0.02,0.41,0.39,0.19,0.58l-1.65,1.42l0.5,2.12
				c0.07,0.29-0.24,0.51-0.49,0.36l-1.86-1.13l-1.86,1.13c-0.25,0.15-0.56-0.07-0.49-0.36l0.5-2.12l-1.65-1.42
				c-0.22-0.19-0.1-0.56,0.19-0.58l2.17-0.18l0.84-2.01C70.37,44.32,70.76,44.32,70.87,44.59L70.87,44.59z"/>
		</g>
		<g>
			<path fill="#FF4365" d="M105.09,12.27c-2.1-4.05-5.72-7.1-10.08-8.49l0,0c-3.26-1-6.72-1.05-10-0.1
				c-3.28,0.95-6.18,2.85-8.39,5.46l0,0c-2.62,3.1-4.03,7.03-4.03,11.08c-0.03,2.82,0.54,5.64,1.69,8.21
				c1.8,3.95,4.77,7.13,7.85,11.13l0,0c0.97,1.31,1.95,2.67,2.92,4.15c3.49,5.39,2.51,8.64,4.77,8.64s1.28-3.23,4.77-8.64
				c5.75-8.98,12.44-13.05,12.44-23.52C107.04,17.43,106.37,14.71,105.09,12.27L105.09,12.27L105.09,12.27z"/>
			<g>
				<path fill="#FFE921" d="M97.14,11.78c0.94,0.05,1.82-0.36,2.25-1.15c0.63-1.15,0.05-2.68-1.29-3.41s-2.93-0.38-3.56,0.77
					c-0.43,0.79-0.3,1.75,0.26,2.51c-3.58-1.22-7.62,0.27-9.48,3.7c-0.21,0.39-0.38,0.78-0.52,1.19c-0.82,2.3-2.85,3.95-5.28,4.28
					l0,0c-1.28,0.17-2.45,0.93-3.12,2.15c-1.11,2.03-0.35,4.58,1.68,5.69l13.88,7.55c2.03,1.11,4.58,0.35,5.69-1.68
					c0.66-1.22,0.66-2.62,0.11-3.79l0,0c-1.04-2.21-0.76-4.82,0.73-6.76c0.26-0.34,0.5-0.7,0.71-1.08
					C101.06,18.32,100.12,14.11,97.14,11.78L97.14,11.78z M95.68,8.61c0.28-0.52,1.11-0.63,1.8-0.25c0.7,0.38,1.05,1.13,0.77,1.65
					c-0.28,0.52-1.11,0.63-1.8,0.25C95.75,9.88,95.4,9.12,95.68,8.61z"/>
				<path d="M95.65,34.84c-0.8,1.47-5.03,0.72-11.16-2.61c-6.13-3.33-9.06-6.47-8.25-7.95c0.8-1.47,5.03-0.72,11.16,2.61
					C93.53,30.23,96.46,33.37,95.65,34.84z"/>
				
					<linearGradient id="SVGID_00000170264639291165757430000011356401940543582654_" gradientUnits="userSpaceOnUse" x1="83.9767" y1="-2354.8481" x2="88.1453" y2="-2348.1499" gradientTransform="matrix(1 0 0 -1 0 -2322)">
					<stop  offset="0" style="stop-color:#FFE921"/>
					<stop  offset="1" style="stop-color:#F29900"/>
				</linearGradient>
				<path fill="url(#SVGID_00000170264639291165757430000011356401940543582654_)" d="M89.37,28.03c-0.61-0.37-1.27-0.75-1.97-1.13
					c-0.7-0.38-1.37-0.73-2.02-1.04c-1.18,0.57-2.4,1.57-3.09,2.84c-0.18,0.32-0.32,0.64-0.43,0.95c-0.11,0.3-0.19,0.59-0.25,0.88
					c-0.32,1.66,0.3,3.06,1.72,3.83c1.42,0.77,2.93,0.53,4.15-0.64c0.21-0.2,0.41-0.42,0.6-0.67c0.2-0.27,0.39-0.56,0.57-0.89
					C89.35,30.89,89.54,29.33,89.37,28.03L89.37,28.03z"/>
			</g>
		</g>
	</g>
</g>
</svg>
