<?xml version="1.0" encoding="utf-8"?>
<!-- Generator: Adobe Illustrator 22.0.1, SVG Export Plug-In . SVG Version: 6.00 Build 0)  -->
<svg version="1.1" id="Layer_1" xmlns="http://www.w3.org/2000/svg" xmlns:xlink="http://www.w3.org/1999/xlink" x="0px" y="0px"
	 width="24px" height="24px" viewBox="0 0 24 24" enable-background="new 0 0 24 24" xml:space="preserve">
<g>
	<circle fill="#FFFFFF" cx="12" cy="12" r="10"/>
</g>
<path fill="#202124" d="M13.15,11.62h-1.85V9.31h1.85c0.63,0,1.15,0.52,1.15,1.15C14.31,11.1,13.79,11.62,13.15,11.62z M13.04,7H9
	v10h2.31v-3.08h1.73c1.91,0,3.46-1.55,3.46-3.46C16.5,8.55,14.95,7,13.04,7z"/>
<path fill="#D93025" d="M12,24C5.37,24,0,18.63,0,12S5.37,0,12,0s12,5.37,12,12S18.63,24,12,24z M12,21.5c5.25,0,9.5-4.25,9.5-9.5
	S17.25,2.5,12,2.5S2.5,6.75,2.5,12S6.75,21.5,12,21.5z"/>
</svg>
