<svg xmlns="http://www.w3.org/2000/svg" width="24px" height="24px" viewBox="0 0 24 24">
<path d="M10.75,7.79L7.94,10.6c-0.29,0.29-0.77,0.29-1.06,0L6.17,9.89c-0.29-0.29-0.29-0.77,0-1.06L12,3l5.83,5.83 c0.29,0.29,0.29,0.77,0,1.06l-0.71,0.71c-0.29,0.29-0.77,0.29-1.06,0l-2.82-2.82V8c0,3.34,0.19,3.98,2.17,6.16 c1.87,2.06,2.83,4.35,2.83,6.84h-2.5c0-1.84-0.71-3.55-2.17-5.16c-0.67-0.73-1.18-1.36-1.58-1.96c-0.39,0.6-0.91,1.23-1.58,1.96 C8.96,17.45,8.25,19.16,8.25,21h-2.5c0-2.49,0.96-4.79,2.83-6.84c1.98-2.18,2.17-2.82,2.17-6.16V7.79z"/>
</svg>
