<?xml version="1.0" encoding="utf-8"?>
<!-- Generator: Adobe Illustrator 21.0.2, SVG Export Plug-In . SVG Version: 6.00 Build 0)  -->
<svg version="1.1" id="Layer_1" xmlns="http://www.w3.org/2000/svg" xmlns:xlink="http://www.w3.org/1999/xlink" x="0px" y="0px"
	 width="24px" height="24px" viewBox="0 0 24 24" enable-background="new 0 0 24 24" xml:space="preserve">
<g>
	<path id="path-1" fill="#FFFFFF" d="M9,9l5-5v16l-5-5H5V9H9z M12,15.17V8.83L9.83,11H7v2h2.83L12,15.17z M17,15h2v2h-2V15z M17,7h2
		v6h-2V7z"/>
</g>
<title>ic/volume_alerts</title>
<desc>Created with Sketch.</desc>
<g id="Page-1">
	<g id="GMM-Icons" transform="translate(-347.000000, -2873.000000)">
		<g id="ic_x2F_volume_x5F_alerts" transform="translate(347.000000, 2873.000000)">
			<rect id="container" fill="none" width="24" height="24"/>
			<g id="Shape">
				<path id="path-1_1_" d="M9,9l5-5v16l-5-5H5V9H9z M12,15.17V8.83L9.83,11H7v2h2.83L12,15.17z M17,15h2v2h-2V15z M17,7h2v6h-2V7z"
					/>
			</g>
		</g>
	</g>
</g>
</svg>
