<?xml version="1.0" encoding="utf-8"?>
<!-- Generator: Adobe Illustrator 26.5.0, SVG Export Plug-In . SVG Version: 6.00 Build 0)  -->
<svg version="1.1" id="Layer_1" xmlns="http://www.w3.org/2000/svg" xmlns:xlink="http://www.w3.org/1999/xlink" x="0px" y="0px"
	 width="24px" height="24px" viewBox="0 0 24 24" style="enable-background:new 0 0 24 24;" >
<style type="text/css">
	.st0{fill-rule:evenodd;clip-rule:evenodd;fill:#1A73E8;}
</style>
<g>
	<path class="st0" d="M12,2C6.5,2,2,6.5,2,12s4.5,10,10,10s10-4.5,10-10S17.5,2,12,2z M12,20c-4.4,0-8-3.6-8-8s3.6-8,8-8s8,3.6,8,8
		S16.4,20,12,20z"/>
	<path class="st0" d="M13,7H9v10h2v-3h2c1.9,0,3.5-1.6,3.5-3.5S14.9,7,13,7z M13,12h-2V9h2c0.8,0,1.5,0.7,1.5,1.5
		C14.5,11.3,13.8,12,13,12z"/>
</g>
</svg>