<svg xmlns="http://www.w3.org/2000/svg" width="24px" height="24px" viewBox="0 0 24 24">
<path fill="black" opacity="0.5" d="M6.5,13.5c1.66,0,3-1.34,3-3s-1.34-3-3-3s-3,1.34-3,3S4.84,13.5,6.5,13.5z M6.5,16C3.46,16,1,13.54,1,10.5S3.46,5,6.5,5S12,7.46,12,10.5S9.54,16,6.5,16z"/>
<path d="M18.08,11.75h-6.23c-0.47,2.03-2.07,3.63-4.11,4.11V21h-2.5v-6.75c0-0.41,0.34-0.75,0.75-0.75h0.5c1.66,0,3-1.34,3-3V10 c0-0.41,0.34-0.75,0.75-0.75h7.82l-2.81-2.81c-0.29-0.29-0.29-0.77,0-1.06l0.71-0.71c0.29-0.29,0.77-0.29,1.06,0l5.83,5.83 l-5.83,5.83c-0.29,0.29-0.77,0.29-1.06,0l-0.71-0.71c-0.29-0.29-0.29-0.77,0-1.06L18.08,11.75z"/>
</svg>
