<svg xmlns="http://www.w3.org/2000/svg" width="24px" height="24px" viewBox="0 0 24 24">
<path fill="black" opacity="0.5" d="M9.5,16.5c1.66,0,3-1.34,3-3s-1.34-3-3-3s-3,1.34-3,3S7.84,16.5,9.5,16.5z M9.5,19C6.46,19,4,16.54,4,13.5S6.46,8,9.5,8s5.5,2.46,5.5,5.5S12.54,19,9.5,19z"/>
<path d="M16.5,7.57l-2.48,2.79c0.63,0.91,0.98,2,0.98,3.14c0,2.61-1.81,4.79-4.25,5.36V21 h-2.5v-3.75c0-0.41,0.34-0.75,0.75-0.75h0.5c1.66,0,3-1.34,3-3c0-0.86-0.36-1.66-0.99-2.22l-0.37-0.33 c-0.31-0.28-0.33-0.75-0.06-1.05l3.9-4.39h-4.24C10.34,5.5,10,5.16,10,4.75v-1C10,3.34,10.34,3,10.75,3H19v8.25 c0,0.41-0.34,0.75-0.75,0.75h-1c-0.41,0-0.75-0.34-0.75-0.75V7.57z"/>
</svg>
