<svg xmlns="http://www.w3.org/2000/svg" width="24px" height="24px" viewBox="0 0 24 24">
<path fill="black" opacity="0.5" d="M9.5,18C5.36,18,2,14.64,2,10.5S5.36,3,9.5,3c2.67,0,5.02,1.4,6.35,3.5H12.5 c-0.84-0.63-1.87-1-3-1c-2.76,0-5,2.24-5,5s2.24,5,5,5V18z"/>
<path d="M14.5,6.79L11.69,9.6c-0.29,0.29-0.77,0.29-1.06,0L9.92,8.89c-0.29-0.29-0.29-0.77,0-1.06L15.75,2l5.83,5.83 c0.29,0.29,0.29,0.77,0,1.06L20.87,9.6c-0.29,0.29-0.77,0.29-1.06,0L17,6.78v3.72c0,3.72-2.7,6.8-6.25,7.4V21h-2.5v-4.75 c0-0.41,0.34-0.75,0.75-0.75h0.5c2.76,0,5-2.24,5-5V6.79z"/>
</svg>
