<svg xmlns="http://www.w3.org/2000/svg" width="24px" height="24px" viewBox="0 0 24 24">
<path fill="black" opacity="0.5" d="M17.5,13.5c1.66,0,3-1.34,3-3s-1.34-3-3-3s-3,1.34-3,3S15.84,13.5,17.5,13.5z M17.5,16c-3.04,0-5.5-2.46-5.5-5.5S14.46,5,17.5,5S23,7.46,23,10.5S20.54,16,17.5,16z"/>
<path d="M5.92,11.75l2.82,2.82c0.29,0.29,0.29,0.77,0,1.06l-0.71,0.71c-0.29,0.29-0.77,0.29-1.06,0L1.14,10.5l5.83-5.83 c0.29-0.29,0.77-0.29,1.06,0l0.71,0.71c0.29,0.29,0.29,0.77,0,1.06L5.92,9.26h6.22C12.71,6.81,14.89,5,17.5,5 c3.04,0,5.5,2.46,5.5,5.5c0,2.61-1.81,4.79-4.25,5.36V21h-2.5v-6.75c0-0.41,0.34-0.75,0.75-0.75h0.5c1.66,0,3-1.34,3-3s-1.34-3-3-3 s-3,1.34-3,3V11c0,0.41-0.34,0.75-0.75,0.75H5.92z"/>
</svg>
