<svg width="24" height="24" viewBox="0 0 24 24" fill="none" xmlns="http://www.w3.org/2000/svg"><rect width="24" height="24" rx="9.5" fill="#F29A00"/><g clip-path="url(#a)"><path d="M11.25 6V4.5c0-.412.338-.75.75-.75s.75.338.75.75V6c0 .412-.338.75-.75.75a.75.75 0 0 1-.75-.75m5.52 2.287 1.058-1.065a.747.747 0 1 0-1.058-1.057L15.713 7.23a.747.747 0 1 0 1.057 1.057m2.73 2.963H18a.75.75 0 0 0-.75.75c0 .412.337.75.75.75h1.5c.413 0 .75-.338.75-.75a.75.75 0 0 0-.75-.75m-7.5 6a.75.75 0 0 0-.75.75v1.5c0 .413.338.75.75.75s.75-.337.75-.75V18a.75.75 0 0 0-.75-.75M7.23 8.288 6.165 7.23a.747.747 0 0 1 0-1.057.754.754 0 0 1 1.058 0L8.28 7.23a.745.745 0 1 1-1.05 1.057m8.483 7.425a.747.747 0 0 0 0 1.057l1.057 1.058a.747.747 0 1 0 1.058-1.058l-1.058-1.057a.747.747 0 0 0-1.057 0M4.5 12.75H6c.412 0 .75-.338.75-.75a.75.75 0 0 0-.75-.75H4.5a.75.75 0 0 0-.75.75c0 .412.338.75.75.75m2.73 5.085 1.057-1.058a.747.747 0 0 0 0-1.057.754.754 0 0 0-1.057 0l-1.057 1.057a.747.747 0 1 0 1.057 1.058M12 7.5A4.504 4.504 0 0 0 7.5 12c0 2.483 2.018 4.5 4.5 4.5s4.5-2.017 4.5-4.5-2.017-4.5-4.5-4.5" fill="#fff"/></g><defs><clipPath id="a"><path fill="#fff" d="M3 3h18v18H3z"/></clipPath></defs></svg>