<?xml version="1.0" encoding="UTF-8"?>
<svg width="48px" height="48px" viewBox="0 0 48 48" version="1.1" xmlns="http://www.w3.org/2000/svg" xmlns:xlink="http://www.w3.org/1999/xlink">
    <!-- Generator: Sketch 54.1 (76490) - https://sketchapp.com -->
    <title>sv-button</title>
    <desc>Created with Sketch.</desc>
    <g id="sv-button" stroke="none" stroke-width="1" fill="none" fill-rule="evenodd">
        <g id="streetview">
            <g id="Map">
                <path d="M8.8817842e-16,38.3988604 L1.96354167,36.765625 L4.70758929,30.6473214 C8.06193873,24.7148517 10.8466057,21.1914684 13.0615901,20.0771716 C15.2765745,18.9628748 17.779854,19.8260398 20.5714286,22.6666667 L22.8634878,32.4992289 L26.8720923,48 L8,48 C3.581722,48 4.4408921e-16,44.418278 0,40 L8.8817842e-16,38.3988604 Z" id="park-1" fill="#84CA50"></path>
                <path d="M15.7392423,0 L18.6666667,17.7771429 L10.5829613,20.905878 L7.0390625,25.3214286 L3.45123581,33.5875355 L0,39.0098514 L0,8 C8.11573031e-14,3.581722 3.581722,2.66453526e-15 8,0 L15.7392423,1.77635684e-15 L15.7392423,0 Z" id="city-4" fill="#D8D8D8" fill-rule="nonzero"></path>
                <polygon id="grass-2" fill="#CAE6A3" fill-rule="nonzero" points="2.90042232 16.3085714 4.48087973 18.3901056 7.255 21.1971905 7.0390625 25.3214286 3.45123581 33.5875355 0 39.0098514 0 13.8897391 1.68523332 14.8155952 2.46711041 15.816131"></polygon>
                <path d="M24.9567801,48 L8,48 C4.99374551,48 2.37478471,46.3417986 1.00785995,43.8901381 L3.99300622,36.6422991 L13.3944064,32.4933333 L18.2154309,31 L21.6231399,39.2430999 L24.9567801,48 Z" id="city-3" fill="#D8D8D8" fill-rule="nonzero"></path>
                <path d="M48,16.9257474 L48,40 C48,44.418278 44.418278,48 40,48 L26.6380266,48 L18.6666667,17.7771429 L32,16.3085714 L43.5173897,17.7771429 L48,16.9257474 Z" id="city-2" fill="#D8D8D8" fill-rule="nonzero"></path>
                <path d="M48,37.9827432 L48,40 C48,44.418278 44.418278,48 40,48 L26.6380266,48 L26.8720923,45.8442579 L37.3190133,42.3898637 L45.7840563,38.6900308 L48,37.9827432 Z" id="city-1" fill="#D8D8D8" fill-rule="nonzero"></path>
                <polygon id="road-3" fill="#EAEAEA" fill-rule="nonzero" points="4.0020493 37.9827432 2.90042232 35.1923278 20.0206151 28.4334537 21.1222421 31.2238691"></polygon>
                <polygon id="road-2" fill="#EAEAEA" fill-rule="nonzero" points="0 16.1357478 0 12.1179586 7.67709827 18.9571527 5.68154564 21.1971905"></polygon>
                <polygon id="road-1" fill="#EAEAEA" fill-rule="nonzero" points="48 36.2670596 48 39.504559 28.5639207 47.3899617 27.4360793 44.6100383"></polygon>
                <path d="M16.1190211,0 L40,0 C44.418278,-8.8817842e-16 48,3.581722 48,8 L48,16.0872154 L42.8934272,17.287619 L36.0761179,15.8225446 L18.6666667,16.3085714 L16.1190211,0 Z" id="grass-1" fill="#CAE6A3" fill-rule="nonzero"></path>
                <path d="M11.7668761,0 L19.8575722,0 L21.8542144,13.2223467 C24.2986512,12.8426567 26.8613557,12.5105869 29.5426444,12.2258607 C29.6647531,12.212894 29.7873941,12.205557 29.9101778,12.2038731 C33.0333576,12.161041 36.377189,12.5093341 39.9441331,13.2407603 C42.3986878,13.7440835 45.0244377,13.405426 47.9130237,12.1527603 C47.9419506,12.1402159 47.9709444,12.12804 48,12.1162307 L48,20.6113786 C44.7212234,21.5575212 41.4867839,21.7235527 38.3371169,21.0776921 C35.3839416,20.4721233 32.6705787,20.182442 30.1993186,20.2012104 C27.8300725,20.4553998 25.5653167,20.747656 23.4053061,21.077756 L30.9685018,48 L22.6588151,48 L15.5829062,22.8123209 C14.5119416,23.2236159 13.6242149,23.6966354 12.7716192,24.2539784 C12.4353278,24.4738126 11.6251827,25.4753826 10.5990395,27.1637486 L8.35732374,32.2842205 L5.61327612,38.402524 C5.51216303,38.6279722 5.39037824,38.8435667 5.24948338,39.046543 L2.52403695,42.9728823 C2.16314189,43.4927958 1.70107565,43.9006911 1.18275552,44.1884588 C0.432670834,42.9701995 2.2759572e-13,41.5356276 2.27373675e-13,40 L2.27373675e-13,31.3692964 C0.281773948,30.7410835 0.623819211,29.9784968 1.0433125,29.0432405 L3.37478571,23.7173476 C3.44239725,23.5628995 3.51970606,23.4128805 3.60624953,23.2681884 C5.26861741,20.4888749 6.76768298,18.6211015 8.39430342,17.5577775 C10.0534023,16.4732223 11.8193528,15.5966379 14.0150957,14.8883656 L11.7668761,0 Z" id="bluelines-glow" fill="#A4E3FB" fill-rule="nonzero"></path>
                <path d="M14.2952186,0 L17.3291773,0 L19.5586343,14.7693089 L19.8038779,16.093785 C22.9229227,15.5493608 26.2570791,15.0888109 29.8066353,14.7118834 L29.9444603,14.7036381 C32.8788905,14.6633944 36.0444097,14.9931146 39.4419405,15.6898015 C42.1510155,16.2453158 44.9950991,15.960875 48,14.8161942 L48,17.996726 C44.8557521,19.0193385 41.7959029,19.2349205 38.8393095,18.6286509 C35.6719689,17.9791661 32.7432494,17.6714203 30.0540508,17.7024912 C26.6067416,18.0699332 23.3720018,18.5171185 20.3501112,19.0438026 L20.5685512,20.2235216 L28.3717247,48 L25.2555922,48 L17.661929,20.9693027 L17.6310978,20.8367179 L17.40968,19.6399402 C14.822467,20.2768188 13.0516724,21.084139 11.403708,22.1614156 C10.6642747,22.6447842 9.61963294,23.940777 8.37473247,26.0107526 L6.07623971,31.2611586 L3.33219209,37.3794621 C3.29427468,37.4640052 3.24860538,37.5448531 3.19576981,37.6209693 L0.470323379,41.5473085 C0.394790931,41.6561223 0.307440843,41.7518514 0.211201368,41.8339671 C0.0730666279,41.2450427 2.27484698e-13,40.6310542 2.27373675e-13,40 L2.27373675e-13,36.9638274 L0.651889711,36.0247005 C1.05650026,35.1225552 1.15090271,34.9120756 3.33348549,30.0457911 L5.66495871,24.7198982 L5.75175763,24.5514635 C7.23405556,22.0732091 8.5345174,20.4528877 9.7622146,19.6503403 C11.7219635,18.3692497 13.8414558,17.4138825 16.8631665,16.6859994 L16.6005202,15.2663793 L14.2952186,0 Z" id="bluelines" fill="#559FB8" fill-rule="nonzero"></path>
            </g>
            <g id="Pegman" transform="translate(15.000000, 6.000000)">
                <path d="M18.9312324,23.9351773 L18.9083754,23.8486843 C18.8741144,23.7194189 18.8741144,23.7194189 18.8228778,23.526472 C18.6968177,23.0520975 18.6968177,23.0520975 18.5182966,22.3809454 C18.2872706,21.5125177 17.9722301,20.3288845 17.5941578,18.908799 C17.2991954,17.8008843 17.0890608,17.0117143 16.6687941,15.4335048 C16.3325807,14.1710096 16.3325807,14.1710096 16.2485252,13.8554082 C15.9749394,12.7930652 14.9565892,12 13.8558306,12 L4.25216383,12 C3.15007174,12 2.16134466,12.8259824 1.88540089,13.8984419 C1.80230697,14.1943781 1.80230697,14.1943781 1.44796692,15.4599111 C1.00504187,17.0418416 1.00504187,17.0418416 0.47353126,18.9402102 C-0.0576952135,20.8376024 -0.0576952135,20.8376024 -0.500394041,22.4189171 C-0.688598316,23.0912192 -0.688598316,23.0912192 -0.821566802,23.5662798 C-0.91981942,23.9169143 -0.91981942,23.9169143 -0.953468839,24.0405078 C-1.14698872,24.7681098 -0.769689588,25.5594409 -0.00258019149,25.8335994 L1.05716078,26.176541 C1.84408578,26.38965 2.62745473,26.0303248 2.94408918,25.3307236 L3.55736066,23.8347182 L3.70411062,34.0144144 C3.71199047,34.5610214 4.15734299,35 4.70400672,35 L7.98387815,35 C8.50833756,35 8.94369376,34.5948207 8.98130356,34.0717116 L9.03261561,33.3580199 L9.08317686,34.0707658 C9.12031649,34.5942745 9.55584543,35 10.0806698,35 L13.4093349,35 C13.9559987,35 14.4013512,34.5610214 14.409231,34.0144144 L14.5528511,24.051834 L15.0164589,25.238931 C15.3546837,25.9874029 16.1378448,26.3458765 16.8767406,26.1466006 L18.0583449,25.7745477 C18.899659,25.4721588 19.1287303,24.6941615 18.9396503,23.9675342 C18.932723,23.9240265 18.932249,23.9275724 18.9312324,23.9351773 Z M5.41208407,19.3103331 L3.48687845,18.9455348 L3.55736066,23.8347182 L5.41208407,19.3103331 Z M9.57952752,25.751103 C9.56093464,25.9810339 9.3225395,26.2391255 9.06705414,26.2410952 C8.74585999,26.2435716 8.50777519,25.9367221 8.49366053,25.7605409 L9.03261561,33.3580199 L9.57952752,25.751103 Z M14.6264632,18.9455348 L12.6950826,19.2949015 L14.5528511,24.051834 L14.6264632,18.9455348 Z M17.9718787,24.2193638 C18.0373826,24.4710927 17.9972782,24.7344398 17.7573202,24.8209313 L16.61635,25.1810973 C16.3457382,25.2540797 16.0607607,25.123638 15.9479434,24.8751498 L13.6265671,18.9311203 L13.4093349,34 L10.0806698,34 L9.49046674,25.6806823 C9.47241976,25.4554172 9.39421618,25.2385431 9.05934445,25.2411249 C8.72447272,25.2437068 8.60014908,25.4567082 8.5821021,25.6793914 L7.98387815,34 L4.70400672,34 L4.48677456,18.9311203 L2.03305375,24.9183956 C1.92047532,25.1671367 1.63543405,25.2978829 1.3646471,25.2249885 L0.333964047,24.8919318 C0.061254134,24.7944675 -0.0476961499,24.5246657 0.0191445151,24.2729368 C0.021149735,24.2645459 2.85385712,14.1476256 2.85385712,14.1476256 C3.01627993,13.516367 3.60982504,13 4.25216383,13 L13.8558306,13 C14.4981694,13 15.1197875,13.4821577 15.2822104,14.1127709 C15.2822104,14.1127709 17.9718787,24.2116183 17.9718787,24.2193638 Z" id="torso-w" fill="#FFFFFF" fill-rule="nonzero"></path>
                <path d="M17.9718787,24.2193638 C17.9718787,24.2116183 15.2822104,14.1127709 15.2822104,14.1127709 C15.1197875,13.4821577 14.4981694,13 13.8558306,13 L4.25216383,13 C3.60982504,13 3.01627993,13.516367 2.85385712,14.1476256 C2.85385712,14.1476256 0.021149735,24.2645459 0.0191445151,24.2729368 C-0.0476961499,24.5246657 0.061254134,24.7944675 0.333964047,24.8919318 L1.3646471,25.2249885 C1.63543405,25.2978829 1.92047532,25.1671367 2.03305375,24.9183956 L4.48677456,18.9311203 L4.70400672,34 L7.98387815,34 L8.5821021,25.6793914 C8.60014908,25.4567082 8.72447272,25.2437068 9.05934445,25.2411249 C9.39421618,25.2385431 9.47241976,25.4554172 9.49046674,25.6806823 L10.0806698,34 L13.4093349,34 L13.6265671,18.9311203 L15.9479434,24.8751498 C16.0607607,25.123638 16.3457382,25.2540797 16.61635,25.1810973 L17.7573202,24.8209313 C17.9972782,24.7344398 18.0373826,24.4710927 17.9718787,24.2193638 Z" id="torso-y" fill="#FDBF2D"></path>
                <polygon id="chest" fill="#E68B2D" points="5 13 8.99926322 20 13 13"></polygon>
                <polygon id="armpit-r" fill="#F1A52D" points="13.62 18.9741699 13.704912 13.0013 13.8941253 13 14.413626 18.8025693 14.9057143 22.1487805"></polygon>
                <path d="M4.46571429,18.9728699 L4.38075814,13 L4.19211536,13 C4.19211536,13 3.85764234,17.4850149 3.67167534,18.8025693 C3.48570834,20.1201237 3.18,22.1487805 3.18,22.1487805 L4.46571429,18.9728699 Z" id="armpit-l" fill="#F1A52D"></path>
                <path d="M2.50000317,6.49477408 C2.50000317,2.90352257 5.41462997,-0.00278515378 9.00456288,2.00299196e-06 C12.5944958,0.00278915977 15.5035067,2.9146712 15.4999968,6.50522592 C15.4964869,10.0957806 12.5839661,13.0027852 8.99403316,12.999998 C5.40410025,12.9972108 2.49649327,10.0853288 2.50000317,6.49477408 Z" id="head-w" fill="#FFFFFF"></path>
                <path d="M3.50000269,6.49557807 C3.50000269,3.45682679 5.96622536,0.997643331 9.0038609,1.00000169 C12.0414964,1.00236006 14.5029672,3.46626025 14.4999973,6.50442193 C14.4970274,9.54258362 12.0325867,12.0023567 8.99495113,11.9999983 C5.9573156,11.9976399 3.49703276,9.53373975 3.50000269,6.49557807 Z" id="head" fill="#FDBF2D"></path>
            </g>
        </g>
    </g>
</svg>
