<?xml version="1.0" encoding="utf-8"?>
<!-- Generator: Adobe Illustrator 27.3.1, SVG Export Plug-In . SVG Version: 6.00 Build 0)  -->
<svg version="1.1" id="Layer_1" xmlns="http://www.w3.org/2000/svg" xmlns:xlink="http://www.w3.org/1999/xlink" x="0px" y="0px"
	 width="48px" height="48px" viewBox="0 0 48 48" enable-background="new 0 0 48 48" xml:space="preserve">
<g id="sv-button">
	<g id="streetview">
		<g id="Map">
			<path id="park-1" fill-rule="evenodd" clip-rule="evenodd" fill="#84D8BD" d="M-0.1,38.39l1.96-1.63l2.74-6.12
				c3.35-5.93,6.14-9.46,8.35-10.57c2.21-1.11,4.72-0.25,7.51,2.59l2.29,9.83l4.01,15.5H7.9c-4.42,0-8-3.58-8-8V38.39z"/>
			<path id="city-4" fill="#F8F6F6" d="M15.64-0.01l2.93,17.78l-8.08,3.13l-3.54,4.42l-3.59,8.27L-0.1,39V7.99c0-4.42,3.58-8,8-8
				H15.64L15.64-0.01z"/>
			<polygon id="grass-2" fill="#C5EEE0" points="2.8,16.3 4.38,18.38 7.15,21.19 6.94,25.31 3.35,33.58 -0.1,39 -0.1,13.88 
				1.58,14.8 2.37,15.8 			"/>
			<path id="city-3" fill="#F8F6F6" d="M24.86,47.99H7.9c-3.01,0-5.63-1.66-6.99-4.11l2.99-7.25l9.4-4.15l4.82-1.49l3.41,8.24
				L24.86,47.99z"/>
			<path id="city-2" fill="#F8F6F6" d="M47.9,16.91v23.07c0,4.42-3.58,8-8,8H26.54l-7.97-30.22L31.9,16.3l11.52,1.47L47.9,16.91z"/>
			<path id="city-1" fill="#F8F6F6" d="M47.9,37.97v2.02c0,4.42-3.58,8-8,8H26.54l0.23-2.16l10.45-3.45l8.47-3.7L47.9,37.97z"/>
			<polygon id="road-3" fill="#EAEAEA" points="3.9,37.97 2.8,35.18 19.92,28.42 21.02,31.21 			"/>
			<polygon id="road-2" fill="#EAEAEA" points="-0.1,16.12 -0.1,12.11 7.58,18.95 5.58,21.19 			"/>
			<polygon id="road-1" fill="#EAEAEA" points="47.9,36.26 47.9,39.49 28.46,47.38 27.33,44.6 			"/>
			<path id="grass-1" fill="#C5EEE0" d="M16.02-0.01H39.9c4.42,0,8,3.58,8,8v8.09l-5.11,1.2l-6.82-1.47L18.57,16.3L16.02-0.01z"/>
			<path id="bluelines-glow" fill="#99E2F9" d="M11.67-0.01h8.09l2,13.22c2.44-0.38,5.01-0.71,7.69-1c0.12-0.01,0.24-0.02,0.37-0.02
				c3.12-0.04,6.47,0.31,10.03,1.04c2.45,0.5,5.08,0.16,7.97-1.09c0.03-0.01,0.06-0.02,0.09-0.04v8.5
				c-3.28,0.95-6.51,1.11-9.66,0.47c-2.95-0.61-5.67-0.9-8.14-0.88c-2.37,0.25-4.63,0.55-6.79,0.88l7.56,26.92h-8.31L15.48,22.8
				c-1.07,0.41-1.96,0.88-2.81,1.44c-0.34,0.22-1.15,1.22-2.17,2.91l-2.24,5.12l-2.74,6.12c-0.1,0.23-0.22,0.44-0.36,0.64
				l-2.73,3.93c-0.36,0.52-0.82,0.93-1.34,1.22c-0.75-1.22-1.18-2.65-1.18-4.19v-8.63c0.28-0.63,0.62-1.39,1.04-2.33l2.33-5.33
				c0.07-0.15,0.14-0.3,0.23-0.45c1.66-2.78,3.16-4.65,4.79-5.71c1.66-1.08,3.43-1.96,5.62-2.67L11.67-0.01z"/>
			<path id="bluelines" fill="#559FB8" d="M14.19-0.01h3.03l2.23,14.77l0.25,1.32c3.12-0.54,6.45-1,10-1.38l0.14-0.01
				c2.93-0.04,6.1,0.29,9.5,0.99c2.71,0.56,5.55,0.27,8.56-0.87v3.18c-3.14,1.02-6.2,1.24-9.16,0.63c-3.17-0.65-6.1-0.96-8.79-0.93
				c-3.45,0.37-6.68,0.81-9.7,1.34l0.22,1.18l7.8,27.78h-3.12l-7.59-27.03l-0.03-0.13l-0.22-1.2c-2.59,0.64-4.36,1.44-6.01,2.52
				c-0.74,0.48-1.78,1.78-3.03,3.85l-2.3,5.25l-2.74,6.12c-0.04,0.08-0.08,0.17-0.14,0.24l-2.73,3.93c-0.08,0.11-0.16,0.2-0.26,0.29
				c-0.14-0.59-0.21-1.2-0.21-1.83v-3.04l0.65-0.94c0.4-0.9,0.5-1.11,2.68-5.98l2.33-5.33l0.09-0.17c1.48-2.48,2.78-4.1,4.01-4.9
				c1.96-1.28,4.08-2.24,7.1-2.96l-0.26-1.42L14.19-0.01z"/>
		</g>
		<g id="Pegman" transform="translate(15.000000, 6.000000)">
			<path id="torso-w" fill="#FFFFFF" d="M18.83,23.92l-0.02-0.09c-0.03-0.13-0.03-0.13-0.09-0.32c-0.13-0.47-0.13-0.47-0.3-1.15
				c-0.23-0.87-0.55-2.05-0.92-3.47c-0.29-1.11-0.51-1.9-0.93-3.48c-0.34-1.26-0.34-1.26-0.42-1.58c-0.27-1.06-1.29-1.86-2.39-1.86
				h-9.6c-1.1,0-2.09,0.83-2.37,1.9c-0.08,0.3-0.08,0.3-0.44,1.56c-0.44,1.58-0.44,1.58-0.97,3.48c-0.53,1.9-0.53,1.9-0.97,3.48
				c-0.19,0.67-0.19,0.67-0.32,1.15c-0.1,0.35-0.1,0.35-0.13,0.47c-0.19,0.73,0.18,1.52,0.95,1.79l1.06,0.34
				c0.79,0.21,1.57-0.15,1.89-0.85l0.61-1.5L3.6,34c0.01,0.55,0.45,0.99,1,0.99h3.28c0.52,0,0.96-0.41,1-0.93l0.05-0.71l0.05,0.71
				c0.04,0.52,0.47,0.93,1,0.93h3.33c0.55,0,0.99-0.44,1-0.99l0.14-9.96l0.46,1.19c0.34,0.75,1.12,1.11,1.86,0.91l1.18-0.37
				c0.84-0.3,1.07-1.08,0.88-1.81C18.83,23.91,18.83,23.92,18.83,23.92z M5.31,19.3l-1.93-0.36l0.07,4.89L5.31,19.3z M9.48,25.74
				c-0.02,0.23-0.26,0.49-0.51,0.49c-0.32,0-0.56-0.3-0.57-0.48l0.54,7.6L9.48,25.74z M14.52,18.93l-1.93,0.35l1.86,4.76
				L14.52,18.93z M17.87,24.21c0.07,0.25,0.03,0.52-0.21,0.6l-1.14,0.36c-0.27,0.07-0.56-0.06-0.67-0.31l-2.32-5.94l-0.22,15.07
				H9.98l-0.59-8.32c-0.02-0.23-0.1-0.44-0.43-0.44c-0.33,0-0.46,0.22-0.48,0.44l-0.6,8.32H4.6L4.39,18.92l-2.45,5.99
				c-0.11,0.25-0.4,0.38-0.67,0.31l-1.03-0.33c-0.27-0.1-0.38-0.37-0.31-0.62c0-0.01,2.83-10.13,2.83-10.13
				c0.16-0.63,0.76-1.15,1.4-1.15h9.6c0.64,0,1.26,0.48,1.43,1.11C15.18,14.1,17.87,24.2,17.87,24.21z"/>
			<path id="torso-y" fill-rule="evenodd" clip-rule="evenodd" fill="#FDBF2D" d="M17.87,24.21c0-0.01-2.69-10.11-2.69-10.11
				c-0.16-0.63-0.78-1.11-1.43-1.11h-9.6c-0.64,0-1.24,0.52-1.4,1.15c0,0-2.83,10.12-2.83,10.13c-0.07,0.25,0.04,0.52,0.31,0.62
				l1.03,0.33c0.27,0.07,0.56-0.06,0.67-0.31l2.45-5.99L4.6,33.99h3.28l0.6-8.32c0.02-0.22,0.14-0.44,0.48-0.44
				c0.33,0,0.41,0.21,0.43,0.44l0.59,8.32h3.33l0.22-15.07l2.32,5.94c0.11,0.25,0.4,0.38,0.67,0.31l1.14-0.36
				C17.9,24.72,17.94,24.46,17.87,24.21z"/>
			<polygon id="chest" fill-rule="evenodd" clip-rule="evenodd" fill="#E68B2D" points="4.9,12.99 8.9,19.99 12.9,12.99 			"/>
			<polygon id="armpit-r" fill-rule="evenodd" clip-rule="evenodd" fill="#F1A52D" points="13.52,18.96 13.6,12.99 13.79,12.99 
				14.31,18.79 14.8,22.14 			"/>
			<path id="armpit-l" fill-rule="evenodd" clip-rule="evenodd" fill="#F1A52D" d="M4.36,18.96l-0.08-5.97H4.09
				c0,0-0.33,4.49-0.52,5.8c-0.19,1.32-0.49,3.35-0.49,3.35L4.36,18.96z"/>
			<path id="head-w" fill-rule="evenodd" clip-rule="evenodd" fill="#FFFFFF" d="M2.4,6.48c0-3.59,2.91-6.5,6.5-6.49
				s6.5,2.91,6.5,6.51c0,3.59-2.92,6.5-6.51,6.49C5.3,12.99,2.4,10.07,2.4,6.48z"/>
			<path id="head" fill-rule="evenodd" clip-rule="evenodd" fill="#FDBF2D" d="M3.4,6.48c0-3.04,2.47-5.5,5.5-5.5
				c3.04,0,5.5,2.47,5.5,5.5s-2.47,5.5-5.51,5.5S3.4,9.52,3.4,6.48z"/>
		</g>
	</g>
</g>
</svg>
