<?xml version="1.0" encoding="utf-8"?>
<!-- Generator: Adobe Illustrator 27.3.1, SVG Export Plug-In . SVG Version: 6.00 Build 0)  -->
<svg version="1.1" id="Layer_1" xmlns="http://www.w3.org/2000/svg" xmlns:xlink="http://www.w3.org/1999/xlink" x="0px" y="0px"
	 width="48px" height="48px" viewBox="0 0 48 48" enable-background="new 0 0 48 48" xml:space="preserve">
<g>
	<defs>
		<rect id="SVGID_1_" x="0.16" y="0.13" width="47.72" height="47.72"/>
	</defs>
	<clipPath id="SVGID_00000149359249267477267710000011260919234904504750_">
		<use xlink:href="#SVGID_1_"  overflow="visible"/>
	</clipPath>
	<g clip-path="url(#SVGID_00000149359249267477267710000011260919234904504750_)">
		<path fill="#F3F0F0" d="M8.12,0.13h31.82c4.39,0,7.95,3.56,7.95,7.95V39.9c0,4.39-3.56,7.95-7.95,7.95H8.12
			c-4.39,0-7.95-3.56-7.95-7.95V8.08C0.16,3.69,3.73,0.13,8.12,0.13z"/>
		<path fill-rule="evenodd" clip-rule="evenodd" fill="#84D8BD" d="M0.16,32.23l31.22,12.95l16.5-5.24c0,4.37-3.56,7.91-7.95,7.91
			H8.12c-4.39,0-7.95-3.54-7.95-7.91V32.23z"/>
		<path fill-rule="evenodd" clip-rule="evenodd" fill="#CCCDD9" d="M7.57,10.44l10.38,4.35v14.99L7.57,25.43V10.44z"/>
		<path fill-rule="evenodd" clip-rule="evenodd" fill="#E8E9EE" d="M7.57,10.44l12.5-4.35l10.29,4.35l-12.5,4.35L7.57,10.44z"/>
		<path fill-rule="evenodd" clip-rule="evenodd" fill="#9EA0AD" d="M17.94,14.78l12.42-4.35v14.99l-12.42,4.35V14.78z"/>
		<path fill-rule="evenodd" clip-rule="evenodd" fill="#CCCDD9" d="M19.98,19.66l11.35,4.26v11.17l-11.35-4.57V19.66z"/>
		<path fill-rule="evenodd" clip-rule="evenodd" fill="#E8E9EE" d="M19.98,19.66l9.31-3.02l11.44,4.34L31.33,24L19.98,19.66z"/>
		<path fill-rule="evenodd" clip-rule="evenodd" fill="#9EA0AD" d="M31.33,24l9.4-3.02v11.18l-9.4,2.93V24z"/>
		<path fill-rule="evenodd" clip-rule="evenodd" fill="#FFFFFF" d="M-3.24,23.71v6.12l26.4,11.27c2.59,1.34,10.35,3.33,16.5,0.45
			l9.65-3.18v-5.94l-12.8,4.13c-2.85,1.06-6.45,0.91-9.86-0.15L-3.24,23.71z"/>
		<path fill-rule="evenodd" clip-rule="evenodd" fill="#A3B4C5" d="M-3.24,26.26v6.03l26.4,11.1c2.59,1.32,10.35,3.28,16.5,0.45
			l8.14-2.64l0.09-1.31l1.42-5.04l-12.8,4.07c-2.85,1.04-6.45,0.89-9.86-0.15L-3.24,26.26z"/>
	</g>
</g>
</svg>
