<svg width="19" height="19" viewBox="0 0 19 19" fill="none" xmlns="http://www.w3.org/2000/svg">
<path fill-rule="evenodd" clip-rule="evenodd" d="M6.28689 16.4625L0.833332 18.1667L2.53757 12.7131C1.98019 11.5951 1.66667 10.3342 1.66667 9.00002C1.66667 4.39765 5.39763 0.666687 10 0.666687C14.6024 0.666687 18.3333 4.39765 18.3333 9.00002C18.3333 13.6024 14.6024 17.3334 10 17.3334C8.66585 17.3334 7.40493 17.0198 6.28689 16.4625ZM5.78976 14.8716C6.20064 14.7433 6.64525 14.7788 7.0305 14.9709C7.94432 15.4264 8.95325 15.6667 10 15.6667C13.6819 15.6667 16.6667 12.6819 16.6667 9.00002C16.6667 5.31812 13.6819 2.33335 10 2.33335C6.3181 2.33335 3.33333 5.31812 3.33333 9.00002C3.33333 10.0468 3.57358 11.0557 4.02915 11.9695C4.22121 12.3548 4.25677 12.7994 4.12837 13.2103L3.37319 15.6268L5.78976 14.8716ZM13.3333 8.16669H10.8333V5.66669H9.16667V8.16669H6.66667V9.83335H9.16667V12.3334H10.8333V9.83335H13.3333V8.16669Z" fill="#1A73E8"/>
</svg>

