<?xml version="1.0" encoding="utf-8"?>
<!-- Generator: Adobe Illustrator 23.0.1, SVG Export Plug-In . SVG Version: 6.00 Build 0)  -->
<svg version="1.1" id="Layer_1" xmlns="http://www.w3.org/2000/svg" xmlns:xlink="http://www.w3.org/1999/xlink" x="0px" y="0px"
	 width="48px" height="48px" viewBox="0 0 48 48" enable-background="new 0 0 48 48" xml:space="preserve">
<path fill-rule="evenodd" clip-rule="evenodd" fill="#E8EAED" d="M40,0H8C3.58,0,0,3.58,0,8v32c0,4.42,3.58,8,8,8h32
	c4.42,0,8-3.58,8-8V8C48,3.58,44.42,0,40,0z"/>
<path fill-rule="evenodd" clip-rule="evenodd" fill="#FFFFFF" d="M0,27.6v3.5l31.5,13.1L48,39.3v-3.4l-16.2,4.9L0,27.6z"/>
<polygon fill-rule="evenodd" clip-rule="evenodd" fill="#BCC1C7" points="5,11 16.7,15.9 16.7,32.8 5,27.9 "/>
<polygon id="Path-6" fill-rule="evenodd" clip-rule="evenodd" fill="#DADCE0" points="5,11 19.1,6.1 30.7,11 16.6,15.9 "/>
<polygon id="Path-7" fill-rule="evenodd" clip-rule="evenodd" fill="#99A0A7" points="16.7,15.9 30.7,11 30.7,27.9 16.7,32.8 "/>
<polygon id="Rectangle-Copy" fill-rule="evenodd" clip-rule="evenodd" fill="#BCC1C7" points="19,21.4 31.8,26.2 31.8,38.8 
	19,33.65 "/>
<polygon id="Path-3" fill-rule="evenodd" clip-rule="evenodd" fill="#DADCE0" points="19,21.4 29.5,18 42.4,22.89 31.8,26.29 "/>
<polygon id="Path-4" fill-rule="evenodd" clip-rule="evenodd" fill="#99A0A7" points="31.8,26.29 42.4,22.89 42.4,35.5 31.8,38.8 
	"/>
<polygon fill="#BCC1C7" points="0,27.6 31.7,40.8 48,35.9 48,34.8 31.7,39.7 0,26.5 "/>
<path fill-rule="evenodd" clip-rule="evenodd" fill="#CAE6A3" d="M0,32.2l31.4,13.1L48,40c0,4.42-3.58,8-8,8H8c-4.42,0-8-3.58-8-8
	V32.2z"/>
<polygon fill="#BCC1C7" points="0,31.1 0,32.2 31.4,45.3 48,40.3 48,39.3 31.5,44.2 "/>
</svg>
