<?xml version="1.0" encoding="utf-8"?>
<!-- Generator: Adobe Illustrator 27.8.1, SVG Export Plug-In . SVG Version: 6.00 Build 0)  -->
<svg version="1.1" id="Layer_1" xmlns="http://www.w3.org/2000/svg" xmlns:xlink="http://www.w3.org/1999/xlink" x="0px" y="0px"
	 width="48px" height="48px" viewBox="0 0 48 48" enable-background="new 0 0 48 48" xml:space="preserve">
<g>
	<defs>
		<rect id="SVGID_1_" x="0.09" y="0.14" width="47.78" height="47.78"/>
	</defs>
	<clipPath id="SVGID_00000036232585921963335130000003235182104293085083_">
		<use xlink:href="#SVGID_1_"  overflow="visible"/>
	</clipPath>
	<g clip-path="url(#SVGID_00000036232585921963335130000003235182104293085083_)">
		<path fill="#1D1D1D" d="M8.06,0.14h31.85c4.4,0,7.96,3.57,7.96,7.96v31.85c0,4.4-3.57,7.96-7.96,7.96H8.06
			c-4.4,0-7.96-3.57-7.96-7.96V8.1C0.09,3.7,3.66,0.14,8.06,0.14z"/>
		<path fill="#A1B1C3" d="M7.2,0.14h33.56c3.93,0,7.11,3.18,7.11,7.11V40.8c0,3.93-3.18,7.11-7.11,7.11H7.2
			c-3.93,0-7.11-3.18-7.11-7.11V7.25C0.09,3.32,3.28,0.14,7.2,0.14z"/>
		<path fill="#D9D9D9" d="M8.63-0.15h31c4.87,0,8.82,3.95,8.82,8.82v31c0,4.87-3.95,8.82-8.82,8.82h-31c-4.87,0-8.82-3.95-8.82-8.82
			v-31C-0.19,3.8,3.76-0.15,8.63-0.15z"/>
		<path fill="#F3F0F0" d="M24.38,36.86v5.18c0,0.03-0.01,0.06-0.01,0.09v0.44c-0.01,1.02-0.84,1.85-1.86,1.86H14.4
			c-1.03,0-1.87-0.84-1.87-1.87v-0.53v-5.6l-12.71-0.46v4.41c0,4.48,3.63,8.11,8.11,8.11h32.42c4.48,0,8.11-3.63,8.11-8.11v-2.65
			L24.38,36.86z"/>
		<path fill="#EAEAEA" d="M29.66,19.45c-0.29-0.12-0.6-0.18-0.91-0.17h-0.12L7.64,18.46c-0.26-0.04-0.54-0.04-0.8,0
			c-0.25,0.06-0.49,0.16-0.71,0.3l-0.27,0.15L5.7,18.99l25,1.12l-0.44-0.3C30.08,19.66,29.88,19.54,29.66,19.45z"/>
		<path fill="#F3F0F0" d="M5.4,12.43c0.9-0.21,1.83-0.28,2.76-0.2l18.22,0.7V6.39V5.84c0-1.06,0.87-1.94,1.94-1.94h8.37
			c1.06,0,1.94,0.87,1.94,1.94v0.55v8.01v0.55c0.01,1.06-0.85,1.95-1.91,1.96c-0.01,0-0.01,0-0.02,0h-0.13l4.18,3.54l7.71,0.34V7.96
			c0-4.48-3.63-8.11-8.11-8.11H7.92c-4.48,0-8.11,3.63-8.11,8.11v6.97l3.18-1.48C3.74,12.98,4.55,12.65,5.4,12.43z"/>
		<path fill="#D0D9E2" d="M48.44,20.78l-7.71-0.34l-4.18-3.54h-8.24c-1.06,0-1.94-0.87-1.94-1.94v-0.55v-1.49l-18.22-0.7
			c-0.92-0.08-1.85-0.01-2.76,0.2c-0.85,0.21-1.66,0.55-2.41,1.01l-3.18,1.48v5.46L48.44,23V20.78z M13.83,14.98l3.75,0.1l0.05-1.82
			l3.83,2.36l-3.95,2.15l0.03-1.44l-3.74-0.11L13.83,14.98z M5.7,18.99l0.16-0.07l0.27-0.15c0.22-0.14,0.46-0.24,0.71-0.3
			c0.26-0.04,0.54-0.04,0.8,0l20.98,0.81h0.12c0.31-0.01,0.62,0.05,0.91,0.17c0.22,0.09,0.43,0.21,0.61,0.36l0.44,0.3L5.7,18.99z"/>
		<path fill="#D0D9E2" d="M48.44,27.8l-2.23-0.13v-0.52l2.23,0.12v-2.4l-48.63-2.61v2.36l3.09,0.16v0.52l-3.09-0.16v2.2l48.63,2.65
			V27.8z M16.75,26.08L4.66,25.42l0.03-0.52l12.09,0.66L16.75,26.08z M30.58,26.83l-12.1-0.66l0.03-0.52l12.09,0.66L30.58,26.83z
			 M44.44,27.57l-12.09-0.66l0.03-0.52l12.09,0.66L44.44,27.57z"/>
		<path fill="#D0D9E2" d="M12.53,34.3v-0.53c0-1.03,0.84-1.87,1.87-1.87h8.11c1.03,0,1.87,0.84,1.87,1.87v3.09l24.06,0.87V31.9
			l-48.63-2.63v6.72l12.71,0.46V34.3z"/>
		<path fill="#7B8AA8" d="M4.68,24.92l-0.03,0.52l12.09,0.65l0.03-0.52L4.68,24.92z"/>
		<path fill="#7B8AA8" d="M2.9,24.79l-3.09-0.16v0.52l3.09,0.16V24.79z"/>
		<path fill="#7B8AA8" d="M46.21,27.67l2.23,0.13v-0.53l-2.23-0.12V27.67z"/>
		<path fill="#7B8AA8" d="M18.52,25.66l-0.03,0.52l12.09,0.65l0.03-0.52L18.52,25.66z"/>
		<path fill="#7B8AA8" d="M32.39,26.4l-0.03,0.52l12.09,0.65l0.03-0.52L32.39,26.4z"/>
		<path fill="#AB30B5" d="M48.44,30l-48.63-2.65v1.9l48.63,2.63V30z"/>
		<path fill="#2E2EFF" d="M48.44,22.99l-48.63-2.61v1.89l48.63,2.61V22.99z"/>
		<path fill="#7B8AA8" d="M22.5,43.9H14.4c-1.03,0-1.87-0.84-1.87-1.87v0.53c0,1.03,0.84,1.87,1.87,1.87h8.11
			c1.02-0.01,1.85-0.84,1.86-1.86v-0.44C24.31,43.11,23.5,43.89,22.5,43.9z"/>
		<path fill="#00B0FF" d="M22.5,31.9H14.4c-1.03,0-1.87,0.84-1.87,1.87v0.53v2.13v5.6c0,1.03,0.84,1.87,1.87,1.87h8.11
			c0.99-0.01,1.8-0.79,1.86-1.77c0-0.03,0.01-0.06,0.01-0.09v-5.18v-3.09C24.38,32.74,23.54,31.9,22.5,31.9z M22.25,41.52h-1.03
			v1.13h-1.12v-1.13h-3.2v1.13h-1.12v-1.13h-1.02c0-1.72,0-4.61,0-4.61l0.33-2.61c2-1.51,4.74-1.51,6.74,0l0.44,2.49V41.52z"/>
		<path fill="#FFFFFF" d="M21.82,34.3c-2-1.51-4.74-1.51-6.74,0l-0.33,2.61c0,0,0,2.89,0,4.61h1.02v-0.59h1.12v0.59h3.2v-0.59h1.12
			v0.59h1.03v-4.73L21.82,34.3z M16.87,40.44h-1.13v-1.05h1.13V40.44z M15.74,38.26v-3.19h5.47v3.19H15.74z M21.23,40.44h-1.13
			v-1.05h1.13V40.44z"/>
		<path fill="#FFFFFF" d="M15.77,40.93v0.59v1.13h1.12v-1.13v-0.59H15.77z"/>
		<path fill="#FFFFFF" d="M20.09,40.93v0.59v1.13h1.12v-1.13v-0.59H20.09z"/>
		<path fill="#00B0FF" d="M21.21,35.07h-5.47v3.19h5.47V35.07z"/>
		<path fill="#00B0FF" d="M16.87,39.38h-1.13v1.05h1.13V39.38z"/>
		<path fill="#00B0FF" d="M21.23,39.38h-1.13v1.05h1.13V39.38z"/>
		<path fill="#7B8AA8" d="M36.7,16.9c1.06-0.01,1.92-0.89,1.91-1.96V14.4c0.01,1.06-0.85,1.95-1.91,1.96c-0.01,0-0.01,0-0.02,0
			h-8.37c-1.06,0-1.94-0.87-1.94-1.94v0.55c0,1.06,0.87,1.94,1.94,1.94h8.24h0.13C36.69,16.9,36.69,16.9,36.7,16.9z"/>
		<path fill="#00B0FF" d="M28.31,16.35h8.37c0.01,0,0.01,0,0.02,0c1.06-0.01,1.92-0.89,1.91-1.96V6.39V5.84
			c0-1.06-0.87-1.94-1.94-1.94h-8.37c-1.06,0-1.94,0.87-1.94,1.94v0.55v6.54v1.49C26.37,15.48,27.25,16.35,28.31,16.35z"/>
		<path fill="#7B8AA8" d="M17.51,17.76l3.95-2.15l-3.83-2.36l-0.05,1.82l-3.75-0.1l-0.03,1.24l3.74,0.11L17.51,17.76z"/>
		<path fill="#FFFFFF" d="M30.35,6.22l2.09,5.9l2.08-5.9h2.2v8.14h-1.68v-2.23l0.17-3.84l-2.2,6.06h-1.15l-2.2-6.06l0.17,3.83v2.23
			h-1.68V6.21L30.35,6.22z"/>
	</g>
</g>
</svg>
