<?xml version="1.0" encoding="utf-8"?>
<!-- Generator: Adobe Illustrator 27.3.1, SVG Export Plug-In . SVG Version: 6.00 Build 0)  -->
<svg version="1.1" id="Layer_1" xmlns="http://www.w3.org/2000/svg" xmlns:xlink="http://www.w3.org/1999/xlink" x="0px" y="0px"
	 width="48px" height="48px" viewBox="0 0 48 48" enable-background="new 0 0 48 48" xml:space="preserve">
<g>
	<defs>
		<path id="SVGID_1_" d="M39.97,47.96H8.03c-4.4,0-7.97-3.57-7.97-7.97V8.05c0-4.4,3.57-7.97,7.97-7.97h31.94
			c4.4,0,7.97,3.57,7.97,7.97v31.94C47.94,44.39,44.37,47.96,39.97,47.96z"/>
	</defs>
	<clipPath id="SVGID_00000065060149767125663010000004584450109030197644_">
		<use xlink:href="#SVGID_1_"  overflow="visible"/>
	</clipPath>
	<g clip-path="url(#SVGID_00000065060149767125663010000004584450109030197644_)">
		<defs>
			<rect id="SVGID_00000014612518718680731020000016692606758791575192_" x="-0.1" y="0.07" width="48" height="48"/>
		</defs>
		<clipPath id="SVGID_00000035507314147901281980000014314669293138883971_">
			<use xlink:href="#SVGID_00000014612518718680731020000016692606758791575192_"  overflow="visible"/>
		</clipPath>
		<g clip-path="url(#SVGID_00000035507314147901281980000014314669293138883971_)">
			<path fill="#1D1D1D" d="M7.91,0.07h32c4.42,0,8,3.58,8,8v32c0,4.42-3.58,8-8,8h-32c-4.42,0-8-3.58-8-8v-32
				C-0.1,3.65,3.49,0.07,7.91,0.07z"/>
			<path fill="#A1B1C3" d="M7.05,0.07h33.72c3.95,0,7.14,3.2,7.14,7.14v33.72c0,3.95-3.2,7.14-7.14,7.14H7.05
				c-3.95,0-7.14-3.2-7.14-7.14V7.22C-0.1,3.27,3.1,0.07,7.05,0.07z"/>
			<path fill="#C5EEE0" d="M-0.1,7.22c0-3.95,3.2-7.14,7.14-7.14h6.75v6.75c0,3.95-3.2,7.14-7.14,7.14H-0.1V7.22z"/>
			<path fill="#C5EEE0" d="M40.76,0.07c3.95,0,7.14,3.2,7.14,7.14v6.75H34.84c-3.95,0-7.14-3.2-7.14-7.14V0.07L40.76,0.07z"/>
			<path fill="#F3F0F0" d="M-0.1,40.93c0,3.95,3.2,7.14,7.14,7.14h6.75V35.32c0-3.95-3.2-7.14-7.14-7.14H-0.1L-0.1,40.93z"/>
			<path fill="#F3F0F0" d="M40.76,48.07c3.95,0,7.14-3.2,7.14-7.14V28.18H34.84c-3.95,0-7.14,3.2-7.14,7.14v12.75H40.76z"/>
			<path fill-rule="evenodd" clip-rule="evenodd" fill="#F8F6F6" d="M18.54,8.99V0.07h5.05v8.92c0,2.82-1.34,6.39-3.92,9.24
				c-2.66,2.94-6.7,5.21-12.13,5.21H-0.1v-5.05h7.63c3.89,0,6.61-1.58,8.38-3.54C17.77,12.8,18.54,10.41,18.54,8.99z"/>
			<path fill-rule="evenodd" clip-rule="evenodd" fill="#1BED98" d="M19.33,8.99V0.07h3.47v8.92c0,2.6-1.25,5.99-3.72,8.72
				c-2.52,2.79-6.36,4.95-11.54,4.95H-0.1v-3.47h7.63c4.13,0,7.06-1.69,8.97-3.8C18.47,13.2,19.33,10.63,19.33,8.99z"/>
			<path fill-rule="evenodd" clip-rule="evenodd" fill="#FFFFFF" d="M22.96,35.33v12.75h-5.05V35.33c0-3.25,1.52-7.43,4.52-10.8
				c3.07-3.45,7.75-6.13,14.07-6.13h11.42v5.05H36.49c-4.75,0-8.09,1.97-10.29,4.44C23.93,30.43,22.96,33.45,22.96,35.33z"/>
			<path fill-rule="evenodd" clip-rule="evenodd" fill="#FDC535" d="M22.17,35.33v12.75H18.7V35.33c0-3.03,1.44-7.04,4.32-10.28
				c2.93-3.3,7.41-5.87,13.48-5.87h11.42v3.47H36.49c-4.99,0-8.55,2.08-10.88,4.7C23.23,30.04,22.17,33.24,22.17,35.33z"/>
			<path fill-rule="evenodd" clip-rule="evenodd" fill="#FF2E2E" d="M22.17,35.33v12.75H18.7V35.33c0-4.71,3.52-12.08,11.07-14.96
				L31,23.62C24.92,25.93,22.17,31.92,22.17,35.33z"/>
			<path fill-rule="evenodd" clip-rule="evenodd" fill="#9E1313" d="M22.17,39.07v9H18.7v-9H22.17z"/>
		</g>
	</g>
</g>
</svg>
