<?xml version="1.0" encoding="utf-8"?>
<!-- Generator: Adobe Illustrator 30.0.0, SVG Export Plug-In . SVG Version: 9.03 Build 0)  -->
<svg version="1.1" baseProfile="basic" id="Layer_1"
	 xmlns="http://www.w3.org/2000/svg" xmlns:xlink="http://www.w3.org/1999/xlink" x="0px" y="0px" width="320px" height="140px"
	 viewBox="0 0 320 140" xml:space="preserve">
<g>
	<g id="Items_00000112613559956450228670000011322432779243377043_">
		<path fill="#30378F" d="M73.11,110.33c6.65-12.78,9.15-9.97-0.91-12.76c-0.5-0.13-1.13,0.13-1.4,0.6l-7.64,13.23
			c-0.84,1.54,0.52,2.24,1.83,2.45c1.01,0.27,1.39,1.25,0.85,2.19l-5.77,10c-0.27,0.47-0.08,0.95,0.42,1.09l6.26,1.68
			c0.5,0.13,1.13-0.13,1.4-0.6l7.64-13.23c0.84-1.54-0.52-2.24-1.83-2.45C72.95,112.25,72.57,111.27,73.11,110.33L73.11,110.33z"/>
		<path fill="#394EBD" d="M258.63,43.78l-2.69-10.04c-0.29-1.09-1.29-1.53-2.24-0.99l-0.74,0.43c-0.94,0.55-1.95,0.1-2.24-0.99
			l-2.92-10.91c-0.16-0.61-0.72-0.85-1.25-0.55l-5.34,3.08c-0.53,0.3-0.82,1.04-0.66,1.65l3.89,14.52c0.29,1.09,1.29,1.53,2.24,0.99
			l0.74-0.43c0.94-0.55,1.95-0.1,2.24,0.99l2.69,10.04c0.29,1.09,1.29,1.53,2.24,0.99l0.74-0.43c0.94-0.55,1.95-0.1,2.24,0.99
			l2.92,10.91c0.16,0.61,0.72,0.85,1.25,0.55l5.34-3.08c0.53-0.3,0.82-1.04,0.66-1.65l-3.89-14.52c-0.29-1.09-1.29-1.53-2.24-0.99
			l-0.74,0.43C259.93,45.32,258.92,44.87,258.63,43.78L258.63,43.78z"/>
		<g>
			<path fill="#FFD4F8" d="M79.11,64.4l67.82-39.15c7.16-4.13,16.31-1.68,20.44,5.48l0,0c4.13,7.16,1.68,16.31-5.48,20.44
				L94.07,90.31c-7.16,4.13-16.31,1.68-20.44-5.48l0,0C69.5,77.68,71.95,68.53,79.11,64.4z"/>
			<g>
				<path fill="#4285F4" d="M86.09,68.88l3.63,2.77l4.13-1.95c0.57-0.27,1.18,0.28,0.97,0.87l-1.51,4.31l3.13,3.33
					c0.43,0.46,0.1,1.2-0.53,1.19l-4.57-0.1l-2.19,4.01c-0.3,0.55-1.12,0.46-1.3-0.14l-1.31-4.37l-4.49-0.85
					c-0.62-0.12-0.79-0.92-0.27-1.28l3.76-2.6l-0.58-4.53C84.88,68.91,85.59,68.5,86.09,68.88L86.09,68.88z"/>
				<path fill="#4285F4" d="M101.68,59.87l3.63,2.77l4.13-1.95c0.57-0.27,1.18,0.28,0.97,0.87l-1.51,4.31l3.13,3.33
					c0.43,0.46,0.1,1.2-0.53,1.19l-4.57-0.1l-2.19,4.01c-0.3,0.55-1.12,0.46-1.3-0.14l-1.31-4.37l-4.49-0.85
					c-0.62-0.12-0.79-0.92-0.27-1.28l3.76-2.6l-0.58-4.53C100.47,59.91,101.18,59.5,101.68,59.87L101.68,59.87z"/>
				<path fill="#4285F4" d="M117.27,50.87l3.63,2.77l4.13-1.95c0.57-0.27,1.18,0.28,0.97,0.87l-1.51,4.31l3.13,3.33
					c0.43,0.46,0.1,1.2-0.53,1.19l-4.57-0.1l-2.19,4.01c-0.3,0.55-1.12,0.46-1.3-0.14l-1.31-4.37l-4.49-0.85
					c-0.62-0.12-0.79-0.92-0.27-1.28l3.76-2.6l-0.58-4.53C116.06,50.9,116.77,50.49,117.27,50.87L117.27,50.87z"/>
				<path fill="#4285F4" d="M132.86,41.87l3.63,2.77l4.13-1.95c0.57-0.27,1.18,0.28,0.97,0.87l-1.51,4.31l3.13,3.33
					c0.43,0.46,0.1,1.2-0.53,1.19l-4.57-0.1l-2.19,4.01c-0.3,0.55-1.12,0.46-1.3-0.14l-1.31-4.37l-4.49-0.85
					c-0.62-0.12-0.79-0.92-0.27-1.28l3.76-2.6l-0.58-4.53C131.65,41.9,132.36,41.49,132.86,41.87L132.86,41.87z"/>
				<path fill="#4285F4" d="M148.45,32.87l3.63,2.77l4.13-1.95c0.57-0.27,1.18,0.28,0.97,0.87l-1.51,4.31l3.13,3.33
					c0.43,0.46,0.1,1.2-0.53,1.19l-4.57-0.1l-2.19,4.01c-0.3,0.55-1.12,0.46-1.3-0.14l-1.31-4.37l-4.49-0.85
					c-0.62-0.12-0.79-0.92-0.27-1.28l3.76-2.6l-0.58-4.53C147.24,32.9,147.95,32.49,148.45,32.87L148.45,32.87z"/>
			</g>
		</g>
		<path fill="#30378F" d="M181.5,42.8l3.41,3.62c0.38,0.4,0.56,0.95,0.48,1.49c-0.53,3.76-3.61,6.67-7.4,6.97
			c-0.55,0.04-1.08-0.17-1.46-0.57l-3.41-3.62c-0.39-0.42-0.16-1.11,0.41-1.19c3.35-0.5,6.06-3.05,6.76-6.37
			C180.41,42.57,181.11,42.38,181.5,42.8L181.5,42.8z"/>
		<path fill="#717C1E" d="M132.98,15.96v4.97c0,0.55-0.24,1.07-0.67,1.41c-2.96,2.38-7.21,2.38-10.17,0
			c-0.43-0.34-0.67-0.86-0.67-1.41v-4.97c0-0.57,0.64-0.91,1.11-0.59c2.78,1.94,6.51,1.94,9.29,0
			C132.34,15.04,132.98,15.39,132.98,15.96L132.98,15.96z"/>
		<path fill="#4667EF" d="M244.41,108.99l-3.41,3.62c-0.38,0.4-0.56,0.95-0.48,1.49c0.53,3.76,3.61,6.67,7.4,6.97
			c0.55,0.04,1.08-0.17,1.46-0.57l3.41-3.62c0.39-0.42,0.16-1.11-0.41-1.19c-3.35-0.5-6.06-3.05-6.76-6.37
			C245.51,108.77,244.81,108.58,244.41,108.99L244.41,108.99z"/>
		<path fill="#4667EF" d="M56.12,52.09l-3.41,3.62c-0.38,0.4-0.56,0.95-0.48,1.49c0.53,3.76,3.61,6.67,7.4,6.97
			c0.55,0.04,1.08-0.17,1.46-0.57l3.41-3.62c0.39-0.42,0.16-1.11-0.41-1.19c-3.35-0.5-6.06-3.05-6.76-6.37
			C57.22,51.86,56.52,51.67,56.12,52.09L56.12,52.09z"/>
		<g>
			<path fill="#30378F" d="M98.37,15.14l-33.25,8.91c-1.73,0.46-2.76,2.25-2.3,3.98l5.19,19.36c0.46,1.73,2.25,2.76,3.98,2.3
				l13.65-3.66c1.03-0.28,2.09,0.34,2.37,1.37l0.51,1.89c0.16,0.61,0.78,1.02,1.39,0.87c0.64-0.15,1.02-0.8,0.85-1.42l-0.52-1.93
				c-0.28-1.03,0.34-2.09,1.37-2.37l13.65-3.66c1.73-0.46,2.76-2.25,2.3-3.98l-5.19-19.36C101.89,15.7,100.11,14.68,98.37,15.14
				L98.37,15.14z"/>
			<g>
				
					<rect x="68.54" y="30.38" transform="matrix(0.9659 -0.2588 0.2588 0.9659 -5.432 23.1279)" fill="#394EBD" width="33.16" height="3.63"/>
				
					<rect x="66.9" y="24.25" transform="matrix(0.9659 -0.2588 0.2588 0.9659 -3.9026 22.4944)" fill="#394EBD" width="33.16" height="3.63"/>
				
					<rect x="70.4" y="38.15" transform="matrix(0.9659 -0.2588 0.2588 0.9659 -7.5975 22.2255)" fill="#394EBD" width="20.43" height="3.63"/>
			</g>
		</g>
		<path fill-rule="evenodd" clip-rule="evenodd" fill="#6B4FF7" d="M107.46,92.67c-4.94,1.32-7.93,5.68-6.81,9.85
			c1.38,5.15,7.97,7.92,17.95,12.08l0.02,0.01c1.63,0.7,3.53,0.2,4.61-1.22l0,0c6.56-8.62,10.89-14.29,9.5-19.46
			c-1.12-4.18-5.89-6.45-10.83-5.13c-2.63,0.7-4.95,2.65-5.93,5.56c-0.08,0.25-0.39,0.32-0.59,0.15
			C113.07,92.49,110.08,91.97,107.46,92.67L107.46,92.67z"/>
		<path fill="#FF4365" d="M245.71,72.05c-1.46-6.61-5.47-12.38-11.18-16.04l0,0c-8.52-5.48-20.14-5.29-28.41,0.62l0,0
			c-16.13,11.98-11.86,29.74-3.78,45.71l0,0c0.89,2.25,1.77,4.57,2.59,7.08c2.93,9.06,0.28,13.35,3.52,14.22
			c3.23,0.87,3.08-4.14,10.16-10.55C233.04,101.12,249.86,92.6,245.71,72.05L245.71,72.05z M222.47,87.17
			c-10.22,1.73-15.77-11.6-7.3-17.59l0,0c10.8-7.08,21.6,8.21,11.24,15.97l0.09-0.05C225.3,86.34,223.94,86.98,222.47,87.17
			L222.47,87.17z"/>
		<g>
			<g>
				<path fill="#717C1E" d="M217.28,31.31h-6.45c-1.18,0-2.13,0.95-2.13,2.13c0,1.18,0.95,2.13,2.13,2.13h6.45
					c1.18,0,2.13-0.95,2.13-2.13C219.41,32.27,218.45,31.31,217.28,31.31z"/>
				<path fill="#717C1E" d="M210.83,38.21h1.69c1.18,0,2.13,0.95,2.13,2.13l0,0c0,1.18-0.95,2.13-2.13,2.13h-1.69
					c-1.18,0-2.13-0.95-2.13-2.13l0,0C208.7,39.16,209.65,38.21,210.83,38.21z"/>
				<path fill="#717C1E" d="M210.83,17.52c-2.78,0.01-2.79,4.25,0,4.26h6.45c2.78-0.01,2.79-4.25,0-4.26H210.83z"/>
				<path fill="#717C1E" d="M220.6,26.55c0-1.18-0.95-2.13-2.13-2.13h-7.64c-1.18,0-2.13,0.95-2.13,2.13c0,1.18,0.95,2.13,2.13,2.13
					h7.64C219.65,28.68,220.6,27.72,220.6,26.55z"/>
			</g>
			<path fill="#717C1E" d="M206.54,40.34c0-1.19,0.48-2.26,1.27-3.04c0.23-0.23,0.23-0.59,0-0.82c-1.66-1.52-1.66-4.56,0-6.08
				c0.75-0.69-1.43-1.69-1.27-3.86c-0.16-2.18,2.01-3.15,1.27-3.86c-2.55-2.48-0.1-5.06-1.58-5.17c-1.81,0.01-4.55-0.44-4.65,2.17
				c0.22,2.87-0.6,5.87-2.98,7.66c-0.52,0.54-1.41,0.6-1.9-0.02l0,0c-1.29-1.81,2.59-2.2,2.48-6.14l0-2.77
				c0-0.58,0.23-1.13,0.64-1.54c2.5-3.19,10.91-7.94,6.39-12.65l0,0c-0.31-0.31-0.82-0.31-1.13,0l-5.36,5.31
				c-1.48,1.48-3.37,2.51-5.42,2.95c-6.85,1.46-11.99,7.54-11.99,14.82c-0.05,9.09,7.94,15.93,16.87,15.15h3.56h3.48
				C207.34,42.31,206.4,41.05,206.54,40.34L206.54,40.34z"/>
		</g>
	</g>
	<g id="Person_00000141451154330587714130000016633788669566484878_">
		<path fill="#30378F" d="M164.55,71.84c0.47-0.83,1.71-2.92-0.72-4.19c-0.15-0.2-0.3-0.47-0.5-0.83l0,0l0,0v0
			c-0.68-1.26-1.89-2.11-3.28-2.11l0,0l0,0c-1.39,0-2.6,0.84-3.28,2.11v0h0l0,0c-0.2,0.37-0.35,0.63-0.5,0.83
			c-2.43,1.27-1.19,3.36-0.72,4.19l1.58,0.38v0.72L156.56,73l0.05,1.15c0.3,0.27,1.32,0.43,1.66,1.27c0.21,0.51,0.52-0.19,0.72-0.82
			v1.27c0.17-0.08,0.28-0.19,0.35-0.31c0.24,0.01,0.47,0.02,0.7,0.02l0,0l0,0l0,0l0,0l0,0l0,0l0,0c0.23,0,0.46-0.01,0.7-0.02
			c0.07,0.11,0.19,0.23,0.35,0.31v-1.26c0.2,0.62,0.51,1.32,0.72,0.81c0.35-0.84,1.37-1,1.66-1.27l0.05-1.15l-0.69-0.06v-0.68
			L164.55,71.84L164.55,71.84z"/>
		<g>
			<path fill="#F09790" d="M143.18,64.14c-0.44-0.78-0.56-1.96-0.43-3.02h0c0.01-0.06,0.02-0.11,0.02-0.17
				c0-0.58-0.47-1.05-1.05-1.05c-0.43,0-0.8,0.26-0.96,0.63l0,0c0,0,0,0,0,0.01c0,0,0,0.01-0.01,0.01
				c-0.33,0.81,0.03,1.59-0.11,2.43c-0.02,0.11-0.17,0.14-0.23,0.04c-0.76-1.21-2.5-3.05-3.41-3.41c-0.01,0-0.02-0.01-0.03-0.01
				c-0.04-0.01-0.07-0.03-0.1-0.04l0,0c-0.09-0.02-0.18-0.04-0.28-0.04c-0.46,0-0.84,0.29-0.98,0.7c-0.11-0.04-0.22-0.06-0.34-0.06
				c-0.58,0-1.05,0.47-1.05,1.05c0,0.09,0.01,0.17,0.03,0.25c-0.39,0.15-0.68,0.53-0.68,0.98c0,0.1,0.02,0.2,0.05,0.29
				c-0.31,0.18-0.52,0.51-0.52,0.9c0,0.44,0.28,0.82,0.66,0.97l0,0c0.78,0.28,1.74,0.84,2.48,2.16s1.66,3.17,4.22,3.56l3.25-2.75
				C144.09,65.6,143.62,64.92,143.18,64.14L143.18,64.14z"/>
			<path fill="#F09790" d="M176.92,64.14c0.44-0.78,0.56-1.96,0.43-3.02h0c-0.01-0.06-0.02-0.11-0.02-0.17
				c0-0.58,0.47-1.05,1.05-1.05c0.43,0,0.8,0.26,0.96,0.63l0,0c0,0,0,0,0,0.01c0,0,0,0.01,0.01,0.01c0.33,0.81-0.03,1.59,0.11,2.43
				c0.02,0.11,0.17,0.14,0.23,0.04c0.76-1.21,2.5-3.05,3.41-3.41c0.01,0,0.02-0.01,0.03-0.01c0.04-0.01,0.07-0.03,0.1-0.04l0,0
				c0.09-0.02,0.18-0.04,0.27-0.04c0.46,0,0.84,0.29,0.98,0.7c0.11-0.04,0.22-0.06,0.34-0.06c0.58,0,1.05,0.47,1.05,1.05
				c0,0.09-0.01,0.17-0.03,0.25c0.39,0.15,0.68,0.53,0.68,0.98c0,0.1-0.02,0.2-0.05,0.29c0.31,0.18,0.52,0.51,0.52,0.9
				c0,0.44-0.27,0.82-0.66,0.97l0,0c-0.78,0.28-1.74,0.84-2.48,2.16s-1.66,3.17-4.22,3.56l-3.25-2.75
				C176.01,65.6,176.48,64.92,176.92,64.14L176.92,64.14z"/>
		</g>
		<rect x="157.81" y="77.74" fill="#F09790" width="4.67" height="4.02"/>
		<path fill="#F09790" d="M164.55,71.17c-0.11-0.06-0.23-0.09-0.36-0.1c0.01-0.11,0.01-0.23,0.01-0.34c0-2.29-1.86-4.16-4.16-4.16
			c-2.29,0-4.16,1.86-4.16,4.16c0,0.12,0.01,0.23,0.01,0.34c-0.13,0.01-0.25,0.04-0.36,0.1c-0.56,0.3-0.66,1.19-0.23,1.99
			c0.43,0.8,1.23,1.2,1.79,0.9c0.07-0.04,0.14-0.09,0.19-0.14c0.8,0.96,1.18,1.64,1.18,2.61c0,0.46-0.12,0.87-0.5,1.22h4.16
			c-0.39-0.35-0.5-0.76-0.5-1.22c0-0.97,0.38-1.65,1.18-2.61c0.06,0.06,0.12,0.11,0.19,0.14c0.56,0.3,1.36-0.1,1.79-0.9
			C165.21,72.36,165.11,71.47,164.55,71.17L164.55,71.17z"/>
		<path d="M160.05,66.58c-2.31,0-4.19,1.87-4.19,4.19c0,0.22,0.02,0.44,0.05,0.66c0.09,0.34,0.32,0.5,0.65,0.39
			c0.38-0.13,0.42-0.58,0.04-1.05c-0.38-0.46,0.07-1.01,0.63-1.19c0.56-0.17,0.7-0.46,0.81-1.09c0.11-0.62,0.61-1.42,2.01-1.42
			c1.4,0,1.9,0.8,2.01,1.42s0.25,0.92,0.81,1.09c0.56,0.17,1.01,0.72,0.63,1.19c-0.38,0.46-0.34,0.92,0.04,1.05
			c0.33,0.11,0.56-0.06,0.65-0.39c0.03-0.21,0.05-0.43,0.05-0.66C164.23,68.45,162.36,66.58,160.05,66.58L160.05,66.58z"/>
		<path fill="#3A3D0F" d="M170.65,95.52c-2.53,1.87-5.14,3.93-6.91,2.77c-0.69-0.45-1.22-2.47-1.61-5.22h-4.16
			c-0.39,2.75-0.92,4.77-1.61,5.22c-1.78,1.16-4.38-0.9-6.91-2.77c-2.29-1.69-4.99,1.79-3.53,4.24c1.7,2.4,5.81,4.58,14.12,4.59l0,0
			c0,0,0.01,0,0.01,0c0,0,0.01,0,0.01,0l0,0c8.31-0.01,12.41-2.18,14.12-4.59C175.64,97.31,172.94,93.82,170.65,95.52L170.65,95.52z
			"/>
		<path fill="#2F3793" d="M153.39,121.68c-2.93-4.32-9.29-3.54-10.53,0.8c-0.75,2.11-1.75,3.69-3.49,5.22l0,0
			c-0.98,0.88-1.58,2.12-1.58,3.49c0,2.66,2.27,4.81,5.07,4.81c2.2,0,4.08-1.33,4.78-3.19l0,0c1.73-4.54,3.92-4.44,5.15-4.88
			C154.06,127.47,155.8,125.25,153.39,121.68L153.39,121.68z"/>
		<path fill="#2F3793" d="M166.71,121.68c2.93-4.32,9.29-3.54,10.53,0.8c0.75,2.11,1.75,3.69,3.49,5.22l0,0
			c0.98,0.88,1.58,2.12,1.58,3.49c0,2.66-2.27,4.81-5.07,4.81c-2.2,0-4.08-1.33-4.78-3.19l0,0c-1.73-4.54-3.92-4.44-5.15-4.88
			C166.04,127.47,164.3,125.25,166.71,121.68L166.71,121.68z"/>
		<ellipse transform="matrix(0.2689 -0.9632 0.9632 0.2689 5.4003 226.7733)" cx="152.08" cy="109.83" rx="1.78" ry="5.29"/>
		<ellipse transform="matrix(0.9632 -0.2689 0.2689 0.9632 -23.3503 49.2354)" cx="168.04" cy="109.85" rx="5.29" ry="1.78"/>
		<path fill="#F09790" d="M154.73,111.23c-0.02-0.09-0.04-0.19-0.07-0.28c-0.01-0.05-0.03-0.09-0.05-0.13
			c0.54-0.57,0.86-1.34,0.86-2.18c0-1.76-1.43-3.19-3.19-3.19c-1.76,0-3.19,1.43-3.19,3.19c0,0.04,0,0.08,0,0.11
			c-1.17,2.02-2.76,4.44-3.32,11.61c-0.01,1.44,3.99,3.16,5.53,0.98c0.05-0.08,0.1-0.15,0.14-0.23c0.06-0.11,0.11-0.19,0.16-0.27
			c1.89-3.07,2.99-6.37,3.13-8.55C154.8,111.94,154.8,111.58,154.73,111.23L154.73,111.23L154.73,111.23z"/>
		<path fill="#F09790" d="M164.96,111.23c0.02-0.09,0.04-0.19,0.07-0.28c0.01-0.05,0.03-0.09,0.05-0.13
			c-0.54-0.57-0.86-1.34-0.86-2.18c0-1.76,1.43-3.19,3.19-3.19s3.19,1.43,3.19,3.19c0,0.04,0,0.08,0,0.11
			c1.17,2.02,2.76,4.44,3.32,11.61c0.01,1.43-3.99,3.16-5.53,0.98c-0.05-0.08-0.1-0.15-0.14-0.23c-0.06-0.11-0.11-0.19-0.16-0.27
			c-1.89-3.07-2.99-6.37-3.13-8.55C164.89,111.94,164.89,111.58,164.96,111.23L164.96,111.23L164.96,111.23z"/>
		<path fill="#4667F4" d="M145.79,120.36c-0.01,1.44,3.99,3.16,5.53,0.98c0.05-0.08,0.1-0.15,0.14-0.23
			c0.06-0.11,0.11-0.19,0.16-0.27c0.61-1,1.48-2.61,1.94-3.86c-0.79,2.17-7.59,0.89-7.13-1.5
			C146.16,116.82,145.94,118.42,145.79,120.36L145.79,120.36z"/>
		<path fill="#4667F4" d="M173.91,120.36c0.01,1.44-3.99,3.16-5.53,0.98c-0.05-0.08-0.1-0.15-0.14-0.23
			c-0.06-0.11-0.11-0.19-0.16-0.27c-0.61-1-1.48-2.61-1.94-3.86c0.79,2.17,7.59,0.89,7.13-1.5
			C173.53,116.82,173.76,118.42,173.91,120.36L173.91,120.36z"/>
		<path fill="#394EBD" d="M160.05,100.67L160.05,100.67c0.01,0.01,0.01,0.02,0.02,0.03c0.01-0.01,0.01-0.02,0.02-0.03
			c2.29,3.42,3.11,6.92,2.85,10.54c0.72-2.59,8.69-4.07,10.19-2.87c-3.13-4.4-2.86-11.08-6.62-15.27h-12.88
			c-3.5,3.64-3.55,10.92-6.62,15.27c1.5-1.2,9.47,0.28,10.19,2.87C156.93,107.41,157.87,103.93,160.05,100.67L160.05,100.67
			L160.05,100.67z"/>
		<path fill="#26006F" d="M162.75,79.26c0,0.99-1.28,1.79-2.86,1.79c-1.58,0-2.86-0.8-2.86-1.79h-2.85V93.1h11.74V79.26H162.75z"/>
		<g>
			<path fill="#717C1E" d="M170.65,95.52c-2.53,1.87-5.14,3.93-6.91,2.77c-1.72-1.12-2.46-12.64-2.51-20.43
				c0-0.45,0.36-0.82,0.81-0.82c0.74-0.04,0.9,0.84,1.03,1.38c0.09,0.44,0.72,0.53,0.92,0.14c1.12-2.01,3.07-2.11,4.71-3.38
				c1.7-1.31,0.77-3.26,2.64-6.19l0,0c5.25-7.32,14.26,3.07,6.3,7.24l0,0c-7.44,3.41-2.93,4.66-8.18,9.8
				c-0.32,0.32-0.47,0.77-0.38,1.21c0.72,4.31,8.94,6.92,5.09,12.51C175.65,97.31,172.95,93.82,170.65,95.52L170.65,95.52z"/>
			<path fill="#717C1E" d="M149.45,95.52c2.53,1.87,5.14,3.93,6.91,2.77c1.72-1.12,2.46-12.64,2.51-20.43
				c0-0.45-0.36-0.82-0.81-0.82c-0.74-0.04-0.9,0.84-1.03,1.38c-0.09,0.44-0.72,0.53-0.92,0.14c-1.12-2.01-3.07-2.11-4.71-3.38
				c-1.7-1.31-0.77-3.26-2.64-6.19l0,0c-5.25-7.32-14.26,3.07-6.3,7.24l0,0c7.44,3.41,2.93,4.66,8.18,9.8
				c0.32,0.32,0.47,0.77,0.38,1.21c-0.72,4.31-8.94,6.92-5.09,12.51C144.45,97.31,147.15,93.82,149.45,95.52L149.45,95.52z"/>
		</g>
		<g>
			<circle cx="157.02" cy="82.59" r="1.13"/>
			<circle cx="156.5" cy="89.56" r="1.13"/>
		</g>
		<path fill="#FA5B1F" d="M161.37,70.7c-0.08-0.16-0.65-0.03-1.32,0.46c-0.66-0.49-1.24-0.62-1.32-0.46
			c-0.11,0.23,0.71,0.81,1.32,0.81C160.65,71.52,161.48,70.93,161.37,70.7z"/>
	</g>
</g>
</svg>
