<?xml version="1.0" encoding="utf-8"?>
<!-- Generator: Adobe Illustrator 27.3.1, SVG Export Plug-In . SVG Version: 6.00 Build 0)  -->
<svg version="1.1" id="Layer_1" xmlns="http://www.w3.org/2000/svg" xmlns:xlink="http://www.w3.org/1999/xlink" x="0px" y="0px"
	 width="56px" height="56px" viewBox="0 0 56 56" enable-background="new 0 0 56 56" xml:space="preserve">
<path fill="#99E2F9" d="M45.43,56.09H10.76c-5.89,0-10.67-4.77-10.67-10.67V10.76c0-5.89,4.77-10.67,10.67-10.67h34.67
	c5.89,0,10.67,4.77,10.67,10.67v34.67C56.09,51.32,51.32,56.09,45.43,56.09z"/>
<path fill="#F3F0F0" d="M45.43,0.09h-7.29C30.11,4.87,23.68,12,19.6,20.47C15.35,29.35,9.15,37.01,0.09,40.59v4.84
	c0,5.89,4.77,10.67,10.67,10.67h34.67c5.89,0,10.67-4.77,10.67-10.67V10.76C56.09,4.87,51.32,0.09,45.43,0.09z"/>
<path fill="#C5EEE0" d="M52.39,6.17l-10.29,3.92l-9.83,9.16l-4.17,9.24l24.85,24.49c1.95-1.93,3.15-4.6,3.15-7.56V10.76
	c0-1.64-0.39-3.2-1.05-4.59H52.39z"/>
<path fill="#C8D4DF" d="M29.29,28.36c3.21-6.72,9.16-19.04,26.15-21.23c-0.33-0.91-0.77-1.76-1.32-2.53
	C36.44,7.28,30.27,20.16,26.89,27.21C20.29,41,8.99,48.27,1.15,50.04c0.41,0.85,0.92,1.64,1.53,2.35
	C11.13,50.05,22.6,42.37,29.29,28.36z"/>
<path fill="#C8D4DF" d="M53.84,51.96L28.93,27.05l-1.88,1.88l24.91,24.91C52.67,53.29,53.29,52.67,53.84,51.96z"/>
<path fill-rule="evenodd" clip-rule="evenodd" fill="#DC362E" d="M10.09,28.09c0-9.93,8.07-18,18-18s18,8.07,18,18s-8.07,18-18,18
	S10.09,38.02,10.09,28.09"/>
<path fill-rule="evenodd" clip-rule="evenodd" fill="#FFFFFF" d="M26.74,35.8c-0.33,0.66-0.02,1.47,0.62,1.8
	c0.31,0.16,0.65,0.26,1,0.24c5.75-0.19,9.62-6.66,3.99-13.53C32.41,31.09,28.23,32.79,26.74,35.8"/>
<path fill-rule="evenodd" clip-rule="evenodd" fill="#FFFFFF" d="M27.89,17.34c-0.84,2.16-2.11,4.06-3.55,5.84
	c-3.05,3.76-5.27,9.54-0.41,12.95c0-2.61,2.21-4.88,3.73-6.78c1.44-1.8,3-3.73,3.31-6.1C31.3,20.72,29.69,18.9,27.89,17.34"/>
</svg>
