<svg width="56" height="56" viewBox="0 0 56 56" fill="none" xmlns="http://www.w3.org/2000/svg">
<path d="M45.3333 56H10.6667C4.77333 56 0 51.2267 0 45.3333V10.6667C0 4.77333 4.77333 0 10.6667 0H45.3333C51.2267 0 56 4.77333 56 10.6667V45.3333C56 51.2267 51.2267 56 45.3333 56Z" fill="#A2CCFC"/>
<path d="M45.3333 0H38.04C30.0133 4.77333 23.5867 11.9067 19.5067 20.3733C15.2533 29.2533 9.05333 36.92 0 40.4933V45.3333C0 51.2267 4.77333 56 10.6667 56H45.3333C51.2267 56 56 51.2267 56 45.3333V10.6667C56 4.77333 51.2267 0 45.3333 0Z" fill="#E8E8E8"/>
<path d="M52.2933 6.07999L42 9.99999L32.1733 19.16L28 28.4L52.8533 52.8933C54.8 50.96 56 48.2933 56 45.3333V10.6667C56 9.02665 55.6133 7.46665 54.9467 6.07999H52.2933Z" fill="#C5E09E"/>
<path d="M29.2 28.2666C32.4133 21.5466 38.36 9.22664 55.3467 7.03997C55.0133 6.1333 54.5733 5.27997 54.0267 4.50664C36.3467 7.18664 30.1733 20.0666 26.8 27.12C20.2 40.9066 8.89335 48.1733 1.05334 49.9466C1.46668 50.8 1.97334 51.5866 2.58668 52.2933C11.04 49.96 22.5067 42.28 29.2 28.2666Z" fill="white"/>
<path d="M53.7466 51.8666L28.84 26.96L26.96 28.84L51.8666 53.7466C52.5733 53.2 53.2 52.5733 53.7466 51.8666Z" fill="white"/>
<path fill-rule="evenodd" clip-rule="evenodd" d="M10 28C10 18.0748 18.0748 10 28 10C37.9252 10 46 18.0748 46 28C46 37.9252 37.9252 46 28 46C18.0748 46 10 37.9252 10 28" fill="#D93025"/>
<path fill-rule="evenodd" clip-rule="evenodd" d="M26.6497 35.7031C26.3225 36.3664 26.6252 37.1766 27.2657 37.5056C27.572 37.6631 27.9202 37.7629 28.2632 37.7489C34.0137 37.5581 37.883 31.0849 32.2515 24.2231C32.318 30.9991 28.139 32.7019 26.6497 35.7031" fill="white"/>
<path fill-rule="evenodd" clip-rule="evenodd" d="M27.8015 17.2495C26.9633 19.409 25.6963 21.3078 24.2525 23.0928C21.2023 26.857 18.978 32.6303 23.8395 36.0428C23.8395 33.4335 26.0463 31.1655 27.567 29.2598C29.002 27.459 30.5683 25.5253 30.8745 23.1645C31.2053 20.6288 29.6023 18.8035 27.8015 17.2495" fill="white"/>
</svg>
