<?xml version="1.0" encoding="utf-8"?>
<!-- Generator: Adobe Illustrator 30.0.0, SVG Export Plug-In . SVG Version: 9.03 Build 0)  -->
<svg version="1.1" baseProfile="basic" id="Layer_1"
	 xmlns="http://www.w3.org/2000/svg" xmlns:xlink="http://www.w3.org/1999/xlink" x="0px" y="0px" width="120px" height="120px"
	 viewBox="0 0 120 120" xml:space="preserve">
<g>
	<g id="Island_00000091700812343911459950000012379056892385431214_">
		<path fill="#C9C283" d="M5.07,87.43c-2.77,4.79-0.24,10.9,5.11,12.33l60.67,16.26c6.13,1.64,12.6-1.04,15.77-6.53l28.31-49.03
			c2.77-4.79,0.24-10.9-5.11-12.33L49.15,31.87c-6.13-1.64-12.6,1.04-15.77,6.53L5.07,87.43z"/>
	</g>
	<g id="Trees_00000176759777771869363260000003471220459394783135_">
		<path fill="#A09D25" d="M88.83,29.95L88.83,29.95c-0.47-1.35-1.76-2.32-3.27-2.32c-1.51,0-2.8,0.97-3.27,2.32L67.43,65.78h18.13
			h18.13L88.83,29.95z"/>
		<path fill="#57594C" d="M100.9,69.22c0-0.29-0.11-0.57-0.3-0.79c-0.74-0.83-1.81-1.35-3.01-1.35c-1.18,0-2.24,0.51-2.98,1.31
			c-0.2,0.22-0.31,0.5-0.31,0.8v3.84c0,0.32,0.12,0.62,0.35,0.84c0.74,0.73,1.78,1.05,2.93,1.05c1.18,0,2.23-0.34,2.97-1.09
			c0.22-0.22,0.34-0.52,0.34-0.83L100.9,69.22L100.9,69.22z"/>
		<circle fill="#DEE200" cx="97.59" cy="61.41" r="10.37"/>
		<circle fill="#DEE200" cx="35.76" cy="49.83" r="11.49"/>
		<circle fill="#A09D25" cx="24.15" cy="62.57" r="8.65"/>
	</g>
	<g id="Seat_00000076599655630182718010000000289676717469619119_">
		<path fill="#8C0019" d="M78.31,86.29c-6.21-1.61-32.34-8.47-45.51-11.9v2.92l0,0c-0.01,0.91,0.4,1.89,1.96,2.29
			c3.3,0.89,38.73,10.15,41.09,10.76c2.85,0.98,3.69-1.13,5.15-3.37L78.31,86.29z"/>
		<path fill="#DD0000" d="M90.32,75.54L90.32,75.54v-9.96c0-1.03-0.69-1.92-1.68-2.19c-9.47-2.53-46.04-12.37-52.46-14.02
			c-3.98-1.01-4.09,1.89-4.09,3.29c-0.02,1.69,0.01,9.1,0,9.25c-0.64,2.19-8.05,10.07-1.93,11.8c3.43,0.87,49.43,12.94,51.16,13.37
			c2.72,0.88,4.13-0.29,5.54-2.93c1.18-2.2,3.33-4.29,3.46-6.86l0.01,0C90.32,77.27,90.32,75.64,90.32,75.54z"/>
		<g>
			<path fill="#8C0019" d="M48.34,78.41c-1.44-0.37-1.46-1.92-1-2.75c0.35-0.63,4.77-8.65,4.77-8.65s0-7.3,0-9.82
				c0-2.52,2.09-3.02,2.8-2.84l-1.74-0.45c-0.71-0.18-2.8,0.32-2.8,2.84s0,9.79,0,9.79s-4.42,8.04-4.77,8.67
				c-0.46,0.83-0.44,2.38,0.99,2.75L48.34,78.41z"/>
			<path fill="#8C0019" d="M68.25,83.8c-1.44-0.37-1.46-1.86-0.99-2.69c0.35-0.63,4.77-8.63,4.77-8.63s0-7.31,0-9.83
				c0-2.52,2.1-3.13,2.81-2.94l-1.74-0.45c-0.71-0.18-2.81,0.42-2.81,2.94s0,9.8,0,9.8s-4.42,8.03-4.77,8.66
				c-0.46,0.83-0.44,2.32,0.99,2.69L68.25,83.8z"/>
		</g>
		
			<linearGradient id="SVGID_1_" gradientUnits="userSpaceOnUse" x1="62.7328" y1="52.5386" x2="58.0855" y2="35.2332" gradientTransform="matrix(1 0 0 -1 0 108)">
			<stop  offset="0" style="stop-color:#4F0033;stop-opacity:0"/>
			<stop  offset="1" style="stop-color:#4F0033"/>
		</linearGradient>
		<path opacity="0.6" fill="url(#SVGID_1_)" d="M32.09,61.59c0,0,0-7.18,0-8.56c0-1.38,0.11-4.23,4.03-3.24
			c3.58,0.91,52.39,14.01,52.39,14.01v13.25l-56.42-14.9V61.59z"/>
	</g>
	<g id="Pin_00000057138278696048689530000014373563790001427861_">
		<g>
			<path fill="#FF4365" d="M75.74,12.61c-2.07-3.98-5.62-6.98-9.91-8.34c-1.67-0.51-3.38-0.77-5.1-0.77c-1.72,0-3.44,0.26-5.1,0.77
				c-4.29,1.36-7.84,4.36-9.91,8.34c-1.26,2.39-1.92,5.07-1.92,7.79c0,10.28,6.58,14.29,12.22,23.11c3.43,5.32,2.47,8.49,4.69,8.49
				c0,0,0.01,0,0.01,0c0,0,0.01,0,0.01,0c2.22,0,1.26-3.18,4.69-8.49c5.65-8.82,12.22-12.83,12.22-23.11
				C77.65,17.68,77,15,75.74,12.61z"/>
			<g>
				<g>
					<g>
						<path fill="#FC8BF1" d="M56.68,25.24c-0.22,0-0.43-0.08-0.6-0.25c-0.33-0.33-0.33-0.87,0-1.2L59.87,20v-5.26
							c0-0.47,0.38-0.85,0.85-0.85s0.85,0.38,0.85,0.85v5.61c0,0.12-0.02,0.23-0.06,0.33c-0.04,0.1-0.1,0.19-0.18,0.27l0,0
							c0,0,0,0,0,0l0,0l0,0l0,0l0,0c0,0,0,0,0,0l0,0l-4.04,4.04C57.11,25.16,56.89,25.24,56.68,25.24z"/>
					</g>
				</g>
				<path fill="#FFFFFF" d="M68.6,12.56c-4.33-4.33-11.38-4.33-15.71,0s-4.33,11.38,0,15.71c2.17,2.17,5.01,3.25,7.86,3.25
					s5.69-1.08,7.86-3.25C72.93,23.94,72.93,16.89,68.6,12.56z M66.6,14.55c2.89,2.89,3.19,7.4,0.91,10.63L55.97,13.64
					c1.43-1.01,3.1-1.51,4.77-1.51C62.86,12.13,64.98,12.94,66.6,14.55z M54.88,26.27c-2.89-2.89-3.19-7.4-0.91-10.63l11.55,11.55
					C62.28,29.47,57.77,29.16,54.88,26.27z"/>
			</g>
		</g>
	</g>
</g>
</svg>
