<?xml version="1.0" encoding="utf-8"?>
<!-- Generator: Adobe Illustrator 30.0.0, SVG Export Plug-In . SVG Version: 9.03 Build 0)  -->
<svg version="1.1" baseProfile="basic" id="Layer_1"
	 xmlns="http://www.w3.org/2000/svg" xmlns:xlink="http://www.w3.org/1999/xlink" x="0px" y="0px" width="120px" height="120px"
	 viewBox="0 0 120 120" xml:space="preserve">
<metadata><?xpacket begin="﻿" id="W5M0MpCehiHzreSzNTczkc9d"?>
<x:xmpmeta xmlns:x="adobe:ns:meta/" x:xmptk="Adobe XMP Core 9.1-c002 79.a1cd12f, 2024/11/11-19:08:46        ">
   <rdf:RDF xmlns:rdf="http://www.w3.org/1999/02/22-rdf-syntax-ns#">
      <rdf:Description rdf:about=""
            xmlns:xmp="http://ns.adobe.com/xap/1.0/"
            xmlns:xmpMM="http://ns.adobe.com/xap/1.0/mm/"
            xmlns:stEvt="http://ns.adobe.com/xap/1.0/sType/ResourceEvent#">
         <xmp:Rating>5</xmp:Rating>
         <xmp:MetadataDate>2025-11-20T08:33:18-07:00</xmp:MetadataDate>
         <xmpMM:InstanceID>xmp.iid:7d9cb440-bc53-4980-9a0b-e26a057c21a5</xmpMM:InstanceID>
         <xmpMM:DocumentID>xmp.did:7d9cb440-bc53-4980-9a0b-e26a057c21a5</xmpMM:DocumentID>
         <xmpMM:OriginalDocumentID>xmp.did:7d9cb440-bc53-4980-9a0b-e26a057c21a5</xmpMM:OriginalDocumentID>
         <xmpMM:History>
            <rdf:Seq>
               <rdf:li>
                  <rdf:Description>
                     <stEvt:action>saved</stEvt:action>
                     <stEvt:instanceID>xmp.iid:7d9cb440-bc53-4980-9a0b-e26a057c21a5</stEvt:instanceID>
                     <stEvt:when>2025-11-20T08:33:18-07:00</stEvt:when>
                     <stEvt:softwareAgent>Adobe Bridge 2026</stEvt:softwareAgent>
                     <stEvt:changed>/metadata</stEvt:changed>
                  </rdf:Description>
               </rdf:li>
            </rdf:Seq>
         </xmpMM:History>
      </rdf:Description>
   </rdf:RDF>
</x:xmpmeta>
                                                                                                    
                                                                                                    
                                                                                                    
                                                                                                    
                                                                                                    
                                                                                                    
                                                                                                    
                                                                                                    
                                                                                                    
                                                                                                    
                                                                                                    
                                                                                                    
                                                                                                    
                                                                                                    
                                                                                                    
                                                                                                    
                                                                                                    
                                                                                                    
                                                                                                    
                                                                                                    
                           
<?xpacket end="w"?></metadata>
<g>
	<g id="land_00000096020158015611781200000011088177184341697175_">
		<g>
			<path fill="#CBE7B9" d="M110.21,47.52l-23.72-6.36L82.18,40l-17.76-4.76l0,0l-15.35-4.11c-6.18-1.66-12.7,1.04-15.9,6.58
				L21.99,57.09l-2.96,5.12l0,0L4.64,87.13C1.85,91.96,4.4,98.12,9.79,99.56l36.89,9.89l17.06,4.57l7.3,1.95
				c0.19,0.05,0.38,0.1,0.58,0.14c0.38,0.08,0.77,0.15,1.16,0.2c0.19,0.03,0.39,0.05,0.58,0.06c5.01,0.44,9.94-1.83,12.84-6.01
				c0.22-0.32,0.44-0.65,0.63-1l8.92-15.44l0,0l1.24-2.14l1.27-2.21l1.27-2.2l15.83-27.42C118.15,55.12,115.59,48.96,110.21,47.52z"
				/>
			<path id="XMLID_00000157276836647920964000000016042017005341929626_" fill="#CBE7B9" d="M110.21,47.52l-23.72-6.36L82.18,40
				l-17.76-4.76l0,0l-2.27-0.61l1.13,34.07l40.22,11.79l11.87-20.55C118.15,55.12,115.59,48.96,110.21,47.52z"/>
			<path id="XMLID_00000120518365805202823070000016224348729904648857_" fill="#CBE7B9" d="M110.17,47.54L62.11,34.66l1.13,34.07
				l40.22,11.79l11.87-20.55C118.11,55.14,115.56,48.98,110.17,47.54z"/>
			<path fill="#CBE7B9" d="M35.09,66.51l-16.06-4.3L4.64,87.13C1.85,91.96,4.4,98.11,9.79,99.56l5.39,1.44L35.09,66.51z"/>
		</g>
		<path fill="#E9F8DF" d="M105.25,77.45L72.22,68.6c-2.86-0.76-5.18-2.83-6.27-5.58c-0.86-2.17-1.57-5.1-1.54-8.81
			c0.06-8.85-7.87-0.52-7.87-0.52c-0.44,3.59-0.12,6.46,0.31,8.41c0.26,1.16-0.8,2.17-1.95,1.86L22.96,55.4l-3.93,6.81l16.06,4.3
			L15.17,101l7.6,2.03l19.91-34.49l58.64,15.71L105.25,77.45z"/>
	</g>
	<g id="pins_00000062887224092669742030000012320445245164263599_">
		<g>
			<g>
				<path fill="#FF4365" d="M81.07,86.56c-1.12-2.15-3.04-3.77-5.36-4.51c-0.9-0.28-1.83-0.42-2.76-0.42s-1.86,0.14-2.76,0.42
					c-2.32,0.74-4.24,2.36-5.36,4.51c-0.68,1.29-1.04,2.74-1.04,4.21c0,5.56,3.56,7.73,6.61,12.49c1.85,2.88,1.33,4.59,2.53,4.59
					c0,0,0,0,0.01,0c0,0,0,0,0.01,0c1.2,0,0.68-1.72,2.53-4.59c3.05-4.77,6.61-6.94,6.61-12.49C82.1,89.3,81.75,87.85,81.07,86.56z"
					/>
			</g>
			<ellipse fill="#FFFFFF" cx="72.95" cy="90.78" rx="3.5" ry="3.5"/>
		</g>
		<g>
			<g>
				<path fill="#FF4365" d="M112.16,41.94c-1.12-2.15-3.04-3.77-5.36-4.51c-0.9-0.28-1.83-0.42-2.76-0.42s-1.86,0.14-2.76,0.42
					c-2.32,0.74-4.24,2.36-5.36,4.51c-0.68,1.29-1.04,2.74-1.04,4.21c0,5.56,3.56,7.73,6.61,12.49c1.85,2.88,1.33,4.59,2.53,4.59
					c0,0,0,0,0.01,0c0,0,0,0,0.01,0c1.2,0,0.68-1.72,2.53-4.59c3.05-4.77,6.61-6.94,6.61-12.49
					C113.19,44.68,112.84,43.24,112.16,41.94z"/>
			</g>
			<ellipse fill="#FFFFFF" cx="104.04" cy="46.17" rx="3.5" ry="3.5"/>
		</g>
		<g>
			<g>
				<path fill="#FF4365" d="M24.07,65.35c-1.12-2.15-3.04-3.77-5.36-4.51c-0.9-0.28-1.83-0.42-2.76-0.42s-1.86,0.14-2.76,0.42
					c-2.32,0.74-4.24,2.36-5.36,4.51c-0.68,1.29-1.04,2.74-1.04,4.21c0,5.56,3.56,7.73,6.61,12.49c1.85,2.88,1.33,4.59,2.53,4.59
					c0,0,0,0,0.01,0s0,0,0.01,0c1.2,0,0.68-1.72,2.53-4.59c3.05-4.77,6.61-6.94,6.61-12.49C25.1,68.09,24.75,66.64,24.07,65.35z"/>
			</g>
			<ellipse fill="#FFFFFF" cx="15.95" cy="69.57" rx="3.5" ry="3.5"/>
		</g>
	</g>
	<g id="trees_00000073710688953464933670000010936272398144361362_">
		<g>
			<path fill="#A28181" d="M85.08,62.14h-1.67h-1.67v3.11l0,0c-0.04,0.49,0.35,0.96,1.01,1.13c0.85,0.23,1.83-0.1,2.19-0.72
				c0.08-0.14,0.13-0.41,0.13-0.41L85.08,62.14L85.08,62.14z"/>
			<circle fill="#2C6854" cx="83.41" cy="59.19" r="4.79"/>
		</g>
		<g>
			<path fill="#A28181" d="M51.77,83.95h-1.75h-1.75v3.26l0,0c-0.04,0.52,0.36,1.01,1.06,1.19c0.89,0.24,1.92-0.1,2.3-0.76
				c0.08-0.14,0.14-0.43,0.14-0.43V83.95z"/>
			<circle fill="#2C6854" cx="50.02" cy="80.85" r="5.48"/>
		</g>
		<path fill="#00A07A" d="M45.55,97.03L45.55,97.03L45.55,97.03c-0.03-0.09-0.07-0.18-0.11-0.27l-4.75-11.77l0,0
			c-0.23-0.87-1.02-1.51-1.96-1.51s-1.73,0.64-1.96,1.51l0,0l-4.75,11.77c-0.15,0.33-0.24,0.67-0.24,1.03
			c0,2.19,3.11,3.96,6.94,3.96s6.94-1.77,6.94-3.96C45.68,97.53,45.63,97.28,45.55,97.03z"/>
	</g>
	<g id="Icon_00000153690667416815446510000007927948795345879940_">
		<g>
			<circle fill-rule="evenodd" clip-rule="evenodd" fill="#4285F4" cx="60" cy="31.2" r="27.63"/>
			<g>
				<path fill="#FFFFFF" d="M73.11,23.26l-1.96-1.96c-0.36-0.36-0.94-0.36-1.3,0l-7.59,7.59V11.02c0-0.51-0.41-0.92-0.92-0.92h-2.77
					c-0.51,0-0.92,0.41-0.92,0.92V28.9l-7.59-7.59c-0.36-0.36-0.94-0.36-1.3,0l-1.96,1.96c-0.36,0.36-0.36,0.94,0,1.3l12.5,12.5
					c0.36,0.36,0.94,0.36,1.3,0l12.51-12.51C73.47,24.2,73.47,23.61,73.11,23.26z"/>
				<g>
					<path fill="#FFFFFF" d="M71.17,47.03H48.73c-3.82,0-6.91-3.1-6.91-6.91v-7.99c0-0.51,0.41-0.92,0.92-0.92h2.77
						c0.51,0,0.92,0.41,0.92,0.92v7.99c0,1.27,1.03,2.3,2.3,2.3h22.44c1.27,0,2.31-1.03,2.31-2.31v-7.99c0-0.51,0.41-0.92,0.92-0.92
						h2.77c0.51,0,0.92,0.41,0.92,0.92v7.99C78.09,43.93,74.99,47.03,71.17,47.03z"/>
				</g>
			</g>
		</g>
	</g>
	<g id="Blue_dot_00000095336614389139176770000006003080900878478495_">
		<path fill="#4285F4" d="M106.73,79.45c-0.4,4.13-4.6,7.47-9.38,7.47s-8.34-3.35-7.94-7.47c0.4-4.13,4.6-7.47,9.38-7.47
			S107.12,75.32,106.73,79.45z"/>
	</g>
</g>
</svg>
