<?xml version="1.0" encoding="utf-8"?>
<!-- Generator: Adobe Illustrator 30.0.0, SVG Export Plug-In . SVG Version: 9.03 Build 0)  -->
<svg version="1.1" baseProfile="basic" id="Layer_1"
	 xmlns="http://www.w3.org/2000/svg" xmlns:xlink="http://www.w3.org/1999/xlink" x="0px" y="0px" width="200px" height="150px"
	 viewBox="0 0 200 150" xml:space="preserve">
<g>
	<g id="BG">
		<path fill="#FFDBD0" d="M113.01,4.5H86.99c-10.37,0-20.31,4.12-27.64,11.45l-18.4,18.4C33.62,41.68,29.5,51.62,29.5,61.99v26.02
			c0,10.37,4.12,20.31,11.45,27.64l18.4,18.4c7.33,7.33,17.27,11.45,27.64,11.45h26.02c10.37,0,20.31-4.12,27.64-11.45l18.4-18.4
			c7.33-7.33,11.45-17.27,11.45-27.64V61.99c0-10.37-4.12-20.31-11.45-27.64l-18.4-18.4C133.32,8.62,123.38,4.5,113.01,4.5z"/>
		<g>
			<path fill="#FFFFFF" d="M55.91,64.42c-1.13,0-2.19,0.3-3.11,0.82l0,0c-0.86,0.48-1.94,0.18-2.43-0.67
				c-1.45-2.58-4.21-4.31-7.37-4.31c-4.13,0-7.57,2.96-8.3,6.88c-0.41,2.02-2.38,3.34-4.4,2.95l0,0c-0.22-0.04-0.45-0.07-0.68-0.07
				c-0.04,0-0.08,0-0.11,0v7.14c0.04,0,0.08,0,0.11,0h26.3l-0.13-0.09c0.04,0,0.09,0,0.13,0c3.49,0,6.33-2.83,6.33-6.33
				S59.41,64.42,55.91,64.42z"/>
			<path fill="#FFFFFF" d="M170.5,61.99c0-2.94-0.33-5.84-0.97-8.67c-0.48,0.1-0.98,0.08-1.47-0.05c-0.38-0.1-0.78-0.16-1.2-0.16
				c-1.08,0-2.07,0.38-2.85,1v0c0,0-0.01,0.01-0.01,0.01c-0.65,0.52-1.54,0.6-2.28,0.25c-1.03-0.48-1.98-1.19-2.76-2.14l0,0
				c-1.11-1.34-2.79-2.19-4.67-2.19c-2.88,0-5.28,2-5.91,4.68v0c-0.06,0.27-0.36,0.42-0.62,0.31c-0.52-0.23-1.1-0.34-1.71-0.31
				c-1.86,0.1-3.38,1.61-3.51,3.47c-0.14,2.17,1.58,3.98,3.72,3.98h24.23L170.5,61.99L170.5,61.99z"/>
		</g>
		<path id="bird" fill="#FFFFFF" d="M69.5,33.78c0-0.03-0.01-0.06-0.02-0.09c-0.02-0.07-0.04-0.14-0.07-0.22
			c-0.49-1.32-2.26-1.66-3.38-1.27c-1.84,0.58-3.23,2-4.27,4.79c-0.4,1.08-0.62,1.63-0.97,1.83c-0.12,0.06-0.24,0.07-0.33,0.08
			l0-0.01c-0.42,0.01-0.89-0.23-1.87-1.01c-2.34-1.85-4.26-2.33-6.14-1.86c-1.16,0.25-2.49,1.47-2.22,2.84
			c0.02,0.08,0.03,0.15,0.06,0.22c0.01,0.03,0.02,0.06,0.03,0.09c0.32,0.8,1.3,1.79,2.89,1.15c1.52-0.56,2.94-0.75,4.17-0.42l0,0
			c1.55,0.35,1.92,1.37,2.41,2.21v0c0.27,0.49,0.78,0.84,1.38,0.88c0.94,0.06,1.74-0.65,1.8-1.59c0.01-0.12,0-0.23-0.01-0.34
			c-0.03-0.92-0.16-1.93,0.91-2.97l0,0c0.87-0.92,2.18-1.5,3.77-1.82C69.32,35.98,69.64,34.63,69.5,33.78z"/>
		<path fill="#47A1FB" d="M159.52,115.18c5.66-5.66,9.32-12.95,10.53-20.76c-11.51-5.26-27.22-7.39-39.58-3.53
			c-21.9,6.84-35.54,10.45-54.78,2.04c-18.52-8.09-32.12-9.35-46.19-3.27c0.25,9.59,4.17,18.73,10.96,25.52l19.35,19.34
			c7.03,7.03,16.56,10.98,26.5,10.98h27.36c9.94,0,19.47-3.95,26.5-10.98L159.52,115.18z"/>
	</g>
	<g id="Bottle_00000046334151053176405810000004809583552259371426_">
		<path fill="#FFFFFF" d="M121.47,48.42c-2.61-2.15-2.73-3.7-2.25-5.48l2.83-10.45c2.15,0,4.12-1.44,4.7-3.61l0,0
			c0.7-2.6-0.84-5.29-3.44-5.99l-16.2-4.38c-2.6-0.7-5.29,0.84-5.99,3.44l0,0c-0.59,2.17,0.39,4.4,2.24,5.49l-2.83,10.45
			c-0.48,1.77-1.36,3.06-4.7,3.6c-3.34,0.54-14.42,1.27-18.85,17.65c-1.65,6.09-5.32,19.66-8.37,30.95
			c2.29,0.83,4.64,1.78,7.09,2.85c17.11,7.48,29.78,5.45,47.78,0.1c-0.09,0.33-0.18,0.65-0.27,0.98c2.55-9.44,4.94-18.25,5.64-20.84
			C133.28,56.79,124.09,50.57,121.47,48.42z"/>
		<path fill="#E37400" d="M106.54,18.38c0.19,0.03,0.38,0.07,0.57,0.12l16.2,4.38c0.19,0.05,0.38,0.12,0.55,0.19
			c0.37-0.81,0.94-2.05,1.3-2.91c0.57-1.37,0.18-2.54-1.29-2.93c-1-0.27-4.38-1.19-6.41-1.73c0,0-0.65-0.17-1.58-0.43
			c-2.03-0.55-5.41-1.46-6.41-1.73c-1.47-0.4-2.4,0.42-2.59,1.89C106.77,16.14,106.63,17.5,106.54,18.38z"/>
		<path fill="#9FD5FF" d="M115.68,121.87c0.57-2.11,4.2-15.53,7.54-27.86c0.09-0.33,0.18-0.65,0.27-0.98
			c-18,5.35-30.68,7.38-47.78-0.1c-2.44-1.07-4.8-2.02-7.09-2.85c-2.44,9.02-4.49,16.59-4.8,17.76c-0.04,0.15-0.06,0.28-0.07,0.41
			c-1,4.74-0.37,8.06,0.46,10.05c0,0,0,0.01,0.01,0.01c1.01,2.84,3.35,5.15,6.47,6c1.73,0.47,3.47,0.43,5.07-0.03l0,0c0,0,0,0,0,0
			c0.57-0.16,1.13-0.38,1.66-0.65c2.53-0.91,6.44-1.97,9.6-1.12c0.31,0.06,0.83,0.21,1.15,0.3c0.03,0.01,0.06,0.02,0.09,0.03
			c3.16,0.85,6,3.74,7.73,5.8c0.32,0.5,0.69,0.97,1.11,1.4c0,0,0,0,0,0l0,0c1.15,1.2,2.64,2.12,4.37,2.58
			c3.13,0.85,6.31,0.02,8.62-1.92c0,0,0.01,0,0.01-0.01c1.71-1.3,3.94-3.85,5.46-8.45C115.59,122.15,115.64,122.02,115.68,121.87z"
			/>
	</g>
	<g id="Pin_00000087406810296080865850000000082317054975794592_">
		<path fill="#FF2361" d="M118.78,65.32c-2.59-4.98-7.03-8.73-12.39-10.44c-2.08-0.64-4.23-0.96-6.38-0.96
			c-2.15,0-4.3,0.32-6.38,0.96c-5.36,1.7-9.81,5.45-12.39,10.44c-1.58,3-2.4,6.34-2.4,9.74c0,12.86,8.23,17.88,15.29,28.91
			c4.29,6.65,3.09,10.63,5.86,10.63c0.01,0,0.01,0,0.02,0c0.01,0,0.01,0,0.02,0c2.77,0,1.58-3.97,5.86-10.63
			c7.06-11.03,15.29-16.05,15.29-28.91C121.17,71.65,120.35,68.31,118.78,65.32z M99.99,83.16c-4.47,0-8.09-3.62-8.09-8.09
			c0-4.47,3.62-8.09,8.09-8.09c4.47,0,8.09,3.62,8.09,8.09C108.08,79.54,104.46,83.16,99.99,83.16z"/>
		<path fill="#2F3793" d="M111.61,96.16c-7.84,1.69-14.95,2.24-22.47,0.93c1.65,2.08,3.35,4.32,4.99,6.88
			c4.29,6.65,3.09,10.63,5.86,10.63c0.01,0,0.01,0,0.02,0c0.01,0,0.01,0,0.02,0c2.77,0,1.58-3.97,5.86-10.63
			C107.77,101.03,109.73,98.51,111.61,96.16z"/>
	</g>
</g>
</svg>
