<?xml version="1.0" encoding="utf-8"?>
<!-- Generator: Adobe Illustrator 30.0.0, SVG Export Plug-In . SVG Version: 9.03 Build 0)  -->
<svg version="1.1" baseProfile="basic" id="Layer_1"
	 xmlns="http://www.w3.org/2000/svg" xmlns:xlink="http://www.w3.org/1999/xlink" x="0px" y="0px" width="220px" height="220px"
	 viewBox="0 0 220 220" xml:space="preserve">
<g>
	<g id="Container_00000028324366776924592380000010021289650452886667_">
		<path fill="#005B5B" d="M44.23,63.79h131.54c20.84,0,37.73,16.89,37.73,37.73v17.08c0,20.84-16.89,37.73-37.73,37.73H44.23
			c-20.84,0-37.73-16.89-37.73-37.73v-17.08C6.5,80.68,23.39,63.79,44.23,63.79z"/>
	</g>
	<g id="Island_00000160903274064768744600000000410207982121216917_">
		<g>
			<g>
				<path fill="#003439" d="M156.79,125.66l-3.5,0.67c-1.27-1-2.89-1.81-4.84-2.36l-33.1-9.49c-9.72-2.79-24.04,1.63-31.99,9.87
					L68.33,139.5c-1.16,1.2-2.12,2.42-2.88,3.63l-2.22,0.42v5.73c-0.04,0.53-0.04,1.06,0,1.57v0l0,0c0.33,3.91,3.15,7.12,8.3,8.59
					l33.1,9.49c9.72,2.79,24.04-1.63,31.99-9.87l15.04-15.16c3.52-3.65,5.2-7.43,5.14-10.76h0L156.79,125.66L156.79,125.66z"/>
				<path fill="#0D6545" d="M111.02,158.47c-1.99,0-3.82-0.24-5.44-0.7l-33.1-9.49c-3.94-1.13-5.24-3.14-5.64-4.63
					c-0.33-1.22-0.21-2.6,0.34-4.1c0.65-1.78,1.91-3.66,3.63-5.46l15.04-15.16l0.02-0.02c2.74-2.84,6.43-5.26,10.67-7.01
					c4.11-1.69,8.52-2.63,12.42-2.63c1.99,0,3.82,0.24,5.44,0.7l33.1,9.49c3.94,1.13,5.24,3.14,5.64,4.63
					c0.33,1.22,0.21,2.6-0.34,4.1c-0.65,1.78-1.91,3.66-3.63,5.46l-15.04,15.16l-0.02,0.02c-2.74,2.84-6.43,5.26-10.67,7.01
					C119.34,157.54,114.92,158.47,111.02,158.47L111.02,158.47z"/>
				<path fill="#004E41" d="M154,133.26c0.08-0.12,0.17-0.24,0.25-0.36c0.02-0.04,0.05-0.07,0.07-0.11
					c0.07-0.11,0.14-0.22,0.21-0.33c0.02-0.04,0.04-0.07,0.07-0.11c0.07-0.12,0.14-0.23,0.21-0.35c0.02-0.03,0.03-0.05,0.05-0.08
					c0.08-0.14,0.16-0.28,0.23-0.41c0,0,0-0.01,0.01-0.01c0.25-0.45,0.47-0.9,0.66-1.35l0,0l0,0c2.58-5.97,0.29-11.45-6.44-13.75
					l0,0l0,0c-0.14-0.05-0.28-0.09-0.42-0.14c-0.14-0.04-0.29-0.09-0.44-0.13l-32.1-9.21l0,0l-1-0.29c-0.23-0.07-0.46-0.13-0.7-0.18
					c-0.04-0.01-0.07-0.02-0.11-0.03c-0.24-0.06-0.47-0.11-0.71-0.16c-0.02,0-0.04-0.01-0.06-0.01c-6.97-1.39-15.83,0.51-23.05,4.62
					l0,0c0,0,0,0,0,0c-0.19,0.11-0.37,0.21-0.55,0.32c-0.02,0.01-0.04,0.02-0.05,0.03c-0.17,0.1-0.34,0.21-0.51,0.31
					c-0.02,0.01-0.03,0.02-0.05,0.03c-0.75,0.46-1.48,0.95-2.18,1.46l0,0c-0.17,0.13-0.34,0.25-0.51,0.38
					c-0.01,0.01-0.02,0.01-0.02,0.02c-0.17,0.13-0.34,0.26-0.5,0.39c0,0,0,0,0,0l0,0c-1.06,0.84-2.06,1.73-2.97,2.67l-15.04,15.16
					c-1.52,1.57-2.7,3.17-3.54,4.75c-0.01,0.01-0.01,0.03-0.02,0.04c-0.07,0.13-0.13,0.26-0.2,0.38c-0.02,0.03-0.03,0.07-0.05,0.1
					c-0.05,0.11-0.11,0.22-0.16,0.33c-0.02,0.04-0.04,0.08-0.05,0.12c-0.05,0.11-0.1,0.22-0.14,0.33c-0.01,0.04-0.03,0.07-0.04,0.1
					c-0.06,0.14-0.12,0.29-0.17,0.43l0,0l0,0c-1.93,5.15-0.2,9.84,4.89,12.35c0.01,0.01,0.02,0.01,0.03,0.02
					c0.1,0.05,0.2,0.1,0.3,0.14c0.02,0.01,0.04,0.02,0.07,0.03c0.09,0.04,0.19,0.08,0.28,0.13c0.03,0.01,0.07,0.03,0.1,0.04
					c0.09,0.04,0.18,0.07,0.27,0.11c0.04,0.02,0.09,0.04,0.13,0.05c0.08,0.03,0.16,0.06,0.25,0.09c0.06,0.02,0.12,0.04,0.18,0.06
					c0.07,0.03,0.15,0.05,0.22,0.08c0.08,0.03,0.16,0.05,0.24,0.08c0.06,0.02,0.12,0.04,0.17,0.06c0.14,0.04,0.28,0.09,0.43,0.13
					l33.1,9.49c6.91,1.98,16.14,0.32,23.76-3.76l0,0c0,0,0,0,0,0c0.8-0.43,1.58-0.88,2.34-1.36c0.01-0.01,0.03-0.02,0.04-0.03
					c0.17-0.1,0.33-0.21,0.49-0.32c0.03-0.02,0.06-0.04,0.09-0.06c0.15-0.1,0.31-0.2,0.46-0.31c0.03-0.02,0.06-0.04,0.09-0.06
					c0.36-0.25,0.71-0.5,1.06-0.76c0,0,0,0,0,0l0,0c1.32-0.99,2.55-2.06,3.66-3.2l15.04-15.16c0.74-0.77,1.4-1.54,1.98-2.31l0,0
					c0.11-0.15,0.22-0.29,0.32-0.44C153.96,133.31,153.98,133.29,154,133.26L154,133.26z M147.5,119.46
					c3.94,1.13,5.24,3.14,5.64,4.63c0.33,1.22,0.21,2.6-0.34,4.1c-0.12,0.32-0.25,0.64-0.4,0.96l-12.09-3.58l6.26-6.37L147.5,119.46
					L147.5,119.46z M114.4,109.97l28.23,8.1l-6.23,6.34l-28.84-8.55l6-6.11C113.85,109.83,114.13,109.89,114.4,109.97L114.4,109.97z
					 M104.04,157.33L74.99,149l5.69-5.79l28.84,8.55L104.04,157.33L104.04,157.33z M83.92,139.92l20.41-20.76l28.84,8.55
					l-20.41,20.76L83.92,139.92L83.92,139.92z M96.53,111.9c4.11-1.69,8.52-2.63,12.42-2.63c0.01,0,0.02,0,0.04,0l-5.34,5.44
					l-8.08-2.39C95.89,112.17,96.21,112.03,96.53,111.9z M85.84,118.93l0.02-0.02c1.34-1.39,2.91-2.68,4.67-3.84l9.89,2.93
					l-20.41,20.76l-10.55-3.13c0.41-0.52,0.86-1.03,1.35-1.54L85.84,118.93L85.84,118.93z M66.84,143.65
					c-0.33-1.22-0.21-2.6,0.34-4.1c0.04-0.1,0.08-0.2,0.12-0.31l9.48,2.81l-5.67,5.76C68.22,146.65,67.18,144.95,66.84,143.65z
					 M111.02,158.47c-1,0-1.97-0.06-2.88-0.18l5.29-5.38l9.97,2.95C119.3,157.55,114.91,158.47,111.02,158.47L111.02,158.47z
					 M149.17,133.65l-15.04,15.16l-0.02,0.02c-1.54,1.59-3.38,3.06-5.45,4.34l-12.01-3.56l20.41-20.76l12.96,3.84
					C149.76,133.02,149.47,133.34,149.17,133.65L149.17,133.65z"/>
			</g>
			<g>
				<path fill-rule="evenodd" clip-rule="evenodd" d="M75.73,117.09c0.14,0.38,0.69,0.36,0.8-0.03c0.72-2.39,2.62-5.94,2.62-5.94
					c3.82,6.84,2.04,14.73,0.57,18.96c0.17,0.2,0.33,0.41,0.49,0.65c0,0,1.66-1.54,1.9-3.54c0.04-0.31,0.4-0.46,0.65-0.27
					c0.54,0.43,1.21,1.2,1.16,2.38c3.84-12.98-3.12-20.45-3.12-20.45l6.59-1.61c0.52-0.13,0.75-0.73,0.46-1.18
					c-2.71-4.09-7.36-1.06-7.36-1.06c0.11-2.3,1.28-5.22,2.25-7.28c0.47-1-0.67-1.97-1.59-1.36c-3.77,2.56-4.7,7.78-4.7,7.78
					c-4.92-5.26-9.07-2.67-10.97-0.86c-0.49,0.46-0.21,1.29,0.46,1.36c4.91,0.57,8.01,2.69,8.01,2.69
					c-4.21,0.26-5.87,3.41-6.53,5.83c-0.26,0.96,0.81,1.73,1.64,1.18c3.13-2.08,7.01-3.58,7.01-3.58
					C74.44,112.77,75.13,115.53,75.73,117.09L75.73,117.09z"/>
				
					<linearGradient id="SVGID_00000065794574577293215030000001798731398870688416_" gradientUnits="userSpaceOnUse" x1="82.1557" y1="-741.0453" x2="81.5905" y2="-755.1055" gradientTransform="matrix(1 0 0 1 0 880)">
					<stop  offset="0.29" style="stop-color:#009E7C;stop-opacity:0"/>
					<stop  offset="0.34" style="stop-color:#009E7C;stop-opacity:0.04"/>
					<stop  offset="0.41" style="stop-color:#009E7C;stop-opacity:0.15"/>
					<stop  offset="0.5" style="stop-color:#009E7C;stop-opacity:0.32"/>
					<stop  offset="0.59" style="stop-color:#009E7C;stop-opacity:0.57"/>
					<stop  offset="0.68" style="stop-color:#009E7C;stop-opacity:0.88"/>
					<stop  offset="0.71" style="stop-color:#009E7C"/>
				</linearGradient>
				<path fill-rule="evenodd" clip-rule="evenodd" fill="url(#SVGID_00000065794574577293215030000001798731398870688416_)" d="
					M77.38,133.63c-0.23-1.01-0.9-3.3-2.58-4.99c-0.22-0.23-0.08-0.61,0.24-0.64c1.16-0.1,3.39,0.11,5.17,2.73
					c0,0,1.66-1.54,1.9-3.54c0.04-0.31,0.4-0.46,0.65-0.27c0.62,0.5,1.44,1.47,1.07,2.98c0,0,2.28-2.07,4.56-2.1
					c0.34-0.01,0.5,0.42,0.24,0.64c-1.17,1-3.56,3.24-4.39,5.44c-0.1,0.27-0.36,0.45-0.66,0.44l-5.57-0.18
					C77.71,134.15,77.45,133.93,77.38,133.63L77.38,133.63z"/>
				<g>
					<circle fill="#F29900" cx="81.08" cy="108.67" r="1.51"/>
					<circle fill="#F29900" cx="78.13" cy="111.58" r="1.51"/>
				</g>
			</g>
		</g>
	</g>
	<g id="Plus_Code_00000109011540921734572030000002960152971103045548_">
		<path fill="#4667F4" d="M139.96,50.22H84.78c-4.54,0-8.23,3.68-8.23,8.23v16.21c0,4.54,3.68,8.23,8.23,8.23h20.24
			c2.18,0,2.82,0.98,3.29,1.8c0.46,0.82,1.18,2.04,2.07,3.65c0.48,0.86,0.83,1.36,1.15,1.64c0.05,0.04,0.11,0.09,0.16,0.12
			c0.02,0.01,0.04,0.02,0.06,0.03c0.01,0,0.01,0.01,0.02,0.01c0.11,0.06,0.21,0.1,0.33,0.12c0.01,0,0.01,0,0.02,0
			c0.03,0.01,0.05,0.01,0.08,0.01c0.02,0,0.04,0,0.07,0.01c0.02,0,0.05,0,0.07,0c0.01,0,0.01,0,0.02,0c0.01,0,0.01,0,0.02,0
			s0.01,0,0.02,0c0.01,0,0.01,0,0.02,0c0.02,0,0.05,0,0.07,0c0.02,0,0.04,0,0.07-0.01c0.03,0,0.05-0.01,0.08-0.01
			c0.01,0,0.01,0,0.02,0c0.11-0.02,0.22-0.06,0.33-0.12c0.01,0,0.01-0.01,0.02-0.01c0.02-0.01,0.04-0.02,0.06-0.03
			c0.06-0.04,0.11-0.08,0.16-0.12c0.32-0.28,0.67-0.78,1.15-1.64c0.89-1.61,1.61-2.82,2.07-3.65s1.11-1.8,3.29-1.8h20.24
			c4.54,0,8.23-3.68,8.23-8.23V58.44C148.19,53.9,144.51,50.22,139.96,50.22L139.96,50.22z"/>
		<g>
			<path fill="#FFFFFF" d="M82.75,62.26h1.46l1.91,5.66l0.31,0.97h0.07l0.31-0.97l2-5.66h1.47l-3.12,8.57h-1.4L82.75,62.26
				L82.75,62.26z"/>
			<path fill="#FFFFFF" d="M91.43,70.39l3.78-6.78l-0.02-0.04h-4.14v-1.3h5.68v1.38l-4.11,7.39L91.43,70.39L91.43,70.39z"/>
			<path fill="#FFFFFF" d="M99.14,70.77c-0.41-0.17-0.77-0.43-1.08-0.78c-0.31-0.35-0.53-0.77-0.65-1.28l1.24-0.49
				c0.11,0.45,0.31,0.81,0.61,1.09c0.3,0.28,0.66,0.41,1.09,0.41c0.48,0,0.87-0.15,1.17-0.44c0.31-0.3,0.46-0.68,0.46-1.15
				s-0.15-0.85-0.45-1.16c-0.3-0.31-0.69-0.46-1.16-0.46c-0.28,0-0.53,0.06-0.75,0.18c-0.22,0.12-0.42,0.28-0.58,0.49l-1.36-0.6
				l0.53-4.32h4.64v1.25h-3.5l-0.31,2.25l0.07,0.01c0.43-0.34,0.94-0.51,1.53-0.51c0.48,0,0.94,0.12,1.36,0.36
				c0.42,0.24,0.76,0.58,1.01,1.01c0.25,0.43,0.38,0.93,0.38,1.48s-0.13,1.05-0.39,1.49c-0.26,0.44-0.62,0.79-1.07,1.04
				c-0.45,0.25-0.97,0.38-1.53,0.38C99.96,71.03,99.54,70.94,99.14,70.77L99.14,70.77z"/>
			<path fill="#FFFFFF" d="M104.04,62.26h1.46l1.91,5.66l0.31,0.97h0.07l0.31-0.97l2-5.66h1.47l-3.12,8.57h-1.4L104.04,62.26
				L104.04,62.26z"/>
			<path fill="#FFFFFF" d="M117.82,67.3h-2.11v2.11h-1.14V67.3h-2.11v-1.12h2.11v-2.11h1.14v2.11h2.11L117.82,67.3L117.82,67.3z"/>
			<path fill="#FFFFFF" d="M120.94,70.69c-0.45-0.22-0.81-0.54-1.07-0.93c-0.26-0.4-0.39-0.83-0.39-1.31s0.13-0.88,0.38-1.24
				c0.25-0.36,0.58-0.64,0.98-0.84v-0.07c-0.32-0.21-0.57-0.47-0.77-0.78c-0.2-0.31-0.3-0.65-0.3-1.02c0-0.45,0.11-0.86,0.34-1.23
				c0.23-0.37,0.55-0.66,0.96-0.87c0.41-0.21,0.88-0.31,1.39-0.31c0.52,0,0.98,0.1,1.39,0.31s0.74,0.5,0.97,0.87
				c0.23,0.37,0.35,0.78,0.35,1.23c0,0.37-0.1,0.71-0.3,1.02c-0.2,0.31-0.46,0.57-0.77,0.78v0.07c0.4,0.2,0.73,0.48,0.98,0.84
				c0.25,0.36,0.38,0.78,0.38,1.24c0,0.47-0.13,0.91-0.39,1.31c-0.26,0.4-0.62,0.71-1.08,0.93c-0.46,0.22-0.97,0.34-1.54,0.34
				S121.4,70.91,120.94,70.69L120.94,70.69z M123.63,69.34c0.3-0.25,0.46-0.59,0.46-0.99s-0.15-0.73-0.46-0.99
				c-0.31-0.26-0.69-0.39-1.15-0.39c-0.46,0-0.83,0.13-1.14,0.39c-0.31,0.26-0.46,0.59-0.46,0.99c0,0.4,0.15,0.74,0.46,0.99
				c0.3,0.25,0.69,0.38,1.14,0.38C122.93,69.72,123.32,69.6,123.63,69.34L123.63,69.34z M123.44,65.4c0.25-0.22,0.38-0.51,0.38-0.88
				s-0.13-0.64-0.38-0.86c-0.25-0.21-0.58-0.32-0.97-0.32s-0.7,0.11-0.96,0.32c-0.25,0.21-0.38,0.5-0.38,0.86s0.13,0.65,0.38,0.88
				c0.25,0.22,0.57,0.34,0.96,0.34S123.18,65.63,123.44,65.4L123.44,65.4z"/>
			<path fill="#FFFFFF" d="M132.8,70.58c-0.61,0.3-1.27,0.44-1.97,0.44c-0.83,0-1.58-0.2-2.26-0.59c-0.67-0.39-1.21-0.94-1.59-1.62
				c-0.39-0.69-0.58-1.44-0.58-2.26s0.19-1.57,0.58-2.26c0.39-0.68,0.92-1.22,1.59-1.62c0.67-0.4,1.43-0.6,2.26-0.6
				s1.58,0.2,2.26,0.6c0.68,0.4,1.21,0.94,1.6,1.62c0.39,0.68,0.58,1.43,0.58,2.25c0,0.66-0.13,1.28-0.38,1.86
				c-0.26,0.58-0.61,1.07-1.08,1.49l0.63,0.94l-1.02,0.68L132.8,70.58L132.8,70.58z M132.06,69.49l-0.98-1.46l1.03-0.69l0.96,1.46
				c0.27-0.28,0.48-0.61,0.63-0.99c0.15-0.38,0.22-0.8,0.22-1.26c0-0.62-0.14-1.18-0.41-1.66s-0.65-0.86-1.12-1.13
				c-0.47-0.27-0.99-0.41-1.56-0.41c-0.57,0-1.08,0.14-1.55,0.41s-0.84,0.65-1.11,1.13c-0.28,0.48-0.41,1.04-0.41,1.66
				c0,0.62,0.14,1.18,0.41,1.66c0.28,0.48,0.65,0.86,1.11,1.13c0.47,0.27,0.98,0.41,1.55,0.41
				C131.25,69.74,131.66,69.66,132.06,69.49L132.06,69.49z"/>
			<path fill="#FFFFFF" d="M137.27,70.47c-0.55-0.37-0.93-0.92-1.14-1.63l1.28-0.53c0.12,0.44,0.32,0.78,0.61,1.03
				c0.29,0.24,0.64,0.36,1.04,0.36s0.77-0.13,1.08-0.38c0.3-0.25,0.45-0.58,0.45-0.97s-0.16-0.73-0.48-0.98
				c-0.32-0.25-0.71-0.38-1.19-0.38h-0.74v-1.26h0.66c0.41,0,0.75-0.11,1.03-0.33c0.28-0.22,0.42-0.52,0.42-0.91
				c0-0.34-0.13-0.61-0.37-0.82c-0.25-0.2-0.57-0.31-0.95-0.31c-0.38,0-0.67,0.1-0.89,0.3c-0.22,0.2-0.38,0.45-0.48,0.74l-1.26-0.53
				c0.17-0.48,0.48-0.89,0.92-1.26c0.45-0.36,1.03-0.54,1.73-0.54c0.52,0,0.98,0.1,1.39,0.3s0.74,0.48,0.97,0.83
				c0.23,0.35,0.35,0.75,0.35,1.19c0,0.44-0.11,0.83-0.33,1.14c-0.22,0.31-0.48,0.55-0.8,0.72v0.07c0.42,0.18,0.76,0.44,1.03,0.8
				c0.27,0.36,0.4,0.79,0.4,1.29s-0.13,0.95-0.38,1.34c-0.25,0.39-0.61,0.7-1.06,0.93s-0.95,0.34-1.5,0.34
				C138.42,71.03,137.82,70.84,137.27,70.47L137.27,70.47z"/>
		</g>
	</g>
	<g id="stars_00000011737060680520091160000011308686448423379602_">
		<g>
			<g>
				<circle fill="#BCE9FF" cx="149.47" cy="99.33" r="0.48"/>
				<circle fill="#BCE9FF" cx="183.94" cy="117.97" r="0.48"/>
				<circle fill="#BCE9FF" cx="172.17" cy="75.59" r="0.48"/>
				<circle fill="#BCE9FF" cx="199.42" cy="84.59" r="0.48"/>
				<circle fill="#BCE9FF" cx="163.83" cy="104" r="0.24"/>
				<circle fill="#BCE9FF" cx="198.47" cy="114.27" r="0.24"/>
				<circle fill="#BCE9FF" cx="162.02" cy="81.39" r="0.24"/>
				<circle fill="#BCE9FF" cx="139.72" cy="103.76" r="0.24"/>
				<circle fill="#BCE9FF" cx="197.47" cy="96.42" r="0.24"/>
				<circle fill="#BCE9FF" cx="191.27" cy="76.67" r="0.24"/>
				<circle fill="#BCE9FF" cx="160.57" cy="106.92" r="0.61"/>
				<circle fill="#BCE9FF" cx="193.19" cy="92.53" r="0.61"/>
				<circle fill="#BCE9FF" cx="194.05" cy="111.65" r="0.61"/>
				<circle fill="#BCE9FF" cx="177.82" cy="88.89" r="0.61"/>
			</g>
			<g>
				<circle fill="#BCE9FF" cx="24.89" cy="110.59" r="0.48"/>
				<circle fill="#BCE9FF" cx="28.95" cy="82.8" r="0.48"/>
				<circle fill="#BCE9FF" cx="56.28" cy="74.06" r="0.48"/>
				<circle fill="#BCE9FF" cx="39.25" cy="105.94" r="0.24"/>
				<circle fill="#BCE9FF" cx="60.72" cy="101.33" r="0.24"/>
				<circle fill="#BCE9FF" cx="24.14" cy="93.46" r="0.24"/>
				<circle fill="#BCE9FF" cx="19.6" cy="119.91" r="0.24"/>
				<circle fill="#BCE9FF" cx="64.67" cy="85.64" r="0.24"/>
				<circle fill="#BCE9FF" cx="45.03" cy="72.45" r="0.24"/>
				<circle fill="#BCE9FF" cx="38.33" cy="110.21" r="0.61"/>
				<circle fill="#BCE9FF" cx="58.93" cy="85.01" r="0.61"/>
				<circle fill="#BCE9FF" cx="55.59" cy="101.81" r="0.61"/>
				<circle fill="#BCE9FF" cx="41.33" cy="90.24" r="0.61"/>
			</g>
		</g>
	</g>
	<g id="main_house_00000113319146628530958790000013851590206521540017_">
		<g>
			<g>
				<g>
					<polygon fill="#394EC1" points="118.75,121.63 118.75,141.22 91.62,133.49 91.62,115.15 93.95,107.64 93.95,98.23 
						123.97,102.19 123.97,114.48 					"/>
					<path fill="#232765" d="M106.35,125.95v11.82l-5.87-1.7v-11.46c0-0.37,0.36-0.64,0.72-0.54l4.74,1.35
						C106.18,125.48,106.35,125.7,106.35,125.95L106.35,125.95z"/>
					<polygon fill="#474747" points="91.62,132.96 96.02,137.47 116.03,143.38 118.75,140.69 					"/>
					<path d="M117.77,141.66v-3.61l0.32-0.32c0.05-0.05,0.07-0.11,0.07-0.17v-0.01c0-0.2-0.24-0.29-0.37-0.16l-2.37,2.33v0.66
						l0.48-0.48v3.44l-19.88-5.87v0.54l19.98,5.95l2.75-2.73v-0.54L117.77,141.66L117.77,141.66z M117.23,138.58v3.61l-0.79,0.79
						v-3.61L117.23,138.58z"/>
					<g>
						<polygon fill="#232765" points="112.53,146.69 107.25,145.3 107.25,140.34 112.53,141.74 						"/>
						<polygon fill="#232765" points="112.53,141.74 107.25,140.34 110.15,137.44 115.42,138.83 						"/>
						<polygon points="112.53,146.69 115.42,143.76 115.42,138.83 112.53,141.74 						"/>
					</g>
					<path fill="#FBBC04" d="M105.13,127.53v4.24c0,0.25-0.24,0.43-0.47,0.36l-2.69-0.78c-0.16-0.05-0.27-0.19-0.27-0.36v-4.23
						c0-0.25,0.24-0.42,0.47-0.36l2.69,0.77C105.02,127.22,105.13,127.37,105.13,127.53L105.13,127.53z"/>
					<g>
						<ellipse fill="#4285F4" cx="111.43" cy="138.78" rx="2.81" ry="2.12"/>
						<path fill="#47A1FB" d="M111.43,124.29c-1.34,0-2.43,3.28-2.43,7.33c0,0.89,0.05,1.74,0.15,2.52
							c0.14,1.16,0.38,2.18,0.68,2.98c0.45,0.24,1.01,0.38,1.6,0.38s1.15-0.14,1.6-0.38c0.3-0.8,0.54-1.82,0.68-2.98
							c0.1-0.79,0.15-1.64,0.15-2.52C113.85,127.57,112.77,124.29,111.43,124.29z"/>
						<ellipse fill="#4285F4" cx="111.43" cy="124.46" rx="2.81" ry="2.12"/>
					</g>
					<g>
						<polygon fill="#232765" points="93.13,135.98 87.85,134.59 90.75,131.69 96.02,133.08 						"/>
						<g>
							<polygon fill="#232765" points="93.13,140.93 87.85,139.55 87.85,134.59 93.13,135.98 							"/>
							<polygon points="93.13,140.93 96.02,138.01 96.02,133.08 93.13,135.98 							"/>
						</g>
					</g>
					<g>
						<ellipse fill="#4285F4" cx="92.02" cy="132.96" rx="2.81" ry="2.12"/>
						<path fill="#47A1FB" d="M92.02,118.47c-1.34,0-2.43,3.28-2.43,7.33c0,0.89,0.05,1.74,0.15,2.52c0.14,1.16,0.38,2.18,0.68,2.98
							c0.45,0.24,1.01,0.38,1.6,0.38s1.15-0.14,1.6-0.38c0.3-0.8,0.54-1.82,0.68-2.98c0.1-0.79,0.15-1.64,0.15-2.52
							C94.45,121.75,93.36,118.47,92.02,118.47z"/>
						<ellipse fill="#4285F4" cx="92.02" cy="118.63" rx="2.81" ry="2.12"/>
					</g>
					<path fill="#232765" d="M119.15,108.04c-0.24,0-0.47-0.1-0.64-0.3l-3.71-4.41c-0.3-0.35-0.25-0.88,0.1-1.18
						c0.35-0.3,0.88-0.25,1.18,0.1l3.71,4.41c0.3,0.35,0.25,0.88-0.1,1.18C119.53,107.97,119.34,108.04,119.15,108.04L119.15,108.04
						z"/>
					<path fill="#232765" d="M112.37,106.19c-0.24,0-0.47-0.1-0.64-0.3l-3.71-4.41c-0.3-0.35-0.25-0.88,0.1-1.18
						c0.35-0.3,0.88-0.25,1.18,0.1l3.71,4.41c0.3,0.35,0.25,0.88-0.1,1.18C112.75,106.12,112.56,106.19,112.37,106.19L112.37,106.19
						z"/>
					<path fill="#232765" d="M105.59,104.4c-0.24,0-0.47-0.1-0.64-0.3l-3.71-4.41c-0.3-0.35-0.25-0.88,0.1-1.18
						c0.35-0.3,0.88-0.25,1.18,0.1l3.71,4.41c0.3,0.35,0.25,0.88-0.1,1.18C105.98,104.34,105.79,104.4,105.59,104.4L105.59,104.4z"
						/>
					<path fill="#232765" d="M98.82,102.14c-0.24,0-0.47-0.1-0.64-0.3l-3.71-4.41c-0.3-0.35-0.25-0.88,0.1-1.18
						c0.35-0.3,0.88-0.25,1.18,0.1l3.71,4.41c0.3,0.35,0.25,0.88-0.1,1.18C99.2,102.08,99.01,102.14,98.82,102.14L98.82,102.14z"/>
					<path fill="#003439" d="M100.26,136.17l-1.44,1.27c-0.2,0.17-0.13,0.5,0.13,0.57l4.9,1.46c0.19,0.06,0.39,0.01,0.54-0.12
						l1.46-1.36c0.17-0.16,0.1-0.45-0.12-0.51l-4.94-1.43C100.6,136,100.4,136.04,100.26,136.17L100.26,136.17z"/>
				</g>
				<g>
					
						<linearGradient id="SVGID_00000072966977726533365880000010925286915060042128_" gradientUnits="userSpaceOnUse" x1="117.5405" y1="-762.0447" x2="120.4412" y2="-760.2964" gradientTransform="matrix(1 0 0 1 0 880)">
						<stop  offset="0.06" style="stop-color:#232765"/>
						<stop  offset="0.69" style="stop-color:#131314"/>
					</linearGradient>
					<path fill="url(#SVGID_00000072966977726533365880000010925286915060042128_)" d="M123.66,113.11l-2.97-0.91l-7.1,11.79
						c0.16,0.08,0.31,0.19,0.44,0.31c0.61,0.51,1.86,1.37,2.54,0.59l7.08-11.76V113.11L123.66,113.11z"/>
					
						<linearGradient id="SVGID_00000084504515960620541310000012516909877132662152_" gradientUnits="userSpaceOnUse" x1="114.132" y1="-762.8754" x2="117.3905" y2="-760.8099" gradientTransform="matrix(1 0 0 1 0 880)">
						<stop  offset="0.06" style="stop-color:#232765"/>
						<stop  offset="0.69" style="stop-color:#131314"/>
					</linearGradient>
					<path fill="url(#SVGID_00000084504515960620541310000012516909877132662152_)" d="M117.71,111.29l-7.49,12.45
						c0.13,0.07,0.28,0.12,0.42,0.17c0.44,0.15,0.89,0.21,1.34,0.17c0.39-0.03,0.75-0.25,1.15-0.22c0.16,0.01,0.31,0.06,0.46,0.13
						l7.1-11.79L117.71,111.29L117.71,111.29z"/>
					
						<linearGradient id="SVGID_00000104707566830943190690000013556640869988216470_" gradientUnits="userSpaceOnUse" x1="119.9882" y1="-761.0816" x2="122.7236" y2="-759.1443" gradientTransform="matrix(1 0 0 1 0 880)">
						<stop  offset="0.06" style="stop-color:#232765"/>
						<stop  offset="0.69" style="stop-color:#131314"/>
					</linearGradient>
					<path fill="url(#SVGID_00000104707566830943190690000013556640869988216470_)" d="M123.66,113.13l-7.08,11.76
						c0,0,0.01-0.01,0.01-0.01l6.65-8.42c0.27-0.29,0.42-0.68,0.42-1.09L123.66,113.13L123.66,113.13z"/>
					
						<linearGradient id="SVGID_00000074439578940081673720000010576738828323596719_" gradientUnits="userSpaceOnUse" x1="87.609" y1="-770.7888" x2="90.2685" y2="-769.3443" gradientTransform="matrix(1 0 0 1 0 880)">
						<stop  offset="0.06" style="stop-color:#232765"/>
						<stop  offset="0.69" style="stop-color:#131314"/>
					</linearGradient>
					<path fill="url(#SVGID_00000074439578940081673720000010576738828323596719_)" d="M93.67,103.93c-0.48-0.16-0.99-0.03-1.3,0.33
						l-7.07,11.48c-0.18,0.28-0.1,0.66,0.17,0.88c0.21,0.17,0.41,0.29,0.61,0.37l7.82-13L93.67,103.93L93.67,103.93z"/>
					
						<linearGradient id="SVGID_00000075877711065122714430000017985067926576362167_" gradientUnits="userSpaceOnUse" x1="90.1755" y1="-769.8182" x2="93.3936" y2="-767.9113" gradientTransform="matrix(1 0 0 1 0 880)">
						<stop  offset="0.06" style="stop-color:#232765"/>
						<stop  offset="0.69" style="stop-color:#131314"/>
					</linearGradient>
					<path fill="url(#SVGID_00000075877711065122714430000017985067926576362167_)" d="M93.9,104l-7.82,13
						c1.12,0.48,2.08-0.13,2.08-0.13c0.45-0.17,0.97-0.04,1.33,0.31l7.38-12.27L93.9,104L93.9,104z"/>
					
						<linearGradient id="SVGID_00000090985657266018710870000008103222378446477706_" gradientUnits="userSpaceOnUse" x1="93.3936" y1="-769.0894" x2="96.5341" y2="-767.3394" gradientTransform="matrix(1 0 0 1 0 880)">
						<stop  offset="0.06" style="stop-color:#232765"/>
						<stop  offset="0.69" style="stop-color:#131314"/>
					</linearGradient>
					<path fill="url(#SVGID_00000090985657266018710870000008103222378446477706_)" d="M96.88,104.91l-7.38,12.27
						c0.03,0.03,0.06,0.05,0.08,0.08c0.36,0.42,0.88,0.77,1.5,0.98c0.41,0.14,0.82,0.19,1.19,0.18l7.58-12.6L96.88,104.91
						L96.88,104.91z"/>
					
						<linearGradient id="SVGID_00000062177362542734740780000010391486175576355983_" gradientUnits="userSpaceOnUse" x1="96.2208" y1="-768.1218" x2="99.5587" y2="-766.3736" gradientTransform="matrix(1 0 0 1 0 880)">
						<stop  offset="0.06" style="stop-color:#232765"/>
						<stop  offset="0.69" style="stop-color:#131314"/>
					</linearGradient>
					<path fill="url(#SVGID_00000062177362542734740780000010391486175576355983_)" d="M99.85,105.82l-7.58,12.6
						c0.28-0.01,0.55-0.06,0.78-0.14c0.49-0.18,1.06-0.02,1.42,0.4c0.21,0.24,0.48,0.46,0.78,0.65l7.58-12.59L99.85,105.82
						L99.85,105.82z"/>
					
						<linearGradient id="SVGID_00000045609122657170491150000017795994442384970678_" gradientUnits="userSpaceOnUse" x1="99.3205" y1="-767.2219" x2="102.4593" y2="-765.3943" gradientTransform="matrix(1 0 0 1 0 880)">
						<stop  offset="0.06" style="stop-color:#232765"/>
						<stop  offset="0.69" style="stop-color:#131314"/>
					</linearGradient>
					<path fill="url(#SVGID_00000045609122657170491150000017795994442384970678_)" d="M102.83,106.73l-7.58,12.59
						c0.22,0.13,0.46,0.25,0.72,0.33c0.72,0.24,1.42,0.24,1.97,0.04c0.21-0.07,0.43-0.09,0.64-0.05l7.22-12L102.83,106.73
						L102.83,106.73z"/>
					
						<linearGradient id="SVGID_00000002375321704044698260000015420109867924442255_" gradientUnits="userSpaceOnUse" x1="105.2515" y1="-765.3815" x2="108.3903" y2="-763.5945" gradientTransform="matrix(1 0 0 1 0 880)">
						<stop  offset="0.06" style="stop-color:#232765"/>
						<stop  offset="0.69" style="stop-color:#131314"/>
					</linearGradient>
					<path fill="url(#SVGID_00000002375321704044698260000015420109867924442255_)" d="M108.78,108.55l-7.59,12.61
						c0.6,0.14,1.18,0.11,1.64-0.05c0.49-0.18,1.06-0.02,1.42,0.4c0.05,0.06,0.1,0.11,0.16,0.17l7.35-12.21L108.78,108.55
						L108.78,108.55z"/>
					
						<linearGradient id="SVGID_00000131348981808435588800000006288930280205266874_" gradientUnits="userSpaceOnUse" x1="108.3381" y1="-764.6461" x2="111.438" y2="-762.8185" gradientTransform="matrix(1 0 0 1 0 880)">
						<stop  offset="0.06" style="stop-color:#232765"/>
						<stop  offset="0.69" style="stop-color:#131314"/>
					</linearGradient>
					<path fill="url(#SVGID_00000131348981808435588800000006288930280205266874_)" d="M111.76,109.46l-7.35,12.21
						c0.35,0.34,0.81,0.63,1.34,0.81c0.57,0.19,1.13,0.23,1.61,0.13l7.37-12.25L111.76,109.46z"/>
					
						<linearGradient id="SVGID_00000093146757443491955250000015153128325592890814_" gradientUnits="userSpaceOnUse" x1="111.1806" y1="-763.8155" x2="114.478" y2="-761.9474" gradientTransform="matrix(1 0 0 1 0 880)">
						<stop  offset="0.06" style="stop-color:#232765"/>
						<stop  offset="0.69" style="stop-color:#131314"/>
					</linearGradient>
					<path fill="url(#SVGID_00000093146757443491955250000015153128325592890814_)" d="M114.74,110.38l-7.37,12.25
						c0.13-0.02,0.25-0.06,0.36-0.1c0.49-0.18,1.06-0.02,1.42,0.4c0.28,0.32,0.64,0.6,1.08,0.81l7.49-12.45L114.74,110.38
						L114.74,110.38z"/>
					
						<linearGradient id="SVGID_00000125596233994123689960000008461663094827800471_" gradientUnits="userSpaceOnUse" x1="102.4876" y1="-766.553" x2="105.4288" y2="-764.766" gradientTransform="matrix(1 0 0 1 0 880)">
						<stop  offset="0.06" style="stop-color:#232765"/>
						<stop  offset="0.69" style="stop-color:#131314"/>
					</linearGradient>
					<path fill-rule="evenodd" clip-rule="evenodd" fill="url(#SVGID_00000125596233994123689960000008461663094827800471_)" d="
						M105.81,107.64l-7.22,12c0.29,0.05,0.57,0.2,0.78,0.45c0.36,0.42,0.88,0.77,1.5,0.98c0.11,0.04,0.22,0.07,0.33,0.09l7.59-12.61
						L105.81,107.64z"/>
				</g>
				<path fill="#2F3793" d="M129.2,98.99v-1.03c0-0.12-0.02-0.24-0.05-0.36l-5.49,8.87v3.59l-8.32,13.9
					c-0.23,0.4-0.09,0.91,0.31,1.14c0.35,0.2,0.8,0.12,1.05-0.2l2.04-2.22v18.53l10.42-10.37L129.2,98.99L129.2,98.99L129.2,98.99z"
					/>
			</g>
			<g>
				
					<linearGradient id="SVGID_00000121983965685573002250000017575046817921651871_" gradientUnits="userSpaceOnUse" x1="124.3995" y1="-779.0198" x2="128.8714" y2="-776.1511" gradientTransform="matrix(1 0 0 1 0 880)">
					<stop  offset="0.06" style="stop-color:#232765"/>
					<stop  offset="0.69" style="stop-color:#131314"/>
				</linearGradient>
				<path fill="url(#SVGID_00000121983965685573002250000017575046817921651871_)" d="M123.71,106.42c0.32-0.5,5.03-6.25,5.03-6.25
					c0.28-0.32,0.46-0.75,0.46-1.19v-1.03c0.01-0.59-0.38-1.09-0.93-1.28l-5.91,9.83C122.78,106.69,123.39,106.78,123.71,106.42
					L123.71,106.42z"/>
				
					<linearGradient id="SVGID_00000090995445637734771950000014691087857406032057_" gradientUnits="userSpaceOnUse" x1="92.5969" y1="-788.6452" x2="95.9027" y2="-786.7467" gradientTransform="matrix(1 0 0 1 0 880)">
					<stop  offset="0.06" style="stop-color:#232765"/>
					<stop  offset="0.69" style="stop-color:#131314"/>
				</linearGradient>
				<path fill="url(#SVGID_00000090995445637734771950000014691087857406032057_)" d="M98.02,88.1c-0.67-0.21-1.37,0.04-1.71,0.62
					c-1.37,2.18-2.55,4.36-3.95,6.51c-0.57,0.87-0.47,1.74,0.06,2.42l5.73-9.52L98.02,88.1L98.02,88.1z"/>
				
					<linearGradient id="SVGID_00000009581391015037587150000010880419263699799969_" gradientUnits="userSpaceOnUse" x1="95.356" y1="-787.3508" x2="98.6618" y2="-785.5182" gradientTransform="matrix(1 0 0 1 0 880)">
					<stop  offset="0.06" style="stop-color:#232765"/>
					<stop  offset="0.69" style="stop-color:#131314"/>
				</linearGradient>
				<path fill="url(#SVGID_00000009581391015037587150000010880419263699799969_)" d="M98.15,88.14l-5.73,9.52
					c0.34,0.43,0.86,0.78,1.5,1c0.46,0.15,0.91,0.21,1.31,0.18l5.92-9.84L98.15,88.14L98.15,88.14z"/>
				
					<linearGradient id="SVGID_00000020364405617523367370000005761358900723697823_" gradientUnits="userSpaceOnUse" x1="98.5219" y1="-786.3437" x2="101.5324" y2="-784.6089" gradientTransform="matrix(1 0 0 1 0 880)">
					<stop  offset="0.06" style="stop-color:#232765"/>
					<stop  offset="0.69" style="stop-color:#131314"/>
				</linearGradient>
				<path fill="url(#SVGID_00000020364405617523367370000005761358900723697823_)" d="M101.16,88.99l-5.92,9.84
					c0.24-0.02,0.46-0.06,0.66-0.14c0.49-0.18,1.05-0.02,1.42,0.4c0.23,0.27,0.53,0.51,0.87,0.7l5.98-9.95L101.16,88.99
					L101.16,88.99z"/>
				
					<linearGradient id="SVGID_00000147940621921977480390000000541986976189677708_" gradientUnits="userSpaceOnUse" x1="101.4386" y1="-785.4456" x2="104.5149" y2="-783.7429" gradientTransform="matrix(1 0 0 1 0 880)">
					<stop  offset="0.06" style="stop-color:#232765"/>
					<stop  offset="0.69" style="stop-color:#131314"/>
				</linearGradient>
				<path fill="url(#SVGID_00000147940621921977480390000000541986976189677708_)" d="M104.17,89.85l-5.98,9.95
					c0.2,0.11,0.41,0.2,0.63,0.28c0.72,0.24,1.42,0.24,1.97,0.04c0.24-0.09,0.5-0.09,0.75-0.03l5.65-9.38L104.17,89.85L104.17,89.85
					z"/>
				
					<linearGradient id="SVGID_00000083807588261949111640000015913210182158751138_" gradientUnits="userSpaceOnUse" x1="104.5145" y1="-784.8796" x2="107.6415" y2="-783.0216" gradientTransform="matrix(1 0 0 1 0 880)">
					<stop  offset="0.06" style="stop-color:#232765"/>
					<stop  offset="0.69" style="stop-color:#131314"/>
				</linearGradient>
				<path fill="url(#SVGID_00000083807588261949111640000015913210182158751138_)" d="M107.18,90.7l-5.65,9.38
					c0.25,0.07,0.49,0.21,0.67,0.42c0.36,0.42,0.88,0.77,1.5,0.98c0.15,0.05,0.29,0.09,0.44,0.11l6.05-10.05L107.18,90.7
					L107.18,90.7z"/>
				
					<linearGradient id="SVGID_00000046314926561018463000000013414173065310341027_" gradientUnits="userSpaceOnUse" x1="107.4074" y1="-783.7352" x2="110.4838" y2="-781.9363" gradientTransform="matrix(1 0 0 1 0 880)">
					<stop  offset="0.06" style="stop-color:#232765"/>
					<stop  offset="0.69" style="stop-color:#131314"/>
				</linearGradient>
				<path fill="url(#SVGID_00000046314926561018463000000013414173065310341027_)" d="M110.19,91.55l-6.05,10.05
					c0.56,0.11,1.1,0.08,1.54-0.08c0.49-0.18,1.05-0.02,1.42,0.4c0.07,0.08,0.15,0.16,0.24,0.24l5.87-9.76L110.19,91.55
					L110.19,91.55z"/>
				
					<linearGradient id="SVGID_00000170245047659296464470000010941583230467703439_" gradientUnits="userSpaceOnUse" x1="110.5295" y1="-782.9673" x2="113.5738" y2="-781.2004" gradientTransform="matrix(1 0 0 1 0 880)">
					<stop  offset="0.06" style="stop-color:#232765"/>
					<stop  offset="0.69" style="stop-color:#131314"/>
				</linearGradient>
				<path fill="url(#SVGID_00000170245047659296464470000010941583230467703439_)" d="M113.21,92.41l-5.87,9.76
					c0.34,0.31,0.77,0.57,1.27,0.74c0.62,0.21,1.24,0.23,1.75,0.11l5.87-9.75L113.21,92.41L113.21,92.41z"/>
				
					<linearGradient id="SVGID_00000055671977884858381460000003869101937459993000_" gradientUnits="userSpaceOnUse" x1="113.5301" y1="-782.18" x2="116.6402" y2="-780.3474" gradientTransform="matrix(1 0 0 1 0 880)">
					<stop  offset="0.06" style="stop-color:#232765"/>
					<stop  offset="0.69" style="stop-color:#131314"/>
				</linearGradient>
				<path fill="url(#SVGID_00000055671977884858381460000003869101937459993000_)" d="M116.22,93.26l-5.87,9.75
					c0.08-0.02,0.15-0.04,0.22-0.07c0.49-0.18,1.05-0.02,1.42,0.4c0.3,0.34,0.7,0.64,1.17,0.85l6.06-10.08L116.22,93.26
					L116.22,93.26z"/>
				
					<linearGradient id="SVGID_00000031171220456961766180000007833188860736471434_" gradientUnits="userSpaceOnUse" x1="116.4434" y1="-781.1552" x2="119.4218" y2="-779.4203" gradientTransform="matrix(1 0 0 1 0 880)">
					<stop  offset="0.06" style="stop-color:#232765"/>
					<stop  offset="0.69" style="stop-color:#131314"/>
				</linearGradient>
				<path fill="url(#SVGID_00000031171220456961766180000007833188860736471434_)" d="M119.23,94.11l-6.06,10.08
					c0.11,0.05,0.21,0.09,0.33,0.13c0.72,0.24,1.42,0.24,1.97,0.04c0.35-0.13,0.73-0.08,1.06,0.11l5.72-9.5L119.23,94.11
					L119.23,94.11z"/>
				
					<linearGradient id="SVGID_00000108283208461640958970000002393899485639324600_" gradientUnits="userSpaceOnUse" x1="119.4596" y1="-780.5251" x2="122.7975" y2="-778.6267" gradientTransform="matrix(1 0 0 1 0 880)">
					<stop  offset="0.06" style="stop-color:#232765"/>
					<stop  offset="0.69" style="stop-color:#131314"/>
				</linearGradient>
				<path fill="url(#SVGID_00000108283208461640958970000002393899485639324600_)" d="M122.24,94.97l-5.72,9.5
					c0.13,0.08,0.25,0.17,0.36,0.29c0.36,0.42,0.88,0.77,1.5,0.98c0.27,0.09,0.54,0.15,0.8,0.17l6.07-10.09L122.24,94.97
					L122.24,94.97z"/>
				
					<linearGradient id="SVGID_00000069385355949439584440000005631561483323741366_" gradientUnits="userSpaceOnUse" x1="122.5329" y1="-779.4222" x2="125.7072" y2="-777.5237" gradientTransform="matrix(1 0 0 1 0 880)">
					<stop  offset="0.06" style="stop-color:#232765"/>
					<stop  offset="0.69" style="stop-color:#131314"/>
				</linearGradient>
				<path fill="url(#SVGID_00000069385355949439584440000005631561483323741366_)" d="M128.19,96.65l-2.93-0.83l-6.07,10.09
					c0.45,0.04,0.86-0.01,1.22-0.15c0.32-0.12,0.69-0.09,1.01,0.08c0.3,0.17,0.53,0.45,0.85,0.61c0.03,0.02,0.06,0.03,0.09,0.04
					l5.91-9.83C128.24,96.66,128.22,96.65,128.19,96.65L128.19,96.65z"/>
			</g>
		</g>
	</g>
</g>
</svg>
