<?xml version="1.0" encoding="utf-8"?>
<!-- Generator: Adobe Illustrator 30.0.0, SVG Export Plug-In . SVG Version: 9.03 Build 0)  -->
<svg version="1.1" baseProfile="basic" id="Layer_1"
	 xmlns="http://www.w3.org/2000/svg" xmlns:xlink="http://www.w3.org/1999/xlink" x="0px" y="0px" width="88px" height="102px"
	 viewBox="0 0 88 102" xml:space="preserve">
<g>
	<path fill="#83A68F" d="M43.13,28.66C20.69,28.66,2.5,41.4,2.5,57.11s18.19,28.44,40.63,28.44s40.63-12.73,40.63-28.44
		S65.57,28.66,43.13,28.66z M64.1,62.02c-0.1,0.22-0.21,0.44-0.34,0.66c-1.45,2.51-4.16,4.13-6.05,3.62
		c-0.96-0.26-1.52-1.01-1.66-2.02c-0.03-0.22-0.11-0.43-0.23-0.6c-0.31-0.46-1.2-0.31-1.53,0.26l-4.44,7.68l-0.69,1.2l-1.02-0.27
		l-5.22-1.4c0.09-0.11,0.16-0.22,0.23-0.34c0.23-0.39,0.33-0.8,0.33-1.2l0,0v-3.97c0.04-1.41-1.26-2.78-3.39-3.35
		c-2.7-0.72-5.72,0.11-6.73,1.87c-0.22,0.39-0.33,0.79-0.34,1.19v0v2.99v0c-0.17,0.05-0.36,0.06-0.53,0.02l-7.56-2.02l3.11-5.39
		c0.08-0.13,0.11-0.26,0.1-0.38l0.01,0v-4.04l-0.01,0c-0.02-0.39-0.43-0.66-0.96-0.51c-0.27,0.08-0.53,0.19-0.77,0.34
		c-1.11,0.68-2.28,0.97-3.23,0.71c-0.49-0.13-0.87-0.39-1.15-0.75c0.1-0.23,0.22-0.45,0.35-0.68c1.45-2.51,4.16-4.13,6.05-3.62
		c0.96,0.26,1.52,1.01,1.66,2.02c0.03,0.22,0.11,0.43,0.23,0.6c0.31,0.46,1.2,0.31,1.53-0.26l4.72-8.18
		c0.22-0.39,0.75-0.61,1.17-0.5l5.48,1.47c0,0,0,0,0,0c-0.09,0.11-0.16,0.22-0.23,0.34c-0.23,0.4-0.34,0.81-0.34,1.22v3.97l0,0
		c-0.02,1.4,1.28,2.76,3.39,3.32c2.7,0.72,5.72-0.11,6.73-1.87c0.22-0.39,0.33-0.78,0.33-1.18l0,0v-3.01
		c0.17-0.05,0.36-0.06,0.53-0.02l7.56,2.02l-3.11,5.39c-0.08,0.13-0.1,0.26-0.1,0.37c0,0,0,0,0,0l0,4.03l0,0
		c0.01,0.4,0.43,0.68,0.96,0.53c0.27-0.08,0.53-0.19,0.77-0.34c1.11-0.68,2.28-0.97,3.23-0.71c0.49,0.13,0.88,0.39,1.16,0.75
		L64.1,62.02z"/>
	<g>
		<path fill="#CBE7B9" d="M12.51,67.44c0.51-0.89,0.42-1.84-0.16-2.66c-0.13-0.18-0.21-0.38-0.24-0.6c-0.09-0.56,0.65-1.1,1.26-0.94
			l8.75,2.35l0.82,0.22l0.48-0.84l4.64-8.04c0.33-0.57-0.17-1.1-0.86-0.9c-0.27,0.08-0.53,0.19-0.77,0.34
			c-1.11,0.68-2.28,0.97-3.23,0.71c-1.89-0.51-2.25-2.95-0.8-5.46c1.45-2.51,4.16-4.13,6.05-3.62c0.96,0.26,1.52,1.01,1.66,2.02
			c0.03,0.22,0.11,0.43,0.23,0.6c0.31,0.46,1.2,0.31,1.53-0.26l4.72-8.18l0,0l0.41-0.71l-1.52-0.41l-8.05-2.16
			c-0.61-0.16-0.61-0.91,0.01-1.27c0.24-0.14,0.5-0.25,0.78-0.33c1.24-0.33,2.27-0.99,2.78-1.88c1.01-1.76-0.35-3.77-3.06-4.49
			c-0.1-0.03-0.28-0.07-0.41-0.08c-2.33,0.67-4.45,1.46-6.54,2.42c-0.24,0.74-0.09,1.53,0.37,2.2c0.13,0.18,0.21,0.38,0.24,0.6
			c0.09,0.56-0.65,1.1-1.26,0.94l-4.22-1.13c-3.67,2.28-6.78,5.06-9.04,8.12c0.05-0.03,0.1-0.05,0.15-0.08
			c1.11-0.68,2.32-0.99,3.28-0.73c1.89,0.51,2.25,2.95,0.8,5.46c-1.45,2.51-4.16,4.13-6.05,3.62c-0.89-0.24-1.44-0.91-1.62-1.81
			c-0.74,2.15-1.13,4.39-1.13,6.7c0,1.1,0.09,2.18,0.26,3.25l3.52,0.94c0.61,0.16,0.61,0.91-0.01,1.27
			c-0.24,0.14-0.5,0.25-0.78,0.33c-0.71,0.19-1.36,0.49-1.87,0.88c0.68,1.97,1.65,3.86,2.87,5.64C9,69.87,11.58,69.04,12.51,67.44z"
			/>
		<path fill="#CBE7B9" d="M73.66,46.84c-0.51,0.89-0.42,1.84,0.16,2.66c0.13,0.18,0.21,0.38,0.24,0.6c0.09,0.56-0.65,1.1-1.26,0.94
			l-8.81-2.36l0,0l-0.76-0.2l-0.92,1.59l-4.21,7.29c-0.33,0.57,0.17,1.1,0.86,0.9c0.27-0.08,0.53-0.19,0.77-0.34
			c1.11-0.68,2.28-0.97,3.23-0.71c1.89,0.51,2.25,2.95,0.8,5.46c-1.45,2.51-4.16,4.13-6.05,3.62c-0.96-0.26-1.52-1.01-1.66-2.02
			c-0.03-0.22-0.11-0.43-0.23-0.6c-0.31-0.46-1.2-0.31-1.53,0.26l-4.44,7.68l-0.69,1.2l1.59,0.43l7.98,2.14
			c0.61,0.16,0.61,0.91-0.01,1.27c-0.24,0.14-0.5,0.25-0.78,0.33c-1.24,0.33-2.27,0.99-2.78,1.88c-1.01,1.76,0.35,3.77,3.06,4.49
			c0.12,0.03,0.25,0.06,0.37,0.09c2.3-0.66,4.5-1.47,6.56-2.41c0.26-0.76,0.12-1.53-0.36-2.22c-0.13-0.18-0.21-0.38-0.24-0.6
			c-0.09-0.56,0.65-1.1,1.26-0.94l4.25,1.14c3.71-2.3,6.81-5.08,9.12-8.18c-0.1,0.05-0.21,0.1-0.31,0.16
			c-1.11,0.68-2.28,0.97-3.23,0.71c-1.89-0.51-2.25-2.95-0.8-5.46c1.45-2.51,4.16-4.13,6.05-3.62c0.95,0.26,1.51,1,1.66,2
			c0.78-2.21,1.2-4.51,1.2-6.89c0-1.09-0.09-2.17-0.26-3.22l-3.62-0.97c-0.61-0.16-0.61-0.91,0.01-1.27
			c0.24-0.14,0.5-0.25,0.78-0.33c0.75-0.2,1.42-0.52,1.95-0.94c-0.67-1.94-1.63-3.8-2.84-5.56C77.25,44.38,74.6,45.22,73.66,46.84z"
			/>
		<path fill="#CBE7B9" d="M45.54,34.94c-0.96-0.26-1.52-1.01-1.66-2.02c-0.03-0.22-0.11-0.43-0.23-0.6
			c-0.31-0.46-1.2-0.31-1.53,0.26l-4.44,7.68l0,0L37,41.46l1.38,0.37l8.19,2.19c0.61,0.16,0.61,0.91-0.01,1.27
			c-0.24,0.14-0.5,0.25-0.78,0.33c-1.24,0.33-2.27,0.99-2.78,1.88c-1.01,1.76,0.35,3.77,3.06,4.49c2.7,0.72,5.72-0.11,6.73-1.87
			c0.51-0.89,0.42-1.84-0.16-2.66c-0.13-0.18-0.21-0.38-0.24-0.6c-0.09-0.56,0.65-1.1,1.26-0.94l8.58,2.3l0,0l0.99,0.26l0.49-0.84
			l0,0l4.64-8.04c0.33-0.57-0.17-1.1-0.86-0.9c-0.27,0.08-0.53,0.19-0.77,0.34c-1.11,0.68-2.28,0.97-3.23,0.71
			c-1.89-0.51-2.25-2.95-0.8-5.46c0.34-0.59,0.75-1.13,1.2-1.6c-3.54-1.47-7.42-2.58-11.54-3.25c-0.14,0.6-0.39,1.24-0.76,1.88
			C50.14,33.82,47.43,35.44,45.54,34.94z"/>
		<path fill="#CBE7B9" d="M40.63,79.35c0.96,0.26,1.52,1.01,1.66,2.02c0.03,0.22,0.11,0.43,0.23,0.6c0.31,0.46,1.2,0.31,1.53-0.26
			l4.72-8.18l0.41-0.71l-1.02-0.27l-8.55-2.29c-0.61-0.16-0.61-0.91,0.01-1.27c0.24-0.14,0.5-0.25,0.78-0.33
			c1.24-0.33,2.27-0.99,2.78-1.88c1.01-1.76-0.35-3.77-3.06-4.49c-2.7-0.72-5.72,0.11-6.73,1.87c-0.51,0.89-0.42,1.84,0.16,2.66
			c0.13,0.18,0.21,0.38,0.24,0.6c0.09,0.56-0.65,1.1-1.26,0.94l-8.36-2.24l-1.2-0.32l-0.88,1.53l-4.24,7.35
			c-0.33,0.57,0.17,1.1,0.86,0.9c0.27-0.08,0.53-0.19,0.77-0.34c1.11-0.68,2.28-0.97,3.23-0.71c1.89,0.51,2.25,2.95,0.8,5.46
			c-0.33,0.58-0.73,1.1-1.17,1.57c3.53,1.48,7.4,2.59,11.52,3.26c0.14-0.6,0.39-1.23,0.76-1.86C36.03,80.46,38.74,78.84,40.63,79.35
			z"/>
	</g>
	<g>
		<path d="M62.24,48.22l-8.58-2.3c-0.61-0.16-1.35,0.38-1.26,0.94c0.03,0.22,0.11,0.42,0.24,0.6c0.57,0.82,0.67,1.77,0.16,2.66
			c-1.01,1.76-4.03,2.59-6.73,1.87c-2.09-0.56-3.38-1.88-3.39-3.27l0,0v3.97l0,0c-0.02,1.4,1.28,2.76,3.39,3.32
			c2.7,0.72,5.72-0.11,6.73-1.87c0.22-0.39,0.33-0.78,0.33-1.18l0,0v-3.01c0.17-0.05,0.36-0.06,0.53-0.02l7.56,2.03l1.1-1.9
			l0.92-1.59L62.24,48.22L62.24,48.22z"/>
		<path d="M36.59,42.16l-4.72,8.18c-0.33,0.57-1.22,0.73-1.53,0.26c-0.12-0.18-0.2-0.38-0.23-0.6c-0.14-1.01-0.7-1.76-1.66-2.02
			c-1.89-0.51-4.6,1.12-6.05,3.62c-1.08,1.86-1.15,3.69-0.35,4.71c0.1-0.23,0.22-0.45,0.35-0.68c1.45-2.51,4.16-4.13,6.05-3.62
			c0.96,0.26,1.52,1.01,1.66,2.02c0.03,0.22,0.11,0.43,0.23,0.6c0.31,0.46,1.2,0.31,1.53-0.26l4.72-8.18
			c0.22-0.39,0.75-0.61,1.17-0.5l5.48,1.47c0.56-0.72,1.47-1.24,2.55-1.53c0.27-0.07,0.53-0.19,0.78-0.33
			c0.62-0.37,0.62-1.11,0.01-1.27l-8.19-2.19L37,41.45L36.59,42.16L36.59,42.16z"/>
		<path d="M62.96,57.22c-0.96-0.26-2.13,0.03-3.23,0.71c-0.24,0.15-0.51,0.26-0.77,0.34c-0.53,0.15-0.95-0.13-0.96-0.53h0v4.04l0,0
			c0.01,0.4,0.43,0.68,0.96,0.53c0.27-0.08,0.53-0.19,0.77-0.34c1.11-0.68,2.28-0.97,3.23-0.71c0.49,0.13,0.88,0.39,1.16,0.75
			C65.13,59.74,64.68,57.68,62.96,57.22z"/>
		<path d="M24.96,66.34l3.11-5.39c0.08-0.13,0.11-0.26,0.1-0.38l0.01,0v-4.04l-0.01,0c0.01,0.12-0.02,0.25-0.1,0.39l-4.64,8.04
			l-0.48,0.84l1.2,0.32L24.96,66.34z"/>
		<path d="M33.04,68.34c0.43-0.13,0.79-0.52,0.73-0.92c-0.03-0.22-0.11-0.42-0.24-0.6c-0.32-0.46-0.49-0.96-0.49-1.47l0,0
			L33.04,68.34L33.04,68.34z"/>
		<path d="M43.5,69.61L43.5,69.61l0-3.98c-0.01,0.39-0.11,0.78-0.33,1.15c-0.51,0.89-1.54,1.54-2.78,1.88
			c-0.27,0.07-0.53,0.19-0.78,0.33c-0.62,0.37-0.62,1.11-0.01,1.27l3.33,0.89c0.09-0.11,0.16-0.22,0.23-0.34
			C43.39,70.42,43.5,70.01,43.5,69.61z"/>
	</g>
	<g>
		<path fill="#FFFFFF" d="M61.21,51.97l-7.56-2.02c-0.17-0.05-0.36-0.03-0.53,0.02v3.01l0,0c0,0.39-0.11,0.79-0.33,1.18
			c-1.01,1.76-4.03,2.59-6.73,1.87c-2.11-0.57-3.41-1.92-3.39-3.32l0,0v-3.97c0-0.41,0.1-0.82,0.34-1.22
			c0.07-0.12,0.15-0.23,0.23-0.34c0,0,0,0,0,0l-5.48-1.47c-0.42-0.11-0.94,0.11-1.17,0.5l-4.72,8.18c-0.33,0.57-1.22,0.73-1.53,0.26
			c-0.12-0.18-0.2-0.38-0.23-0.6c-0.14-1.01-0.7-1.76-1.66-2.02c-1.89-0.51-4.6,1.12-6.05,3.62c-0.13,0.23-0.25,0.46-0.35,0.68
			c0.28,0.36,0.67,0.62,1.15,0.75c0.96,0.26,2.13-0.03,3.23-0.71c0.24-0.15,0.51-0.26,0.77-0.34c0.52-0.15,0.94,0.12,0.96,0.51
			l0.01,0v4.04l-0.01,0c0,0.12-0.03,0.25-0.1,0.38l-3.11,5.39l7.56,2.02c0.17,0.05,0.36,0.04,0.53-0.02v0v-2.99v0
			c0-0.4,0.11-0.8,0.34-1.19c1.01-1.76,4.03-2.59,6.73-1.87c2.13,0.57,3.43,1.94,3.39,3.35v3.97l0,0c0,0.4-0.11,0.81-0.33,1.2
			c-0.07,0.12-0.15,0.23-0.23,0.34l5.22,1.4l1.02,0.27l0.69-1.2l4.44-7.68c0.33-0.57,1.22-0.73,1.53-0.26
			c0.12,0.18,0.2,0.38,0.23,0.6c0.14,1.01,0.7,1.76,1.66,2.02c1.89,0.51,4.6-1.12,6.05-3.62c0.13-0.22,0.24-0.44,0.34-0.66
			l0.01-0.03c-0.28-0.36-0.67-0.62-1.16-0.75c-0.96-0.26-2.13,0.03-3.23,0.71c-0.24,0.15-0.51,0.26-0.77,0.34
			c-0.53,0.15-0.95-0.13-0.96-0.53l0,0l0-4.03c0,0,0,0,0,0c0-0.12,0.03-0.24,0.1-0.37L61.21,51.97z"/>
	</g>
	<g>
		<path fill="#9ECFA3" d="M57.21,83l-0.55,0.95c0.64-0.16,1.28-0.33,1.91-0.51c-0.11-0.02-0.23-0.05-0.34-0.08
			C57.86,83.26,57.52,83.14,57.21,83z"/>
		<path fill="#9ECFA3" d="M40.04,85.48c1.02,0.05,2.06,0.08,3.1,0.08c1.47,0,2.93-0.06,4.37-0.16l-5.88-1.57
			c-2.19-0.59-3.34-2.34-3.1-4.32c-0.76,0.27-1.54,0.74-2.24,1.37C36.46,82.94,37.79,84.69,40.04,85.48z"/>
		<path fill="#9ECFA3" d="M74.39,66.61l6.14,1.65c0.37-0.6,0.7-1.21,1.01-1.84l-6.11-1.64c-0.21,0.28-0.4,0.57-0.58,0.87
			C74.67,65.97,74.52,66.29,74.39,66.61z"/>
		<path fill="#9ECFA3" d="M10.75,49.46c-1.22-1.48-2.94-2.65-5.09-3.35c-0.36,0.61-0.7,1.22-1,1.84c1.93,0.66,3.43,1.77,4.46,3.16
			C9.72,50.66,10.27,50.1,10.75,49.46z"/>
		<path fill="#9ECFA3" d="M55.8,78.1l-8.38-2.24l-1.05,1.82l8.48,2.27c0.02-0.36,0.13-0.73,0.33-1.08
			C55.33,78.59,55.54,78.33,55.8,78.1z"/>
		<path fill="#9ECFA3" d="M17.91,67.95l1.75-3.03l-1.96-0.53l-1.75,3.03l-3.14-0.84c-0.04,0.29-0.15,0.57-0.31,0.85
			c-0.21,0.35-0.49,0.67-0.84,0.95l3.23,0.87l1.96,0.53l3.28,0.88l1.05-1.82L17.91,67.95z"/>
	</g>
	<g>
		<path fill="#E9F8DF" d="M8.98,65.56l2.15-3.73c2.6-4.51,2.27-9.16-0.38-12.37c-0.48,0.64-1.04,1.2-1.63,1.65
			c2,2.71,2.17,6.51,0.05,10.19l-2.15,3.73l-3.26-0.87c0.29,0.81,0.64,1.6,1.03,2.38l3.15,0.84l3.74,1
			c0.35-0.27,0.64-0.59,0.84-0.95c0.16-0.28,0.26-0.57,0.31-0.85L8.98,65.56z"/>
		<path fill="#E9F8DF" d="M35.21,72.58l5.77-10c-0.27-0.11-0.56-0.21-0.87-0.3c-0.37-0.1-0.74-0.17-1.11-0.21l-5.76,9.98
			l-12.05-3.23l-1.05,1.82l12.05,3.23l-3.71,6.42l-1.66,2.87c0.64,0.2,1.29,0.38,1.95,0.56l5.39-9.33l3.98,1.07l-0.91,1.57
			c-0.75,1.3-1.05,2.62-0.95,3.83c0.7-0.63,1.48-1.1,2.24-1.37c0.08-0.63,0.3-1.29,0.67-1.93L40.1,76l6.26,1.68l1.05-1.82
			L35.21,72.58z"/>
		<path fill="#E9F8DF" d="M64.21,61.77c-0.12,0.3-0.27,0.6-0.45,0.91c-0.19,0.32-0.39,0.62-0.61,0.91l4.56,1.22l-8.24,14.27
			L55.8,78.1c-0.25,0.23-0.46,0.49-0.63,0.77c-0.21,0.35-0.31,0.72-0.33,1.08l3.58,0.96L57.21,83c0.31,0.14,0.65,0.26,1.02,0.36
			c0.11,0.03,0.23,0.06,0.34,0.08c0.26-0.08,0.53-0.15,0.79-0.23l1.02-1.77l1.05-1.82l3.84-6.65l9.02,2.42
			c0.63-0.52,1.23-1.07,1.8-1.62l-9.77-2.62l3.35-5.8l4.72,1.26c0.13-0.31,0.28-0.63,0.47-0.95c0.18-0.31,0.37-0.6,0.58-0.87
			L64.21,61.77z"/>
		<path fill="#E9F8DF" d="M24.15,57.15c-0.33,0.02-0.65-0.01-0.94-0.09c-0.39-0.1-0.71-0.29-0.96-0.54l-4.54,7.87l1.96,0.53
			L24.15,57.15z"/>
		<path fill="#E9F8DF" d="M55.54,33.44l-10.5,18.18c0.31,0.14,0.65,0.26,1.02,0.36c0.31,0.08,0.62,0.14,0.93,0.19l12.22-21.16
			c-0.64-0.19-1.29-0.38-1.95-0.55l-0.67,1.16l-4.55-1.22c-0.12,0.3-0.27,0.6-0.45,0.91c-0.19,0.32-0.39,0.62-0.61,0.91L55.54,33.44
			z"/>
		<path fill="#E9F8DF" d="M10.73,39.95l18.26,4.89l-1.78,3.08c0.44-0.06,0.86-0.05,1.24,0.05c0.3,0.08,0.56,0.21,0.78,0.38
			l4.49-7.77l-1.96-0.53l-1.71,2.97L12.6,38.34C11.95,38.86,11.32,39.39,10.73,39.95z"/>
	</g>
	<g id="Props__x26__Trees_00000026862494130749097080000002683446784515860619_">
		<path fill="#0E6545" d="M68.54,36.34L68.54,36.34l-1.63-4.99c-0.18-0.56-0.98-0.56-1.16,0l-1.63,4.99l0,0
			c-0.24,0.74,0.32,1.5,1.37,1.78c1.16,0.31,2.47-0.09,2.94-0.89C68.6,36.93,68.63,36.63,68.54,36.34z"/>
		<path fill="#00A07A" d="M65.32,38.72L65.32,38.72l-1.63-4.99c-0.18-0.56-0.98-0.56-1.16,0l-1.63,4.99l0,0
			c-0.24,0.74,0.32,1.5,1.37,1.78c1.16,0.31,2.47-0.09,2.94-0.89C65.38,39.31,65.41,39.01,65.32,38.72z"/>
		<path fill="#9C8181" d="M18.93,43.06h-1.2v1.01l0,0c0,0.17,0.14,0.32,0.38,0.39c0.31,0.08,0.66-0.02,0.78-0.24
			c0.03-0.05,0.04-0.1,0.04-0.15h0L18.93,43.06L18.93,43.06z"/>
		<ellipse fill="#2C6854" cx="18.33" cy="41.11" rx="2.88" ry="2.66"/>
		<path fill="#9C8181" d="M22.97,44.21h-1.2v1.01l0,0c0,0.17,0.14,0.32,0.38,0.39c0.31,0.08,0.66-0.02,0.78-0.24
			c0.03-0.05,0.04-0.1,0.04-0.15h0L22.97,44.21L22.97,44.21z"/>
		<ellipse fill="#00A07A" cx="22.37" cy="42.26" rx="2.88" ry="2.66"/>
		<path fill="#2C6854" d="M12.02,74.47L12.02,74.47l-1.63-4.99c-0.18-0.56-0.98-0.56-1.16,0L7.6,74.47l0,0
			c-0.24,0.74,0.32,1.5,1.37,1.78c1.16,0.31,2.47-0.09,2.94-0.89C12.07,75.06,12.11,74.76,12.02,74.47z"/>
		<path fill="#FFFFFF" d="M85.41,49.45c-0.09,0.74-0.25,1.49-0.49,2.24C85.16,50.94,85.32,50.19,85.41,49.45z"/>
		<path fill="#FFFFFF" d="M84.93,51.7c-0.08,0.25-0.16,0.5-0.26,0.76C84.76,52.2,84.85,51.95,84.93,51.7z"/>
		<path fill="#FFFFFF" d="M60.04,62.81l3.05,2.91v2.94l-3.03,5.25l-5.85-1.57v-2.96l2.54-4.44l2.59-2.16
			C59.54,62.62,59.84,62.63,60.04,62.81z"/>
		<path fill="#9FD5FF" d="M54.21,69.37l2.52-2.1c0.23-0.19,0.58-0.15,0.76,0.09l2.62,3.55l2.98-5.19l-3.05-2.91
			c-0.19-0.19-0.5-0.2-0.7-0.02l-2.59,2.15L54.21,69.37z"/>
		<path d="M57.58,71.26l-0.83-0.22c-0.02,0-0.03-0.02-0.03-0.03v-1.62l0.83,0.22c0.02,0,0.03,0.02,0.03,0.03V71.26z"/>
		<polygon fill="#3D5FEC" points="23.27,71.47 22.02,71.13 22.02,75.23 23.27,75.57 24.02,74.27 24.02,70.17 		"/>
		<polygon points="22.02,71.14 22.77,69.84 24.02,70.17 23.27,71.47 		"/>
		<polygon fill="#FFFFFF" points="9.81,81.66 9.81,78.46 12.2,70.64 12.8,69.59 25.65,73.03 27.62,74.28 27.62,77.24 22.66,85.1 		
			"/>
		<polygon fill="#3D5FEC" points="22.66,81.9 25.05,74.07 25.65,73.03 12.8,69.59 12.2,70.64 9.81,78.46 		"/>
		<polygon fill="#9ECFA3" points="22.66,81.9 22.66,85.1 9.81,81.66 9.81,78.46 		"/>
		<polygon points="11.86,79.01 11.86,81.19 14.06,81.78 14.06,79.6 		"/>
		<polygon points="15.03,79.86 15.03,82.04 17.23,82.63 17.23,80.45 		"/>
		<polygon points="18.2,80.71 18.2,82.89 20.41,83.48 20.41,81.3 		"/>
		<g>
			<path fill="#FFFFFF" d="M80.67,51.85c-0.34,0.58-1.02,0.86-1.67,0.69l-2.86-0.77l-2.95-0.79c-0.48-0.13-0.71-0.68-0.46-1.11
				l-0.49,0.85v7.93l7.86,2.11v-6.88c0-0.69,0.18-1.37,0.53-1.97l0.25-0.44L80.67,51.85z"/>
			<path fill="#FFFFFF" d="M74.46,45.74c0.16,0.11,0.32,0.22,0.46,0.34l0.8-1.39c1.88-3.26,0.56-6.68-2.96-7.63l-2.54-0.68
				l-3.24-0.87c-0.37-0.1-0.54-0.52-0.35-0.85l-0.38,0.65v7.93l3.25,0.87L72.77,45C73.41,45.17,73.97,45.42,74.46,45.74z"/>
		</g>
		<g>
			<polygon fill="#47A1FB" points="76.78,51.94 76.78,59.88 78.6,60.37 78.6,52.43 			"/>
			<polygon fill="#47A1FB" points="73.44,51.04 73.44,58.98 75.26,59.47 75.26,51.53 			"/>
		</g>
		<path fill="#9ECFA3" d="M85.48,40.53c-0.05,0.62-0.24,2.36-0.7,3.68c-0.3,0.86-0.7,1.72-1.19,2.59l-2.96,5.13
			c-0.35,0.6-0.53,1.28-0.53,1.97v6.88l3.49-6.04c1.17-2.02,1.78-4.07,1.89-6.01L85.48,40.53L85.48,40.53z"/>
		<g>
			<polygon fill="#47A1FB" points="70.55,36.47 70.55,44.4 72.37,44.89 72.37,36.96 			"/>
			<polygon fill="#47A1FB" points="67.21,35.58 67.21,43.51 69.03,44 69.03,36.06 			"/>
			<path fill="#47A1FB" d="M73.9,37.49v7.93c0.38,0.19,0.72,0.41,1.03,0.66l0.79-1.37v-5.73C75.27,38.38,74.65,37.86,73.9,37.49z"/>
		</g>
		<path fill="#00A07A" d="M85.48,39.41c-0.29-4.49-3.34-8.26-8.5-9.64l-5.83-1.56c-0.4-0.11-0.82,0.07-1.02,0.42l-3.49,6.04
			c-0.19,0.33-0.02,0.75,0.35,0.85l3.24,0.87l2.54,0.68c3.52,0.94,4.84,4.36,2.96,7.63l-0.8,1.39l-2.19,3.79
			c-0.25,0.43-0.02,0.98,0.46,1.11l2.95,0.79L79,52.53c0.65,0.17,1.33-0.11,1.67-0.69l2.92-5.05c0.5-0.86,0.89-1.72,1.19-2.59
			C85.35,42.56,85.58,40.94,85.48,39.41z"/>
		<path fill="#2C6854" d="M73.87,59.52L73.87,59.52l-1.63-4.99c-0.18-0.56-0.98-0.56-1.16,0l-1.63,4.99l0,0
			c-0.24,0.74,0.32,1.5,1.37,1.78c1.16,0.31,2.47-0.09,2.94-0.89C73.92,60.12,73.95,59.81,73.87,59.52z"/>
	</g>
	<g id="Pin_00000018932946800819937590000004907877667389978518_">
		<g>
			<g>
				<path fill="#FF4365" d="M56.61,24.59c-1.85-3.56-5.03-6.25-8.86-7.47c-1.49-0.46-3.03-0.69-4.57-0.69
					c-1.54,0-3.08,0.23-4.57,0.69c-3.83,1.22-7.02,3.9-8.86,7.47c-1.13,2.14-1.71,4.53-1.71,6.97c0,9.2,5.89,12.79,10.94,20.69
					c3.07,4.76,2.21,7.6,4.2,7.6c0,0,0.01,0,0.01,0c0,0,0.01,0,0.01,0c1.99,0,1.13-2.84,4.2-7.6c5.05-7.9,10.94-11.48,10.94-20.69
					C58.33,29.12,57.74,26.73,56.61,24.59z"/>
			</g>
			<ellipse fill="#FFFFFF" cx="43.17" cy="31.57" rx="5.79" ry="5.79"/>
		</g>
	</g>
</g>
</svg>
