<?xml version="1.0" encoding="utf-8"?>
<!-- Generator: Adobe Illustrator 23.0.2, SVG Export Plug-In . SVG Version: 6.00 Build 0)  -->
<svg version="1.1" id="Layer_1" xmlns="http://www.w3.org/2000/svg" xmlns:xlink="http://www.w3.org/1999/xlink" x="0px" y="0px"
	 width="100px" height="100px" viewBox="0 0 100 100" enable-background="new 0 0 100 100" xml:space="preserve">
<linearGradient id="SVGID_1_" gradientUnits="userSpaceOnUse" x1="8.1696" y1="55.3498" x2="16.7911" y2="55.3498">
	<stop  offset="0" style="stop-color:#FFFFFF;stop-opacity:0"/>
	<stop  offset="1" style="stop-color:#000000;stop-opacity:0.2"/>
</linearGradient>
<rect x="8.2" y="54.3" fill="url(#SVGID_1_)" width="8.6" height="2.1"/>
<linearGradient id="SVGID_2_" gradientUnits="userSpaceOnUse" x1="17.2394" y1="79.4369" x2="29.658" y2="79.4369">
	<stop  offset="0" style="stop-color:#FFFFFF;stop-opacity:0"/>
	<stop  offset="1" style="stop-color:#000000;stop-opacity:0.2"/>
</linearGradient>
<rect x="17.2" y="78.7" fill="url(#SVGID_2_)" width="12.4" height="1.6"/>
<ellipse fill="#E1E2E6" cx="37.2" cy="69.5" rx="1" ry="1"/>
<ellipse fill="#E1E2E6" cx="22.2" cy="69.3" rx="1" ry="1"/>
<g>
	<path fill="none" stroke="#4285F4" stroke-width="2.2053" stroke-miterlimit="10" d="M16.8,55.3l24.7,0c3.8,0,7,3.1,7,7v0
		c0,3.8-3.1,7-7,7l-30.8,0.3c-3.8,0-7,3.1-7,7v0c0,3.8,3.1,7,7,7h62.1"/>
	
		<linearGradient id="SVGID_3_" gradientUnits="userSpaceOnUse" x1="-1250.7458" y1="83.4567" x2="-1237.5474" y2="83.4567" gradientTransform="matrix(1.0527 0 0 1 1378.8683 0)">
		<stop  offset="0" style="stop-color:#4D83EF;stop-opacity:0"/>
		<stop  offset="1" style="stop-color:#1A73E8;stop-opacity:0.5"/>
	</linearGradient>
	<rect x="59" y="82.4" opacity="0.5" fill="url(#SVGID_3_)" width="13.9" height="2.2"/>
	<path fill="#34A853" d="M16.8,17.2c-7.5,0-13.5,6.1-13.5,13.5c0,2.5,0.7,4.9,1.9,7l0,0l11.6,18.7l11.1-17.9
		c1.5-2.2,2.5-4.9,2.5-7.8C30.4,23.3,24.3,17.2,16.8,17.2z"/>
	<linearGradient id="SVGID_4_" gradientUnits="userSpaceOnUse" x1="-2.7453" y1="54.4406" x2="18.776" y2="31.6825">
		<stop  offset="0.4" style="stop-color:#1E8E3E"/>
		<stop  offset="1" style="stop-color:#53A659;stop-opacity:0"/>
	</linearGradient>
	<path opacity="0.5" fill="url(#SVGID_4_)" d="M30.4,30.8c0-7.5-6.1-13.5-13.5-13.5S3.3,23.3,3.3,30.8c0,2.5,0.7,4.9,1.9,7l0,0
		l11.6,18.7l11-17.9C29.4,36.4,30.4,33.7,30.4,30.8z"/>
	
		<ellipse transform="matrix(0.1602 -0.9871 0.9871 0.1602 -16.2306 42.4332)" fill="#FFFFFF" cx="16.8" cy="30.8" rx="5.2" ry="5.2"/>
	<path fill="#EA4335" d="M95.9,40.9c0-12.7-10.3-23-23-23c-12.7,0-23,10.3-23,23c0,4.3,1.2,8.3,3.3,11.8l0,0l19.7,31.8l18.7-30.3
		C94.3,50.4,95.9,45.9,95.9,40.9z"/>
	<linearGradient id="SVGID_5_" gradientUnits="userSpaceOnUse" x1="50.4709" y1="64.6007" x2="71.6378" y2="49.6137">
		<stop  offset="0.4" style="stop-color:#D93025"/>
		<stop  offset="1" style="stop-color:#DC4F3A;stop-opacity:0"/>
	</linearGradient>
	<path opacity="0.5" fill="url(#SVGID_5_)" d="M72.9,18c-12.7,0-23,10.3-23,23c0,4.3,1.2,8.3,3.3,11.8l0,0l19.7,31.8l18.7-30.3
		c2.7-3.8,4.2-8.3,4.2-13.3C95.9,28.3,85.6,18,72.9,18z"/>
	<g>
		<path fill="#FFFFFF" d="M72.9,50.8c-5.5,0-9.9-4.4-9.9-9.9s4.4-9.9,9.9-9.9s9.9,4.4,9.9,9.9S78.4,50.8,72.9,50.8z M72.9,33.3
			c-4.2,0-7.6,3.4-7.6,7.6s3.4,7.6,7.6,7.6s7.6-3.4,7.6-7.6S77.1,33.3,72.9,33.3z"/>
	</g>
</g>
<path fill="#FFFFFF" d="M29.6,79.4c-3.6,0-6.9-2-8.7-5.1c-1.8-3.1-1.8-7,0.1-10.1c1.8-3.1,5.2-5,8.8-5h0.1c5.5,0.1,9.9,4.6,9.9,10.2
	c0,5.5-4.5,10-10,10.1L29.6,79.4z"/>
<ellipse fill="#E1E2E6" cx="29.8" cy="61.8" rx="1" ry="1"/>
<linearGradient id="SVGID_6_" gradientUnits="userSpaceOnUse" x1="-323.9879" y1="625.3997" x2="-324.647" y2="624.8228" gradientTransform="matrix(17.316 0 0 -15.4341 5648.7163 9714.7812)">
	<stop  offset="0" style="stop-color:#E1E2E6"/>
	<stop  offset="1" style="stop-color:#FFFFFF"/>
</linearGradient>
<path fill="url(#SVGID_6_)" d="M28.7,61.5c3.3,0,6.3,1.8,8,4.7c1.6,2.9,1.7,6.4,0,9.2c2.3-2.7,2.9-6.4,1.6-9.7
	c-1.4-3.3-4.4-5.5-8-5.7s-6.9,1.6-8.6,4.6l0.1-0.1C23.6,62.6,26.1,61.5,28.7,61.5L28.7,61.5z"/>
<path id="Shape" fill="#FBBC05" d="M29.7,60L29.7,60c5.2,0,9.4,4.2,9.3,9.4c0,5.1-4.2,9.3-9.3,9.3h-0.1c-5.1-0.1-9.1-4.3-9.1-9.4
	C20.6,64.2,24.6,60,29.7,60L29.7,60z M29.7,58.4L29.7,58.4c-6,0.1-10.8,4.9-10.8,10.9s4.7,10.9,10.7,11h0.1
	c6-0.1,10.8-4.9,10.8-10.9c0-6-4.7-10.9-10.7-11H29.7z"/>
<ellipse fill="#E1E2E6" cx="29.6" cy="76.9" rx="1" ry="1"/>
<path fill="#686C71" d="M29.7,63.4L29.7,63.4c-0.2,0-0.3,0.1-0.5,0.2c-0.1,0.1-0.2,0.3-0.2,0.5l0.1,5.8c0,0.2,0.1,0.3,0.2,0.5
	c0.1,0.1,0.3,0.2,0.5,0.2l0,0c0.2,0,0.3-0.1,0.5-0.2s0.2-0.3,0.2-0.5L30.4,64C30.4,63.6,30.1,63.4,29.7,63.4L29.7,63.4z"/>
<path fill="#686C71" d="M35.7,67.5L35.7,67.5c-0.1-0.3-0.5-0.5-0.8-0.4l-5.2,2c-0.3,0.1-0.5,0.5-0.4,0.8l0,0
	c0.1,0.3,0.5,0.5,0.8,0.4l5.2-2.1C35.6,68.2,35.8,67.8,35.7,67.5z"/>
</svg>
