<?xml version="1.0" encoding="utf-8"?>
<!-- Generator: Adobe Illustrator 30.0.0, SVG Export Plug-In . SVG Version: 9.03 Build 0)  -->
<svg version="1.1" baseProfile="basic" id="Layer_1"
	 xmlns="http://www.w3.org/2000/svg" xmlns:xlink="http://www.w3.org/1999/xlink" x="0px" y="0px" width="220px" height="220px"
	 viewBox="0 0 220 220" xml:space="preserve">
<g>
	<g id="Container_00000098216086843574047710000017021094761358887088_">
		<path fill="#DDF0CE" d="M44.23,63.79h131.54c20.84,0,37.73,16.89,37.73,37.73v17.08c0,20.84-16.89,37.73-37.73,37.73H44.23
			c-20.84,0-37.73-16.89-37.73-37.73v-17.08C6.5,80.68,23.39,63.79,44.23,63.79z"/>
	</g>
	<g id="Island_00000070091517500624779280000014709813728547199879_">
		<g>
			<g>
				<path d="M156.79,125.66l-3.5,0.67c-1.27-1-2.89-1.81-4.84-2.36l-33.1-9.49c-9.72-2.79-24.04,1.63-31.99,9.87L68.33,139.5
					c-1.16,1.2-2.12,2.42-2.88,3.63l-2.22,0.42v5.73c-0.04,0.53-0.04,1.06,0,1.57v0l0,0c0.33,3.91,3.15,7.12,8.3,8.59l33.1,9.49
					c9.72,2.79,24.04-1.63,31.99-9.87l15.04-15.16c3.52-3.65,5.2-7.43,5.14-10.76h0L156.79,125.66L156.79,125.66z"/>
				<path fill="#DEE200" d="M111.02,158.47c-1.99,0-3.82-0.24-5.44-0.7l-33.1-9.49c-3.94-1.13-5.24-3.14-5.64-4.63
					c-0.33-1.22-0.21-2.6,0.34-4.1c0.65-1.78,1.91-3.66,3.63-5.46l15.04-15.16l0.02-0.02c2.74-2.84,6.43-5.26,10.67-7.01
					c4.11-1.69,8.52-2.63,12.42-2.63c1.99,0,3.82,0.24,5.44,0.7l33.1,9.49c3.94,1.13,5.24,3.14,5.64,4.63
					c0.33,1.22,0.21,2.6-0.34,4.1c-0.65,1.78-1.91,3.66-3.63,5.46l-15.04,15.16l-0.02,0.02c-2.74,2.84-6.43,5.26-10.67,7.01
					C119.34,157.54,114.92,158.47,111.02,158.47L111.02,158.47z"/>
				<path fill="#005B5B" d="M154,133.26c0.08-0.12,0.17-0.24,0.25-0.36c0.02-0.04,0.05-0.07,0.07-0.11
					c0.07-0.11,0.14-0.22,0.21-0.33c0.02-0.04,0.04-0.07,0.07-0.11c0.07-0.12,0.14-0.23,0.21-0.35c0.02-0.03,0.03-0.05,0.05-0.08
					c0.08-0.14,0.16-0.28,0.23-0.41c0,0,0-0.01,0.01-0.01c0.25-0.45,0.47-0.9,0.66-1.35l0,0l0,0c2.58-5.97,0.29-11.45-6.44-13.75
					l0,0l0,0c-0.14-0.05-0.28-0.09-0.42-0.14c-0.14-0.04-0.29-0.09-0.44-0.13l-32.1-9.21l0,0l-1-0.29c-0.23-0.07-0.46-0.13-0.7-0.18
					c-0.04-0.01-0.07-0.02-0.11-0.03c-0.24-0.06-0.47-0.11-0.71-0.16c-0.02,0-0.04-0.01-0.06-0.01c-6.97-1.39-15.83,0.51-23.05,4.62
					l0,0c0,0,0,0,0,0c-0.19,0.11-0.37,0.21-0.55,0.32c-0.02,0.01-0.04,0.02-0.05,0.03c-0.17,0.1-0.34,0.21-0.51,0.31
					c-0.02,0.01-0.03,0.02-0.05,0.03c-0.75,0.46-1.48,0.95-2.18,1.46l0,0c-0.17,0.13-0.34,0.25-0.51,0.38
					c-0.01,0.01-0.02,0.01-0.02,0.02c-0.17,0.13-0.34,0.26-0.5,0.39c0,0,0,0,0,0l0,0c-1.06,0.84-2.06,1.73-2.97,2.67l-15.04,15.16
					c-1.52,1.57-2.7,3.17-3.54,4.75c-0.01,0.01-0.01,0.03-0.02,0.04c-0.07,0.13-0.13,0.26-0.2,0.38c-0.02,0.03-0.03,0.07-0.05,0.1
					c-0.05,0.11-0.11,0.22-0.16,0.33c-0.02,0.04-0.04,0.08-0.05,0.12c-0.05,0.11-0.1,0.22-0.14,0.33c-0.01,0.04-0.03,0.07-0.04,0.1
					c-0.06,0.14-0.12,0.29-0.17,0.43l0,0l0,0c-1.93,5.15-0.2,9.84,4.89,12.35c0.01,0.01,0.02,0.01,0.03,0.02
					c0.1,0.05,0.2,0.1,0.3,0.14c0.02,0.01,0.04,0.02,0.07,0.03c0.09,0.04,0.19,0.08,0.28,0.13c0.03,0.01,0.07,0.03,0.1,0.04
					c0.09,0.04,0.18,0.07,0.27,0.11c0.04,0.02,0.09,0.04,0.13,0.05c0.08,0.03,0.16,0.06,0.25,0.09c0.06,0.02,0.12,0.04,0.18,0.06
					c0.07,0.03,0.15,0.05,0.22,0.08c0.08,0.03,0.16,0.05,0.24,0.08c0.06,0.02,0.12,0.04,0.17,0.06c0.14,0.04,0.28,0.09,0.43,0.13
					l33.1,9.49c6.91,1.98,16.14,0.32,23.76-3.76l0,0c0,0,0,0,0,0c0.8-0.43,1.58-0.88,2.34-1.36c0.01-0.01,0.03-0.02,0.04-0.03
					c0.17-0.1,0.33-0.21,0.49-0.32c0.03-0.02,0.06-0.04,0.09-0.06c0.15-0.1,0.31-0.2,0.46-0.31c0.03-0.02,0.06-0.04,0.09-0.06
					c0.36-0.25,0.71-0.5,1.06-0.76c0,0,0,0,0,0l0,0c1.32-0.99,2.55-2.06,3.66-3.2l15.04-15.16c0.74-0.77,1.4-1.54,1.98-2.31l0,0
					c0.11-0.15,0.22-0.29,0.32-0.44C153.96,133.31,153.98,133.29,154,133.26L154,133.26z M147.5,119.46
					c3.94,1.13,5.24,3.14,5.64,4.63c0.33,1.22,0.21,2.6-0.34,4.1c-0.12,0.32-0.25,0.64-0.4,0.96l-12.09-3.58l6.26-6.37L147.5,119.46
					L147.5,119.46z M114.4,109.97l28.23,8.1l-6.23,6.34l-28.84-8.55l6-6.11C113.85,109.83,114.13,109.89,114.4,109.97L114.4,109.97z
					 M104.04,157.33L74.99,149l5.69-5.79l28.84,8.55L104.04,157.33L104.04,157.33z M83.92,139.92l20.41-20.76l28.84,8.55
					l-20.41,20.76L83.92,139.92L83.92,139.92z M96.53,111.9c4.11-1.69,8.52-2.63,12.42-2.63c0.01,0,0.02,0,0.04,0l-5.34,5.44
					l-8.08-2.39C95.89,112.17,96.21,112.03,96.53,111.9z M85.84,118.93l0.02-0.02c1.34-1.39,2.91-2.68,4.67-3.84l9.89,2.93
					l-20.41,20.76l-10.55-3.13c0.41-0.52,0.86-1.03,1.35-1.54L85.84,118.93L85.84,118.93z M66.84,143.65
					c-0.33-1.22-0.21-2.6,0.34-4.1c0.04-0.1,0.08-0.2,0.12-0.31l9.48,2.81l-5.67,5.76C68.22,146.65,67.18,144.95,66.84,143.65z
					 M111.02,158.47c-1,0-1.97-0.06-2.88-0.18l5.29-5.38l9.97,2.95C119.3,157.55,114.91,158.47,111.02,158.47L111.02,158.47z
					 M149.17,133.65l-15.04,15.16l-0.02,0.02c-1.54,1.59-3.38,3.06-5.45,4.34l-12.01-3.56l20.41-20.76l12.96,3.84
					C149.76,133.02,149.47,133.34,149.17,133.65L149.17,133.65z"/>
			</g>
			<g>
				<path fill-rule="evenodd" clip-rule="evenodd" d="M75.73,117.09c0.14,0.38,0.69,0.36,0.8-0.03c0.72-2.39,2.62-5.94,2.62-5.94
					c3.82,6.84,2.04,14.73,0.57,18.96c0.17,0.2,0.33,0.41,0.49,0.65c0,0,1.66-1.54,1.9-3.54c0.04-0.31,0.4-0.46,0.65-0.27
					c0.54,0.43,1.21,1.2,1.16,2.38c3.84-12.98-3.12-20.45-3.12-20.45l6.59-1.61c0.52-0.13,0.75-0.73,0.46-1.18
					c-2.71-4.09-7.36-1.06-7.36-1.06c0.11-2.3,1.28-5.22,2.25-7.28c0.47-1-0.67-1.97-1.59-1.36c-3.77,2.56-4.7,7.78-4.7,7.78
					c-4.92-5.26-9.07-2.67-10.97-0.86c-0.49,0.46-0.21,1.29,0.46,1.36c4.91,0.57,8.01,2.69,8.01,2.69
					c-4.21,0.26-5.87,3.41-6.53,5.83c-0.26,0.96,0.81,1.73,1.64,1.18c3.13-2.08,7.01-3.58,7.01-3.58
					C74.44,112.77,75.13,115.53,75.73,117.09L75.73,117.09z"/>
				
					<linearGradient id="SVGID_1_" gradientUnits="userSpaceOnUse" x1="82.1557" y1="-741.0453" x2="81.5905" y2="-755.1055" gradientTransform="matrix(1 0 0 1 0 880)">
					<stop  offset="0.29" style="stop-color:#E37400;stop-opacity:0"/>
					<stop  offset="0.33" style="stop-color:#E37400;stop-opacity:0.02"/>
					<stop  offset="0.38" style="stop-color:#E47700;stop-opacity:0.1"/>
					<stop  offset="0.45" style="stop-color:#E67B00;stop-opacity:0.21"/>
					<stop  offset="0.52" style="stop-color:#E88100;stop-opacity:0.37"/>
					<stop  offset="0.59" style="stop-color:#EB8900;stop-opacity:0.58"/>
					<stop  offset="0.67" style="stop-color:#EF9200;stop-opacity:0.83"/>
					<stop  offset="0.71" style="stop-color:#F29900"/>
				</linearGradient>
				<path fill-rule="evenodd" clip-rule="evenodd" fill="url(#SVGID_1_)" d="M77.38,133.63c-0.23-1.01-0.9-3.3-2.58-4.99
					c-0.22-0.23-0.08-0.61,0.24-0.64c1.16-0.1,3.39,0.11,5.17,2.73c0,0,1.66-1.54,1.9-3.54c0.04-0.31,0.4-0.46,0.65-0.27
					c0.62,0.5,1.44,1.47,1.07,2.98c0,0,2.28-2.07,4.56-2.1c0.34-0.01,0.5,0.42,0.24,0.64c-1.17,1-3.56,3.24-4.39,5.44
					c-0.1,0.27-0.36,0.45-0.66,0.44l-5.57-0.18C77.71,134.15,77.45,133.93,77.38,133.63L77.38,133.63z"/>
				<g>
					<circle fill="#F29900" cx="81.08" cy="108.67" r="1.51"/>
					<circle fill="#FBBC04" cx="78.13" cy="111.58" r="1.51"/>
				</g>
			</g>
		</g>
	</g>
	<g id="Plus_Code_00000031916764683756527360000004078921459956185238_">
		<path fill="#4285F4" d="M139.96,50.22H84.78c-4.54,0-8.23,3.68-8.23,8.23v16.21c0,4.54,3.68,8.23,8.23,8.23h20.24
			c2.18,0,2.82,0.98,3.29,1.8c0.46,0.82,1.18,2.04,2.07,3.65c0.48,0.86,0.83,1.36,1.15,1.64c0.05,0.04,0.11,0.09,0.16,0.12
			c0.02,0.01,0.04,0.02,0.06,0.03c0.01,0,0.01,0.01,0.02,0.01c0.11,0.06,0.21,0.1,0.33,0.12c0.01,0,0.01,0,0.02,0
			c0.03,0.01,0.05,0.01,0.08,0.01c0.02,0,0.04,0,0.07,0.01c0.02,0,0.05,0,0.07,0c0.01,0,0.01,0,0.02,0c0.01,0,0.01,0,0.02,0
			s0.01,0,0.02,0c0.01,0,0.01,0,0.02,0c0.02,0,0.05,0,0.07,0c0.02,0,0.04,0,0.07-0.01c0.03,0,0.05-0.01,0.08-0.01
			c0.01,0,0.01,0,0.02,0c0.11-0.02,0.22-0.06,0.33-0.12c0.01,0,0.01-0.01,0.02-0.01c0.02-0.01,0.04-0.02,0.06-0.03
			c0.06-0.04,0.11-0.08,0.16-0.12c0.32-0.28,0.67-0.78,1.15-1.64c0.89-1.61,1.61-2.82,2.07-3.65c0.46-0.82,1.11-1.8,3.29-1.8h20.24
			c4.54,0,8.23-3.68,8.23-8.23V58.44C148.19,53.9,144.51,50.22,139.96,50.22L139.96,50.22z"/>
		<g>
			<path fill="#FFFFFF" d="M82.75,62.26h1.46l1.91,5.66l0.31,0.97h0.07l0.31-0.97l2-5.66h1.47l-3.12,8.57h-1.4L82.75,62.26
				L82.75,62.26z"/>
			<path fill="#FFFFFF" d="M91.43,70.39l3.78-6.78l-0.02-0.04h-4.14v-1.3h5.68v1.38l-4.11,7.39L91.43,70.39L91.43,70.39z"/>
			<path fill="#FFFFFF" d="M99.14,70.77c-0.41-0.17-0.77-0.43-1.08-0.78c-0.31-0.35-0.53-0.77-0.65-1.28l1.24-0.49
				c0.11,0.45,0.31,0.81,0.61,1.09c0.3,0.28,0.66,0.41,1.09,0.41c0.48,0,0.87-0.15,1.17-0.44c0.31-0.3,0.46-0.68,0.46-1.15
				s-0.15-0.85-0.45-1.16c-0.3-0.31-0.69-0.46-1.16-0.46c-0.28,0-0.53,0.06-0.75,0.18c-0.22,0.12-0.42,0.28-0.58,0.49l-1.36-0.6
				l0.53-4.32h4.64v1.25h-3.5l-0.31,2.25l0.07,0.01c0.43-0.34,0.94-0.51,1.53-0.51c0.48,0,0.94,0.12,1.36,0.36
				c0.42,0.24,0.76,0.58,1.01,1.01c0.25,0.43,0.38,0.93,0.38,1.48s-0.13,1.05-0.39,1.49c-0.26,0.44-0.62,0.79-1.07,1.04
				c-0.45,0.25-0.97,0.38-1.53,0.38C99.96,71.03,99.54,70.94,99.14,70.77L99.14,70.77z"/>
			<path fill="#FFFFFF" d="M104.04,62.26h1.46l1.91,5.66l0.31,0.97h0.07l0.31-0.97l2-5.66h1.47l-3.12,8.57h-1.4L104.04,62.26
				L104.04,62.26z"/>
			<path fill="#FFFFFF" d="M117.82,67.3h-2.11v2.11h-1.14V67.3h-2.11v-1.12h2.11v-2.11h1.14v2.11h2.11L117.82,67.3L117.82,67.3z"/>
			<path fill="#FFFFFF" d="M120.94,70.69c-0.45-0.22-0.81-0.54-1.07-0.93c-0.26-0.4-0.39-0.83-0.39-1.31s0.13-0.88,0.38-1.24
				c0.25-0.36,0.58-0.64,0.98-0.84v-0.07c-0.32-0.21-0.57-0.47-0.77-0.78c-0.2-0.31-0.3-0.65-0.3-1.02c0-0.45,0.11-0.86,0.34-1.23
				c0.23-0.37,0.55-0.66,0.96-0.87c0.41-0.21,0.88-0.31,1.39-0.31c0.52,0,0.98,0.1,1.39,0.31s0.74,0.5,0.97,0.87
				c0.23,0.37,0.35,0.78,0.35,1.23c0,0.37-0.1,0.71-0.3,1.02c-0.2,0.31-0.46,0.57-0.77,0.78v0.07c0.4,0.2,0.73,0.48,0.98,0.84
				c0.25,0.36,0.38,0.78,0.38,1.24c0,0.47-0.13,0.91-0.39,1.31c-0.26,0.4-0.62,0.71-1.08,0.93c-0.46,0.22-0.97,0.34-1.54,0.34
				S121.4,70.91,120.94,70.69L120.94,70.69z M123.63,69.34c0.3-0.25,0.46-0.59,0.46-0.99s-0.15-0.73-0.46-0.99
				c-0.31-0.26-0.69-0.39-1.15-0.39c-0.46,0-0.83,0.13-1.14,0.39c-0.31,0.26-0.46,0.59-0.46,0.99c0,0.4,0.15,0.74,0.46,0.99
				c0.3,0.25,0.69,0.38,1.14,0.38C122.93,69.72,123.32,69.6,123.63,69.34L123.63,69.34z M123.44,65.4c0.25-0.22,0.38-0.51,0.38-0.88
				s-0.13-0.64-0.38-0.86c-0.25-0.21-0.58-0.32-0.97-0.32s-0.7,0.11-0.96,0.32c-0.25,0.21-0.38,0.5-0.38,0.86s0.13,0.65,0.38,0.88
				c0.25,0.22,0.57,0.34,0.96,0.34S123.18,65.63,123.44,65.4L123.44,65.4z"/>
			<path fill="#FFFFFF" d="M132.8,70.58c-0.61,0.3-1.27,0.44-1.97,0.44c-0.83,0-1.58-0.2-2.26-0.59c-0.67-0.39-1.21-0.94-1.59-1.62
				c-0.39-0.69-0.58-1.44-0.58-2.26s0.19-1.57,0.58-2.26c0.39-0.68,0.92-1.22,1.59-1.62c0.67-0.4,1.43-0.6,2.26-0.6
				s1.58,0.2,2.26,0.6c0.68,0.4,1.21,0.94,1.6,1.62c0.39,0.68,0.58,1.43,0.58,2.25c0,0.66-0.13,1.28-0.38,1.86
				c-0.26,0.58-0.61,1.07-1.08,1.49l0.63,0.94l-1.02,0.68L132.8,70.58L132.8,70.58z M132.06,69.49l-0.98-1.46l1.03-0.69l0.96,1.46
				c0.27-0.28,0.48-0.61,0.63-0.99c0.15-0.38,0.22-0.8,0.22-1.26c0-0.62-0.14-1.18-0.41-1.66s-0.65-0.86-1.12-1.13
				c-0.47-0.27-0.99-0.41-1.56-0.41c-0.57,0-1.08,0.14-1.55,0.41c-0.47,0.27-0.84,0.65-1.11,1.13c-0.28,0.48-0.41,1.04-0.41,1.66
				c0,0.62,0.14,1.18,0.41,1.66c0.28,0.48,0.65,0.86,1.11,1.13c0.47,0.27,0.98,0.41,1.55,0.41
				C131.25,69.74,131.66,69.66,132.06,69.49L132.06,69.49z"/>
			<path fill="#FFFFFF" d="M137.27,70.47c-0.55-0.37-0.93-0.92-1.14-1.63l1.28-0.53c0.12,0.44,0.32,0.78,0.61,1.03
				c0.29,0.24,0.64,0.36,1.04,0.36s0.77-0.13,1.08-0.38c0.3-0.25,0.45-0.58,0.45-0.97s-0.16-0.73-0.48-0.98
				c-0.32-0.25-0.71-0.38-1.19-0.38h-0.74v-1.26h0.66c0.41,0,0.75-0.11,1.03-0.33c0.28-0.22,0.42-0.52,0.42-0.91
				c0-0.34-0.13-0.61-0.37-0.82c-0.25-0.2-0.57-0.31-0.95-0.31c-0.38,0-0.67,0.1-0.89,0.3c-0.22,0.2-0.38,0.45-0.48,0.74l-1.26-0.53
				c0.17-0.48,0.48-0.89,0.92-1.26c0.45-0.36,1.03-0.54,1.73-0.54c0.52,0,0.98,0.1,1.39,0.3s0.74,0.48,0.97,0.83
				c0.23,0.35,0.35,0.75,0.35,1.19c0,0.44-0.11,0.83-0.33,1.14c-0.22,0.31-0.48,0.55-0.8,0.72v0.07c0.42,0.18,0.76,0.44,1.03,0.8
				c0.27,0.36,0.4,0.79,0.4,1.29s-0.13,0.95-0.38,1.34c-0.25,0.39-0.61,0.7-1.06,0.93s-0.95,0.34-1.5,0.34
				C138.42,71.03,137.82,70.84,137.27,70.47L137.27,70.47z"/>
		</g>
	</g>
	<g id="House_00000104688704031059028800000017285319887588121743_">
		<g>
			<polygon fill="#9FD5FF" points="113.97,120.77 118.75,121.62 118.75,141.22 91.61,133.49 91.61,115.14 93.95,107.63 93.95,98.22 
				123.97,102.18 123.97,114.47 			"/>
			<path fill="#4667F4" d="M106.34,125.95v11.82l-5.87-1.7V124.6c0-0.37,0.36-0.64,0.72-0.54l4.74,1.35
				C106.18,125.47,106.34,125.69,106.34,125.95L106.34,125.95z"/>
			<polygon fill="#ABABAB" points="91.61,132.95 96.02,137.46 116.03,143.38 118.75,140.68 			"/>
			<path d="M117.77,141.65v-3.61l0.32-0.32c0.05-0.05,0.07-0.11,0.07-0.17v-0.01c0-0.19-0.24-0.29-0.37-0.16l-2.37,2.33v0.66
				l0.48-0.48v3.44l-19.88-5.87V138l19.98,5.95l2.74-2.73v-0.54L117.77,141.65L117.77,141.65z M117.23,138.57v3.61l-0.79,0.79v-3.61
				L117.23,138.57z"/>
			<polygon fill="#4667F4" points="110.15,137.44 107.25,140.34 107.25,145.29 112.53,146.68 112.53,141.73 115.42,138.83 			"/>
			<polygon fill="#15173D" points="112.53,146.68 115.42,143.75 115.42,138.83 112.53,141.73 			"/>
			<path fill="#BCE9FF" d="M105.13,127.52v4.24c0,0.25-0.24,0.43-0.47,0.36l-2.7-0.78c-0.16-0.05-0.27-0.19-0.27-0.36v-4.23
				c0-0.25,0.24-0.42,0.47-0.36l2.7,0.77C105.02,127.21,105.13,127.36,105.13,127.52L105.13,127.52z"/>
			<ellipse fill="#DEF5FF" cx="111.43" cy="138.78" rx="2.82" ry="2.12"/>
			<path fill="#F3FCFF" d="M111.43,124.29c-1.34,0-2.43,3.28-2.43,7.33c0,0.89,0.05,1.74,0.15,2.52c0.14,1.16,0.38,2.18,0.68,2.98
				c0.45,0.24,1.01,0.38,1.6,0.38s1.15-0.14,1.6-0.38c0.3-0.8,0.54-1.82,0.68-2.98c0.1-0.79,0.15-1.64,0.15-2.52
				C113.85,127.57,112.76,124.29,111.43,124.29L111.43,124.29z"/>
			<ellipse fill="#DEF5FF" cx="111.43" cy="124.45" rx="2.82" ry="2.12"/>
			<g>
				<polygon fill="#4667F4" points="90.75,131.68 87.85,134.58 93.12,135.97 96.02,133.07 				"/>
				<polygon fill="#4667F4" points="87.85,139.54 93.12,140.93 93.12,135.98 87.85,134.59 				"/>
			</g>
			<polygon fill="#15173D" points="93.12,140.93 96.02,138 96.02,133.07 93.12,135.98 			"/>
			<ellipse fill="#DEF5FF" cx="92.02" cy="132.95" rx="2.82" ry="2.12"/>
			<path fill="#F3FCFF" d="M92.02,118.46c-1.34,0-2.43,3.28-2.43,7.33c0,0.89,0.05,1.74,0.15,2.52c0.14,1.16,0.38,2.18,0.68,2.98
				c0.45,0.24,1.01,0.38,1.6,0.38s1.15-0.14,1.6-0.38c0.3-0.8,0.54-1.82,0.68-2.98c0.1-0.79,0.15-1.64,0.15-2.52
				C94.45,121.74,93.36,118.46,92.02,118.46L92.02,118.46z"/>
			<ellipse fill="#DEF5FF" cx="92.02" cy="118.62" rx="2.82" ry="2.12"/>
			<path fill="#4667F4" d="M119.15,108.03c-0.24,0-0.47-0.1-0.64-0.3l-3.71-4.41c-0.3-0.35-0.25-0.88,0.1-1.18
				c0.35-0.3,0.88-0.25,1.18,0.1l3.71,4.41c0.3,0.35,0.25,0.88-0.1,1.18C119.53,107.96,119.34,108.03,119.15,108.03L119.15,108.03z"
				/>
			<path fill="#4667F4" d="M112.37,106.18c-0.24,0-0.47-0.1-0.64-0.3l-3.71-4.41c-0.3-0.35-0.25-0.88,0.1-1.18
				c0.35-0.3,0.88-0.25,1.18,0.1l3.71,4.41c0.3,0.35,0.25,0.88-0.1,1.18C112.75,106.11,112.56,106.18,112.37,106.18L112.37,106.18z"
				/>
			<path fill="#4667F4" d="M105.59,104.39c-0.24,0-0.47-0.1-0.64-0.3l-3.71-4.41c-0.3-0.35-0.25-0.88,0.1-1.18
				c0.35-0.3,0.88-0.25,1.18,0.1l3.71,4.41c0.3,0.35,0.25,0.88-0.1,1.18C105.97,104.33,105.78,104.39,105.59,104.39L105.59,104.39z"
				/>
			<path fill="#4667F4" d="M98.82,102.13c-0.24,0-0.47-0.1-0.64-0.3l-3.71-4.41c-0.3-0.35-0.25-0.88,0.1-1.18
				c0.35-0.3,0.88-0.25,1.18,0.1l3.71,4.41c0.3,0.35,0.25,0.88-0.1,1.18C99.2,102.07,99,102.13,98.82,102.13L98.82,102.13z"/>
			
				<linearGradient id="SVGID_00000124156661490511855130000004423340096016375988_" gradientUnits="userSpaceOnUse" x1="92.8165" y1="2446.5364" x2="96.307" y2="2444.5066" gradientTransform="matrix(1 0 0 -1 0 2538)">
				<stop  offset="0.08" style="stop-color:#4667F4"/>
				<stop  offset="0.69" style="stop-color:#15173D"/>
			</linearGradient>
			<path fill="url(#SVGID_00000124156661490511855130000004423340096016375988_)" d="M98.02,88.1c-0.67-0.21-1.38,0.04-1.72,0.62
				c-1.37,2.18-2.55,4.36-3.95,6.52c-0.57,0.87-0.47,1.74,0.06,2.42l5.73-9.52L98.02,88.1L98.02,88.1z"/>
			
				<linearGradient id="SVGID_00000181802832315577601330000013120358617091127205_" gradientUnits="userSpaceOnUse" x1="95.1971" y1="2445.5027" x2="98.8403" y2="2443.3655" gradientTransform="matrix(1 0 0 -1 0 2538)">
				<stop  offset="0.08" style="stop-color:#4667F4"/>
				<stop  offset="0.7" style="stop-color:#15173D"/>
			</linearGradient>
			<path fill="url(#SVGID_00000181802832315577601330000013120358617091127205_)" d="M98.15,88.14l-5.73,9.52
				c0.34,0.43,0.86,0.78,1.5,1c0.45,0.15,0.91,0.21,1.32,0.17l5.92-9.84L98.15,88.14L98.15,88.14z"/>
			
				<linearGradient id="SVGID_00000077305679481595496640000007104327791776350111_" gradientUnits="userSpaceOnUse" x1="98.1044" y1="2444.5745" x2="101.9531" y2="2442.3792" gradientTransform="matrix(1 0 0 -1 0 2538)">
				<stop  offset="0.08" style="stop-color:#4667F4"/>
				<stop  offset="0.69" style="stop-color:#15173D"/>
			</linearGradient>
			<path fill="url(#SVGID_00000077305679481595496640000007104327791776350111_)" d="M101.16,88.99l-5.92,9.84
				c0.24-0.02,0.46-0.06,0.66-0.14c0.49-0.18,1.05-0.02,1.42,0.4c0.23,0.27,0.53,0.51,0.87,0.7l5.98-9.95L101.16,88.99L101.16,88.99
				z"/>
			
				<linearGradient id="SVGID_00000152986954597800161520000014599305643727132590_" gradientUnits="userSpaceOnUse" x1="101.0248" y1="2443.7166" x2="105.1883" y2="2441.2993" gradientTransform="matrix(1 0 0 -1 0 2538)">
				<stop  offset="0.08" style="stop-color:#4667F4"/>
				<stop  offset="0.67" style="stop-color:#15173D"/>
			</linearGradient>
			<path fill="url(#SVGID_00000152986954597800161520000014599305643727132590_)" d="M104.17,89.85l-5.98,9.95
				c0.19,0.11,0.41,0.21,0.63,0.28c0.72,0.24,1.42,0.24,1.97,0.04c0.24-0.09,0.5-0.09,0.75-0.03l5.65-9.38L104.17,89.85
				L104.17,89.85z"/>
			
				<linearGradient id="SVGID_00000013875470331555899210000001099904679296964259_" gradientUnits="userSpaceOnUse" x1="104.2643" y1="2443.0527" x2="108.0821" y2="2440.7429" gradientTransform="matrix(1 0 0 -1 0 2538)">
				<stop  offset="0.08" style="stop-color:#4667F4"/>
				<stop  offset="0.69" style="stop-color:#15173D"/>
			</linearGradient>
			<path fill="url(#SVGID_00000013875470331555899210000001099904679296964259_)" d="M107.18,90.7l-5.65,9.38
				c0.25,0.07,0.49,0.21,0.67,0.42c0.36,0.42,0.88,0.77,1.5,0.98c0.15,0.05,0.29,0.09,0.44,0.12l6.05-10.05L107.18,90.7z"/>
			
				<linearGradient id="SVGID_00000108270212859897384570000003200469115451974531_" gradientUnits="userSpaceOnUse" x1="107.051" y1="2441.9546" x2="111.1017" y2="2439.5608" gradientTransform="matrix(1 0 0 -1 0 2538)">
				<stop  offset="0.08" style="stop-color:#4667F4"/>
				<stop  offset="0.66" style="stop-color:#15173D"/>
			</linearGradient>
			<path fill="url(#SVGID_00000108270212859897384570000003200469115451974531_)" d="M110.19,91.55l-6.05,10.05
				c0.56,0.11,1.1,0.08,1.54-0.08c0.49-0.18,1.05-0.02,1.42,0.4c0.07,0.08,0.15,0.16,0.24,0.24l5.87-9.76L110.19,91.55L110.19,91.55
				z"/>
			
				<linearGradient id="SVGID_00000156569414678214866260000003634988855767496579_" gradientUnits="userSpaceOnUse" x1="110.2483" y1="2441.1648" x2="113.9734" y2="2438.9255" gradientTransform="matrix(1 0 0 -1 0 2538)">
				<stop  offset="0.08" style="stop-color:#4667F4"/>
				<stop  offset="0.69" style="stop-color:#15173D"/>
			</linearGradient>
			<path fill="url(#SVGID_00000156569414678214866260000003634988855767496579_)" d="M113.21,92.41l-5.87,9.76
				c0.34,0.31,0.77,0.57,1.27,0.74c0.62,0.21,1.24,0.23,1.75,0.11l5.87-9.75L113.21,92.41L113.21,92.41z"/>
			
				<linearGradient id="SVGID_00000072986715604792893120000015828914516173468585_" gradientUnits="userSpaceOnUse" x1="113.252" y1="2440.3167" x2="117.1699" y2="2438.0793" gradientTransform="matrix(1 0 0 -1 0 2538)">
				<stop  offset="0.08" style="stop-color:#4667F4"/>
				<stop  offset="0.66" style="stop-color:#15173D"/>
			</linearGradient>
			<path fill="url(#SVGID_00000072986715604792893120000015828914516173468585_)" d="M116.22,93.26l-5.87,9.75
				c0.08-0.02,0.15-0.04,0.22-0.07c0.49-0.18,1.05-0.02,1.42,0.4c0.3,0.34,0.7,0.64,1.17,0.85l6.07-10.08L116.22,93.26z"/>
			
				<linearGradient id="SVGID_00000093858433228512694630000004946293369704184720_" gradientUnits="userSpaceOnUse" x1="116.2397" y1="2439.2712" x2="120.0393" y2="2437.0613" gradientTransform="matrix(1 0 0 -1 0 2538)">
				<stop  offset="0.08" style="stop-color:#4667F4"/>
				<stop  offset="0.69" style="stop-color:#15173D"/>
			</linearGradient>
			<path fill="url(#SVGID_00000093858433228512694630000004946293369704184720_)" d="M119.23,94.11l-6.07,10.08
				c0.11,0.05,0.21,0.09,0.33,0.13c0.72,0.24,1.42,0.24,1.97,0.04c0.35-0.13,0.73-0.08,1.06,0.11l5.72-9.5L119.23,94.11
				L119.23,94.11z"/>
			
				<linearGradient id="SVGID_00000096777715531026047530000000371330448154400698_" gradientUnits="userSpaceOnUse" x1="119.3775" y1="2438.6096" x2="122.8934" y2="2436.5435" gradientTransform="matrix(1 0 0 -1 0 2538)">
				<stop  offset="0.08" style="stop-color:#4667F4"/>
				<stop  offset="0.73" style="stop-color:#15173D"/>
			</linearGradient>
			<path fill="url(#SVGID_00000096777715531026047530000000371330448154400698_)" d="M122.24,94.97l-5.72,9.5
				c0.13,0.07,0.25,0.17,0.36,0.29c0.36,0.42,0.88,0.77,1.5,0.98c0.27,0.09,0.54,0.15,0.8,0.17l6.07-10.09L122.24,94.97
				L122.24,94.97z"/>
			
				<linearGradient id="SVGID_00000018919232947949529170000006197573440711506614_" gradientUnits="userSpaceOnUse" x1="122.1127" y1="2437.6626" x2="125.5905" y2="2435.5999" gradientTransform="matrix(1 0 0 -1 0 2538)">
				<stop  offset="0.08" style="stop-color:#4667F4"/>
				<stop  offset="0.77" style="stop-color:#15173D"/>
			</linearGradient>
			<path fill="url(#SVGID_00000018919232947949529170000006197573440711506614_)" d="M125.25,95.82l-6.07,10.09
				c0.45,0.04,0.86-0.01,1.22-0.15c0.32-0.12,0.69-0.09,1.01,0.08c0.3,0.17,0.53,0.45,0.85,0.61c0.03,0.01,0.06,0.03,0.09,0.04
				l5.91-9.82c-0.03-0.01-0.05-0.02-0.07-0.03L125.25,95.82z"/>
			
				<linearGradient id="SVGID_00000025404582477052326910000015647292239952224675_" gradientUnits="userSpaceOnUse" x1="125.0578" y1="2436.5959" x2="127.4332" y2="2435.0588" gradientTransform="matrix(1 0 0 -1 0 2538)">
				<stop  offset="0.08" style="stop-color:#4667F4"/>
				<stop  offset="0.81" style="stop-color:#15173D"/>
			</linearGradient>
			<path fill="url(#SVGID_00000025404582477052326910000015647292239952224675_)" d="M123.71,106.42c0.32-0.5,5.03-6.25,5.03-6.25
				c0.28-0.32,0.45-0.75,0.45-1.19v-1.03c0.01-0.59-0.38-1.09-0.93-1.28l-5.91,9.82C122.78,106.69,123.38,106.78,123.71,106.42
				L123.71,106.42z"/>
			<path fill="#005B5B" d="M100.25,136.16l-1.44,1.28c-0.2,0.17-0.13,0.5,0.13,0.57l4.9,1.46c0.19,0.06,0.39,0.01,0.54-0.13
				l1.46-1.36c0.17-0.16,0.1-0.45-0.12-0.51l-4.94-1.43C100.59,135.99,100.4,136.03,100.25,136.16z"/>
			
				<linearGradient id="SVGID_00000140734335258887285810000017956215553314101387_" gradientUnits="userSpaceOnUse" x1="87.2565" y1="2429.1394" x2="91.0762" y2="2426.8457" gradientTransform="matrix(1 0 0 -1 0 2538)">
				<stop  offset="0.08" style="stop-color:#4667F4"/>
				<stop  offset="0.73" style="stop-color:#15173D"/>
			</linearGradient>
			<path fill="url(#SVGID_00000140734335258887285810000017956215553314101387_)" d="M93.66,103.92c-0.48-0.16-0.99-0.03-1.3,0.33
				l-7.07,11.48c-0.18,0.28-0.1,0.66,0.17,0.88c0.21,0.17,0.41,0.29,0.61,0.37l7.82-13L93.66,103.92L93.66,103.92z"/>
			
				<linearGradient id="SVGID_00000144332497364854295610000002670088964190524607_" gradientUnits="userSpaceOnUse" x1="89.6771" y1="2428.0874" x2="94.0078" y2="2425.6064" gradientTransform="matrix(1 0 0 -1 0 2538)">
				<stop  offset="0.08" style="stop-color:#4667F4"/>
				<stop  offset="0.67" style="stop-color:#15173D"/>
			</linearGradient>
			<path fill="url(#SVGID_00000144332497364854295610000002670088964190524607_)" d="M93.9,103.99l-7.82,13
				c1.12,0.47,2.08-0.14,2.08-0.14c0.45-0.17,0.97-0.04,1.33,0.31l7.38-12.27L93.9,103.99L93.9,103.99z"/>
			
				<linearGradient id="SVGID_00000086692224167498694900000002498329342161481883_" gradientUnits="userSpaceOnUse" x1="92.9065" y1="2427.3779" x2="96.7716" y2="2425.2134" gradientTransform="matrix(1 0 0 -1 0 2538)">
				<stop  offset="0.08" style="stop-color:#4667F4"/>
				<stop  offset="0.73" style="stop-color:#15173D"/>
			</linearGradient>
			<path fill="url(#SVGID_00000086692224167498694900000002498329342161481883_)" d="M96.87,104.9l-7.38,12.27
				c0.03,0.03,0.06,0.05,0.08,0.08c0.36,0.42,0.88,0.77,1.5,0.98c0.41,0.14,0.81,0.19,1.19,0.18l7.58-12.6L96.87,104.9L96.87,104.9z
				"/>
			
				<linearGradient id="SVGID_00000015352956193494837440000016388761326388081814_" gradientUnits="userSpaceOnUse" x1="95.9157" y1="2426.3394" x2="100.0318" y2="2424.0583" gradientTransform="matrix(1 0 0 -1 0 2538)">
				<stop  offset="0.08" style="stop-color:#4667F4"/>
				<stop  offset="0.67" style="stop-color:#15173D"/>
			</linearGradient>
			<path fill="url(#SVGID_00000015352956193494837440000016388761326388081814_)" d="M99.85,105.81l-7.58,12.6
				c0.28-0.01,0.55-0.06,0.78-0.14c0.49-0.18,1.06-0.02,1.42,0.4c0.21,0.24,0.48,0.46,0.78,0.65l7.58-12.59L99.85,105.81
				L99.85,105.81z"/>
			
				<linearGradient id="SVGID_00000069378083970075733910000014318184284502674089_" gradientUnits="userSpaceOnUse" x1="98.8796" y1="2425.4734" x2="102.8393" y2="2423.2051" gradientTransform="matrix(1 0 0 -1 0 2538)">
				<stop  offset="0.08" style="stop-color:#4667F4"/>
				<stop  offset="0.69" style="stop-color:#15173D"/>
			</linearGradient>
			<path fill="url(#SVGID_00000069378083970075733910000014318184284502674089_)" d="M102.83,106.72l-7.58,12.59
				c0.22,0.13,0.46,0.25,0.72,0.33c0.72,0.24,1.42,0.24,1.97,0.04c0.21-0.07,0.43-0.09,0.64-0.05l7.22-12L102.83,106.72
				L102.83,106.72z"/>
			
				<linearGradient id="SVGID_00000078755118681938970310000003330790037350867862_" gradientUnits="userSpaceOnUse" x1="101.9488" y1="2424.7349" x2="106.0195" y2="2422.5085" gradientTransform="matrix(1 0 0 -1 0 2538)">
				<stop  offset="0.08" style="stop-color:#4667F4"/>
				<stop  offset="0.69" style="stop-color:#15173D"/>
			</linearGradient>
			<path fill="url(#SVGID_00000078755118681938970310000003330790037350867862_)" d="M105.81,107.63l-7.22,12
				c0.29,0.05,0.57,0.2,0.78,0.45c0.36,0.42,0.88,0.77,1.5,0.98c0.11,0.04,0.22,0.07,0.33,0.09l7.59-12.61L105.81,107.63
				L105.81,107.63z"/>
			
				<linearGradient id="SVGID_00000099648532878186109380000014511030762528169384_" gradientUnits="userSpaceOnUse" x1="104.8341" y1="2423.6355" x2="109.1158" y2="2421.1853" gradientTransform="matrix(1 0 0 -1 0 2538)">
				<stop  offset="0.08" style="stop-color:#4667F4"/>
				<stop  offset="0.64" style="stop-color:#15173D"/>
			</linearGradient>
			<path fill="url(#SVGID_00000099648532878186109380000014511030762528169384_)" d="M108.78,108.54l-7.59,12.61
				c0.6,0.14,1.18,0.11,1.64-0.05c0.49-0.18,1.06-0.02,1.42,0.4c0.05,0.06,0.1,0.11,0.16,0.17l7.35-12.21L108.78,108.54
				L108.78,108.54z"/>
			
				<linearGradient id="SVGID_00000016760833125997144640000009213139225359403439_" gradientUnits="userSpaceOnUse" x1="107.8867" y1="2422.8596" x2="112.0664" y2="2420.5242" gradientTransform="matrix(1 0 0 -1 0 2538)">
				<stop  offset="0.08" style="stop-color:#4667F4"/>
				<stop  offset="0.68" style="stop-color:#15173D"/>
			</linearGradient>
			<path fill="url(#SVGID_00000016760833125997144640000009213139225359403439_)" d="M111.76,109.45l-7.35,12.21
				c0.35,0.35,0.81,0.63,1.34,0.81c0.57,0.19,1.13,0.23,1.61,0.13l7.37-12.25L111.76,109.45L111.76,109.45z"/>
			
				<linearGradient id="SVGID_00000039115777961390077590000011352269422144033694_" gradientUnits="userSpaceOnUse" x1="110.767" y1="2422.0706" x2="115.1796" y2="2419.5405" gradientTransform="matrix(1 0 0 -1 0 2538)">
				<stop  offset="0.08" style="stop-color:#4667F4"/>
				<stop  offset="0.66" style="stop-color:#15173D"/>
			</linearGradient>
			<path fill="url(#SVGID_00000039115777961390077590000011352269422144033694_)" d="M114.74,110.37l-7.37,12.25
				c0.13-0.02,0.25-0.05,0.36-0.1c0.49-0.18,1.06-0.02,1.42,0.4c0.28,0.32,0.64,0.6,1.08,0.81l7.49-12.45L114.74,110.37
				L114.74,110.37z"/>
			
				<linearGradient id="SVGID_00000045579353785417942100000006022894699461244827_" gradientUnits="userSpaceOnUse" x1="113.7358" y1="2421.0544" x2="118.1884" y2="2418.4426" gradientTransform="matrix(1 0 0 -1 0 2538)">
				<stop  offset="0.08" style="stop-color:#4667F4"/>
				<stop  offset="0.66" style="stop-color:#15173D"/>
			</linearGradient>
			<path fill="url(#SVGID_00000045579353785417942100000006022894699461244827_)" d="M117.71,111.28l-7.49,12.45
				c0.13,0.07,0.28,0.12,0.42,0.17c0.44,0.15,0.89,0.21,1.34,0.17c0.39-0.03,0.75-0.25,1.15-0.22c0.16,0.01,0.31,0.06,0.45,0.14
				l7.1-11.8L117.71,111.28L117.71,111.28z"/>
			
				<linearGradient id="SVGID_00000085953535929649297400000014923576324935071930_" gradientUnits="userSpaceOnUse" x1="116.7495" y1="2420.3484" x2="121.5022" y2="2417.8293" gradientTransform="matrix(1 0 0 -1 0 2538)">
				<stop  offset="0.08" style="stop-color:#4667F4"/>
				<stop  offset="0.65" style="stop-color:#15173D"/>
			</linearGradient>
			<path fill="url(#SVGID_00000085953535929649297400000014923576324935071930_)" d="M120.69,112.19l-7.1,11.8
				c0.16,0.08,0.31,0.19,0.44,0.31c0.61,0.51,1.87,1.37,2.54,0.59l7.08-11.76v-0.02L120.69,112.19z"/>
			<path fill="#47A1FB" d="M129.2,98.98v-1.03c0-0.12-0.01-0.24-0.05-0.36l-5.49,8.87v3.59l-8.32,13.9
				c-0.23,0.4-0.09,0.91,0.31,1.13c0.35,0.2,0.8,0.12,1.05-0.2l2.04-2.22v18.53l10.42-10.37L129.2,98.98L129.2,98.98L129.2,98.98z"
				/>
			<path fill="#15173D" d="M126.31,107.64l0.36-0.36c0.34-0.34,0.93-0.1,0.93,0.38v2.23c0,0.11-0.04,0.21-0.12,0.29l-1.68,1.67
				c-0.08,0.08-0.21,0.02-0.21-0.09v-2.4C125.6,108.72,125.86,108.1,126.31,107.64L126.31,107.64z"/>
		</g>
	</g>
</g>
</svg>
