<?xml version="1.0" encoding="utf-8"?>
<!-- Generator: Adobe Illustrator 30.0.0, SVG Export Plug-In . SVG Version: 9.03 Build 0)  -->
<svg version="1.1" baseProfile="basic" id="Layer_1"
	 xmlns="http://www.w3.org/2000/svg" xmlns:xlink="http://www.w3.org/1999/xlink" x="0px" y="0px" width="320px" height="150px"
	 viewBox="0 0 320 150" xml:space="preserve">
<g>
	<g id="BG__x26__Confetti_00000126282984197864144370000005881658178370321280_">
		<path fill="#4900C1" d="M170.65,7.87l0.87,1.2c2.5,3.45,7.23,4.39,10.86,2.16l1.27-0.78c4.72-2.9,10.9-0.34,12.19,5.05l0.35,1.45
			c0.99,4.14,5,6.82,9.21,6.15l1.47-0.23c5.47-0.87,10.2,3.85,9.33,9.33l-0.23,1.47c-0.67,4.21,2.01,8.22,6.15,9.21l1.45,0.35
			c5.39,1.29,7.95,7.46,5.05,12.19l-0.78,1.27c-2.23,3.63-1.29,8.36,2.16,10.86l1.2,0.87c4.49,3.25,4.49,9.94,0,13.19l-1.2,0.87
			c-3.45,2.5-4.39,7.23-2.16,10.86l0.78,1.27c2.9,4.72,0.34,10.9-5.05,12.19l-1.45,0.35c-4.14,0.99-6.82,5-6.15,9.21l0.23,1.47
			c0.87,5.47-3.85,10.2-9.33,9.33l-1.47-0.23c-4.21-0.67-8.22,2.01-9.21,6.15l-0.35,1.45c-1.29,5.39-7.46,7.95-12.19,5.05
			l-1.27-0.78c-3.63-2.23-8.36-1.29-10.86,2.16l-0.87,1.2c-3.25,4.49-9.94,4.49-13.19,0l-0.87-1.2c-2.5-3.45-7.23-4.39-10.86-2.16
			l-1.27,0.78c-4.72,2.9-10.9,0.34-12.19-5.05l-0.35-1.45c-0.99-4.14-5-6.82-9.21-6.15l-1.47,0.23c-5.47,0.87-10.2-3.85-9.33-9.33
			l0.23-1.47c0.67-4.21-2.01-8.22-6.15-9.21l-1.45-0.35c-5.39-1.29-7.95-7.46-5.05-12.19l0.78-1.27c2.23-3.63,1.29-8.36-2.16-10.86
			l-1.2-0.87c-4.49-3.25-4.49-9.94,0-13.19l1.2-0.87c3.45-2.5,4.39-7.23,2.16-10.86l-0.78-1.27c-2.9-4.72-0.34-10.9,5.05-12.19
			l1.45-0.35c4.14-0.99,6.82-5,6.15-9.21l-0.23-1.47c-0.87-5.47,3.85-10.2,9.33-9.33l1.47,0.23c4.21,0.67,8.22-2.01,9.21-6.15
			l0.35-1.45c1.29-5.39,7.46-7.95,12.19-5.05l1.27,0.78c3.63,2.23,8.36,1.29,10.86-2.16l0.87-1.2
			C160.71,3.38,167.4,3.38,170.65,7.87L170.65,7.87z"/>
		<path fill="#009E7C" d="M124.76,80.58c3.2,3.32,8.01,5.02,12.58,4.46c0.69-0.08,1.29-0.52,1.61-1.13l2.17-4.06
			c0.26-0.49-0.13-1.08-0.69-1.02c-4.41,0.47-9.02-1.16-12.16-4.3c-0.5-0.5-1.34-0.39-1.67,0.24l-2.11,3.95
			C124.17,79.33,124.28,80.08,124.76,80.58L124.76,80.58z"/>
		<path fill="#40C76E" d="M75.82,124.42c1.76,4.35,5.66,7.79,10.19,8.99c0.68,0.18,1.41,0,1.95-0.45l3.59-3.01
			c0.44-0.37,0.29-1.07-0.26-1.23c-4.35-1.23-8.08-4.52-9.86-8.68c-0.28-0.66-1.12-0.87-1.67-0.41l-3.5,2.93
			C75.74,123.01,75.56,123.76,75.82,124.42L75.82,124.42z"/>
		<path fill="#6B4FF3" d="M223.05,109.96c-2.62,3.89-7.14,6.46-11.83,6.7c-0.71,0.04-1.38-0.29-1.82-0.85l-2.89-3.69
			c-0.35-0.45-0.06-1.11,0.51-1.15c4.51-0.31,8.84-2.76,11.43-6.46c0.41-0.59,1.27-0.63,1.72-0.06l2.82,3.59
			C223.42,108.61,223.44,109.38,223.05,109.96L223.05,109.96z"/>
		<path fill="#47A1FB" d="M119.87,112.51c-3.21,2.77-7.75,3.93-11.9,3.04c-0.62-0.14-1.14-0.58-1.38-1.17l-1.65-3.9
			c-0.2-0.47,0.21-0.98,0.71-0.88c4,0.8,8.36-0.31,11.5-2.92c0.5-0.42,1.26-0.24,1.51,0.36l1.6,3.8
			C120.51,111.41,120.35,112.09,119.87,112.51L119.87,112.51z"/>
		<path fill="#47A1FB" d="M206.85,58.5c-4.22,0.38-8.59-1.33-11.43-4.48c-0.43-0.47-0.58-1.14-0.44-1.76l0.94-4.13
			c0.11-0.5,0.74-0.67,1.09-0.3c2.79,2.98,6.97,4.63,11.04,4.34c0.65-0.05,1.16,0.54,1.02,1.17l-0.91,4.02
			C208.01,57.99,207.48,58.44,206.85,58.5L206.85,58.5z"/>
		<path fill="#FF4365" d="M278.36,116.61c-2.05,4.42-6.27,7.8-11.04,8.81c-0.72,0.15-1.47-0.07-2.01-0.57l-3.57-3.31
			c-0.43-0.4-0.24-1.12,0.33-1.26c4.58-1.06,8.62-4.28,10.67-8.51c0.33-0.67,1.2-0.85,1.75-0.34l3.48,3.22
			C278.52,115.15,278.67,115.94,278.36,116.61L278.36,116.61z"/>
		<path fill="#4667F4" d="M121.86,21.31c-1.34,3.97-4.64,7.24-8.62,8.56c-0.6,0.2-1.26,0.07-1.77-0.3l-3.36-2.5
			c-0.41-0.3-0.31-0.94,0.17-1.11c3.81-1.33,6.97-4.46,8.34-8.26c0.22-0.61,0.95-0.84,1.47-0.45l3.27,2.43
			C121.86,20.05,122.06,20.71,121.86,21.31z"/>
		<path fill="#C1D992" d="M52.17,25.15c3.66,3.07,8.82,4.3,13.47,3.21c0.7-0.16,1.27-0.68,1.54-1.34l1.79-4.43
			c0.22-0.54-0.25-1.1-0.82-0.98c-4.5,0.97-9.44-0.2-13.02-3.09c-0.57-0.46-1.42-0.25-1.7,0.43l-1.74,4.31
			C51.43,23.93,51.62,24.69,52.17,25.15L52.17,25.15z"/>
		
			<ellipse transform="matrix(0.2323 -0.9727 0.9727 0.2323 164.8425 255.8519)" fill="#FF4365" cx="244.49" cy="23.51" rx="2.63" ry="3.4"/>
		
			<ellipse transform="matrix(0.2323 -0.9727 0.9727 0.2323 -76.1101 149.1655)" fill="#47A1FB" cx="56.43" cy="122.79" rx="2.63" ry="3.4"/>
		
			<ellipse transform="matrix(0.3079 -0.9514 0.9514 0.3079 25.2111 310.1501)" fill="#9576FB" cx="225.77" cy="137.75" rx="3.83" ry="4.8"/>
		
			<ellipse transform="matrix(0.3079 -0.9514 0.9514 0.3079 -32.2981 74.1093)" fill="#FF4365" cx="34.79" cy="59.25" rx="3.83" ry="4.8"/>
		
			<ellipse transform="matrix(0.9115 -0.4112 0.4112 0.9115 6.0108 121.5996)" fill="#6B4FF3" cx="285.65" cy="46.83" rx="4.5" ry="2.97"/>
	</g>
	<g id="Characters_00000030463803582987789240000007145832661618551958_">
		<g>
			<g>
				<path fill="#00185A" d="M165.54,124.07c3.02-3.88,2.23-10.82,2.07-13.84c-0.15-3.02,2.53-5.66,5.96-5.66
					c3.43,0,5.43,1.92,6.45,6.98v17.24h-14.48L165.54,124.07L165.54,124.07z"/>
				<path fill="#00185A" d="M162.68,124.07c-3.02-3.88-2.23-10.82-2.07-13.84c0.15-3.02-2.53-5.66-5.96-5.66
					c-3.43,0-5.43,1.92-6.45,6.98v17.24h14.48L162.68,124.07L162.68,124.07z"/>
			</g>
			<g>
				<g>
					<path d="M175.95,92.51c-1.26,0-3.14,0.14-5.06-0.37c-1.91-0.52-4.6-2.51-6.78-2.51s-4.87,2-6.78,2.51
						c-1.91,0.52-3.8,0.37-5.06,0.37v3.18h7.4c1.11,0,2.01,0.9,2.01,2.01v2.99h4.86V97.7c0-1.11,0.9-2.01,2.01-2.01h7.4
						L175.95,92.51L175.95,92.51z"/>
					<path fill="#474747" d="M164.11,80.75c-7.56,0-13.68,4.8-13.68,10.72c0,5.92,6.13,10.72,13.68,10.72
						c7.56,0,13.68-4.8,13.68-10.72C177.8,85.55,171.67,80.75,164.11,80.75z M164.11,99.81c-5.87,0-10.64-3.73-10.64-8.33
						s4.76-8.33,10.64-8.33c5.87,0,10.64,3.73,10.64,8.33S169.98,99.81,164.11,99.81z"/>
					<ellipse fill="#474747" cx="164.11" cy="93.02" rx="3.87" ry="3.4"/>
					<ellipse fill="#FF4365" cx="164.11" cy="93.02" rx="2.26" ry="1.98"/>
				</g>
				
					<linearGradient id="SVGID_1_" gradientUnits="userSpaceOnUse" x1="164.1123" y1="3997.6582" x2="177.7295" y2="3997.6582" gradientTransform="matrix(1 0 0 -1 0 4084)">
					<stop  offset="0.08" style="stop-color:#000000"/>
					<stop  offset="0.42" style="stop-color:#1F1F1F"/>
					<stop  offset="0.79" style="stop-color:#3C3C3C"/>
					<stop  offset="1" style="stop-color:#474747"/>
				</linearGradient>
				<path fill="url(#SVGID_1_)" d="M177.6,89.69c-1.08-5.07-6.71-8.94-13.49-8.94v2.39c5.35,0,9.77,3.09,10.52,7.12
					c0.02,0.11,0.04,0.22,0.05,0.33c0.06,0.45,0.3,0.87,0.69,1.11c0.24,0.15,0.52,0.23,0.82,0.23c0.68,0,1.26-0.43,1.47-1.04
					c0.06-0.17,0.08-0.35,0.05-0.52C177.69,90.14,177.65,89.91,177.6,89.69L177.6,89.69z"/>
				
					<linearGradient id="SVGID_00000168074669656313104140000005303295097499617977_" gradientUnits="userSpaceOnUse" x1="150.4949" y1="3997.6582" x2="164.1123" y2="3997.6582" gradientTransform="matrix(1 0 0 -1 0 4084)">
					<stop  offset="0" style="stop-color:#474747"/>
					<stop  offset="0.21" style="stop-color:#3C3C3C"/>
					<stop  offset="0.59" style="stop-color:#1F1F1F"/>
					<stop  offset="0.92" style="stop-color:#000000"/>
				</linearGradient>
				<path fill="url(#SVGID_00000168074669656313104140000005303295097499617977_)" d="M150.62,89.69c1.08-5.07,6.71-8.94,13.49-8.94
					v2.39c-5.35,0-9.77,3.09-10.52,7.12c-0.02,0.11-0.04,0.22-0.05,0.33c-0.06,0.45-0.3,0.87-0.69,1.11
					c-0.24,0.15-0.52,0.23-0.82,0.23c-0.68,0-1.26-0.43-1.47-1.04c-0.06-0.17-0.08-0.35-0.05-0.52
					C150.54,90.14,150.57,89.91,150.62,89.69L150.62,89.69z"/>
			</g>
			<g>
				
					<linearGradient id="SVGID_00000096747525367475539080000009269643973186462602_" gradientUnits="userSpaceOnUse" x1="178.2575" y1="3974.1218" x2="178.2575" y2="3998.8379" gradientTransform="matrix(1 0 0 -1 0 4084)">
					<stop  offset="0" style="stop-color:#5F2A23"/>
					<stop  offset="0.29" style="stop-color:#6F3630"/>
					<stop  offset="0.69" style="stop-color:#7E423D"/>
					<stop  offset="1" style="stop-color:#844742"/>
				</linearGradient>
				<path fill="url(#SVGID_00000096747525367475539080000009269643973186462602_)" d="M183.1,100.11c-0.51-1.33-0.59-2.78-0.18-4.14
					l1.1-3.65c0.43-1.43-0.27-2.97-1.64-3.58l-0.25-0.11c-0.16-0.07-0.3-0.19-0.39-0.34l-0.28-0.44c-0.43-0.68-1.17-1.08-1.97-1.07
					l-0.29,0c-0.22,0-0.42-0.1-0.55-0.27c-0.95-1.23-2.05-1.58-3.33-1.17c1.14,1.28,1.94,2.76,2.28,4.37
					c0.05,0.22,0.08,0.43,0.11,0.65c0.02,0.18,0.01,0.37-0.05,0.55c-0.22,0.6-0.79,1.04-1.47,1.04c-0.34,0-0.66-0.11-0.91-0.3
					c-0.34-0.24-0.54-0.63-0.59-1.04c-0.01-0.11-0.03-0.22-0.05-0.34c-0.05-0.3-0.13-0.58-0.22-0.87l-0.97,0.73
					c-0.82,0.62-1.3,1.58-1.3,2.61l0,0c0,1.29,0.62,2.5,1.66,3.25l1.51,1.1c1.2,0.87,1.85,2.31,1.73,3.78
					c-0.21,2.53-0.39,6.53,0.24,9.01h6.88C184.55,107.95,184.52,103.79,183.1,100.11L183.1,100.11z"/>
				
					<linearGradient id="SVGID_00000096025298194277663680000016470570956697897656_" gradientUnits="userSpaceOnUse" x1="6449.2349" y1="3974.125" x2="6449.2349" y2="3998.8411" gradientTransform="matrix(-1 0 0 -1 6599.2002 4084)">
					<stop  offset="0" style="stop-color:#5F2A23"/>
					<stop  offset="0.29" style="stop-color:#6F3630"/>
					<stop  offset="0.69" style="stop-color:#7E423D"/>
					<stop  offset="1" style="stop-color:#844742"/>
				</linearGradient>
				<path fill="url(#SVGID_00000096025298194277663680000016470570956697897656_)" d="M145.12,100.1c0.51-1.33,0.59-2.78,0.18-4.14
					l-1.1-3.65c-0.43-1.43,0.27-2.97,1.64-3.58l0.25-0.11c0.16-0.07,0.3-0.19,0.39-0.34l0.28-0.44c0.43-0.68,1.17-1.08,1.97-1.07
					l0.29,0c0.22,0,0.42-0.1,0.55-0.27c0.95-1.23,2.05-1.58,3.33-1.17c-1.14,1.28-1.94,2.76-2.28,4.37
					c-0.05,0.22-0.08,0.43-0.11,0.65c-0.02,0.18-0.01,0.37,0.05,0.55c0.22,0.6,0.79,1.04,1.47,1.04c0.34,0,0.66-0.11,0.91-0.3
					c0.34-0.24,0.54-0.63,0.59-1.04c0.01-0.11,0.03-0.22,0.05-0.34c0.05-0.3,0.13-0.58,0.22-0.87l0.97,0.73
					c0.82,0.62,1.3,1.58,1.3,2.61l0,0c0,1.29-0.62,2.5-1.66,3.25l-1.51,1.1c-1.2,0.87-1.85,2.31-1.73,3.78
					c0.21,2.53,0.39,6.53-0.24,9.01h-6.88C143.67,107.95,143.7,103.78,145.12,100.1L145.12,100.1z"/>
			</g>
			<path fill="#009E7C" d="M181.83,107.76c-3.83,0-6.93,3.1-6.93,6.93c0,0.57,0.07,1.12,0.2,1.64l0,0c0,0,0,0.01,0,0.01
				c0.04,0.18,0.1,0.36,0.16,0.54c0.61,2.12,1.69,6.13,0.37,7.54c-0.29,0.31-0.79,0.29-1.08-0.02l-0.85-0.9
				c-1.31-1.4-3.13-2.22-5.05-2.28l-4.54,0.01l-4.54-0.01c-1.92,0.06-3.73,0.88-5.05,2.28l-0.85,0.9c-0.29,0.31-0.79,0.33-1.08,0.02
				c-1.32-1.41-0.25-5.42,0.37-7.54c0.06-0.18,0.11-0.36,0.16-0.54c0,0,0-0.01,0-0.01l0,0c0.13-0.53,0.2-1.08,0.2-1.64
				c0-3.83-3.1-6.93-6.93-6.93s-6.93,3.1-6.93,6.93c0,0.75,0.12,1.47,0.34,2.15c1.18,3.81,4.74,6.39,5.43,11.38
				c0.76,5.54,3.4,8.72,9.6,7.72c5.27-0.85,6.64-1.14,9.28-1.14l0,0c2.64,0,4,0.29,9.28,1.14c6.2,1,8.84-2.18,9.6-7.72
				c0.69-4.99,4.25-7.57,5.43-11.38c0.22-0.68,0.34-1.4,0.34-2.15C188.77,110.86,185.66,107.76,181.83,107.76L181.83,107.76z"/>
			<g>
				<path fill="#844742" d="M172.43,127.2c-0.78-0.63-1.73-1.62-2.05-2.23c-0.01-0.01-0.01-0.02-0.02-0.04
					c-0.01-0.03-0.03-0.06-0.04-0.08v0c-0.93-1.94-2.7-3.39-4.83-3.83l0,0c-0.48-0.12-0.57-0.44-0.57-0.84
					c0-0.46-0.37-0.84-0.82-0.84s-0.82,0.37-0.82,0.84c0,0,0,0,0,0c0,0.39-0.1,0.71-0.57,0.83c-2.13,0.44-3.9,1.89-4.83,3.83v0
					c-0.01,0.03-0.02,0.05-0.04,0.08c-0.01,0.01-0.01,0.03-0.02,0.04c-0.32,0.61-1.27,1.6-2.05,2.23c-0.41,0.33-0.61,0.87-0.49,1.39
					l0,0c0.16,0.73,0.86,1.21,1.59,1.09l0.5-0.08c0.73,3.1,3.46,5.41,6.72,5.41s5.99-2.31,6.72-5.41l0.5,0.08
					c0.74,0.11,1.43-0.36,1.59-1.09l0,0C173.04,128.07,172.85,127.53,172.43,127.2L172.43,127.2z"/>
				<path d="M168.85,124.49c-0.13,0.23-0.12,0.52-0.01,0.76c0.22,0.51,0.7,0.95,0.67,1.56c0.07,1.06-0.93,2.33-2,1.52
					c-1.16-1.05-0.98-3-3.4-3s-2.24,1.95-3.4,3c-1.06,0.82-2.07-0.45-2-1.52c-0.03-0.6,0.45-1.04,0.67-1.56
					c0.11-0.24,0.12-0.53-0.01-0.76c-0.28-0.52-0.95-0.37-1.34,0.08c-0.53,1-0.84,2.15-0.84,3.37c0,3.91,3.1,7.07,6.92,7.07
					s6.92-3.17,6.92-7.07c0-1.22-0.3-2.37-0.84-3.37C169.8,124.13,169.14,123.97,168.85,124.49L168.85,124.49z"/>
				<ellipse cx="164.19" cy="137.3" rx="4.45" ry="3.72"/>
			</g>
		</g>
		<g>
			<path fill="#D39972" d="M94.43,86.49c0.85-0.29,1.8-2.31,2.39-3.81c0.43-1.09,1.28-1.96,2.35-2.43l0,0
				c0.89-0.39,1.91-0.31,2.73,0.21l0.42,0.27c0,0,0.93-0.57,1.87-1.1c0.89-0.5,3.84,0.57,2.33,4.22c-0.09,0.21-0.13,0.45-0.13,0.68
				l0.01,1.08c0.01,0.89-0.49,1.7-1.29,2.1l0,0c-0.19,0.09-0.34,0.25-0.42,0.44l0,0c-0.35,0.8-1.15,1.32-2.03,1.32l-4.24-0.02
				c0,0-1.12,0.15-2.23,0.76l-2.71-1.08L94.43,86.49L94.43,86.49z"/>
			<path fill="#D39972" d="M79.72,60.99c0.68-0.59,2.9-0.4,4.5-0.17c1.16,0.17,2.34-0.12,3.28-0.82l0,0
				c0.78-0.57,1.23-1.5,1.19-2.47l-0.02-0.5c0,0,0.96-0.52,1.89-1.07c0.88-0.52,1.43-3.61-2.49-4.13c-0.23-0.03-0.45-0.11-0.65-0.22
				l-0.93-0.55c-0.77-0.45-1.72-0.42-2.46,0.07l0,0c-0.17,0.12-0.38,0.17-0.59,0.15l0,0c-0.87-0.09-1.72,0.34-2.15,1.1l-2.11,3.68
				c0,0-0.69,0.9-1.77,1.55l-0.42,2.89L79.72,60.99L79.72,60.99z"/>
			<path fill="#FF4365" d="M105.53,67.4c-0.2-0.34-0.64-0.46-0.98-0.26l-6.91,3.99c-0.95,0.55-2.14,0.44-2.97-0.28l-0.99-0.85
				l-0.24-1.29c-0.2-1.08,0.3-2.16,1.24-2.71l6.91-3.99c0.34-0.2,0.46-0.64,0.26-0.98c-0.2-0.34-0.64-0.46-0.98-0.26l-6.91,3.99
				c-1.48,0.85-2.25,2.54-1.94,4.22l0.3,1.59l0.55-0.1l-0.37,0.43l1.23,1.05c1.29,1.11,3.15,1.28,4.62,0.43l6.91-3.99
				C105.6,68.18,105.72,67.74,105.53,67.4L105.53,67.4z"/>
			<rect x="101.94" y="61.9" transform="matrix(0.866 -0.5 0.5 0.866 -18.6922 59.9695)" width="1.24" height="5.93"/>
			<g>
				
					<linearGradient id="SVGID_00000131349444561680740710000009163858338187479429_" gradientUnits="userSpaceOnUse" x1="-1849.9771" y1="2178.3599" x2="-1846.5852" y2="2178.3599" gradientTransform="matrix(0.5 0.866 0.866 -0.5 -859.8433 2754.6555)">
					<stop  offset="0" style="stop-color:#000000"/>
					<stop  offset="0" style="stop-color:#010101"/>
					<stop  offset="0.14" style="stop-color:#1F1F1F"/>
					<stop  offset="0.27" style="stop-color:#353535"/>
					<stop  offset="0.39" style="stop-color:#424242"/>
					<stop  offset="0.5" style="stop-color:#474747"/>
					<stop  offset="0.6" style="stop-color:#404040"/>
					<stop  offset="0.75" style="stop-color:#2D2D2D"/>
					<stop  offset="0.93" style="stop-color:#0E0E0E"/>
					<stop  offset="1" style="stop-color:#000000"/>
				</linearGradient>
				<path fill="url(#SVGID_00000131349444561680740710000009163858338187479429_)" d="M117.49,55.66l0.45,0.77
					c0.34,0.6,0.14,1.36-0.46,1.71l-28.2,16.28c-0.6,0.34-1.36,0.14-1.71-0.46l-0.45-0.77c-0.34-0.6-0.14-1.36,0.46-1.71l28.2-16.28
					C116.38,54.86,117.15,55.07,117.49,55.66z"/>
				<g>
					<rect x="115.69" y="55.31" transform="matrix(0.866 -0.5 0.5 0.866 -12.9517 65.6689)" width="0.74" height="3.39"/>
					<rect x="113.44" y="56.61" transform="matrix(0.866 -0.5 0.5 0.866 -13.9057 64.7163)" width="0.74" height="3.39"/>
					<rect x="111.18" y="57.91" transform="matrix(0.866 -0.5 0.5 0.866 -14.8589 63.7623)" width="0.74" height="3.39"/>
					<rect x="108.93" y="59.21" transform="matrix(0.866 -0.5 0.5 0.866 -15.8124 62.8091)" width="0.74" height="3.39"/>
					<rect x="106.67" y="60.52" transform="matrix(0.866 -0.5 0.5 0.866 -16.765 61.8557)" width="0.74" height="3.39"/>
					<rect x="104.42" y="61.82" transform="matrix(0.866 -0.5 0.5 0.866 -17.7191 60.9031)" width="0.74" height="3.39"/>
					<rect x="102.16" y="63.12" transform="matrix(0.866 -0.5 0.5 0.866 -18.6723 59.9491)" width="0.74" height="3.39"/>
					<rect x="99.9" y="64.42" transform="matrix(0.866 -0.5 0.5 0.866 -19.6249 58.9957)" width="0.74" height="3.39"/>
					<rect x="97.65" y="65.73" transform="matrix(0.866 -0.5 0.5 0.866 -20.5784 58.0426)" width="0.74" height="3.39"/>
					<rect x="95.39" y="67.03" transform="matrix(0.866 -0.5 0.5 0.866 -21.5316 57.0897)" width="0.74" height="3.39"/>
					<rect x="93.14" y="68.33" transform="matrix(0.866 -0.5 0.5 0.866 -22.4851 56.1365)" width="0.74" height="3.39"/>
					<rect x="90.88" y="69.63" transform="matrix(0.866 -0.5 0.5 0.866 -23.4383 55.1826)" width="0.74" height="3.39"/>
					<rect x="88.63" y="70.94" transform="matrix(0.866 -0.5 0.5 0.866 -24.3923 54.23)" width="0.74" height="3.39"/>
				</g>
			</g>
			<path fill="#FF4365" d="M64.69,88.68l-0.3-1.59l-0.55,0.1l0.37-0.43l-1.23-1.05c-1.29-1.11-3.15-1.28-4.62-0.43l-6.91,3.99
				c-0.34,0.2-0.46,0.64-0.26,0.98c0.2,0.34,0.64,0.46,0.98,0.26l6.91-3.99c0.95-0.55,2.14-0.44,2.97,0.28l0.99,0.85l0.24,1.29
				c0.2,1.08-0.3,2.16-1.24,2.71l-6.91,3.99c-0.34,0.2-0.46,0.64-0.26,0.98c0.2,0.34,0.64,0.46,0.98,0.26l6.91-3.99
				C64.23,92.05,65.01,90.36,64.69,88.68L64.69,88.68z"/>
			<rect x="53.53" y="89.83" transform="matrix(0.866 -0.5 0.5 0.866 -39.1425 39.5075)" width="1.24" height="5.93"/>
			<g>
				
					<linearGradient id="SVGID_00000150785640222423950790000016601135813641376930_" gradientUnits="userSpaceOnUse" x1="3286.1013" y1="153.8162" x2="3289.4932" y2="153.8162" gradientTransform="matrix(-0.5 -0.866 -0.866 0.5 1831.2856 2863.2502)">
					<stop  offset="0" style="stop-color:#000000"/>
					<stop  offset="0" style="stop-color:#010101"/>
					<stop  offset="0.14" style="stop-color:#1F1F1F"/>
					<stop  offset="0.27" style="stop-color:#353535"/>
					<stop  offset="0.39" style="stop-color:#424242"/>
					<stop  offset="0.5" style="stop-color:#474747"/>
					<stop  offset="0.6" style="stop-color:#404040"/>
					<stop  offset="0.75" style="stop-color:#2D2D2D"/>
					<stop  offset="0.93" style="stop-color:#0E0E0E"/>
					<stop  offset="1" style="stop-color:#000000"/>
				</linearGradient>
				<path fill="url(#SVGID_00000150785640222423950790000016601135813641376930_)" d="M39.22,102l-0.45-0.77
					c-0.34-0.6-0.14-1.36,0.46-1.71l28.2-16.28c0.6-0.34,1.36-0.14,1.71,0.46l0.45,0.77c0.34,0.6,0.14,1.36-0.46,1.71l-28.2,16.28
					C40.33,102.8,39.56,102.59,39.22,102z"/>
				<g>
					<rect x="40.27" y="98.96" transform="matrix(0.866 -0.5 0.5 0.866 -44.8821 33.8077)" width="0.74" height="3.39"/>
					<rect x="42.53" y="97.66" transform="matrix(0.866 -0.5 0.5 0.866 -43.9286 34.7606)" width="0.74" height="3.39"/>
					<rect x="44.79" y="96.35" transform="matrix(0.866 -0.5 0.5 0.866 -42.9749 35.7143)" width="0.74" height="3.39"/>
					<rect x="47.04" y="95.05" transform="matrix(0.866 -0.5 0.5 0.866 -42.0221 36.6677)" width="0.74" height="3.39"/>
					<rect x="49.3" y="93.75" transform="matrix(0.866 -0.5 0.5 0.866 -41.0684 37.6214)" width="0.74" height="3.39"/>
					<rect x="51.55" y="92.45" transform="matrix(0.866 -0.5 0.5 0.866 -40.1155 38.5737)" width="0.74" height="3.39"/>
					<rect x="53.81" y="91.15" transform="matrix(0.866 -0.5 0.5 0.866 -39.1624 39.528)" width="0.74" height="3.39"/>
					<rect x="56.06" y="89.84" transform="matrix(0.866 -0.5 0.5 0.866 -38.2089 40.4809)" width="0.74" height="3.39"/>
					<rect x="58.32" y="88.54" transform="matrix(0.866 -0.5 0.5 0.866 -37.2553 41.4345)" width="0.74" height="3.39"/>
					<rect x="60.57" y="87.24" transform="matrix(0.866 -0.5 0.5 0.866 -36.3024 42.3868)" width="0.74" height="3.39"/>
					<rect x="62.83" y="85.94" transform="matrix(0.866 -0.5 0.5 0.866 -35.3493 43.3411)" width="0.74" height="3.39"/>
					<rect x="65.08" y="84.63" transform="matrix(0.866 -0.5 0.5 0.866 -34.3958 44.294)" width="0.74" height="3.39"/>
					<rect x="67.34" y="83.33" transform="matrix(0.866 -0.5 0.5 0.866 -33.4421 45.2476)" width="0.74" height="3.39"/>
				</g>
			</g>
			<path fill="#474747" d="M60.96,85.39l2.97,5.14l-1.72,0.99c-1.42,0.82-3.24,0.33-4.06-1.09l0,0c-0.82-1.42-0.33-3.24,1.09-4.06
				L60.96,85.39L60.96,85.39L60.96,85.39z"/>
			<path d="M67.6,85l-4.77-10.6c-4.26,2.45-6.41,8.08-4.72,10.99c1.35,2.34,2.26,1.44,3.27,3.19c1.01,1.76-0.22,2.09,1.13,4.43
				c1.68,2.92,7.63,3.87,11.88,1.41L67.6,85L67.6,85z"/>
			<g>
				<path fill="#D39972" d="M82.49,85.47c0.61,1.13,1.03,2.37,1.25,3.64c1.48-1.1,3.42-2.35,5.39-3.08l0,0
					c0.24-0.08,0.48-0.19,0.71-0.32c1.93-1.11,2.59-3.58,1.48-5.51c-0.7-1.21-1.93-1.92-3.23-2.01l0,0
					c-2.78-0.25-4.56,2.46-7.07,3.3c-0.49,0.17-0.98,0.3-1.46,0.41C80.74,82.89,81.75,84.11,82.49,85.47L82.49,85.47z"/>
				<path d="M81.06,91.31c0,0,1.07-1.01,2.67-2.2c-0.22-1.27-0.63-2.51-1.25-3.64c-0.73-1.36-1.74-2.58-2.94-3.56
					c-1.96,0.46-3.63,0.49-3.63,0.49L81.06,91.31L81.06,91.31z"/>
			</g>
			<path fill="#D39972" d="M70.3,74.93c-0.68-1.1-1.54-2.08-2.53-2.9c1.69-0.73,3.74-1.79,5.36-3.13l0,0
				c0.19-0.17,0.41-0.32,0.63-0.45c1.93-1.11,4.39-0.45,5.51,1.48c0.7,1.21,0.7,2.64,0.12,3.8l0,0c-1.18,2.54-4.41,2.72-6.4,4.48
				c-0.39,0.34-0.75,0.7-1.08,1.06C71.66,77.73,71.11,76.25,70.3,74.93L70.3,74.93z"/>
			<path fill="#023936" d="M94.43,86.49c-3.33,1.18-10.68,3.27-10.68,3.27l2.23,7.76c3.82-3.37,7.29-5.78,10.21-7.33
				c0.06-0.79-0.07-1.59-0.44-2.29C95.45,87.32,94.99,86.83,94.43,86.49L94.43,86.49z"/>
			<path fill="#4285F4" d="M83.79,99.8c2.71-1.57,3.74-4.86,2.29-7.36c-1.2-2.22-3.63-3.52-5.29-4.79c-1.49,0.32-2.92,0.9-4.2,1.72
				c-1.6,1.02-2.97,2.41-3.97,4.03c0.04,0.03,0.08,0.05,0.12,0.08c1.64,1.07,2.51,3.74,4.14,5.48c0.01,0.01,0.02,0.02,0.03,0.03
				c0.02,0.02,0.04,0.04,0.06,0.06l0,0C78.63,100.77,81.45,101.15,83.79,99.8z"/>
			<path fill="#023936" d="M79.72,60.99c-2.69,2.3-8.17,7.61-8.17,7.61l-5.61-5.81c4.83-1.63,8.65-3.43,11.46-5.18
				c0.71,0.34,1.34,0.86,1.76,1.52C79.5,59.69,79.7,60.34,79.72,60.99z"/>
			<g>
				<path fill="#4285F4" d="M62.87,63.56c2.71-1.57,6.08-0.81,7.52,1.69c1.32,2.15,1.24,4.9,1.51,6.98
					c-1.02,1.13-2.24,2.08-3.59,2.78c-1.69,0.88-3.58,1.36-5.48,1.42c0-0.05,0-0.1,0-0.15c-0.11-1.96-1.98-4.04-2.67-6.33
					c0-0.01-0.01-0.02-0.01-0.04c-0.01-0.03-0.02-0.05-0.02-0.08l0,0C59.45,67.54,60.53,64.91,62.87,63.56L62.87,63.56z"/>
				<path fill="#023936" d="M79.25,85.99c-0.94-1.98-0.99-3.39-2.62-6.22l0,0c-1.63-2.83-2.83-3.56-4.07-5.37
					c-0.37-0.54-0.55-1.3-0.66-2.17c-1.02,1.13-2.24,2.08-3.59,2.78c-1.69,0.88-3.58,1.36-5.48,1.42c0.04,1.91-1.02,6.03,1.52,10.43
					l0,0c2.54,4.4,6.64,5.54,8.28,6.53c1-1.62,2.37-3.01,3.97-4.03c1.28-0.82,2.72-1.4,4.2-1.72C80.1,87.11,79.53,86.58,79.25,85.99
					L79.25,85.99z"/>
			</g>
			
				<rect x="73.94" y="74.52" transform="matrix(0.866 -0.5 0.5 0.866 -26.5801 52.0421)" fill="#FF4365" width="19.76" height="2.19"/>
			<g>
				<path fill="#D39972" d="M81.42,78.34L81.42,78.34c-0.11-0.39,0.08-0.6,0.37-0.76c0.33-0.19,0.45-0.61,0.26-0.94
					c-0.19-0.33-0.61-0.43-0.94-0.24c0,0,0,0,0,0c-0.28,0.16-0.56,0.23-0.84-0.07c-1.79-2-4.84-2.53-7.3-1.1
					c-2.82,1.63-3.81,5.18-2.22,7.94c1.59,2.76,5.17,3.67,7.99,2.05C81.19,83.8,82.26,80.9,81.42,78.34L81.42,78.34z"/>
				<path fill="#D39972" d="M80.67,83.43c-0.33,0.42-0.68,1.62-0.82,2.5c-0.07,0.44-0.38,0.8-0.8,0.94l0,0
					c-0.59,0.19-1.23-0.11-1.45-0.69l-0.31-0.79L80.67,83.43z"/>
				<path fill="#D39972" d="M75.48,74.45c-0.53,0.07-1.74-0.22-2.57-0.54c-0.41-0.16-0.88-0.07-1.21,0.22l0,0
					c-0.46,0.42-0.52,1.12-0.13,1.6l0.53,0.66L75.48,74.45L75.48,74.45z"/>
				<path fill="#4667F4" d="M81.68,82.03L81.68,82.03c0.16-0.86,0.01-1.75-0.43-2.5l-1.05-1.82l-1.02-1.77
					c-0.28-0.49-0.65-0.92-1.12-1.23c-1.19-0.82-2.72-0.86-3.92-0.16l-3.63,2.09c-0.78,0.45-1.43,1.08-1.91,1.84l-2.78,4.39
					c-0.33,0.51-0.34,1.16-0.04,1.69l1.27,2.21c0.3,0.53,0.87,0.84,1.48,0.82l5.19-0.21c0.9-0.04,1.77-0.29,2.55-0.74l3.63-2.09
					C80.84,84,81.49,83.08,81.68,82.03L81.68,82.03z"/>
				<path d="M79.22,80.23L79.22,80.23c0.24,0.42,0.17,0.96-0.19,1.3l-3.1,2.93c-0.5,0.48-1.27,0.53-1.84,0.13l-1.08-0.76
					L79.22,80.23z"/>
				<path d="M77.52,77.29L77.52,77.29c-0.24-0.42-0.75-0.62-1.22-0.48l-4.09,1.22c-0.67,0.2-1.1,0.84-1.04,1.53l0.12,1.32
					L77.52,77.29L77.52,77.29z"/>
				<path d="M70.8,81.17l-0.39-0.67c-0.18-0.31-0.61-0.37-0.87-0.12l-1.66,1.64c-0.24,0.24-0.3,0.61-0.12,0.91l0,0L70.8,81.17z"/>
				<path d="M72.5,84.12l0.39,0.67c0.18,0.31,0.02,0.71-0.33,0.81l-2.25,0.62c-0.33,0.09-0.68-0.05-0.85-0.35l0,0L72.5,84.12
					L72.5,84.12z"/>
				
					<linearGradient id="SVGID_00000159452609942754647260000000919505556637062793_" gradientUnits="userSpaceOnUse" x1="-1848.2769" y1="2138.094" x2="-1848.2769" y2="2151.8464" gradientTransform="matrix(0.5 0.866 0.866 -0.5 -859.8411 2754.6494)">
					<stop  offset="0" style="stop-color:#4667EF"/>
					<stop  offset="0.22" style="stop-color:#6E99F4"/>
					<stop  offset="0.41" style="stop-color:#8EC0F9"/>
					<stop  offset="0.51" style="stop-color:#9BD0FB"/>
					<stop  offset="0.59" style="stop-color:#92C5FA"/>
					<stop  offset="0.74" style="stop-color:#7BA9F8"/>
					<stop  offset="0.92" style="stop-color:#577CF5"/>
					<stop  offset="1" style="stop-color:#4667F4"/>
				</linearGradient>
				<polygon fill="url(#SVGID_00000159452609942754647260000000919505556637062793_)" points="78.72,76.6 80.43,79.55 68.52,86.42 
					66.81,83.47 				"/>
			</g>
			<polygon fill="#C3C3C3" points="97.3,68 97.17,67.76 91.87,58.58 90.13,59.58 95.42,68.76 95.56,69 100.86,78.18 102.6,77.17 			
				"/>
			
				<linearGradient id="SVGID_00000086686346423810520430000002342082936819440045_" gradientUnits="userSpaceOnUse" x1="-1848.2845" y1="2166.6338" x2="-1848.2845" y2="2170.2329" gradientTransform="matrix(0.5 0.866 0.866 -0.5 -859.8412 2754.6589)">
				<stop  offset="0" style="stop-color:#C3C3C3"/>
				<stop  offset="0.2" style="stop-color:#BDBDBD"/>
				<stop  offset="0.45" style="stop-color:#AEAEAE"/>
				<stop  offset="0.73" style="stop-color:#949494"/>
				<stop  offset="1" style="stop-color:#757575"/>
			</linearGradient>
			<polygon fill="url(#SVGID_00000086686346423810520430000002342082936819440045_)" points="94.95,67.93 96.04,69.83 92.92,71.63 
				91.83,69.73 			"/>
			<g>
				<path d="M104.54,80.53l-0.27-0.47c-0.18-0.31-0.07-0.71,0.24-0.89l0.16-0.09c0.26-0.15,0.35-0.48,0.2-0.74l-0.36-0.62
					c-0.15-0.26-0.42-0.43-0.71-0.46l-1.2-0.11l-1.74,1.01l1.94,3.36c0.11,0.19,0.04,0.43-0.15,0.54l-0.48,0.28
					c-0.48,0.27-0.68,0.88-0.42,1.37c0.27,0.5,0.9,0.68,1.39,0.39l0.52-0.3C104.81,83.16,105.21,81.68,104.54,80.53L104.54,80.53z"
					/>
				<path d="M92.34,56.64l-0.36-0.62c-0.15-0.26-0.48-0.35-0.74-0.2l-0.16,0.09c-0.31,0.18-0.71,0.07-0.89-0.24l-0.27-0.47
					c-0.67-1.15-2.14-1.55-3.29-0.88l-0.48,0.28c-0.48,0.27-0.68,0.88-0.42,1.37c0.26,0.49,0.9,0.68,1.39,0.39l0.52-0.3
					c0.19-0.11,0.43-0.04,0.54,0.15l1.94,3.36l1.74-1.01l0.51-1.09C92.5,57.22,92.49,56.9,92.34,56.64L92.34,56.64z"/>
			</g>
			<g>
				
					<rect x="90.33" y="58.99" transform="matrix(0.866 -0.5 0.5 0.866 -17.6014 53.665)" fill="#474747" width="2.01" height="1.37"/>
				
					<rect x="100.38" y="76.39" transform="matrix(0.866 -0.5 0.5 0.866 -24.9557 61.02)" fill="#474747" width="2.01" height="1.37"/>
			</g>
			<circle cx="92.38" cy="70.68" r="1.1"/>
			<g>
				<path d="M58.1,93.1l0.03,0.06c0.13,0.23,0.05,0.53-0.18,0.66l-4.82,2.78c-0.23,0.13-0.53,0.05-0.66-0.18l-0.03-0.06
					c-0.13-0.23-0.05-0.53,0.18-0.66l4.82-2.78C57.67,92.79,57.96,92.87,58.1,93.1z"/>
				<path d="M55.93,89.36l0.03,0.06c0.13,0.23,0.05,0.53-0.18,0.66l-4.82,2.78c-0.23,0.13-0.53,0.05-0.66-0.18l-0.03-0.06
					c-0.13-0.23-0.05-0.53,0.18-0.66l4.82-2.78C55.51,89.04,55.8,89.12,55.93,89.36z"/>
			</g>
		</g>
		<g>
			<path fill="#394EC1" d="M252.29,87.21c1.43,0.44,2.13,0.54,3.07,1.06c0.94,0.52,1.87,2.01,3.42,2.72l0,0
				c1.44,0.87,3.28,0.59,4.26-0.71c0.98-1.3,0.76-3.15-0.47-4.29l0,0c0,0-0.01-0.01-0.01-0.01c-0.03-0.02-0.05-0.05-0.08-0.07
				c-1.25-1.09-2.49-1.46-4.23-1.35c-1.78,0.11-2.89-0.83-3.59-1.57L252.29,87.21L252.29,87.21z"/>
			<path fill="#003936" d="M260.36,83.85L260.36,83.85c-1.35-1.32-3.12-1.79-4.7-2.45c0.14-0.21,0.27-0.43,0.4-0.66
				c1.9-3.3,2.14-6.72,0.53-7.65c-1.61-0.93-4.46,0.99-6.36,4.28c-1.79,3.11-2.11,6.33-0.78,7.47l-0.39,1.95
				c2.56,1.07,3.76,3.88,6.3,4.93c0.04,0.02,0.07,0.03,0.11,0.05c0.01,0,0.01,0,0.02,0.01l0,0c1.74,0.67,3.96-0.34,5.16-2.42
				C261.8,87.37,261.63,85.07,260.36,83.85L260.36,83.85z"/>
			<path fill="#394EC1" d="M236.35,63.03c-1.3-0.78-1.96-1.04-2.74-1.79c-0.78-0.75-1.25-2.46-2.57-3.53l0,0
				c-1.17-1.21-3.1-1.36-4.49-0.29c-1.39,1.07-1.74,2.98-0.87,4.41l0,0c0,0,0,0.01,0.01,0.01c0.02,0.03,0.04,0.06,0.06,0.09
				c0.91,1.39,2.04,2.05,3.82,2.35c1.82,0.31,2.63,1.51,3.1,2.42L236.35,63.03L236.35,63.03z"/>
			<path fill="#003936" d="M250.83,66.44c-3.9-0.03-6.22,0.08-7.91-1.36c-1.33-1.14-2.95-2.83-5.38-3.61l0,0
				c-1.61-0.56-3.65,0.14-4.95,1.83c-1.55,2.03-1.44,4.71,0.24,5.99c0.21,0.16,0.43,0.29,0.66,0.39l0,0
				c1.73,0.91,6.2,4.24,8.28,8.63L250.83,66.44L250.83,66.44z"/>
			<g>
				<path d="M206.96,82.76l1.3-4.02c0.17-0.51,0.71-0.79,1.23-0.63l9.43,3.05c0.51,0.17,0.79,0.71,0.63,1.23l-1.3,4.02
					c-0.17,0.51-0.71,0.79-1.23,0.63l-9.43-3.05C207.08,83.82,206.8,83.27,206.96,82.76z"/>
				<path fill="#474747" d="M217.63,86.05c-0.13,0.23-0.41,0.33-0.66,0.25l-8.9-2.88c-0.29-0.1-0.45-0.41-0.36-0.71l1.13-3.5
					c0.01-0.04,0.03-0.07,0.05-0.11c0.13-0.23,0.41-0.33,0.66-0.25l8.9,2.88c0.29,0.1,0.45,0.41,0.36,0.71l-1.13,3.5
					C217.66,85.98,217.65,86.02,217.63,86.05z"/>
			</g>
			<ellipse transform="matrix(0.5 -0.866 0.866 0.5 36.1151 226.4386)" fill="#FBA199" cx="214.16" cy="81.94" rx="1.22" ry="1.3"/>
			<path fill="#FBA199" d="M213.9,83.14c1.53,0.35,3.66,1.27,3.61,1.93s-2.39,1.21-4.08,0.75c-1.12-0.31-2.58-0.76-3.45-1.03
				c-0.43-0.13-0.88,0.07-1.08,0.47l0,0c-0.19,0.39-0.07,0.86,0.29,1.12c0.75,0.54,1.63,0.87,1.63,0.87
				c0.67,0.95,1.61,1.41,2.36,1.46c0.5,0.65,4.33,1.25,6.83,0.33c2.5-0.92,9.7,0.06,13.06,1.17c3.35,1.11,7.58,1.75,9.68,1.41
				l-4.66-8.47c-8.55,2.25-12.14,1.58-14.29,0.8c-1.79-0.65-1.9-1.33-4.56-1.56c-2.65-0.23-4.18-1.37-4.45-1.49L213.9,83.14
				L213.9,83.14z"/>
			<path fill="#FBA199" d="M249.8,53.3c-3.91-1.22-6.09-3.69-8.23-5.37c-2.14-1.68-4.38-1.13-4.76-0.43
				c-0.42-0.13-1.42,0.33-1.53,0.97c0,0-1.34,0.52-2.06,1.01c-0.04,0.02-0.08,0.05-0.12,0.08c-0.38,0.33-0.4,0.92-0.05,1.32
				c0.32,0.37,0.84,0.45,1.22,0.21l0,0c1.05-0.65,2.85-1.35,4.24-0.97c1.39,0.38,2.41,2.02,1.86,2.84
				c-0.43,0.64-1.73,0.26-3.32-0.54c-0.45-0.23-0.99-0.2-1.37,0.13c-0.51,0.44-0.54,1.24-0.07,1.78c0.2,0.23,0.46,0.38,0.73,0.44
				l0,0c0,0,0,0,0.01,0c0.01,0,0.01,0,0.02,0c2.56,0.52,4.49,0.86,7.97,1.59c3.49,0.74,9.96,5.73,9.96,5.73l7.13-1.26l3.56-0.63
				C262.44,57.1,253.71,54.52,249.8,53.3L249.8,53.3z"/>
			<path fill="#005B5B" d="M266.72,64.69c0-3.7-3-6.71-6.71-6.71c-2.16,0-4.08,1.02-5.31,2.61l0,0c-2.62,3.38-7.5,4.88-10.9,8.94
				c-3.3,3.95-1.95,8.27-5.23,11.56c-0.1,0.09-0.2,0.19-0.3,0.28c-0.01,0-0.01,0.01-0.02,0.02l0,0c-1.19,1.21-1.92,2.87-1.92,4.7
				c0,3.7,3,6.71,6.71,6.71c2.85,0,5.28-1.78,6.25-4.29l0,0c2.48-6.44,7.28-14.78,13.29-17.63c0.13-0.05,0.25-0.11,0.37-0.17
				c0.01,0,0.01,0,0.02-0.01l0,0C265.2,69.61,266.72,67.33,266.72,64.69L266.72,64.69z"/>
			<path fill="#FBA199" d="M251.8,64.34c-0.39-0.36-0.96-0.46-1.45-0.27c-0.99,0.38-2.45,0.73-3.09,0.64h0
				c-2.15-0.17-4.29,0.64-5.74,2.27l0,0c-0.34,0.35-0.67,0.27-1.01,0.08c-0.4-0.23-0.91-0.1-1.13,0.29
				c-0.22,0.39-0.08,0.9,0.31,1.13c0,0,0,0,0,0c0.34,0.2,0.57,0.44,0.43,0.91c-0.68,2.07-0.32,4.33,0.9,6.1h0
				c0.4,0.51,0.82,1.94,0.98,2.99c0.08,0.53,0.45,0.96,0.96,1.12c0.71,0.23,1.47-0.14,1.74-0.83l0.37-0.95l-1.93-1.12
				c0.74-0.02,1.21-0.88,0.79-1.54c-0.87-1.38-1.37-3.79-0.43-5.43c0.94-1.63,3.28-2.4,4.91-2.35c0.78,0.03,1.29-0.8,0.94-1.46
				l1.93,1.12l0.64-0.79C252.42,65.68,252.35,64.83,251.8,64.34L251.8,64.34z"/>
			<path d="M252.95,75.18c1.91-3.31,0.72-7.57-2.66-9.53c-0.68-0.39-1.39-0.66-2.12-0.81c0.53,0.31,0.89,0.64,1.13,0.97
				c0.49,0.67-0.03,1.61-0.86,1.58c-1.63-0.06-3.97,0.71-4.91,2.35c-0.94,1.63-0.44,4.04,0.43,5.43c0.44,0.71-0.11,1.63-0.94,1.54
				c-0.4-0.04-0.87-0.19-1.4-0.49c0.49,0.55,1.08,1.04,1.76,1.43C246.75,79.59,251.04,78.49,252.95,75.18L252.95,75.18z"/>
		</g>
	</g>
	<g id="Pin_00000000920871033740894150000003153178647309756600_">
		<g>
			<path fill="#FF4365" d="M182.96,25.74c-2.6-5.02-7.08-8.8-12.48-10.51c-2.1-0.64-4.26-0.97-6.43-0.97
				c-2.17,0-4.33,0.32-6.43,0.97c-5.4,1.72-9.87,5.49-12.48,10.51c-1.59,3.02-2.41,6.38-2.41,9.81c0,12.95,8.29,18,15.4,29.12
				c4.32,6.7,3.11,10.7,5.91,10.7c0.01,0,0.01,0,0.02,0c0.01,0,0.01,0,0.02,0c2.79,0,1.59-4,5.91-10.7
				c7.11-11.11,15.4-16.16,15.4-29.12C185.38,32.12,184.55,28.75,182.96,25.74L182.96,25.74z M164.04,43.71
				c-4.5,0-8.14-3.65-8.14-8.14s3.65-8.14,8.14-8.14c4.5,0,8.14,3.65,8.14,8.14S168.54,43.71,164.04,43.71z"/>
			<circle fill="#131314" cx="164.04" cy="35.56" r="8.14"/>
		</g>
	</g>
</g>
</svg>
