<?xml version="1.0" encoding="utf-8"?>
<!-- Generator: Adobe Illustrator 30.0.0, SVG Export Plug-In . SVG Version: 9.03 Build 0)  -->
<svg version="1.1" baseProfile="basic" id="Layer_1"
	 xmlns="http://www.w3.org/2000/svg" xmlns:xlink="http://www.w3.org/1999/xlink" x="0px" y="0px" width="124px" height="124px"
	 viewBox="0 0 124 124" xml:space="preserve">
<g>
	<g id="Road_00000026869399675688728000000017749345553166248112_">
		<path fill="#313B6A" d="M62,21.05C29.69,21.05,3.5,39.38,3.5,62s26.19,40.95,58.5,40.95S120.5,84.62,120.5,62
			S94.31,21.05,62,21.05z M62,75.42c-10.59,0-19.17-6.01-19.17-13.42S51.41,48.58,62,48.58S81.17,54.59,81.17,62
			S72.59,75.42,62,75.42z"/>
		<g>
			<path fill="#576FA4" d="M62,91.06c-2,0-4.01-0.1-5.97-0.31l0.39-3.73c3.68,0.38,7.52,0.38,11.2,0l0.39,3.73
				C66.03,90.95,64.01,91.06,62,91.06z"/>
			<path fill="#576FA4" d="M44.29,88.19c-4-1.37-7.64-3.2-10.82-5.42l2.15-3.07c2.89,2.02,6.22,3.69,9.89,4.95L44.29,88.19z"/>
			<path fill="#576FA4" d="M79.74,88.18l-1.22-3.55c3.67-1.27,6.99-2.93,9.88-4.96l2.15,3.07C87.38,84.97,83.74,86.8,79.74,88.18z"
				/>
			<path fill="#576FA4" d="M24.89,74c-2.38-3.76-3.59-7.79-3.6-11.96l3.75-0.01c0.01,3.45,1.02,6.81,3.02,9.96L24.89,74z"/>
			<path fill="#576FA4" d="M99.13,73.96l-3.17-2c1.99-3.16,3-6.51,3-9.96v-0.06l3.75-0.02V62C102.71,66.17,101.51,70.2,99.13,73.96z
				"/>
			<path fill="#576FA4" d="M28.02,52.06l-3.18-1.99c2.07-3.29,4.95-6.25,8.57-8.79l2.16,3.07C32.37,46.6,29.83,49.19,28.02,52.06z"
				/>
			<path fill="#576FA4" d="M95.92,51.98c-1.82-2.86-4.37-5.45-7.58-7.69l2.15-3.08c3.62,2.53,6.51,5.47,8.6,8.76L95.92,51.98z"/>
			<path fill="#576FA4" d="M45.44,39.38l-1.23-3.55c3.71-1.28,7.65-2.15,11.73-2.58l0.39,3.73C52.55,37.39,48.88,38.19,45.44,39.38z
				"/>
			<path fill="#576FA4" d="M78.46,39.35c-3.44-1.18-7.11-1.98-10.91-2.37l0.39-3.73c4.08,0.42,8.03,1.28,11.74,2.55L78.46,39.35z"/>
		</g>
	</g>
	<g id="Car_00000114786582027404030750000005832936931523005839_">
		<g>
			<path fill="#FBBC04" d="M40.6,32.02l-0.16-1.89c-0.04-0.43-0.27-0.83-0.64-1.07c-3.45-2.28-8.54-3.69-13.18-3.53
				c-0.44,0.01-0.84,0.26-1.06,0.64l-0.6,1.04c0.74-0.02-1.94,3.04-0.73,3.21c4.36,0.6,11.55,1.82,12.87,3.63"/>
			<path fill="#FFE921" d="M43.99,33.87L43.99,33.87c-0.54-0.72-1.27-1.29-2.1-1.63l-1.32-0.54l0,0l-0.13-1.57
				c-0.07-0.24-0.4-0.29-0.52-0.07l-0.64,1.11l0,0c-0.02-0.01-0.04-0.01-0.06-0.02c-2.79-2.23-12.46-4.2-14.78-3.89
				c-0.58,0.07-1.11,0.41-1.41,0.94l-4.74,8.41c-0.29,0.52-0.52,1.07-0.67,1.65l-1.18,3.61l-5.11,9.07
				c-0.82,1.45-1.24,3.08-1.24,4.74v2.19c0,1.96,1.31,3.67,3.21,4.18l14.51,3.9c1.92,0.52,3.95-0.33,4.94-2.05l11-19.17
				c1.07-1.87,1.67-3.98,1.73-6.13C45.53,36.89,45.01,35.23,43.99,33.87z"/>
			<path d="M31.26,56.44c-1.1,1.15-2.73,1.61-4.27,1.2l-13.33-3.57c-1.8-0.48-2.66-2.53-1.75-4.16l-0.58,1.03
				c-0.68,1.2-1.09,2.53-1.21,3.9c0.22,1.67,1.43,3.08,3.1,3.52l13.47,3.61c2.08,0.56,4.22-0.61,4.88-2.66l0.57-1.78
				C32.47,56.5,31.64,56.09,31.26,56.44z"/>
			<path d="M36.54,59.26c0.66-3.67,0.4-6.77-0.59-6.95c-1-0.18-2.36,2.67-3.05,6.38c-0.4,2.16-0.47,4.09-0.26,5.36
				c-0.19,0.31-0.42,0.58-0.67,0.82c-0.01,0.01-0.02,0.02-0.03,0.02c-0.09,0.08-0.18,0.16-0.27,0.24c-0.01,0.01-0.03,0.02-0.05,0.04
				c-0.05,0.04-0.1,0.08-0.16,0.12l0,0l0.4,0.1l0,0l1.11,0.27c0.35,0.08,0.72,0.02,1.02-0.17c0.87-0.54,1.87-2.85,2.45-5.77
				c0,0,0-0.01,0-0.01c0.02-0.1,0.04-0.19,0.06-0.29c0-0.02,0.01-0.04,0.01-0.05c0-0.01,0-0.02,0-0.03c0-0.01,0-0.03,0.01-0.04
				C36.54,59.28,36.54,59.27,36.54,59.26z"/>
			
				<ellipse transform="matrix(0.1668 -0.986 0.986 0.1668 -29.1205 83.5749)" fill="#C26401" cx="34.89" cy="59.02" rx="3.56" ry="0.86"/>
			<path d="M43.91,38.48c-1-0.18-2.36,2.67-3.05,6.38c-0.4,2.16-0.47,4.09-0.26,5.36l-0.77,1.34l1.11,0.27
				c0.35,0.08,0.72,0.02,1.02-0.17c0.87-0.54,1.87-2.85,2.45-5.77c0,0,0-0.01,0-0.01c0.02-0.1,0.04-0.19,0.06-0.29
				c0-0.02,0.01-0.04,0.01-0.05c0-0.01,0-0.02,0-0.03c0-0.01,0-0.03,0.01-0.04c0-0.01,0-0.02,0.01-0.03
				C45.15,41.76,44.9,38.66,43.91,38.48z"/>
			
				<ellipse transform="matrix(0.1668 -0.986 0.986 0.1668 -8.8569 79.8906)" fill="#C26401" cx="42.84" cy="45.19" rx="3.56" ry="0.86"/>
			
				<linearGradient id="SVGID_1_" gradientUnits="userSpaceOnUse" x1="35.4099" y1="7356.4023" x2="16.8821" y2="7353.1353" gradientTransform="matrix(1 0 0 -1 0 7400)">
				<stop  offset="0.3259" style="stop-color:#000000"/>
				<stop  offset="0.4176" style="stop-color:#371C00"/>
				<stop  offset="0.5281" style="stop-color:#723B01"/>
				<stop  offset="0.6225" style="stop-color:#9D5101"/>
				<stop  offset="0.6958" style="stop-color:#B85F01"/>
				<stop  offset="0.7391" style="stop-color:#C26401"/>
				<stop  offset="0.755" style="stop-color:#C06301"/>
				<stop  offset="0.7608" style="stop-color:#B96001"/>
				<stop  offset="0.7649" style="stop-color:#AE5901"/>
				<stop  offset="0.7682" style="stop-color:#9D5101"/>
				<stop  offset="0.771" style="stop-color:#874501"/>
				<stop  offset="0.7736" style="stop-color:#6B3701"/>
				<stop  offset="0.7758" style="stop-color:#4B2700"/>
				<stop  offset="0.7779" style="stop-color:#271400"/>
				<stop  offset="0.7796" style="stop-color:#000000"/>
				<stop  offset="1" style="stop-color:#000000"/>
			</linearGradient>
			<path fill="url(#SVGID_1_)" d="M32.76,41.94C32.77,41.94,32.77,41.94,32.76,41.94c-1.97,0.96-6.55,0.62-9.03-0.02
				c-2.74-0.71-5.75-1.73-6.11-3.65l-2.83,8.66c-0.03,0.08-0.04,0.16-0.05,0.24h0c-0.35,2.18,1.83,3.7,6.28,4.91
				c3.8,1.04,7.71,1.65,10.62,0.49L32.76,41.94z"/>
			<path d="M40.74,34.34l-1.99-0.52c-0.45-0.12-0.91,0.08-1.04,0.31l-2.81,4.9c-0.55,0.96-0.86,2.05-0.89,3.16l-0.12,4.67
				c-0.02,0.76,0.47,1.44,1.19,1.66l6.71-11.69C42.34,35.86,41.82,34.62,40.74,34.34z"/>
			<path fill="#FDDB00" d="M35.08,48.52c-0.73-0.22-1.22-0.9-1.19-1.66l0.12-4.67c0.03-1.11,0.33-2.2,0.89-3.16l-1.07,1.87
				c-0.21,0.37-0.36,0.54-0.52,0.69c-0.14,0.13-0.32,0.25-0.53,0.35l-1.13,10.62c0.24-0.1,0.47-0.2,0.69-0.32
				c0.25-0.11,0.49-0.25,0.7-0.43l0,0l0,0c0.21-0.19,0.4-0.41,0.55-0.67L35.08,48.52L35.08,48.52z"/>
			<g>
				
					<ellipse transform="matrix(0.5 -0.866 0.866 0.5 -38.3015 53.4943)" fill="#FFFFFF" cx="27.18" cy="59.92" rx="1.56" ry="1.96"/>
				<ellipse transform="matrix(0.5 -0.866 0.866 0.5 -41.9027 39.164)" fill="#FFFFFF" cx="12.97" cy="55.87" rx="1.56" ry="1.96"/>
			</g>
			<g>
				<path fill="#FBBC04" d="M15.93,43.44L15.93,43.44c-0.31-0.2-0.57-0.47-0.77-0.79l-1.51-2.43c-0.12-0.19-0.33-0.31-0.56-0.31l0,0
					c-0.36,0-0.66,0.29-0.66,0.66v1.53c0,0.67,0.36,1.29,0.94,1.61l2.08,1.17L15.93,43.44z"/>
				<path fill="#FBBC04" d="M24.52,63.05l-9.95-2.67c-0.59-0.16-1.18,0.28-1.19,0.89l-0.02,0.79l12.39,3.33v-0.74
					C25.76,63.9,25.25,63.25,24.52,63.05z"/>
				<path fill="#FBBC04" d="M34.02,48.68L34.02,48.68c-0.35,0-0.64,0.29-0.64,0.64l0,0c0,0.33,0.26,0.61,0.59,0.64l4.06,0.32
					c0.65,0.05,1.21-0.46,1.21-1.11v-1.25c0-0.64-0.66-1.06-1.24-0.8l-2.96,1.35C34.71,48.6,34.36,48.68,34.02,48.68z"/>
			</g>
		</g>
	</g>
</g>
</svg>
