<?xml version="1.0" encoding="utf-8"?>
<!-- Generator: Adobe Illustrator 30.0.0, SVG Export Plug-In . SVG Version: 9.03 Build 0)  -->
<svg version="1.1" baseProfile="basic" id="Layer_1"
	 xmlns="http://www.w3.org/2000/svg" xmlns:xlink="http://www.w3.org/1999/xlink" x="0px" y="0px" width="124px" height="124px"
	 viewBox="0 0 124 124" xml:space="preserve">
<g>
	<g id="BG_00000031909021769753692590000016544932325592768181_">
		<path fill="#FFDBD0" d="M72.8,3.5H51.21c-8.6,0-16.85,3.42-22.94,9.5L13,28.27C6.92,34.35,3.5,42.6,3.5,51.2V72.8
			c0,8.6,3.42,16.85,9.5,22.94L28.27,111c6.08,6.08,14.33,9.5,22.94,9.5H72.8c8.6,0,16.85-3.42,22.94-9.5L111,95.73
			c6.08-6.08,9.5-14.33,9.5-22.94V51.2c0-8.6-3.42-16.85-9.5-22.94L95.73,13C89.65,6.92,81.4,3.5,72.8,3.5z"/>
		<g>
			<path fill="#FFFFFF" d="M25.42,53.22c-0.94,0-1.82,0.25-2.58,0.68l0,0c-0.71,0.4-1.61,0.15-2.02-0.55
				c-1.2-2.14-3.49-3.58-6.12-3.58c-3.43,0-6.28,2.46-6.89,5.71c-0.34,1.68-1.97,2.77-3.65,2.44l0,0c-0.18-0.04-0.37-0.05-0.56-0.05
				c-0.03,0-0.06,0-0.09,0v5.93c0.03,0,0.06,0,0.09,0h21.82l-0.11-0.08c0.04,0,0.07,0,0.11,0c2.9,0,5.25-2.35,5.25-5.25
				C30.67,55.57,28.32,53.22,25.42,53.22z"/>
			<path fill="#FFFFFF" d="M120.5,51.2c0-2.44-0.28-4.85-0.81-7.19c-0.39,0.08-0.81,0.07-1.22-0.04c-0.32-0.09-0.65-0.13-0.99-0.13
				c-0.89,0-1.72,0.31-2.36,0.83v0c0,0-0.01,0.01-0.01,0.01c-0.54,0.43-1.27,0.5-1.9,0.21c-0.86-0.4-1.64-0.99-2.29-1.77l0,0
				c-0.92-1.11-2.31-1.82-3.87-1.82c-2.39,0-4.38,1.66-4.9,3.89v0c-0.05,0.23-0.3,0.35-0.51,0.26c-0.43-0.19-0.91-0.28-1.42-0.26
				c-1.55,0.09-2.81,1.33-2.91,2.88c-0.12,1.8,1.31,3.3,3.09,3.3h20.11L120.5,51.2L120.5,51.2z"/>
		</g>
		<path id="bird_00000096771543321820046220000018178714472944937663_" fill="#FFFFFF" d="M36.69,27.79c0-0.03-0.01-0.05-0.02-0.07
			c-0.02-0.06-0.03-0.12-0.05-0.18c-0.4-1.09-1.87-1.38-2.8-1.05c-1.53,0.48-2.68,1.66-3.54,3.97c-0.33,0.89-0.51,1.35-0.8,1.52
			c-0.1,0.05-0.2,0.06-0.27,0.06l0-0.01c-0.34,0.01-0.73-0.19-1.55-0.84c-1.94-1.53-3.54-1.93-5.09-1.55
			c-0.96,0.21-2.07,1.22-1.84,2.36c0.01,0.06,0.03,0.12,0.05,0.18c0.01,0.02,0.01,0.05,0.02,0.07c0.27,0.67,1.08,1.48,2.39,0.96
			c1.26-0.46,2.44-0.62,3.46-0.35l0,0c1.29,0.29,1.59,1.14,2,1.83v0c0.22,0.41,0.65,0.7,1.15,0.73c0.78,0.05,1.44-0.54,1.49-1.32
			c0.01-0.1,0-0.19-0.01-0.28c-0.03-0.77-0.14-1.6,0.76-2.47l0,0c0.73-0.77,1.81-1.25,3.13-1.51C36.54,29.63,36.81,28.5,36.69,27.79
			z"/>
		<path fill="#47A1FB" d="M111.39,95.34c4.7-4.7,7.74-10.74,8.74-17.23c-9.55-4.37-22.58-6.14-32.84-2.93
			c-18.17,5.68-29.49,8.67-45.45,1.7c-15.36-6.71-26.65-7.76-38.33-2.72c0.21,7.95,3.46,15.54,9.1,21.18l16.05,16.05
			c5.83,5.83,13.74,9.11,21.99,9.11h22.7c8.25,0,16.16-3.28,21.99-9.11L111.39,95.34z"/>
	</g>
	<g id="Bottle_00000160149832644194034720000015530334021878946966_">
		<path fill="#FFFFFF" d="M79.82,39.94c-2.17-1.79-2.26-3.07-1.86-4.55l2.35-8.67c1.78,0,3.41-1.19,3.9-3l0,0
			c0.58-2.16-0.69-4.39-2.86-4.97L67.9,15.12c-2.16-0.58-4.39,0.69-4.97,2.86l0,0c-0.49,1.8,0.32,3.65,1.86,4.55l-2.35,8.67
			c-0.4,1.47-1.13,2.54-3.9,2.99c-2.77,0.45-11.97,1.06-15.64,14.65c-1.37,5.06-4.41,16.31-6.95,25.68c1.9,0.69,3.85,1.47,5.88,2.36
			c14.19,6.2,24.71,4.52,39.65,0.08c-0.07,0.27-0.15,0.54-0.22,0.81c2.12-7.84,4.1-15.14,4.68-17.3
			C89.62,46.89,81.99,41.73,79.82,39.94z"/>
		<path fill="#E37400" d="M67.43,15.02c0.16,0.02,0.32,0.06,0.48,0.1l13.45,3.64c0.16,0.04,0.31,0.1,0.46,0.15
			c0.31-0.67,0.78-1.7,1.08-2.42c0.48-1.13,0.15-2.11-1.07-2.43c-0.83-0.23-3.64-0.98-5.32-1.44c0,0-0.54-0.14-1.31-0.35
			c-1.68-0.46-4.49-1.21-5.32-1.44c-1.22-0.33-1.99,0.35-2.15,1.57C67.62,13.16,67.5,14.29,67.43,15.02z"/>
		<path fill="#9FD5FF" d="M75.01,100.89c0.47-1.75,3.49-12.89,6.25-23.12c0.07-0.27,0.15-0.54,0.22-0.81
			c-14.93,4.44-25.46,6.12-39.65-0.08c-2.03-0.89-3.98-1.67-5.88-2.36c-2.02,7.48-3.72,13.77-3.99,14.74
			c-0.03,0.12-0.05,0.23-0.06,0.34c-0.83,3.93-0.3,6.69,0.38,8.34c0,0,0,0.01,0.01,0.01c0.84,2.36,2.78,4.28,5.37,4.98
			c1.43,0.39,2.88,0.35,4.21-0.03l0,0c0,0,0,0,0,0c0.48-0.14,0.94-0.32,1.38-0.54c2.1-0.76,5.35-1.64,7.96-0.93
			c0.25,0.05,0.69,0.18,0.95,0.25c0.02,0.01,0.05,0.02,0.07,0.03c2.62,0.71,4.98,3.11,6.41,4.82c0.27,0.41,0.58,0.8,0.92,1.16
			c0,0,0,0,0,0l0,0c0.96,1,2.19,1.76,3.62,2.14c2.6,0.7,5.24,0.02,7.15-1.59c0,0,0.01,0,0.01-0.01c1.42-1.08,3.27-3.19,4.53-7.01
			C74.94,101.12,74.98,101.02,75.01,100.89z"/>
	</g>
	<g id="Pin_00000151539109547441835200000011619651964533928866_">
		<path fill="#FF2361" d="M77.58,53.96c-2.15-4.13-5.83-7.25-10.28-8.66c-1.73-0.53-3.51-0.8-5.3-0.8c-1.79,0-3.57,0.27-5.3,0.8
			c-4.45,1.41-8.14,4.53-10.28,8.66c-1.31,2.49-1.99,5.26-1.99,8.08c0,10.67,6.83,14.83,12.69,23.99c3.56,5.52,2.56,8.82,4.87,8.82
			c0.01,0,0.01,0,0.01,0c0.01,0,0.01,0,0.01,0c2.3,0,1.31-3.3,4.87-8.82c5.86-9.16,12.69-13.32,12.69-23.99
			C79.57,59.22,78.89,56.45,77.58,53.96z M61.99,68.77c-3.71,0-6.71-3-6.71-6.71c0-3.71,3-6.71,6.71-6.71c3.71,0,6.71,3,6.71,6.71
			C68.7,65.77,65.7,68.77,61.99,68.77z"/>
		<path fill="#2F3793" d="M71.63,79.56c-6.5,1.4-12.4,1.86-18.65,0.77c1.37,1.73,2.78,3.58,4.14,5.71c3.56,5.52,2.56,8.82,4.87,8.82
			c0.01,0,0.01,0,0.01,0c0.01,0,0.01,0,0.01,0c2.3,0,1.31-3.3,4.87-8.82C68.44,83.6,70.08,81.51,71.63,79.56z"/>
	</g>
</g>
</svg>
