<?xml version="1.0" encoding="utf-8"?>
<svg version="1.1" id="Layer_1" xmlns="http://www.w3.org/2000/svg" xmlns:xlink="http://www.w3.org/1999/xlink" x="0px" y="0px" width="36px" height="36px" viewBox="0 0 36 36" enable-background="new 0 0 36 36" xml:space="preserve">
    <path fill="#FFFFFF" d="M18,36L18,36C8.06,36,0,27.94,0,18l0,0C0,8.06,8.06,0,18,0l0,0c9.94,0,18,8.06,18,18l0,0
	C36,27.94,27.94,36,18,36z"></path>
    <path fill="#0F53FF" d="M18,32L18,32c-7.73,0-14-6.27-14-14l0,0c0-7.73,6.27-14,14-14l0,0c7.73,0,14,6.27,14,14l0,0
	C32,25.73,25.73,32,18,32z"></path>
    <path fill="#FFFFFF" d="M17.91,24.67l5.16-12.19L22.61,12l-4.55,2l-4.5-2l-0.48,0.47L17.91,24.67L17.91,24.67z"></path>
</svg>