<?xml version="1.0" encoding="utf-8"?>
<!-- Generator: Adobe Illustrator 30.0.0, SVG Export Plug-In . SVG Version: 9.03 Build 0)  -->
<svg version="1.1" baseProfile="basic" id="Layer_1"
	 xmlns="http://www.w3.org/2000/svg" xmlns:xlink="http://www.w3.org/1999/xlink" x="0px" y="0px" width="152px" height="85px"
	 viewBox="0 0 152 85" xml:space="preserve">
<g>
	<g id="Island_00000040566044151943002560000007165663016498831013_">
		<g>
			<path fill="#C1D992" d="M87.76,75.37L39.7,62.61c-3.06-0.81-4.51-3.24-3.24-5.42l20.09-34.42c1.27-2.18,4.79-3.28,7.84-2.46
				l47.95,12.93c3.03,0.82,4.46,3.24,3.19,5.41L95.55,72.89C94.28,75.06,90.79,76.17,87.76,75.37L87.76,75.37z"/>
			<polygon fill="#EAEED6" points="67.06,33.85 63.41,33.12 58.17,42.23 46.97,39.19 45.13,42.34 60.05,46.4 60.06,46.4 
				66.96,48.28 68.23,44.97 61.69,43.19 			"/>
			<polygon fill="#EAEED6" points="104.03,58.36 88.88,54.24 89.58,50.78 105.87,55.2 			"/>
		</g>
	</g>
	<g id="Navigation_Path">
		<g>
			
				<rect x="77.08" y="37.85" transform="matrix(0.2622 -0.965 0.965 0.2622 10.226 112.7448)" fill="#06B0FF" width="3.53" height="23.66"/>
			
				<rect x="72.76" y="59.25" transform="matrix(0.4988 -0.8667 0.8667 0.4988 -10.4804 103.8969)" fill="#06B0FF" width="23.66" height="3.53"/>
			
				<rect x="65.09" y="39.44" transform="matrix(0.9113 -0.4118 0.4118 0.9113 -10.1405 35.3365)" fill="#06B0FF" width="23.66" height="3.53"/>
			<ellipse fill="#06B0FF" cx="77.19" cy="73.84" rx="12.52" ry="8.66"/>
			<ellipse fill="#202FAE" cx="87.57" cy="35.94" rx="5.1" ry="3.53"/>
			<ellipse fill="#202FAE" cx="66.96" cy="46.01" rx="5.1" ry="3.53"/>
			<ellipse fill="#202FAE" cx="89.23" cy="52.34" rx="5.1" ry="3.53"/>
			<g>
				<ellipse fill="#202FAE" cx="77.19" cy="73.84" rx="8.57" ry="5.93"/>
				<path fill="#F4F5F5" d="M79.52,69.92c-0.09,0-0.18,0.05-0.22,0.12l0,0l-7.33,5.46l0,0l-0.01,0.01l0,0
					c-0.06,0.05-0.11,0.13-0.11,0.22c0,0.15,0.12,0.27,0.28,0.27c0.02,0,0.04,0,0.06-0.01c0.48-0.06,3.67-0.44,3.93-0.46
					c0.28-0.03,0.48-0.1,0.62,0.06s2.16,2.57,2.16,2.57l0,0c0.05,0.06,0.12,0.09,0.21,0.09c0.15,0,0.28-0.12,0.28-0.28l0.43-7.79
					C79.8,70.04,79.67,69.92,79.52,69.92L79.52,69.92z"/>
			</g>
		</g>
	</g>
	<g id="Flower">
		<g>
			<ellipse fill="#FFC8A0" cx="51.33" cy="37.72" rx="6.38" ry="5.24"/>
			
				<radialGradient id="SVGID_1_" cx="51.5968" cy="11463.5527" r="5.7905" fx="48.4411" fy="11463.5527" gradientTransform="matrix(1.0001 0 0 -1.0001 -0.2373 11500.4678)" gradientUnits="userSpaceOnUse">
				<stop  offset="0.22" style="stop-color:#FF8379"/>
				<stop  offset="1" style="stop-color:#FFC8A0;stop-opacity:0"/>
			</radialGradient>
			<path fill="url(#SVGID_1_)" d="M51.33,32.49c-2.81,0-5.19,1.49-6.04,3.56c1.61-0.58,3.42,0.41,3.76,1.73
				c0.63-0.32,1.42-0.52,2.28-0.52c0.86,0,1.65,0.19,2.28,0.52c0.35-1.33,2.03-2.36,3.73-1.8l0.01-0.01
				C56.46,33.94,54.1,32.49,51.33,32.49L51.33,32.49z"/>
			<path fill="#365556" d="M57.45,53.58c0-2.43-2.73-4.4-6.1-4.4s-6.1,1.97-6.1,4.4c0,0.41,0.08,0.8,0.22,1.17h0l1.51,4.1l0,0
				c0.35,1.51,2.17,2.66,4.37,2.66c2.2,0,4.02-1.15,4.37-2.66l1.51-4.1l0,0C57.38,54.37,57.45,53.98,57.45,53.58L57.45,53.58z"/>
			<ellipse fill="#DEE49D" cx="51.35" cy="53.58" rx="4.56" ry="3.14"/>
			<path d="M51.35,51.82c2.17,0,3.98,1.05,4.44,2.45c0.07-0.22,0.11-0.46,0.11-0.69c0-1.74-2.04-3.14-4.56-3.14
				s-4.56,1.41-4.56,3.14c0,0.24,0.04,0.47,0.11,0.69C47.36,52.87,49.18,51.82,51.35,51.82L51.35,51.82z"/>
			<path fill="#34A853" d="M46.95,45.09c-0.03-0.36-0.16-3.08-2.73-4.53c-2.57-1.44-4.71,0.2-4.22,2.91s4.48,4.59,7.36,5.44
				c0.76,0.22,1.29,0.55,1.67,0.93l0,0c0.88,0.78,1.52,2.36,1.52,4.07v-6C50.44,42.81,47.53,43.31,46.95,45.09z"/>
			<path fill="#33CA98" d="M53.59,42.63L53.59,42.63c-0.71,0.22-1.47,0.34-2.26,0.34c-0.79,0-1.56-0.12-2.26-0.34h0
				c0.66,0.66,1.49,1.04,1.49,3.49v7.86h0c0,0.25,0.34,0.45,0.77,0.45c0.42,0,0.77-0.2,0.77-0.45h0c0-0.01,0-0.01,0-0.02
				c0-0.01,0-0.03,0-0.04v-7.8C52.1,43.67,52.93,43.29,53.59,42.63L53.59,42.63z"/>
		</g>
	</g>
	<g id="Buildings__x26__Trees">
		<g>
			<path fill="#365555" d="M72.55,53.1l-3.58-0.98c-1.92-0.52-3.58,0.1-4.4,1.45h0l-2.44,4.24h0c0.81-1.39,2.49-2.03,4.44-1.5
				l3.58,0.98c2.74,0.75,4.96,3.55,4.96,6.26v0.21c0,0.26-0.02,0.51-0.06,0.75l0.01,0.01l2.4-4.19c0.04-0.24,0.06-0.49,0.06-0.75
				v-0.21C77.51,56.65,75.29,53.84,72.55,53.1L72.55,53.1z"/>
			<path fill="#F4F5F5" d="M75.04,64.51l-13.36-3.55l0,0c-0.05-0.29-0.08-0.59-0.08-0.88v-0.21c0-2.71,2.22-4.3,4.96-3.56l3.58,0.98
				c2.74,0.75,4.96,3.55,4.96,6.26v0.21C75.1,64.02,75.08,64.28,75.04,64.51L75.04,64.51L75.04,64.51z"/>
			<path fill="#A09D25" d="M98.32,43.03c0.28-0.49,0.58-1,0.9-1.53c1.39-2.37,1.49-4.21-1.14-4.92c-0.84-0.23-1.83-0.49-2.61-0.7
				h-0.02v5.75c0,0.37,0.25,0.7,0.61,0.79c0.65,0.18,1.38,0.37,2.02,0.54C98.16,42.98,98.24,43,98.32,43.03L98.32,43.03z"/>
			<path fill="#A09D25" d="M104.92,42.01c-1.12,1.91-1.89,3.25-1.89,3.25l-0.02,0.03c-0.18-0.05-0.36-0.1-0.46-0.13
				c-0.84-0.23-3.93-1.06-4.72-1.27h-0.01v5.58c0,0.47,0.31,0.88,0.77,1c1.23,0.33,3.3,0.89,3.97,1.07
				c0.11,0.03,0.28,0.08,0.46,0.13l0.02-0.03c0,0,0.77-1.34,1.89-3.25c0.82-1.39,1.04-2.71,1.03-3.79l0,0v-6.25l0,0
				C105.94,39.4,105.7,40.67,104.92,42.01L104.92,42.01z"/>
			<path fill="#F4F5F5" d="M97.65,32.1c-1.28,2.18-2.19,3.77-2.19,3.77l0,0c0.78,0.21,1.78,0.48,2.62,0.71
				c2.63,0.71,2.53,2.55,1.14,4.92c-0.51,0.86-0.98,1.67-1.4,2.39l0,0c0.78,0.21,3.89,1.04,4.73,1.27l0,0
				c0.11,0.03,0.28,0.08,0.46,0.13l0.01-0.03c0,0,0.77-1.34,1.89-3.25c1.12-1.91,1.12-3.69,0.95-4.87c-0.17-1.18-1.12-3.1-3.51-3.76
				c-0.84-0.23-3.95-1.07-4.73-1.28l0,0"/>
			<path fill="#F4F5F5" d="M72.16,32.13c-0.47,0.66-0.99,0.32-1.3-0.37c-0.26-0.55-2.12-4.78-2.64-5.9
				c-0.51-1.12-1.27-0.98-1.85-0.35c-0.58,0.63-3.28,3.69-3.77,4.23c-0.49,0.55-0.63,0.14-0.78-0.26c-0.14-0.4-1.32-5.04-1.5-5.61
				c-0.16-0.52-0.69-0.57-0.98-0.15l-0.04,0.07c-0.26,0.58-1.42,3.7-1.77,4.62c-0.35,0.92-0.38,1.04-0.38,1.67v1.81h0
				c-0.01,0.43,0.35,0.82,0.94,0.98l12.31,3.27c0.78,0.21,1.67-0.08,2-0.63l2.22-3.81c0.08-0.14,0.12-0.29,0.12-0.43l0,0v-2.99
				C74.76,28.28,72.71,31.36,72.16,32.13L72.16,32.13z"/>
			<path fill="#A09D25" d="M59.31,23.8l3.32-5.68l0.01-0.01c0.26-0.58,0.89-0.58,1.06,0c0.17,0.58,1.35,5.21,1.5,5.61
				c0.14,0.4,0.29,0.81,0.78,0.26c0.49-0.55,3.19-3.6,3.77-4.23c0.58-0.63,1.33-0.78,1.85,0.35c0.44,0.97,1.9,4.27,2.45,5.49
				c0.23,0.49,0.28,0.6,0.41,0.86c0.13,0.26,0.31,0.6,0.31,1.83c0,0-2.05,3.07-2.6,3.85c-0.47,0.66-0.99,0.32-1.3-0.37
				c-0.26-0.55-2.12-4.78-2.64-5.9c-0.51-1.12-1.27-0.98-1.85-0.35c-0.58,0.63-3.28,3.68-3.77,4.23c-0.49,0.55-0.63,0.14-0.78-0.26
				c-0.14-0.4-1.32-5.04-1.5-5.61c-0.17-0.58-0.81-0.58-1.06,0"/>
			<polygon fill="#FAAE05" points="66.25,28.12 66.25,30.16 67.67,30.53 67.67,28.53 			"/>
			<g>
				<path fill="#34A853" d="M95.6,67.25L95.6,67.25L95.6,67.25c-0.01-0.04-0.03-0.08-0.05-0.11l-1.96-4.86l0,0
					c-0.09-0.36-0.42-0.62-0.81-0.62s-0.71,0.26-0.81,0.62l0,0l-1.96,4.86c-0.06,0.13-0.1,0.28-0.1,0.42c0,0.9,1.28,1.63,2.87,1.63
					s2.87-0.73,2.87-1.63C95.66,67.46,95.64,67.35,95.6,67.25L95.6,67.25z"/>
				<path fill="#34A853" d="M99.71,60.11L99.71,60.11L99.71,60.11c-0.01-0.04-0.03-0.08-0.05-0.11l-1.96-4.86l0,0
					c-0.09-0.36-0.42-0.62-0.81-0.62s-0.71,0.27-0.81,0.62l0,0l-1.96,4.86c-0.06,0.13-0.1,0.28-0.1,0.42c0,0.9,1.28,1.63,2.86,1.63
					s2.87-0.73,2.87-1.63C99.76,60.31,99.74,60.21,99.71,60.11L99.71,60.11z"/>
				<path fill="#34A853" d="M82,31.89L82,31.89L82,31.89c-0.01-0.04-0.03-0.08-0.05-0.11L80,26.92l0,0
					c-0.09-0.36-0.42-0.62-0.81-0.62s-0.71,0.26-0.81,0.62l0,0l-1.96,4.86c-0.06,0.14-0.1,0.28-0.1,0.42c0,0.9,1.28,1.63,2.87,1.63
					s2.87-0.73,2.87-1.63C82.06,32.1,82.04,31.99,82,31.89L82,31.89z"/>
			</g>
		</g>
	</g>
	<g id="Pins_00000089558845946155140950000004907190444423235495_">
		<g>
			<path fill="#FF4365" d="M98.57,9.1c-1.5-2.88-4.07-5.06-7.17-6.04c-1.21-0.37-2.45-0.56-3.7-0.56s-2.49,0.19-3.7,0.56
				c-3.1,0.99-5.68,3.16-7.17,6.04c-0.91,1.73-1.39,3.67-1.39,5.64c0,7.45,4.76,10.35,8.85,16.74c2.48,3.85,1.79,6.15,3.4,6.15
				c0,0,0.01,0,0.01,0c0,0,0.01,0,0.01,0c1.61,0,0.91-2.3,3.39-6.15c4.09-6.39,8.85-9.29,8.85-16.74
				C99.96,12.77,99.48,10.83,98.57,9.1L98.57,9.1z"/>
			<circle fill="#FFFFFF" cx="87.7" cy="14.74" r="4.68"/>
		</g>
	</g>
</g>
</svg>
