<?xml version="1.0" encoding="utf-8"?>
<!-- Generator: Adobe Illustrator 30.0.0, SVG Export Plug-In . SVG Version: 9.03 Build 0)  -->
<svg version="1.1" baseProfile="basic" id="Layer_1"
	 xmlns="http://www.w3.org/2000/svg" xmlns:xlink="http://www.w3.org/1999/xlink" x="0px" y="0px" width="288px" height="288px"
	 viewBox="0 0 288 288" xml:space="preserve">
<g>
	<g id="Hand_00000177478848862018773240000006019411422559422630_">
		<path fill="#E08D53" d="M204.41,111.7c0-6.4-5.19-11.6-11.6-11.6c-3.62,0-6.85,1.66-8.98,4.26l0,0
			c-8.33,10.2-17.67,19.52-27.86,27.85l16.32,16.31c8.33-10.2,17.67-19.52,27.86-27.85l0,0
			C202.76,118.57,204.41,115.33,204.41,111.7L204.41,111.7L204.41,111.7z"/>
		<path fill="#E59A5C" d="M174,209.08l-29.93,3.71l-20.14,1.87c4.33-5.66,6.9-12.74,6.9-20.42c0-12.01-6.3-22.55-15.77-28.49
			c-12.41-7.89-19.97-21.54-20.08-36.24l0,0c-0.05-7.16-6.01-12.9-13.23-12.63c-6.58,0.26-11.95,5.6-12.22,12.18
			c-0.09,2.2,0.38,4.28,1.27,6.12c6.33,13.24,5.51,28.79-2.15,41.31c-3.21,5.15-5.07,11.24-5.07,17.76s1.87,12.65,5.1,17.81
			c6.83,11.07,7.58,28.1,2.8,40.95c-0.41,1.09,72.95,25.44,72.95,25.44c0.89,0-0.23-10.06-0.25-10.95c-0.01-0.35-0.1-3.2-0.1-3.23
			c0.04-3.47,0.17-20.12,7.65-25.67c9.13-6.78,30.05-15.78,33.47-27.45l-11.18-2.05l0,0L174,209.08z"/>
		<path fill="#E37400" d="M72.66,168.03c0,0-1.53-4.69,0.31-9.44c1.83-4.76,6.4-7.61,15.68-6.51c1.74,0.21,3.34,0.61,4.8,1.13
			c6.28,2.25,9.77,6.68,9.77,6.68l-8.44,11.35c0,0-1.28-2.21-4.1-4.02c-1.92-1.24-4.55-2.28-7.97-2.31
			C75.87,164.84,72.67,168.03,72.66,168.03L72.66,168.03L72.66,168.03z"/>
		<path fill="#004E41" d="M158.31,221.37l31.1-146.7c1.13-5.35-2.95-10.39-8.42-10.39h-61.49c-5.3,0-9.88,3.71-10.98,8.9
			L79.95,207.9c-2.5,11.8,6.5,22.9,18.56,22.9h48.17C152.3,230.79,157.14,226.87,158.31,221.37L158.31,221.37L158.31,221.37z"/>
		<path fill="#15173D" d="M83.61,209.89c-0.94,4.42,2.44,8.59,6.96,8.59h53.98c2.56,0,4.77-1.79,5.3-4.3l23.17-109.33h-67.16
			L83.61,209.89L83.61,209.89L83.61,209.89z"/>
		<path fill="#4766F4" d="M175.78,69.16h-53.87c-4.94,0-9.2,3.45-10.22,8.28l-5.81,27.42h67.16l6.57-30.99
			C180.12,71.44,178.27,69.16,175.78,69.16L175.78,69.16z"/>
		<path fill="#2F3793" d="M158.13,127.4h-23.28c-1.92,0-3.13-1.59-2.71-3.56l0,0c0.43-1.97,2.32-3.57,4.25-3.57h23.34
			c1.92,0,3.12,1.6,2.69,3.57l0,0C161.97,125.82,160.06,127.4,158.13,127.4L158.13,127.4z"/>
		<path fill="#003439" d="M152.43,97.65h-23.28c-1.92,0-3.13-1.59-2.71-3.56l0,0c0.43-1.97,2.32-3.57,4.25-3.57h23.34
			c1.92,0,3.12,1.6,2.69,3.57l0,0C156.27,96.06,154.35,97.65,152.43,97.65L152.43,97.65L152.43,97.65z"/>
		<path fill="#2F3793" d="M159.74,131.51h-28.31c-0.53,0-0.85-0.44-0.74-0.96l0,0c0.12-0.54,0.63-0.96,1.15-0.96h28.33
			c0.53,0,0.85,0.44,0.73,0.96l0,0C160.78,131.08,160.26,131.51,159.74,131.51L159.74,131.51L159.74,131.51z"/>
		<path fill="#2F3793" d="M150.13,163.62h-23.07c-1.9,0-3.1-1.56-2.7-3.49l0,0c0.42-1.93,2.3-3.5,4.2-3.5h23.11
			c1.9,0,3.09,1.57,2.67,3.5l0,0C153.93,162.06,152.04,163.62,150.13,163.62L150.13,163.62L150.13,163.62z"/>
		<path fill="#2F3793" d="M151.74,167.64h-28.04c-0.52,0-0.85-0.43-0.73-0.95l0,0c0.11-0.53,0.62-0.95,1.14-0.95h28.06
			c0.52,0,0.84,0.43,0.72,0.95l0,0C152.77,167.22,152.26,167.64,151.74,167.64L151.74,167.64L151.74,167.64z"/>
		<path fill="#2F3793" d="M141.69,202.54h-22.86c-1.88,0-3.08-1.53-2.68-3.43l0,0c0.41-1.89,2.27-3.44,4.16-3.44h22.9
			c1.89,0,3.07,1.54,2.65,3.44l0,0C145.44,201,143.56,202.54,141.69,202.54L141.69,202.54z"/>
		<path fill="#2F3793" d="M143.29,206.49h-27.78c-0.51,0-0.84-0.42-0.72-0.92l0,0c0.11-0.51,0.61-0.92,1.13-0.92h27.79
			c0.51,0,0.83,0.42,0.72,0.92l0,0C144.31,206.07,143.79,206.49,143.29,206.49L143.29,206.49z"/>
		<polygon fill="#06B0FF" points="103.43,201.93 97.11,201.93 113.46,123.7 119.94,123.7 		"/>
		<path fill="#394EC1" d="M125.41,125.9c-1.1,5.14-6.06,9.31-11.09,9.31s-8.25-4.16-7.18-9.31c1.06-5.16,6.05-9.37,11.1-9.37
			C123.29,116.54,126.51,120.74,125.41,125.9L125.41,125.9L125.41,125.9z"/>
		<path fill="#394EC1" d="M117.71,162.15c-1.07,5.05-5.98,9.13-10.97,9.13c-4.99,0-8.18-4.08-7.13-9.13
			c1.05-5.07,5.97-9.19,10.97-9.19C115.6,152.96,118.78,157.08,117.71,162.15L117.71,162.15z"/>
		<path fill="#394EC1" d="M109.57,201.09c-1.06,4.96-5.91,8.96-10.84,8.96c-4.94,0-8.11-4-7.09-8.96c1.03-4.97,5.89-9.02,10.86-9.02
			C107.47,192.08,110.63,196.12,109.57,201.09L109.57,201.09z"/>
		<path fill="#DF8D54" d="M189.77,161.78L189.77,161.78c0,0-0.02-0.01-0.02-0.02c-0.02-0.02-0.04-0.02-0.05-0.04
			c-8.63-5.33-15.92-12.57-21.29-21.16l0,0c-2.09-3.33-5.81-5.56-10.03-5.56c-6.54,0-11.84,5.3-11.84,11.84
			c0,3.37,1.41,6.4,3.66,8.56l0,0l23.84,23.46c2.15,2.93,5.63,4.83,9.54,4.83c6.54,0,11.84-5.3,11.84-11.84
			C195.41,167.61,193.15,163.87,189.77,161.78L189.77,161.78L189.77,161.78z"/>
		<path fill="#E29359" d="M182.13,178.76c-9.39-3.61-17.85-9.26-24.79-16.53l0,0c-2.15-2.26-5.2-3.68-8.57-3.68
			c-6.54,0-11.84,5.3-11.84,11.84c0,4.02,2.01,7.57,5.08,9.71l0,0c0.13,0.09,0.27,0.19,0.41,0.27l28.65,19.1
			c1.94,1.38,4.3,2.19,6.86,2.19c6.54,0,11.84-5.3,11.84-11.84C189.76,184.77,186.59,180.45,182.13,178.76L182.13,178.76
			L182.13,178.76z"/>
		<path fill="#E59B5D" d="M175.57,196.06L175.57,196.06c-6.25-0.75-12.22-3.03-17.38-6.64l0,0c-1.92-1.35-4.27-2.15-6.79-2.15
			c-6.54,0-11.84,5.3-11.84,11.84c0,4.8,2.85,8.93,6.96,10.79h0.02c0.44,0.21,0.89,0.39,1.36,0.53l21.06,8.03
			c0.63,0.32,1.31,0.57,2,0.76l0,0c1.02,0.29,2.09,0.44,3.21,0.44c6.54,0,11.84-5.3,11.84-11.84
			C186.02,201.75,181.46,196.76,175.57,196.06L175.57,196.06L175.57,196.06z"/>
		<path fill="#FFC8A0" d="M158.61,136.81c-1.34,0.47-2.51,1.48-3,2.8c-0.57,1.52-0.2,3.23,0.4,4.74c1.09,2.75,2.9,5.14,4.85,7.37
			c1.37,1.57,2.86,3.11,4.76,3.94c1.9,0.83,4.32,0.8,5.88-0.58c0.85-0.76,1.37-1.84,1.74-2.93c0.44-1.23,0.72-2.49,0.89-3.78
			c-2.09-2.46-4-5.05-5.73-7.8l0,0c-0.92-1.46-2.15-2.71-3.6-3.65C162.82,136.26,160.75,136.05,158.61,136.81L158.61,136.81z"/>
		<path fill="#FFC8A0" d="M146.08,163.48c-0.82,2.78,0.17,5.84,1.88,8.18c1.7,2.35,4.06,4.11,6.34,5.91
			c1.31,1.03,2.74,2.12,4.41,2.19c0.76,0.03,1.53-0.16,2.24-0.45c3.45-1.38,5.77-4.97,6.04-8.69c-3.47-2.48-6.7-5.28-9.64-8.37l0,0
			c-1.72-1.8-3.99-3.06-6.56-3.5c-2.21,0.68-4.04,2.52-4.7,4.75l0,0L146.08,163.48L146.08,163.48z"/>
		<path fill="#FFC8A0" d="M145.78,191.43c-0.75,2.73,0.31,5.74,2.25,7.8c1.94,2.06,4.64,3.26,7.39,3.9c2.6,0.6,5.63,0.64,7.59-1.17
			c0.82-0.75,1.37-1.76,1.81-2.79c0.66-1.53,1.14-3.15,1.43-4.8c0.03-0.2,0.06-0.41,0.09-0.61c-2.87-1.11-5.6-2.56-8.14-4.34l0,0
			c-1.92-1.35-4.27-2.15-6.79-2.15c-0.71,0-1.4,0.06-2.07,0.19C147.66,188.12,146.33,189.48,145.78,191.43L145.78,191.43
			L145.78,191.43z"/>
	</g>
	<path fill="#06B0FF" d="M141.34,32.83c58.73,0,106.5,52.3,106.5,116.59S200.06,266,141.34,266s-106.5-52.3-106.5-116.59
		S82.61,32.83,141.34,32.83 M141.34,18.83c-66.55,0-120.5,58.47-120.5,130.59S74.79,280,141.34,280s120.5-58.47,120.5-130.59
		S207.89,18.83,141.34,18.83L141.34,18.83z"/>
	<g>
		<ellipse fill="#394EC1" cx="48.67" cy="89.4" rx="38.12" ry="26.34"/>
		<path fill="#4285F4" d="M74.05,74.98c-0.87-3.3-1-6.74-0.39-10.1c0.11-0.52,0.2-1.06,0.27-1.59c-0.11,0.46-0.27,0.91-0.46,1.35
			c-0.54,1.26-1.39,2.45-2.5,3.55c-3.79,3.77-10.61,6.47-18.62,7.06h-6.75C37.6,74.67,30.78,71.97,27,68.19
			c-1.11-1.11-1.96-2.29-2.5-3.55c-0.19-0.44-0.34-0.89-0.46-1.35c0.07,0.53,0.16,1.07,0.27,1.59c0.4,2.17,0.48,4.37,0.26,6.55
			c-1.82-1.37-4.09-2.2-6.56-2.2c-6.01,0-10.88,4.88-10.88,10.88S12.02,91,18.02,91c2.16,0,4.17-0.63,5.87-1.72
			c3.09,10.98,13.16,19.02,25.11,19.02c14.4,0,26.09-11.68,26.09-26.09C75.08,79.71,74.73,77.28,74.05,74.98L74.05,74.98
			L74.05,74.98z M18.01,83.97c-2.14,0-3.86-1.72-3.86-3.86s1.72-3.86,3.86-3.86s3.86,1.72,3.86,3.86S20.15,83.97,18.01,83.97z"/>
		<path fill="#4285F4" d="M48.99,57.41c9.52,0,17.94,3.82,23.03,9.64c0.62-0.77,1.12-1.58,1.47-2.42c0.19-0.44,0.34-0.89,0.46-1.35
			c0.11-0.81,0.19-1.64,0.22-2.48C73.65,53.32,62.58,47.33,49,47.33s-24.66,5.98-25.17,13.48c0.03,0.84,0.11,1.66,0.22,2.48
			c0.11,0.46,0.27,0.91,0.46,1.35c0.36,0.84,0.86,1.64,1.47,2.42c5.08-5.83,13.49-9.64,23.03-9.64l0,0H48.99z"/>
		<path fill="#713700" d="M45.62,75.26h6.75c8.01-0.59,14.84-3.29,18.62-7.06c0.37-0.37,0.71-0.75,1.02-1.14
			c-5.08-5.83-13.49-9.64-23.03-9.64s-17.94,3.82-23.03,9.64c0.31,0.39,0.65,0.77,1.02,1.14C30.78,71.96,37.6,74.65,45.62,75.26
			L45.62,75.26L45.62,75.26z"/>
		<path fill="#394EC1" d="M42.11,42.4L42.11,42.4c-1.21-0.41-2.16-1.34-2.56-2.55l0,0c-1.33-3.94-5.04-6.77-9.43-6.77
			c-0.14,0-0.29,0-0.44,0.01l0,0c-2.44,0.11-4.8-0.94-6.35-2.82l0,0c-1.32-1.6-3.32-2.62-5.56-2.62c-3.99,0-7.21,3.23-7.21,7.21
			c0,3.27,2.18,6.03,5.16,6.92c2.31,0.69,4.18,2.41,5.05,4.67c1.39,3.82,5.05,6.53,9.35,6.53c0.81,0,1.59-0.1,2.35-0.28l0,0
			c1.24-0.3,2.54,0,3.53,0.8l0,0c1.11,0.91,2.53,1.45,4.07,1.45c3.55,0,6.44-2.88,6.44-6.44C46.51,45.66,44.67,43.25,42.11,42.4
			L42.11,42.4L42.11,42.4z"/>
		<path fill="#394EC1" d="M32.11,12.58c-1.03-0.11-1.92-0.34-2.35-1.55C28.68,8,25.54,6.11,22.28,6.72c-3.61,0.67-6,4.14-5.33,7.75
			c0.52,2.84,2.79,4.93,5.49,5.36c1.88,0.3,1.87,2.09,2.39,3.51c1.32,3.59,5.14,5.75,8.9,5.05c4.31-0.8,7.16-4.94,6.37-9.26
			c-0.42-2.27-1.9-4.29-3.93-5.44c-1.04-0.59-2.22-0.96-3.41-1.07c-0.22-0.02-0.44-0.04-0.64-0.06l0,0V12.58z"/>
	</g>
	<g>
		<ellipse fill="#394EBF" cx="234.69" cy="79.28" rx="37.06" ry="25.6"/>
		<rect x="205.57" y="64.36" fill="#009E7C" width="57.6" height="23.25"/>
		<path fill="#003439" d="M214.72,41.09h-6.16c-1.02,0-1.92,0.65-2.23,1.62l-6.12,18.56c-0.5,1.52,0.63,3.09,2.23,3.09h6.78
			L214.72,41.09L214.72,41.09L214.72,41.09z"/>
		<polygon fill="#005B5B" points="222.58,41.09 214.72,41.09 209.23,64.36 219.27,64.36 		"/>
		<polygon fill="#003439" points="230.44,41.09 222.58,41.09 219.27,64.36 229.3,64.36 		"/>
		<polygon fill="#005B5B" points="238.3,41.09 230.44,41.09 229.3,64.36 239.34,64.36 		"/>
		<polygon fill="#003439" points="246.16,41.09 238.3,41.09 239.34,64.36 249.37,64.36 		"/>
		<polygon fill="#005B5B" points="254.02,41.09 246.16,41.09 249.37,64.36 259.4,64.36 		"/>
		<path fill="#003439" d="M260.17,41.09h-6.15l5.39,23.27h6.8c1.6,0,2.74-1.56,2.24-3.08l-6.04-18.56
			C262.09,41.75,261.18,41.09,260.17,41.09L260.17,41.09L260.17,41.09z"/>
		<path fill="#A07043" d="M257.69,87.52c-1.51-0.25-3.05,0.29-3.46,1.2c-0.07,0.15-0.1,0.31-0.1,0.46v-0.01v4.51
			c0,0.75,0.83,1.44,2.09,1.64c1.51,0.25,3.05-0.29,3.46-1.2c0.06-0.15,0.1-0.3,0.1-0.44v-4.51l0,0
			C259.78,88.42,258.95,87.72,257.69,87.52L257.69,87.52L257.69,87.52z M254.57,90.08L254.57,90.08
			C254.56,90.07,254.56,90.07,254.57,90.08z M254.46,89.96c0,0-0.01-0.01-0.02-0.02C254.45,89.95,254.46,89.96,254.46,89.96z
			 M254.36,89.84c0,0-0.01-0.01-0.02-0.02C254.35,89.82,254.36,89.83,254.36,89.84z M254.13,89.29v0.01V89.29z M254.28,89.7
			c0,0,0-0.01,0-0.01C254.28,89.69,254.28,89.7,254.28,89.7z M254.21,89.58c0,0-0.01-0.01-0.01-0.02
			C254.21,89.57,254.21,89.57,254.21,89.58z M254.17,89.45c0,0,0-0.02-0.01-0.02C254.16,89.43,254.16,89.44,254.17,89.45z
			 M254.68,90.17c0,0,0.02,0.01,0.02,0.02C254.7,90.18,254.69,90.17,254.68,90.17z M255.74,90.69c0,0,0.02,0.01,0.04,0.01
			C255.76,90.71,255.75,90.7,255.74,90.69z M254.84,90.28c0,0,0.02,0.01,0.02,0.02C254.85,90.29,254.84,90.29,254.84,90.28z
			 M254.99,90.38L254.99,90.38C255,90.38,255,90.38,254.99,90.38z M255.15,90.47c0,0,0.02,0.01,0.03,0.02
			C255.17,90.48,255.16,90.47,255.15,90.47z M255.34,90.55c0,0,0.02,0.01,0.03,0.01C255.36,90.57,255.35,90.56,255.34,90.55z
			 M255.55,90.63L255.55,90.63L255.55,90.63z M255.97,90.75c0,0,0.02,0.01,0.04,0.01C255.99,90.76,255.98,90.75,255.97,90.75z
			 M259.76,89.28c0,0,0-0.01,0-0.02C259.76,89.26,259.76,89.27,259.76,89.28z M259.71,89.5c0,0,0.01-0.02,0.01-0.03
			C259.72,89.48,259.72,89.49,259.71,89.5z M259.74,89.39c0,0,0.01-0.02,0.01-0.03C259.75,89.38,259.75,89.39,259.74,89.39z"/>
		
			<ellipse transform="matrix(1 -0.002754335 0.002754335 1 -0.2229 0.7082)" fill="#33CA98" cx="257" cy="81.3" rx="9.63" ry="9.62"/>
		<ellipse fill="#33CA98" cx="234.32" cy="36.6" rx="15.18" ry="15.18"/>
		<path fill="#131314" d="M233.59,26.61c-0.44,0-0.79,0.36-0.79,0.79c0,0.04,0,0.07,0.01,0.11l0.25,3.28
			c0.03,0.41-0.29,0.75-0.7,0.75l0,0c-0.41,0-0.73-0.35-0.7-0.75l0.25-3.28c0-0.04,0.01-0.07,0.01-0.11c0-0.44-0.36-0.79-0.79-0.79
			s-0.79,0.36-0.79,0.79c0,0.04,0,0.07,0.01,0.11l0.25,3.26c0.03,0.41-0.29,0.78-0.69,0.78c-0.41,0-0.73-0.35-0.7-0.75l0.25-3.28
			c0-0.04,0.01-0.07,0.01-0.11c0-0.44-0.36-0.79-0.79-0.79s-0.79,0.36-0.79,0.79c0,0.03,0,0.06,0.01,0.09l0.25,5.35
			c0.05,0.97,0.72,1.76,1.61,2c0.23,0.06,0.37,0.29,0.33,0.52l-1.52,8.63l0,0c-0.02,0.14-0.04,0.28-0.04,0.42
			c0,1.44,1.17,2.6,2.6,2.6s2.6-1.17,2.6-2.6c0-0.15-0.01-0.29-0.04-0.42l0,0l-1.52-8.61c-0.04-0.25,0.11-0.47,0.35-0.53
			c0.92-0.22,1.61-1.03,1.65-2.01l0.25-5.35c0-0.03,0.01-0.06,0.01-0.09C234.38,26.97,234.02,26.61,233.59,26.61L233.59,26.61
			C233.58,26.61,233.59,26.61,233.59,26.61z"/>
		<path fill="#131314" d="M240.76,43.67L240.76,43.67l-0.96-4.21c-0.26-1.13-0.39-2.28-0.39-3.44V27.6c0-0.54-0.44-0.99-0.99-0.99
			c-0.44,0-0.82,0.29-0.94,0.69l0,0l-2.76,9.05c-0.23,0.76,0.34,1.53,1.14,1.53h1.08c0.59,0,1,0.6,0.77,1.15l-1.77,4.31
			c-0.15,0.33-0.23,0.68-0.23,1.06c0,1.42,1.16,2.57,2.57,2.57s2.57-1.16,2.57-2.57C240.85,44.15,240.82,43.9,240.76,43.67
			L240.76,43.67L240.76,43.67z"/>
		<path fill="#003439" d="M224.42,71.06h-8.44c-1.28,0-2.33,1.04-2.33,2.33v14.22h13.11V73.39
			C226.76,72.1,225.71,71.06,224.42,71.06L224.42,71.06z"/>
	</g>
	<g>
		<path fill="#394EBF" d="M277.22,215.12c0,15.04-17.65,27.24-39.42,27.24s-39.42-12.19-39.42-27.24
			c0-15.04,17.65-24.65,39.42-24.65S277.22,200.08,277.22,215.12L277.22,215.12z"/>
		<g id="Objects_00000011741396866894350930000005648337330227188622_">
			<path d="M261.44,214.52c-3.6,0-6.52,2.92-6.52,6.52s2.92,6.52,6.52,6.52s6.52-2.92,6.52-6.52S265.04,214.52,261.44,214.52z
				 M261.44,223.44c-1.33,0-2.4-1.08-2.4-2.4c0-1.32,1.08-2.4,2.4-2.4s2.4,1.08,2.4,2.4S262.76,223.44,261.44,223.44z"/>
			<path d="M241.23,214.52c-3.6,0-6.52,2.92-6.52,6.52s2.92,6.52,6.52,6.52c3.6,0,6.52-2.92,6.52-6.52
				C247.74,217.44,244.83,214.52,241.23,214.52z M241.23,223.44c-1.33,0-2.4-1.08-2.4-2.4c0-1.32,1.08-2.4,2.4-2.4
				c1.32,0,2.4,1.08,2.4,2.4C243.62,222.36,242.55,223.44,241.23,223.44z"/>
			
				<linearGradient id="SVGID_1_" gradientUnits="userSpaceOnUse" x1="241.8129" y1="-1463.1346" x2="241.8129" y2="-1502.7285" gradientTransform="matrix(1 0 0 -1 0 -1288.2274)">
				<stop  offset="0.14" style="stop-color:#F29900"/>
				<stop  offset="0.92" style="stop-color:#FBBC04"/>
			</linearGradient>
			<path fill="url(#SVGID_1_)" d="M274.16,179.84H230.6c-1.49,0-2.8-0.97-3.24-2.39l-0.23-0.75l-1.27-4.13
				c-0.83-2.69-3.3-4.51-6.11-4.51h-10.02c-2.84,0-4.87,2.75-4.04,5.46l0.28,0.88c0.42,1.36,1.68,2.3,3.11,2.3h5.08
				c1.96,0,3.68,1.28,4.25,3.15l9.75,31.73c0.53,1.74,2.15,2.94,3.98,2.94h34.74c1.62,0,2.94-1.32,2.94-2.94l0,0
				c0.53-1.73-0.76-3.49-2.58-3.49h-27.45c-1.54,0-2.79-1.25-2.79-2.79l0,0c0-1.54,1.25-2.79,2.79-2.79h29.52
				c1.95,0,3.68-1.28,4.25-3.15l4.41-14.38C278.73,182.43,276.83,179.85,274.16,179.84L274.16,179.84L274.16,179.84z"/>
			<path fill="#003439" d="M218.69,201.13c-0.54-0.8-1.14-1.59-1.91-2.18c-0.78-0.59-1.76-0.95-2.72-0.8
				c-1.78,0.28-2.91,2.32-2.64,4.11c0.27,1.78,1.59,3.26,3.1,4.25c1.5,1,3.22,1.62,4.82,2.45c0.59,0.31,1.18,0.65,1.71,1.04
				c0.43,0.32,1.01,1.16,1.47,1.34c1.25,0.5,0.17-2-0.05-2.64C221.55,206.02,220.27,203.47,218.69,201.13L218.69,201.13
				L218.69,201.13z"/>
			<path fill="#A07043" d="M224.25,211.13c-1.09-3.22-1.38-6.66-0.87-10.02l0,0c0.01-0.06,0.02-0.14,0.02-0.2
				c0-0.73-0.59-1.33-1.33-1.33c-0.73,0-1.33,0.59-1.33,1.33c0,0.19,0.04,0.37,0.11,0.52c1.34,3.13,1.9,6.52,1.65,9.91
				L224.25,211.13L224.25,211.13L224.25,211.13z"/>
			<path fill="#E37400" d="M232.15,208.33c-1.32,0-2.58,0.32-3.71,0.87l0,0c-3.66,1.81-7.88,1.81-11.54,0l0,0
				c-1.13-0.56-2.38-0.87-3.71-0.87c-4.92,0-8.9,4.3-8.9,9.61c0,5.3,3.99,9.61,8.9,9.61c1.32,0,2.58-0.32,3.71-0.87l0,0
				c3.66-1.81,7.88-1.81,11.54,0l0,0c1.13,0.56,2.38,0.87,3.71,0.87c4.92,0,8.9-4.3,8.9-9.61
				C241.05,212.64,237.07,208.33,232.15,208.33z"/>
		</g>
	</g>
</g>
</svg>
