<?xml version="1.0" encoding="utf-8"?>
<!-- Generator: Adobe Illustrator 30.0.0, SVG Export Plug-In . SVG Version: 9.03 Build 0)  -->
<svg version="1.1" baseProfile="basic" id="Layer_1"
	 xmlns="http://www.w3.org/2000/svg" xmlns:xlink="http://www.w3.org/1999/xlink" x="0px" y="0px" width="334px" height="158px"
	 viewBox="0 0 334 158" xml:space="preserve">
<g>
	<g id="Container_00000059276628682136459440000010500148654069442946_">
		<path fill="#CAE2D6" d="M80,118.55c29.08-21.17,14.56-66.86-21.53-67.22c-26.7-0.23-44.91,28.21-33.8,52.29
			c2.21,4.9,5.5,9.3,9.57,12.81c9.81,6.83,21.73,15.25,21.53,23.86c0.03,1.47,1.23,2.66,2.71,2.66c1.49,0,2.7-1.21,2.7-2.7
			C60.79,133.71,70.23,124.29,80,118.55z"/>
		<path fill="#C5D99B" d="M192.02,86.99h-84.41c-4.5,0-3.85-3.65-2.84-8.14l9.59-43.07c1-4.5,5.46-8.14,9.96-8.14h80.93
			c4.5,0,7.33,3.65,6.33,8.14l-9.59,43.07C200.98,83.35,196.52,86.99,192.02,86.99z"/>
		<path fill="#C5D99B" d="M143.68,94.65c-12.07,0-16.91,3.46-21.43,8.95c-4.55,5.53-9.21,11.02-15.72,18.32
			c-6.51,7.3-9.6,7.14-16.51,7.14c-6.91,0-31.77,0-31.77,0v13.85c0,0,18.12,0,28.59,0s20.48,0.95,28.74-9.05
			c8.26-10,9.25-11.18,14.05-16.86c7.22-8.55,11.99-8.54,28.02-8.54s52.44,0,52.44,0V94.65L143.68,94.65L143.68,94.65z"/>
	</g>
	<g id="Tree_00000012447382861514152040000004134195301185193870_">
		<path fill="#C5221F" d="M135.23,132.62v4.49c0,0.84,1.59,1.52,3.54,1.52c1.96,0,3.54-0.68,3.54-1.52v-4.49H135.23z"/>
		<path fill="#1F8A52" d="M147.41,122.02c-1.01-0.69-1.83-1.59-1.53-3.5c0.35-2.21-0.03-3.9-1.69-5.47
			c-1.57-1.49-1.96-2.86-1.93-4.28c0.05-2.35-0.26-3.02-0.76-3.9c0-0.01-0.01-0.01-0.01-0.02c0,0,0-0.01-0.01-0.01l0,0
			c-0.29-0.5-0.72-0.91-1.24-1.19c0,0,0,0,0,0c-0.17-0.09-0.35-0.16-0.54-0.22c-0.01,0-0.02-0.01-0.03-0.01
			c-0.18-0.05-0.37-0.09-0.56-0.11c-0.02,0-0.04,0-0.06-0.01c-0.09-0.01-0.19-0.01-0.29-0.01h0h0c-0.1,0-0.19,0.01-0.29,0.01
			c-0.02,0-0.04,0-0.06,0.01c-0.19,0.02-0.38,0.06-0.56,0.11c-0.01,0-0.02,0.01-0.03,0.01c-0.19,0.06-0.37,0.13-0.54,0.22
			c0,0,0,0,0,0c-0.52,0.27-0.96,0.69-1.24,1.19l0,0c0,0,0,0.01-0.01,0.01c0,0.01-0.01,0.01-0.01,0.02c-0.49,0.88-0.8,1.55-0.76,3.9
			c0.03,1.43-0.36,2.79-1.93,4.28c-1.66,1.57-2.03,3.26-1.69,5.47c0.3,1.91-0.52,2.81-1.53,3.5c-1.87,1.17-3.02,2.73-3.02,4.45
			c0,3.61,5.05,6.54,11.27,6.54c0.13,0,0.26,0,0.39-0.01c0.13,0,0.26,0.01,0.39,0.01c6.22,0,11.27-2.93,11.27-6.54
			C150.43,124.76,149.28,123.19,147.41,122.02z"/>
	</g>
	<g id="Person_00000174592876095053700140000000184100045664588689_">
		<path fill="#BC6D62" d="M182.48,104.8c0,0-1-1.67-1.31-1.75c-0.17-0.04-0.87,0.18-1.49,0.43c-0.94-0.7-1.78-1.33-2.29-1.71
			l-1.39,0.7c0,0.05,0,0.09,0,0.14c-0.23,0.16-0.42,0.39-0.47,0.77c-0.15,1.15-0.86,1.4-1.24,1.53c-0.43,0.1-0.13,0.48,0.13,0.74
			c-0.46,0.68-0.69,1.73-0.26,2.47c0.37,0.63,1.05,0.85,1.5,0.97c0.46,0.13,0.92,0.56,0.42,1.76c-0.36,0.88,2.47,1.04,4.04,1.06
			c-0.16-0.18,0.06-0.71,0.06-0.71c-0.39-0.36-0.95-2.05,0.78-3.44C182.7,106.37,182.48,104.8,182.48,104.8z"/>
		<path d="M183.88,104.6c-0.02-0.86-0.68-1.57-1.21-1.78c-0.54-0.21-0.21-0.89-1.16-1.71c-0.95-0.82-1.75-0.2-2.18-0.23
			c-0.43-0.04-1.12-0.75-2.07-0.48c-0.95,0.27-0.75,0.8-1.03,0.96c-0.28,0.16-1.83,1.4-0.78,2.46c0.17-0.37,0.94-0.94,1.46-0.89
			c0.16,0.36,0.39,1.37,0.02,1.95c-0.37,0.58-0.97,2.06-2.68,1.11l0,0l0,0c-0.33,0.66-0.44,1.52-0.07,2.15
			c0.37,0.63,1.05,0.85,1.5,0.97c0.02,0.01,0.05,0.02,0.07,0.02c0,0,0-0.01,0-0.01c0.19,0.05,0.55,0.05,0.78-0.31
			c0.22-0.39,0.38-0.91,0.46-1.34l0,0c0,0,0-0.01,0-0.01c0.01-0.05,0.02-0.1,0.02-0.14c0.06-0.34,0.21-0.86,0.41-1.23
			c0.2-0.31,0.46-0.49,0.8-0.47c0.54,0.04,0.95,0.64,0.68,1.39c-0.23,0.65-1.09,0.79-1.37,0.84c-0.11,0.02-0.05,0.27-0.05,0.27
			c0,1.14,1.85,1.66,2.57,1.03c0.71-0.63,1.2-0.63,1.68-0.66s1.73-0.65,1.61-1.94C183.25,105.83,183.9,105.46,183.88,104.6z"/>
		<path fill="#BC6D62" d="M168.38,110.67c-0.37-2.19-2.09-3.82-3-4.51c0,0,0,0,0,0c-0.63-0.46-0.97-1.18-0.97-1.33l0,0
			c-0.03-0.95-0.58-2.07-0.43-2.57c0.23-0.78,0.23-1.64-0.54-1.65c-0.8-0.01-0.72,0.75-0.71,1.41c-0.06,0.46-0.44,0.49-0.6,0.43v0
			c-0.11-0.05-0.21-0.12-0.27-0.19l0,0c-0.43-0.87-1-1.87-1.34-2.45c-0.31-0.45-0.63-0.81-0.9-0.87c-0.74-0.18-1.05,0.39-0.67,1.15
			c0.19,0.38,0.43,0.77,0.67,1.18c-0.27-0.41-0.53-0.79-0.73-1.06c-0.35-0.43-0.69-0.76-0.96-0.8c-0.75-0.12-1.02,0.47-0.58,1.19
			c0.1,0.16,0.2,0.32,0.31,0.48c-0.35-0.28-0.68-0.47-0.92-0.47c-0.76,0.02-0.91,0.65-0.35,1.28c0.2,0.22,0.43,0.45,0.66,0.67
			c-0.37-0.21-0.71-0.34-0.92-0.29c-0.48,0.11-0.61,0.46-0.4,0.82c0.08,0.12,0.3,0.32,0.66,0.55c0,0,0,0,0.01,0
			c0.91,0.55,2.08,1.48,2.84,2.53c0,0,0-0.01,0-0.01c0.44,0.58,1.34,1.06,1.72,1.21c0.13,0.05,0.27,0.21,0.41,0.39
			c0.55,0.75,1.98,5.23,3.69,5.81C166.74,114.15,168.8,113.19,168.38,110.67z"/>
		<path fill="#BC6D62" d="M189.91,129.29c-0.74-0.77-1.04-1.28-1.17-1.83l0,0c-0.56-2.24-1.4-4.93-1.64-5.24
			c-0.34-0.43-3.76,0.55-3.76,0.55l0.7,3.24c0.17,0.23,0.81,1.93,1.2,3c0.14,0.37-0.83,1.77-0.8,2.62c0.02,0.85-0.63,1.43,0,1.72
			c0.63,0.29,1.5-1.11,1.6-1.74c0.1-0.63,1.16,0.46,1.14,1.58c-0.02,0.68-0.23,1.2-0.33,1.68l0,0c0,0-0.15,0.57-0.14,0.82
			c0,0.32,0.26,0.57,0.57,0.57c0.13,0,0.24-0.04,0.33-0.11c0,0,0,0,0.01,0c0.08-0.06,0.15-0.15,0.21-0.24c0,0.03,0,0.05,0.01,0.07
			c0.03,0.32,0.31,0.55,0.63,0.51c0.12-0.01,0.23-0.06,0.32-0.14c0,0,0,0,0.01,0c0.19-0.16,0.3-0.56,0.3-0.56l0,0
			c0.02-0.06,0.04-0.12,0.06-0.19c0-0.02,0.01-0.03,0.01-0.05c-0.02,0.16-0.02,0.32-0.01,0.43c0.03,0.32,0.31,0.55,0.63,0.51
			c0.12-0.01,0.23-0.06,0.32-0.14c0,0,0,0,0.01,0c0.14-0.12,0.24-0.37,0.28-0.49c0,0.06,0.01,0.11,0.02,0.15
			c0.04,0.26,0.29,0.44,0.55,0.39c0.1-0.02,0.19-0.07,0.26-0.14c0,0,0,0,0,0c0.15-0.15,0.22-0.49,0.22-0.49l0,0
			c0.01-0.05,0.03-0.1,0.04-0.16c0.16-0.78,0.2-2.2,0.2-2.39C191.8,131.4,190.65,130.06,189.91,129.29z"/>
		<path fill="#FFB3FC" d="M187.47,119.69c-1.03-1.24-1.59-2.98-1.67-3.99c-0.09-1.01,0.11-2.08-0.64-3.29l0,0
			c-0.47-0.88-1.72-1.51-3.18-1.51c-0.38,0-0.74,0.04-1.08,0.12c-0.01,0-0.01,0-0.02,0c-1.45,0.4-2.76,0.51-3.64,0.28
			c-0.08-0.02-0.15-0.05-0.22-0.07c-0.04-0.02-0.09-0.03-0.13-0.05c-0.23-0.08-0.44-0.18-0.63-0.28c-2.91-1.43-4.59-0.13-4.92-0.15
			c-0.34-0.03-0.6-0.18-1.06-0.74l-0.01,0c-0.29-0.52-0.7-0.96-1.24-1.24c-1.72-0.9-4.01,0.08-5.11,2.19s-0.6,4.55,1.12,5.45
			c0.64,0.34,1.37,0.41,2.08,0.26l0,0c1.61-0.35,2.84,0.1,3.95,0.98l0.49,0.43c0,0-0.17,0.73-0.33,1.32c0,0.01-0.01,0.02-0.01,0.03
			c-0.17,0.92-0.92,2.33-1.44,3.16c-0.03,0.05-0.06,0.09-0.09,0.14c-0.01,0.02-0.02,0.03-0.03,0.05h0
			c-0.22,0.38-0.35,0.82-0.35,1.29c0,0.81,0.37,1.52,0.95,2c0.24,0.22,0.51,0.36,0.8,0.44c0.26,0.09,0.55,0.14,0.84,0.14
			c0.21,0,0.41-0.03,0.6-0.07c0.18-0.02,0.36-0.05,0.54-0.08l0,0c0.51-0.1,2.02-0.26,3.3,0.14c1.48,0.47,3.56,1.16,5.5,1.07
			c0.09,0.01,0.18,0.01,0.27,0.01c0.75,0,1.43-0.23,1.99-0.61c0.05-0.03,0.09-0.05,0.14-0.08c0.01-0.01,0.01-0.01,0.02-0.02
			c0.07-0.05,0.14-0.11,0.2-0.18c0.64-0.58,1.04-1.39,1.04-2.3c0-0.26-0.04-0.52-0.1-0.77
			C188.47,123.19,188.49,120.93,187.47,119.69z"/>
		<g>
			<rect x="184.55" y="131.6" width="1.36" height="10.32"/>
			<rect x="177.62" y="144.17" transform="matrix(0.7408 -0.6717 0.6717 0.7408 -50.125 159.7837)" width="8.72" height="1.36"/>
			<rect x="187.7" y="140.61" transform="matrix(0.6705 -0.7419 0.7419 0.6705 -45.2152 187.4088)" width="1.36" height="7.99"/>
		</g>
		<ellipse cx="185.3" cy="141.91" rx="3.83" ry="4.99"/>
		<ellipse fill="#FBBC04" cx="185.3" cy="141.91" rx="2.43" ry="3.36"/>
		<path d="M185.3,153.5c-2.41,0-4.65-1.26-6.3-3.55c-1.56-2.16-2.43-5.02-2.43-8.04s0.86-5.87,2.43-8.04
			c1.65-2.29,3.89-3.55,6.3-3.55s4.65,1.26,6.3,3.55c1.56,2.16,2.43,5.02,2.43,8.04s-0.86,5.87-2.43,8.04
			C189.95,152.24,187.71,153.5,185.3,153.5z M185.3,132.87c-3.41,0-6.19,4.06-6.19,9.05c0,4.99,2.78,9.05,6.19,9.05
			s6.19-4.06,6.19-9.05C191.49,136.93,188.71,132.87,185.3,132.87z"/>
		<path fill="#600002" d="M173.97,138.6c-2.37,0.26-2.64-1.69-2.63-2.28c0.02-0.59-0.59-0.47-1.4-0.59
			c-0.8-0.13-1.61,0.38-1.73,1.15c-0.12,0.77-0.26,1.46-0.53,2.58c-0.25,1.05-1.42,1.33-2.66,1.37c-0.07,0-0.13,0-0.2,0
			c-0.02,0-0.04,0-0.07,0v0c-0.5,0.03-1,0.19-1.45,0.49c-1.37,0.91-1.75,2.76-0.84,4.13c0.28,0.43,0.65,0.75,1.07,0.98l0,0
			c1.37,0.9,5.31,0.99,6.4,0.7h0c0.37-0.04,0.73-0.16,1.06-0.38c0.35-0.23,0.61-0.53,0.79-0.88c0,0,0,0,0,0
			c0.44-0.6,0.28-1.78,0.28-1.78s0.54,1.56,1,2.2c0.2,0.3,0.49,0.51,0.82,0.61l0,0.01c0.55,0.2,2.14,0.36,3.18,0.13
			c0.03-0.01,0.06-0.01,0.09-0.02c0.07-0.02,0.15-0.04,0.21-0.06c0.01,0,0.01,0,0.01,0l0,0c0.03-0.01,0.06-0.03,0.09-0.05
			c0.06-0.03,0.12-0.06,0.18-0.1c0.32-0.21,0.53-0.53,0.63-0.87c0,0,0,0,0.01,0c0-0.01,0-0.02,0.01-0.04
			c0.03-0.13,0.05-0.25,0.05-0.38c0.33-2.71-0.85-4.76-0.79-5.12c0.06-0.38,0.72-0.82,0.13-2.09
			C177.11,137.03,176.35,138.34,173.97,138.6z"/>
		<path fill="#823E3B" d="M168.48,138.6c-2.37,0.26-2.64-1.69-2.63-2.28c0.02-0.59-0.59-0.47-1.4-0.59
			c-0.8-0.13-1.61,0.38-1.73,1.15c-0.12,0.77-0.26,1.46-0.53,2.58c-0.25,1.05-1.42,1.33-2.66,1.37c-0.07,0-0.13,0-0.2,0
			c-0.02,0-0.04,0-0.07,0v0c-0.5,0.03-1,0.19-1.45,0.49c-1.37,0.91-1.75,2.76-0.84,4.13c0.28,0.43,0.65,0.75,1.07,0.98l0,0
			c1.37,0.9,5.31,0.99,6.4,0.7h0c0.37-0.04,0.73-0.16,1.06-0.38c0.35-0.23,0.61-0.53,0.79-0.88c0,0,0,0,0,0
			c0.44-0.6,0.28-1.78,0.28-1.78s0.54,1.56,1,2.2c0.2,0.3,0.49,0.51,0.82,0.61l0,0.01c0.55,0.2,2.14,0.36,3.18,0.13
			c0.03-0.01,0.06-0.01,0.09-0.02c0.07-0.02,0.15-0.04,0.21-0.06c0.01,0,0.01,0,0.01,0l0,0c0.03-0.01,0.06-0.03,0.09-0.05
			c0.06-0.03,0.12-0.06,0.18-0.1c0.32-0.21,0.53-0.53,0.63-0.87c0,0,0,0,0.01,0c0-0.01,0-0.02,0.01-0.04
			c0.03-0.13,0.05-0.25,0.05-0.38c0.33-2.71-0.85-4.76-0.79-5.12c0.06-0.38,0.72-0.82,0.13-2.09
			C171.62,137.03,170.85,138.34,168.48,138.6z"/>
		<path fill="#008950" d="M168.77,148.7h-12.66c-0.45,0-0.82-0.37-0.82-0.82l0,0c0-0.45,0.37-0.82,0.82-0.82h12.66
			c0.45,0,0.82,0.37,0.82,0.82l0,0C169.59,148.34,169.22,148.7,168.77,148.7z"/>
		<path fill="#FF4365" d="M163.58,125c-1.65,0-4.15,1.17-3.84,4.26c0.31,3.09,0.09,4.03-0.58,5s-2.12,5.44,2.45,6.48
			c7.42,1.68,11.31-0.78,11.31-0.78l0.52-14.95C173.45,125,165.23,125,163.58,125z"/>
		<path fill="#008950" d="M186.8,121.61h-11.82l-0.64,6.62c-2.72,0.02-8.94-0.03-8.94-0.03l-0.63,12.07l-0.57,1.86h14.87v-1.06
			l3.93,0.02c1.91,0.02,3.02-1.78,3.19-3.68l1.38-14.93C187.63,122.02,187.26,121.61,186.8,121.61z"/>
		<path fill="#005041" d="M191.87,117.15c-0.13,0-0.27,0-0.41-0.01c-1.56-0.03-4.45-0.08-4.81,4.1c-0.32,3.69-1.27,13.68-1.47,15.42
			c-0.23,2.05-0.59,3.61-2.87,3.61h-6.02c-0.9,0-1.58-0.25-2.02-0.74c-0.77-0.86-0.68-2.26-0.63-2.66
			c0.2-1.74,1.15-11.76,1.47-15.46c0.22-2.45,1.29-2.43,2.92-2.4c0.15,0,0.3,0.01,0.44,0.01h3.09v-1.86h-3.09
			c-0.13,0-0.27,0-0.41-0.01c-1.56-0.03-4.45-0.08-4.81,4.1c-0.07,0.83-0.18,1.99-0.3,3.29h-4.83c-2.91,0-4.44,1.43-4.56,4.26
			l-0.05,1.26c-0.17,3.98-0.57,13.29-0.65,14.61c-0.06,1-0.14,2.37,0.71,3.27c0.49,0.51,1.18,0.78,2.07,0.78h15.73
			c2.1,0,3.16-1.24,3.16-3.69v-3.37c2.05-1.05,2.34-3.55,2.47-4.78c0.2-1.74,1.15-11.77,1.47-15.46c0.21-2.45,1.29-2.43,2.92-2.4
			c0.15,0,0.3,0.01,0.44,0.01h3.09v-1.86L191.87,117.15L191.87,117.15z M182.7,145.02c0,1.82-0.6,1.82-1.3,1.82h-15.73
			c-0.24,0-0.56-0.03-0.71-0.19c-0.3-0.32-0.24-1.3-0.21-1.88c0.08-1.33,0.46-10.32,0.65-14.64l0.05-1.26
			c0.09-2.07,1.06-2.48,2.7-2.48h4.65c-0.39,4.21-0.86,9.1-0.99,10.26c-0.09,0.77-0.16,2.72,1.09,4.11c0.8,0.9,1.95,1.36,3.4,1.36
			h6.02c0.13,0,0.26,0,0.38-0.01L182.7,145.02L182.7,145.02z"/>
		<g>
			<rect x="167.85" y="131.6" width="1.36" height="10.32"/>
			<rect x="160.93" y="144.17" transform="matrix(0.7408 -0.6717 0.6717 0.7408 -54.4525 148.5684)" width="8.72" height="1.36"/>
			<rect x="171.01" y="140.61" transform="matrix(0.6705 -0.7419 0.7419 0.6705 -50.7136 175.0199)" width="1.36" height="7.99"/>
		</g>
		<ellipse cx="168.53" cy="141.91" rx="3.83" ry="4.99"/>
		<ellipse fill="#FBBC04" cx="168.53" cy="141.91" rx="2.43" ry="3.36"/>
		<path d="M168.53,153.5c-2.41,0-4.65-1.26-6.3-3.55c-1.56-2.16-2.43-5.02-2.43-8.04s0.86-5.87,2.43-8.04
			c1.65-2.29,3.89-3.55,6.3-3.55s4.65,1.26,6.3,3.55c1.56,2.16,2.43,5.02,2.43,8.04s-0.86,5.87-2.43,8.04
			C173.18,152.24,170.94,153.5,168.53,153.5z M168.53,132.87c-3.41,0-6.19,4.06-6.19,9.05c0,4.99,2.78,9.05,6.19,9.05
			s6.19-4.06,6.19-9.05C174.72,136.93,171.94,132.87,168.53,132.87z"/>
		<path d="M173.08,123.39C173.08,123.39,173.08,123.39,173.08,123.39h-8.47c-0.62,0-1.13,0.5-1.13,1.13s0.5,1.13,1.13,1.13h8.28
			L173.08,123.39z"/>
		<g>
			<circle fill="#008950" cx="181.58" cy="118.08" r="0.94"/>
			<circle fill="#008950" cx="195.13" cy="118.08" r="0.94"/>
		</g>
	</g>
	<g id="Car_00000085935768560785488300000008015517902633619637_">
		<g>
			<path fill="#231F20" d="M105.36,121.38c0.17,1.59,0.9,2.73,1.72,2.75v0h3.13v-0.01c0.06-0.01,0.12-0.02,0.17-0.03
				c0.76-0.22,1.32-1.34,1.46-2.71L105.36,121.38L105.36,121.38z"/>
			
				<ellipse transform="matrix(1 -0.006936211 0.006936211 1 -0.7954 0.8563)" fill="#231F20" cx="123.05" cy="115.1" rx="1.76" ry="3.4"/>
			<polygon fill="#231F20" points="125.87,114.91 122.74,114.91 123.04,118.5 126.17,118.5 			"/>
			
				<ellipse transform="matrix(1 -0.006936211 0.006936211 1 -0.8346 0.8252)" fill="#231F20" cx="118.56" cy="120.73" rx="1.76" ry="3.4"/>
			<polygon fill="#231F20" points="121.37,120.54 118.25,120.54 118.54,124.13 121.67,124.13 			"/>
			<path fill="#FBBC04" d="M125.75,110.13h-2.22l-3.63-2.21c-0.06-0.03-0.11-0.06-0.17-0.09c-0.13-0.05-0.27-0.08-0.41-0.08h-6.84
				c-0.59,0-1.15,0.22-1.57,0.63l-3.17,3.06c-0.4,0.39-0.71,0.87-0.9,1.42l-1.11,3.21c-0.08,0.25-0.22,0.47-0.39,0.65l-0.15,0.15
				c-0.34,0.36-0.54,0.85-0.56,1.38l-0.07,1.9c-0.03,0.89,0.2,1.8,0.67,2.6c0.31,0.53,0.87,0.86,1.44,0.86h10.48
				c0.82,0,1.61-0.19,2.32-0.56c0.37-0.19,0.54-0.62,0.45-1.06c-0.05-0.24-0.09-0.5-0.11-0.78c-0.15-1.86,0.5-3.59,1.46-3.87
				c0.87-0.25,1.7,0.78,1.95,2.36l2.39-2.31c0.2-0.19,0.28-0.5,0.2-0.79c-0.08-0.32-0.14-0.66-0.17-1.03
				c-0.15-1.86-0.84-3.59,0.12-3.87c0.78-0.23,1.53,0.58,1.86,1.89l0.04-0.18c0.09-0.44,0.12-0.91,0.08-1.37l0,0
				C127.68,111,126.78,110.13,125.75,110.13z"/>
			
				<linearGradient id="SVGID_1_" gradientUnits="userSpaceOnUse" x1="53.6276" y1="-760.8694" x2="60.1437" y2="-767.3854" gradientTransform="matrix(1 0 0.086 1 119.1554 880.0001)">
				<stop  offset="0.3259" style="stop-color:#000000"/>
				<stop  offset="0.4319" style="stop-color:#431F0D"/>
				<stop  offset="0.5379" style="stop-color:#7F3A18"/>
				<stop  offset="0.6279" style="stop-color:#AA4E20"/>
				<stop  offset="0.6978" style="stop-color:#C55B26"/>
				<stop  offset="0.7391" style="stop-color:#CF5F27"/>
				<stop  offset="0.7548" style="stop-color:#CD5E27"/>
				<stop  offset="0.7605" style="stop-color:#C65B26"/>
				<stop  offset="0.7646" style="stop-color:#BA5624"/>
				<stop  offset="0.7678" style="stop-color:#A94E20"/>
				<stop  offset="0.7706" style="stop-color:#93441C"/>
				<stop  offset="0.7731" style="stop-color:#783717"/>
				<stop  offset="0.7754" style="stop-color:#582811"/>
				<stop  offset="0.7774" style="stop-color:#32170A"/>
				<stop  offset="0.7793" style="stop-color:#090402"/>
				<stop  offset="0.7796" style="stop-color:#000000"/>
				<stop  offset="1" style="stop-color:#000000"/>
			</linearGradient>
			<path fill="url(#SVGID_1_)" d="M107.37,112.75l-1.02,2.96c-0.14,0.41,0.18,0.88,0.62,0.88h8.18c0.73,0,1.2-0.72,0.96-1.45
				l-0.83-2.55c-0.1-0.3-0.38-0.51-0.68-0.51h-6.28C107.88,112.08,107.51,112.34,107.37,112.75z"/>
			<path fill="#231F20" d="M107.32,112.35l-1.03,0.99c-0.07,0.07-0.1,0.16-0.09,0.27l0,0c0.02,0.19,0.18,0.35,0.36,0.35h7.35
				c0.23,0,0.45-0.09,0.61-0.25l0.63-0.61c0.13-0.13,0.17-0.32,0.11-0.51l0,0c-0.1-0.3-0.38-0.51-0.68-0.51h-6.59
				C107.75,112.08,107.5,112.17,107.32,112.35z"/>
			<path fill="#231F20" d="M122.79,112.03l-0.13-0.5c-0.19-0.76-0.63-1.44-1.24-1.92l-1.5-1.2c0-0.01,0.01-0.01,0.01-0.02
				c-0.03,0.06-0.07,0.12-0.13,0.17l-2.35,2.27c-0.23,0.22-0.33,0.54-0.27,0.88l0.6,3.63c0.09,0.55,0.73,0.81,1.1,0.46
				L122.79,112.03z"/>
			
				<ellipse transform="matrix(1 -0.006936211 0.006936211 1 -0.8345 0.8462)" fill="#231F20" cx="121.57" cy="120.73" rx="1.76" ry="3.4"/>
			
				<ellipse transform="matrix(1 -0.006936211 0.006936211 1 -0.7953 0.8772)" fill="#231F20" cx="126.07" cy="115.1" rx="1.76" ry="3.4"/>
			<g>
				<path fill="#F96BD6" d="M116.62,117.68L116.62,117.68c-0.33,0.32-0.76,0.49-1.23,0.49h-2.12l0.08,0.99
					c0.04,0.55,0.5,0.99,1.02,0.99h1.18c0.47,0,0.9-0.17,1.23-0.49l0,0c0.22-0.21,0.33-0.53,0.31-0.86l-0.08-0.94
					C116.99,117.65,116.76,117.54,116.62,117.68z"/>
				<path fill="#F96BD6" d="M105.96,120.15c0.52,0,0.9-0.44,0.86-0.99l-0.08-0.99h-2.09c0,0.03,0,0.06-0.01,0.09l-0.06,1.89H105.96z
					"/>
				<polygon fill="#F96BD6" points="114.77,118.88 105.76,118.88 105.7,118.17 114.71,118.17 				"/>
			</g>
			<path fill="#ECEFD9" d="M114.24,123.2H107c-0.32,0-0.6-0.27-0.63-0.61l0,0c-0.03-0.34,0.21-0.61,0.53-0.61h7.24
				c0.32,0,0.6,0.27,0.63,0.61l0,0C114.79,122.93,114.56,123.2,114.24,123.2z"/>
			<path fill="#231F20" d="M123.77,109.78l-0.23,0.27c-0.03,0.03-0.07,0.05-0.11,0.05h-0.2c-0.2,0-0.34,0.17-0.33,0.37l0,0
				c0.02,0.21,0.19,0.37,0.39,0.37h0.2c0.04,0,0.09,0.02,0.12,0.05l0.28,0.27c0.11,0.11,0.26,0.17,0.4,0.17h0.42
				c0.19,0,0.33-0.16,0.32-0.36l-0.08-1.01c-0.02-0.2-0.18-0.36-0.38-0.36h-0.42C124,109.61,123.86,109.68,123.77,109.78z"/>
		</g>
	</g>
	<g id="Woman">
		<g>
			<path fill="#ECEFD9" d="M200.96,57.31c-4.5,0-8.95,3.65-9.96,8.14l-4.8,21.54h5.81c4.5,0,8.95-3.65,9.96-8.14l4.8-21.54
				L200.96,57.31L200.96,57.31z"/>
			<path fill="#ECEFD9" d="M211.57,35.78c1-4.5-1.83-8.14-6.33-8.14h-6.36l-3.61,16.19c-1,4.5-1.65,8.14,2.84,8.14h9.84
				L211.57,35.78z"/>
			<path fill="#ECEFD9" d="M124.31,27.64c-4.5,0-8.95,3.65-9.96,8.14l-2.83,12.69h1.09c4.5,0,8.95-3.65,9.96-8.14l2.83-12.69
				L124.31,27.64L124.31,27.64z"/>
		</g>
		<path fill="#232323" d="M164.78,38c-0.3-3.22-4.59-5.45-9.58-4.99c-3.29,0.31-6.07,1.71-7.49,3.56c-2.37,1.02-4.08,4.01-4.08,7.54
			c-0.01,9.92,11.08,10.59,11.69,0.62C160.26,44.72,165.24,41.47,164.78,38z"/>
		<path fill="#FC8BF1" d="M179.18,66.3c-0.32-0.18-13.67-4.21-15.08-5.7c-3.71,3.22-11.61,3.28-15.42,0.15
			c-0.01,0-0.02,0.01-0.03,0.01c-4.75-3.14-12-1.7-15.21,2.87c-5.36-1.28-11.18,3.17-8.79,8.8l-0.01,0
			c1.74,3.51,0.39,12.45,3.85,14.56h2.56c0.01,0.02,0.02,0.03,0.02,0.04c2.71,0,14.81,0,14.81,0l0,0h36.37L179.18,66.3z"/>
		<path fill="#894F4C" d="M163.17,51.24V35.29c-2.8-2.06-7-2.61-10.44-1.01c-0.45,0.21-0.88,0.44-1.29,0.68l0,0
			c-4.04,2.33-6.2,5.89-5.55,9.48c0.88,4.81-1.01,5.27-0.16,8.16c0.74,2.53,2.67,3.6,5.66,3.2c0.89,2.73,0.54,6-2.71,4.94l0,0
			c1.93,1.44,4.62,2.34,7.61,2.34c2.22,0,4.28-0.5,5.99-1.35c-1.46-0.59-3.17-2.75-0.75-7.99
			C162.22,52.25,162.76,51.52,163.17,51.24z"/>
		<path d="M166.37,42.29c-1.4-1.88-1.21-3.74-1.72-4.91l0,0c-0.75-2.88-4.8-4.81-9.47-4.37c-4.88,0.45-8.53,3.31-8.41,6.45
			c1.22-1.94,5.25-3.35,8.18-1.27c0.96,2.27,0.76,4.65,0.66,6.53l0,0c0,0,0,0,0,0c0,2.23-1.2,3.69-1.14,5.77l0,0
			c0.02,0.92,0.33,1.93,0.92,2.86c0.79,1.23,1.92,2.04,3.03,2.32v0.01c0,0,0.35-0.2,0.91-0.54l0.01-0.01l0,0l0,0
			c2.19-1.29,7.66-4.53,8.85-5.35C169.02,47.26,167.77,44.17,166.37,42.29z"/>
		<path fill="#232323" d="M154.95,38.18c-2.52-5.42-8.05-1.6-8.18,1.27C147.99,37.52,152.02,36.11,154.95,38.18z"/>
		<path id="mouth_00000147907830727687817560000004161780522854767534_" fill="#FC8BE9" d="M149.45,50.53
			c0.75-0.79,2.31-1.69,2.97-0.85c0.3,0.53-0.53,1.74-2.98,1.93c-1.82,0.14-2.39-0.77-2.43-1.02
			C146.95,50.26,147.73,49.41,149.45,50.53z"/>
		
			<linearGradient id="SVGID_00000020372526887264174780000005384013879148218533_" gradientUnits="userSpaceOnUse" x1="164.8714" y1="-823.3915" x2="170.3809" y2="-822.5881" gradientTransform="matrix(1 0 0 1 0 880)">
			<stop  offset="0" style="stop-color:#006845"/>
			<stop  offset="0.1484" style="stop-color:#006B45"/>
			<stop  offset="0.2509" style="stop-color:#007447"/>
			<stop  offset="0.3395" style="stop-color:#008349"/>
			<stop  offset="0.4198" style="stop-color:#00994C"/>
			<stop  offset="0.4633" style="stop-color:#00A84E"/>
			<stop  offset="0.5134" style="stop-color:#00994C"/>
			<stop  offset="0.6068" style="stop-color:#008349"/>
			<stop  offset="0.7098" style="stop-color:#007447"/>
			<stop  offset="0.8287" style="stop-color:#006B45"/>
			<stop  offset="1" style="stop-color:#006845"/>
		</linearGradient>
		<rect x="167.18" y="27.64" fill="url(#SVGID_00000020372526887264174780000005384013879148218533_)" width="5.37" height="59.4"/>
		<g>
			<path fill="#FFFFFF" d="M149.12,67.74c3.13,1.51,5.47-3.45,6.75-4.65l-0.01-0.01c-2.35-0.07-4.51-0.69-6.23-1.7h0
				C149.63,61.38,147.09,66.53,149.12,67.74z"/>
			<path fill="#FFFFFF" d="M162.63,67.74c1.7-1.02,0.18-4.81-0.35-6c-1.79,0.9-4.09,1.42-6.4,1.34l-0.01,0.01
				C157.16,64.29,159.49,69.25,162.63,67.74z"/>
		</g>
		<path fill="#894F4C" d="M142.44,53.62c0.06-2.09-3.08-2.54-3.65-0.57c-0.26,1.79-0.91,3.87-2.79,4.64
			c-0.33-4.57-2.82-9.89-3.59-11.31l0,0c-0.57-1.59-3.1-1.47-3.51,0.18c-0.15-0.36-0.24-0.57-0.25-0.57c-1-2.21-4.39-0.71-3.4,1.53
			l0,0c0.27,0.61,0.88,2.06,1.49,3.49h-0.05c-0.67-1.51-1.23-2.7-1.46-3.02c-1.26-2.07-4.44-0.17-3.19,1.92l0,0
			c0.24,0.43,0.82,1.66,1.32,2.7l-0.01-0.01l0,0c-1.33-2.09-4.53,0.01-3.1,2.07c2.77,3.19,5.54,7.54,6.91,12.16
			c0.64,2.53,2.84,3.26,6.28,2.97c3.96-0.34,5.9-3.2,6.19-6.43C139.84,56.58,141.98,57.34,142.44,53.62z"/>
		<path fill="#FC8BF1" d="M171.28,87.04c4.37,0.02,11.09,0,15.36-0.04c-1.27-2.69-0.98-6.17-0.68-8.6
			c0.67-5.27,0.67-10.54-1.9-13.79l0,0c-3.17-4.69-15.71-0.45-15.55,5.46l0,0C167.95,77.64,173.66,78.51,171.28,87.04z"/>
		<path fill="#894F4C" d="M179.68,68.61c-0.02-0.24-0.07-0.51-0.13-0.8l0,0c-0.63-2.91-3.09-8.4-3.74-9.95
			c-0.73-1.77-1.42-2.59-2.94-3.9h0c-1.85-1.72-5.48-1.82-7.45-0.13v0c-0.6,0.58-0.62,1.69-0.03,2.28
			c-0.39,0.26-0.63,0.49-0.83,0.74l0,0c-0.48,0.59-0.44,1.58,0.08,2.12c-0.9,0.66-0.78,2.22,0.2,2.74
			c-1.06,1.49-0.46,3.97-0.46,3.97c-0.03,2.16,3.37,2.16,3.34,0c0,0,0-0.77,0.15-1.24c0.28-0.26,1.71-0.15,2.27,0.78
			c0.56,0.93,3.02,4.94,3.02,4.94c0.56,1.25,2.36,3.66,4.05,3.38C179.85,73.45,180.2,70.85,179.68,68.61z M167.32,60.59
			L167.32,60.59L167.32,60.59L167.32,60.59z"/>
		<path fill="#FB9100" d="M170.44,55.32l0.95-2.15c0.29-0.63-0.7-1.07-0.97-0.43l-1.06,2.41C169.72,55.17,170.09,55.23,170.44,55.32
			z"/>
	</g>
	<g id="Biker">
		<g id="Hands">
			<path fill="#FFA59D" d="M70.33,78.19c1.26-0.61,1.58-2.17,0-2.92c-1.58-0.74-3.68-3-4-5.47l-1.45,0.82
				c-0.17-0.44-0.29-0.9-0.35-1.36l-8.31,4.68c-3.84,0.78-6.39,8.9-5.8,13.43c1.89,1.71,1.37,4.33-0.32,6.92
				c0.62,0.19,1.24,0.34,1.85,0.47c-0.02,0.03-0.03,0.05-0.05,0.08c2.36,0.72,4.77,0.97,6.75,0.98c1.79-0.01,3.87-0.43,6-1.05
				c-2.36-3.49-2.48-6.61,2.2-8.29c4.68-1.68,3.47-5.1,3-5.89C69.38,79.8,69.07,78.8,70.33,78.19z"/>
			<path d="M65.21,67.56L63.98,68c0,0-13.82,4.2-14.02,4.24c-0.19,0.04-3.23,8.43-2.27,13.41c0.26,0.3,0.51,0.72,0.75,1.3
				c1.66,3.87,6.45,4.32,8.84,1.94c2.38-2.38-0.05-5.29-2.01-6.9c-1.96-1.61-2.24-3.79-0.45-5.19c1.66-1.29,4.32,0.22,4.73,1.67
				c0.08,0.22,0.14,0.45,0.18,0.69c0.25,1.39,0.77,2.23,2.66,2.01c1.89-0.22,2.09-3.05,1.74-4.1c-0.3-0.9-0.51-1.71-0.45-2.66
				c0.01-0.07,0.01-0.14,0.02-0.21c0.01-0.08,0.01-0.16,0.03-0.24c0.2-1.54,0.86-2.94,1.69-3.42h0c0.15-0.18,0.31-0.35,0.47-0.49
				L65.21,67.56z"/>
			<g>
				<path fill="#105B5B" d="M65.67,88.27c-0.07,0-0.13-0.01-0.2-0.02c-5.61-1.03-11.58-3.89-15.21-7.29
					c-0.44-0.42-0.47-1.11-0.05-1.56c0.42-0.44,1.11-0.47,1.56-0.05c2.79,2.62,7.12,4.89,11.52,6.13
					c-2.81-4.69-4.67-9.75-5.32-13.05c-0.12-0.6,0.27-1.18,0.87-1.29c0.6-0.12,1.18,0.27,1.29,0.87c0.69,3.51,3.01,9.56,6.45,14.54
					c0.25,0.37,0.26,0.85,0.02,1.22C66.39,88.08,66.04,88.27,65.67,88.27z"/>
				<path id="helmet_00000183244270874888491300000005999856462256600206_" fill="#006845" d="M44.71,86.7
					c1,0.9,4.75,1.39,5.64-2.22c0.89-3.63,2.38-10.28,8.52-9.65c1.84,0.19,2.21-0.75,2.82-1.93s1.98-2.12,4.48-2.5
					c2.49-0.38,3.57-2.5,2.04-4.65c-2.86-3.83-7.39-6.3-12.49-6.3c-8.66,0-15.68,7.13-15.68,15.92
					C40.03,79.8,41.82,83.82,44.71,86.7z"/>
				<path d="M46.75,72.77c0.32-2.75,3.88-8.31,10.24-7.74c2.93,0.27,3.09,1.92,3.15,2.19c0.05,0.27-0.11,1.88-2.51,1.66
					c-2.4-0.22-5.24,0.13-8.38,3.89C48.25,73.98,46.54,74.64,46.75,72.77z"/>
				<path d="M55.54,59.45c-6.53,0.07-12.1,4.2-14.39,10.03c-0.12,1.16,1.09,1.75,1.97,0.32c0.88-1.44,4.96-10.46,16.16-7.03
					c2.96,0.91,3.92-0.73,3.11-1.8c-1.73-0.83-3.62-1.35-5.63-1.48C56.35,59.47,55.94,59.46,55.54,59.45z"/>
			</g>
			<path fill="#34A853" d="M87.35,96.43c-0.31-0.57-1.66-2.03-2.19-2.52c-0.02-0.02-0.04-0.04-0.05-0.05v0
				c-2.55-2.31-8.43-3.88-12.69-1.72c-0.88,0.45-1.69,0.92-2.47,1.29v0c-2.4,1.29-3.63,1.22-4.83,0.48
				c-0.99-0.6-1.98-2.48-1.98-2.48c-1.97,0.44-5.36,0.95-5.85,3.67c-0.49-2.72-3.88-3.23-5.85-3.67c0,0-0.89,2.09-1.98,2.48
				c-1.09,0.4-2.7-0.21-5.1-1.51v0c-0.79-0.37-1.61-0.82-2.47-1.29c-3.69-1.99-8.36-0.83-10.91,1.48v0
				c-0.02,0.02-0.04,0.03-0.05,0.05c-0.53,0.49-0.97,1.03-1.28,1.6c-1.92,2.95-3.82,8.02-4.68,10.01c2.2,4.64,5.38,8.81,9.27,12.17
				c3.14,2.18,6.49,4.53,9.59,6.99c1.13,0.87,2.19,1.76,3.18,2.66c5.08,4.5,8.86,9.32,8.75,14.2c0.02,1.44,1.17,2.6,2.6,2.65
				c1.44-0.06,2.6-1.24,2.6-2.7l0,0c0-6.16,6.87-14.19,16.87-20.38c0.66-0.41,1.3-0.84,1.93-1.29c0.01-0.01,0.02-0.01,0.02-0.02
				c0.93-0.67,1.83-1.38,2.7-2.12c0.01-0.01,0.02-0.02,0.03-0.03c0.86-0.75,1.69-1.53,2.47-2.35c0.01-0.01,0.03-0.03,0.04-0.04
				c0.26-0.27,0.51-0.54,0.75-0.81c0.01-0.01,0.01-0.01,0.01-0.02c0.09-0.01,0.18-0.03,0.26-0.05c2.63-2.89,4.68-6.04,6.18-9.34
				C91.06,101.87,88.89,98.79,87.35,96.43z"/>
			<path d="M79.45,118.78l1.92-17.84c0.21-1.92-1.18-3.65-3.1-3.86l0,0c-1.92-0.21-3.65,1.18-3.86,3.1l-1.27,11.78H58.36h-0.24
				H43.35l-1.27-11.78c-0.21-1.92-1.93-3.31-3.86-3.1l0,0c-1.92,0.21-3.31,1.93-3.1,3.86l1.92,17.84c0.53,0.37,1.07,0.74,1.63,1.08
				c1.6,0.99,3.13,2.03,4.55,3.1c0.72-0.72,1.12-1.75,1.01-2.85l-0.39-3.67h10.1c0.77,0,1.61,0.38,1.61,2.05v21.7
				c0,0.01,0,0.03,0,0.04l0,0c0,1.49,1.21,2.7,2.7,2.7l0,0c1.45,0,2.63-1.15,2.7-2.58V118.5c0-1.67,0.85-2.05,1.61-2.05h10.1
				l-0.39,3.67c-0.12,1.1,0.28,2.13,1.01,2.85c1.43-1.07,2.95-2.11,4.55-3.11C78.38,119.52,78.92,119.16,79.45,118.78z"/>
			<g>
				<path fill="#CE7676" d="M34.59,119.33c-1.19-1.59-2.16-4.18-2.16-4.18l-0.08-0.19c0,0,0.08-0.6,0.13-0.99
					c0.06-0.4,0.19-0.78,0.39-1.12l0,0c-1.71-0.84-4.58-0.29-4.81,2.65c-0.19,2.49,0.86,2.62,2.24,5.94
					c0.76,1.83,2.29,2.5,3.64,2.06C35.29,123.05,35.78,120.92,34.59,119.33z"/>
				<path fill="#D87E7C" d="M35.81,114.99c-1.67-1.39-3.37-3.89-3.37-3.89l-0.14-0.18c0,0-0.07-0.66-0.11-1.09
					c-0.04-0.44,0.01-0.87,0.13-1.29l0,0c-2.03-0.46-4.95,0.86-4.44,4.04c0.43,2.7,1.58,2.57,3.89,5.75
					c1.28,1.76,3.07,2.08,4.4,1.26C37.5,118.78,37.48,116.38,35.81,114.99z"/>
				<path fill="#F2948F" d="M37.29,111.45c-1.79-1.49-3.61-4.17-3.61-4.17l-0.15-0.19c0,0-0.07-0.7-0.12-1.17
					c-0.04-0.47,0.01-0.94,0.14-1.38l0,0c-2.18-0.49-5.3,0.92-4.76,4.33c0.46,2.89,1.7,2.75,4.17,6.16
					c1.37,1.88,3.29,2.23,4.71,1.35C39.11,115.51,39.08,112.94,37.29,111.45z"/>
				<path fill="#FFA59D" d="M38.99,106.45c-1.79-1.49-3.61-4.17-3.61-4.17l-0.15-0.19c0,0-0.07-0.7-0.12-1.17
					c-0.04-0.47,0.01-0.94,0.14-1.38l0,0c-2.18-0.49-5.3,0.92-4.76,4.33c0.46,2.89,1.7,2.75,4.17,6.16
					c1.37,1.88,3.29,2.23,4.71,1.35C40.8,110.5,40.78,107.94,38.99,106.45z"/>
				<path fill="#FFA59D" d="M43.18,110.39c1.25-1.68,2.9-3.56,3.96-4.53c1.82-1.67,2.2-4.34,0.55-5.6s-3.62-0.25-4.55,1.03
					c-0.26,0.35-0.51,0.77-0.81,1.22L43.18,110.39z"/>
			</g>
			<g>
				<path fill="#CE7676" d="M81.95,119.46c1.04-1.69,1.78-4.36,1.78-4.36l0.07-0.19c0,0-0.13-0.59-0.22-0.98
					c-0.1-0.39-0.26-0.76-0.49-1.08l0,0c1.63-0.99,4.53-0.7,5.03,2.2c0.42,2.46-0.62,2.69-1.69,6.12c-0.59,1.9-2.05,2.7-3.44,2.38
					C81.59,123.23,80.91,121.15,81.95,119.46z"/>
				<path fill="#D87E7C" d="M80.68,114.99c1.67-1.39,3.37-3.89,3.37-3.89l0.14-0.18c0,0,0.07-0.66,0.11-1.09
					c0.04-0.44-0.01-0.87-0.13-1.29l0,0c2.03-0.46,4.95,0.86,4.44,4.04c-0.43,2.7-1.58,2.57-3.89,5.75
					c-1.28,1.76-3.07,2.08-4.4,1.26C78.99,118.78,79.02,116.38,80.68,114.99z"/>
				<path fill="#F2948F" d="M79.2,111.45c1.79-1.49,3.61-4.17,3.61-4.17l0.15-0.19c0,0,0.07-0.7,0.12-1.17
					c0.04-0.47-0.01-0.94-0.14-1.38l0,0c2.18-0.49,5.3,0.92,4.76,4.33c-0.46,2.89-1.7,2.75-4.17,6.16
					c-1.37,1.88-3.29,2.23-4.71,1.35C77.38,115.51,77.41,112.94,79.2,111.45z"/>
				<path fill="#FFA59D" d="M77.5,106.45c1.79-1.49,3.61-4.17,3.61-4.17l0.15-0.19c0,0,0.07-0.7,0.12-1.17
					c0.04-0.47-0.01-0.94-0.14-1.38l0,0c2.18-0.49,5.3,0.92,4.76,4.33c-0.46,2.89-1.7,2.75-4.17,6.16
					c-1.37,1.88-3.29,2.23-4.71,1.35C75.69,110.5,75.71,107.94,77.5,106.45z"/>
				<path fill="#FFA59D" d="M73.31,110.39c-1.25-1.68-2.9-3.56-3.96-4.53c-1.82-1.67-2.2-4.34-0.55-5.6s3.62-0.25,4.55,1.03
					c0.26,0.35,0.51,0.77,0.81,1.22L73.31,110.39z"/>
			</g>
			<g>
				<path fill="#002825" d="M31.29,117.66c0,0,0.06-0.14,0.13-0.29l-1.72-2.93l-1.23-0.39c-0.22,0.4-0.36,0.88-0.41,1.45
					c-0.12,1.46,0.2,2.11,0.76,3.06c0.18,0.31,0.4,0.74,0.37,1.4c-0.03,0.67,0.32,1.25,0.95,1.1c0.18-0.12,0.28-0.34,0.28-0.6
					c0.05-1.25,1.16-1.78,1.54-1.93L31.29,117.66z"/>
				<path fill="#003A36" d="M28.9,109.41c-0.77,0.68-1.24,1.74-1.01,3.18c0.17,1.08,0.46,1.7,0.89,2.27
					c0.4,0.41,0.71,0.73,0.95,0.99c0.05,0.06,0.1,0.11,0.15,0.16c0.01,0.01,0.02,0.02,0.02,0.03c0.05,0.06,0.09,0.11,0.13,0.15
					c0,0,0.01,0.01,0.01,0.01c0.04,0.05,0.07,0.09,0.11,0.13c0,0.01,0.01,0.01,0.01,0.02c0.04,0.04,0.07,0.09,0.09,0.13
					c0.39,0.57,0.04,2.12,1.64,2.01c0,0,0-0.01-0.01-0.01c-0.03-0.07-0.06-0.14-0.09-0.21c0,0,0-0.01,0-0.01
					c-0.03-0.07-0.05-0.14-0.08-0.21c0-0.01,0-0.01-0.01-0.02c-0.02-0.07-0.04-0.13-0.06-0.2c0-0.01-0.01-0.02-0.01-0.03
					c-0.02-0.07-0.03-0.13-0.05-0.2c0-0.01,0-0.02-0.01-0.03c-0.01-0.06-0.02-0.13-0.03-0.2c0-0.02,0-0.03-0.01-0.05
					c-0.01-0.06-0.01-0.12-0.02-0.18c0-0.02,0-0.04,0-0.06c0-0.06,0-0.12,0-0.17c0-0.02,0.01-0.05,0.01-0.07
					c0-0.05,0.01-0.11,0.02-0.16c0-0.03,0.01-0.06,0.02-0.08c0.01-0.05,0.02-0.11,0.03-0.16c0.01-0.03,0.02-0.06,0.03-0.09
					c0.01-0.05,0.03-0.1,0.04-0.15c0.01-0.03,0.03-0.07,0.04-0.1c0.02-0.05,0.04-0.09,0.06-0.14c0.02-0.04,0.04-0.07,0.06-0.11
					c0.02-0.05,0.04-0.09,0.07-0.14c0.02-0.04,0.05-0.08,0.08-0.12c0.03-0.04,0.05-0.08,0.08-0.12c0.03-0.05,0.07-0.1,0.11-0.15
					c0.03-0.03,0.05-0.07,0.08-0.1c0.05-0.06,0.1-0.11,0.16-0.17c0.02-0.03,0.04-0.05,0.07-0.07c0.08-0.08,0.17-0.16,0.26-0.25
					C30.57,111.84,29.4,111.67,28.9,109.41z"/>
				<path fill="#005041" d="M28.8,108.87c0.16,1.02,0.42,1.66,0.79,2.22c0,0,0,0,0,0c0.02,0.03,0.03,0.05,0.05,0.07
					c0.16,0.22,0.33,0.43,0.53,0.64l0,0c0.73,0.86,0.01,1.97,2.55,2.89c0.2-0.27-0.99-2.68,1.95-4.67
					c-2.14-2.94-3.35-3.24-3.94-5.12C29.44,105.54,28.48,106.85,28.8,108.87z"/>
				<path fill="#006845" d="M36.9,103.59c-0.56-0.26-1.04-0.68-1.33-1.03c-0.13-0.17-0.19-0.28-0.19-0.28l-0.01-0.01
					c-0.05-0.08-0.08-0.16-0.09-0.2l-0.05,0.02l0,0c0,0-0.07-0.7-0.12-1.17c-0.04-0.47,0.01-0.94,0.14-1.38
					c-2.18-0.49-5.3,0.92-4.76,4.33c0.05,0.29,0.1,0.54,0.16,0.78l-0.01,0c0.08,0.41,0.25,0.77,0.43,1.1
					c0.01,0.01,0.02,0.03,0.02,0.04c0.23,0.41,0.47,0.78,0.56,1.14c0.17,0.69,0.35,2.8,2.45,2.37c-0.7-0.84-0.12-3.61,3.66-4.02
					C37.93,104.48,37.28,103.8,36.9,103.59z"/>
				<path fill="#005041" d="M45.32,107.75c-0.4-0.4-1.64-1.39-2.68-2.41l0.54,5c0.18-0.15,0.45-0.3,0.8-0.47
					C45.11,109.36,45.91,108.34,45.32,107.75z"/>
			</g>
			<g>
				<path fill="#002825" d="M85.2,117.66c0,0-0.06-0.14-0.13-0.29l1.72-2.93l1.23-0.39c0.22,0.4,0.36,0.88,0.41,1.45
					c0.12,1.46-0.2,2.11-0.76,3.06c-0.18,0.31-0.4,0.74-0.37,1.4c0.03,0.67-0.32,1.25-0.95,1.1c-0.18-0.12-0.28-0.34-0.28-0.6
					c-0.05-1.25-1.16-1.78-1.54-1.93L85.2,117.66z"/>
				<path fill="#003A36" d="M87.59,109.41c0.77,0.68,1.24,1.74,1.01,3.18c-0.17,1.08-0.46,1.7-0.89,2.27
					c-0.4,0.41-0.71,0.73-0.95,0.99c-0.05,0.06-0.1,0.11-0.15,0.16c-0.01,0.01-0.02,0.02-0.02,0.03c-0.05,0.06-0.09,0.11-0.13,0.15
					c0,0-0.01,0.01-0.01,0.01c-0.04,0.05-0.07,0.09-0.11,0.13c0,0.01-0.01,0.01-0.01,0.02c-0.04,0.04-0.07,0.09-0.09,0.13
					c-0.39,0.57-0.04,2.12-1.64,2.01c0,0,0-0.01,0.01-0.01c0.03-0.07,0.06-0.14,0.09-0.21c0,0,0-0.01,0-0.01
					c0.03-0.07,0.05-0.14,0.08-0.21c0-0.01,0-0.01,0.01-0.02c0.02-0.07,0.04-0.13,0.06-0.2c0-0.01,0.01-0.02,0.01-0.03
					c0.02-0.07,0.03-0.13,0.05-0.2c0-0.01,0-0.02,0.01-0.03c0.01-0.06,0.02-0.13,0.03-0.2c0-0.02,0-0.03,0.01-0.05
					c0.01-0.06,0.01-0.12,0.02-0.18c0-0.02,0-0.04,0-0.06c0-0.06,0-0.12,0-0.17c0-0.02-0.01-0.05-0.01-0.07
					c0-0.05-0.01-0.11-0.02-0.16c0-0.03-0.01-0.06-0.02-0.08c-0.01-0.05-0.02-0.11-0.03-0.16c-0.01-0.03-0.02-0.06-0.03-0.09
					c-0.01-0.05-0.03-0.1-0.04-0.15c-0.01-0.03-0.03-0.07-0.04-0.1c-0.02-0.05-0.04-0.09-0.06-0.14c-0.02-0.04-0.04-0.07-0.06-0.11
					c-0.02-0.05-0.04-0.09-0.07-0.14c-0.02-0.04-0.05-0.08-0.08-0.12c-0.03-0.04-0.05-0.08-0.08-0.12c-0.03-0.05-0.07-0.1-0.11-0.15
					c-0.03-0.03-0.05-0.07-0.08-0.1c-0.05-0.06-0.1-0.11-0.16-0.17c-0.02-0.03-0.04-0.05-0.07-0.07c-0.08-0.08-0.17-0.16-0.26-0.25
					C85.92,111.84,87.09,111.67,87.59,109.41z"/>
				<path fill="#005041" d="M87.69,108.87c-0.16,1.02-0.42,1.66-0.79,2.22c0,0,0,0,0,0c-0.02,0.03-0.03,0.05-0.05,0.07
					c-0.16,0.22-0.33,0.43-0.53,0.64l0,0c-0.73,0.86-0.01,1.97-2.55,2.89c-0.2-0.27,0.99-2.68-1.95-4.67
					c2.14-2.94,3.35-3.24,3.94-5.12C87.05,105.54,88.01,106.85,87.69,108.87z"/>
				<path fill="#006845" d="M79.59,103.59c0.56-0.26,1.04-0.68,1.33-1.03c0.13-0.17,0.19-0.28,0.19-0.28l0.01-0.01
					c0.05-0.08,0.08-0.16,0.09-0.2l0.05,0.02l0,0c0,0,0.07-0.7,0.12-1.17c0.04-0.47-0.01-0.94-0.14-1.38
					c2.18-0.49,5.3,0.92,4.76,4.33c-0.05,0.29-0.1,0.54-0.16,0.78l0.01,0c-0.08,0.41-0.25,0.77-0.43,1.1
					c-0.01,0.01-0.02,0.03-0.02,0.04c-0.23,0.41-0.47,0.78-0.56,1.14c-0.17,0.69-0.35,2.8-2.45,2.37c0.7-0.84,0.12-3.61-3.66-4.02
					C78.56,104.48,79.21,103.8,79.59,103.59z"/>
				<path fill="#005041" d="M71.17,107.75c0.4-0.4,1.64-1.39,2.68-2.41l-0.54,5c-0.18-0.15-0.45-0.3-0.8-0.47
					C71.38,109.36,70.58,108.34,71.17,107.75z"/>
			</g>
		</g>
	</g>
	<g id="Bus_00000041258804465799387680000016022475477209319813_">
		<g id="Bus">
			<path fill="#FDDB00" d="M292.03,64.65H233.4c-4.07,0-7.37,3.3-7.37,7.37v41.43v18.33v7.37h7.37h58.63h7.37v-7.37v-18.33V72.02
				C299.39,67.95,296.1,64.65,292.03,64.65z"/>
			<path fill="#FBBC04" d="M226.03,72.02c0-2.02,0.81-3.84,2.12-5.17l-20.42,20.42v0.07v0.27v51.53h18.3V87.5c0,0,0,0,0,0
				L226.03,72.02L226.03,72.02z"/>
			<g>
				<path fill="#FFFFFF" d="M299.79,120.42h-13.77c-2.44,0-4.41,1.98-4.41,4.41l0,0c0,2.44,1.98,4.41,4.41,4.41h13.77V120.42z"/>
				<path fill="#FFFFFF" d="M226.03,129.24h13.37c2.44,0,4.41-1.98,4.41-4.41l0,0c0-2.44-1.98-4.41-4.41-4.41h-13.37V129.24z"/>
			</g>
			<path d="M207.73,91.53v0.07v0.27v25.65l3.72-3.72v0.01c0.77-0.68,1.68-1.16,2.64-0.02c1.96,2.31,3.16,4.12,4.87,2.54l7.06-7.06
				V73.23L207.73,91.53z"/>
			<path fill="#F29900" d="M275.06,139.14c0.04-0.18,0.06-0.36,0.06-0.55v-3.74c0-1.42-1.15-2.57-2.57-2.57h-16.8
				c-1.42,0-2.57,1.15-2.57,2.57v3.74c0,0.19,0.02,0.37,0.06,0.55H275.06L275.06,139.14z"/>
			<rect x="240.31" y="64.65" fill="#F29900" width="44.8" height="8.58"/>
			
				<linearGradient id="SVGID_00000096031192861612522290000007982109960283656858_" gradientUnits="userSpaceOnUse" x1="228.3038" y1="-811.6469" x2="289.3743" y2="-771.0026" gradientTransform="matrix(1 0 0 1 0 880)">
				<stop  offset="0.3259" style="stop-color:#000000"/>
				<stop  offset="0.4319" style="stop-color:#431F0D"/>
				<stop  offset="0.5379" style="stop-color:#7F3A18"/>
				<stop  offset="0.6279" style="stop-color:#AA4E20"/>
				<stop  offset="0.6978" style="stop-color:#C55B26"/>
				<stop  offset="0.7391" style="stop-color:#CF5F27"/>
				<stop  offset="0.7548" style="stop-color:#CD5E27"/>
				<stop  offset="0.7605" style="stop-color:#C65B26"/>
				<stop  offset="0.7646" style="stop-color:#BA5624"/>
				<stop  offset="0.7678" style="stop-color:#A94E20"/>
				<stop  offset="0.7706" style="stop-color:#93441C"/>
				<stop  offset="0.7731" style="stop-color:#783717"/>
				<stop  offset="0.7754" style="stop-color:#582811"/>
				<stop  offset="0.7774" style="stop-color:#32170A"/>
				<stop  offset="0.7793" style="stop-color:#090402"/>
				<stop  offset="0.7796" style="stop-color:#000000"/>
				<stop  offset="1" style="stop-color:#000000"/>
			</linearGradient>
			
				<rect x="226.03" y="73.23" fill="url(#SVGID_00000096031192861612522290000007982109960283656858_)" width="73.36" height="36.05"/>
			<path d="M221.86,139.15c0.01-0.38,0.01-0.75-0.02-1.12c-0.29-5.03-3.36-7.48-6.87-5.48c-2.09,1.2-3.86,3.7-4.89,6.6
				L221.86,139.15L221.86,139.15z"/>
			<path fill="#FDDB00" d="M309.52,94.56h-3.72c-1.73,0-3.13-1.4-3.13-3.13V77.21c0-1.73,1.4-3.13,3.13-3.13h3.72
				c1.73,0,3.13,1.4,3.13,3.13v14.22C312.65,93.16,311.25,94.56,309.52,94.56z"/>
			<path fill="#FDDB00" d="M308.51,74.08h-1.69v-2.55c0-0.88-0.43-1.32-1.29-1.32h-9.6v-1.69h9.6c1.78,0,2.98,1.21,2.98,3.02V74.08z
				"/>
			<path fill="#FDDB00" d="M215.11,94.56h3.72c1.73,0,3.13-1.4,3.13-3.13V77.21c0-1.73-1.4-3.13-3.13-3.13h-3.72
				c-1.73,0-3.13,1.4-3.13,3.13v14.22C211.99,93.16,213.39,94.56,215.11,94.56z"/>
			<path fill="#FDDB00" d="M217.82,74.08h-1.69v-2.55c0-1.81,1.2-3.02,2.98-3.02h9.6v1.69h-9.6c-0.85,0-1.29,0.45-1.29,1.32V74.08z"
				/>
		</g>
	</g>
	<g id="Pin_00000045615635840898590790000014645289703909602199_">
		<g>
			<g>
				<path fill="#FF4365" d="M196.53,11.6c-1.61-3.1-4.38-5.44-7.72-6.5c-1.3-0.4-2.64-0.6-3.98-0.6c-1.34,0-2.68,0.2-3.98,0.6
					c-3.34,1.06-6.11,3.4-7.72,6.5c-0.98,1.87-1.49,3.95-1.49,6.07c0,8.02,5.13,11.14,9.53,18.01c2.67,4.15,1.93,6.62,3.65,6.62
					c0,0,0.01,0,0.01,0c0,0,0.01,0,0.01,0c1.73,0,0.98-2.47,3.65-6.62c4.4-6.88,9.53-10,9.53-18.01
					C198.02,15.55,197.51,13.47,196.53,11.6z"/>
			</g>
			<ellipse fill="#FFFFFF" cx="184.83" cy="17.69" rx="5.04" ry="5.04"/>
		</g>
		<g>
			<g>
				<path fill="#FF4365" d="M263.44,38.95c-1.61-3.1-4.38-5.44-7.72-6.5c-1.3-0.4-2.64-0.6-3.98-0.6c-1.34,0-2.68,0.2-3.98,0.6
					c-3.34,1.06-6.11,3.4-7.72,6.5c-0.98,1.87-1.49,3.95-1.49,6.07c0,8.02,5.13,11.14,9.53,18.01c2.67,4.15,1.93,6.62,3.65,6.62
					c0,0,0.01,0,0.01,0c0,0,0.01,0,0.01,0c1.73,0,0.98-2.47,3.65-6.62c4.4-6.88,9.53-10,9.53-18.01
					C264.94,42.9,264.43,40.82,263.44,38.95z"/>
			</g>
			<ellipse fill="#FFFFFF" cx="251.75" cy="45.04" rx="5.04" ry="5.04"/>
		</g>
		<g>
			<g>
				<path fill="#FF4365" d="M125.99,74.77c-1.61-3.1-4.38-5.44-7.72-6.5c-1.3-0.4-2.64-0.6-3.98-0.6s-2.68,0.2-3.98,0.6
					c-3.34,1.06-6.11,3.4-7.72,6.5c-0.98,1.87-1.49,3.95-1.49,6.07c0,8.02,5.13,11.14,9.53,18.01c2.67,4.15,1.93,6.62,3.65,6.62
					c0,0,0.01,0,0.01,0c0,0,0.01,0,0.01,0c1.73,0,0.98-2.47,3.65-6.62c4.4-6.88,9.53-10,9.53-18.01
					C127.49,78.72,126.98,76.64,125.99,74.77z"/>
			</g>
			<ellipse fill="#FFFFFF" cx="114.29" cy="80.86" rx="5.04" ry="5.04"/>
		</g>
	</g>
</g>
</svg>
