<svg xmlns="http://www.w3.org/2000/svg" width="200" height="150"><radialGradient id="a" cx="-275.0869" cy="1611.452" r="184.4345" gradientTransform="matrix(.0336 .9994 .8722 -.0293 -1307.2568 285.4638)" gradientUnits="userSpaceOnUse"><stop offset="0" style="stop-color:#5F6368"/><stop offset=".1704" style="stop-color:#777A7E;stop-opacity:0.8169"/><stop offset=".5303" style="stop-color:#B4B6B8;stop-opacity:0.43"/><stop offset=".9303" style="stop-color:#FFFFFF;stop-opacity:0"/></radialGradient><path opacity=".5" fill="url(#a)" d="M172.06 115.37l-18.41 16.77H129.4l17.87-16.77H80.76l-19.71 17.95H2.17v25.69h177.79v-43.64z"/><path fill="#5F6368" d="M90 22.02c4.17 0 7.8 2.31 9.69 5.71 1.5-2.03 2.41-4.54 2.41-7.26 0-6.75-5.47-12.22-12.22-12.22s-12.22 5.47-12.22 12.22c0 2.81.96 5.39 2.55 7.45 1.85-3.5 5.54-5.9 9.79-5.9zM77.15 46.63c4.17 0 7.8 2.31 9.69 5.71 1.5-2.03 2.41-4.54 2.41-7.26 0-6.75-5.47-12.22-12.22-12.22S64.8 38.33 64.8 45.08c0 2.81.96 5.39 2.55 7.45 1.86-3.51 5.55-5.9 9.8-5.9z"/><path fill="#8AB4F8" d="M126.91 81.51h.48c.12 0 .21.1.2.22l-.75 9.69c-.01.12-.12.22-.24.22h-.48l.79-10.13zM127.65 71.94h.48c.12 0 .21.1.2.22l-.37 4.72c-.01.12-.12.22-.24.22h-.48l.41-5.16z"/><path fill="#8AB4F8" d="M124.15 50.64H95.97c-3.04 0-5.71 2.47-5.94 5.52l-5.45 69.98c-.23 3.04 2.05 5.52 5.09 5.52h28.17c3.04 0 5.71-2.47 5.94-5.52l5.45-69.98c.24-3.04-2.04-5.52-5.08-5.52z"/><radialGradient id="b" cx="135.3696" cy="1014.36" r="46.6075" gradientTransform="translate(0 -964)" gradientUnits="userSpaceOnUse"><stop offset="0" style="stop-color:#FFFFFF;stop-opacity:0.936"/><stop offset="1" style="stop-color:#FFFFFF;stop-opacity:0"/></radialGradient><path opacity=".4" fill="url(#b)" d="M127.73 77.1c.12 0 .23-.1.24-.22l.37-4.72c.01-.12-.08-.22-.2-.22h-.12l1.22-15.78c.23-3.04-2.05-5.52-5.09-5.52H95.97c-3.04 0-5.71 2.47-5.94 5.52l-5.45 69.98c-.23 3.04 2.05 5.52 5.09 5.52h28.17c3.04 0 5.71-2.47 5.94-5.52l2.7-34.51h.12c.12 0 .23-.1.24-.22l.75-9.69c.01-.12-.08-.22-.2-.22h-.12l.34-4.41.12.01z"/><path fill="#202124" d="M117.84 130.95H90.02c-1.34 0-2.57-.52-3.45-1.47-.88-.95-1.31-2.22-1.21-3.57l5.4-69.37c.21-2.77 2.64-5.03 5.42-5.03h27.81c1.35 0 2.57.52 3.45 1.47.88.95 1.31 2.22 1.21 3.57l-5.4 69.37c-.21 2.77-2.64 5.03-5.41 5.03zM96.18 51.76c-2.64 0-4.95 2.15-5.16 4.79l-5.4 69.37c-.1 1.28.31 2.48 1.14 3.38.83.9 1.99 1.39 3.26 1.39h27.81c2.64 0 4.95-2.15 5.16-4.79l5.4-69.37c.1-1.28-.31-2.48-1.14-3.38-.83-.9-1.99-1.39-3.26-1.39H96.18z"/><path fill="#202124" d="M118.13 129.61H90.04c-1.98 0-3.45-1.6-3.3-3.58l5.21-66.97c.15-1.87 1.78-3.38 3.65-3.38h28.47c1.87 0 3.27 1.51 3.12 3.38l-5.21 66.97c-.15 1.98-1.87 3.58-3.85 3.58zM114.83 53.9h-8.76c-.07 0-.13-.06-.13-.13s.06-.13.13-.13h8.76c.07 0 .13.06.13.13s-.06.13-.13.13z"/><ellipse transform="rotate(-43.89 104.3306 53.71436)" fill="#202124" cx="104.33" cy="53.72" rx=".33" ry=".31"/><circle fill="#F28B82" cx="77.05" cy="42.29" r="3.7"/><path fill="#F28B82" d="M86.84 52.34c-1.89-3.41-5.52-5.71-9.69-5.71-4.25 0-7.94 2.4-9.8 5.91 2.24 2.9 5.73 4.77 9.67 4.77 1.18 0 2.31-.19 3.38-.5l4.64 2.85c.37.23.83-.11.73-.53l-1.12-4.53c.82-.66 1.56-1.41 2.19-2.26z"/><circle fill="#81C995" cx="89.9" cy="17.69" r="3.7"/><path fill="#81C995" d="M99.69 27.74c-1.89-3.41-5.52-5.71-9.69-5.71-4.25 0-7.94 2.4-9.8 5.91 2.2 2.85 5.62 4.7 9.49 4.76l3.68 4.79c.27.35.82.2.87-.24l.7-5.67c1.89-.87 3.53-2.19 4.75-3.84z"/><path fill="#5F6368" d="M141.93 43.69c4.25 0 7.94 2.4 9.8 5.91 1.59-2.06 2.55-4.64 2.55-7.45 0-6.75-5.47-12.22-12.22-12.22s-12.22 5.47-12.22 12.22c0 2.72.9 5.23 2.41 7.26 1.87-3.41 5.5-5.72 9.68-5.72zm.09-8.03c2.04 0 3.7 1.66 3.7 3.7s-1.66 3.7-3.7 3.7-3.7-1.66-3.7-3.7 1.66-3.7 3.7-3.7z"/><path fill="#8AB4F8" d="M142.05 54.37c3.94 0 7.44-1.87 9.67-4.77-1.86-3.51-5.55-5.91-9.8-5.91-4.17 0-7.8 2.31-9.69 5.71 2.23 3.01 5.79 4.97 9.82 4.97z"/><circle fill="#8AB4F8" cx="142.02" cy="39.36" r="3.7"/><path fill="#8AB4F8" d="M142.05 51.7l-9.37 4.57c-.39.19-.82-.19-.67-.6l3.06-8.69 6.98 4.72z"/><path fill="#5F6368" d="M116.34 33.29c4.25 0 7.94 2.4 9.8 5.91 1.59-2.06 2.55-4.64 2.55-7.45 0-6.75-5.47-12.22-12.22-12.22-6.75 0-12.22 5.47-12.22 12.22 0 2.72.9 5.23 2.41 7.26 1.88-3.41 5.51-5.72 9.68-5.72zm.1-8.03c2.04 0 3.7 1.66 3.7 3.7s-1.66 3.7-3.7 3.7-3.7-1.66-3.7-3.7 1.65-3.7 3.7-3.7z"/><circle fill="#FDD663" cx="116.44" cy="28.96" r="3.7"/><path fill="#FDD663" d="M126.13 39.2c-1.86-3.51-5.55-5.91-9.8-5.91-4.17 0-7.8 2.31-9.69 5.71 1.56 2.1 3.78 3.67 6.34 4.44l1.3 4.46c.12.42.69.48.9.09l2.2-4.08c3.56-.27 6.7-2.05 8.75-4.71z"/><path fill="#5F6368" d="M115.42 90.7l-3.06-1.6c-.73-.51-1.73-.37-2.29.32l-1.55 2.17c-3.78-2.1-5.86-4.93-7-7.54l2.42-1.15c.81-.39 1.19-1.34.87-2.18l-1.28-3.79c-.31-.8-1.16-1.26-2-1.06l-3.62.83.02.08h-.04c-.01.15-1.1 15.4 16.35 19.35l.01-.03.06.04 1.65-3.27c.39-.76.16-1.68-.54-2.17zM111.77 107.93h-11.03c-1.58 0-2.87-1.28-2.87-2.87 0-1.58 1.28-2.87 2.87-2.87h11.03c1.58 0 2.87 1.28 2.87 2.87s-1.28 2.87-2.87 2.87z"/><circle fill="#3C4043" cx="100.83" cy="105.06" r="2.11"/><linearGradient id="c" gradientUnits="userSpaceOnUse" x1="100.9062" y1="1011.7952" x2="97.6683" y2="1002.0019" gradientTransform="translate(0 -964)"><stop offset="0" style="stop-color:#5F6368"/><stop offset=".1831" style="stop-color:#777A7E;stop-opacity:0.8169"/><stop offset=".57" style="stop-color:#B4B6B8;stop-opacity:0.43"/><stop offset="1" style="stop-color:#FFFFFF;stop-opacity:0"/></linearGradient><path opacity=".5" fill="url(#c)" d="M96.06 39.1c1.62-1.62 4.25-1.62 5.87 0s1.62 4.25 0 5.87c-.15.15-.32.28-.49.4l-.14 2.09c-.03.38-.49.54-.74.26l-1.4-1.55c-1.12.04-2.25-.35-3.1-1.2-1.62-1.62-1.62-4.25 0-5.87z"/><linearGradient id="d" gradientUnits="userSpaceOnUse" x1="71.5631" y1="992.7824" x2="67.8512" y2="983.4631" gradientTransform="translate(0 -964)"><stop offset="0" style="stop-color:#5F6368"/><stop offset=".1831" style="stop-color:#777A7E;stop-opacity:0.8169"/><stop offset=".57" style="stop-color:#B4B6B8;stop-opacity:0.43"/><stop offset="1" style="stop-color:#FFFFFF;stop-opacity:0"/></linearGradient><path opacity=".5" fill="url(#d)" d="M66.43 20.34c1.62-1.62 4.25-1.62 5.87 0s1.62 4.25 0 5.87c-.15.15-.32.28-.49.4l-.14 2.09c-.03.38-.49.54-.74.26l-1.4-1.55c-1.12.04-2.25-.35-3.1-1.2-1.62-1.61-1.62-4.24 0-5.87z"/><linearGradient id="e" gradientUnits="userSpaceOnUse" x1="132.1239" y1="991.3272" x2="136.6256" y2="982.0869" gradientTransform="translate(0 -964)"><stop offset="0" style="stop-color:#5F6368"/><stop offset=".1704" style="stop-color:#777A7E;stop-opacity:0.8169"/><stop offset=".5303" style="stop-color:#B4B6B8;stop-opacity:0.43"/><stop offset=".9303" style="stop-color:#FFFFFF;stop-opacity:0"/></linearGradient><path opacity=".5" fill="url(#e)" d="M137.73 18.91c-1.62-1.62-4.25-1.62-5.87 0s-1.62 4.25 0 5.87c.15.15.32.28.49.4l.14 2.09c.03.38.49.54.74.26l1.4-1.55c1.12.04 2.25-.35 3.1-1.2 1.62-1.62 1.63-4.25 0-5.87z"/><linearGradient id="f" gradientUnits="userSpaceOnUse" x1="107.4976" y1="979.443" x2="111.17" y2="969.2946" gradientTransform="translate(0 -964)"><stop offset="0" style="stop-color:#5F6368"/><stop offset=".1831" style="stop-color:#777A7E;stop-opacity:0.8169"/><stop offset=".57" style="stop-color:#B4B6B8;stop-opacity:0.43"/><stop offset="1" style="stop-color:#FFFFFF;stop-opacity:0"/></linearGradient><path opacity=".5" fill="url(#f)" d="M112.32 7.31c-1.62-1.62-4.25-1.62-5.87 0s-1.62 4.25 0 5.87c.15.15.32.28.49.4l.14 2.09c.03.38.49.54.74.26l1.4-1.55c1.12.04 2.25-.35 3.1-1.2 1.62-1.62 1.62-4.25 0-5.87z"/><linearGradient id="g" gradientUnits="userSpaceOnUse" x1="159.4661" y1="1023.8644" x2="159.4661" y2="1051.8584" gradientTransform="translate(0 -964)"><stop offset="0" style="stop-color:#5F6368"/><stop offset="1" style="stop-color:#5F6368;stop-opacity:0"/></linearGradient><path fill="url(#g)" d="M169.24 87.99l.93-5.48 1.65.15.09-.96-1.57-.14 1.08-6.36c.39-2.3-1.15-4.48-3.46-4.88-.06-.01-.12 0-.18-.01l1.96-10.28h2.61v-.96h-2.42l1.99-10.44c.49-2.6-1.21-5.11-3.82-5.61-2.6-.49-5.11 1.21-5.61 3.82l-.3 1.55-1.04-.71-.54.8 1.38.94-3.91 20.47-1.14-8.12c-.16-1.17-.75-2.16-1.57-2.89l.88-1.92-.87-.4-.8 1.75c-.9-.52-1.95-.77-3.05-.61-2.62.37-4.45 2.79-4.08 5.42l1.43 10.16-2.11-.43-.19.94 2.45.5 1.9 13.52 18.31.18z"/><path fill="#202124" d="M164.79528 52.1489l.65153-.3065 1.10682 2.35273-.65153.3065z"/><path fill="#5F6368" d="M172.5 114.97h-24.8l-3.58-20.12h31.95zM176.71 94.85h-32.88c-1.34 0-2.43-1.09-2.43-2.43v-6.25h37.75v6.25c-.01 1.34-1.1 2.43-2.44 2.43z"/><path fill="#202124" d="M150.05877 62.67913l.5503-.46433 1.67673 1.98718-.5503.46433zM155.26203 78.52236l1.04806-2.37952.65895.29023-1.04806 2.37952zM164.68981 70.17823l.70359-.153.5525 2.54072-.70358.153zM162.04655 60.54576l2.16554-1.4391.39852.5997-2.16554 1.4391zM144.09 94.85h32.13v.26h-32.13z"/><path fill="#5F6368" d="M73.12 70.3H43.93v8.62H26.86v-8.19c-1.9.81-3.24 2.7-3.24 4.9v32.81h54.82V75.62c.01-2.94-2.38-5.32-5.32-5.32z"/><path fill="#5F6368" d="M80.8 115.34H21.33V101.1c0-.97.79-1.76 1.76-1.76h55.95c.97 0 1.76.79 1.76 1.76v14.24z"/><linearGradient id="h" gradientUnits="userSpaceOnUse" x1="22.0441" y1="1076.6603" x2="89.4582" y2="1064.6295" gradientTransform="translate(0 -964)"><stop offset="0" style="stop-color:#5F6368;stop-opacity:0.8044"/><stop offset=".317" style="stop-color:#939599;stop-opacity:0.5494"/><stop offset="1" style="stop-color:#FFFFFF;stop-opacity:0"/></linearGradient><path opacity=".5" fill="url(#h)" d="M80.8 115.34H21.33V101.1c0-.97.79-1.76 1.76-1.76h55.95c.97 0 1.76.79 1.76 1.76v14.24z"/><linearGradient id="i" gradientUnits="userSpaceOnUse" x1="61.6322" y1="1026.6284" x2="61.6322" y2="1032.3197" gradientTransform="translate(0 -964)"><stop offset="0" style="stop-color:#5F6368"/><stop offset="1" style="stop-color:#5F6368;stop-opacity:0"/></linearGradient><path fill="url(#i)" d="M73.78 68.87h-24.3c-.43 0-.77-.35-.77-.77v-4.33c0-.43.35-.77.77-.77h24.3c.43 0 .77.35.77.77v4.33c0 .43-.34.77-.77.77z"/><path fill="#202124" d="M77.46 113.17H24.49v-11.22h52.97v11.22zm-52.65-.32h52.33v-10.59H24.81v10.59z"/><path fill="#202124" d="M51.07 110.02c-1.28 0-2.33-1.05-2.33-2.33s1.05-2.33 2.33-2.33 2.33 1.05 2.33 2.33c0 1.29-1.05 2.33-2.33 2.33zm0-4.38c-1.13 0-2.06.92-2.06 2.06s.92 2.06 2.06 2.06c1.13 0 2.06-.92 2.06-2.06s-.93-2.06-2.06-2.06zM73.1 79.22H49.61c-.49 0-.9-.4-.9-.9v-4.19c0-.49.4-.9.9-.9H73.1c.49 0 .9.4.9.9v4.19c0 .5-.4.9-.9.9zm-23.49-5.66c-.32 0-.58.26-.58.58v4.19c0 .32.26.58.58.58H73.1c.32 0 .58-.26.58-.58v-4.19c0-.32-.26-.58-.58-.58H49.61zM73.71 97.56h-24.8V81.75h24.8v15.81zm-24.48-.32h24.16V82.07H49.23v15.17z"/><path fill="#202124" d="M55.07 81.91h.27V97.4h-.27zM61.3 81.91h.27V97.4h-.27zM67.52 81.91h.27V97.4h-.27z"/><path fill="#202124" d="M49.07 85.72h24.48v.27H49.07zM49.07 89.72h24.48v.27H49.07zM49.07 93.33h24.48v.27H49.07z"/><linearGradient id="j" gradientUnits="userSpaceOnUse" x1="35.3966" y1="1029.1163" x2="35.3966" y2="1042.0427" gradientTransform="translate(0 -964)"><stop offset="0" style="stop-color:#5F6368"/><stop offset="1" style="stop-color:#5F6368;stop-opacity:0"/></linearGradient><path fill="url(#j)" d="M42.71 65.71l-1.22-.68-1.22.68-1.22-.68-1.22.68-1.21-.68-1.22.68-1.22-.68-1.22.68-1.22-.68-1.22.68-1.22-.68-1.22.68-1.22-.68V78.82h17.07V65.03z"/><path fill="#202124" d="M26.07 78.67h18.8v.32h-18.8z"/><linearGradient id="k" gradientUnits="userSpaceOnUse" x1="151.1095" y1="108.2165" x2="151.1095" y2="21.2995" gradientTransform="matrix(1 0 0 -1 0 152)"><stop offset="0" style="stop-color:#202124"/><stop offset="1" style="stop-color:#202124;stop-opacity:0"/></linearGradient><path fill="url(#k)" d="M172.69 114.92l-18.88 17.2h-24.29l18.34-17.2z"/><linearGradient id="l" gradientUnits="userSpaceOnUse" x1="41.4945" y1="133.5208" x2="41.4945" y2="19.3371" gradientTransform="matrix(1 0 0 -1 0 152)"><stop offset="0" style="stop-color:#202124"/><stop offset="1" style="stop-color:#202124;stop-opacity:0"/></linearGradient><path fill="url(#l)" d="M80.86 115.29L61.08 133.3H2.12l19.2-18.01z"/></svg>