<svg xmlns="http://www.w3.org/2000/svg" width="200" height="150"><linearGradient id="a" gradientUnits="userSpaceOnUse" x1="159.535" y1="45.413" x2="159.535" y2="97.6342"><stop offset="0" style="stop-color:#EAEAEA"/><stop offset="1" style="stop-color:#EAEAEA;stop-opacity:0"/></linearGradient><path fill="url(#a)" d="M169.31 87.71l.94-5.29 1.65.15.09-.96-1.57-.14 1.09-6.37c.39-2.3-1.16-4.49-3.46-4.88-.06-.01-.12 0-.18-.01l1.96-10.3h2.61v-.96H170l2-10.46c.49-2.61-1.22-5.12-3.82-5.61-2.61-.49-5.12 1.22-5.61 3.82l-.3 1.55-1.04-.71-.54.8 1.39.94-3.91 20.5-1.14-8.13c-.16-1.17-.75-2.17-1.57-2.9l.88-1.92-.88-.4-.8 1.75c-.9-.52-1.95-.77-3.06-.61-2.63.37-4.46 2.8-4.09 5.42l1.43 10.17-2.12-.43-.19.94 2.45.5 1.9 13.54h18.33z"/><path fill="#D3D3D3" d="M172.57 114.92h-24.83l-3.58-20.15h31.99zM176.79 94.77h-32.93c-1.35 0-2.44-1.09-2.44-2.44v-6.26h37.81v6.26c0 1.35-1.09 2.44-2.44 2.44z"/><path fill="none" stroke="#FFF" stroke-width=".7229" stroke-miterlimit="10" d="M152.05 64.32l-1.68-1.99M155.63 78.58l1.05-2.38M165.65 72.51l-.56-2.54M162.28 60.72l2.17-1.44"/><path fill="none" stroke="#FFF" stroke-width=".25" stroke-miterlimit="10" d="M176.31 94.91h-32.18"/><linearGradient id="b" gradientUnits="userSpaceOnUse" x1="150.9852" y1="43.7826" x2="150.9852" y2="130.6996"><stop offset="0" style="stop-color:#202124"/><stop offset="1" style="stop-color:#202124;stop-opacity:0"/></linearGradient><path fill="url(#b)" d="M172.57 114.92l-18.88 17.2H129.4l18.34-17.2z"/><g><path fill="#D3D3D3" d="M73.05 70.19H43.82v8.63h-17.1v-8.2c-1.9.81-3.24 2.7-3.24 4.9v32.86h54.9V75.52c0-2.95-2.38-5.33-5.33-5.33z"/><path fill="#EAEAEA" d="M80.74 115.29H21.19v-14.26c0-.97.79-1.76 1.76-1.76h56.03c.97 0 1.76.79 1.76 1.76v14.26z"/><linearGradient id="c" gradientUnits="userSpaceOnUse" x1="21.8989" y1="37.3898" x2="89.4123" y2="49.4383" gradientTransform="matrix(1 0 0 -1 0 150)"><stop offset="0" style="stop-color:#DEDEDE;stop-opacity:0.8044"/><stop offset="1" style="stop-color:#FFFFFF;stop-opacity:0"/></linearGradient><path opacity=".5" fill="url(#c)" d="M80.74 115.29H21.19v-14.26c0-.97.79-1.76 1.76-1.76h56.03c.97 0 1.76.79 1.76 1.76v14.26z"/><linearGradient id="d" gradientUnits="userSpaceOnUse" x1="61.5451" y1="62.89" x2="61.5451" y2="68.1078"><stop offset="0" style="stop-color:#EAEAEA"/><stop offset="1" style="stop-color:#EAEAEA;stop-opacity:0"/></linearGradient><path fill="url(#d)" d="M73.71 68.76H49.38c-.43 0-.77-.35-.77-.77v-4.33c0-.43.35-.77.77-.77h24.33c.43 0 .77.35.77.77v4.33c.01.42-.34.77-.77.77z"/><path fill="none" stroke="#FFF" stroke-width=".25" stroke-miterlimit="10" d="M24.51 102.04h52.73v10.92H24.51z"/><circle fill="none" stroke="#FFF" stroke-width=".2741" stroke-miterlimit="10" cx="50.96" cy="107.63" r="2.2"/><path fill="none" stroke="#FFF" stroke-width=".25" stroke-miterlimit="10" d="M73.03 78.97H49.51c-.41 0-.74-.33-.74-.74v-4.2c0-.41.33-.74.74-.74h23.52c.41 0 .74.33.74.74v4.2c0 .4-.33.74-.74.74zM48.96 81.81h24.51v15.51H48.96zM55.11 81.81v15.52M61.35 81.81v15.52M67.58 81.81v15.52M48.96 85.76h24.52M48.96 89.77h24.52M48.96 93.39h24.52"/><linearGradient id="e" gradientUnits="userSpaceOnUse" x1="35.27" y1="86.8248" x2="35.27" y2="69.8248" gradientTransform="matrix(1 0 0 -1 0 150)"><stop offset="0" style="stop-color:#EAEAEA"/><stop offset="1" style="stop-color:#EAEAEA;stop-opacity:0"/></linearGradient><path fill="url(#e)" d="M42.6 65.59l-1.22-.68-1.23.68-1.22-.68-1.22.68-1.22-.68-1.22.68-1.22-.68-1.22.68-1.22-.68-1.22.68-1.22-.68-1.23.68-1.22-.68v13.91h17.1V64.91z"/><linearGradient id="f" gradientUnits="userSpaceOnUse" x1="41.37" y1="18.4783" x2="41.37" y2="132.662"><stop offset="0" style="stop-color:#202124"/><stop offset="1" style="stop-color:#202124;stop-opacity:0"/></linearGradient><path fill="url(#f)" d="M80.74 115.29L60.96 133.3H2l19.2-18.01z"/><path fill="none" stroke="#FFF" stroke-width=".25" stroke-miterlimit="10" d="M44.75 78.82H25.93"/></g><g><path fill="#EAEAEA" d="M89.96 21.84c4.18 0 7.81 2.31 9.71 5.72 1.51-2.03 2.41-4.54 2.41-7.27 0-6.76-5.48-12.24-12.24-12.24S77.6 13.53 77.6 20.29c0 2.81.96 5.4 2.55 7.46 1.86-3.51 5.55-5.91 9.81-5.91zM77.08 46.48c4.18 0 7.81 2.31 9.71 5.72 1.51-2.03 2.41-4.54 2.41-7.27 0-6.76-5.48-12.24-12.24-12.24s-12.24 5.48-12.24 12.24c0 2.81.96 5.4 2.55 7.46 1.86-3.51 5.56-5.91 9.81-5.91z"/><path fill="#4285F4" d="M126.92 81.41h.48c.12 0 .21.1.2.22l-.75 9.7c-.01.12-.12.22-.24.22h-.48l.79-10.14zM127.66 71.83h.48c.12 0 .21.1.2.22l-.37 4.73c-.01.12-.12.22-.24.22h-.48l.41-5.17z"/><path fill="#4285F4" d="M124.15 50.5H95.94c-3.05 0-5.72 2.48-5.95 5.52l-5.45 70.09c-.24 3.05 2.05 5.52 5.1 5.52h28.21c3.05 0 5.72-2.48 5.95-5.52l5.45-70.09c.23-3.04-2.05-5.52-5.1-5.52z"/><radialGradient id="g" cx="135.3911" cy="99.7828" r="46.6761" gradientTransform="matrix(1 0 0 -1 0 150)" gradientUnits="userSpaceOnUse"><stop offset="0" style="stop-color:#FFFFFF;stop-opacity:0.936"/><stop offset="1" style="stop-color:#FFFFFF;stop-opacity:0"/></radialGradient><path opacity=".4" fill="url(#g)" d="M127.74 77c.12 0 .23-.1.24-.22l.37-4.73c.01-.12-.08-.22-.2-.22h-.12l1.22-15.8c.24-3.05-2.05-5.52-5.1-5.52H95.94c-3.05 0-5.72 2.48-5.95 5.52l-5.45 70.09c-.24 3.05 2.05 5.52 5.1 5.52h28.21c3.05 0 5.72-2.48 5.95-5.52l2.7-34.56h.12c.12 0 .23-.1.24-.22l.75-9.7c.01-.12-.08-.22-.2-.22h-.12l.34-4.42h.11z"/><path fill="none" stroke="#FFF" stroke-width=".25" stroke-linecap="round" stroke-miterlimit="10" d="M117.83 130.79H89.98c-2.71 0-4.74-2.2-4.53-4.92l5.41-69.48c.21-2.71 2.58-4.92 5.3-4.92H124c2.71 0 4.74 2.2 4.53 4.92l-5.41 69.48c-.2 2.72-2.57 4.92-5.29 4.92z"/><path fill="#FFF" d="M118.13 129.59H90c-1.98 0-3.46-1.6-3.31-3.58l5.22-67.07c.14-1.87 1.78-3.39 3.65-3.39h28.52c1.87 0 3.27 1.52 3.13 3.39L121.99 126c-.16 1.98-1.88 3.59-3.86 3.59z"/><path fill="none" stroke="#FFF" stroke-width=".5" stroke-linecap="round" stroke-miterlimit="10" d="M114.82 53.63h-8.78"/><ellipse transform="rotate(-43.89 104.30342 53.57994)" fill="#FFF" cx="104.307" cy="53.582" rx=".33" ry=".31"/><circle fill="#EA4335" cx="76.99" cy="42.14" r="3.71"/><path fill="#EA4335" d="M86.79 52.2c-1.89-3.41-5.53-5.72-9.71-5.72-4.26 0-7.95 2.4-9.81 5.92 2.24 2.9 5.74 4.78 9.69 4.78 1.18 0 2.31-.19 3.39-.5l4.64 2.85c.37.23.84-.11.73-.53l-1.12-4.53c.82-.67 1.56-1.42 2.19-2.27z"/><circle fill="#34A853" cx="89.86" cy="17.5" r="3.71"/><path fill="#34A853" d="M99.66 27.56c-1.89-3.41-5.53-5.72-9.71-5.72-4.26 0-7.95 2.4-9.81 5.92 2.2 2.85 5.63 4.71 9.5 4.77l3.69 4.8c.27.35.82.2.87-.24l.7-5.68c1.89-.87 3.53-2.19 4.76-3.85z"/><path fill="#EAEAEA" d="M141.96 43.54c4.26 0 7.95 2.4 9.81 5.92 1.59-2.07 2.55-4.65 2.55-7.46 0-6.76-5.48-12.24-12.24-12.24S129.84 35.24 129.84 42c0 2.73.9 5.23 2.41 7.27 1.89-3.42 5.53-5.73 9.71-5.73zm.09-8.05c2.05 0 3.71 1.66 3.71 3.71s-1.66 3.71-3.71 3.71-3.71-1.66-3.71-3.71c.01-2.05 1.67-3.71 3.71-3.71z"/><circle fill="#4285F4" cx="142.05" cy="39.2" r="3.71"/><path fill="#4285F4" d="M141.96 43.53c-4.18 0-7.81 2.31-9.71 5.72.425.576.912 1.098 1.428 1.59l-1.658 4.7c-.14.41.29.79.68.6l5.344-2.609c1.265.445 2.619.699 4.036.699 3.95 0 7.45-1.88 9.69-4.78-1.86-3.52-5.55-5.92-9.81-5.92z"/><path fill="#EAEAEA" d="M116.33 33.12c4.26 0 7.95 2.4 9.81 5.92 1.59-2.07 2.55-4.65 2.55-7.46 0-6.76-5.48-12.24-12.24-12.24s-12.24 5.48-12.24 12.24c0 2.73.9 5.23 2.41 7.27 1.9-3.42 5.54-5.73 9.71-5.73zm.1-8.04c2.05 0 3.71 1.66 3.71 3.71s-1.66 3.71-3.71 3.71-3.71-1.66-3.71-3.71 1.66-3.71 3.71-3.71z"/><circle fill="#FBBC04" cx="116.43" cy="28.78" r="3.71"/><path fill="#FBBC04" d="M126.14 39.04c-1.86-3.52-5.55-5.92-9.81-5.92-4.18 0-7.81 2.31-9.71 5.72 1.56 2.11 3.78 3.68 6.35 4.44l1.3 4.46c.12.42.69.48.9.1l2.2-4.09c3.57-.26 6.71-2.04 8.77-4.71z"/><path fill="#D3D3D3" d="M115.41 90.62l-3.06-1.6c-.73-.51-1.73-.37-2.29.32l-1.55 2.17c-3.78-2.1-5.87-4.93-7.01-7.55l2.42-1.16c.81-.39 1.19-1.34.87-2.18l-1.28-3.79c-.31-.8-1.16-1.26-2-1.07l-3.63.83.02.08h-.04c-.01.15-1.1 15.42 16.38 19.38l.01-.02.06.04 1.66-3.27c.37-.77.14-1.7-.56-2.18zM111.76 107.87h-11.05c-1.59 0-2.87-1.29-2.87-2.87 0-1.59 1.29-2.87 2.87-2.87h11.05c1.59 0 2.87 1.29 2.87 2.87 0 1.59-1.29 2.87-2.87 2.87z"/><circle fill="#EAEAEA" cx="100.8" cy="105" r="2.11"/><path fill="none" stroke="#FFF" stroke-width=".7229" stroke-miterlimit="10" d="M166.28 54.22l-1.1-2.36"/><linearGradient id="h" gradientUnits="userSpaceOnUse" x1="98.97" y1="102.4718" x2="98.97" y2="112.9499" gradientTransform="matrix(1 0 0 -1 0 150)"><stop offset="0" style="stop-color:#EAEAEA"/><stop offset="1" style="stop-color:#EAEAEA;stop-opacity:0"/></linearGradient><path fill="url(#h)" d="M96.03 38.94c1.62-1.62 4.26-1.63 5.88 0 1.62 1.62 1.63 4.26 0 5.88-.15.15-.32.28-.49.4l-.14 2.09c-.03.38-.49.54-.75.26l-1.4-1.55c-1.12.04-2.25-.35-3.1-1.2-1.62-1.62-1.63-4.25 0-5.88z"/><linearGradient id="i" gradientUnits="userSpaceOnUse" x1="71.1616" y1="28.8166" x2="67.7376" y2="18.3492"><stop offset="0" style="stop-color:#EAEAEA"/><stop offset="1" style="stop-color:#EAEAEA;stop-opacity:0"/></linearGradient><path fill="url(#i)" d="M66.35 20.16c1.62-1.62 4.26-1.63 5.88 0 1.62 1.62 1.63 4.26 0 5.88-.15.15-.32.28-.49.4l-.14 2.09c-.03.38-.49.54-.75.26l-1.4-1.55c-1.12.04-2.25-.35-3.1-1.2-1.62-1.63-1.62-4.26 0-5.88z"/><linearGradient id="j" gradientUnits="userSpaceOnUse" x1="296.3356" y1="122.6967" x2="296.3356" y2="133.1748" gradientTransform="rotate(180 215.57685 75)"><stop offset="0" style="stop-color:#EAEAEA"/><stop offset="1" style="stop-color:#EAEAEA;stop-opacity:0"/></linearGradient><path fill="url(#j)" d="M137.76 18.72c-1.62-1.62-4.26-1.63-5.88 0-1.62 1.62-1.63 4.26 0 5.88.15.15.32.28.49.4l.14 2.09c.03.38.49.54.75.26l1.4-1.55c1.12.04 2.25-.35 3.1-1.2 1.62-1.62 1.62-4.26 0-5.88z"/><linearGradient id="k" gradientUnits="userSpaceOnUse" x1="321.7918" y1="134.3135" x2="321.7918" y2="144.7916" gradientTransform="rotate(180 215.57685 75)"><stop offset="0" style="stop-color:#EAEAEA"/><stop offset="1" style="stop-color:#EAEAEA;stop-opacity:0"/></linearGradient><path fill="url(#k)" d="M112.3 7.1c-1.62-1.62-4.26-1.63-5.88 0-1.62 1.62-1.63 4.26 0 5.88.15.15.32.28.49.4l.14 2.09c.03.38.49.54.75.26l1.4-1.55c1.12.04 2.25-.35 3.1-1.2 1.63-1.62 1.63-4.25 0-5.88z"/></g></svg>