<?xml version="1.0" encoding="utf-8"?>
<!-- Generator: Adobe Illustrator 30.0.0, SVG Export Plug-In . SVG Version: 9.03 Build 0)  -->
<svg version="1.1" baseProfile="basic" id="Layer_1"
	 xmlns="http://www.w3.org/2000/svg" xmlns:xlink="http://www.w3.org/1999/xlink" x="0px" y="0px" width="250px" height="150px"
	 viewBox="0 0 250 150" xml:space="preserve">
<g>
	<g id="Picture_00000103948951146892150650000012833867769650090907_">
		<path fill="#A09D25" d="M76.13,115.2c-6.11,1.64-12.41-2-14.05-8.11L43.45,37.57c-1.64-6.11,2-12.41,8.11-14.05l69.51-18.63
			c6.11-1.64,12.41,2,14.05,8.11l18.63,69.51c1.64,6.11-2,12.41-8.11,14.05L76.13,115.2z"/>
		<path fill="#C1D992" d="M143.91,90.11L74.4,108.73c-2.55,0.68-5.17-0.83-5.86-3.38L49.92,35.84c-0.68-2.55,0.83-5.17,3.38-5.86
			l69.51-18.63c2.55-0.68,5.17,0.83,5.86,3.38l18.63,69.51C147.98,86.8,146.46,89.42,143.91,90.11z"/>
		<path fill="#105B5B" d="M140.7,59.64c-1.59-0.23-3.21-0.06-4.71,0.48c-0.71,0.25-1.49,0.02-1.93-0.58c-0.74-1-1.69-1.89-2.84-2.58
			c-4.14-2.5-9.49-1.58-12.57,2.14c-3.65,4.43-2.73,10.94,1.86,14.21c0.15,0.11,0.31,0.21,0.46,0.31c0.66,0.42,1.13,1.1,1.23,1.88
			c0.35,2.59,1.72,5.03,4.02,6.66c4.4,3.13,10.51,2.11,13.64-2.29l0.01-0.01c0.35-0.5,0.88-0.84,1.48-0.97
			c1.44-0.31,2.82-0.94,4.01-1.88L140.7,59.64z"/>
		<path fill="#105B5B" d="M82.69,90.87v-0.01c0.02-0.61,0.27-1.19,0.7-1.63c1.78-1.81,2.86-4.32,2.8-7.09
			c-0.11-5-3.94-9.07-8.92-9.5c-3.49-0.3-6.67,1.25-8.62,3.81c-0.49,0.65-1.35,0.89-2.12,0.62c-1.14-0.4-2.37-0.6-3.67-0.54
			c-0.67,0.03-1.33,0.13-1.96,0.28l5.67,21.16c1.62,1.39,3.71,2.26,6.01,2.34C77.98,100.49,82.51,96.26,82.69,90.87z"/>
		<path fill="#1F8A52" d="M74.4,108.73l69.51-18.63c2.55-0.68,4.06-3.3,3.38-5.86l-3.33-12.42l-78.75,21.1l3.33,12.42
			C69.23,107.9,71.85,109.42,74.4,108.73z"/>
		
			<rect x="82.14" y="86.09" transform="matrix(0.9659 -0.2588 0.2588 0.9659 -21.4303 27.0207)" fill="#DDE39C" width="19.55" height="17.64"/>
		<g>
			<path fill="#A09D25" d="M114.77,28.92l-0.44-1.64c-0.34-1.25-1.63-2-2.88-1.66L70.27,36.65c-1.25,0.34-2,1.63-1.66,2.88
				l0.44,1.64c0.39,1.47-0.48,2.98-1.95,3.38l-3.67,0.98l1.86,6.94l58.46-15.66l-1.86-6.94l-3.74,1
				C116.67,31.26,115.16,30.39,114.77,28.92z"/>
			
				<rect x="68.37" y="36.91" transform="matrix(0.9659 -0.2588 0.2588 0.9659 -12.1766 27.5724)" fill="#FBAF00" width="60.52" height="46.25"/>
			<path fill="#ECEFD9" d="M80.53,52.43L80.53,52.43c-5.21,1.4-8.31,6.76-6.91,11.97l6.57,24.52l18.88-5.06L92.5,59.34
				C91.11,54.13,85.75,51.03,80.53,52.43z"/>
			<path fill="#ECEFD9" d="M125.29,67.79l-22.33,5.98c-1.02,0.27-2.07-0.33-2.34-1.35l-5.85-21.83c-0.27-1.02,0.33-2.07,1.35-2.34
				l22.33-5.98c1.02-0.27,2.07,0.33,2.34,1.35l5.85,21.83C126.91,66.47,126.31,67.52,125.29,67.79z"/>
			<path fill="#A09D25" d="M92.47,75.68l-10.64,2.85c-1.1,0.3-2.23-0.36-2.53-1.46l0,0c-0.3-1.1,0.36-2.23,1.46-2.53l10.64-2.85
				c1.1-0.3,2.23,0.36,2.53,1.46l0,0C94.22,74.25,93.57,75.38,92.47,75.68z"/>
			<g>
				<path d="M81.73,64.64c-0.02,0-0.04,0-0.06-0.01c-0.13-0.03-0.2-0.17-0.17-0.29l1-3.75c0.02-0.08,0.09-0.15,0.17-0.17
					c0.08-0.02,0.17,0,0.23,0.06l2.75,2.75c0.09,0.09,0.09,0.24,0,0.34c-0.09,0.09-0.24,0.09-0.34,0l-2.45-2.45l-0.9,3.35
					C81.93,64.57,81.84,64.64,81.73,64.64z"/>
				
					<rect x="79.33" y="62.91" transform="matrix(0.9659 -0.2588 0.2588 0.9659 -14.0533 23.9647)" fill="#FFFFFF" width="9.32" height="4.9"/>
			</g>
			<g>
				<polygon fill="#EAEED6" points="76.26,52.9 71.77,43.29 63.42,45.53 67.9,55.14 				"/>
				<polygon fill="#C1D992" points="84.61,50.66 80.13,41.05 71.77,43.29 76.26,52.9 				"/>
				<polygon fill="#EAEED6" points="92.96,48.42 88.48,38.82 80.13,41.05 84.61,50.66 				"/>
				<polygon fill="#C1D992" points="101.31,46.19 96.83,36.58 88.48,38.82 92.96,48.42 				"/>
				<polygon fill="#EAEED6" points="109.66,43.95 105.18,34.34 96.83,36.58 101.31,46.19 				"/>
				<polygon fill="#C1D992" points="118.01,41.71 113.54,32.1 105.18,34.34 109.66,43.95 				"/>
				<polygon fill="#EAEED6" points="126.37,39.47 121.89,29.86 113.54,32.1 118.02,41.71 				"/>
			</g>
			<g>
				<path fill="#2C8851" d="M112.41,68.22c-0.71-2.95-1.51-4.04-3.04-4.15l0.1-1.33c2.53,0.19,3.53,2.2,4.24,5.17L112.41,68.22z"/>
				<path fill="#40C76E" d="M110.35,61.37c-0.6-0.28-1.3-0.21-1.94-0.36c-1.36-0.22-1.81-1.67-2.87-2.29
					c-0.48-0.24-1.29-0.37-1.76-0.12c-0.35,0.18-0.69,0.47-1.01,0.83c-0.1,0.11-0.12,0.27-0.06,0.4c0.5,1.05,1.17,2.65,0.91,3.27
					c-0.26,0.62-1.13,0.1-2.08-0.84c-0.13-0.13-0.35-0.08-0.42,0.09c-0.71,1.96-0.94,4.14-0.26,5.25c0.75,1.05,1.67,0.87,2.45-0.01
					c1.01-0.89,2.44-1.15,3.79-1.09c1.36,0.14,2.9,0.23,3.69-1.08C111.74,64.23,111.88,62.12,110.35,61.37z"/>
				<path fill="#1F8A52" d="M122.35,54.93c-0.1-0.18-0.31-0.29-0.51-0.32c-0.21-0.03-0.42-0.01-0.63,0
					c-0.85,0.03-1.7-0.22-2.48-0.54c-0.79-0.32-1.55-0.72-2.36-1.01c-0.43-0.16-0.88-0.28-1.33-0.3c-0.47-0.01-0.94,0.09-1.34,0.33
					c-0.08-0.3-0.21-0.58-0.37-0.85c-0.26-0.42-0.6-0.78-0.98-1.08c-0.39-0.31-0.84-0.57-1.32-0.68c-1.12-0.27-2.29,0.23-3.26,0.85
					c-0.97,0.62-1.88,1.38-2.99,1.72c-0.67,0.21-1.38,0.25-2.08,0.34c-0.39,0.06-0.79,0.13-1.14,0.31
					c-0.35,0.18-0.66,0.48-0.77,0.86c-0.2,0.7,0.32,1.41,0.92,1.82c0.61,0.4,1.32,0.63,1.89,1.09c0.78,0.64,1.14,1.63,1.59,2.54
					c0.45,0.9,1.1,1.82,2.09,2.03c0.9,0.19,1.84-0.31,2.43-1.03c0.41-0.5,0.91-1.29,1.01-2.08c1.12,1.27,1.94,2.9,2.1,4.97h0.01
					c0.05,1.21,0.2,2.44,0.34,3.6l0.06,0.48l1.32-0.16l-0.06-0.48c-0.15-1.21-0.29-2.41-0.35-3.54h0c0-0.03-0.01-0.05-0.01-0.08
					c-0.08-1.74,0.06-3.31,0.73-4.53c0.03,0.65,0.21,1.29,0.66,1.78c0.62,0.67,1.7,0.87,2.52,0.46c0.71-0.35,1.16-1.07,1.59-1.74
					c0.69-1.08,1.42-2.14,2.18-3.17c0.25-0.34,0.51-0.69,0.59-1.1C122.42,55.26,122.43,55.08,122.35,54.93z M113.11,60.11
					c-0.47-0.92-1.07-1.72-1.74-2.41c0.71-0.31,1.34-0.81,1.78-1.45c0.09,0.17,0.19,0.34,0.31,0.5c0.24,0.33,0.54,0.63,0.87,0.88
					C113.73,58.34,113.34,59.19,113.11,60.11z"/>
			</g>
			<path fill="#A09D25" d="M107.33,69.43L107.33,69.43c0.07-0.02,0.14,0.02,0.17,0.08l1.12,2.74l11-2.95l-0.4-2.94
				c-0.01-0.07,0.03-0.14,0.1-0.16l0.08-0.02c0.4-0.11,0.68-0.49,0.63-0.9c-0.06-0.51-0.56-0.83-1.03-0.7l-12.13,3.25
				c-0.46,0.12-0.72,0.61-0.57,1.06C106.45,69.32,106.91,69.55,107.33,69.43z"/>
		</g>
		<g>
			<path fill="#A09D25" d="M76.26,52.9c0.62,2.31,2.99,3.68,5.3,3.06c2.31-0.62,3.68-2.99,3.06-5.3L76.26,52.9z"/>
			<path fill="#A09D25" d="M92.96,48.43c0.62,2.31,2.99,3.68,5.3,3.06c2.31-0.62,3.68-2.99,3.06-5.3L92.96,48.43z"/>
			<path fill="#A09D25" d="M109.67,43.95c0.62,2.31,2.99,3.68,5.3,3.06c2.31-0.62,3.68-2.99,3.06-5.3L109.67,43.95z"/>
			<path fill="#A09D25" d="M67.9,55.14c0.62,2.31,2.99,3.68,5.3,3.06c2.31-0.62,3.68-2.99,3.06-5.3L67.9,55.14z"/>
			<path fill="#A09D25" d="M84.61,50.66c0.62,2.31,2.99,3.68,5.3,3.06c2.31-0.62,3.68-2.99,3.06-5.3L84.61,50.66z"/>
			<path fill="#A09D25" d="M101.31,46.19c0.62,2.31,2.99,3.68,5.3,3.06c2.31-0.62,3.68-2.99,3.06-5.3L101.31,46.19z"/>
			<path fill="#A09D25" d="M118.01,41.71c0.62,2.31,2.99,3.68,5.3,3.06c2.31-0.62,3.68-2.99,3.06-5.3L118.01,41.71z"/>
		</g>
	</g>
	<g id="Stars_00000061444611860063505600000013441217338901392573_">
		<path fill-rule="evenodd" clip-rule="evenodd" fill="#FBAF00" d="M177.87,109.23v-0.12H77.49v0.12
			c-10,0.02-18.11,8.13-18.11,18.14c0,10.01,8.1,18.12,18.11,18.14l0,0h100.38c10.02,0,18.14-8.12,18.14-18.14
			C196,117.35,187.88,109.23,177.87,109.23z"/>
		<g>
			<path fill="#FFFFFF" d="M78.33,117.56l2.3,5.49l5.93,0.49c0.8,0.07,1.13,1.07,0.52,1.59l-4.51,3.88l1.37,5.79
				c0.18,0.78-0.67,1.4-1.36,0.98l-5.09-3.09l-5.09,3.09c-0.69,0.42-1.54-0.2-1.36-0.98l1.37-5.79l-4.51-3.88
				c-0.61-0.52-0.28-1.53,0.52-1.59l5.93-0.49l2.3-5.49C76.96,116.81,78.02,116.81,78.33,117.56z"/>
			<path fill="#FFFFFF" d="M103.41,117.56l2.3,5.49l5.93,0.49c0.8,0.07,1.13,1.07,0.52,1.59l-4.51,3.88l1.37,5.79
				c0.18,0.78-0.67,1.4-1.36,0.98l-5.09-3.09l-5.09,3.09c-0.69,0.42-1.54-0.2-1.36-0.98l1.37-5.79l-4.51-3.88
				c-0.61-0.52-0.28-1.53,0.52-1.59l5.93-0.49l2.3-5.49C102.05,116.81,103.1,116.81,103.41,117.56z"/>
			<path fill="#FFFFFF" d="M128.5,117.56l2.3,5.49l5.93,0.49c0.8,0.07,1.13,1.07,0.52,1.59l-4.51,3.88l1.37,5.79
				c0.18,0.78-0.67,1.4-1.36,0.98l-5.09-3.09l-5.09,3.09c-0.69,0.42-1.54-0.2-1.36-0.98l1.37-5.79l-4.51-3.88
				c-0.61-0.52-0.28-1.53,0.52-1.59l5.93-0.49l2.3-5.49C127.14,116.81,128.19,116.81,128.5,117.56z"/>
			<path fill="#FFFFFF" d="M153.59,117.56l2.3,5.49l5.93,0.49c0.8,0.07,1.13,1.07,0.52,1.59l-4.51,3.88l1.37,5.79
				c0.18,0.78-0.67,1.4-1.36,0.98l-5.09-3.09l-5.09,3.09c-0.69,0.42-1.54-0.2-1.36-0.98l1.37-5.79l-4.51-3.88
				c-0.61-0.52-0.28-1.53,0.52-1.59l5.93-0.49l2.3-5.49C152.22,116.81,153.28,116.81,153.59,117.56z"/>
			<path fill="#FFFFFF" d="M178.67,117.56l2.3,5.49l5.93,0.49c0.8,0.07,1.13,1.07,0.52,1.59l-4.51,3.88l1.37,5.79
				c0.18,0.78-0.67,1.4-1.36,0.98l-5.09-3.09l-5.09,3.09c-0.69,0.42-1.54-0.2-1.36-0.98l1.37-5.79l-4.51-3.88
				c-0.61-0.52-0.28-1.53,0.52-1.59l5.93-0.49l2.3-5.49C177.31,116.81,178.36,116.81,178.67,117.56z"/>
		</g>
	</g>
	<g id="Pin_00000043422826439879712550000002791344292329008798_">
		<path fill="#FF4365" d="M204.16,42.43c-2.99-5.77-8.14-10.11-14.35-12.09c-2.41-0.74-4.9-1.11-7.39-1.11
			c-2.49,0-4.98,0.37-7.39,1.11c-6.21,1.97-11.36,6.32-14.35,12.09c-1.82,3.47-2.78,7.34-2.78,11.28c0,14.9,9.53,20.7,17.71,33.48
			c4.97,7.7,3.58,12.3,6.79,12.3c0.01,0,0.01,0,0.02,0c0.01,0,0.01,0,0.02,0c3.21,0,1.82-4.6,6.79-12.3
			c8.18-12.78,17.71-18.58,17.71-33.48C206.94,49.77,205.99,45.9,204.16,42.43z M182.41,72.46c-10.34,0-18.73-8.38-18.73-18.73
			S172.06,35,182.41,35s18.73,8.38,18.73,18.73S192.75,72.46,182.41,72.46z"/>
		<path fill="#FBBC04" d="M187.79,49.13c2.41,0,3.92-2.61,2.72-4.69c-0.02-0.03-0.03-0.06-0.05-0.09c-1.21-2.05-4.2-2.01-5.39,0.05
			l0,0c1.2-2.07-0.28-4.68-2.68-4.7c-0.02,0-0.03,0-0.05,0s-0.03,0-0.05,0c-2.39,0.01-3.87,2.62-2.68,4.7l0,0
			c-1.19-2.06-4.18-2.11-5.39-0.05c-0.02,0.03-0.03,0.06-0.05,0.09c-1.2,2.09,0.31,4.69,2.72,4.69c-2.41,0-3.92,2.61-2.72,4.69
			c0.02,0.03,0.03,0.06,0.05,0.09c1.21,2.05,4.2,2.01,5.39-0.05l0,0c-1.2,2.07,0.28,4.69,2.68,4.7c0.02,0,0.03,0,0.05,0
			s0.03,0,0.05,0c2.4-0.01,3.87-2.62,2.68-4.7l0,0c1.19,2.06,4.18,2.11,5.39,0.05c0.02-0.03,0.03-0.06,0.05-0.09
			C191.71,51.73,190.2,49.13,187.79,49.13z"/>
		<circle fill="#ECEFD9" cx="182.33" cy="49.13" r="3.15"/>
		<path fill="#1F8A52" d="M196.43,55.22c-0.74,7.09-6.74,12.62-14.02,12.62c-0.01,0-0.07,0-0.08,0c-0.09,0-0.18,0-0.28,0
			c0,0,0,0,0,0c-7.12-0.18-12.93-5.64-13.66-12.61c6.81,0.41,12.69,5.41,13.98,12.38C183.66,60.6,189.59,55.59,196.43,55.22z"/>
	</g>
</g>
</svg>
