<?xml version="1.0" encoding="utf-8"?>
<!-- Generator: Adobe Illustrator 30.0.0, SVG Export Plug-In . SVG Version: 9.03 Build 0)  -->
<svg version="1.1" baseProfile="basic" id="Layer_1"
	 xmlns="http://www.w3.org/2000/svg" xmlns:xlink="http://www.w3.org/1999/xlink" x="0px" y="0px" width="1248px" height="960px"
	 viewBox="0 0 1248 960" xml:space="preserve">
<g>
	<g id="Sky_00000091702536252569173800000002969879913198901926_">
		
			<linearGradient id="SVGID_1_" gradientUnits="userSpaceOnUse" x1="624.0386" y1="15405.1094" x2="624.0386" y2="14232.1865" gradientTransform="matrix(1 0 0 -1 0 15052)">
			<stop  offset="0" style="stop-color:#FDF139"/>
			<stop  offset="0.581" style="stop-color:#FFFFFF"/>
		</linearGradient>
		<path fill="url(#SVGID_1_)" d="M1094.59,882.78h-941.1c-64.01,0-115.91-51.9-115.91-115.91V151.13
			c0-64.01,51.9-115.91,115.91-115.91h941.1c64.01,0,115.91,51.9,115.91,115.91v615.73C1210.5,830.88,1158.6,882.78,1094.59,882.78z
			"/>
	</g>
	<g id="Land_00000148624675371202872160000008641857497457249691_">
		<path fill="#06B0FF" d="M632.32,424.55h30.96v-0.95h-45.34c-4.78,13.39-178.66,499.18-178.66,499.18h371.59L632.32,424.55z"/>
		<g>
			<path fill="#EBEED8" d="M1210.5,806.87V401.98H663.29v22.57h-30.96l178.56,498.23h283.72
				C1158.6,922.78,1210.5,870.88,1210.5,806.87z"/>
			<path fill="#EBEED8" d="M37.58,510.18v296.68c0,64.01,51.9,115.91,115.91,115.91h285.79c0,0,178.8-499.51,178.77-499.47
				L37.58,510.18z"/>
		</g>
		<g>
			<path fill="#A09D25" d="M588.01,423.75L305.09,562.37L37.5,537.77v81.44c5.37,2.3,30.28,13.07,118.39,52.49
				c179.57,72,270.41-37.1,308.81-83.46c38.4-46.36,143.1-164.48,143.1-164.48h-19.79V423.75z"/>
			<path fill="#C9C283" d="M573.79,439.33c-3.51,3.26-9.02,10.31-12.46,13.47l19.43,1.56c4.31-4.89,8.26-9.37,11.72-13.28
				L573.79,439.33z"/>
			<path fill="#C9C283" d="M541.19,469.58c-9.62,8.69-16.68,16.3-25.78,24.2l29.27,1.63c7.22-8.25,14.25-16.25,20.85-23.76
				L541.19,469.58z"/>
			<path fill="#C9C283" d="M514.52,529.98l-36.39-4.09c-20.14,16.25-36.96,28.14-54.93,40.2l50.85,10.97
				C485.27,563.79,499.52,547.25,514.52,529.98z"/>
			<path fill="#C9C283" d="M423.29,633l-68.46-23.09c-29.2,11.14-45.24,15.49-73.56,14.92l-5.97,70.69
				C342.12,693.68,390.05,663.45,423.29,633z"/>
			<path fill="#C9C283" d="M126.02,578.49l-88.52,31.8v8.92c5.37,2.3,30.28,13.07,118.39,52.49c0.06,0.02,0.12,0.05,0.18,0.07
				l86.28-50.07C221.74,614.58,126.02,578.49,126.02,578.49z"/>
		</g>
		<path fill="#DFE59F" d="M37.58,401.51L37.5,544.73c76.32,35.41,162.19,81.3,247.75,81.04c64.72-1.25,119.71-40.88,168.83-79.21
			c49.33-39.17,93.14-78.27,141.67-119.93c9.25-7.98,18.81-16.2,28.7-24.68L37.58,401.51z"/>
		<path fill="#DFE59F" d="M1210.5,806.87v-143.7c-116.79,13.53-226.23,53.96-284.17,80.2c-18.92,8.57-24.89,32.49-12.22,48.91
			l100.63,130.49h79.85C1158.6,922.78,1210.5,870.88,1210.5,806.87z"/>
		<path fill="#C6D89A" d="M999.47,528.5l-3.4-9.94h-15.73H723.92h-15.73c-8.35,0-13.06,9.57-7.97,16.19l33.27,56.59
			c15.04,19.57,41.5,26.36,64.09,16.41c19.36-8.54,43.44-20.74,70.81-33.62C905.72,559.23,950.54,542.98,999.47,528.5z"/>
		<path fill="#C6D89A" d="M1121.13,401.98H656.69h-23.25l70.28,18.77c13.33,3.08,27.39,3.15,30.19,3.15h40.44h346.77h89.37v-21.91
			H1121.13z"/>
		<path fill="#A09D25" d="M898.47,472.77h224.82v-39.29H771.65c-10.01,0-8.21,5.76-3.23,7.61l106.27,30.31
			C875.53,472.27,897.26,472.77,898.47,472.77z"/>
		<path fill="#A09D25" d="M860.53,486.71l-229.55-80.34l5.44,17.24l38.74,67.43c3.86,5.03,9.84,7.97,16.19,7.97h43.82h75.92h43.82
			C861.28,499,864.69,491.52,860.53,486.71z"/>
		<g>
			<path fill="#FAB400" d="M46.34,705.38c16.33,11.27,45.6,28.1,72.48,37.71c3.2,1.14,9.09,0.34,11.54-2l25.87-17.1
				c1.08-1.04,0.49-2.69-0.93-3.14c-31.16-9.85-60.91-23.85-80.39-33.7c-0.6-0.3-1.32-0.26-1.88,0.12l-26.87,14.95
				C45,703.01,45.2,704.59,46.34,705.38z"/>
			<path fill="#FAB400" d="M190.43,696.47c-25.78-6.1-59.08-20.9-77.51-30.16c-0.6-0.3-1.31-0.26-1.87,0.12l-25.51,13.91
				c-1.16,0.79-1.06,2.52,0.19,3.16c17.28,8.85,50.27,24.6,77.67,31.44c1.68,0.42,4.62,0.25,5.87-0.94l22.01-14.42
				C192.33,698.58,191.85,696.81,190.43,696.47z"/>
			<path fill="#FAB400" d="M110.54,747.97c-38.79-13.01-64.46-33.66-71.2-39.48c-0.51-0.44-1.13-0.7-1.77-0.79v47.52
				c14.23,8.74,28.39,15.46,35.83,18.8c3.28,1.48,7.09,1.13,10.07-0.9l27.91-19.07C113.73,752.44,113.23,748.86,110.54,747.97z"/>
			<path fill="#FAB400" d="M65.27,780.04c-9.3-3.29-18.78-8.19-27.69-13.62v38.05l28.37-19.39
				C67.88,783.77,67.48,780.83,65.27,780.04z"/>
		</g>
	</g>
	<g id="Buildings_00000049190997447451426790000014658149442660363663_">
		<g>
			<path fill="#FAB400" d="M663.53,402.28h60.41c7.16,0,13.66-4.13,16.7-10.61l1.79-3.82c3.04-6.48,9.54-10.61,16.7-10.61h6.86h6.86
				c7.16,0,13.66,4.13,16.7,10.61l1.79,3.82c3.04,6.48,9.54,10.61,16.7,10.61h60.41v-30.23h-40.54c-6.84,0-13.29-3.15-17.51-8.52
				l-8.49-10.83c-4.22-5.38-10.67-8.52-17.51-8.52H766h-18.41c-6.84,0-13.29,3.15-17.51,8.52l-8.49,10.83
				c-4.22,5.38-10.67,8.52-17.51,8.52h-40.54v30.23H663.53z"/>
			<g>
				<g>
					<path id="XMLID_00000029009779039155636210000002952878450555709372_" fill="#C6D89A" d="M1007.15,292.76l-50.99-65.04
						c-1.32-1.68-3.09-2.6-4.92-2.87l0,0l0,0c-0.73-0.11-1.48-0.1-2.21,0h-29.29c-5.78,0-10.47,4.69-10.47,10.47V402h33.26h8.72
						h57.66V297.83C1008.9,295.99,1008.28,294.21,1007.15,292.76z"/>
				</g>
				
					<linearGradient id="SVGID_00000035500153628627518790000006601434062150662557_" gradientUnits="userSpaceOnUse" x1="909.2638" y1="14758.1357" x2="1008.8929" y2="14758.1357" gradientTransform="matrix(1 0 0 -1 0 15052)">
					<stop  offset="0.0839" style="stop-color:#FFFCBC"/>
					<stop  offset="0.9928" style="stop-color:#EBEED8"/>
				</linearGradient>
				<path fill="url(#SVGID_00000035500153628627518790000006601434062150662557_)" d="M909.26,261.62c0-5.78,4.69-10.47,10.47-10.47
					h29.29c0.73-0.1,1.48-0.11,2.21,0l0,0l0,0c1.83,0.26,3.6,1.17,4.92,2.87l50.99,65.04c1.14,1.45,1.75,3.23,1.75,5.07v12.53
					c0-1.84-0.62-3.62-1.75-5.07l-50.99-65.04c-1.32-1.68-3.09-2.6-4.92-2.87l0,0l0,0c-0.73-0.11-1.48-0.1-2.21,0h-29.29
					c-5.78,0-10.47,4.69-10.47,10.47V261.62z"/>
				<path fill="none" d="M1007.15,292.76l-50.99-65.04c-1.32-1.68-3.09-2.6-4.92-2.87c-0.73-0.11-1.48-0.1-2.21,0h-29.29
					c-5.78,0-10.47,4.69-10.47,10.47V402h33.26h8.72h57.66V297.83C1008.9,295.99,1008.28,294.21,1007.15,292.76z"/>
				
					<linearGradient id="SVGID_00000070807707532734410580000008950940167952662660_" gradientUnits="userSpaceOnUse" x1="909.2638" y1="14717.7676" x2="1008.8929" y2="14717.7676" gradientTransform="matrix(1 0 0 -1 0 15052)">
					<stop  offset="0.0839" style="stop-color:#FFFCBC"/>
					<stop  offset="0.9928" style="stop-color:#EBEED8"/>
				</linearGradient>
				<path fill="url(#SVGID_00000070807707532734410580000008950940167952662660_)" d="M909.26,301.99c0-5.78,4.69-10.47,10.47-10.47
					h29.29c0.73-0.1,1.48-0.11,2.21,0l0,0l0,0c1.83,0.26,3.6,1.17,4.92,2.87l50.99,65.04c1.14,1.45,1.75,3.23,1.75,5.07v12.53
					c0-1.84-0.62-3.62-1.75-5.07l-50.99-65.04c-1.32-1.68-3.09-2.6-4.92-2.87l0,0l0,0c-0.73-0.11-1.48-0.1-2.21,0h-29.29
					c-5.78,0-10.47,4.69-10.47,10.47V301.99z"/>
				<path fill="none" d="M1007.15,292.76l-50.99-65.04c-1.32-1.68-3.09-2.6-4.92-2.87c-0.73-0.11-1.48-0.1-2.21,0h-29.29
					c-5.78,0-10.47,4.69-10.47,10.47V402h33.26h8.72h57.66V297.83C1008.9,295.99,1008.28,294.21,1007.15,292.76z"/>
				
					<linearGradient id="SVGID_00000176746127198306331200000008546941089952712619_" gradientUnits="userSpaceOnUse" x1="909.2638" y1="14677.3994" x2="1008.8929" y2="14677.3994" gradientTransform="matrix(1 0 0 -1 0 15052)">
					<stop  offset="0.0839" style="stop-color:#FFFCBC"/>
					<stop  offset="0.9928" style="stop-color:#EBEED8"/>
				</linearGradient>
				<path fill="url(#SVGID_00000176746127198306331200000008546941089952712619_)" d="M909.26,342.36c0-5.78,4.69-10.47,10.47-10.47
					h29.29c0.73-0.1,1.48-0.11,2.21,0l0,0l0,0c1.83,0.26,3.6,1.17,4.92,2.87l50.99,65.04c1.14,1.45,1.75,3.23,1.75,5.07v12.53
					c0-1.84-0.62-3.62-1.75-5.07l-50.99-65.04c-1.32-1.68-3.09-2.6-4.92-2.87l0,0l0,0c-0.73-0.11-1.48-0.1-2.21,0h-29.29
					c-5.78,0-10.47,4.69-10.47,10.47V342.36z"/>
				<path fill="none" d="M1007.15,292.76l-50.99-65.04c-1.32-1.68-3.09-2.6-4.92-2.87c-0.73-0.11-1.48-0.1-2.21,0h-29.29
					c-5.78,0-10.47,4.69-10.47,10.47V402h33.26h8.72h57.66V297.83C1008.9,295.99,1008.28,294.21,1007.15,292.76z"/>
			</g>
			<path fill="#C9C283" d="M1027.76,321.69c-1.58-1.35-3.45-1.98-5.3-2.01l0,0h-27.27c-5.25,0-9.5,4.25-9.5,9.5v73.07H1014h8.46
				h34.7v-55.52L1027.76,321.69z"/>
			<path fill="#9E9E3B" d="M888.52,277.19c-16.51,0-29.9,13.38-29.9,29.9v8.93c-12.05,3.86-20.76,15.15-20.76,28.48v57.46h20.76
				h29.87h20.76V277.19H888.52z"/>
			<path fill="#FAB400" d="M506.54,346.99v-11.61c0-6.68-5.42-12.1-12.1-12.1h-30.2v78.68h42.3h79.51v-49.63h-74.18
				C508.92,352.33,506.54,349.94,506.54,346.99z"/>
			<rect x="434.8" y="281.97" fill="#C6D89A" width="29.43" height="120.21"/>
			<rect x="405.36" y="281.97" fill="#C9C283" width="29.43" height="120.21"/>
			<path fill="#A09D25" d="M420.56,265.22h28.47c8.39,0,15.2,6.81,15.2,15.2v4.86h-58.87v-4.86
				C405.36,272.03,412.16,265.22,420.56,265.22z"/>
			<path fill="#FAB400" d="M434.29,221.45l-3.66,34.46h4.2h4.2l-3.66-34.46C435.27,220.81,434.35,220.81,434.29,221.45z"/>
			<path fill="#C6D89A" d="M322.62,289.21c21.62,0,39.15,17.53,39.15,39.15v73.6h43.59V289.21H322.62z"/>
			<path fill="#9E9E3B" d="M322.62,289.21c-0.29,0-0.56,0.02-0.85,0.02c-21.23,0.46-38.3,17.79-38.3,39.13v73.6h38.3h40v-73.6
				C361.77,306.74,344.25,289.21,322.62,289.21z"/>
			<path fill="#C9C283" d="M136.57,353.56c0.37,2.98,0.56,6.01,0.56,9.09v7.5c5.45-1.55,11.2-2.39,17.15-2.39
				c24.36,0,45.47,13.9,55.85,34.2h27.31c10.39-20.3,31.48-34.2,55.85-34.2c24.36,0,45.47,13.9,55.85,34.2h12.63v-48.4
				L136.57,353.56L136.57,353.56z"/>
			<path fill="#C6D89A" d="M353.23,303.97h-29.74h-31.48H278.5h-21.4h-18.55c-24.28,0-46.15,13.01-58.01,33.2
				c-2.97,5.05-5.32,10.54-6.92,16.4h109.86h78.3v-25.2C361.77,319.14,358.57,310.66,353.23,303.97z"/>
			
				<linearGradient id="SVGID_00000058549851548217250320000009967943532210143904_" gradientUnits="userSpaceOnUse" x1="180.0546" y1="14731.3945" x2="256.8647" y2="14731.3945" gradientTransform="matrix(1 0 0 -1 0 15052)">
				<stop  offset="0.0004570946" style="stop-color:#FAB400"/>
				<stop  offset="1" style="stop-color:#A09D25"/>
			</linearGradient>
			<path fill="url(#SVGID_00000058549851548217250320000009967943532210143904_)" d="M256.86,303.95h-18.62
				c-24.36,0-46.29,13.05-58.19,33.3h66.56L256.86,303.95z"/>
			
				<linearGradient id="SVGID_00000072960237959091935540000011688858106659639706_" gradientUnits="userSpaceOnUse" x1="268.0848" y1="14731.3945" x2="323.4669" y2="14731.3945" gradientTransform="matrix(1 0 0 -1 0 15052)">
				<stop  offset="0.0004570946" style="stop-color:#FAB400"/>
				<stop  offset="1" style="stop-color:#A09D25"/>
			</linearGradient>
			<polygon fill="url(#SVGID_00000072960237959091935540000011688858106659639706_)" points="313.22,337.26 323.47,303.95 
				278.33,303.95 268.08,337.26 			"/>
			
				<linearGradient id="SVGID_00000143583084868086209850000017210890210818760323_" gradientUnits="userSpaceOnUse" x1="313.2282" y1="14731.3945" x2="361.872" y2="14731.3945" gradientTransform="matrix(1 0 0 -1 0 15052)">
				<stop  offset="0.0004570946" style="stop-color:#FAB400"/>
				<stop  offset="1" style="stop-color:#A09D25"/>
			</linearGradient>
			<path fill="url(#SVGID_00000143583084868086209850000017210890210818760323_)" d="M353.3,303.95h-29.83l-10.25,33.3h48.64v-8.83
				C361.86,319.17,358.66,310.67,353.3,303.95z"/>
			<path fill="#C9C283" d="M439.56,252.39h-9.54c-5.49,0-9.95,4.46-9.95,9.95v2.88h29.43v-2.88
				C449.52,256.84,445.06,252.39,439.56,252.39z"/>
			<path fill="#C6D89A" d="M1210.5,402.01h-153.72v-73.8c0-8.1,6.56-14.66,14.66-14.66h139.06L1210.5,402.01L1210.5,402.01z"/>
			<path fill="#FAB400" d="M63.7,289.17H37.58v112.34h99.55v-39.17C137.13,321.93,104.25,289.17,63.7,289.17z"/>
		</g>
	</g>
	<g id="Sign_00000116220427922888178960000015887580696185878968_">
		<g>
			<path d="M106.78,558.96h-6.93c-2.5,0-4.53-2.02-4.53-4.53V452.71h15.99v101.72C111.31,556.92,109.28,558.96,106.78,558.96z"/>
			<path fill="#34A853" d="M117.83,379.26H87.37c-1.29,0-2.53,0.49-3.46,1.38l-21.35,20.23c-1,0.95-1.57,2.27-1.57,3.66v28.34
				c0,1.38,0.57,2.7,1.57,3.66l21.35,20.23c0.94,0.89,2.17,1.38,3.46,1.38h30.46c1.29,0,2.53-0.49,3.46-1.38l21.35-20.23
				c1-0.95,1.57-2.27,1.57-3.66v-28.34c0-1.38-0.57-2.7-1.57-3.66l-21.35-20.23C120.36,379.75,119.12,379.26,117.83,379.26z"/>
			<path fill="#EBEED8" d="M120.67,407.38c-2.7,0-4.88,2.19-4.88,4.88v4.56h-0.03v3.04c0,1.48-1.2,2.67-2.67,2.67h-5.52
				c-3.73,0-6.76,3.03-6.76,6.76v0.25c0,0.29-0.23,0.53-0.53,0.53h-1.04c-0.29,0-0.53-0.23-0.53-0.53v-0.25
				c0-4.88,3.96-8.84,8.84-8.84h5.52c0.32,0,0.59-0.26,0.59-0.59l0.03-7.48l0,0v-16.31c0-1.53-1.24-2.77-2.77-2.77l0,0
				c-1.53,0-2.77,1.24-2.77,2.77v20.24c0,0.28-0.22,0.51-0.51,0.51h-1.06c-0.28,0-0.51-0.22-0.51-0.51v-22.92
				c0-1.53-1.24-2.77-2.77-2.77l0,0c-1.53,0-2.77,1.24-2.77,2.77v22.92c0,0.28-0.22,0.51-0.51,0.51h-1.06
				c-0.28,0-0.51-0.22-0.51-0.51v-20.84c0-1.53-1.24-2.77-2.77-2.77l0,0c-1.53,0-2.77,1.24-2.77,2.77v20.84
				c0,0.28-0.22,0.51-0.51,0.51h-1.06c-0.28,0-0.51-0.22-0.51-0.51v-16.08c0-1.53-1.24-2.77-2.77-2.77l0,0
				c-1.53,0-2.77,1.24-2.77,2.77v16.59v0.48v7.57c0,5.22,2.99,9.74,7.36,11.95c0.32,0.16,0.53,0.5,0.53,0.87v4.81
				c0,1,0.82,1.82,1.82,1.82h16.63c1,0,1.82-0.82,1.82-1.82v-4.81c0-0.36,0.2-0.7,0.53-0.87c3.83-1.94,6.6-5.65,7.22-10.06
				c0.08-0.1,0.14-0.22,0.14-0.37v-1.52v-8.05v-8.78C121.34,407.68,121.04,407.38,120.67,407.38z"/>
		</g>
	</g>
	<g id="Characters_00000106830596865037604160000002620042552992618681_">
		<g>
			<path d="M275.34,849.98L275.34,849.98c-1.38-3.81,0.88-8.56,5.05-10.62l10.12-4.98c4.17-2.06,8.68-0.63,10.06,3.18l0,0
				c1.38,3.81-0.88,8.56-5.05,10.62l-10.12,4.98C281.22,855.21,276.72,853.79,275.34,849.98z"/>
			<path fill="#3C6755" d="M358.7,821.36l-46.7-47.22l2.84-6.24c1.23-2.7,0.04-5.88-2.66-7.1c-2.7-1.23-5.88-0.04-7.1,2.66
				l-3.72,8.19l-62.59,1.31l2.26-3.7c2.23-3.65,2.79-7.87,1.54-11.57c-1.56-4.62-2.22-11.39,3.49-17.39
				c2.04-2.15,1.96-5.54-0.19-7.58s-5.54-1.96-7.58,0.19c-7.22,7.6-9.36,17.88-5.87,28.21c0.18,0.53,0.13,1.47-0.53,2.55
				l-43.1,70.55c-1.55,2.53-0.75,5.83,1.79,7.37c0.87,0.53,1.84,0.79,2.79,0.79c1.81,0,3.57-0.91,4.58-2.57l34.19-55.98l64.31-1.34
				l-11.24,24.7c-1.23,2.7-0.04,5.88,2.66,7.1c0.72,0.32,1.48,0.48,2.22,0.48c2.04,0,3.99-1.17,4.88-3.15l12.29-27.03l37.9,38.32
				l-31.37,1.48c-2.96,0.14-5.25,2.65-5.11,5.61c0.14,2.87,2.51,5.11,5.36,5.11c0.08,0,0.17,0,0.26-0.01l39.34-1.86
				c2.87-0.1,5.42-1.92,6.49-4.61C361.14,826.05,360.6,823.27,358.7,821.36z"/>
			<path fill="#010101" d="M324.47,766.11l-33.97,0.11c-3.71,0.01-6.33-2.8-6.04-6.48l0,0c0.29-3.69,3.37-7.06,7.13-7.78l34.46-6.61
				c4.32-0.83,7.77,2.12,7.45,6.35l-0.49,6.51C332.69,762.43,328.72,766.1,324.47,766.11z"/>
			<path d="M344.56,884.67c-9.19,0-17.77-3.5-24.46-10.05c-9.69-9.48-14.53-24.27-13.28-40.58c1.07-13.91,6.41-27.42,15.05-38.04
				c8.93-10.97,20.36-17.65,32.2-18.82c10.52-1.04,20.49,2.47,28.06,9.88c9.69,9.48,14.53,24.27,13.28,40.58
				c-1.07,13.91-6.41,27.42-15.05,38.04c-8.93,10.97-20.36,17.65-32.2,18.82C346.95,884.61,345.75,884.67,344.56,884.67z
				 M357.69,790.2c-0.77,0-1.55,0.04-2.33,0.12c-17.46,1.72-33.66,22.19-35.38,44.73c-0.95,12.41,2.47,23.4,9.36,30.14
				c4.8,4.7,10.86,6.83,17.53,6.17c17.46-1.72,33.66-22.19,35.38-44.73l0,0c0.95-12.41-2.46-23.4-9.36-30.14
				C368.66,792.35,363.44,790.2,357.69,790.2z"/>
			<path d="M187.37,888.5c-9.19,0-17.77-3.5-24.46-10.05c-9.69-9.48-14.53-24.27-13.28-40.58c1.07-13.91,6.41-27.42,15.05-38.04
				c8.93-10.97,20.36-17.65,32.2-18.82c10.53-1.04,20.49,2.47,28.06,9.88c9.69,9.48,14.53,24.27,13.28,40.58l0,0
				c-1.07,13.91-6.41,27.42-15.05,38.04c-8.93,10.97-20.36,17.65-32.2,18.82C189.76,888.44,188.56,888.5,187.37,888.5z
				 M200.5,794.02c-0.77,0-1.55,0.04-2.33,0.12c-17.46,1.72-33.66,22.19-35.38,44.73c-0.95,12.41,2.46,23.4,9.36,30.14
				c4.8,4.7,10.86,6.83,17.53,6.17c17.46-1.72,33.66-22.19,35.38-44.73c0.95-12.41-2.47-23.4-9.36-30.14
				C211.47,796.17,206.26,794.02,200.5,794.02z M231.64,830.96L231.64,830.96L231.64,830.96z"/>
			<path d="M307.98,655.13c3.55,0.53,6.82,2.78,8.55,5.93c0.97,1.77,1.51,3.81,2.78,5.38c3.93,4.83,11.82,2.54,17.55,4.96
				c5.29,2.24,7.97,9.52,4.83,14.33c-1.92,2.93-5.4,4.51-8.86,5.02c-4.17,0.63-8.52-0.08-12.28-1.99
				c-5.67-2.89-10.75-8.6-17.04-7.61c-1.81,0.29-3.48,1.13-5.24,1.63c-2.73,0.77-5.63,0.69-8.43,0.22
				c-3.86-0.64-7.7-2.09-10.46-4.87c-2.36-2.38-5.14-7.96-2.16-10.8c2.02-1.92,7.36-2.16,10.01-3.55
				C293.69,660.39,300.1,653.97,307.98,655.13z"/>
			<path fill="#00854C" d="M279.2,666.41c0,0,4.42,1.21,3.28-6.59s-10.13-15.73-22.18-12.56c-12.05,3.18-10.69,18.27-10.01,21.88
				c0.68,3.62,15.18-5.56,15.18-5.56L279.2,666.41z"/>
			<path fill="#865022" d="M248.03,730.2h-19.19c-3.35,0-6.36,2.09-7.53,5.23l-0.41,1.1c-1.28,3.43-0.85,7.26,1.15,10.32l1.5,2.3
				c1.33,2.03,3.59,3.26,6.01,3.26h4.64c1.88,0,3.4-1.52,3.4-3.4l0,0c0-1.88-1.52-3.4-3.4-3.4h-2.37c-2.27,0-3.86-2.25-3.11-4.39
				l0,0c0.69-1.96,2.99-2.8,4.78-1.75l5.42,3.18c2.5,1.47,5.35,2.24,8.25,2.24l0,0c1.62,0,3.16-0.64,4.3-1.79l3.05-3.06
				L248.03,730.2z"/>
			<path fill="#865022" d="M304.26,758.52c-7.33,3.42-14.98,5.9-23.04,6.64c10.42,11.78,16.83,27.04,17.96,42.72l-0.39,2.11
				c-4.33,2.74-8.42,4.53-13.07,6.68c-9.77-14.67-19.53-29.35-29.29-44.02c-1.72-2.59-3.45-5.2-4.56-8.11
				c-1.11-2.91-1.53-6.17-0.57-9.13c1.29-4,4.83-6.81,8.4-9.03c8.44-5.25,18.05-8.59,27.93-9.69L304.26,758.52z"/>
			<path fill="#003439" d="M335.96,742.9c0-1.45-0.23-2.85-0.66-4.17c0,0,0.5-7.02-14.3-14.88c-14.81-7.86-36.26,12.84-36.26,12.84
				l6.47,20.86c1.24,4.1,5.04,7.09,9.55,7.09c2.5,0,4.77-0.92,6.52-2.43l0,0c4.23-3.66,9.63-5.7,15.23-5.75l0,0
				C329.95,756.41,335.96,750.36,335.96,742.9z"/>
			<path fill="#865022" d="M285.99,676.12c-0.08-0.43-0.87,0.02-1.18,0.32c-2.32-1.41-4.87-3.15-5.24-5.83
				c-0.24-1.71,0.49-3.38,0.94-5.05c0.46-1.67,0.55-3.67-0.67-4.9c-1.27-1.27-3.59-1.03-4.8,0.29c-0.25,0.26-0.45,0.56-0.6,0.88
				c-0.63,1.25-0.63,2.84-0.06,4.15c0.19,0.46-0.35,0.54-0.77,0.79c-0.42,0.25-0.94,0.28-1.44,0.3c-0.19,0.01-0.39,0.01-0.57,0.01
				c-1.02,0.02-2.04-0.01-3.05-0.04c-2.41,0.05-5.32,0.31-7.94,1.09c-2.27,0.68-4.45,1.98-6.17,3.21c2.35,4.15,2.19,9.25,5.63,12.57
				c2.53,2.44,6.79,2.81,9.7,0.83c0.75-0.51,1.45-1.17,2.33-1.38c1.21-0.29,2.49,0.39,3.28,1.35c0.79,0.97,1.18,2.19,1.56,3.37
				c3.38-3.24,6.18-6.78,8.67-10.74C285.82,676.97,286.06,676.55,285.99,676.12z"/>
			<path fill="#003439" d="M274.43,661.82c-0.02,0-0.05-0.01-0.06-0.01c-0.34-0.04-8.4-0.98-15.32,1.08
				c-6.44,1.92-11.85,7.36-12.08,7.6c-1.05,1.07-1.04,2.8,0.03,3.85c0.53,0.53,1.22,0.78,1.92,0.78c0.7,0,1.41-0.27,1.94-0.81
				c0.02-0.02,1.45-1.45,3.58-2.98c1.72-1.24,3.9-2.54,6.17-3.21c2.62-0.78,5.53-1.04,7.94-1.09c1.17-0.02,2.21,0,3.05,0.04
				c0.19,0,0.39,0,0.57-0.01c0.49-0.02,1-0.05,1.44-0.3c0.42-0.25,0.97-0.33,0.77-0.79C273.8,664.66,273.8,663.08,274.43,661.82z"/>
			<path fill="#FAB400" d="M325.9,714.36L325.9,714.36c-9.29-9.33-16.8-20.28-22.17-32.31l0,0c-2.33-5.21-7.55-8.84-13.62-8.84
				c-5.29,0-9.94,2.76-12.59,6.92l0,0l0,0c-0.53,0.83-0.98,1.72-1.34,2.66c-2.35,5.18-6.52,17.19-1.86,29.59
				c6.2,16.47,6.8,20.64,6.8,20.64l0.2-0.07c0.87,4.06,4.47,7.1,8.79,7.1c2.18,0,4.18-0.77,5.73-2.07l0,0
				c5.63-4.66,13.05-6.56,20.22-5.17l0,0c0.67,0.13,1.37,0.2,2.08,0.2c6.04,0,10.94-4.9,10.94-10.94
				C329.09,719.07,327.87,716.34,325.9,714.36z"/>
			<path fill="#FAB400" d="M304.2,686.06c-0.63-6.83-6.2-12.29-13.04-12.8c-8.14-0.6-14.95,5.69-15.23,13.63l0,0
				c-0.24,6.71-1.17,13.37-2.77,19.87c-0.75,3.05-3.24,5.36-6.34,5.86c-0.98,0.15-1.97,0.3-2.96,0.46
				c-3.88,0.61-7.76,1.21-11.64,1.82c-3.8,0.6-8.11,1.52-10.01,4.87c-1.46,2.57-0.99,5.83,0.16,8.55c1.16,2.72,2.93,5.14,4.1,7.85
				c1.02,2.37,1.65,5.05,3.53,6.82c2.2,2.07,5.63,2.31,8.54,1.5c2.91-0.82,5.46-2.53,8.09-4.03c4.14-2.38,8.56-4.28,13.14-5.66
				c1.71-0.52,3.52-1.02,5.18-1.73c5.39-1.09,9.54-5.55,10.17-11.09l0,0c1.14-9.94,3.81-19.64,7.91-28.77l0,0
				C303.99,691.04,304.43,688.61,304.2,686.06z"/>
			<path fill="#34A853" d="M317.56,827.92c-0.45-4.13-1.87-9.71-6.07-12.95c-4.65-3.59-5.82-6.11-6.07-7.46
				c0.01-0.13,0.02-0.26,0.02-0.39c0-2.77-2.24-5.02-5.02-5.02c-1.75,0-3.29,0.9-4.19,2.26l0,0c-2.46,3.72-7.14,5.29-11.34,3.78
				v0.01c-0.53-0.19-1.1-0.3-1.7-0.3c-2.77,0-5.02,2.24-5.02,5.02c0,0.61,0.12,1.19,0.31,1.72h-0.01
				c2.07,5.66-2.02,11.67-8.04,11.82h0.01c-6.74,0.15-12.16,5.66-12.16,12.44c0,6.88,5.57,12.45,12.45,12.45
				c1.77,0,3.45-0.37,4.98-1.04l14.96-5.95c4.95-1.97,8.42-6.5,9.02-11.79c0.05-0.4,0.57-0.51,0.78-0.17l1.85,3.09
				c1.17,1.95,3.6,2.74,5.69,1.84l5.39-2.31C316.2,833.77,317.89,830.91,317.56,827.92z"/>
			<path d="M223.55,754.52c-1.63,0-3.24-0.74-4.29-2.14c-1.78-2.36-1.31-5.73,1.07-7.51l10.43-7.84c2.36-1.78,5.73-1.31,7.51,1.07
				c1.78,2.36,1.31,5.73-1.07,7.51l-10.43,7.84C225.81,754.17,224.67,754.52,223.55,754.52z"/>
		</g>
		<g>
			<path fill="#00A84E" d="M209.84,546.76c-2.34-3.81-3.78-8.11-4.19-12.56l0,0c-0.49-5.37-5.01-9.58-10.51-9.58
				c-5.83,0-10.56,4.73-10.56,10.56c0,0.95,0.13,1.87,0.36,2.75c1.14,4.28,1.28,8.76,0.43,13.11c-0.19,0.88-0.28,1.79-0.28,2.73
				c0,7.38,5.98,13.37,13.37,13.37c7.38,0,13.37-5.99,13.37-13.37C211.83,551.19,211.1,548.8,209.84,546.76z"/>
			<path fill="#865022" d="M158.9,552.1l-2.17,12.6c-0.2,1.16-0.42,2.36-1.14,3.29c-0.96,1.25-2.7,1.85-3.35,3.28
				c-0.59,1.29-0.09,2.84-0.53,4.18c-0.43,1.31-1.68,2.23-1.94,3.66c-0.05,0.24-0.05,0.49,0,0.73c0.32,1.72,2.38,1.65,3.38,0.66
				c0.74-0.73,1.05-1.75,1.3-2.77c0.01-0.04,0.07-0.03,0.06,0.01c-0.12,2.49,0.16,4.98,1.34,7.17c1.24,2.31,3.58,4.14,6.2,4.26
				c1.61-2.97,1.65-6.51,1.48-9.88c-0.15-3.37-0.56-6.78,0.14-10.08c0.44-2.11,1.32-4.1,2.12-6.1c0.8-2.01,2.81-3.86,2.91-6.01
				c0.1-2.16-1.79-4.65-3.31-6.18c-0.85-0.86-1.99-1.45-3.19-1.51C160.65,549.34,159.17,550.58,158.9,552.1z"/>
			<path d="M169.2,624.22c0,0-12.94,0-12.94,0c-0.04,0-0.49,1.22-0.53,1.3c-0.54,1.12-1.24,2.16-2.06,3.1
				c-2.28,2.62-5.53,4.33-8.96,4.8c-2.56,0.35-4.74,0.59-6.7,2.46c-1.68,1.6-2.65,3.86-2.65,6.17c0,2.87,1.49,5.59,3.89,7.16
				c2.55,1.65,5.76,1.51,8.66,1.41c2.5-0.09,5.01-0.05,7.5-0.05c2.37,0,4.57-1.12,5.97-2.96c0.44-0.58,1.34-0.5,1.66,0.15l0.09,0.2
				c0.78,1.6,2.4,2.61,4.19,2.61c1.55,0,3.12,0.14,4.64-0.2c4.12-0.92,5.33-5.06,4.61-8.78c-0.56-2.86-1.72-5.65-2.89-8.31
				c-0.62-1.41-1.28-2.79-1.96-4.17c-0.4-0.8-0.8-1.6-1.22-2.4C170.38,626.43,169.44,624.22,169.2,624.22z"/>
			<path d="M230.34,628.11c-0.3-0.48-0.67-0.95-1.11-1.41c-4.3-4.54-10.11-7.99-15.53-11c-12.82-7.09-10.79,6.24-10.79,6.24
				c0.29,1.92-0.08,4.13-0.5,6c-1,4.33-3.29,7.35-6.76,10.01c-1.92,1.48-3.13,3.62-3.14,6.08c-0.03,7.06,7.99,8.74,13.48,7.17
				c3.15-0.9,5.84-2.69,8.38-4.69c2.36-1.86,4.23-3.59,4.68-6.78c0.07-0.47,0.12-0.88,0.17-1.21c0.05-0.4,0.48-0.63,0.84-0.46
				l2.7,1.2c0.93,0.41,1.99,0.32,2.83-0.25c0,0,2.38-1.61,2.39-1.61C231.46,635.07,232.42,631.4,230.34,628.11z"/>
			<path fill="#B26500" d="M183.25,587.78c1.17-1.67,2.45-3.28,3.84-4.79l0,0c2.51-2.75,4.05-6.41,4.05-10.42
				c0-8.53-6.92-15.45-15.45-15.45s-15.45,6.92-15.45,15.45c0,0.4,0.02,0.79,0.05,1.18h-0.01c0.87,11.43-2.44,22.78-9.32,31.95l0,0
				c-1.66,2.21-2.65,4.96-2.65,7.94c0,7.27,5.87,13.18,13.14,13.22l0,0h0.08h0.01c0.01,0,0.01,0,0.02,0l9.26-0.03
				c0.29,0.02,0.57,0.03,0.87,0.03c0.32,0,0.63-0.02,0.94-0.04h0.05v-0.01c6.83-0.51,12.22-6.21,12.22-13.18
				c0-1.65-0.31-3.23-0.86-4.69l5.73-15.12L183.25,587.78z"/>
			<path fill="#C27501" d="M220.48,608.06c0-3.23-1.58-6.08-4.03-7.84c-10.12-7.26-17-18.17-19.22-30.41
				c-1.3-7.23-7.6-12.7-15.2-12.7c-3.43,0-6.23-1.89-8.79,0c-0.54,0.4-0.58,3.32-0.66,4c-0.15,1.27-0.25,2.53-0.27,3.8
				c-0.03,2.72,0.06,5.44,0.32,8.14c0.53,5.45,1.73,10.86,3.92,15.89c1.59,3.66,3.69,7.11,4.98,10.9c1.32,3.86,1.57,8.17,1.34,12.22
				c-0.02,0.26-0.02,0.51-0.02,0.77c0,7.47,6.06,13.52,13.52,13.52c4.54,0,8.54-2.23,10.99-5.66l0.01,0.02
				c1.19-1.66,3-2.78,5.02-3.11v-0.01C216.99,616.82,220.48,612.86,220.48,608.06z"/>
			<path d="M166.45,512.3c0,0-4.03-11.57,9.05-12.8c12.33-1.17,13.28,10.42,11.01,12.68L166.45,512.3z"/>
			<path fill="#865022" d="M176.39,502.35c5.01-0.31,9.32,3.5,9.63,8.52c0.15,2.51-0.73,4.85-2.28,6.6l0,0
				c-1.95,2.19-2.47,5.1-2.28,8.03l0.3,4.85l-7.26,0.45l-0.3-4.85c-0.18-2.93-1.05-5.76-3.25-7.69l0,0
				c-1.75-1.54-2.92-3.76-3.08-6.27C167.57,506.97,171.38,502.66,176.39,502.35z"/>
			<path fill="#865022" d="M184.24,517.99c0.49,0.08,1.02-0.04,1.43-0.39c2.47-2.06,2.91-4.25,2.94-4.5l0.08-0.47
				c0.16-0.96-0.48-1.87-1.44-2.04c-0.96-0.16-1.87,0.48-2.04,1.44l-0.08,0.45c-0.03,0.12-0.33,1.24-1.74,2.42
				c-0.75,0.63-0.84,1.74-0.22,2.49C183.46,517.72,183.84,517.92,184.24,517.99z M185.15,512.48v0.02
				C185.14,512.51,185.14,512.5,185.15,512.48z"/>
			<path fill="#865022" d="M168.94,518.34c-0.5,0.02-1-0.17-1.37-0.57c-2.17-2.37-2.32-4.6-2.33-4.85l-0.02-0.48
				c-0.04-0.97,0.72-1.79,1.69-1.83c0.97-0.04,1.79,0.72,1.83,1.69l0.02,0.46c0.02,0.12,0.16,1.28,1.41,2.63
				c0.66,0.72,0.61,1.83-0.11,2.5C169.75,518.18,169.34,518.33,168.94,518.34z M168.77,512.77v0.02
				C168.77,512.79,168.77,512.79,168.77,512.77z"/>
			<path d="M176.39,502.35c0,0,3.18,8.88,9.57,5.63c0,0,1.88,0.64-1.58-4.63C180.93,498.08,176.39,502.35,176.39,502.35z"/>
			<path d="M177.13,502.79c0,0-3.83,8.38-10.02,5.77c0,0-1.56,0.23,2.01-4.96C172.68,498.41,177.13,502.79,177.13,502.79z"/>
			<circle cx="186.14" cy="498.75" r="6.04"/>
			<circle cx="168.29" cy="499.19" r="6.04"/>
			<path fill="#00A84E" d="M189.13,532.78c-3.79,0-6.87-3.08-6.87-6.87s3.08-6.87,6.87-6.87c3.79,0,6.87,3.08,6.87,6.87
				S192.92,532.78,189.13,532.78z M189.13,521.75c-2.3,0-4.17,1.87-4.17,4.17s1.87,4.17,4.17,4.17s4.17-1.87,4.17-4.17
				S191.43,521.75,189.13,521.75z"/>
			<path fill="#57410D" d="M206.08,539.45c0-2.53-1.57-4.69-3.79-5.58l0,0c-2.48-0.99-4.47-2.9-5.57-5.33l0,0
				c-1.38-3.08-4.47-5.22-8.06-5.22c-1.14,0-2.22,0.22-3.21,0.6l0,0c-4.05,1.58-8.42,2.13-12.73,1.62l0,0
				c-0.36-0.04-0.72-0.07-1.08-0.07c-4.67,0-8.51,3.52-9.02,8.05l0,0c-0.49,4.26-2.18,8.28-4.88,11.61l0,0
				c-0.72,0.88-1.15,2-1.15,3.23c0,2.83,2.3,5.12,5.12,5.12c0.29,0,0.57-0.03,0.84-0.08c0,0.02,0,0.05,0,0.08c0,3.32,2.69,6,6,6
				c0.43,0,0.83-0.05,1.23-0.12c6.85-1.38,13.88-1.55,20.79-0.53c0.3,0.05,0.61,0.07,0.92,0.07c3.32,0,6-2.69,6-6
				c0-1.45-0.52-2.78-1.37-3.82c2.28-1.57,4.61-3.06,6.99-4.46l0,0C204.89,543.59,206.08,541.66,206.08,539.45z"/>
			<path fill="#865022" d="M229.52,570.34c-0.12-0.66-0.49-1.26-0.89-1.81c-1.81-2.49-4.47-4.35-7.43-5.2
				c-1.72-0.49-3.55-0.66-5.19-1.41c-2.64-1.2-4.4-3.73-5.75-6.29c-2.06-3.9-3.55-8.21-6.37-11.57c-0.41,0.33-0.77,0.56-0.77,0.56
				s-4.71,2.89-6.99,4.46l-1.5,1c0.74,1.19,1.72,2.29,2.66,3.33c3.64,4,7.29,8.16,9.33,13.17c0.63,1.53,1.12,3.17,2.19,4.43
				c0.97,1.13,2.29,1.85,3.41,2.8c1.11,0.95,1.65,2.44,3.06,3.01c0.77,0.32,1.68,0.32,2.42-0.06c0.73-0.39,1.27-1.18,1.26-2.01
				c-0.01-0.85-0.55-1.61-1.17-2.19c-0.72-0.68-1.53-1.19-2.09-2.02c-0.38-0.56-0.54-1.32-0.22-1.92c0.4-0.77,1.39-0.99,2.26-1.02
				c1.87-0.05,3.74,0.46,5.35,1.42c0.79,0.47,1.51,1.05,2.13,1.72c0.58,0.62,0.97,1.34,1.79,1.69c0.64,0.27,1.45,0.22,1.97-0.23
				C229.49,571.75,229.64,571,229.52,570.34z"/>
		</g>
	</g>
	<g id="Trees_00000075142260834112792460000006521348129420533420_">
		<path fill="#34A853" d="M1147.64,398.62c-14.79,0-27.42,9.2-32.5,22.2c-9.46-13.42-25.07-22.2-42.73-22.2
			c-28.86,0-52.26,23.4-52.26,52.26s23.4,52.26,52.26,52.26c26.03,0,47.62-19.05,51.6-43.96c6.22,5.73,14.52,9.23,23.64,9.23
			c19.27,0,34.9-15.62,34.9-34.9C1182.53,414.25,1166.91,398.62,1147.64,398.62z"/>
		<g>
			<path fill="#745C00" d="M360.86,546.46h-17.35h-17.38v32.35h0.05c-0.39,5.14,3.59,9.97,10.51,11.82
				c8.82,2.36,19.03-1.01,22.8-7.54c0.82-1.41,1.38-4.28,1.38-4.28L360.86,546.46L360.86,546.46z"/>
			<path fill="#34A853" d="M385.92,517.05c0,15.83,0,47.78-42.42,47.78s-42.42-31.95-42.42-47.78s18.99-127.66,42.42-127.66
				C366.93,389.39,385.92,501.23,385.92,517.05z"/>
			<path fill="#745C00" d="M454.31,496.57H443.1h-11.23v20.9h0.03c-0.26,3.32,2.33,6.44,6.78,7.63c5.7,1.53,12.29-0.65,14.74-4.87
				c0.53-0.91,0.89-2.77,0.89-2.77V496.57z"/>
			<path fill="#34A853" d="M470.5,477.57c0,10.22,0,30.86-27.41,30.86c-27.41,0-27.41-20.65-27.41-30.86s12.27-82.47,27.41-82.47
				C458.22,395.1,470.5,467.35,470.5,477.57z"/>
			<path fill="#745C00" d="M516.89,462.88h-6.99h-7v13.03h0.02c-0.16,2.07,1.45,4.02,4.23,4.76c3.55,0.95,7.67-0.41,9.19-3.04
				c0.33-0.57,0.56-1.72,0.56-1.72v-13.03H516.89z"/>
			<path fill="#34A853" d="M526.98,451.04c0,6.38,0,19.24-17.09,19.24c-17.09,0-17.09-12.87-17.09-19.24s7.65-51.41,17.09-51.41
				S526.98,444.66,526.98,451.04z"/>
			<path fill="#745C00" d="M558.31,440.93h-4.14h-4.15v7.73h0.01c-0.09,1.23,0.86,2.38,2.51,2.82c2.11,0.56,4.54-0.24,5.45-1.8
				c0.19-0.34,0.32-1.02,0.32-1.02V440.93z"/>
			<path fill="#34A853" d="M564.29,433.9c0,3.78,0,11.41-10.13,11.41c-10.13,0-10.13-7.63-10.13-11.41
				c0-3.78,4.54-30.48,10.13-30.48C559.75,403.43,564.29,430.13,564.29,433.9z"/>
		</g>
		<path fill="#34A853" d="M1210.5,806.87v-19.13c-11.42-49.39-28.64-100.87-47.9-100.87c-34.39,0-62.27,164.16-62.27,187.39
			c0,12.61,0.01,32.2,9.97,47.47C1166.88,914.04,1210.5,865.56,1210.5,806.87z"/>
		<path fill="#34A853" d="M967.84,922.78h123.99c-1.49-29.89-28.68-184.49-62-184.49C996.51,738.29,969.34,892.89,967.84,922.78z"/>
	</g>
	<g id="Bus_00000064347043498722740980000002654342294279779206_">
		<g>
			<path d="M1068.02,666.14c-2.16-1.62-5.61-12.21-6.96-14.71c-2.25,1.04-7.66,7.43-9.95,8.52c3.14,6.68,13.28,12.69,21.41,11.62
				c4.86-0.63,10.56-1.84,15.58-5.13c-3.11,1.95-6.55,3.01-10.05,3.03C1074.44,669.5,1070.97,668.35,1068.02,666.14z"/>
			<path d="M1100.22,640.96c-0.56-6.31-3.44-11.86-7.89-15.22c-2.96-2.23-6.46-3.41-10.12-3.39l0,0
				c-7.1,0.03-13.91,4.37-18.21,11.58c-3.11,5.21-4.5,11.31-3.93,17.15c0.62,6.27,3.52,11.75,7.94,15.05
				c2.94,2.19,6.41,3.35,10.04,3.33c7.03-0.03,13.79-4.29,18.11-11.41C1099.31,652.91,1100.75,646.82,1100.22,640.96z
				 M1070.73,661.65c-6.48-4.84-7.54-15.76-2.36-24.43c3.52-5.88,8.99-9.2,14.19-9.23c2.49-0.02,4.91,0.73,7.02,2.32
				c6.48,4.88,7.48,15.86,2.26,24.5c-3.52,5.82-8.98,9.1-14.13,9.12C1075.23,663.95,1072.83,663.21,1070.73,661.65z"/>
			<path fill="#595959" d="M1091.82,654.85c0.01-0.01,0.02-0.02,0.02-0.03c0.29-0.47,0.55-0.96,0.8-1.45
				c0.08-0.15,0.15-0.3,0.22-0.45c0.18-0.37,0.35-0.73,0.5-1.11c0.1-0.23,0.19-0.46,0.28-0.7c0.13-0.33,0.25-0.66,0.36-1
				c0.09-0.29,0.19-0.57,0.27-0.87c0.05-0.15,0.08-0.29,0.12-0.44c1.95-7.2,0.24-14.69-4.81-18.49c-2.1-1.58-4.53-2.33-7.02-2.32
				c-5.19,0.02-10.68,3.35-14.19,9.23c-5.19,8.67-4.11,19.6,2.36,24.43c2.09,1.57,4.5,2.3,6.97,2.29c3.84-0.02,7.85-1.85,11.1-5.19
				l0,0l0,0c0.54-0.56,1.07-1.16,1.56-1.8c0.01-0.02,0.02-0.02,0.03-0.04c0.23-0.29,0.45-0.6,0.67-0.92
				c0.02-0.03,0.05-0.06,0.07-0.1C1091.37,655.56,1091.6,655.21,1091.82,654.85z"/>
			<path fill="#FAB400" d="M1210.47,621.3V416.69c-71.11-1.39-185.04,6.56-295.44,57.53c-8.08,4.41-9.67,12.04-9.67,20.97
				l0.06,97.11c0.26,6.41,3.16,12.93,8.02,17.97l79.22,53.59c11.15,9.1,29.36,13.35,39.63,8.89c12.8-5.56,18.5-7.28,29.92-12.71
				c0,0-2.06-5.05-2.13-8.93c-0.43-4.35,0.23-8.84,1.88-13c0.56-1.43,1.24-2.82,2.04-4.16c4.3-7.21,11.11-11.54,18.21-11.58l0,0
				c3.66-0.02,7.16,1.16,10.12,3.39c4.45,3.35,7.33,8.91,7.89,15.22c0.07,0.79,0.1,1.58,0.1,2.36c-0.02,1-0.03,3.17-0.49,5.18
				C1104.56,647.04,1179.58,624.89,1210.47,621.3z"/>
			<path fill="#C27501" d="M1210.47,452.7c-43.71,8.23-108.23,27.13-124.52,33.19c-19.51,7.26-37.48,13.92-53.06,20.11
				c-15.59,6.19-27.25,2.5-35.1,0c-7.03-2.23-64.18-19.65-76.09-23.28c-1.2-0.46-3.91-0.9-5.29-2.23c-3.14-2.99-0.87-5.83,3.11-8.28
				c-1.79,0.73,2.22-1.07-4.49,2.02c-8.08,4.41-9.67,12.04-9.67,20.97V501c0.75,2.72,2.38,5.56,5.73,7.7
				c2.01,1.55,6.27,3.06,6.27,3.06s63.36,24.74,77.23,31.03c15.64,7.1,20.72,11.33,48.64-2.77c59.55-24.8,132.56-41.33,167.24-48.37
				L1210.47,452.7L1210.47,452.7z"/>
			
				<linearGradient id="SVGID_00000081615942557283678270000003926701162414185128_" gradientUnits="userSpaceOnUse" x1="1044.3142" y1="14508.0654" x2="1210.4768" y2="14508.0654" gradientTransform="matrix(1 0 0 -1 0 15052)">
				<stop  offset="0.3305" style="stop-color:#FFFFFF"/>
				<stop  offset="1" style="stop-color:#FDF139"/>
			</linearGradient>
			<path fill="url(#SVGID_00000081615942557283678270000003926701162414185128_)" d="M1210.47,491.1
				c-26.54,5.05-79.79,16.16-117.87,30.42c-52.65,19.72-48.2,75.24-48.2,75.24c21.73-9.03,81.66-31.59,166.07-48.47L1210.47,491.1
				L1210.47,491.1z"/>
			
				<linearGradient id="SVGID_00000049187590313841897060000018113815351423933345_" gradientUnits="userSpaceOnUse" x1="1044.3066" y1="14500.0098" x2="1138.6354" y2="14500.0098" gradientTransform="matrix(1 0 0 -1 0 15052)">
				<stop  offset="0" style="stop-color:#FFFFFF"/>
				<stop  offset="1" style="stop-color:#FDF139"/>
			</linearGradient>
			<path fill="url(#SVGID_00000049187590313841897060000018113815351423933345_)" d="M1138.64,507.22
				c-16.01,4.24-32.05,9.06-46.04,14.3c-52.65,19.72-48.2,75.24-48.2,75.24c14.91-6.2,47.8-18.75,94.24-31.49V507.22z"/>
			
				<linearGradient id="SVGID_00000108307774570464030240000010742350795320328868_" gradientUnits="userSpaceOnUse" x1="905.2686" y1="14487.373" x2="1092.6111" y2="14487.373" gradientTransform="matrix(1 0 0 -1 0 15052)">
				<stop  offset="0" style="stop-color:#FFFFFF"/>
				<stop  offset="1" style="stop-color:#FDF139"/>
			</linearGradient>
			<path fill="url(#SVGID_00000108307774570464030240000010742350795320328868_)" d="M1027.32,545.8c-13.31,4.58-18.55,3.05-25.53,0
				c-6.99-3.05-75.49-30.76-84.44-34.04c-7.65-2.8-10.83-6.4-11.72-10.25l-0.36-0.15c0,0.45,0,2.46,0.01,5.46l-0.01-0.01
				c0,1.9,0.07,31.47,0.11,46.56c0.02,5.42,2.85,10.43,7.5,13.24l91.5,55.33l0,0c0.66,0.48,1.41,0.91,2.22,1.3
				c8.74,5.02,12.58,5.63,18.23,3.51c6.11-2.29,6.58-2.41,8.95-3.45c4-1.77,5.99-4.26,8.29-10.29c7.74-20.29,17.9-72.22,50.07-91.2
				c0.16-0.09,0.32-0.19,0.48-0.28C1074.38,528.4,1037.25,542.39,1027.32,545.8z"/>
			<path fill="#C27501" d="M1124.39,436.05c0,0-44.6,8.02-50.1,7.4c-7.09-0.79-13.65,0.57-18.85,1.54
				c-25.75,5.24-65.79-2.83-65.79-2.83l0.04,12.77c-0.04,2.83,2.2,5.63,8.98,7.15l58.29,11.71c10.86,1.51,17.27-0.22,20.24-1.02
				c11.76-3.15,24.05-6.48,54.09-14.37c1.09-0.29,2.24-0.86,2.24-2.39v-20.24L1124.39,436.05z"/>
			
				<linearGradient id="SVGID_00000030458808998335153250000009102679268974504321_" gradientUnits="userSpaceOnUse" x1="804.5218" y1="14526.8057" x2="948.0961" y2="14526.8057" gradientTransform="matrix(0.9997 0.0242 0.0242 -0.9997 -165.9599 14939.8916)">
				<stop  offset="0.0839" style="stop-color:#FFFCBC"/>
				<stop  offset="0.9928" style="stop-color:#EBEED8"/>
			</linearGradient>
			<path fill="url(#SVGID_00000030458808998335153250000009102679268974504321_)" d="M1115.14,430.93L1115.14,430.93
				c-17.87-2.87-38.79-6.44-44.29-7.06c-7.09-0.79-13.65,0.57-18.85,1.54c-25.75,5.24-45.95,9.57-49.89,10.56
				c-6.9,1.73-11.63,2.36-12.28,4.98v0.02h0.01c-0.41,1.57,0.7,3.51,4.3,3.93l59.38,8.26c10.86,1.51,16.92-0.21,19.9-1
				c11.76-3.15,24.7-6.39,54.89-13.71c3.04-0.74,5.21-1.17,5.21-2.7C1133.5,433.95,1124.02,432.61,1115.14,430.93z"/>
			<path fill="#C27501" d="M968.56,647.58v-4.11c0-4.32-3.47-10.19-7.75-13.12l-18.1-12.38c-4.28-2.93-7.75-1.8-7.75,2.52v4.34
				L968.56,647.58z"/>
			<g>
				<path fill="#FFFFFF" d="M1027.59,641.69l-5.12,2.11c-6.23,2.74-14.77-1.49-21.47-5.62l0,0l-12.97-8.69
					c-1.31-0.87-2.36,0.12-2.36,2.23v7.3c0,2.1,1.06,4.52,2.36,5.39l14.15,9.48c2.07,1.24,4.29,2.44,6.53,3.42l0,0
					c3.01,1.14,9.87,2.94,15.01,0.88l0,0l3.86-1.59c1.24-0.52,2.26-2.64,2.26-4.74v-7.3
					C1029.83,642.47,1028.83,641.18,1027.59,641.69z"/>
				<path fill="#FFFFFF" d="M920.29,585.39l-14.15-9.48c-0.25-0.15-0.49-0.29-0.74-0.43v15c0.66,0.38,1.3,0.77,1.92,1.15l0,0
					l12.97,8.69c1.31,0.87,2.36-0.12,2.36-2.23v-7.3C922.66,588.68,921.6,586.27,920.29,585.39z"/>
			</g>
		</g>
	</g>
	<g id="Arrow_00000125593868593813848850000017648718561622982788_">
		<g>
			<ellipse fill="#3D5FEC" cx="624.86" cy="755.9" rx="175.5" ry="123.21"/>
			<path fill="#FFFFFF" d="M611.16,664.5l-85.94,147.12c-5.6,9.6,3.59,21.04,14.17,17.63l81.74-26.34c2.42-0.78,5.02-0.78,7.43,0
				l81.74,26.34c10.58,3.41,19.77-8.04,14.17-17.63L638.55,664.5C632.43,654.03,617.28,654.03,611.16,664.5z"/>
		</g>
	</g>
	<g id="Pin_00000089546171676437898110000010711065012622193063_">
		<g>
			<path fill="#FF4365" d="M717.57,255.67c-12.77-24.6-34.72-43.13-61.19-51.53l0,0c-19.77-6.07-40.79-6.38-60.71-0.63
				c-19.93,5.76-37.52,17.28-50.91,33.16l0,0c-15.88,18.84-24.44,42.66-24.44,67.25c-0.15,17.12,3.27,34.25,10.28,49.82
				c10.9,23.98,28.95,43.28,47.64,67.57l0,0c5.92,7.94,11.83,16.19,17.75,25.22c21.17,32.69,15.25,52.46,28.95,52.46
				c13.7,0,7.78-19.61,28.95-52.46c34.87-54.49,75.5-79.24,75.5-142.76C729.4,286.96,725.35,270.46,717.57,255.67L717.57,255.67z
				 M641.75,340.05c-5.29,2.49-11.05,3.74-16.81,3.74c-7.63,0-15.1-2.18-21.48-6.23s-11.52-9.96-14.79-16.81
				c-3.27-6.85-4.36-14.64-3.42-22.11c0.93-7.47,4.2-14.64,9.03-20.39l0,0c3.74-4.51,8.41-8.1,13.7-10.59
				c5.29-2.49,11.05-3.74,16.97-3.74c7.63,0,15.1,2.18,21.48,6.23c6.38,4.05,11.52,9.96,14.79,16.81
				c3.27,6.85,4.36,14.64,3.42,22.11c-0.93,7.47-4.2,14.64-9.03,20.39l0.31-0.31l-0.78,0.94c-3.74,4.2-8.1,7.63-13.23,9.96
				L641.75,340.05L641.75,340.05z"/>
			<circle fill="#FFFFFF" cx="624.83" cy="303.85" r="40.11"/>
		</g>
	</g>
</g>
</svg>
