<?xml version="1.0" encoding="utf-8"?>
<!-- Generator: Adobe Illustrator 30.0.0, SVG Export Plug-In . SVG Version: 9.03 Build 0)  -->
<svg version="1.1" baseProfile="basic" id="Layer_1"
	 xmlns="http://www.w3.org/2000/svg" xmlns:xlink="http://www.w3.org/1999/xlink" x="0px" y="0px" width="210px" height="90px"
	 viewBox="0 0 210 90" xml:space="preserve">
<g>
	<g id="Container_00000129909920701845994580000007967701491731568062_">
		<g>
			<path fill="#2F3793" d="M55.37,67.56c16.59-12.08,8.31-38.14-12.28-38.35C27.85,29.08,17.46,45.3,23.8,59.04
				c1.26,2.79,3.14,5.3,5.46,7.31c5.6,3.9,12.4,8.7,12.28,13.61c0.01,0.84,0.7,1.52,1.54,1.52c0.85,0,1.54-0.69,1.54-1.54
				C44.41,76.21,49.79,70.83,55.37,67.56L55.37,67.56z"/>
			<path fill="#232765" d="M119.27,49.56H71.12c-2.57,0-2.19-2.08-1.62-4.65l5.47-24.57c0.57-2.57,3.11-4.65,5.68-4.65h46.17
				c2.57,0,4.18,2.08,3.61,4.65l-5.47,24.57C124.38,47.48,121.84,49.56,119.27,49.56z"/>
			<path fill="#232665" d="M91.7,53.93c-6.88,0-9.65,1.97-12.23,5.11c-2.6,3.16-5.25,6.29-8.97,10.45
				c-3.71,4.17-5.48,4.08-9.42,4.08H42.96v7.9h16.31c5.98,0,11.68,0.54,16.39-5.16c4.71-5.71,5.27-6.38,8.01-9.62
				c4.12-4.88,6.84-4.87,15.99-4.87h29.91v-7.88L91.7,53.93L91.7,53.93z"/>
		</g>
	</g>
	<g id="Tree_00000147910541827297007130000002681713502425056444_">
		<g>
			<path fill="#713700" d="M86.87,75.59v2.56c0,0.48,0.9,0.87,2.02,0.87s2.02-0.39,2.02-0.87v-2.56H86.87L86.87,75.59z"/>
			<path fill="#4667F4" d="M93.82,69.54c-0.58-0.39-1.04-0.91-0.87-2c0.2-1.26-0.02-2.23-0.96-3.12c-0.9-0.85-1.12-1.63-1.1-2.44
				c0.03-1.34-0.15-1.72-0.43-2.23c0,0,0-0.01,0-0.01c0,0,0,0,0,0l0,0c-0.16-0.29-0.41-0.52-0.71-0.68c0,0,0,0,0,0
				c-0.1-0.05-0.2-0.09-0.31-0.13c-0.01,0-0.01,0-0.02,0c-0.1-0.03-0.21-0.05-0.32-0.06c-0.01,0-0.02,0-0.03,0
				c-0.05,0-0.11-0.01-0.16-0.01c0,0,0,0,0,0s0,0,0,0c-0.06,0-0.11,0-0.16,0.01c-0.01,0-0.02,0-0.03,0
				c-0.11,0.01-0.22,0.03-0.32,0.06c-0.01,0-0.01,0-0.02,0c-0.11,0.03-0.21,0.07-0.31,0.13c0,0,0,0,0,0
				c-0.3,0.16-0.55,0.39-0.71,0.68l0,0c0,0,0,0,0,0c0,0,0,0.01,0,0.01c-0.28,0.5-0.46,0.89-0.43,2.23c0.02,0.81-0.2,1.59-1.1,2.44
				c-0.95,0.89-1.16,1.86-0.96,3.12c0.17,1.09-0.3,1.61-0.87,2c-1.07,0.67-1.72,1.56-1.72,2.54c0,2.06,2.88,3.73,6.43,3.73
				c0.07,0,0.15,0,0.22,0c0.07,0,0.15,0,0.22,0c3.55,0,6.43-1.67,6.43-3.73C95.55,71.1,94.89,70.21,93.82,69.54L93.82,69.54z"/>
		</g>
	</g>
	<g id="Person_00000093139814139386730420000010173027676722529706_">
		<g>
			<path fill="#BC6D62" d="M113.83,59.72c0,0-0.57-0.95-0.75-1c-0.1-0.02-0.49,0.1-0.85,0.25c-0.54-0.4-1.02-0.76-1.3-0.98
				l-0.79,0.4c0,0.03,0,0.05,0,0.08c-0.13,0.09-0.24,0.23-0.27,0.44c-0.09,0.65-0.49,0.8-0.71,0.87c-0.24,0.06-0.08,0.28,0.07,0.42
				c-0.26,0.39-0.39,0.99-0.15,1.41c0.21,0.36,0.6,0.48,0.86,0.56c0.26,0.07,0.52,0.32,0.24,1.01c-0.21,0.5,1.41,0.59,2.31,0.61
				c-0.09-0.1,0.04-0.41,0.04-0.41c-0.22-0.2-0.54-1.17,0.45-1.96C113.96,60.62,113.83,59.72,113.83,59.72L113.83,59.72z"/>
			<path fill="#713700" d="M114.63,59.6c-0.01-0.49-0.39-0.9-0.69-1.02c-0.31-0.12-0.12-0.51-0.66-0.98c-0.54-0.47-1-0.11-1.24-0.13
				c-0.24-0.02-0.64-0.43-1.18-0.27c-0.54,0.15-0.43,0.46-0.59,0.55c-0.16,0.09-1.04,0.8-0.45,1.4c0.1-0.21,0.54-0.53,0.83-0.51
				c0.09,0.2,0.22,0.78,0.01,1.11s-0.56,1.18-1.53,0.63l0,0l0,0c-0.19,0.38-0.25,0.87-0.04,1.22c0.21,0.36,0.6,0.48,0.86,0.56
				c0.01,0,0.03,0.01,0.04,0.01v0c0.11,0.03,0.31,0.03,0.45-0.17c0.13-0.22,0.22-0.52,0.26-0.76l0,0c0,0,0-0.01,0-0.01
				c0-0.03,0.01-0.06,0.01-0.08c0.04-0.2,0.12-0.49,0.23-0.7c0.12-0.17,0.26-0.28,0.46-0.27c0.31,0.02,0.54,0.36,0.39,0.79
				c-0.13,0.37-0.62,0.45-0.78,0.48c-0.06,0.01-0.03,0.15-0.03,0.15c0,0.65,1.06,0.95,1.46,0.59c0.41-0.36,0.68-0.36,0.96-0.38
				c0.27-0.02,0.99-0.37,0.92-1.11C114.27,60.31,114.64,60.09,114.63,59.6L114.63,59.6z"/>
			<path fill="#BC6D62" d="M105.78,63.07c-0.21-1.25-1.19-2.18-1.71-2.57c0,0,0,0,0,0c-0.36-0.26-0.55-0.67-0.55-0.76l0,0
				c-0.02-0.54-0.33-1.18-0.25-1.47c0.13-0.44,0.13-0.94-0.31-0.94c-0.46,0-0.41,0.43-0.41,0.8c-0.03,0.26-0.25,0.28-0.34,0.24l0,0
				c-0.06-0.03-0.12-0.07-0.16-0.11l0,0c-0.24-0.5-0.57-1.07-0.77-1.4c-0.18-0.26-0.36-0.46-0.51-0.5c-0.42-0.1-0.6,0.22-0.38,0.65
				c0.11,0.22,0.25,0.44,0.38,0.67c-0.16-0.23-0.3-0.45-0.41-0.61c-0.2-0.24-0.4-0.43-0.55-0.46c-0.43-0.07-0.58,0.27-0.33,0.68
				c0.06,0.09,0.11,0.18,0.18,0.27c-0.2-0.16-0.39-0.27-0.52-0.27c-0.43,0.01-0.52,0.37-0.2,0.73c0.11,0.13,0.24,0.25,0.37,0.38
				c-0.21-0.12-0.41-0.2-0.53-0.17c-0.27,0.06-0.35,0.26-0.23,0.47c0.05,0.07,0.17,0.18,0.38,0.31c0,0,0,0,0,0
				c0.52,0.31,1.19,0.84,1.62,1.44c0,0,0-0.01,0-0.01c0.25,0.33,0.76,0.6,0.98,0.69c0.07,0.03,0.15,0.12,0.23,0.22
				c0.32,0.43,1.13,2.98,2.1,3.32C104.85,65.05,106.03,64.5,105.78,63.07L105.78,63.07z"/>
			<path fill="#BC6D62" d="M118.07,73.69c-0.42-0.44-0.59-0.73-0.67-1.04l0,0c-0.32-1.28-0.8-2.81-0.94-2.99
				c-0.19-0.24-2.14,0.31-2.14,0.31l0.4,1.85c0.09,0.13,0.46,1.1,0.69,1.71c0.08,0.21-0.47,1.01-0.46,1.49s-0.36,0.82,0,0.98
				c0.36,0.17,0.86-0.64,0.91-1c0.06-0.36,0.66,0.26,0.65,0.9c-0.01,0.39-0.13,0.69-0.19,0.96l0,0c0,0-0.09,0.33-0.08,0.47
				c0,0.18,0.15,0.33,0.33,0.33c0.07,0,0.14-0.02,0.19-0.06c0,0,0,0,0,0c0.05-0.03,0.09-0.09,0.12-0.14c0,0.01,0,0.03,0,0.04
				c0.02,0.18,0.18,0.31,0.36,0.29c0.07-0.01,0.13-0.04,0.18-0.08c0,0,0,0,0,0c0.11-0.09,0.17-0.32,0.17-0.32l0,0
				c0.01-0.03,0.02-0.07,0.03-0.11c0-0.01,0-0.02,0.01-0.03c-0.01,0.09-0.01,0.18-0.01,0.24c0.02,0.18,0.18,0.31,0.36,0.29
				c0.07-0.01,0.13-0.04,0.18-0.08c0,0,0,0,0,0c0.08-0.07,0.14-0.21,0.16-0.28c0,0.03,0,0.06,0.01,0.09
				c0.03,0.15,0.17,0.25,0.32,0.22c0.06-0.01,0.11-0.04,0.15-0.08c0,0,0,0,0,0c0.09-0.08,0.12-0.28,0.12-0.28l0,0
				c0.01-0.03,0.02-0.06,0.02-0.09c0.09-0.45,0.12-1.25,0.12-1.36C119.15,74.89,118.49,74.12,118.07,73.69L118.07,73.69z"/>
			<path fill="#9FD5FF" d="M116.68,68.21c-0.59-0.71-0.9-1.7-0.95-2.27c-0.05-0.57,0.06-1.19-0.36-1.88l0,0
				c-0.27-0.5-0.98-0.86-1.81-0.86c-0.22,0-0.42,0.03-0.62,0.07c0,0-0.01,0-0.01,0c-0.83,0.23-1.57,0.29-2.08,0.16
				c-0.04-0.01-0.09-0.03-0.13-0.04c-0.02-0.01-0.05-0.02-0.07-0.03c-0.13-0.05-0.25-0.1-0.36-0.16c-1.66-0.82-2.62-0.07-2.8-0.09
				c-0.19-0.01-0.34-0.1-0.6-0.42h0c-0.16-0.3-0.4-0.55-0.71-0.71c-0.98-0.51-2.29,0.05-2.92,1.25c-0.63,1.2-0.34,2.59,0.64,3.11
				c0.37,0.19,0.78,0.23,1.18,0.15l0,0c0.92-0.2,1.62,0.06,2.25,0.56l0.28,0.24c0,0-0.1,0.42-0.19,0.75c0,0.01,0,0.01-0.01,0.02
				c-0.1,0.53-0.53,1.33-0.82,1.8c-0.02,0.03-0.03,0.05-0.05,0.08c-0.01,0.01-0.01,0.02-0.02,0.03h0c-0.13,0.22-0.2,0.47-0.2,0.74
				c0,0.46,0.21,0.87,0.54,1.14c0.14,0.12,0.29,0.2,0.46,0.25c0.15,0.05,0.31,0.08,0.48,0.08c0.12,0,0.23-0.02,0.34-0.04
				c0.1-0.01,0.21-0.03,0.31-0.05l0,0c0.29-0.06,1.15-0.15,1.88,0.08c0.85,0.27,2.03,0.66,3.13,0.61c0.05,0,0.1,0.01,0.16,0.01
				c0.43,0,0.82-0.13,1.14-0.35c0.03-0.02,0.05-0.03,0.08-0.05c0,0,0.01-0.01,0.01-0.01c0.04-0.03,0.08-0.06,0.11-0.1
				c0.37-0.33,0.59-0.8,0.59-1.31c0-0.15-0.02-0.3-0.06-0.44C117.25,70.21,117.26,68.92,116.68,68.21L116.68,68.21z"/>
			<g>
				<rect x="115.01" y="75.01" width="0.77" height="5.88"/>
				
					<rect x="111.07" y="82.17" transform="matrix(0.7408 -0.6717 0.6717 0.7408 -26.0252 97.6758)" fill="#232765" width="4.98" height="0.77"/>
				
					<rect x="116.81" y="80.13" transform="matrix(0.6704 -0.742 0.742 0.6704 -22.5229 114.1187)" fill="#232765" width="0.77" height="4.56"/>
			</g>
			<ellipse fill="#232765" cx="115.44" cy="80.89" rx="2.18" ry="2.84"/>
			<ellipse fill="#131314" cx="115.44" cy="80.89" rx="1.38" ry="1.92"/>
			<path fill="#232765" d="M115.44,87.5c-1.38,0-2.65-0.72-3.6-2.02c-0.89-1.23-1.38-2.86-1.38-4.59c0-1.72,0.49-3.35,1.38-4.59
				c0.94-1.3,2.22-2.02,3.6-2.02s2.65,0.72,3.6,2.02c0.89,1.23,1.38,2.86,1.38,4.59c0,1.72-0.49,3.35-1.38,4.59
				C118.09,86.78,116.81,87.5,115.44,87.5z M115.44,75.73c-1.95,0-3.53,2.31-3.53,5.16c0,2.85,1.58,5.16,3.53,5.16
				s3.53-2.31,3.53-5.16C118.97,78.04,117.39,75.73,115.44,75.73z"/>
			<path fill="#713700" d="M108.98,79c-1.35,0.15-1.51-0.96-1.5-1.3c0.01-0.34-0.34-0.27-0.8-0.34c-0.46-0.07-0.92,0.22-0.99,0.65
				c-0.07,0.44-0.15,0.83-0.3,1.47c-0.14,0.6-0.81,0.76-1.52,0.78c-0.04,0-0.08,0-0.11,0c-0.01,0-0.03,0-0.04,0l0,0
				c-0.29,0.02-0.57,0.11-0.83,0.28c-0.78,0.52-1,1.57-0.48,2.36c0.16,0.24,0.37,0.43,0.61,0.56l0,0c0.78,0.51,3.03,0.57,3.65,0.4
				c0,0,0,0,0,0c0.21-0.02,0.42-0.09,0.61-0.22c0.19-0.12,0.35-0.3,0.45-0.5l0,0c0.25-0.34,0.16-1.02,0.16-1.02s0.31,0.89,0.57,1.26
				c0.11,0.17,0.28,0.29,0.47,0.35l0,0c0.31,0.11,1.22,0.21,1.81,0.07c0.02,0,0.03-0.01,0.05-0.01c0.04-0.01,0.08-0.02,0.12-0.04
				c0,0,0,0,0.01,0l0,0c0.02-0.01,0.04-0.02,0.05-0.03c0.03-0.02,0.07-0.03,0.1-0.06c0.18-0.12,0.3-0.3,0.36-0.5c0,0,0,0,0,0
				c0-0.01,0-0.01,0-0.02c0.02-0.07,0.03-0.14,0.03-0.22c0.19-1.54-0.48-2.71-0.45-2.92c0.03-0.22,0.41-0.47,0.08-1.19
				C110.77,78.1,110.33,78.85,108.98,79L108.98,79z"/>
			<path fill="#8F4D13" d="M105.84,79c-1.35,0.15-1.51-0.96-1.5-1.3c0.01-0.34-0.34-0.27-0.8-0.34c-0.46-0.07-0.92,0.22-0.99,0.65
				c-0.07,0.44-0.15,0.83-0.3,1.47c-0.14,0.6-0.81,0.76-1.52,0.78c-0.04,0-0.08,0-0.11,0c-0.01,0-0.03,0-0.04,0l0,0
				c-0.29,0.02-0.57,0.11-0.83,0.28c-0.78,0.52-1,1.57-0.48,2.36c0.16,0.24,0.37,0.43,0.61,0.56l0,0c0.78,0.51,3.03,0.57,3.65,0.4
				c0,0,0,0,0,0c0.21-0.02,0.42-0.09,0.61-0.22c0.19-0.12,0.35-0.3,0.45-0.5l0,0c0.25-0.34,0.16-1.02,0.16-1.02s0.31,0.89,0.57,1.26
				c0.11,0.17,0.28,0.29,0.47,0.35l0,0c0.31,0.11,1.22,0.21,1.81,0.07c0.02,0,0.03-0.01,0.05-0.01c0.04-0.01,0.08-0.02,0.12-0.04
				c0,0,0,0,0.01,0l0,0c0.02-0.01,0.04-0.02,0.05-0.03c0.03-0.02,0.07-0.03,0.1-0.06c0.18-0.12,0.3-0.3,0.36-0.5c0,0,0,0,0,0
				c0-0.01,0-0.01,0-0.02c0.02-0.07,0.03-0.14,0.03-0.22c0.19-1.54-0.48-2.71-0.45-2.92c0.03-0.22,0.41-0.47,0.08-1.19
				C107.63,78.1,107.2,78.85,105.84,79L105.84,79z"/>
			<path fill="#202FB0" d="M98.78,83.83h7.22c0.26,0,0.47,0.21,0.47,0.47v0c0,0.26-0.21,0.47-0.47,0.47h-7.22
				c-0.26,0-0.47-0.21-0.47-0.47v0C98.32,84.04,98.53,83.83,98.78,83.83z"/>
			<path fill="#5193FF" d="M103.05,71.24c-0.94,0-2.37,0.67-2.19,2.43c0.18,1.76,0.05,2.3-0.33,2.85c-0.38,0.55-1.21,3.1,1.4,3.69
				c4.23,0.96,6.45-0.44,6.45-0.44l0.3-8.53L103.05,71.24L103.05,71.24z"/>
			<path fill="#2F3793" d="M116.29,69.31h-6.74l-0.36,3.77c-1.55,0.01-5.1-0.02-5.1-0.02l-0.36,6.88l-0.32,1.06h8.48v-0.6l2.24,0.01
				c1.09,0.01,1.72-1.02,1.82-2.1l0.79-8.52C116.77,69.54,116.56,69.31,116.29,69.31L116.29,69.31z"/>
			<path fill="#4667F4" d="M119.19,66.76c-0.08,0-0.15,0-0.23,0c-0.89-0.02-2.54-0.04-2.75,2.34c-0.18,2.1-0.72,7.81-0.84,8.79
				c-0.13,1.17-0.34,2.06-1.64,2.06h-3.43c-0.51,0-0.9-0.14-1.15-0.42c-0.44-0.49-0.39-1.29-0.36-1.52
				c0.11-0.99,0.65-6.71,0.84-8.82c0.12-1.4,0.74-1.38,1.67-1.37c0.09,0,0.17,0,0.25,0h1.76v-1.06h-1.76c-0.08,0-0.15,0-0.23,0
				c-0.89-0.02-2.54-0.04-2.75,2.34c-0.04,0.48-0.1,1.13-0.17,1.88h-2.75c-1.66,0-2.53,0.82-2.6,2.43l-0.03,0.72
				c-0.1,2.27-0.32,7.58-0.37,8.33c-0.03,0.57-0.08,1.35,0.41,1.87c0.28,0.29,0.67,0.44,1.18,0.44h8.98c1.2,0,1.8-0.71,1.8-2.1
				v-1.92c1.17-0.6,1.33-2.03,1.41-2.73c0.11-1,0.65-6.71,0.84-8.82c0.12-1.4,0.74-1.39,1.67-1.37c0.09,0,0.17,0,0.25,0h1.76v-1.06
				L119.19,66.76L119.19,66.76z M113.96,82.66c0,1.04-0.34,1.04-0.74,1.04h-8.98c-0.14,0-0.32-0.02-0.41-0.11
				c-0.17-0.18-0.14-0.74-0.12-1.07c0.04-0.76,0.26-5.89,0.37-8.35l0.03-0.72c0.05-1.18,0.6-1.41,1.54-1.41h2.65
				c-0.22,2.4-0.49,5.19-0.57,5.85c-0.05,0.44-0.09,1.55,0.62,2.35c0.46,0.51,1.11,0.77,1.94,0.77h3.43c0.07,0,0.15,0,0.22-0.01
				L113.96,82.66L113.96,82.66z"/>
			<g>
				<rect x="105.49" y="75.01" fill="#232765" width="0.77" height="5.88"/>
				
					<rect x="101.54" y="82.17" transform="matrix(0.7408 -0.6717 0.6717 0.7408 -28.4941 91.2776)" fill="#232765" width="4.98" height="0.77"/>
				
					<rect x="107.29" y="80.13" transform="matrix(0.6704 -0.742 0.742 0.6704 -25.6609 107.0513)" fill="#232765" width="0.77" height="4.56"/>
			</g>
			<ellipse fill="#232765" cx="105.87" cy="80.89" rx="2.18" ry="2.84"/>
			<ellipse fill="#131314" cx="105.87" cy="80.89" rx="1.38" ry="1.92"/>
			<path fill="#232765" d="M105.87,87.5c-1.38,0-2.65-0.72-3.6-2.02c-0.89-1.23-1.38-2.86-1.38-4.59c0-1.72,0.49-3.35,1.38-4.59
				c0.94-1.3,2.22-2.02,3.6-2.02c1.38,0,2.65,0.72,3.6,2.02c0.89,1.23,1.38,2.86,1.38,4.59c0,1.72-0.49,3.35-1.38,4.59
				C108.52,86.78,107.25,87.5,105.87,87.5z M105.87,75.73c-1.95,0-3.53,2.31-3.53,5.16c0,2.85,1.58,5.16,3.53,5.16
				s3.53-2.31,3.53-5.16C109.4,78.04,107.82,75.73,105.87,75.73L105.87,75.73z"/>
			<path fill="#394EC1" d="M108.47,70.32L108.47,70.32h-4.83c-0.36,0-0.64,0.29-0.64,0.64s0.29,0.64,0.64,0.64h4.72L108.47,70.32
				L108.47,70.32z"/>
			<g>
				<circle fill="#394EC1" cx="113.32" cy="67.29" r="0.54"/>
				<circle fill="#394EC1" cx="121.05" cy="67.29" r="0.54"/>
			</g>
		</g>
	</g>
	<g id="Car_00000129207093063334269350000004978615418282257290_">
		<g>
			<path fill="#231F20" d="M69.84,69.18c0.1,0.91,0.51,1.55,0.98,1.57l0,0h1.78v0c0.03,0,0.07-0.01,0.1-0.02
				c0.43-0.12,0.76-0.76,0.83-1.55L69.84,69.18L69.84,69.18z"/>
			<path fill="#231F20" d="M80.92,65.31c0.09,1.06-0.29,2.05-0.83,2.21s-1.06-0.57-1.15-1.63c-0.09-1.06,0.29-2.05,0.83-2.21
				C80.32,63.51,80.83,64.25,80.92,65.31z"/>
			<polygon fill="#231F20" points="81.54,65.48 79.75,65.48 79.92,67.53 81.71,67.53 			"/>
			<path fill="#231F20" d="M78.35,68.52c0.09,1.06-0.29,2.05-0.83,2.21s-1.06-0.57-1.15-1.63c-0.09-1.06,0.29-2.05,0.83-2.21
				C77.75,66.73,78.26,67.46,78.35,68.52z"/>
			<polygon fill="#231F20" points="78.97,68.7 77.19,68.7 77.36,70.74 79.14,70.74 			"/>
			<path fill="#FBBC04" d="M81.47,62.76h-1.26l-2.07-1.26c-0.03-0.02-0.06-0.04-0.1-0.05c-0.08-0.03-0.16-0.05-0.23-0.05h-3.9
				c-0.34,0-0.66,0.13-0.9,0.36l-1.81,1.75c-0.23,0.22-0.4,0.5-0.51,0.81l-0.63,1.83c-0.05,0.14-0.12,0.27-0.22,0.37l-0.08,0.09
				c-0.2,0.21-0.31,0.49-0.32,0.79l-0.04,1.08c-0.02,0.51,0.12,1.03,0.38,1.48c0.18,0.3,0.49,0.49,0.82,0.49h5.98
				c0.47,0,0.92-0.11,1.32-0.32c0.21-0.11,0.31-0.35,0.26-0.6c-0.03-0.14-0.05-0.29-0.06-0.44c-0.09-1.06,0.29-2.05,0.83-2.21
				c0.5-0.14,0.97,0.45,1.12,1.35l1.36-1.32c0.11-0.11,0.16-0.28,0.12-0.45c-0.05-0.18-0.08-0.38-0.1-0.59
				c-0.09-1.06-0.48-2.05,0.07-2.21c0.45-0.13,0.87,0.33,1.06,1.08l0.02-0.1c0.05-0.25,0.07-0.52,0.05-0.78l0,0
				C82.57,63.26,82.05,62.76,81.47,62.76L81.47,62.76z"/>
			
				<linearGradient id="SVGID_1_" gradientUnits="userSpaceOnUse" x1="784.0379" y1="15436.1094" x2="787.7559" y2="15439.8262" gradientTransform="matrix(1 0 -0.0861 -1 615.705 15504)">
				<stop  offset="0.33" style="stop-color:#000000"/>
				<stop  offset="0.43" style="stop-color:#431E0C"/>
				<stop  offset="0.54" style="stop-color:#7F3A17"/>
				<stop  offset="0.63" style="stop-color:#AA4E20"/>
				<stop  offset="0.7" style="stop-color:#C55A25"/>
				<stop  offset="0.74" style="stop-color:#CF5F27"/>
				<stop  offset="0.75" style="stop-color:#CD5E26"/>
				<stop  offset="0.76" style="stop-color:#C65B25"/>
				<stop  offset="0.76" style="stop-color:#BA5523"/>
				<stop  offset="0.77" style="stop-color:#A94D1F"/>
				<stop  offset="0.77" style="stop-color:#93431B"/>
				<stop  offset="0.77" style="stop-color:#783716"/>
				<stop  offset="0.78" style="stop-color:#572810"/>
				<stop  offset="0.78" style="stop-color:#321709"/>
				<stop  offset="0.78" style="stop-color:#090401"/>
				<stop  offset="0.78" style="stop-color:#000000"/>
				<stop  offset="1" style="stop-color:#000000"/>
			</linearGradient>
			<path fill="url(#SVGID_1_)" d="M70.98,64.26l-0.58,1.69c-0.08,0.24,0.11,0.5,0.35,0.5h4.66c0.41,0,0.68-0.41,0.55-0.83
				l-0.47-1.45c-0.06-0.17-0.21-0.29-0.39-0.29h-3.59C71.27,63.87,71.06,64.02,70.98,64.26L70.98,64.26z"/>
			<path fill="#231F20" d="M70.95,64.03l-0.59,0.57c-0.04,0.04-0.06,0.09-0.05,0.15l0,0c0.01,0.11,0.1,0.2,0.21,0.2h4.19
				c0.13,0,0.26-0.05,0.35-0.14l0.36-0.35c0.07-0.07,0.1-0.18,0.06-0.29l0,0c-0.06-0.17-0.21-0.29-0.39-0.29h-3.76
				C71.2,63.87,71.06,63.93,70.95,64.03L70.95,64.03z"/>
			<path fill="#231F20" d="M79.78,63.84l-0.07-0.28c-0.11-0.43-0.36-0.82-0.71-1.1l-0.85-0.68c0,0,0-0.01,0-0.01
				c-0.02,0.03-0.04,0.07-0.07,0.1l-1.34,1.3c-0.13,0.12-0.19,0.31-0.15,0.5l0.34,2.07c0.05,0.31,0.42,0.46,0.63,0.26L79.78,63.84
				L79.78,63.84z"/>
			<path fill="#231F20" d="M80.07,68.52c0.09,1.06-0.29,2.05-0.83,2.21c-0.55,0.16-1.06-0.57-1.15-1.63
				c-0.09-1.06,0.29-2.05,0.83-2.21C79.47,66.73,79.99,67.46,80.07,68.52z"/>
			<path fill="#231F20" d="M82.64,65.31c0.09,1.06-0.29,2.05-0.83,2.21c-0.55,0.16-1.06-0.57-1.15-1.63
				c-0.09-1.06,0.29-2.05,0.83-2.21C82.04,63.51,82.55,64.25,82.64,65.31z"/>
			<path fill="#F96BD6" d="M76.26,67.06L76.26,67.06c-0.19,0.18-0.44,0.28-0.7,0.28h-1.21l0.05,0.56c0.03,0.31,0.29,0.56,0.58,0.56
				h0.67c0.27,0,0.52-0.1,0.7-0.28l0,0c0.13-0.12,0.19-0.3,0.17-0.49l-0.04-0.54C76.47,67.05,76.34,66.99,76.26,67.06L76.26,67.06z"
				/>
			<path fill="#F96BD6" d="M70.18,68.47c0.3,0,0.52-0.25,0.49-0.56l-0.05-0.56h-1.19c0,0.02,0,0.03,0,0.05l-0.04,1.08H70.18z"/>
			<polygon fill="#F96BD6" points="75.2,67.75 70.06,67.75 70.03,67.35 75.17,67.35 			"/>
			<path fill="#ECEFD9" d="M74.9,70.21h-4.13c-0.18,0-0.34-0.15-0.36-0.35l0,0c-0.02-0.19,0.12-0.35,0.3-0.35h4.13
				c0.18,0,0.34,0.15,0.36,0.35l0,0C75.22,70.06,75.08,70.21,74.9,70.21z"/>
			<path fill="#231F20" d="M80.34,62.56l-0.13,0.16c-0.02,0.02-0.04,0.03-0.06,0.03h-0.11c-0.11,0-0.2,0.1-0.19,0.21l0,0
				c0.01,0.12,0.11,0.21,0.22,0.21h0.11c0.03,0,0.05,0.01,0.07,0.03l0.16,0.16c0.06,0.06,0.15,0.1,0.23,0.1h0.24
				c0.11,0,0.19-0.09,0.18-0.21l-0.05-0.58c-0.01-0.11-0.11-0.21-0.22-0.21h-0.24C80.47,62.46,80.39,62.5,80.34,62.56L80.34,62.56z"
				/>
		</g>
	</g>
	<g id="Woman_00000057838010261097504030000002963973507945983638_">
		<g>
			<path fill="#2F3793" d="M124.38,32.63c-2.57,0-5.11,2.08-5.68,4.65l-2.74,12.29h3.31c2.57,0,5.11-2.08,5.68-4.65l2.74-12.29
				H124.38L124.38,32.63z"/>
			<path fill="#2F3793" d="M130.43,20.34c0.57-2.57-1.05-4.65-3.61-4.65h-3.63l-2.06,9.24c-0.57,2.57-0.94,4.65,1.62,4.65h5.61
				L130.43,20.34z"/>
			<path fill="#2F3793" d="M80.65,15.7c-2.57,0-5.11,2.08-5.68,4.65l-1.61,7.24h0.62c2.57,0,5.11-2.08,5.68-4.65l1.61-7.24
				L80.65,15.7L80.65,15.7z"/>
			<path d="M103.73,21.61c-0.17-1.84-2.62-3.11-5.46-2.85c-1.88,0.17-3.46,0.98-4.27,2.03c-1.35,0.58-2.33,2.29-2.33,4.3
				c0,5.66,6.32,6.04,6.67,0.35C101.15,25.44,103.99,23.59,103.73,21.61L103.73,21.61z"/>
			<path fill="#E37401" d="M111.95,37.75c-0.18-0.1-7.8-2.4-8.61-3.25c-2.12,1.84-6.62,1.87-8.8,0.09c0,0-0.01,0-0.01,0.01
				c-2.71-1.79-6.85-0.97-8.68,1.64c-3.06-0.73-6.38,1.81-5.02,5.02l0,0c0.99,2,0.22,7.1,2.2,8.31h1.46c0,0.01,0.01,0.02,0.01,0.03
				h8.45h20.75L111.95,37.75L111.95,37.75z"/>
			<path fill="#894F4C" d="M102.81,29.16v-9.1c-1.6-1.18-3.99-1.49-5.96-0.58c-0.26,0.12-0.5,0.25-0.73,0.39l0,0
				c-2.31,1.33-3.54,3.36-3.16,5.41c0.5,2.74-0.57,3-0.09,4.66c0.42,1.44,1.52,2.05,3.23,1.83c0.51,1.56,0.31,3.42-1.55,2.82l0,0
				c1.1,0.82,2.64,1.34,4.34,1.34c1.27,0,2.44-0.29,3.42-0.77c-0.83-0.34-1.81-1.57-0.43-4.56
				C102.27,29.74,102.58,29.33,102.81,29.16L102.81,29.16z"/>
			<path d="M104.64,24.06c-0.8-1.07-0.69-2.13-0.98-2.8l0,0c-0.43-1.64-2.74-2.74-5.4-2.49c-2.78,0.26-4.86,1.89-4.8,3.68
				c0.7-1.11,3-1.91,4.67-0.73c0.55,1.3,0.43,2.65,0.38,3.72l0,0c0,0,0,0,0,0c0,1.27-0.68,2.11-0.65,3.29l0,0
				c0.01,0.53,0.19,1.1,0.53,1.63c0.45,0.7,1.09,1.17,1.73,1.32v0c0,0,0.2-0.12,0.52-0.31l0,0l0,0l0,0
				c1.25-0.74,4.37-2.58,5.05-3.05C106.15,26.89,105.44,25.13,104.64,24.06L104.64,24.06z"/>
			<path d="M98.13,21.71c-1.44-3.09-4.59-0.91-4.67,0.73C94.16,21.33,96.46,20.53,98.13,21.71z"/>
			<path id="mouth_00000016039646181822622740000014694877211692422026_" fill="#FF4365" d="M94.99,28.76
				c0.43-0.45,1.32-0.96,1.69-0.48c0.17,0.3-0.3,0.99-1.7,1.1c-1.04,0.08-1.36-0.44-1.39-0.58C93.56,28.6,94.01,28.12,94.99,28.76
				L94.99,28.76z"/>
			
				<linearGradient id="SVGID_00000101793671772946048450000014266425173270213565_" gradientUnits="userSpaceOnUse" x1="103.6655" y1="15471.7734" x2="106.809" y2="15471.3154" gradientTransform="matrix(1 0 0 -1 0.12 15504)">
				<stop  offset="0" style="stop-color:#15173D"/>
				<stop  offset="0.1" style="stop-color:#15183F"/>
				<stop  offset="0.17" style="stop-color:#171E48"/>
				<stop  offset="0.23" style="stop-color:#1B2758"/>
				<stop  offset="0.29" style="stop-color:#21346E"/>
				<stop  offset="0.34" style="stop-color:#27458A"/>
				<stop  offset="0.39" style="stop-color:#305AAC"/>
				<stop  offset="0.43" style="stop-color:#3A72D4"/>
				<stop  offset="0.46" style="stop-color:#4285F4"/>
				<stop  offset="0.5" style="stop-color:#3A72D5"/>
				<stop  offset="0.55" style="stop-color:#305AAD"/>
				<stop  offset="0.61" style="stop-color:#28458A"/>
				<stop  offset="0.67" style="stop-color:#21346E"/>
				<stop  offset="0.73" style="stop-color:#1B2758"/>
				<stop  offset="0.8" style="stop-color:#171E48"/>
				<stop  offset="0.88" style="stop-color:#15183F"/>
				<stop  offset="1" style="stop-color:#15173D"/>
			</linearGradient>
			<rect x="105.1" y="15.7" fill="url(#SVGID_00000101793671772946048450000014266425173270213565_)" width="3.07" height="33.89"/>
			<g>
				<path fill="#FFFFFF" d="M94.8,38.58c1.79,0.86,3.12-1.97,3.85-2.65l0,0c-1.34-0.04-2.57-0.4-3.55-0.97h0
					C95.09,34.95,93.64,37.89,94.8,38.58L94.8,38.58z"/>
				<path fill="#FFFFFF" d="M102.5,38.58c0.97-0.58,0.1-2.74-0.2-3.42c-1.02,0.52-2.34,0.81-3.65,0.77l0,0
					C99.39,36.61,100.71,39.44,102.5,38.58L102.5,38.58z"/>
			</g>
			<path fill="#894F4C" d="M90.99,30.52c0.03-1.19-1.76-1.45-2.08-0.32c-0.15,1.02-0.52,2.21-1.59,2.65
				c-0.19-2.61-1.61-5.64-2.05-6.45l0,0c-0.33-0.91-1.77-0.84-2,0.1c-0.08-0.21-0.13-0.33-0.14-0.33c-0.57-1.26-2.51-0.4-1.94,0.87
				l0,0c0.15,0.35,0.5,1.18,0.85,1.99H82c-0.38-0.86-0.7-1.54-0.83-1.72c-0.72-1.18-2.53-0.1-1.82,1.1v0
				c0.13,0.24,0.47,0.95,0.75,1.54l0,0l0,0c-0.76-1.19-2.59,0-1.77,1.18c1.58,1.82,3.16,4.3,3.94,6.94
				c0.37,1.44,1.62,1.86,3.58,1.69c2.26-0.19,3.37-1.82,3.53-3.67C89.51,32.21,90.73,32.64,90.99,30.52L90.99,30.52z"/>
			<path fill="#E37401" d="M107.44,49.59c2.49,0.01,6.33,0,8.76-0.03c-0.72-1.53-0.56-3.52-0.39-4.91c0.38-3.01,0.38-6.01-1.09-7.87
				l0,0c-1.81-2.67-8.96-0.26-8.87,3.12l0,0C105.54,44.23,108.8,44.72,107.44,49.59L107.44,49.59z"/>
			<path fill="#894F4C" d="M112.24,39.07c-0.01-0.13-0.04-0.29-0.07-0.46l0,0c-0.36-1.66-1.76-4.79-2.13-5.68
				c-0.42-1.01-0.81-1.48-1.68-2.22h0c-1.06-0.98-3.13-1.04-4.25-0.08l0,0c-0.34,0.33-0.35,0.96-0.02,1.3
				c-0.22,0.15-0.36,0.28-0.48,0.42l0,0c-0.28,0.34-0.25,0.9,0.05,1.21c-0.51,0.37-0.45,1.27,0.11,1.56
				c-0.6,0.85-0.26,2.27-0.26,2.27c-0.02,1.23,1.92,1.23,1.9,0c0,0,0-0.44,0.09-0.71c0.16-0.15,0.97-0.09,1.29,0.44
				s1.72,2.82,1.72,2.82c0.32,0.71,1.35,2.09,2.31,1.93C112.33,41.83,112.53,40.35,112.24,39.07L112.24,39.07z M105.18,34.5
				L105.18,34.5L105.18,34.5z"/>
			<path fill="#FDDB00" d="M106.96,31.49l0.54-1.23c0.16-0.36-0.4-0.61-0.56-0.25l-0.61,1.38
				C106.55,31.41,106.76,31.44,106.96,31.49L106.96,31.49z"/>
		</g>
	</g>
	<g id="Biker_00000003795687489064882090000012298017236967669178_">
		<g id="Hands_00000013890958899630008050000002544883326855925127_">
			<g>
				<path fill="#FFC8A0" d="M49.85,44.54c0.72-0.35,0.9-1.24,0-1.66c-0.9-0.42-2.1-1.71-2.28-3.12l-0.83,0.47
					c-0.1-0.25-0.17-0.51-0.2-0.78l-4.74,2.67c-2.19,0.44-3.64,5.08-3.31,7.66c1.08,0.98,0.78,2.47-0.18,3.95
					c0.35,0.11,0.71,0.2,1.06,0.27c-0.01,0.01-0.02,0.03-0.03,0.04c1.35,0.41,2.72,0.56,3.85,0.56c1.02,0,2.21-0.25,3.42-0.6
					c-1.35-1.99-1.42-3.77,1.26-4.73c2.67-0.96,1.98-2.91,1.71-3.36C49.31,45.46,49.13,44.89,49.85,44.54L49.85,44.54z"/>
				<path fill="#713700" d="M46.93,38.48l-0.7,0.25c0,0-7.88,2.39-8,2.42c-0.11,0.02-1.84,4.81-1.29,7.65
					c0.15,0.17,0.29,0.41,0.43,0.74c0.95,2.21,3.68,2.46,5.04,1.1c1.36-1.36-0.03-3.02-1.15-3.94c-1.12-0.92-1.28-2.16-0.26-2.96
					c0.95-0.74,2.46,0.13,2.7,0.95c0.04,0.12,0.08,0.25,0.11,0.39c0.14,0.79,0.44,1.27,1.52,1.15s1.19-1.74,0.99-2.34
					c-0.17-0.51-0.29-0.98-0.26-1.52c0-0.04,0.01-0.08,0.01-0.12c0-0.05,0.01-0.09,0.01-0.14c0.11-0.88,0.49-1.68,0.97-1.95l0,0
					c0.09-0.11,0.18-0.2,0.27-0.28L46.93,38.48L46.93,38.48z"/>
				<path fill="#4667F4" d="M47.19,50.29c-0.04,0-0.08,0-0.11-0.01c-3.2-0.59-6.61-2.22-8.68-4.16c-0.25-0.24-0.27-0.63-0.03-0.89
					c0.24-0.25,0.63-0.27,0.89-0.03c1.59,1.49,4.06,2.79,6.57,3.5c-1.6-2.68-2.66-5.56-3.03-7.45c-0.07-0.34,0.15-0.67,0.49-0.74
					c0.34-0.07,0.67,0.15,0.74,0.49c0.4,2,1.72,5.45,3.68,8.29c0.14,0.21,0.15,0.48,0.01,0.7C47.61,50.18,47.41,50.29,47.19,50.29
					L47.19,50.29z"/>
				<path id="helmet_00000124135059949378127550000002622418963228472747_" fill="#5193FF" d="M35.24,49.39
					c0.57,0.51,2.71,0.79,3.22-1.27c0.51-2.07,1.36-5.87,4.86-5.51c1.05,0.11,1.26-0.43,1.61-1.1s1.13-1.21,2.55-1.42
					c1.42-0.21,2.04-1.43,1.16-2.65c-1.63-2.18-4.22-3.59-7.13-3.59c-4.94,0-8.95,4.07-8.95,9.08
					C32.57,45.46,33.59,47.75,35.24,49.39L35.24,49.39z"/>
				<path d="M36.4,41.45c0.18-1.57,2.21-4.74,5.84-4.41c1.67,0.15,1.77,1.1,1.8,1.25c0.03,0.15-0.06,1.07-1.43,0.95
					s-2.99,0.07-4.78,2.22C37.26,42.14,36.28,42.51,36.4,41.45L36.4,41.45z"/>
				<path d="M41.41,33.85c-3.73,0.04-6.91,2.4-8.21,5.72c-0.07,0.66,0.62,1,1.13,0.18c0.5-0.82,2.83-5.97,9.22-4.01
					c1.69,0.52,2.24-0.42,1.77-1.03c-0.99-0.47-2.07-0.77-3.21-0.84C41.88,33.86,41.64,33.85,41.41,33.85L41.41,33.85z"/>
				<path fill="#8F4D13" d="M59.56,54.95c-0.18-0.33-0.95-1.16-1.25-1.44c-0.01-0.01-0.02-0.02-0.03-0.03l0,0
					c-1.46-1.31-4.81-2.21-7.24-0.98c-0.5,0.26-0.96,0.53-1.41,0.74l0,0c-1.37,0.74-2.07,0.69-2.75,0.27
					c-0.56-0.34-1.13-1.42-1.13-1.42c-1.12,0.25-3.06,0.54-3.33,2.09c-0.28-1.55-2.21-1.84-3.33-2.09c0,0-0.51,1.19-1.13,1.42
					c-0.62,0.23-1.54-0.12-2.91-0.86l0,0c-0.45-0.21-0.92-0.47-1.41-0.74c-2.1-1.13-4.77-0.47-6.22,0.84l0,0
					c-0.01,0.01-0.02,0.02-0.03,0.03c-0.3,0.28-0.55,0.59-0.73,0.91c-1.1,1.68-2.18,4.58-2.67,5.71c1.26,2.65,3.07,5.03,5.29,6.94
					c1.79,1.25,3.7,2.58,5.47,3.99c0.64,0.5,1.25,1,1.82,1.52c2.9,2.57,5.06,5.32,4.99,8.1c0.01,0.82,0.67,1.48,1.48,1.51
					c0.82-0.03,1.48-0.71,1.48-1.54l0,0c0-3.51,3.92-8.09,9.63-11.62c0.38-0.23,0.74-0.48,1.1-0.74c0,0,0.01-0.01,0.01-0.01
					c0.53-0.38,1.04-0.78,1.54-1.21c0.01,0,0.01-0.01,0.02-0.01c0.49-0.43,0.96-0.87,1.41-1.34c0.01-0.01,0.02-0.02,0.02-0.02
					c0.15-0.15,0.29-0.31,0.43-0.46c0,0,0-0.01,0.01-0.01c0.05-0.01,0.1-0.01,0.15-0.03c1.5-1.65,2.67-3.44,3.53-5.33
					C61.68,58.04,60.44,56.29,59.56,54.95L59.56,54.95z"/>
				<path d="M55.05,67.7l1.1-10.18c0.12-1.1-0.68-2.08-1.77-2.2l0,0c-1.1-0.12-2.08,0.68-2.2,1.77l-0.72,6.72H34.46l-0.72-6.72
					c-0.12-1.1-1.1-1.89-2.2-1.77l0,0c-1.1,0.12-1.89,1.1-1.77,2.2l1.1,10.18c0.3,0.21,0.61,0.42,0.93,0.62
					c0.91,0.57,1.78,1.16,2.6,1.77c0.41-0.41,0.64-1,0.57-1.63l-0.23-2.09h5.76c0.44,0,0.92,0.22,0.92,1.17v12.38
					c0,0.01,0,0.01,0,0.02l0,0c0,0.85,0.69,1.54,1.54,1.54l0,0c0.83,0,1.5-0.65,1.54-1.47V67.53c0-0.95,0.49-1.17,0.92-1.17h5.76
					l-0.23,2.09c-0.07,0.63,0.16,1.21,0.58,1.63c0.81-0.61,1.68-1.21,2.6-1.77C54.44,68.11,54.75,67.91,55.05,67.7L55.05,67.7z"/>
				<g>
					<path fill="#CC8656" d="M29.46,68.01c-0.68-0.91-1.23-2.38-1.23-2.38l-0.05-0.11c0,0,0.05-0.34,0.08-0.57
						c0.04-0.23,0.11-0.44,0.22-0.64l0,0c-0.98-0.48-2.61-0.17-2.74,1.51c-0.11,1.42,0.49,1.49,1.28,3.39
						c0.43,1.05,1.31,1.43,2.08,1.17C29.86,70.13,30.14,68.91,29.46,68.01L29.46,68.01z"/>
					<path fill="#DD996B" d="M30.16,65.53c-0.95-0.79-1.92-2.22-1.92-2.22l-0.08-0.1c0,0-0.04-0.37-0.06-0.62
						c-0.02-0.25,0-0.5,0.08-0.73l0,0c-1.16-0.26-2.82,0.49-2.53,2.3c0.24,1.54,0.9,1.46,2.22,3.28c0.73,1,1.75,1.18,2.51,0.72
						C31.12,67.69,31.11,66.32,30.16,65.53L30.16,65.53z"/>
					<path fill="#F2B083" d="M31.01,63.51c-1.02-0.85-2.06-2.38-2.06-2.38l-0.08-0.11c0,0-0.04-0.4-0.07-0.67
						c-0.02-0.27,0-0.53,0.08-0.79l0,0c-1.24-0.28-3.02,0.52-2.72,2.47c0.26,1.65,0.97,1.57,2.38,3.51
						c0.78,1.07,1.88,1.27,2.69,0.77C32.04,65.83,32.03,64.36,31.01,63.51L31.01,63.51z"/>
					<path fill="#FFC8A0" d="M31.97,60.66c-1.02-0.85-2.06-2.38-2.06-2.38l-0.08-0.11c0,0-0.04-0.4-0.07-0.67
						c-0.02-0.27,0-0.53,0.08-0.79l0,0c-1.24-0.28-3.02,0.52-2.72,2.47c0.26,1.65,0.97,1.57,2.38,3.51
						c0.78,1.07,1.88,1.27,2.69,0.77C33.01,62.97,32.99,61.51,31.97,60.66L31.97,60.66z"/>
					<path fill="#FFC8A0" d="M34.37,62.91c0.71-0.96,1.66-2.03,2.26-2.59c1.04-0.95,1.26-2.48,0.31-3.19
						c-0.95-0.72-2.07-0.14-2.59,0.59c-0.15,0.2-0.29,0.44-0.46,0.69L34.37,62.91z"/>
				</g>
				<g>
					<path fill="#CC8656" d="M56.48,68.08c0.59-0.97,1.01-2.48,1.01-2.48l0.04-0.11c0,0-0.08-0.34-0.13-0.56
						c-0.06-0.22-0.15-0.43-0.28-0.61l0,0c0.93-0.56,2.59-0.4,2.87,1.26c0.24,1.4-0.35,1.53-0.97,3.49
						c-0.34,1.08-1.17,1.54-1.96,1.36C56.28,70.23,55.89,69.05,56.48,68.08L56.48,68.08z"/>
					<path fill="#DD996B" d="M55.76,65.53c0.95-0.79,1.92-2.22,1.92-2.22l0.08-0.1c0,0,0.04-0.37,0.06-0.62
						c0.02-0.25,0-0.5-0.08-0.73l0,0c1.16-0.26,2.82,0.49,2.53,2.3c-0.24,1.54-0.9,1.46-2.22,3.28c-0.73,1-1.75,1.18-2.51,0.72
						C54.79,67.69,54.81,66.32,55.76,65.53L55.76,65.53z"/>
					<path fill="#F2B083" d="M54.91,63.51c1.02-0.85,2.06-2.38,2.06-2.38l0.08-0.11c0,0,0.04-0.4,0.07-0.67
						c0.02-0.27,0-0.53-0.08-0.79l0,0c1.24-0.28,3.02,0.52,2.72,2.47c-0.26,1.65-0.97,1.57-2.38,3.51
						c-0.78,1.07-1.88,1.27-2.69,0.77C53.88,65.83,53.89,64.36,54.91,63.51L54.91,63.51z"/>
					<path fill="#FFC8A0" d="M53.94,60.66c1.02-0.85,2.06-2.38,2.06-2.38l0.08-0.11c0,0,0.04-0.4,0.07-0.67
						c0.02-0.27,0-0.53-0.08-0.79l0,0c1.24-0.28,3.02,0.52,2.72,2.47c-0.26,1.65-0.97,1.57-2.38,3.51
						c-0.78,1.07-1.88,1.27-2.69,0.77C52.91,62.97,52.92,61.51,53.94,60.66L53.94,60.66z"/>
					<path fill="#FFC8A0" d="M51.55,62.91c-0.71-0.96-1.66-2.03-2.26-2.59c-1.04-0.95-1.26-2.48-0.31-3.19
						c0.95-0.72,2.07-0.14,2.59,0.59c0.15,0.2,0.29,0.44,0.46,0.69L51.55,62.91z"/>
				</g>
				<path fill="#232765" d="M27.58,67.05c0,0,0.03-0.08,0.07-0.16l-0.98-1.67l-0.7-0.23c-0.12,0.23-0.21,0.5-0.23,0.83
					c-0.07,0.83,0.11,1.2,0.43,1.75c0.1,0.17,0.23,0.42,0.21,0.8c-0.02,0.38,0.18,0.71,0.54,0.63c0.1-0.07,0.16-0.2,0.16-0.34
					c0.03-0.72,0.66-1.02,0.88-1.1L27.58,67.05L27.58,67.05z"/>
				<path fill="#2F3793" d="M26.22,62.35c-0.44,0.39-0.71,0.99-0.58,1.81c0.1,0.61,0.26,0.97,0.51,1.29
					c0.23,0.23,0.41,0.41,0.54,0.56c0.03,0.03,0.06,0.06,0.08,0.09c0,0,0.01,0.01,0.01,0.01c0.03,0.03,0.05,0.06,0.08,0.09
					c0,0,0,0,0.01,0.01c0.02,0.03,0.04,0.05,0.06,0.07c0,0,0,0.01,0.01,0.01c0.02,0.03,0.04,0.05,0.05,0.07
					c0.22,0.32,0.02,1.21,0.94,1.15c0,0,0,0,0-0.01c-0.02-0.04-0.04-0.08-0.05-0.12c0,0,0,0,0,0c-0.02-0.04-0.03-0.08-0.04-0.12
					c0,0,0-0.01,0-0.01c-0.01-0.04-0.03-0.08-0.04-0.12c0-0.01,0-0.01,0-0.02c-0.01-0.04-0.02-0.07-0.03-0.11c0-0.01,0-0.01,0-0.02
					c-0.01-0.04-0.01-0.07-0.02-0.11c0-0.01,0-0.02,0-0.03c0-0.03-0.01-0.07-0.01-0.1c0-0.01,0-0.02,0-0.04c0-0.03,0-0.07,0-0.1
					c0-0.01,0-0.03,0-0.04c0-0.03,0-0.06,0.01-0.09c0-0.02,0.01-0.03,0.01-0.05c0-0.03,0.01-0.06,0.02-0.09
					c0-0.02,0.01-0.04,0.02-0.05c0.01-0.03,0.01-0.06,0.02-0.08c0.01-0.02,0.02-0.04,0.02-0.06c0.01-0.03,0.02-0.05,0.03-0.08
					c0.01-0.02,0.02-0.04,0.03-0.06c0.01-0.03,0.03-0.05,0.04-0.08c0.01-0.02,0.03-0.05,0.04-0.07c0.01-0.02,0.03-0.05,0.04-0.07
					c0.02-0.03,0.04-0.06,0.06-0.08c0.01-0.02,0.03-0.04,0.04-0.06c0.03-0.03,0.06-0.06,0.09-0.1c0.01-0.01,0.03-0.03,0.04-0.04
					c0.05-0.05,0.1-0.09,0.15-0.14C27.17,63.74,26.51,63.64,26.22,62.35L26.22,62.35z"/>
				<path fill="#394EC1" d="M26.16,62.04c0.09,0.58,0.24,0.95,0.45,1.26c0,0,0,0,0,0c0.01,0.01,0.02,0.03,0.03,0.04
					c0.09,0.13,0.19,0.24,0.3,0.37l0,0c0.42,0.49,0.01,1.13,1.45,1.65c0.12-0.15-0.56-1.53,1.11-2.66
					c-1.22-1.68-1.91-1.85-2.25-2.92C26.53,60.14,25.98,60.89,26.16,62.04L26.16,62.04z"/>
				<path fill="#4667F4" d="M30.78,59.03c-0.32-0.15-0.59-0.39-0.76-0.59c-0.07-0.1-0.11-0.16-0.11-0.16l0,0
					c-0.03-0.05-0.05-0.09-0.05-0.12l-0.03,0.01v0c0,0-0.04-0.4-0.07-0.67c-0.02-0.27,0-0.53,0.08-0.79
					c-1.24-0.28-3.02,0.52-2.72,2.47c0.03,0.17,0.06,0.31,0.09,0.44l0,0c0.04,0.23,0.14,0.44,0.25,0.63c0,0.01,0.01,0.02,0.01,0.02
					c0.13,0.23,0.27,0.45,0.32,0.65c0.1,0.39,0.2,1.6,1.4,1.35c-0.4-0.48-0.07-2.06,2.09-2.3C31.37,59.54,31,59.15,30.78,59.03
					L30.78,59.03z"/>
				<path fill="#4667F4" d="M35.59,61.4c-0.23-0.23-0.94-0.79-1.53-1.38l0.31,2.85c0.1-0.09,0.26-0.17,0.46-0.27
					C35.47,62.32,35.92,61.73,35.59,61.4L35.59,61.4z"/>
				<path fill="#232765" d="M58.34,67.05c0,0-0.03-0.08-0.07-0.16l0.98-1.67l0.7-0.23c0.12,0.23,0.21,0.5,0.23,0.83
					c0.07,0.83-0.11,1.2-0.43,1.75c-0.1,0.17-0.23,0.42-0.21,0.8c0.02,0.38-0.18,0.71-0.54,0.63c-0.1-0.07-0.16-0.2-0.16-0.34
					c-0.03-0.72-0.66-1.02-0.88-1.1L58.34,67.05L58.34,67.05z"/>
				<path fill="#2F3793" d="M59.7,62.35c0.44,0.39,0.71,0.99,0.58,1.81c-0.1,0.61-0.26,0.97-0.51,1.29
					c-0.23,0.23-0.41,0.41-0.54,0.56c-0.03,0.03-0.06,0.06-0.08,0.09c0,0-0.01,0.01-0.01,0.01c-0.03,0.03-0.05,0.06-0.08,0.09
					c0,0,0,0-0.01,0.01c-0.02,0.03-0.04,0.05-0.06,0.07c0,0,0,0.01-0.01,0.01c-0.02,0.03-0.04,0.05-0.05,0.07
					c-0.22,0.32-0.02,1.21-0.94,1.15c0,0,0,0,0-0.01c0.02-0.04,0.04-0.08,0.05-0.12c0,0,0,0,0,0c0.02-0.04,0.03-0.08,0.04-0.12
					c0,0,0-0.01,0-0.01c0.01-0.04,0.03-0.08,0.04-0.12c0-0.01,0-0.01,0-0.02c0.01-0.04,0.02-0.07,0.03-0.11c0-0.01,0-0.01,0-0.02
					c0.01-0.04,0.01-0.07,0.02-0.11c0-0.01,0-0.02,0-0.03c0-0.03,0.01-0.07,0.01-0.1c0-0.01,0-0.02,0-0.04c0-0.03,0-0.07,0-0.1
					c0-0.01,0-0.03,0-0.04c0-0.03,0-0.06-0.01-0.09c0-0.02-0.01-0.03-0.01-0.05c0-0.03-0.01-0.06-0.02-0.09
					c0-0.02-0.01-0.04-0.02-0.05c-0.01-0.03-0.01-0.06-0.02-0.08c-0.01-0.02-0.02-0.04-0.02-0.06c-0.01-0.03-0.02-0.05-0.03-0.08
					c-0.01-0.02-0.02-0.04-0.03-0.06c-0.01-0.03-0.03-0.05-0.04-0.08c-0.01-0.02-0.03-0.05-0.04-0.07
					c-0.01-0.02-0.03-0.05-0.04-0.07c-0.02-0.03-0.04-0.06-0.06-0.08c-0.01-0.02-0.03-0.04-0.04-0.06c-0.03-0.03-0.06-0.06-0.09-0.1
					c-0.01-0.01-0.03-0.03-0.04-0.04c-0.05-0.05-0.1-0.09-0.15-0.14C58.75,63.74,59.41,63.64,59.7,62.35L59.7,62.35z"/>
				<path fill="#394EC1" d="M59.76,62.04c-0.09,0.58-0.24,0.95-0.45,1.26c0,0,0,0,0,0c-0.01,0.01-0.02,0.03-0.03,0.04
					c-0.09,0.13-0.19,0.24-0.3,0.37l0,0c-0.42,0.49-0.01,1.13-1.45,1.65c-0.12-0.15,0.56-1.53-1.11-2.66
					c1.22-1.68,1.91-1.85,2.25-2.92C59.39,60.14,59.94,60.89,59.76,62.04L59.76,62.04z"/>
				<path fill="#4667F4" d="M55.13,59.03c0.32-0.15,0.59-0.39,0.76-0.59c0.07-0.1,0.11-0.16,0.11-0.16l0,0
					c0.03-0.05,0.05-0.09,0.05-0.12l0.03,0.01v0c0,0,0.04-0.4,0.07-0.67c0.02-0.27,0-0.53-0.08-0.79c1.24-0.28,3.02,0.52,2.72,2.47
					c-0.03,0.17-0.06,0.31-0.09,0.44l0,0c-0.04,0.23-0.14,0.44-0.25,0.63c0,0.01-0.01,0.02-0.01,0.02
					c-0.13,0.23-0.27,0.45-0.32,0.65c-0.1,0.39-0.2,1.6-1.4,1.35c0.4-0.48,0.07-2.06-2.09-2.3C54.55,59.54,54.92,59.15,55.13,59.03
					L55.13,59.03z"/>
				<path fill="#4667F4" d="M50.33,61.4c0.23-0.23,0.94-0.79,1.53-1.38l-0.31,2.85c-0.1-0.09-0.26-0.17-0.46-0.27
					C50.45,62.32,50,61.73,50.33,61.4L50.33,61.4z"/>
			</g>
		</g>
	</g>
	<g id="Bus_00000025440352484006031100000007352818501782460070_">
		<g id="Bus1_00000163791458765576687300000012684737071686399930_">
			<g>
				<path fill="#FBBC04" d="M176.32,36.82h-33.45c-2.32,0-4.2,1.88-4.2,4.2v38.29h41.85V41.02
					C180.53,38.7,178.64,36.82,176.32,36.82z"/>
				<path fill="#F29900" d="M138.68,41.02c0-1.15,0.46-2.19,1.21-2.95l-11.65,11.65v29.59h10.44V49.85l0,0L138.68,41.02
					L138.68,41.02z"/>
				<g>
					<path fill="#FFFFFF" d="M180.53,68.63h-7.85c-1.39,0-2.52,1.13-2.52,2.52l0,0c0,1.39,1.13,2.52,2.52,2.52h7.85V68.63
						L180.53,68.63z"/>
					<path fill="#FFFFFF" d="M138.68,73.66h7.63c1.39,0,2.52-1.13,2.52-2.52l0,0c0-1.39-1.13-2.52-2.52-2.52h-7.63V73.66
						L138.68,73.66z"/>
				</g>
				<path d="M128.24,52.15v14.82l2.12-2.12v0.01c0.44-0.39,0.96-0.66,1.51-0.01c1.12,1.32,1.8,2.35,2.78,1.45l4.03-4.03V41.71
					L128.24,52.15L128.24,52.15z"/>
				<path fill="#E37400" d="M166.64,79.31c0.02-0.1,0.03-0.21,0.03-0.32v-2.13c0-0.81-0.66-1.46-1.46-1.46h-9.59
					c-0.81,0-1.46,0.66-1.46,1.46v2.13c0,0.11,0.01,0.21,0.03,0.32H166.64L166.64,79.31z"/>
				<rect x="146.82" y="36.82" fill="#F29900" width="25.56" height="4.89"/>
				
					<linearGradient id="SVGID_00000156572687461248309820000010285092974761091003_" gradientUnits="userSpaceOnUse" x1="139.8518" y1="15465.0732" x2="174.6908" y2="15441.8877" gradientTransform="matrix(1 0 0 -1 0.12 15504)">
					<stop  offset="0.33" style="stop-color:#000000"/>
					<stop  offset="0.43" style="stop-color:#431E0C"/>
					<stop  offset="0.54" style="stop-color:#7F3A17"/>
					<stop  offset="0.63" style="stop-color:#AA4E20"/>
					<stop  offset="0.7" style="stop-color:#C55A25"/>
					<stop  offset="0.74" style="stop-color:#CF5F27"/>
					<stop  offset="0.75" style="stop-color:#CD5E26"/>
					<stop  offset="0.76" style="stop-color:#C65B25"/>
					<stop  offset="0.76" style="stop-color:#BA5523"/>
					<stop  offset="0.77" style="stop-color:#A94D1F"/>
					<stop  offset="0.77" style="stop-color:#93431B"/>
					<stop  offset="0.77" style="stop-color:#783716"/>
					<stop  offset="0.78" style="stop-color:#572810"/>
					<stop  offset="0.78" style="stop-color:#321709"/>
					<stop  offset="0.78" style="stop-color:#090401"/>
					<stop  offset="0.78" style="stop-color:#000000"/>
					<stop  offset="1" style="stop-color:#000000"/>
				</linearGradient>
				
					<rect x="138.68" y="41.71" fill="url(#SVGID_00000156572687461248309820000010285092974761091003_)" width="41.85" height="20.56"/>
				<path d="M136.29,79.31c0.01-0.22,0-0.43-0.01-0.64c-0.17-2.87-1.92-4.27-3.92-3.13c-1.19,0.68-2.2,2.11-2.79,3.77L136.29,79.31
					L136.29,79.31z"/>
				<path fill="#FBBC04" d="M183.91,42.19h2.67c0.83,0,1.51,0.68,1.51,1.51v8.66c0,0.83-0.68,1.51-1.51,1.51h-2.67
					c-0.83,0-1.51-0.68-1.51-1.51v-8.66C182.4,42.87,183.08,42.19,183.91,42.19z"/>
				<path fill="#FBBC04" d="M185.73,42.19h-0.97v-1.45c0-0.5-0.25-0.76-0.73-0.76h-5.48v-0.97h5.48c1.02,0,1.7,0.69,1.7,1.72V42.19z
					"/>
				<path fill="#FBBC04" d="M134.84,53.87h-2.67c-0.83,0-1.51-0.68-1.51-1.51V43.7c0-0.83,0.68-1.51,1.51-1.51h2.67
					c0.83,0,1.51,0.68,1.51,1.51v8.66C136.35,53.2,135.68,53.87,134.84,53.87z"/>
				<path fill="#FBBC04" d="M133.99,42.19h-0.97v-1.45c0-1.03,0.68-1.72,1.7-1.72h5.48v0.97h-5.48c-0.49,0-0.73,0.25-0.73,0.76
					V42.19z"/>
			</g>
		</g>
	</g>
	<g id="Pin_00000086649862249416541910000016659806256981626766_">
		<g>
			<g>
				<path fill="#FF4365" d="M121.85,6.55c-0.92-1.77-2.5-3.1-4.4-3.71c-0.74-0.23-1.5-0.34-2.27-0.34s-1.53,0.11-2.27,0.34
					c-1.91,0.6-3.49,1.94-4.4,3.71c-0.56,1.06-0.85,2.25-0.85,3.46c0,4.57,2.93,6.35,5.44,10.28c1.52,2.36,1.1,3.78,2.08,3.78
					c0,0,0,0,0.01,0c0,0,0,0,0.01,0c0.99,0,0.56-1.41,2.08-3.78c2.51-3.92,5.44-5.7,5.44-10.28C122.7,8.8,122.41,7.62,121.85,6.55
					L121.85,6.55z"/>
				<circle fill="#FFFFFF" cx="115.17" cy="10.01" r="2.87"/>
			</g>
			<g>
				<path fill="#FF4365" d="M160.02,22.15c-0.92-1.77-2.5-3.1-4.4-3.71c-0.74-0.23-1.5-0.34-2.27-0.34s-1.53,0.11-2.27,0.34
					c-1.91,0.6-3.49,1.94-4.4,3.71c-0.56,1.06-0.85,2.25-0.85,3.46c0,4.57,2.93,6.35,5.44,10.28c1.52,2.36,1.1,3.78,2.08,3.78
					c0,0,0,0,0.01,0s0,0,0.01,0c0.99,0,0.56-1.41,2.08-3.78c2.51-3.92,5.44-5.7,5.44-10.28C160.87,24.4,160.58,23.22,160.02,22.15z"
					/>
				<circle fill="#FFFFFF" cx="153.34" cy="25.61" r="2.87"/>
			</g>
			<g>
				<path fill="#FF4365" d="M81.61,42.59c-0.92-1.77-2.5-3.1-4.4-3.71c-0.74-0.23-1.5-0.34-2.27-0.34s-1.53,0.11-2.27,0.34
					c-1.91,0.6-3.49,1.94-4.4,3.71c-0.56,1.06-0.85,2.25-0.85,3.46c0,4.57,2.93,6.35,5.44,10.28c1.52,2.36,1.1,3.78,2.08,3.78
					c0,0,0,0,0.01,0c0,0,0,0,0.01,0c0.99,0,0.56-1.41,2.08-3.78c2.51-3.92,5.44-5.7,5.44-10.28C82.46,44.84,82.17,43.65,81.61,42.59
					z"/>
				<circle fill="#FFFFFF" cx="74.93" cy="46.05" r="2.87"/>
			</g>
		</g>
	</g>
</g>
</svg>
