<svg width="279" height="166" viewBox="0 0 279 166" fill="none" xmlns="http://www.w3.org/2000/svg">
<rect x="28" y="27" width="224" height="111" rx="29" fill="#131314"/>
<path d="M193.501 37.8797H191.5L191.978 35.1558C192.082 34.5681 191.691 34.0928 191.106 34.0928H185.679L188.405 18.582H187.301L184.576 34.0928H179.149C178.563 34.0928 178.007 34.5681 177.903 35.1558L177.425 37.8797H175.424C174.57 37.8797 173.755 38.5752 173.605 39.4327L163.442 97.2746H184.612L194.776 39.4327C194.927 38.5752 194.356 37.8797 193.501 37.8797Z" fill="#30378F"/>
<path d="M168.194 97.2732H166.706L176.283 42.7646H177.773L168.194 97.2732Z" fill="#4667EF"/>
<path d="M172.21 97.2732H170.722L180.299 42.7646H181.787L172.21 97.2732Z" fill="#4667EF"/>
<path d="M176.227 97.2732H174.737L184.316 42.7646H185.804L176.227 97.2732Z" fill="#4667EF"/>
<path d="M180.241 97.2732H178.753L188.331 42.7646H189.82L180.241 97.2732Z" fill="#4667EF"/>
<path d="M213.807 47.3652C207.58 47.3652 202.532 50.1912 202.532 53.6777V108.988H225.082V53.6777C225.082 50.1912 220.034 47.3652 213.807 47.3652Z" fill="#005B5B"/>
<path d="M184.171 74.0487V108.99H187.538V72.0889L184.171 74.0487Z" fill="#47A1FB"/>
<path d="M210.625 64.3225H202.564C201.463 64.3225 200.382 64.6142 199.428 65.1683L197.64 66.2094V108.99H213.807V67.5159C213.807 65.753 212.383 64.3225 210.625 64.3225Z" fill="url(#paint0_linear_34_826)"/>
<path d="M166.361 84.4134V108.99H174.068V79.928L166.361 84.4134Z" fill="#47A1FB"/>
<path d="M187.538 72.0889V108.99H197.64V66.2095L187.538 72.0889Z" fill="#ED9505"/>
<path d="M174.069 79.928V108.99H184.171V74.0486L174.069 79.928Z" fill="#ED9505"/>
<path d="M187.538 72.0889V108.99H197.64V66.2095L187.538 72.0889Z" fill="#4667EF"/>
<path d="M174.069 79.928V108.99H184.171V74.0486L174.069 79.928Z" fill="#4667EF"/>
<path d="M83.5809 77.4126V72.1194H47.2078V76.5275H53.0624C56.8638 76.5275 59.9459 79.6203 59.9459 83.4349V102.505H63.1224V83.4349C63.1224 79.6203 66.2045 76.5275 70.0058 76.5275C73.8072 76.5275 76.8893 79.6203 76.8893 83.4349V102.505H80.0658V83.4349C80.0658 80.8496 81.4826 78.5967 83.5795 77.4126H83.5809Z" fill="#004E40"/>
<path d="M66.668 88.7034V108.99H70.574V90.4692C69.2051 89.883 67.9191 89.2808 66.668 88.7048V88.7034Z" fill="#30378F"/>
<path d="M73.6458 91.6868V108.99H77.5518V92.9029C76.1582 92.5383 74.8635 92.1271 73.6458 91.6868Z" fill="#30378F"/>
<path d="M53.8369 85.1819V108.99H56.6197V85.3569C55.7318 85.2446 54.8091 85.1819 53.8369 85.1819Z" fill="#30378F"/>
<path d="M59.6902 85.9722V108.99H63.5962V87.3385C62.3174 86.8063 61.0329 86.3367 59.6902 85.9722Z" fill="#30378F"/>
<path d="M80.6223 93.5898V108.99H84.5283V94.1454C83.1449 94.0054 81.8458 93.8173 80.6223 93.5898Z" fill="#30378F"/>
<path d="M56.6196 85.3569V108.99H59.6915V85.9723C58.7063 85.704 57.6891 85.494 56.6196 85.3584V85.3569Z" fill="url(#paint1_linear_34_826)"/>
<path d="M63.5962 87.3386V108.99H66.6681V88.7035C65.6291 88.2237 64.6148 87.7615 63.5962 87.3386Z" fill="url(#paint2_linear_34_826)"/>
<path d="M70.574 90.4692V108.99H73.6459V91.6868C72.5691 91.2975 71.5505 90.8863 70.574 90.4678V90.4692Z" fill="url(#paint3_linear_34_826)"/>
<path d="M77.5505 92.9031V108.99H80.6224V93.5899C79.5442 93.3887 78.5227 93.1583 77.5505 92.9031Z" fill="url(#paint4_linear_34_826)"/>
<path d="M76.215 113.125L70.5943 95.9053C69.9636 93.9747 67.2405 93.9761 66.6127 95.9082L61.0153 113.129C60.1943 115.665 62.1269 118.29 65.7176 119.255C69.6962 120.326 74.2126 118.955 75.8095 116.193C76.3966 115.178 76.5056 114.117 76.2135 113.125H76.215Z" fill="#049A7C"/>
<path d="M139.573 108.99L103.881 54.4344C102.71 52.6452 100.721 51.5676 98.5875 51.5676H86.2679C84.7842 51.5676 83.5811 52.775 83.5811 54.2638V108.99H139.573Z" fill="#4667EF"/>
<path d="M91.0151 55.0688H87.7078V108.99H91.0151V55.0688Z" fill="#489DF7"/>
<path d="M98.3185 55.0688H95.0112V108.99H98.3185V55.0688Z" fill="#489DF7"/>
<path d="M86.3055 121.485L80.6849 104.265C80.0542 102.335 77.331 102.336 76.7033 104.268L71.1058 121.489C70.2848 124.025 72.2175 126.65 75.8082 127.615C79.7868 128.685 84.3031 127.315 85.9001 124.553C86.4872 123.538 86.5962 122.476 86.3041 121.485H86.3055Z" fill="#005B5B"/>
<path d="M214.01 105.569H209.433V108.99H214.01V105.569Z" fill="#004E40"/>
<path d="M211.43 106.273C217.495 106.273 222.412 101.712 222.412 96.0861C222.412 90.46 217.495 85.8992 211.43 85.8992C205.364 85.8992 200.447 90.46 200.447 96.0861C200.447 101.712 205.364 106.273 211.43 106.273Z" fill="#107747"/>
<path d="M167.008 47.1026C167.025 47.0778 167.041 47.0515 167.059 47.0267C167.062 47.0224 167.064 47.018 167.067 47.0136C168.121 45.4913 169.78 44.3962 171.755 44.1206C175.509 43.5942 178.977 46.2218 179.5 49.9883C179.853 52.5241 178.781 54.9301 176.896 56.3912C169.392 62.5054 165.553 68.7377 164.487 75.457L159.62 60.9481C159.62 60.9481 161.253 55.5309 167.006 47.1026H167.008Z" fill="url(#paint5_linear_34_826)"/>
<path d="M167.185 64.3223C174.261 67.7636 177.324 68.5321 176.121 74.5165C174.917 80.5009 171.78 86.5932 171.78 86.5932L161.458 82.5861L167.184 64.3223H167.185Z" fill="#EDA87A"/>
<path d="M167.185 75.457C174.261 78.8984 177.324 79.6668 176.121 85.6512C174.917 91.6356 171.78 97.7279 171.78 97.7279L161.458 93.7208L167.184 75.457H167.185Z" fill="#EDA87A"/>
<path d="M165.597 86.7449C171.787 89.4586 176.184 92.9101 173.554 99.6571C170.924 106.406 157.882 120.286 152.102 126.428C148.098 130.682 146.042 134.872 146.042 139.696L103.73 139.642L102.307 108.663L108.233 93.5881L157.18 94.5141L165.597 86.7434V86.7449Z" fill="#EDA87A"/>
<mask id="mask0_34_826" style="mask-type:luminance" maskUnits="userSpaceOnUse" x="102" y="86" width="73" height="54">
<path d="M165.597 86.7449C171.787 89.4586 176.184 92.9101 173.554 99.6571C170.924 106.406 157.882 120.286 152.102 126.428C148.098 130.682 146.042 134.872 146.042 139.696L103.73 139.642L102.307 108.663L108.233 93.5881L157.18 94.5141L165.597 86.7434V86.7449Z" fill="white"/>
</mask>
<g mask="url(#mask0_34_826)">
<path d="M121.207 119.646L149.534 130.756L160.185 119.646H121.207Z" fill="url(#paint6_linear_34_826)"/>
</g>
<path d="M165.072 36.9375H165.626C166.191 36.9375 166.65 37.3983 166.65 37.9655V46.3384C166.65 46.9057 166.191 47.3665 165.626 47.3665H165.072V36.939V36.9375Z" fill="#049A7C"/>
<path d="M160.332 20.8508H118.292C115.566 20.8508 113.355 23.0686 113.355 25.8043V114.694C113.355 117.43 115.566 119.647 118.292 119.647H160.332C163.058 119.647 165.268 117.43 165.268 114.694V25.8043C165.268 23.0686 163.058 20.8508 160.332 20.8508Z" fill="#003439"/>
<path d="M162.651 114.692V25.8028C162.651 24.5972 161.677 23.6199 160.476 23.6199L118.29 23.6199C117.089 23.6199 116.115 24.5972 116.115 25.8028V114.692C116.115 115.898 117.089 116.875 118.29 116.875H160.476C161.677 116.875 162.651 115.898 162.651 114.692Z" fill="black"/>
<mask id="mask1_34_826" style="mask-type:luminance" maskUnits="userSpaceOnUse" x="116" y="23" width="47" height="94">
<path d="M162.651 114.692V25.8028C162.651 24.5972 161.677 23.6199 160.476 23.6199L118.29 23.6199C117.089 23.6199 116.115 24.5972 116.115 25.8028V114.692C116.115 115.898 117.089 116.875 118.29 116.875H160.476C161.677 116.875 162.651 115.898 162.651 114.692Z" fill="white"/>
</mask>
<g mask="url(#mask1_34_826)">
<path d="M149.534 108.99V77.9667H156.512V72.1208H165.691V108.99H149.534Z" fill="#232765"/>
<path d="M135.678 102.593V108.99H139.863L135.678 102.593Z" fill="#DDF4CB"/>
<path d="M120.423 79.2747L104.173 54.4344C103.002 52.6452 101.013 51.5676 98.8795 51.5676H86.5599C85.0762 51.5676 83.873 52.775 83.873 54.2638V108.99H121.582V83.1593C121.582 81.7784 121.179 80.4295 120.425 79.2747H120.423Z" fill="#232765"/>
<path d="M143.309 98.1277H123.37V108.99H143.309V98.1277Z" fill="#2F3793"/>
<path d="M146.482 87.2671H126.544L123.37 98.1277H143.309L146.482 87.2671Z" fill="#2F3793"/>
<path d="M133.265 98.1277L136.438 87.2671H131.49L128.317 98.1277H133.265Z" fill="#232765"/>
<path d="M143.309 98.1277L146.482 87.2671H141.385L138.211 98.1277H143.309Z" fill="#232765"/>
<path d="M156.211 108.99V98.1277L153.037 87.2671H146.482L143.309 98.1277V108.99H156.211Z" fill="#2F3793"/>
<path d="M146.767 98.1277H152.751C153.64 98.1277 154.363 98.8524 154.363 99.7448V108.988H145.154V99.7448C145.154 98.8524 145.876 98.1277 146.766 98.1277H146.767Z" fill="#232765"/>
<path d="M124.838 98.1277H141.921V104.633C141.921 105.319 141.366 105.878 140.68 105.878H126.078C125.393 105.878 124.837 105.321 124.837 104.633V98.1277H124.838Z" fill="black"/>
<path d="M148.429 83.8708H144.499V87.2655H148.429V83.8708Z" fill="#2F3793"/>
<path d="M128.299 98.1277C128.443 99.4284 129.54 100.44 130.876 100.44C132.211 100.44 133.308 99.4284 133.452 98.1277H128.301H128.299Z" fill="#232765"/>
<path d="M123.37 98.1277C123.514 99.4284 124.611 100.44 125.947 100.44C127.282 100.44 128.379 99.4284 128.523 98.1277H123.372H123.37Z" fill="#232765"/>
<path d="M133.227 98.1277C133.371 99.4284 134.468 100.44 135.803 100.44C137.139 100.44 138.236 99.4284 138.38 98.1277H133.228H133.227Z" fill="#232765"/>
<path d="M138.156 98.1277C138.3 99.4284 139.397 100.44 140.732 100.44C142.068 100.44 143.165 99.4284 143.309 98.1277H138.157H138.156Z" fill="#232765"/>
<path d="M163.455 108.99H116.116V118.001H163.455V108.99Z" fill="#16173C"/>
</g>
<path d="M139.311 27.1662C140.023 27.1662 140.6 26.5871 140.6 25.8728C140.6 25.1584 140.023 24.5793 139.311 24.5793C138.6 24.5793 138.022 25.1584 138.022 25.8728C138.022 26.5871 138.6 27.1662 139.311 27.1662Z" fill="#231F20"/>
<path d="M94.9864 120.044C94.0317 104.987 105.048 93.4978 98.2007 74.7703C97.9246 74.2162 97.7125 73.6213 97.5759 72.9884C96.688 68.8997 99.2731 64.8619 103.348 63.9724C106.607 63.2608 109.832 64.7774 111.446 67.5056H111.447C111.453 67.5158 111.459 67.5275 111.466 67.5392C111.616 67.7958 111.753 68.0627 111.873 68.3383C114.4 73.6533 113.243 79.1682 111.75 84.9601C110.177 91.0554 113.355 93.6874 113.355 93.6874L112.539 124.362L104.523 131.418L103.73 139.644C103.526 135.488 95.572 129.309 94.9849 120.044H94.9864Z" fill="#EDA87A"/>
<path d="M145.718 134.873H104.561C102.874 134.873 101.507 136.245 101.507 137.938V143.837C101.507 145.53 102.874 146.903 104.561 146.903H145.718C147.405 146.903 148.772 145.53 148.772 143.837V137.938C148.772 136.245 147.405 134.873 145.718 134.873Z" fill="#003936"/>
<path d="M164.835 76.1774C168.227 76.1774 170.976 73.4184 170.976 70.0151C170.976 66.6117 168.227 63.8528 164.835 63.8528C161.444 63.8528 158.694 66.6117 158.694 70.0151C158.694 73.4184 161.444 76.1774 164.835 76.1774Z" fill="#EDA87A"/>
<path d="M164.835 87.3136C168.227 87.3136 170.976 84.5547 170.976 81.1513C170.976 77.748 168.227 74.989 164.835 74.989C161.444 74.989 158.694 77.748 158.694 81.1513C158.694 84.5547 161.444 87.3136 164.835 87.3136Z" fill="#EDA87A"/>
<path d="M163.455 98.6833C166.846 98.6833 169.596 95.9243 169.596 92.5209C169.596 89.1176 166.846 86.3586 163.455 86.3586C160.063 86.3586 157.314 89.1176 157.314 92.5209C157.314 95.9243 160.063 98.6833 163.455 98.6833Z" fill="#EDA87A"/>
<path d="M107.967 143.524C109.418 143.524 110.594 142.343 110.594 140.887C110.594 139.431 109.418 138.251 107.967 138.251C106.516 138.251 105.34 139.431 105.34 140.887C105.34 142.343 106.516 143.524 107.967 143.524Z" fill="#9976FF"/>
<path d="M103.603 73.6081C103.205 70.6946 100.734 68.8004 98.0555 68.293C97.4219 69.7162 97.2185 71.3479 97.5745 72.9869C97.7111 73.6197 97.9247 74.2147 98.1993 74.7688C99.2034 77.5131 99.8196 80.1014 100.151 82.5701C103.022 80.584 104.028 76.7125 103.603 73.6081Z" fill="#16173C"/>
<path d="M163.203 71.2079C166.1 71.6978 167.354 69.7278 167.797 67.0812C167.944 66.2048 167.858 65.3183 167.572 64.5002C166.748 64.0876 165.819 63.8542 164.835 63.8542C162.786 63.8542 160.973 64.8633 159.857 66.4105C160.12 68.6138 161.086 70.8492 163.203 71.2064V71.2079Z" fill="#16173C"/>
<path d="M163.462 82.9332C166.534 82.9828 167.426 80.6439 167.387 77.7873C167.374 76.8745 167.095 75.9966 166.602 75.2486C166.043 75.0794 165.45 74.989 164.835 74.989C162.439 74.989 160.365 76.367 159.354 78.3749C159.9 80.6235 161.208 82.8953 163.462 82.9332Z" fill="#16173C"/>
<path d="M161.819 92.989C164.452 92.7455 164.779 90.1878 164.298 87.3385C164.241 87.0032 164.135 86.6824 163.988 86.3834C163.812 86.3688 163.633 86.3586 163.453 86.3586C161.208 86.3586 159.245 87.5689 158.174 89.3742C158.838 91.3048 160.079 93.1494 161.819 92.989Z" fill="#16173C"/>
<path d="M154.031 42.0164C152.03 38.1478 148.589 35.2329 144.441 33.9118C141.341 32.9567 138.047 32.9071 134.924 33.8141C131.801 34.7196 129.043 36.5322 126.945 39.03C124.456 41.9931 123.115 45.7392 123.115 49.6092C123.09 52.3025 123.628 54.9957 124.725 57.4455C126.432 61.2164 129.263 64.2523 132.192 68.0728C133.119 69.321 134.046 70.6188 134.974 72.039C138.292 77.1806 137.365 80.2909 139.512 80.2909C141.659 80.2909 140.732 77.2054 144.05 72.039C149.516 63.4693 155.885 59.5745 155.885 49.5844C155.885 46.9393 155.25 44.3437 154.031 42.0179V42.0164ZM142.148 55.2888C141.318 55.6811 140.415 55.8765 139.512 55.8765C138.316 55.8765 137.145 55.5338 136.145 54.8966C135.144 54.2594 134.339 53.329 133.827 52.2514C133.314 51.1738 133.144 49.949 133.291 48.7737C133.438 47.5984 133.949 46.4712 134.706 45.5656C135.292 44.8555 136.024 44.2926 136.854 43.9004C137.684 43.5081 138.586 43.3127 139.513 43.3127C140.709 43.3127 141.88 43.6554 142.88 44.2926C143.881 44.9299 144.686 45.8602 145.198 46.9378C145.711 48.0154 145.881 49.2403 145.734 50.4156C145.587 51.5909 145.076 52.7181 144.319 53.6236L144.368 53.574L144.246 53.7213C143.66 54.3819 142.977 54.9214 142.172 55.2888H142.148Z" fill="#FF4365"/>
<defs>
<linearGradient id="paint0_linear_34_826" x1="197.64" y1="86.6561" x2="213.807" y2="86.6561" gradientUnits="userSpaceOnUse">
<stop offset="0.15" stop-color="#65BAFB"/>
<stop offset="0.38" stop-color="#56A0F6"/>
<stop offset="0.63" stop-color="#4480F0"/>
</linearGradient>
<linearGradient id="paint1_linear_34_826" x1="58.1556" y1="108.99" x2="58.1556" y2="85.3569" gradientUnits="userSpaceOnUse">
<stop offset="0.45" stop-color="#489DF7"/>
<stop offset="0.56" stop-color="#61ADF7"/>
<stop offset="0.78" stop-color="#A1D6FA"/>
<stop offset="0.85" stop-color="#B8E5FB"/>
</linearGradient>
<linearGradient id="paint2_linear_34_826" x1="65.1321" y1="4.00027" x2="65.1321" y2="87.3386" gradientUnits="userSpaceOnUse">
<stop offset="0.45" stop-color="#489DF7"/>
<stop offset="0.56" stop-color="#61ADF7"/>
<stop offset="0.78" stop-color="#A1D6FA"/>
<stop offset="0.85" stop-color="#B8E5FB"/>
</linearGradient>
<linearGradient id="paint3_linear_34_826" x1="72.1099" y1="4.00011" x2="72.1099" y2="90.4692" gradientUnits="userSpaceOnUse">
<stop offset="0.45" stop-color="#489DF7"/>
<stop offset="0.56" stop-color="#61ADF7"/>
<stop offset="0.78" stop-color="#A1D6FA"/>
<stop offset="0.85" stop-color="#B8E5FB"/>
</linearGradient>
<linearGradient id="paint4_linear_34_826" x1="79.0865" y1="4.00025" x2="79.0865" y2="92.9031" gradientUnits="userSpaceOnUse">
<stop offset="0.45" stop-color="#489DF7"/>
<stop offset="0.56" stop-color="#61ADF7"/>
<stop offset="0.78" stop-color="#A1D6FA"/>
<stop offset="0.85" stop-color="#B8E5FB"/>
</linearGradient>
<linearGradient id="paint5_linear_34_826" x1="159.622" y1="59.7553" x2="179.567" y2="59.7553" gradientUnits="userSpaceOnUse">
<stop offset="0.1" stop-color="#D9935F"/>
<stop offset="0.13" stop-color="#DA9561"/>
<stop offset="0.49" stop-color="#ECAE81"/>
<stop offset="0.79" stop-color="#F7BE95"/>
<stop offset="1" stop-color="#FBC49D"/>
</linearGradient>
<linearGradient id="paint6_linear_34_826" x1="142.855" y1="131.937" x2="140.089" y2="116.306" gradientUnits="userSpaceOnUse">
<stop stop-color="#EDA87A"/>
<stop offset="0.31" stop-color="#E9A477"/>
<stop offset="0.59" stop-color="#DE9B6E"/>
<stop offset="0.86" stop-color="#CC8A5F"/>
<stop offset="1" stop-color="#BF7F55"/>
</linearGradient>
</defs>
</svg>
