<?xml version="1.0" encoding="utf-8"?>
<!-- Generator: Adobe Illustrator 30.0.0, SVG Export Plug-In . SVG Version: 9.03 Build 0)  -->
<svg version="1.1" baseProfile="basic" id="Layer_1"
	 xmlns="http://www.w3.org/2000/svg" xmlns:xlink="http://www.w3.org/1999/xlink" x="0px" y="0px" width="300px" height="200px"
	 viewBox="0 0 300 200" xml:space="preserve">
<g>
	<g id="Container_00000138569876500190904430000005447390201269133991_">
		<g>
			<path fill="#DDF0CE" d="M36.87,36.94h226.26c15.39,0,27.87,12.48,27.87,27.87v70.41c0,15.39-12.48,27.87-27.87,27.87H36.87
				C21.48,163.08,9,150.6,9,135.21V64.8C9,49.41,21.48,36.94,36.87,36.94z"/>
			<path fill="#CCE7B9" d="M190.43,148.18c-6.28,0-12.25,1.29-17.65,3.6c-15.29,6.11-32.75,4.05-46.1-5.48l0,0
				c-7.28-5.21-16.26-8.28-25.98-8.28c-17.51,0-32.63,9.98-39.72,24.43c1.21,0.31,2.46,0.53,3.74,0.64h170.65
				C227.21,153.96,203.75,148.18,190.43,148.18L190.43,148.18z"/>
			
				<linearGradient id="SVGID_1_" gradientUnits="userSpaceOnUse" x1="285.8556" y1="-6231.8774" x2="97.1082" y2="-6231.8774" gradientTransform="matrix(1 0 0 -1 0 -6132)">
				<stop  offset="0.37" style="stop-color:#64BEFF"/>
				<stop  offset="0.45" style="stop-color:#64BEFF;stop-opacity:0.98"/>
				<stop  offset="0.52" style="stop-color:#67BFFF;stop-opacity:0.94"/>
				<stop  offset="0.6" style="stop-color:#6CC1FF;stop-opacity:0.86"/>
				<stop  offset="0.67" style="stop-color:#72C3FF;stop-opacity:0.75"/>
				<stop  offset="0.74" style="stop-color:#7AC6FF;stop-opacity:0.61"/>
				<stop  offset="0.82" style="stop-color:#85CAFF;stop-opacity:0.44"/>
				<stop  offset="0.89" style="stop-color:#91CFFF;stop-opacity:0.24"/>
				<stop  offset="0.96" style="stop-color:#9ED4FF;stop-opacity:0"/>
				<stop  offset="0.97" style="stop-color:#9FD5FF;stop-opacity:0"/>
			</linearGradient>
			<path fill="url(#SVGID_1_)" d="M263.13,36.94c-13.5-1.51-27.34,3.82-35.52,14.49l0,0c-12.15,15.06-33.06,19.75-50.47,11.35
				c-5.5-2.85-12.57-3.85-18.82-2.53l0,0c0,0-12.08,0.29-32.37,20.89c-20.29,20.59-36,18-36,18l-9-12.82l-25.02,29.44
				c0,0,39.97-19.53,57.67-3.2c8.79,8.11,17.55,12.31,24.13,14.48c6.83,2.94,14.44,3,20.98,0.67l0,0
				c46.49-12.7,42.38,28.46,75.3,35.35c6.74,0.06,25.06-0.28,32.06-0.14c14.01-1.47,24.93-13.32,24.93-27.72V64.8
				C291,49.41,278.52,36.93,263.13,36.94L263.13,36.94z"/>
		</g>
	</g>
	<g id="Lady_00000016071829110166143440000001676441725917262509_">
		<g>
			<path fill-rule="evenodd" clip-rule="evenodd" fill="#CC9F5D" d="M101.54,161.53c-0.62-5.46-6.65-10.02-11.08-13.27
				c-3.86-2.83-6.07-4.93-10.06-7.53c-3.37-2.2-5.94-9.76-6.43-13.63c-0.56-4.47,0.41-6.91,6.59-7.46c4.98-0.44,7.7-2.25,9.21-5.6
				c0.69-1.53,1.29-4,1.09-6.43c-0.1-1.27-1.22-1.82-1.84-2.03c-1.35-0.47-2.71-0.96-3.93-1.71c-1-0.62-2.23-1.69-2.81-2.74
				c-0.68-1.24,0.39-2.27,1.37-1.58c1.35,0.94,1.92,1.4,3.4,1.63c0.44,0.07,1.23,0.03,1.63-0.16c0.93-0.41,0.71-1.34,0.67-2.44
				c-0.02-0.78-0.06-1.37,0.54-1.94c0.54-0.51,1.42-0.54,2.08-0.93c1.37-0.81,1.85-1.9,1.74-3.18c-0.09-1.12-1.69-2.1-3.05-2.97
				c-3.93-2.52-5.65-7.03-6.8-11.67c-0.25-1.01-1.12-2.87-1.36-3.92c-2.96-12.92-14.13-21.19-27.04-18.23S34.48,71.55,37.44,84.47
				c1.01,4.42-8.08,7.54-5.14,10.58l7.54,26.47l-19.61,40.02L101.54,161.53L101.54,161.53z"/>
			<path fill="#3A823D" d="M88.63,144.73c-0.75-1.19-1.31-2.5-1.83-3.81c-0.63-2.44-2.85-4.25-5.49-4.25
				c-1.05,0-2.04,0.29-2.89,0.79l0,0c-8.67,5.13-19.31,5.65-28.45,1.41c-0.73-0.34-1.54-0.53-2.39-0.53c-1.29,0-2.47,0.43-3.42,1.15
				v1.15c0,12.44,10.08,22.53,22.53,22.53h38.08c-0.34-1.79-1-3.51-1.98-5.05C98.54,151.5,91.67,149.55,88.63,144.73L88.63,144.73z"
				/>
			<path d="M14.22,159.81c0.31,13.44,12.13,21.95,24.04,21.95s23.89-9.16,23.8-24.15c-0.04-6.36-4.26-14.27-7.76-20.38
				c-3.2-5.58-4.56-9.63-5.88-16.62c-1.44-7.66-1.48-14.32-1.46-18.54c0.01-2.05-4.52,2.26-6.19,1.08
				c-2.86-2.01-3.26-1.25-1.73-4.23c0.66-1.28,0.72-1.24,2.11-1.63c3.02-0.84,6.23-2.15,7.65,0.38c1.53,2.73,4.6,4.92,8.66,3.73
				c4.38-1.28,5.31-8.83,5.93-12c1.56-7.96,1.87-15.92,1.33-25.31c0.62,5.46,4.3,9.92,8.76,13.14c3.23,2.32,8.37,4,11.73,3.21
				c1.73-0.38,1.2-3.32,1.02-4.01c-0.29-1.1-0.67-2.06-1.29-3.57c-3.54-8.71-12.24-16.52-22.43-18.51c0,0-27.59-5.62-36.81,16.5
				c-9.81,23.54,4.87,31.21,3.64,46.21c-1.64,20.06-14.51,24.87-15.11,41.12c-0.02,0.36-0.03,0.72-0.03,1.08
				C14.21,159.45,14.21,159.63,14.22,159.81L14.22,159.81z"/>
			<circle fill="#CC9F5D" cx="41.28" cy="100.3" r="7.87"/>
			<circle fill="#FAB400" cx="44.33" cy="110.59" r="6.05"/>
		</g>
	</g>
	<g id="Soundwaves_00000127750103939772733420000009386379040053536914_">
		<g>
			<path fill="#4285F4" d="M114.97,83.57l-6.32,5.52c-0.46,0.4-0.54,1.08-0.19,1.58c2.6,3.58,4.13,7.98,4.13,12.73
				c0,3.76-0.96,7.3-2.65,10.39c-0.29,0.52-0.13,1.18,0.35,1.52l6.84,4.89c0.56,0.4,1.35,0.24,1.7-0.35
				c2.85-4.83,4.49-10.45,4.49-16.45c0-7.38-2.47-14.19-6.63-19.65C116.28,83.21,115.49,83.12,114.97,83.57L114.97,83.57z"/>
			<path fill="#4285F4" d="M129.86,70.61l-6.32,5.5c-0.48,0.41-0.54,1.13-0.15,1.63c5.76,7.29,8.87,16.24,8.86,25.67
				c-0.01,7.83-2.19,15.33-6.24,21.81c-0.33,0.53-0.2,1.23,0.31,1.59l6.81,4.89c0.55,0.4,1.32,0.25,1.69-0.32
				c5.3-8.27,8.14-17.89,8.16-27.95c0.02-12.02-4-23.42-11.43-32.66C131.14,70.23,130.37,70.17,129.86,70.61L129.86,70.61z"/>
			<path fill="#4285F4" d="M235.36,95.14c-3.31,0-5.99-2.68-5.99-5.99V24.31c0-3.31,2.68-5.99,5.99-5.99s5.99,2.68,5.99,5.99v64.84
				C241.36,92.46,238.67,95.14,235.36,95.14z"/>
			<path fill="#4285F4" d="M194.76,104.97c-3.31,0-5.99-2.68-5.99-5.99V45.48c0-3.31,2.68-5.99,5.99-5.99
				c3.31,0,5.99,2.68,5.99,5.99v53.49C200.75,102.28,198.07,104.97,194.76,104.97z"/>
			<path fill="#4285F4" d="M215.71,114.56c-3.31,0-5.99-2.68-5.99-5.99v-34.7c0-3.31,2.68-5.99,5.99-5.99
				c3.31,0,5.99,2.68,5.99,5.99v34.7C221.71,111.87,219.03,114.56,215.71,114.56z"/>
			<path fill="#4285F4" d="M175.11,119.57c-3.31,0-5.99-2.68-5.99-5.99v-34.7c0-3.31,2.68-5.99,5.99-5.99s5.99,2.68,5.99,5.99v34.7
				C181.1,116.89,178.42,119.57,175.11,119.57z"/>
		</g>
	</g>
	<g id="Badges_00000088825710333087981620000007067888120791547274_">
		<g>
			<circle fill="#4285F4" cx="108.6" cy="40.83" r="22.59"/>
			<path fill="#FFFFFF" d="M122.76,49.4l-7.05-6c1.22-1.93,1.92-4.21,1.92-6.66c0-6.9-5.62-12.52-12.52-12.52S92.6,29.85,92.6,36.75
				s5.62,12.52,12.52,12.52c2.07,0,4.02-0.51,5.74-1.4l5.29,7.56c0.6,0.86,1.82,1,2.6,0.29l4.06-3.7
				C123.58,51.31,123.56,50.08,122.76,49.4L122.76,49.4z M98.66,36.75c0-3.56,2.9-6.46,6.46-6.46c3.56,0,6.46,2.9,6.46,6.46
				c0,3.56-2.9,6.46-6.46,6.46C101.55,43.21,98.66,40.31,98.66,36.75z"/>
		</g>
		<g>
			<path fill="#0D6545" d="M181.74,150.41c0,5.29-4.29,9.58-9.58,9.58c-5.29,0-9.58-4.29-9.58-9.58c0-5.29,3.12-19.39,9.58-19.55
				C178.62,130.71,181.74,145.12,181.74,150.41L181.74,150.41z"/>
			<path fill="#009E7C" d="M183.13,142.14c-6.6,0.16-9.8,14.59-9.8,20.01c0,0.34,0.02,0.68,0.05,1.02h19.5
				c0.04-0.33,0.05-0.67,0.05-1.02C192.93,156.73,189.73,141.98,183.13,142.14L183.13,142.14z"/>
		</g>
		<g>
			<circle fill="#FFFFFF" cx="251.88" cy="131.37" r="22.65"/>
			<g>
				<path fill="#4667F4" d="M264.12,131.37h-2.27c-0.39,0-0.72,0.3-0.75,0.69c-0.16,2.2-1.1,4.24-2.67,5.81
					c-2.55,2.55-6.34,3.42-10.01,2.05c-0.02-0.01-0.04-0.02-0.06-0.03c-3.34-1.52-5.36-4.5-5.61-7.83
					c-0.03-0.39-0.36-0.69-0.75-0.69h-2.27c-0.43,0-0.78,0.36-0.75,0.79c0.37,6.15,5.03,11.15,11.02,12.04v4.47h3.78v-4.46
					c6.03-0.86,10.73-5.87,11.1-12.05C264.9,131.73,264.56,131.37,264.12,131.37L264.12,131.37z"/>
				<path fill="#4667F4" d="M251.91,136.56c2.87,0,5.19-2.32,5.19-5.19v-12.11c0-2.87-2.32-5.19-5.19-5.19s-5.19,2.32-5.19,5.19
					v12.11C246.72,134.24,249.04,136.56,251.91,136.56z"/>
			</g>
		</g>
	</g>
</g>
</svg>
