<?xml version="1.0" encoding="utf-8"?>
<!-- Generator: Adobe Illustrator 30.0.0, SVG Export Plug-In . SVG Version: 9.03 Build 0)  -->
<svg version="1.1" baseProfile="basic" id="Layer_1"
	 xmlns="http://www.w3.org/2000/svg" xmlns:xlink="http://www.w3.org/1999/xlink" x="0px" y="0px" width="415px" height="215px"
	 viewBox="0 0 415 215" xml:space="preserve">
<g>
	<g id="Gate_00000124132671268226595980000009731488615389819027_">
		<g>
			<g>
				<path fill="#FF8279" d="M163.09,15.76c-3.65,0-6.62-2.07-6.62-4.63v34.96c0,2.56,2.96,4.63,6.62,4.63
					c3.65,0,6.62-2.07,6.62-4.63V11.13C169.7,13.69,166.74,15.76,163.09,15.76z"/>
				<ellipse fill="#FFC7A0" cx="163.09" cy="11.13" rx="6.62" ry="4.63"/>
			</g>
			<g>
				
					<linearGradient id="SVGID_1_" gradientUnits="userSpaceOnUse" x1="144.7549" y1="1692.8066" x2="163.5585" y2="1692.8066" gradientTransform="matrix(1 0 0 -1 0 1728)">
					<stop  offset="0" style="stop-color:#FF8279"/>
					<stop  offset="1" style="stop-color:#FFC7A0"/>
				</linearGradient>
				<path fill="url(#SVGID_1_)" d="M163.55,23.6c0-1.98-1.42-3.96-3.16-4.42c-1.08-0.29-2.04,0.07-2.61,0.86l0,0v0
					c-0.1,0.14-13.03,22.65-13.03,22.65l3.39,8.62l14.86-25.84C163.36,24.98,163.56,24.35,163.55,23.6L163.55,23.6z"/>
				
					<linearGradient id="SVGID_00000153688269022812072920000002517086240630537635_" gradientUnits="userSpaceOnUse" x1="144.7549" y1="1673.5754" x2="163.5585" y2="1673.5754" gradientTransform="matrix(1 0 0 -1 0 1728)">
					<stop  offset="0" style="stop-color:#FF8279"/>
					<stop  offset="1" style="stop-color:#FFC7A0"/>
				</linearGradient>
				<path fill="url(#SVGID_00000153688269022812072920000002517086240630537635_)" d="M163.55,42.83c0-1.98-1.42-3.96-3.16-4.42
					c-1.08-0.29-2.04,0.07-2.61,0.86l0,0v0c-0.1,0.14-13.03,22.65-13.03,22.65l3.39,8.62l14.86-25.84
					C163.36,44.22,163.56,43.58,163.55,42.83L163.55,42.83z"/>
			</g>
			<g>
				<path fill="#FF8279" d="M144.75,47.32c-3.65,0-6.62-2.07-6.62-4.63v34.96c0,2.56,2.96,4.63,6.62,4.63
					c3.65,0,6.62-2.07,6.62-4.63V42.69C151.37,45.24,148.4,47.32,144.75,47.32z"/>
				<ellipse fill="#FFC7A0" cx="144.75" cy="42.69" rx="6.62" ry="4.63"/>
			</g>
			<g>
				
					<linearGradient id="SVGID_00000065039380704225042530000000753753249502758847_" gradientUnits="userSpaceOnUse" x1="126.3311" y1="1641.0913" x2="145.1347" y2="1641.0913" gradientTransform="matrix(1 0 0 -1 0 1728)">
					<stop  offset="0" style="stop-color:#FF8279"/>
					<stop  offset="1" style="stop-color:#FFC7A0"/>
				</linearGradient>
				<path fill="url(#SVGID_00000065039380704225042530000000753753249502758847_)" d="M145.13,75.32c0-1.98-1.42-3.96-3.16-4.42
					c-1.08-0.29-2.04,0.07-2.61,0.86l0,0v0c-0.1,0.14-13.03,22.65-13.03,22.65l3.39,8.62l14.86-25.84
					C144.93,76.7,145.13,76.06,145.13,75.32L145.13,75.32z"/>
				
					<linearGradient id="SVGID_00000018208723214161312720000012664569027781091741_" gradientUnits="userSpaceOnUse" x1="126.3311" y1="1660.3252" x2="145.1347" y2="1660.3252" gradientTransform="matrix(1 0 0 -1 0 1728)">
					<stop  offset="0" style="stop-color:#FF8279"/>
					<stop  offset="1" style="stop-color:#FFC7A0"/>
				</linearGradient>
				<path fill="url(#SVGID_00000018208723214161312720000012664569027781091741_)" d="M145.13,56.08c0-1.98-1.42-3.96-3.16-4.42
					c-1.08-0.29-2.04,0.07-2.61,0.86l0,0v0c-0.1,0.14-13.03,22.65-13.03,22.65l3.39,8.62l14.86-25.84
					C144.93,57.47,145.13,56.83,145.13,56.08L145.13,56.08z"/>
			</g>
			<g>
				<path fill="#FF8279" d="M126.33,79.8c-3.65,0-6.62-2.07-6.62-4.63v34.96c0,2.56,2.96,4.63,6.62,4.63s6.62-2.07,6.62-4.63V75.17
					C132.94,77.73,129.98,79.8,126.33,79.8z"/>
				<ellipse fill="#FFC7A0" cx="126.33" cy="75.17" rx="6.62" ry="4.63"/>
			</g>
			
				<linearGradient id="SVGID_00000000934582665627261280000004333275520048955323_" gradientUnits="userSpaceOnUse" x1="107.9525" y1="1628.3617" x2="126.7561" y2="1628.3617" gradientTransform="matrix(1 0 0 -1 0 1728)">
				<stop  offset="0" style="stop-color:#FF8279"/>
				<stop  offset="1" style="stop-color:#FFC7A0"/>
			</linearGradient>
			<path fill="url(#SVGID_00000000934582665627261280000004333275520048955323_)" d="M126.75,88.05c0-1.98-1.42-3.96-3.16-4.42
				c-1.08-0.29-2.04,0.07-2.61,0.86l0,0v0c-0.1,0.14-13.03,22.65-13.03,22.65l3.39,8.62l14.86-25.84
				C126.55,89.43,126.76,88.79,126.75,88.05L126.75,88.05z"/>
			
				<linearGradient id="SVGID_00000020386639707855632470000005010005095132423823_" gradientUnits="userSpaceOnUse" x1="107.9525" y1="1609.1305" x2="126.7561" y2="1609.1305" gradientTransform="matrix(1 0 0 -1 0 1728)">
				<stop  offset="0" style="stop-color:#FF8279"/>
				<stop  offset="1" style="stop-color:#FFC7A0"/>
			</linearGradient>
			<path fill="url(#SVGID_00000020386639707855632470000005010005095132423823_)" d="M126.75,107.28c0-1.98-1.42-3.96-3.16-4.42
				c-1.08-0.29-2.04,0.07-2.61,0.86l0,0v0c-0.1,0.14-13.03,22.65-13.03,22.65l3.39,8.62l14.86-25.84
				C126.55,108.66,126.76,108.02,126.75,107.28L126.75,107.28z"/>
			<g>
				<g>
					<path fill="#FF8279" d="M203.92,137.47c-3.65,0-6.62-2.07-6.62-4.63v34.96c0,2.56,2.96,4.63,6.62,4.63
						c3.65,0,6.62-2.07,6.62-4.63v-34.96C210.54,135.39,207.58,137.47,203.92,137.47z"/>
					<ellipse fill="#FFC7A0" cx="203.92" cy="132.84" rx="6.62" ry="4.63"/>
				</g>
				<g>
					<path fill="#FF8279" d="M155.93,124.62c-3.65,0-6.62-2.07-6.62-4.63v34.96c0,2.56,2.96,4.63,6.62,4.63
						c3.65,0,6.62-2.07,6.62-4.63v-34.96C162.55,122.54,159.59,124.62,155.93,124.62z"/>
					<ellipse fill="#FFC7A0" cx="155.93" cy="119.99" rx="6.62" ry="4.63"/>
				</g>
			</g>
			<g>
				<path fill="none" d="M107.95,111.76c-3.65,0-6.62-2.07-6.62-4.63v34.96c0,2.56,2.96,4.63,6.62,4.63s6.62-2.07,6.62-4.63v-34.96
					C114.56,109.69,111.6,111.76,107.95,111.76z"/>
				<ellipse fill="none" cx="107.95" cy="107.13" rx="6.62" ry="4.63"/>
			</g>
			<g>
				<g>
					<g>
						<path fill="#FF8279" d="M307.1,54.36c-3.65,0-6.62-2.07-6.62-4.63v34.96c0,2.56,2.96,4.63,6.62,4.63
							c3.65,0,6.62-2.07,6.62-4.63V49.72C313.71,52.28,310.75,54.36,307.1,54.36z"/>
						<ellipse fill="#FFC7A0" cx="307.1" cy="49.72" rx="6.62" ry="4.63"/>
					</g>
					<g>
						<path fill="#FF8279" d="M259.09,41.49c-3.65,0-6.62-2.07-6.62-4.63v34.96c0,2.56,2.96,4.63,6.62,4.63
							c3.65,0,6.62-2.07,6.62-4.63V36.86C265.71,39.42,262.75,41.49,259.09,41.49L259.09,41.49z"/>
						<ellipse fill="#FFC7A0" cx="259.09" cy="36.86" rx="6.62" ry="4.63"/>
					</g>
					<g>
						<path fill="#FF8279" d="M211.09,28.63c-3.65,0-6.62-2.07-6.62-4.63v34.96c0,2.56,2.96,4.63,6.62,4.63
							c3.65,0,6.62-2.07,6.62-4.63V23.99C217.71,26.55,214.75,28.63,211.09,28.63L211.09,28.63z"/>
						<ellipse fill="#FFC7A0" cx="211.09" cy="24" rx="6.62" ry="4.63"/>
					</g>
				</g>
				<path fill="#FFC7A0" d="M168.4,25.71c-1.4-1.4-1.8-3.8-0.89-5.37c0.56-0.97,1.49-1.39,2.45-1.24l0,0h0.01
					c0.17,0.03,34.51,9.25,34.51,9.25v7.56l-34.37-9.27C169.52,26.54,168.93,26.24,168.4,25.71L168.4,25.71z"/>
				<path fill="#FFC7A0" d="M168.4,42.01c-1.4-1.4-1.8-3.8-0.89-5.37c0.56-0.97,1.49-1.39,2.45-1.24l0,0h0.01
					c0.17,0.03,34.51,9.25,34.51,9.25v7.56l-34.37-9.27C169.52,42.84,168.93,42.53,168.4,42.01L168.4,42.01z"/>
				<g>
					<path fill="#FFC7A0" d="M216.4,38.66c-1.4-1.4-1.8-3.8-0.89-5.37c0.56-0.97,1.49-1.39,2.45-1.24l0,0h0.01
						c0.17,0.03,34.51,9.25,34.51,9.25v7.56l-34.37-9.27C217.52,39.49,216.93,39.19,216.4,38.66L216.4,38.66z"/>
					<path fill="#FFC7A0" d="M216.4,54.96c-1.4-1.4-1.8-3.8-0.89-5.37c0.56-0.97,1.49-1.39,2.45-1.24l0,0h0.01
						c0.17,0.03,34.51,9.25,34.51,9.25v7.56l-34.37-9.27C217.52,55.79,216.93,55.48,216.4,54.96L216.4,54.96z"/>
				</g>
				<g>
					<path fill="#FFC7A0" d="M264.4,51.62c-1.4-1.4-1.8-3.8-0.89-5.37c0.56-0.97,1.49-1.39,2.45-1.24l0,0h0.01
						c0.17,0.03,34.51,9.25,34.51,9.25v7.56l-34.37-9.27C265.52,52.45,264.93,52.14,264.4,51.62L264.4,51.62z"/>
					<path fill="#FFC7A0" d="M264.4,67.91c-1.4-1.4-1.8-3.8-0.89-5.37c0.56-0.97,1.49-1.39,2.45-1.24l0,0h0.01
						c0.17,0.03,34.51,9.25,34.51,9.25v7.56l-34.37-9.27C265.52,68.74,264.93,68.43,264.4,67.91L264.4,67.91z"/>
				</g>
			</g>
			<g>
				<path fill="#FF8279" d="M203.91,137.46c-3.65,0-6.62-2.07-6.62-4.63v34.96c0,2.56,2.96,4.63,6.62,4.63
					c3.65,0,6.62-2.07,6.62-4.63v-34.96C210.53,135.38,207.56,137.46,203.91,137.46z"/>
				<ellipse fill="#FFC7A0" cx="203.91" cy="132.83" rx="6.62" ry="4.63"/>
			</g>
			<g>
				<path fill="#FF8279" d="M155.91,124.59c-3.65,0-6.62-2.07-6.62-4.63v34.96c0,2.56,2.96,4.63,6.62,4.63
					c3.65,0,6.62-2.07,6.62-4.63v-34.96C162.52,122.52,159.56,124.59,155.91,124.59z"/>
				<ellipse fill="#FFC7A0" cx="155.91" cy="119.96" rx="6.62" ry="4.63"/>
			</g>
			<g>
				<path fill="#FF8279" d="M107.9,111.73c-3.65,0-6.62-2.07-6.62-4.63v34.96c0,2.56,2.96,4.63,6.62,4.63s6.62-2.07,6.62-4.63V107.1
					C114.52,109.65,111.56,111.73,107.9,111.73z"/>
				<ellipse fill="#FFC7A0" cx="107.9" cy="107.1" rx="6.62" ry="4.63"/>
			</g>
			<g>
				<g>
					
						<linearGradient id="SVGID_00000038386451275837509050000006634282119357427894_" gradientUnits="userSpaceOnUse" x1="288.7618" y1="1654.214" x2="307.5655" y2="1654.214" gradientTransform="matrix(1 0 0 -1 0 1728)">
						<stop  offset="0" style="stop-color:#FF8279"/>
						<stop  offset="1" style="stop-color:#FFC7A0"/>
					</linearGradient>
					<path fill="url(#SVGID_00000038386451275837509050000006634282119357427894_)" d="M307.56,62.19c0-1.98-1.42-3.96-3.16-4.42
						c-1.08-0.29-2.04,0.07-2.61,0.86l0,0v0c-0.1,0.14-13.03,22.65-13.03,22.65l3.39,8.62l14.86-25.84
						C307.36,63.58,307.57,62.94,307.56,62.19L307.56,62.19z"/>
					
						<linearGradient id="SVGID_00000041265174093741396480000015562818148615966856_" gradientUnits="userSpaceOnUse" x1="288.7618" y1="1634.9829" x2="307.5655" y2="1634.9829" gradientTransform="matrix(1 0 0 -1 0 1728)">
						<stop  offset="0" style="stop-color:#FF8279"/>
						<stop  offset="1" style="stop-color:#FFC7A0"/>
					</linearGradient>
					<path fill="url(#SVGID_00000041265174093741396480000015562818148615966856_)" d="M307.56,81.42c0-1.98-1.42-3.96-3.16-4.42
						c-1.08-0.29-2.04,0.07-2.61,0.86l0,0v0c-0.1,0.14-13.03,22.65-13.03,22.65l3.39,8.62l14.86-25.84
						C307.36,82.81,307.57,82.17,307.56,81.42L307.56,81.42z"/>
				</g>
				<g>
					<path fill="#FF8279" d="M288.76,85.91c-3.65,0-6.62-2.07-6.62-4.63v34.96c0,2.56,2.96,4.63,6.62,4.63s6.62-2.07,6.62-4.63
						V81.28C295.37,83.84,292.41,85.91,288.76,85.91L288.76,85.91z"/>
					<ellipse fill="#FFC7A0" cx="288.76" cy="81.28" rx="6.62" ry="4.63"/>
				</g>
				<g>
					
						<linearGradient id="SVGID_00000121273717699936748190000013077787763645952910_" gradientUnits="userSpaceOnUse" x1="270.338" y1="1602.4988" x2="289.1417" y2="1602.4988" gradientTransform="matrix(1 0 0 -1 0 1728)">
						<stop  offset="0" style="stop-color:#FF8279"/>
						<stop  offset="1" style="stop-color:#FFC7A0"/>
					</linearGradient>
					<path fill="url(#SVGID_00000121273717699936748190000013077787763645952910_)" d="M289.14,113.91c0-1.98-1.42-3.96-3.16-4.42
						c-1.08-0.29-2.04,0.07-2.61,0.86l0,0v0c-0.1,0.14-13.03,22.65-13.03,22.65l3.39,8.62l14.86-25.84
						C288.94,115.29,289.14,114.66,289.14,113.91L289.14,113.91z"/>
					
						<linearGradient id="SVGID_00000023974261908493867580000005510704744255757494_" gradientUnits="userSpaceOnUse" x1="270.338" y1="1621.7327" x2="289.1417" y2="1621.7327" gradientTransform="matrix(1 0 0 -1 0 1728)">
						<stop  offset="0" style="stop-color:#FF8279"/>
						<stop  offset="1" style="stop-color:#FFC7A0"/>
					</linearGradient>
					<path fill="url(#SVGID_00000023974261908493867580000005510704744255757494_)" d="M289.14,94.68c0-1.98-1.42-3.96-3.16-4.42
						c-1.08-0.29-2.04,0.07-2.61,0.86l0,0v0c-0.1,0.14-13.03,22.65-13.03,22.65l3.39,8.62l14.86-25.84
						C288.94,96.06,289.14,95.42,289.14,94.68L289.14,94.68z"/>
				</g>
				<g>
					<path fill="#FF8279" d="M270.33,118.39c-3.65,0-6.62-2.07-6.62-4.63v34.96c0,2.56,2.96,4.63,6.62,4.63
						c3.65,0,6.62-2.07,6.62-4.63v-34.96C276.95,116.32,273.99,118.39,270.33,118.39z"/>
					<ellipse fill="#FFC7A0" cx="270.33" cy="113.76" rx="6.62" ry="4.63"/>
				</g>
				
					<linearGradient id="SVGID_00000114783115680449459250000006336053601311686058_" gradientUnits="userSpaceOnUse" x1="251.9567" y1="1589.7692" x2="270.7603" y2="1589.7692" gradientTransform="matrix(1 0 0 -1 0 1728)">
					<stop  offset="0" style="stop-color:#FF8279"/>
					<stop  offset="1" style="stop-color:#FFC7A0"/>
				</linearGradient>
				<path fill="url(#SVGID_00000114783115680449459250000006336053601311686058_)" d="M270.76,126.64c0-1.98-1.42-3.96-3.16-4.42
					c-1.08-0.29-2.04,0.07-2.61,0.86l0,0v0c-0.1,0.14-13.03,22.65-13.03,22.65l3.39,8.62l14.86-25.84
					C270.56,128.02,270.76,127.38,270.76,126.64L270.76,126.64z"/>
				
					<linearGradient id="SVGID_00000153678689512987216840000002102459533904395393_" gradientUnits="userSpaceOnUse" x1="251.9567" y1="1570.538" x2="270.7603" y2="1570.538" gradientTransform="matrix(1 0 0 -1 0 1728)">
					<stop  offset="0" style="stop-color:#FF8279"/>
					<stop  offset="1" style="stop-color:#FFC7A0"/>
				</linearGradient>
				<path fill="url(#SVGID_00000153678689512987216840000002102459533904395393_)" d="M270.76,145.87c0-1.98-1.42-3.96-3.16-4.42
					c-1.08-0.29-2.04,0.07-2.61,0.86l0,0v0c-0.1,0.14-13.03,22.65-13.03,22.65l3.39,8.62l14.86-25.84
					C270.56,147.25,270.76,146.62,270.76,145.87L270.76,145.87z"/>
				<g>
					<path fill="#FF8279" d="M251.91,150.32c-3.65,0-6.62-2.07-6.62-4.63v34.96c0,2.56,2.96,4.63,6.62,4.63
						c3.65,0,6.62-2.07,6.62-4.63v-34.96C258.53,148.25,255.57,150.32,251.91,150.32z"/>
					<ellipse fill="#FFC7A0" cx="251.91" cy="145.69" rx="6.62" ry="4.63"/>
				</g>
			</g>
			<path fill="#FFC7A0" d="M113.22,121.68c-1.4-1.4-1.8-3.8-0.89-5.37c0.56-0.97,1.49-1.39,2.45-1.24l0,0h0.01
				c0.17,0.03,34.51,9.25,34.51,9.25v7.56l-34.37-9.27C114.33,122.51,113.74,122.2,113.22,121.68L113.22,121.68z"/>
			<path fill="#FFC7A0" d="M113.22,137.97c-1.4-1.4-1.8-3.8-0.89-5.37c0.56-0.97,1.49-1.39,2.45-1.24l0,0h0.01
				c0.17,0.03,34.51,9.25,34.51,9.25v7.56l-34.37-9.27C114.33,138.81,113.74,138.5,113.22,137.97L113.22,137.97z"/>
			<g>
				<path fill="#FFC7A0" d="M209.22,147.58c-1.4-1.4-1.8-3.8-0.89-5.37c0.56-0.97,1.49-1.39,2.45-1.24l0,0h0.01
					c0.17,0.03,34.51,9.25,34.51,9.25v7.56l-34.37-9.27C210.34,148.41,209.75,148.1,209.22,147.58L209.22,147.58z"/>
				<path fill="#FFC7A0" d="M209.22,163.87c-1.4-1.4-1.8-3.8-0.89-5.37c0.56-0.97,1.49-1.39,2.45-1.24l0,0h0.01
					c0.17,0.03,34.51,9.25,34.51,9.25v7.56l-34.37-9.27C210.34,164.71,209.75,164.4,209.22,163.87L209.22,163.87z"/>
			</g>
			<polygon fill="#FF8279" points="127.05,177.51 123.58,175.57 150.21,131.54 153.68,133.49 			"/>
			
				<linearGradient id="SVGID_00000110448074615320317420000017434099076506781350_" gradientUnits="userSpaceOnUse" x1="132.2815" y1="2677.6931" x2="159.1722" y2="2677.6931" gradientTransform="matrix(1.0008 -0.1969 0.0004738146 -0.9989 -6.6588 2847.9697)">
				<stop  offset="0" style="stop-color:#FF8279"/>
				<stop  offset="1" style="stop-color:#FFC7A0"/>
			</linearGradient>
			<path fill="url(#SVGID_00000110448074615320317420000017434099076506781350_)" d="M153.57,133.99c0.83-1.96,0.37-4.26-1.02-5.14
				c-0.86-0.55-1.88-0.42-2.72,0.22l0,0l0,0c-0.15,0.11-22.73,23.27-22.73,23.27v8.87l25.2-25.5
				C152.81,135.3,153.26,134.72,153.57,133.99L153.57,133.99z"/>
			
				<linearGradient id="SVGID_00000166633550609462989400000010935276043305499793_" gradientUnits="userSpaceOnUse" x1="132.2815" y1="2660.6536" x2="159.1722" y2="2660.6536" gradientTransform="matrix(1.0008 -0.1969 0.0004738146 -0.9989 -6.6588 2847.9697)">
				<stop  offset="0" style="stop-color:#FF8279"/>
				<stop  offset="1" style="stop-color:#FFC7A0"/>
			</linearGradient>
			<path fill="url(#SVGID_00000166633550609462989400000010935276043305499793_)" d="M153.57,151.01c0.83-1.96,0.37-4.26-1.02-5.14
				c-0.86-0.55-1.88-0.42-2.72,0.22l0,0l0,0c-0.15,0.11-22.73,23.27-22.73,23.27v8.87l25.2-25.5
				C152.81,152.32,153.26,151.74,153.57,151.01L153.57,151.01z"/>
			<g>
				<path fill="#FF8279" d="M123.02,152.32c-3.65,0-6.62-2.07-6.62-4.63v34.55c0,2.56,2.96,4.63,6.62,4.63s6.62-2.07,6.62-4.63
					v-34.55C129.64,150.25,126.67,152.32,123.02,152.32L123.02,152.32z"/>
				<ellipse fill="#FFC7A0" cx="123.02" cy="147.69" rx="6.62" ry="4.63"/>
			</g>
		</g>
	</g>
	<g id="Sheep_00000035503884870515044120000017963910618687084465_">
		<g>
			<g>
				<path fill="#004582" d="M203.05,194.02c0.63,7.26,0.75,10.21,5,10.66c4.24,0.46,5.4-1.31,3.39-4.61
					c-2.01-3.3-1.17-3.93-1.41-6.66L203.05,194.02L203.05,194.02z"/>
				<g>
					<path d="M210.86,204.56c-0.12-1.89-0.8-3.04-1.3-3.65c0.24-0.04,0.49-0.09,0.73-0.16c0.18-0.05,0.29-0.24,0.23-0.42
						s-0.24-0.29-0.42-0.23c-1.17,0.33-2.63,0.23-2.65,0.23c-0.19-0.02-0.35,0.13-0.37,0.32c-0.01,0.19,0.13,0.35,0.32,0.37
						c0.02,0,0.26,0.02,0.62,0.02c0.2,0,0.43-0.01,0.69-0.02c0.32,0.27,1.35,1.35,1.47,3.69
						C210.42,204.67,210.65,204.62,210.86,204.56L210.86,204.56z"/>
				</g>
			</g>
			<g>
				<path fill="#004582" d="M192.31,197.77c0.63,7.26,0.75,10.21,5,10.66c4.24,0.46,5.4-1.31,3.39-4.61
					c-2.01-3.3-1.17-3.93-1.41-6.66L192.31,197.77L192.31,197.77z"/>
				<g>
					<path d="M200.12,208.31c-0.12-1.89-0.8-3.04-1.3-3.65c0.24-0.04,0.49-0.09,0.73-0.16c0.18-0.05,0.29-0.24,0.23-0.42
						c-0.05-0.18-0.24-0.29-0.42-0.23c-1.17,0.33-2.63,0.23-2.65,0.23c-0.19-0.02-0.35,0.13-0.37,0.32
						c-0.01,0.19,0.13,0.35,0.32,0.37c0.02,0,0.26,0.02,0.62,0.02c0.2,0,0.43-0.01,0.69-0.02c0.32,0.27,1.35,1.35,1.47,3.69
						C199.69,208.42,199.92,208.37,200.12,208.31L200.12,208.31z"/>
				</g>
			</g>
			<g>
				<path fill="#004582" d="M181.53,186.42c0.63,7.26,0.75,10.21,5,10.66c4.24,0.46,5.4-1.31,3.39-4.61
					c-2.01-3.3-1.17-3.93-1.41-6.66L181.53,186.42L181.53,186.42z"/>
				<g>
					<path d="M189.34,196.96c-0.12-1.89-0.8-3.04-1.3-3.65c0.24-0.04,0.49-0.09,0.73-0.16c0.18-0.05,0.29-0.24,0.23-0.42
						c-0.05-0.18-0.24-0.29-0.42-0.23c-1.17,0.33-2.63,0.23-2.65,0.23c-0.19-0.02-0.35,0.13-0.37,0.32
						c-0.01,0.19,0.13,0.35,0.32,0.37c0.02,0,0.26,0.02,0.62,0.02c0.2,0,0.43-0.01,0.69-0.02c0.32,0.27,1.35,1.35,1.47,3.69
						C188.9,197.07,189.13,197.02,189.34,196.96L189.34,196.96z"/>
				</g>
			</g>
			<g>
				<path fill="#004582" d="M170.28,188c0.63,7.26,0.75,10.21,5,10.66c4.24,0.46,5.4-1.31,3.39-4.61c-2.01-3.3-1.17-3.93-1.41-6.66
					L170.28,188L170.28,188z"/>
				<g>
					<path d="M178.09,198.54c-0.12-1.89-0.8-3.04-1.3-3.65c0.24-0.04,0.49-0.09,0.73-0.16c0.18-0.05,0.29-0.24,0.23-0.42
						s-0.24-0.29-0.42-0.23c-1.17,0.33-2.63,0.23-2.65,0.23c-0.19-0.02-0.35,0.13-0.37,0.32c-0.01,0.19,0.13,0.35,0.32,0.37
						c0.02,0,0.26,0.02,0.62,0.02c0.2,0,0.43-0.01,0.69-0.02c0.32,0.27,1.35,1.35,1.47,3.69
						C177.66,198.65,177.89,198.6,178.09,198.54L178.09,198.54z"/>
				</g>
			</g>
			<path fill="#E1DAB6" d="M223.31,168.2c-2.08-1.39-5.12-2.43-7.29-8.94c0.31-0.63,0.46-1.36,0.41-2.12
				c-0.14-2.1-1.85-3.8-3.95-3.93c-0.92-0.06-1.79,0.19-2.5,0.64c-0.74-1.23-2.08-2.06-3.63-2.06c-1.63,0-3.04,0.92-3.74,2.27
				c-0.38,0.72-1.11,1.18-1.93,1.16c-0.04,0-0.08,0-0.12,0c-2.33,0-4.22,1.89-4.22,4.22c0,0.24,0.02,0.48,0.06,0.71
				c-0.69,0.32-1.27,0.82-1.69,1.44c-0.49-1.26-1.71-2.15-3.14-2.15c-0.07,0-0.14,0-0.22,0.01c-0.52,0.03-1.03-0.16-1.44-0.48
				c-0.57-0.44-1.28-0.7-2.05-0.7c-1.37,0-2.54,0.82-3.07,1.99c-0.9-0.81-2.08-1.3-3.38-1.3c-0.95,0-1.83,0.26-2.58,0.71
				c-0.58,0.35-1.29,0.42-1.94,0.21c-0.45-0.15-0.95-0.2-1.46-0.14c-1.5,0.18-2.71,1.38-2.91,2.87c0,0.01,0,0.02-0.01,0.03
				c-0.1,0.8-0.49,1.54-1.13,2.03c-0.79,0.62-1.3,1.57-1.3,2.66c0,0.03,0,0.06,0,0.09c0.02,0.69-0.31,1.34-0.87,1.76
				c-1,0.75-1.64,1.95-1.64,3.3c0,0.01,0,0.02,0,0.03c-2.04,0.25-3.62,1.99-3.62,4.11c0,2.29,1.85,4.14,4.14,4.14
				c0.1,0,0.19-0.01,0.28-0.01c-0.18,0.41-0.28,0.87-0.28,1.34c0,0.59,0.15,1.15,0.42,1.63c0.29,0.53,0.47,1.12,0.47,1.72v0.01
				c0,3.07,2.49,5.56,5.56,5.56c1.31,0,2.52-0.46,3.47-1.22c0.5,1.23,1.71,2.1,3.12,2.1c0.69,0,1.32-0.2,1.85-0.56
				c0.62-0.41,1.41-0.52,2.1-0.24c0.57,0.23,1.18,0.35,1.83,0.35c0.59,0,1.16-0.1,1.69-0.29c-0.03,0.24-0.05,0.49-0.05,0.74
				c0,1.41,0.54,2.7,1.42,3.66c0.42,0.46,0.75,1,0.95,1.59c0.78,2.33,2.97,4.01,5.56,4.01c2.45,0,4.55-1.51,5.43-3.65
				c0.56,0.42,1.26,0.67,2.01,0.67c1.08,0,2.04-0.51,2.66-1.3c0.33-0.43,0.83-0.68,1.38-0.73c0.06-0.01,0.13-0.01,0.19-0.02
				c1.47-0.2,2.65-1.37,2.87-2.83c0-0.01,0-0.02,0.01-0.03c0.1-0.75,0.57-1.41,1.28-1.68c1.86-0.7,3.18-2.49,3.18-4.59
				c0-0.82-0.2-1.58-0.55-2.26c1.35-0.61,2.37-1.82,2.74-3.28c0.16-0.63,0.56-1.16,1.11-1.52c1.13-0.74,1.88-2.01,1.88-3.46
				c0-0.15-0.01-0.29-0.02-0.44C226.73,174.35,225.5,169.66,223.31,168.2L223.31,168.2z"/>
			<path fill="#004582" d="M223.31,168.2c-2.08-1.39-5.12-2.43-7.29-8.94c-1.01,1.87-3.27,1.39-4.34,3.14
				c-1.07,1.75-2.3,2.47-3.53,2.06c-1.23-0.41-2.44-0.56-3.16,0.55c1.51,10.74,8.73,12.6,11.13,12.6c2.4,0,3.9-1.41,3.9-1.41
				C226.81,174.65,225.58,169.71,223.31,168.2L223.31,168.2z"/>
			<path fill="#004582" d="M199.09,163.77c-0.89,2.54-2.42,5.13-3.62,7.71c-1.2,2.57,1.72,5.8,6.9,1.51
				c5.18-4.29,2.62-7.98,2.62-7.98C200.91,166.42,201.46,162.95,199.09,163.77L199.09,163.77z"/>
			
				<linearGradient id="SVGID_00000023272635291717331580000017072208773530400641_" gradientUnits="userSpaceOnUse" x1="219.5422" y1="1552.9351" x2="215.1653" y2="1551.8408" gradientTransform="matrix(1 0 0 -1 0 1728)">
				<stop  offset="0" style="stop-color:#000000"/>
				<stop  offset="1" style="stop-color:#004582"/>
			</linearGradient>
			<path fill="url(#SVGID_00000023272635291717331580000017072208773530400641_)" d="M212.35,174.99v1.67
				c1.54,0.73,2.94,0.95,3.77,0.95c2.4,0,3.9-1.41,3.9-1.41C216.26,177.13,212.35,174.99,212.35,174.99z"/>
			<path d="M222.82,175.14c0.15-1.18-0.07-1.96-0.21-2.31c0.34-0.44,0.4-1.06,0.25-1.59c-0.11-0.41-0.73-0.24-0.61,0.17
				c0.11,0.37,0.04,0.82-0.22,1.1c-0.45,0.15-0.95-0.06-1.28-0.38c-0.14-0.14-0.37-0.13-0.5,0.02c-0.28,0.35,0.19,0.63,0.46,0.8
				c0.39,0.23,0.86,0.33,1.3,0.24c0.12,0.36,0.28,1.14,0.05,2.33C222.33,175.41,222.59,175.28,222.82,175.14L222.82,175.14z"/>
		</g>
	</g>
</g>
</svg>
