<svg xmlns="http://www.w3.org/2000/svg" width="120" height="120" viewBox="0 0 120 120"><linearGradient id="a" gradientUnits="userSpaceOnUse" x1="24.468" y1="101.75" x2="56.468" y2="101.75"><stop offset="0" style="stop-color:#FFFFFF"/><stop offset="1" style="stop-color:#979DA5"/></linearGradient><path opacity=".8" fill="url(#a)" d="M17 100.5h32v2.5H17z"/><path fill="#979DA5" d="M51.5 103h-3V19.5c0-.828.672-1.5 1.5-1.5s1.5.672 1.5 1.5V103z"/><circle fill="#4285F4" cx="50" cy="39" r="16.5"/><linearGradient id="b" gradientUnits="userSpaceOnUse" x1="50" y1="70.8455" x2="50" y2="44.9706"><stop offset="0" style="stop-color:#012754"/><stop offset=".1041" style="stop-color:#103D79"/><stop offset=".2313" style="stop-color:#1F539E"/><stop offset=".3642" style="stop-color:#2C65BD"/><stop offset=".5025" style="stop-color:#3673D6"/><stop offset=".6482" style="stop-color:#3D7DE7"/><stop offset=".8064" style="stop-color:#4183F1"/><stop offset="1" style="stop-color:#4285F4"/></linearGradient><circle fill="url(#b)" cx="50" cy="39" r="16.5"/><path fill="none" stroke="#FFF" stroke-width=".8" stroke-linecap="round" stroke-linejoin="round" stroke-miterlimit="10" d="M56.494 45.246h-12.99c-.55 0-1-.45-1-1v-11.99c0-1.1.9-2 2-2h10.99c1.1 0 2 .9 2 2v11.99c0 .55-.45 1-1 1zM45.252 47.744h-.498c-.552 0-1-.448-1-1v-1.498h2.498v1.498c0 .552-.448 1-1 1zM55.245 47.744h-.498c-.552 0-1-.448-1-1v-1.498h2.498v1.498c0 .552-.448 1-1 1zM42.504 39h14.99"/><circle fill="#FFF" cx="46.252" cy="42.123" r="1.05"/><circle fill="#FFF" cx="53.746" cy="42.123" r="1.05"/><path fill="none" stroke="#FFF" stroke-width=".8" stroke-linecap="round" stroke-linejoin="round" stroke-miterlimit="10" d="M42.65 32.754h14.7"/><g><path fill="#FABB05" d="M75.714 94.761l.001.006c.061.277-.333.402-.442.139l-1.012-2.436c-.184-.444-.685-.695-1.17-.538-.47.152-.732.656-.625 1.138l.191.865c.06.27-.312.405-.44.16l-.4-.767c-.193-.368-.614-.588-1.053-.494-.495.106-.811.594-.745 1.096l.105.8-1.644-.787c-.233-.111-.52-.015-.633.228-.106.228.001.5.22.623l1.565.882-.745.388c-.368.193-.588.614-.494 1.053.106.495.594.811 1.096.745l.825-.108c.274-.036.376.346.121.452l-.848.352c-.444.184-.694.685-.538 1.17.152.47.656.732 1.138.625l2.544-.562c.277-.061.402.333.139.442l-.036.015c-.444.184-.694.685-.538 1.17.152.47.656.732 1.138.625l5.208-1.151c.053-.012.108-.029.163-.049l1.594.898c.017.01.038.02.056.029.49.234 1.081.01 1.286-.502.188-.467-.045-1-.499-1.217l-1.621-.776c-.015-.054-.032-.108-.054-.161l-2.059-4.955c-.184-.444-.685-.695-1.17-.538-.469.153-.731.657-.624 1.14z"/><linearGradient id="c" gradientUnits="userSpaceOnUse" x1="965.5557" y1="-494.9381" x2="965.5557" y2="-508.9381" gradientTransform="rotate(-90 819.6384 242.8939)"><stop offset="0" style="stop-color:#F08A34"/><stop offset="1" style="stop-color:#FABB05"/></linearGradient><path fill="url(#c)" d="M75.714 94.761l.001.006c.061.277-.333.402-.442.139l-1.012-2.436c-.184-.444-.685-.695-1.17-.538-.47.152-.732.656-.625 1.138l.191.865c.06.27-.312.405-.44.16l-.4-.767c-.193-.368-.614-.588-1.053-.494-.495.106-.811.594-.745 1.096l.105.8-1.644-.787c-.233-.111-.52-.015-.633.228-.106.228.001.5.22.623l1.565.882-.745.388c-.368.193-.588.614-.494 1.053.106.495.594.811 1.096.745l.825-.108c.274-.036.376.346.121.452l-.848.352c-.444.184-.694.685-.538 1.17.152.47.656.732 1.138.625l2.544-.562c.277-.061.402.333.139.442l-.036.015c-.444.184-.694.685-.538 1.17.152.47.656.732 1.138.625l5.208-1.151c.053-.012.108-.029.163-.049l1.594.898c.017.01.038.02.056.029.49.234 1.081.01 1.286-.502.188-.467-.045-1-.499-1.217l-1.621-.776c-.015-.054-.032-.108-.054-.161l-2.059-4.955c-.184-.444-.685-.695-1.17-.538-.469.153-.731.657-.624 1.14z"/><g fill="none" stroke="#D37C09" stroke-width=".2" stroke-linecap="round" stroke-linejoin="round" stroke-miterlimit="10"><path d="M68.682 94.581l12.153 6.324M71.017 93.932l.703 2.23-2.23.703M73.561 93.392l1.407 4.46-4.46 1.407M76.809 95.082l1.407 4.46-4.46 1.407"/></g></g><g><path fill="#FABB05" d="M26.65 100.376l-.004-.003c-.189-.12-.038-.41.169-.324l1.922.794c.35.145.769.005.952-.352.177-.347.042-.773-.286-.983l-.589-.376c-.183-.117-.052-.4.156-.335l.65.205c.312.098.67-.015.862-.311.217-.334.121-.783-.195-1.026l-.505-.387 1.355-.478c.192-.068.298-.282.226-.48-.068-.186-.279-.278-.47-.225l-1.364.381.199-.632c.098-.312-.015-.67-.311-.862-.334-.217-.783-.121-1.026.195l-.399.52c-.132.173-.403.017-.32-.184l.276-.669c.145-.35.005-.769-.352-.952-.347-.178-.773-.042-.983.286l-1.105 1.731c-.12.189-.41.038-.324-.169l.012-.028c.145-.35.005-.769-.352-.952-.347-.178-.773-.042-.983.286L21.6 98.59c-.023.036-.044.077-.063.118l-1.389.388c-.015.004-.032.01-.047.015-.404.142-.608.597-.437.997.156.365.582.532.957.4l1.336-.471c.038.022.078.043.12.06l3.909 1.614c.35.145.769.005.952-.352.175-.347.04-.774-.288-.983z"/><linearGradient id="d" gradientUnits="userSpaceOnUse" x1="1609.9218" y1="-149.9922" x2="1609.9218" y2="-161.0281" gradientTransform="rotate(45 511.12097 -1940.512)"><stop offset="0" style="stop-color:#F08A34"/><stop offset="1" style="stop-color:#FABB05"/></linearGradient><path fill="url(#d)" d="M26.65 100.376l-.004-.003c-.189-.12-.038-.41.169-.324l1.922.794c.35.145.769.005.952-.352.177-.347.042-.773-.286-.983l-.589-.376c-.183-.117-.052-.4.156-.335l.65.205c.312.098.67-.015.862-.311.217-.334.121-.783-.195-1.026l-.505-.387 1.355-.478c.192-.068.298-.282.226-.48-.068-.186-.279-.278-.47-.225l-1.364.381.199-.632c.098-.312-.015-.67-.311-.862-.334-.217-.783-.121-1.026.195l-.399.52c-.132.173-.403.017-.32-.184l.276-.669c.145-.35.005-.769-.352-.952-.347-.178-.773-.042-.983.286l-1.105 1.731c-.12.189-.41.038-.324-.169l.012-.028c.145-.35.005-.769-.352-.952-.347-.178-.773-.042-.983.286L21.6 98.59c-.023.036-.044.077-.063.118l-1.389.388c-.015.004-.032.01-.047.015-.404.142-.608.597-.437.997.156.365.582.532.957.4l1.336-.471c.038.022.078.043.12.06l3.909 1.614c.35.145.769.005.952-.352.175-.347.04-.774-.288-.983z"/><g fill="none" stroke="#D37C09" stroke-width=".2" stroke-linecap="round" stroke-linejoin="round" stroke-miterlimit="10"><path d="M30.669 96.556l-10.299 3.25M29.73 98.219l-1.635-.85.85-1.635M28.613 99.939l-3.271-1.702 1.702-3.27M25.86 100.807l-3.27-1.702 1.702-3.27"/></g></g><g><path fill="#FABB05" d="M61.766 103.502h-4.6c-1.196 0-2.166-.97-2.166-2.166v-.001c0-1.196.97-2.166 2.166-2.166h.266c2.394 0 4.334 1.94 4.334 4.333z"/><linearGradient id="e" gradientUnits="userSpaceOnUse" x1="-5513.9307" y1="5909.4819" x2="-5509.2773" y2="5914.1348" gradientTransform="translate(5570.3774 -5809.4385)"><stop offset="0" style="stop-color:#F09934"/><stop offset="1" style="stop-color:#FABB05"/></linearGradient><path fill="url(#e)" d="M61.766 103.511h-4.6c-1.196 0-2.166-.97-2.166-2.166v-.001c0-1.196.97-2.166 2.166-2.166h.266c2.394 0 4.334 1.94 4.334 4.333z"/></g><g><linearGradient id="f" gradientUnits="userSpaceOnUse" x1="99.7659" y1="101.3446" x2="93" y2="101.3446"><stop offset="0" style="stop-color:#F0C134"/><stop offset="1" style="stop-color:#FABB05"/></linearGradient><path fill="url(#f)" d="M93 99.178h4.6c1.196 0 2.166.97 2.166 2.166v.001c0 1.196-.97 2.166-2.166 2.166h-.266c-2.394 0-4.334-1.94-4.334-4.333z"/></g><g><linearGradient id="g" gradientUnits="userSpaceOnUse" x1="99.7659" y1="101.3446" x2="93" y2="101.3446"><stop offset="0" style="stop-color:#F0A334"/><stop offset="1" style="stop-color:#FABB05"/></linearGradient><path fill="url(#g)" d="M93 99.178h4.6c1.196 0 2.166.97 2.166 2.166v.001c0 1.196-.97 2.166-2.166 2.166h-.266c-2.394 0-4.334-1.94-4.334-4.333z"/></g></svg>