<?xml version="1.0" encoding="utf-8"?>
<!-- Generator: Adobe Illustrator 30.0.0, SVG Export Plug-In . SVG Version: 9.03 Build 0)  -->
<svg version="1.1" baseProfile="basic" id="Layer_1"
	 xmlns="http://www.w3.org/2000/svg" xmlns:xlink="http://www.w3.org/1999/xlink" x="0px" y="0px" width="360px" height="180px"
	 viewBox="0 0 360 180" xml:space="preserve">
<g>
	<g id="Clouds_00000134930445699310106710000012699325654688023228_">
		<path fill="#DDF0CE" d="M256.03,132.97c-1.61-0.15-3.16,0.05-4.59,0.52l0,0c-4.67,1.54-9.71-0.95-11.32-5.59
			c-2.73-8.47-10.68-14.59-20.05-14.59c-10,0-18.38,6.97-20.53,16.32c-0.57,2.47-2.22,4.58-4.56,5.55c-2.37,0.98-4.31,2.8-5.44,5.09
			v5.64v3.63c1.66,3.36,5.05,5.74,9,5.91c0.27,0.01,56.02,0,56.02,0c0.14,0,0.28,0.01,0.42,0.01c6.37,0,11.5-5.28,11.26-11.7
			C266.03,138.14,261.63,133.48,256.03,132.97z"/>
	</g>
	<g id="Bell_00000084489611002785889380000007964874725816618150_">
		<g>
			<path fill="#FBBC04" d="M206.34,36.86c-3.63-1.64-7.73-0.76-8.94,1.92c-1.21,2.68,0.83,6.34,4.46,7.99
				c3.63,1.64,7.73,0.76,8.94-1.92C212.01,42.16,209.97,38.51,206.34,36.86 M209.02,30.93c6.98,3.16,10.43,10.59,7.71,16.6
				c-2.72,6.01-10.58,8.33-17.56,5.17c-6.98-3.16-10.43-10.59-7.71-16.6C194.18,30.09,202.04,27.78,209.02,30.93L209.02,30.93z"/>
			<path fill="#FDDB00" d="M215.48,143.12L215.48,143.12c-6.02-10.7-5.56-23.86,1.17-34.11c1.19-1.78,2.25-3.68,3.16-5.7
				c9.03-19.96,0.17-43.45-19.79-52.48h0h0c-19.96-9.03-43.45-0.17-52.48,19.79c-0.91,2.02-1.64,4.07-2.19,6.14
				c-3.26,11.83-12.84,20.85-24.85,23.4v0c-6.33,1.34-11.95,5.57-14.82,11.92c-4.79,10.59-0.09,23.07,10.5,27.86l72.27,32.7
				c10.59,4.79,23.07,0.09,27.86-10.5C219.18,155.77,218.64,148.76,215.48,143.12z"/>
			
				<ellipse transform="matrix(0.4122 -0.9111 0.9111 0.4122 -42.3165 229.0683)" fill="#15173D" cx="156.37" cy="147.33" rx="15.25" ry="55.49"/>
			
				<linearGradient id="SVGID_1_" gradientUnits="userSpaceOnUse" x1="7521.5449" y1="-6875.3076" x2="7569.1963" y2="-6957.8418" gradientTransform="matrix(-0.9973 0.0733 -0.0733 -0.9973 7175.5005 -7305.6533)">
				<stop  offset="0" style="stop-color:#F29900"/>
				<stop  offset="1" style="stop-color:#FDDB00"/>
			</linearGradient>
			<path fill="url(#SVGID_1_)" d="M172.92,138.36c-6.33-3.24-14.13-6.77-20.75-9.38c-14.86,7.09-26.38,34.64-7.12,43.37
				C164.32,181.04,177.4,154.21,172.92,138.36z"/>
		</g>
		<g>
			<path fill="#64BEFF" d="M139.44,53.15l-3.01-1.78c-2.38-1.4-3.01-4.55-1.38-6.77c5.49-7.45,12.81-13.08,21.24-16.32
				c2.58-0.99,5.46,0.49,6.16,3.17l0.89,3.39c0.6,2.28-0.6,4.65-2.79,5.51c-5.97,2.34-11.07,6.28-15.03,11.6
				C144.1,53.85,141.48,54.36,139.44,53.15z"/>
			<g>
				<path fill="#64BEFF" d="M120.78,47.88l-4.31-2.14c-2.43-1.21-3.33-4.24-1.92-6.57c4.26-7.03,9.61-13.56,16.23-18.84
					c8.07-6.43,17.42-10.69,27.15-13.11c2.62-0.65,5.24,1.06,5.7,3.72l0.82,4.72c0.42,2.39-1.07,4.69-3.42,5.3
					c-14.23,3.68-26.53,12.78-34.24,25.19C125.54,48.21,122.93,48.95,120.78,47.88z"/>
			</g>
		</g>
	</g>
	<g id="Badges_00000148644464994920215960000012663156290685342378_">
		<g>
			<path fill="#4285F4" d="M130.03,96.21l-0.13,9.45c-0.02,1.37-1.69,2.02-2.64,1.03L116.8,95.7L130.03,96.21z"/>
			<path fill-rule="evenodd" clip-rule="evenodd" fill="#4285F4" d="M139.64,66.68h-30.59c-8.45,0-15.3,6.85-15.3,15.3
				s6.85,15.3,15.3,15.3l0,0h30.59c8.45,0,15.3-6.85,15.3-15.3S148.09,66.68,139.64,66.68z"/>
			<g>
				<ellipse fill="#FFFFFF" cx="109.05" cy="81.99" rx="5.84" ry="5.84"/>
				<ellipse fill="#FFFFFF" cx="124.34" cy="81.99" rx="5.84" ry="5.84"/>
				<ellipse fill="#FFFFFF" cx="139.63" cy="81.99" rx="5.84" ry="5.84"/>
			</g>
		</g>
		<g>
			<circle fill-rule="evenodd" clip-rule="evenodd" fill="#4285F4" cx="243.21" cy="23.65" r="18.15"/>
			<g>
				<path fill="#FFFFFF" d="M240.71,34.87l-9.57-9.57c-0.91-0.91-0.91-2.38,0-3.29c0.91-0.91,2.38-0.91,3.29,0l6.28,6.28L252.4,16.6
					c0.91-0.91,2.38-0.91,3.29,0c0.91,0.91,0.91,2.38,0,3.29L240.71,34.87z"/>
			</g>
		</g>
	</g>
	<g id="Stars_00000161594268645133194940000003804298376054426554_">
		<path fill="#FBBC04" d="M255.07,90.19l2.9,6.92l7.47,0.62c0.73,0.06,1.03,0.97,0.47,1.45l-5.69,4.89l1.72,7.3
			c0.17,0.71-0.6,1.27-1.23,0.9l-6.41-3.89l-6.41,3.89c-0.63,0.38-1.4-0.18-1.23-0.9l1.72-7.3l-5.69-4.89
			c-0.56-0.48-0.26-1.39,0.47-1.45l7.47-0.62l2.9-6.92C253.83,89.51,254.79,89.51,255.07,90.19z"/>
		<path fill="#FBBC04" d="M240.84,71.08l2.26,5.4l5.84,0.48c0.73,0.06,1.03,0.97,0.47,1.45l-4.44,3.82l1.35,5.7
			c0.17,0.71-0.6,1.27-1.23,0.9l-5.01-3.04l-5.01,3.04c-0.63,0.38-1.4-0.18-1.23-0.9l1.35-5.7l-4.44-3.82
			c-0.56-0.48-0.26-1.39,0.47-1.45l5.84-0.48l2.26-5.4C239.6,70.4,240.56,70.4,240.84,71.08z"/>
	</g>
</g>
</svg>
