<?xml version="1.0" encoding="UTF-8"?>
<svg width="34px" height="24px" version="1.1" viewBox="0 0 34 24" xmlns="http://www.w3.org/2000/svg">
 <g fill="none" fill-rule="evenodd">
  <rect width="34" height="24"/>
  <g transform="translate(2 2)">
   <path d="m6 7v7h-1v6h-4v-6h-1v-7s0.024-2 3-2 3 2 3 2m-3-7c1.1 0 2 0.9 2 2s-0.9 2-2 2-2-0.9-2-2 0.9-2 2-2" fill="#757575"/>
   <path d="m14 7v7h-1v6h-4v-6h-1v-7s0.024-2 3-2 3 2 3 2m-3-7c1.1 0 2 0.9 2 2s-0.9 2-2 2-2-0.9-2-2 0.9-2 2-2" fill="#757575"/>
   <path d="m22 7v7h-1v6h-4v-6h-1v-7s0.024-2 3-2 3 2 3 2m-3-7c1.1 0 2 0.9 2 2s-0.9 2-2 2-2-0.9-2-2 0.9-2 2-2" fill="#000" opacity=".12"/>
   <path d="m30 7v7h-1v6h-4v-6h-1v-7s0.024-2 3-2 3 2 3 2m-3-7c1.1 0 2 0.9 2 2s-0.9 2-2 2-2-0.9-2-2 0.9-2 2-2" fill="#000" opacity=".12"/>
  </g>
 </g>
</svg>
