<?xml version="1.0" encoding="utf-8"?>
<!-- Generator: Adobe Illustrator 30.0.0, SVG Export Plug-In . SVG Version: 9.03 Build 0)  -->
<svg version="1.1" baseProfile="basic" id="Layer_1"
	 xmlns="http://www.w3.org/2000/svg" xmlns:xlink="http://www.w3.org/1999/xlink" x="0px" y="0px" width="88px" height="74px"
	 viewBox="0 0 88 74" xml:space="preserve">
<g>
	<g id="land">
		<g>
			<path fill="#CBE7B9" d="M75.15,29.26l-14.72-3.94l-2.67-0.72l-11.02-2.95l0,0l-9.52-2.55c-3.83-1.03-7.88,0.65-9.86,4.08
				l-6.94,12.02l-1.83,3.18l0,0L9.66,53.83c-1.73,3-0.15,6.82,3.19,7.71l22.88,6.13l10.58,2.84l4.53,1.21
				c0.12,0.03,0.24,0.06,0.36,0.08c0.24,0.05,0.48,0.09,0.72,0.12c0.12,0.02,0.24,0.03,0.36,0.04c3.11,0.28,6.16-1.13,7.97-3.73
				c0.14-0.2,0.27-0.41,0.39-0.62l5.53-9.58l0,0l0.77-1.33l0.79-1.37l0.79-1.36l9.82-17.01C80.07,33.97,78.49,30.15,75.15,29.26z"/>
			<path id="XMLID_00000001637689242637650300000015181879081817731263_" fill="#CBE7B9" d="M75.15,29.26l-14.72-3.94l-2.67-0.72
				l-11.02-2.95l0,0l-1.41-0.38l0.7,21.13l24.95,7.31l7.36-12.75C80.07,33.97,78.49,30.15,75.15,29.26z"/>
			<path id="XMLID_00000129167030960893491160000000898374349332386947_" fill="#CBE7B9" d="M75.12,29.27l-29.82-7.99l0.7,21.13
				l24.95,7.31l7.36-12.75C80.05,33.98,78.46,30.16,75.12,29.27z"/>
			<path fill="#CBE7B9" d="M28.55,41.04l-9.96-2.67L9.66,53.83c-1.73,3-0.15,6.82,3.19,7.71l3.34,0.9L28.55,41.04z"/>
		</g>
		<path fill="#E9F8DF" d="M72.07,47.82l-20.49-5.49c-1.77-0.47-3.22-1.76-3.89-3.46c-0.53-1.35-0.97-3.16-0.96-5.46
			c0.04-5.49-4.88-0.32-4.88-0.32c-0.28,2.23-0.07,4,0.19,5.22c0.16,0.72-0.5,1.35-1.21,1.16l-19.82-5.31l-2.44,4.22l9.96,2.67
			L16.19,62.43l4.71,1.26l12.35-21.4l36.37,9.75L72.07,47.82z"/>
	</g>
	<g id="pins">
		<g>
			<g>
				<path fill="#FF4365" d="M56.77,53.47c-0.69-1.34-1.89-2.34-3.32-2.8c-0.56-0.17-1.13-0.26-1.71-0.26
					c-0.58,0-1.15,0.09-1.71,0.26c-1.44,0.46-2.63,1.46-3.32,2.8c-0.42,0.8-0.64,1.7-0.64,2.61c0,3.45,2.21,4.79,4.1,7.75
					c1.15,1.78,0.83,2.85,1.57,2.85c0,0,0,0,0,0c0,0,0,0,0,0c0.74,0,0.42-1.06,1.57-2.85c1.89-2.96,4.1-4.3,4.1-7.75
					C57.42,55.17,57.2,54.28,56.77,53.47z"/>
			</g>
			<ellipse fill="#FFFFFF" cx="51.74" cy="56.1" rx="2.17" ry="2.17"/>
		</g>
		<g>
			<g>
				<path fill="#FF4365" d="M76.06,25.8c-0.69-1.34-1.89-2.34-3.32-2.8c-0.56-0.17-1.13-0.26-1.71-0.26s-1.15,0.09-1.71,0.26
					c-1.44,0.46-2.63,1.46-3.32,2.8c-0.42,0.8-0.64,1.7-0.64,2.61c0,3.45,2.21,4.79,4.1,7.75c1.15,1.78,0.83,2.85,1.57,2.85
					c0,0,0,0,0,0s0,0,0,0c0.74,0,0.42-1.06,1.57-2.85c1.89-2.96,4.1-4.3,4.1-7.75C76.7,27.5,76.48,26.6,76.06,25.8z"/>
			</g>
			<ellipse fill="#FFFFFF" cx="71.03" cy="28.42" rx="2.17" ry="2.17"/>
		</g>
		<g>
			<g>
				<path fill="#FF4365" d="M21.42,40.32c-0.69-1.34-1.89-2.34-3.32-2.8c-0.56-0.17-1.13-0.26-1.71-0.26s-1.15,0.09-1.71,0.26
					c-1.44,0.46-2.63,1.46-3.32,2.8c-0.42,0.8-0.64,1.7-0.64,2.61c0,3.45,2.21,4.79,4.1,7.75c1.15,1.78,0.83,2.85,1.57,2.85
					c0,0,0,0,0,0c0,0,0,0,0,0c0.74,0,0.42-1.06,1.57-2.85c1.89-2.96,4.1-4.3,4.1-7.75C22.06,42.02,21.84,41.12,21.42,40.32z"/>
			</g>
			<ellipse fill="#FFFFFF" cx="16.38" cy="42.94" rx="2.17" ry="2.17"/>
		</g>
	</g>
	<g id="trees">
		<g>
			<path fill="#A28181" d="M62.53,38.33H61.5h-1.04v1.93h0c-0.02,0.31,0.21,0.59,0.63,0.7c0.53,0.14,1.13-0.06,1.36-0.45
				c0.05-0.08,0.08-0.26,0.08-0.26V38.33z"/>
			<circle fill="#2C6854" cx="61.5" cy="36.5" r="2.97"/>
		</g>
		<g>
			<path fill="#A28181" d="M41.86,51.85h-1.09h-1.09v2.02h0c-0.02,0.32,0.22,0.62,0.66,0.74c0.55,0.15,1.19-0.06,1.43-0.47
				c0.05-0.09,0.09-0.27,0.09-0.27V51.85z"/>
			<circle fill="#2C6854" cx="40.78" cy="49.93" r="3.4"/>
		</g>
		<path fill="#00A07A" d="M38.01,59.97L38.01,59.97L38.01,59.97c-0.02-0.06-0.04-0.11-0.07-0.17l-2.95-7.3l0,0
			c-0.14-0.54-0.63-0.94-1.21-0.94s-1.07,0.4-1.21,0.94l0,0l-2.95,7.3c-0.1,0.2-0.15,0.42-0.15,0.64c0,1.36,1.93,2.45,4.31,2.45
			s4.31-1.1,4.31-2.45C38.09,60.28,38.06,60.12,38.01,59.97z"/>
	</g>
	<g id="Blue_dot">
		
			<ellipse transform="matrix(0.9689 -0.2475 0.2475 0.9689 -10.0404 18.2607)" fill="#4285F4" cx="67.61" cy="49.07" rx="5.44" ry="4.58"/>
	</g>
	<g id="Icon">
		<g>
			<circle fill-rule="evenodd" clip-rule="evenodd" fill="#4285F4" cx="44.01" cy="19.14" r="17.14"/>
			<g>
				<path fill="#FFFFFF" d="M52.14,14.21l-1.21-1.21c-0.22-0.22-0.59-0.22-0.81,0l-4.71,4.71V6.62c0-0.32-0.26-0.57-0.57-0.57h-1.72
					c-0.32,0-0.57,0.26-0.57,0.57V17.7l-4.71-4.71c-0.22-0.22-0.59-0.22-0.81,0l-1.21,1.21c-0.22,0.22-0.22,0.59,0,0.81l7.76,7.76
					c0.22,0.22,0.59,0.22,0.81,0l7.76-7.76C52.36,14.79,52.36,14.43,52.14,14.21z"/>
				<g>
					<path fill="#FFFFFF" d="M50.94,28.95H37.02c-2.37,0-4.29-1.92-4.29-4.29v-4.96c0-0.32,0.26-0.57,0.57-0.57h1.72
						c0.32,0,0.57,0.26,0.57,0.57v4.96c0,0.79,0.64,1.43,1.43,1.43h13.92c0.79,0,1.43-0.64,1.43-1.43v-4.96
						c0-0.32,0.26-0.57,0.57-0.57h1.72c0.32,0,0.57,0.26,0.57,0.57v4.96C55.23,27.03,53.31,28.95,50.94,28.95z"/>
				</g>
			</g>
		</g>
	</g>
</g>
</svg>
