<?xml version="1.0" encoding="utf-8"?>
<!-- Generator: Adobe Illustrator 30.0.0, SVG Export Plug-In . SVG Version: 9.03 Build 0)  -->
<svg version="1.1" baseProfile="basic" id="Layer_1"
	 xmlns="http://www.w3.org/2000/svg" xmlns:xlink="http://www.w3.org/1999/xlink" x="0px" y="0px" width="272px" height="210px"
	 viewBox="0 0 272 210" xml:space="preserve">
<g>
	<g id="land_00000089553171569518791880000015230983652548674220_">
		<g>
			<path fill="#004E41" d="M223.9,83.7l-41.41-11.1l-7.53-2.02l-31.01-8.31l0,0l-26.79-7.18c-10.78-2.89-22.17,1.82-27.75,11.49
				l-19.52,33.82l-5.16,8.94l0,0l-25.12,43.51c-4.87,8.43-0.41,19.18,8.99,21.7l64.4,17.26l29.78,7.98l12.75,3.41
				c0.33,0.09,0.67,0.17,1.01,0.24c0.67,0.15,1.35,0.26,2.02,0.35c0.34,0.04,0.67,0.08,1.01,0.11c8.75,0.77,17.35-3.19,22.42-10.49
				c0.39-0.56,0.76-1.14,1.11-1.75l15.56-26.95l0,0l2.16-3.74l2.22-3.85l2.21-3.83l27.64-47.87C237.76,96.98,233.3,86.23,223.9,83.7
				L223.9,83.7z"/>
			<path fill="#004E41" d="M223.83,83.74l-83.91-22.48l1.97,59.48l70.21,20.59l20.71-35.88C237.69,97.01,233.23,86.26,223.83,83.74
				L223.83,83.74z"/>
			<path fill="#004E41" d="M92.75,116.86l-28.03-7.51l-25.12,43.51c-4.87,8.43-0.41,19.18,8.99,21.7l9.41,2.52L92.75,116.86z"/>
			<path fill="#003936" d="M215.25,135.95l-57.66-15.45c-4.99-1.33-9.05-4.95-10.95-9.75c-1.5-3.79-2.73-8.9-2.69-15.38
				c0.11-15.45-13.75-0.91-13.75-0.91c-0.78,6.27-0.21,11.27,0.55,14.69c0.45,2.02-1.4,3.79-3.4,3.25L71.59,97.47l-6.86,11.89
				l28.03,7.51L58,177.08l13.26,3.55l34.76-60.21l102.37,27.43L215.25,135.95L215.25,135.95z"/>
			<path fill="#131314" d="M188.39,109.23h-5.82v5.42h0.01c-0.07,0.86,0.6,1.67,1.76,1.98c1.48,0.4,3.19-0.17,3.82-1.26
				c0.14-0.24,0.23-0.72,0.23-0.72V109.23z"/>
		</g>
	</g>
	<g id="pins_00000027568611437654647820000018030438101718717831_">
		<g>
			<g>
				<path fill="#FF4365" d="M172.19,151.86c-1.95-3.76-5.3-6.59-9.35-7.87c-1.57-0.48-3.19-0.73-4.82-0.73
					c-1.62,0-3.24,0.24-4.82,0.73c-4.04,1.28-7.4,4.12-9.35,7.87c-1.19,2.26-1.81,4.78-1.81,7.35c0,9.71,6.21,13.49,11.54,21.81
					c3.24,5.02,2.33,8.02,4.42,8.02c0,0,0.01,0,0.01,0s0.01,0,0.01,0c2.09,0,1.19-3,4.42-8.02c5.33-8.32,11.54-12.11,11.54-21.81
					C174.01,156.64,173.39,154.12,172.19,151.86L172.19,151.86z"/>
				<circle fill="#131314" cx="158.02" cy="159.22" r="6.1"/>
			</g>
			<g>
				<path fill="#FF4365" d="M226.47,73.98c-1.95-3.76-5.3-6.59-9.35-7.87c-1.57-0.48-3.19-0.73-4.82-0.73
					c-1.62,0-3.24,0.24-4.82,0.73c-4.04,1.28-7.4,4.12-9.35,7.87c-1.19,2.26-1.81,4.78-1.81,7.35c0,9.71,6.21,13.49,11.54,21.81
					c3.24,5.02,2.33,8.02,4.42,8.02c0,0,0.01,0,0.01,0s0.01,0,0.01,0c2.09,0,1.19-3,4.42-8.02c5.33-8.32,11.54-12.11,11.54-21.81
					C228.28,78.76,227.66,76.24,226.47,73.98L226.47,73.98z"/>
				<circle fill="#131314" cx="212.3" cy="81.33" r="6.1"/>
			</g>
			<g>
				<path fill="#FF4365" d="M72.69,114.84c-1.95-3.76-5.3-6.59-9.35-7.87c-1.57-0.48-3.19-0.73-4.82-0.73
					c-1.62,0-3.24,0.24-4.82,0.73c-4.04,1.28-7.4,4.12-9.35,7.87c-1.19,2.26-1.81,4.78-1.81,7.35c0,9.71,6.21,13.49,11.54,21.81
					c3.24,5.02,2.33,8.02,4.42,8.02c0,0,0.01,0,0.01,0c0,0,0.01,0,0.01,0c2.09,0,1.19-3,4.42-8.02
					c5.33-8.32,11.54-12.11,11.54-21.81C74.5,119.62,73.88,117.1,72.69,114.84L72.69,114.84z"/>
				
					<ellipse transform="matrix(0.9998 -0.0176 0.0176 0.9998 -2.1385 1.0474)" fill="#131314" cx="58.52" cy="122.19" rx="6.1" ry="6.1"/>
			</g>
		</g>
	</g>
	<g id="trees_00000181079082399390174590000002534117332724787857_">
		<g>
			<circle fill="#1F8A52" cx="185.48" cy="104.09" r="8.37"/>
			<g>
				<path fill="#131314" d="M130.24,147.3h-6.12v5.7h0.01c-0.07,0.9,0.63,1.76,1.85,2.08c1.55,0.42,3.35-0.18,4.01-1.33
					c0.15-0.25,0.24-0.75,0.24-0.75L130.24,147.3L130.24,147.3z"/>
				<circle fill="#1F8A52" cx="127.18" cy="141.9" r="9.57"/>
			</g>
			<path fill="#0D6545" d="M119.38,170.15L119.38,170.15L119.38,170.15c-0.05-0.16-0.12-0.32-0.19-0.48l-8.29-20.55l0,0
				c-0.4-1.52-1.77-2.64-3.41-2.64s-3.02,1.12-3.41,2.64l0,0l-8.29,20.55c-0.27,0.57-0.42,1.18-0.42,1.79
				c0,3.82,5.43,6.91,12.12,6.91s12.12-3.09,12.12-6.91C119.6,171.01,119.52,170.57,119.38,170.15L119.38,170.15z"/>
		</g>
	</g>
	<g id="Blue_dot_00000079481195371005940040000010522278179276482950_">
		<path fill="#4667F4" d="M217.82,139.46c-0.69,7.21-8.03,13.05-16.38,13.05c-8.35,0-14.56-5.84-13.86-13.05
			c0.69-7.21,8.03-13.05,16.38-13.05C212.3,126.41,218.51,132.25,217.82,139.46z"/>
	</g>
	<g id="Icon_00000071521957734099966740000002070679113433260977_">
		<g>
			<circle fill="#96A6FB" cx="136.27" cy="55.23" r="48.23"/>
			<g>
				<path fill="#131314" d="M159.15,41.35l-3.41-3.41c-0.63-0.63-1.65-0.63-2.28,0L140.21,51.2V19.99c0-0.89-0.72-1.61-1.61-1.61
					h-4.83c-0.89,0-1.61,0.72-1.61,1.61V51.2L118.9,37.94c-0.63-0.63-1.65-0.63-2.28,0l-3.41,3.41c-0.63,0.63-0.63,1.65,0,2.28
					l21.83,21.83c0.63,0.63,1.65,0.63,2.28,0l21.83-21.83C159.78,43,159.78,41.98,159.15,41.35L159.15,41.35z"/>
				<path fill="#131314" d="M155.77,82.85H116.6c-6.66,0-12.07-5.4-12.07-12.07V56.83c0-0.89,0.72-1.61,1.61-1.61h4.83
					c0.89,0,1.61,0.72,1.61,1.61v13.95c0,2.22,1.8,4.02,4.02,4.02h39.17c2.22,0,4.02-1.8,4.02-4.02V56.83
					c0-0.89,0.72-1.61,1.61-1.61h4.83c0.89,0,1.61,0.72,1.61,1.61v13.95C167.84,77.44,162.44,82.85,155.77,82.85L155.77,82.85z"/>
			</g>
		</g>
	</g>
</g>
</svg>
