<?xml version="1.0" encoding="utf-8"?>
<!-- Generator: Adobe Illustrator 30.0.0, SVG Export Plug-In . SVG Version: 9.03 Build 0)  -->
<svg version="1.1" baseProfile="basic" id="Layer_1"
	 xmlns="http://www.w3.org/2000/svg" xmlns:xlink="http://www.w3.org/1999/xlink" x="0px" y="0px" width="272px" height="210px"
	 viewBox="0 0 272 210" xml:space="preserve">
<g>
	<g id="land_00000077312699898979547400000012354115072579107984_">
		<g>
			<path fill="#CBE7B9" d="M223.65,83.21l-41.41-11.1l-7.53-2.02l-31.01-8.31l0,0l-26.79-7.18c-10.78-2.89-22.17,1.82-27.75,11.49
				L69.64,99.92l-5.16,8.94l0,0l-25.12,43.5c-4.87,8.43-0.41,19.18,8.99,21.7l64.4,17.26l29.78,7.98l12.75,3.41
				c0.33,0.09,0.67,0.17,1.01,0.24c0.67,0.15,1.35,0.26,2.02,0.35c0.34,0.04,0.67,0.08,1.01,0.11c8.75,0.77,17.35-3.19,22.42-10.49
				c0.39-0.56,0.76-1.14,1.11-1.75l15.56-26.96l0,0l2.16-3.74l2.22-3.85l2.21-3.83l27.64-47.88
				C237.51,96.48,233.05,85.73,223.65,83.21z"/>
			<path id="XMLID_00000101091549970641866240000004705058188587370634_" fill="#CBE7B9" d="M223.65,83.21l-41.41-11.1l-7.53-2.02
				l-31.01-8.31l0,0l-3.97-1.06l1.97,59.48l70.22,20.59l20.71-35.88C237.51,96.48,233.05,85.73,223.65,83.21z"/>
			<path id="XMLID_00000133496023000192940080000001572569817155589540_" fill="#CBE7B9" d="M223.59,83.24l-83.91-22.48l1.97,59.48
				l70.22,20.59l20.71-35.88C237.45,96.51,232.99,85.76,223.59,83.24z"/>
			<path fill="#CBE7B9" d="M92.51,116.36l-28.03-7.51l-25.12,43.5c-4.87,8.43-0.41,19.18,8.99,21.7l9.41,2.52L92.51,116.36z"/>
		</g>
		<path fill="#E9F8DF" d="M215,135.46l-57.66-15.45c-4.99-1.33-9.05-4.95-10.95-9.75c-1.5-3.79-2.73-8.9-2.69-15.38
			c0.11-15.45-13.75-0.91-13.75-0.91c-0.78,6.27-0.21,11.27,0.55,14.69c0.45,2.02-1.4,3.79-3.4,3.25L71.34,96.97l-6.86,11.89
			l28.03,7.51l-34.76,60.21l13.26,3.55l34.76-60.21l102.37,27.43L215,135.46z"/>
	</g>
	<g id="pins_00000124128658706432616770000003536962294207650189_">
		<g>
			<g>
				<path fill="#FF4365" d="M171.95,151.36c-1.95-3.76-5.3-6.59-9.35-7.87c-1.57-0.48-3.19-0.73-4.82-0.73
					c-1.62,0-3.24,0.24-4.82,0.73c-4.04,1.28-7.4,4.12-9.35,7.87c-1.19,2.26-1.81,4.78-1.81,7.35c0,9.71,6.21,13.49,11.54,21.81
					c3.24,5.02,2.33,8.02,4.42,8.02c0,0,0.01,0,0.01,0s0.01,0,0.01,0c2.09,0,1.19-3,4.42-8.02c5.33-8.32,11.54-12.11,11.54-21.81
					C173.76,156.15,173.14,153.63,171.95,151.36z"/>
			</g>
			<ellipse fill="#FFFFFF" cx="157.78" cy="158.74" rx="6.1" ry="6.1"/>
		</g>
		<g>
			<g>
				<path fill="#FF4365" d="M226.23,73.48c-1.95-3.76-5.3-6.59-9.35-7.87c-1.57-0.48-3.19-0.73-4.82-0.73
					c-1.62,0-3.24,0.24-4.82,0.73c-4.04,1.28-7.4,4.12-9.35,7.87c-1.19,2.26-1.81,4.78-1.81,7.35c0,9.71,6.21,13.49,11.54,21.81
					c3.24,5.02,2.33,8.02,4.42,8.02c0,0,0.01,0,0.01,0c0,0,0.01,0,0.01,0c2.09,0,1.19-3,4.42-8.02
					c5.33-8.32,11.54-12.11,11.54-21.81C228.04,78.26,227.42,75.74,226.23,73.48z"/>
			</g>
			<ellipse fill="#FFFFFF" cx="212.06" cy="80.85" rx="6.1" ry="6.1"/>
		</g>
		<g>
			<g>
				<path fill="#FF4365" d="M72.44,114.34c-1.95-3.76-5.31-6.59-9.35-7.87c-1.57-0.48-3.19-0.73-4.82-0.73
					c-1.62,0-3.24,0.24-4.82,0.73c-4.04,1.28-7.4,4.12-9.35,7.87c-1.19,2.26-1.81,4.78-1.81,7.35c0,9.71,6.21,13.49,11.54,21.81
					c3.24,5.02,2.33,8.02,4.42,8.02c0,0,0.01,0,0.01,0s0.01,0,0.01,0c2.09,0,1.19-3,4.42-8.02c5.33-8.32,11.54-12.11,11.54-21.81
					C74.25,119.12,73.63,116.6,72.44,114.34z"/>
			</g>
			<ellipse fill="#FFFFFF" cx="58.27" cy="121.71" rx="6.1" ry="6.1"/>
		</g>
	</g>
	<g id="trees_00000084519918817936255540000008262853638716965788_">
		<g>
			<path fill="#A28181" d="M188.15,108.74h-2.91h-2.91v5.42h0.01c-0.07,0.86,0.6,1.67,1.76,1.98c1.48,0.4,3.19-0.17,3.82-1.26
				c0.14-0.24,0.23-0.72,0.23-0.72V108.74z"/>
			<circle fill="#2C6854" cx="185.24" cy="103.59" r="8.37"/>
		</g>
		<g>
			<path fill="#A28181" d="M129.99,146.8h-3.06h-3.06v5.7h0.01c-0.07,0.9,0.63,1.76,1.85,2.08c1.55,0.42,3.35-0.18,4.01-1.33
				c0.15-0.25,0.24-0.75,0.24-0.75V146.8z"/>
			<circle fill="#2C6854" cx="126.93" cy="141.4" r="9.58"/>
		</g>
		<path fill="#00A07A" d="M119.14,169.65L119.14,169.65L119.14,169.65c-0.05-0.16-0.12-0.32-0.19-0.48l-8.29-20.55l0,0
			c-0.4-1.52-1.77-2.64-3.41-2.64c-1.64,0-3.02,1.12-3.41,2.64l0,0l-8.29,20.55c-0.27,0.57-0.42,1.18-0.42,1.79
			c0,3.82,5.43,6.91,12.12,6.91s12.12-3.09,12.12-6.91C119.36,170.51,119.28,170.08,119.14,169.65z"/>
	</g>
	<g id="Blue_dot_00000156547833519792744020000006958155929643673735_">
		
			<ellipse transform="matrix(0.9689 -0.2475 0.2475 0.9689 -28.0936 54.4305)" fill="#4285F4" cx="202.46" cy="138.96" rx="15.31" ry="12.89"/>
	</g>
	<g id="Icon_00000127745551589890012060000011136057794288005296_">
		<g>
			<circle fill-rule="evenodd" clip-rule="evenodd" fill="#4285F4" cx="136.02" cy="54.73" r="48.23"/>
			<g>
				<path fill="#FFFFFF" d="M158.91,40.85l-3.41-3.41c-0.63-0.63-1.65-0.63-2.28,0L139.96,50.7V19.49c0-0.89-0.72-1.61-1.61-1.61
					h-4.83c-0.89,0-1.61,0.72-1.61,1.61V50.7l-13.26-13.26c-0.63-0.63-1.65-0.63-2.28,0l-3.41,3.41c-0.63,0.63-0.63,1.65,0,2.28
					l21.83,21.83c0.63,0.63,1.65,0.63,2.28,0l21.83-21.83C159.54,42.5,159.54,41.48,158.91,40.85z"/>
				<g>
					<path fill="#FFFFFF" d="M155.52,82.35h-39.17c-6.66,0-12.07-5.4-12.07-12.07V56.33c0-0.89,0.72-1.61,1.61-1.61h4.83
						c0.89,0,1.61,0.72,1.61,1.61v13.95c0,2.22,1.8,4.02,4.02,4.02h39.17c2.22,0,4.02-1.8,4.02-4.02V56.33
						c0-0.89,0.72-1.61,1.61-1.61h4.83c0.89,0,1.61,0.72,1.61,1.61v13.95C167.59,76.95,162.19,82.35,155.52,82.35z"/>
				</g>
			</g>
		</g>
	</g>
</g>
</svg>
