<?xml version="1.0" encoding="utf-8"?>
<!-- Generator: Adobe Illustrator 30.0.0, SVG Export Plug-In . SVG Version: 9.03 Build 0)  -->
<svg version="1.1" baseProfile="basic" id="Layer_1"
	 xmlns="http://www.w3.org/2000/svg" xmlns:xlink="http://www.w3.org/1999/xlink" x="0px" y="0px" width="716px" height="422px"
	 viewBox="0 0 716 422" xml:space="preserve">
<g>
	<g id="land_00000095335723505640250060000004133686422028094096_">
		<g>
			<path fill="#CBE7B9" d="M534.64,167.08l-83.46-22.36l-15.17-4.06l-62.49-16.74l0,0l-53.99-14.47
				c-21.73-5.83-44.67,3.68-55.92,23.16l-39.34,68.15l-10.4,18.01l0,0l-50.62,87.67c-9.81,16.99-0.83,38.65,18.11,43.73
				l129.79,34.78l60.01,16.08l25.69,6.88c0.67,0.17,1.35,0.34,2.03,0.48c1.35,0.29,2.71,0.53,4.07,0.7
				c0.68,0.09,1.36,0.16,2.04,0.22c17.64,1.56,34.96-6.43,45.18-21.15c0.79-1.13,1.53-2.3,2.23-3.52l31.36-54.32l0,0l4.35-7.54
				l4.48-7.76l4.46-7.72l55.7-96.48C562.56,193.82,553.58,172.16,534.64,167.08z"/>
			<path id="XMLID_00000034087215711155072740000009451348313670643125_" fill="#CBE7B9" d="M534.64,167.08l-83.46-22.36
				l-15.17-4.06l-62.49-16.74l0,0l-7.99-2.14l3.97,119.86l141.5,41.48l41.74-72.3C562.56,193.82,553.58,172.16,534.64,167.08z"/>
			<path id="XMLID_00000146464444004381250030000011552983117632752025_" fill="#CBE7B9" d="M534.51,167.15l-169.1-45.31
				l3.97,119.86l141.5,41.48l41.74-72.3C562.44,193.89,553.46,172.22,534.51,167.15z"/>
			<path fill="#CBE7B9" d="M270.35,233.9l-56.49-15.13l-50.62,87.67c-9.81,16.99-0.83,38.65,18.11,43.73l18.95,5.08L270.35,233.9z"
				/>
		</g>
		<path fill="#E9F8DF" d="M517.21,272.38L401,241.24c-10.05-2.69-18.24-9.97-22.06-19.64c-3.02-7.64-5.51-17.94-5.42-30.99
			c0.22-31.13-27.7-1.84-27.7-1.84c-1.57,12.64-0.42,22.71,1.1,29.6c0.9,4.07-2.82,7.63-6.85,6.56L227.7,194.81l-13.83,23.96
			l56.49,15.13L200.3,355.24l26.72,7.16l70.05-121.34l206.3,55.28L517.21,272.38z"/>
	</g>
	<g id="pins_00000007396238089866208640000015477149574800995229_">
		<g>
			<g>
				<path fill="#FF4365" d="M430.45,304.44c-3.93-7.57-10.69-13.28-18.84-15.87c-3.17-0.97-6.44-1.46-9.7-1.46
					c-3.27,0-6.54,0.49-9.7,1.46c-8.15,2.59-14.91,8.29-18.84,15.87c-2.4,4.55-3.64,9.64-3.64,14.81
					c0,19.56,12.51,27.18,23.25,43.96c6.52,10.12,4.7,16.16,8.92,16.16c0.01,0,0.01,0,0.02,0c0.01,0,0.01,0,0.02,0
					c4.22,0,2.4-6.04,8.92-16.16c10.74-16.77,23.25-24.4,23.25-43.96C434.09,314.07,432.84,308.99,430.45,304.44z"/>
			</g>
			<ellipse fill="#FFFFFF" cx="401.88" cy="319.3" rx="12.3" ry="12.3"/>
		</g>
		<g>
			<g>
				<path fill="#FF4365" d="M539.83,147.48c-3.93-7.57-10.69-13.28-18.84-15.87c-3.17-0.97-6.44-1.46-9.7-1.46s-6.54,0.49-9.7,1.46
					c-8.15,2.59-14.91,8.29-18.84,15.87c-2.4,4.55-3.64,9.64-3.64,14.81c0,19.56,12.51,27.18,23.25,43.96
					c6.52,10.12,4.7,16.16,8.92,16.16c0.01,0,0.01,0,0.02,0c0.01,0,0.01,0,0.02,0c4.22,0,2.4-6.04,8.92-16.16
					c10.74-16.77,23.25-24.4,23.25-43.96C543.47,157.11,542.22,152.03,539.83,147.48z"/>
			</g>
			<ellipse fill="#FFFFFF" cx="511.28" cy="162.34" rx="12.3" ry="12.3"/>
		</g>
		<g>
			<g>
				<path fill="#FF4365" d="M229.92,229.82c-3.93-7.57-10.69-13.28-18.84-15.87c-3.17-0.97-6.44-1.46-9.7-1.46s-6.54,0.49-9.7,1.46
					c-8.15,2.59-14.91,8.29-18.84,15.87c-2.4,4.55-3.64,9.64-3.64,14.81c0,19.56,12.51,27.18,23.25,43.96
					c6.52,10.12,4.7,16.16,8.92,16.16c0.01,0,0.01,0,0.02,0c0.01,0,0.01,0,0.02,0c4.22,0,2.4-6.04,8.92-16.16
					c10.74-16.77,23.25-24.4,23.25-43.96C233.56,239.46,232.31,234.38,229.92,229.82z"/>
			</g>
			<ellipse fill="#FFFFFF" cx="201.35" cy="244.68" rx="12.3" ry="12.3"/>
		</g>
	</g>
	<g id="trees_00000158729051534999058620000001259805422497623951_">
		<g>
			<path fill="#A28181" d="M463.09,218.53h-5.86h-5.87v10.93h0.01c-0.13,1.74,1.21,3.37,3.55,3.99c2.98,0.8,6.43-0.34,7.7-2.55
				c0.28-0.48,0.47-1.45,0.47-1.45V218.53z"/>
			<circle fill="#2C6854" cx="457.22" cy="208.16" r="16.86"/>
		</g>
		<g>
			<path fill="#A28181" d="M345.89,295.25h-6.16h-6.16v11.48h0.01c-0.14,1.82,1.27,3.54,3.73,4.2c3.13,0.84,6.75-0.36,8.09-2.68
				c0.29-0.5,0.49-1.52,0.49-1.52V295.25z"/>
			<circle fill="#2C6854" cx="339.73" cy="284.35" r="19.3"/>
		</g>
		<path fill="#00A07A" d="M324.01,341.29L324.01,341.29L324.01,341.29c-0.11-0.33-0.24-0.65-0.39-0.97l-16.7-41.42l0,0
			c-0.8-3.06-3.57-5.33-6.88-5.33s-6.08,2.26-6.88,5.33l0,0l-16.7,41.42c-0.54,1.15-0.84,2.37-0.84,3.62
			c0,7.69,10.93,13.92,24.42,13.92s24.42-6.23,24.42-13.92C324.46,343.03,324.3,342.15,324.01,341.29z"/>
	</g>
	<g id="Blue_dot_00000140016263098976754460000006941562113113136001_">
		
			<ellipse transform="matrix(0.9689 -0.2475 0.2475 0.9689 -53.8557 130.4434)" fill="#4285F4" cx="491.92" cy="279.44" rx="30.85" ry="25.97"/>
	</g>
	<g id="Icon_00000039103495547235265100000006024069704861099199_">
		<g>
			<circle fill-rule="evenodd" clip-rule="evenodd" fill="#4285F4" cx="358.04" cy="109.69" r="97.19"/>
			<g>
				<path fill="#FFFFFF" d="M404.16,81.73l-6.88-6.88c-1.27-1.27-3.32-1.27-4.59,0l-26.72,26.72V38.68c0-1.79-1.45-3.24-3.24-3.24
					H353c-1.79,0-3.24,1.45-3.24,3.24v62.89l-26.72-26.72c-1.27-1.27-3.32-1.27-4.59,0l-6.88,6.88c-1.27,1.27-1.27,3.32,0,4.59
					l44,44c1.27,1.27,3.32,1.27,4.59,0l44-44C405.43,85.05,405.43,83,404.16,81.73z"/>
				<g>
					<path fill="#FFFFFF" d="M397.34,165.36h-78.94c-13.43,0-24.32-10.89-24.32-24.32v-28.11c0-1.79,1.45-3.24,3.24-3.24h9.73
						c1.79,0,3.24,1.45,3.24,3.24v28.11c0,4.48,3.63,8.1,8.1,8.1h78.94c4.48,0,8.11-3.63,8.11-8.11v-28.11
						c0-1.79,1.45-3.24,3.24-3.24h9.73c1.79,0,3.24,1.45,3.24,3.24v28.11C421.67,154.47,410.78,165.36,397.34,165.36z"/>
				</g>
			</g>
		</g>
	</g>
</g>
</svg>
