<?xml version="1.0" encoding="utf-8"?>
<!-- Generator: Adobe Illustrator 21.0.2, SVG Export Plug-In . SVG Version: 6.00 Build 0)  -->
<svg version="1.1" id="Layer_1" xmlns="http://www.w3.org/2000/svg" xmlns:xlink="http://www.w3.org/1999/xlink" x="0px" y="0px"
	 width="28px" height="28px" viewBox="0 0 28 28" enable-background="new 0 0 28 28" xml:space="preserve">
<g opacity="0.8">
	<g>
		
			<radialGradient id="SVGID_1_" cx="14" cy="-596" r="13.5" gradientTransform="matrix(1 0 0 -1 0 -582)" gradientUnits="userSpaceOnUse">
			<stop  offset="0.3991" style="stop-color:#FFFFFF;stop-opacity:0.2"/>
			<stop  offset="0.9958" style="stop-color:#FFFFFF;stop-opacity:0.7"/>
		</radialGradient>
		<path fill="url(#SVGID_1_)" d="M14,27.5C6.56,27.5,0.5,21.44,0.5,14C0.5,6.56,6.56,0.5,14,0.5c7.44,0,13.5,6.06,13.5,13.5
			C27.5,21.44,21.44,27.5,14,27.5z"/>
		<path fill="#FFFFFF" d="M14,1c7.17,0,13,5.83,13,13s-5.83,13-13,13S1,21.17,1,14S6.83,1,14,1 M14,0C6.27,0,0,6.27,0,14
			s6.27,14,14,14s14-6.27,14-14S21.73,0,14,0L14,0z"/>
	</g>
</g>
</svg>
