<svg width="58.52px" height="58.52px" viewBox="0 0 58.52 58.52" version="1.1" xmlns="http://www.w3.org/2000/svg" xmlns:xlink="http://www.w3.org/1999/xlink">
    <!-- Generator: Sketch 55.2 (78181) - https://sketchapp.com -->
    <title>refresh_offscreenindicator</title>
    <desc>Created with Sketch.</desc>
    <g id="refresh_offscreenindicator" stroke="none" stroke-width="1" fill="none" fill-rule="evenodd">
        <rect width="58.52" height="58.52" />
        <g id="Refresh_offscreenIndicator" transform="translate(11.260000, 11.2600000)">
            <path d="M34.7787304,26.2618863 C31.7862698,32.0471606 25.748844,36 18.7882903,36 L18.3615868,36 C8.42713575,36 0.368550369,27.9411255 0.368550369,18 C0.368550369,8.05668872 8.42828535,-9.69401915e-13 18.3704723,-9.68793131e-13 L18.5749386,-9.68780611e-13 L18.7794048,-9.68768091e-13 C25.4911712,-9.68357114e-13 31.3490081,3.67665238 34.4444087,9.12660828 C34.4621279,9.14758404 34.4784396,9.17022617 34.4930178,9.19451093 C38.9061183,16.5459725 47.625,14.4056095 47.625,17.5677073 C47.625,20.662916 39.2710843,18.6707644 34.7787304,26.2618863 Z" id="bkg_white" fill="#FFFFFF"></path>
            <g id="blueDot" transform="translate(18.228571, 18.084821) scale(-1, 1) rotate(90.000000) translate(-18.228571, -18.084821) translate(4.514286, 4.513393)" fill="#1A73E8">
                <ellipse cx="13.9087692" cy="13.9087692" rx="14.625" ry="14.625"></ellipse>
            </g>
        </g>
    </g>
</svg>
