<?xml version="1.0" encoding="utf-8"?>
<!-- Generator: Adobe Illustrator 30.0.0, SVG Export Plug-In . SVG Version: 9.03 Build 0)  -->
<svg version="1.1" baseProfile="basic" id="Layer_1"
	 xmlns="http://www.w3.org/2000/svg" xmlns:xlink="http://www.w3.org/1999/xlink" x="0px" y="0px" width="220px" height="220px"
	 viewBox="0 0 220 220" xml:space="preserve">
<g>
	<g id="Land_00000168103594629911064500000016614609263542274740_">
		<g>
			<path d="M199.3,135.61l-6.17,1.18c-2.25-1.76-5.1-3.19-8.54-4.17l-58.43-16.75c-17.15-4.92-42.43,2.88-56.47,17.41l-26.54,26.77
				c-2.05,2.12-3.74,4.27-5.09,6.41l-3.93,0.75v10.13c-0.08,0.94-0.08,1.87,0,2.77v0.01l0,0c0.58,6.9,5.56,12.56,14.66,15.17
				l58.43,16.75c17.15,4.92,42.43-2.88,56.47-17.41l26.54-26.77c6.22-6.44,9.18-13.12,9.07-19h0.01L199.3,135.61L199.3,135.61z"/>
			<path fill="#005B5B" d="M107.21,198.19l-58.43-16.75c-17.15-4.92-19.67-20.69-5.64-35.22l26.54-26.77
				c14.04-14.54,39.32-22.33,56.47-17.41l58.43,16.75c17.15,4.92,19.67,20.69,5.64,35.22l-26.54,26.77
				C149.65,195.31,124.36,203.1,107.21,198.19L107.21,198.19z"/>
			<path fill="#DEE200" d="M118.51,193.54c-3.51,0-6.75-0.42-9.6-1.24l-58.43-16.75c-6.96-1.99-9.26-5.55-9.96-8.17
				c-0.57-2.15-0.37-4.58,0.6-7.24c1.15-3.14,3.36-6.47,6.41-9.63l26.54-26.77l0.03-0.03c4.84-5.01,11.35-9.29,18.84-12.38
				c7.25-2.99,15.04-4.64,21.93-4.64c3.51,0,6.74,0.42,9.6,1.24l58.43,16.75c6.96,1.99,9.26,5.55,9.96,8.17
				c0.57,2.15,0.37,4.58-0.6,7.24c-1.15,3.14-3.36,6.47-6.42,9.64l-26.54,26.77l-0.03,0.03c-4.84,5.01-11.35,9.29-18.84,12.38
				C133.18,191.89,125.39,193.54,118.51,193.54L118.51,193.54z"/>
			<polygon fill="none" points="163.3,133.4 179.2,117.23 127.92,102.53 112.4,118.32 			"/>
			<polygon fill="none" points="64.95,166.59 50.02,181.78 101.29,196.49 115.85,181.67 			"/>
			<path fill="none" d="M128.47,177.91l28.76,8.52c2.34-1.75,4.5-3.63,6.45-5.65l26.54-26.77c1.31-1.35,2.47-2.72,3.49-4.08
				l-29.23-8.66L128.47,177.91L128.47,177.91z"/>
			<path fill="none" d="M108.26,198.47c12.07,3.05,27.83,0.08,40.9-6.92l-26.4-7.82L108.26,198.47L108.26,198.47z"/>
			<polygon fill="none" points="70.67,160.78 121.57,175.86 157.59,139.22 106.69,124.13 			"/>
			<path fill="none" d="M35.43,157.84c-3.33,8.89-0.48,17.02,8.08,21.51l14.55-14.8L35.43,157.84L35.43,157.84z"/>
			<path fill="none" d="M120.6,100.91c-11.82-1.5-26.11,1.88-37.92,8.61l22.81,6.76L120.6,100.91L120.6,100.91z"/>
			<path fill="none" d="M99.78,122.09l-24.86-7.37c-1.88,1.48-3.63,3.05-5.24,4.72l-26.54,26.77c-1.65,1.71-3.07,3.43-4.26,5.15
				l24.88,7.37L99.78,122.09L99.78,122.09z"/>
			<path fill="#005B5B" d="M170.2,135.45l15.91-16.19c-0.5-0.17-1-0.33-1.52-0.48l-5.39-1.55L163.3,133.4l-50.9-15.08l15.52-15.79
				l-1.76-0.5c-1.77-0.51-3.63-0.88-5.55-1.12l-15.1,15.37l-22.81-6.76c-2.74,1.56-5.35,3.3-7.76,5.21l24.86,7.37l-36.02,36.64
				l-24.88-7.37c-1.51,2.18-2.67,4.35-3.46,6.48l22.63,6.7l-14.55,14.8c1.57,0.82,3.33,1.52,5.28,2.08l1.23,0.35l14.94-15.2
				l50.9,15.08l-14.56,14.81l5.92,1.7c0.35,0.1,0.69,0.19,1.04,0.28l14.49-14.75l26.4,7.82c2.84-1.52,5.55-3.23,8.07-5.11
				l-28.76-8.52l36.02-36.64l29.23,8.66c1.6-2.14,2.85-4.28,3.76-6.39L170.2,135.45L170.2,135.45z M121.57,175.86l-50.9-15.08
				l36.02-36.64l50.9,15.08L121.57,175.86z"/>
		</g>
	</g>
	<g id="Clouds">
		<g>
			<path fill="#BCE9FF" d="M101.87,97.88c0.03-4.98-3.98-9.03-8.95-9.07c-1.57-0.01-3.05,0.38-4.34,1.09
				c-9.77,5.21-21.92,1.79-27.55-7.74c-2.32-3.93-6.58-6.57-11.47-6.6c-6.99-0.04-12.77,5.28-13.43,12.1
				c-0.5,5.12-4.95,8.94-10.08,8.65c-0.08-0.01-0.17-0.01-0.25-0.01c-2.79-0.02-5.07,2.23-5.09,5.03c-0.03,4.74,4.48,5.07,8.07,5.09
				c20.38,0.14,40.75,0.27,61.13,0.4c2.84,0.02,6.04,0.02,8.4-1.77C100.5,103.37,101.85,100.66,101.87,97.88L101.87,97.88z"/>
			<path fill="#BCE9FF" d="M160.56,73.46c1.27,0,2.45,0.33,3.48,0.91l0,0c0.96,0.54,2.17,0.21,2.72-0.75
				c1.62-2.88,4.71-4.83,8.25-4.83c4.62,0,8.47,3.31,9.3,7.7c0.46,2.26,2.66,3.74,4.93,3.3l0,0c0.25-0.05,0.5-0.07,0.76-0.07
				c2.21,0,4,1.79,4,4s-1.79,4-4,4h-29.44l0.15-0.1c-0.05,0-0.1,0-0.15,0c-3.91,0-7.08-3.17-7.08-7.08S156.65,73.46,160.56,73.46z"
				/>
		</g>
	</g>
	<g id="Icon_00000181079976184052839260000003062546236396447136_">
		<g>
			<path fill-rule="evenodd" clip-rule="evenodd" fill="#232765" d="M117.53,71.02c-14.2-4.59-26.79-1.82-34.66,6.2l0,0l-0.15,0.16
				c-0.16,0.16-0.31,0.32-0.46,0.49l-5,5.28l1.31-0.21c-2.71,4.77-4.23,10.6-4.23,17.27c0,23.83,19.33,49.43,43.19,57.2
				c23.89,7.78,43.29-5.27,43.29-29.15S141.42,78.74,117.53,71.02L117.53,71.02z"/>
			<path fill-rule="evenodd" clip-rule="evenodd" fill="#9FD5FF" d="M154.34,135.01c0-23.88-19.39-49.51-43.29-57.23
				c-23.86-7.71-43.19,5.35-43.19,29.18s19.33,49.43,43.19,57.2C134.95,171.93,154.34,158.89,154.34,135.01L154.34,135.01z"/>
			<g>
				<path fill="#4667F4" d="M111.12,120.99c8.97,2.91,16.24-1.99,16.24-10.96s-7.27-18.58-16.24-21.48
					c-8.96-2.9-16.23,2.01-16.23,10.96S102.15,118.08,111.12,120.99z"/>
				<path fill="#4667F4" d="M111.06,126.85c-14.75-4.79-27.76-1.63-35.55,7.1c7.79,13.8,20.8,25.41,35.55,30.21
					c14.76,4.81,27.8,1.66,35.62-7.08C138.86,143.26,125.82,131.64,111.06,126.85L111.06,126.85z"/>
			</g>
			<path fill="#47A1FB" d="M97.74,77.96c4.03,0,8.27,0.71,12.58,2.1c11.09,3.58,21.54,11.3,29.43,21.72
				c7.87,10.4,12.2,22.2,12.2,33.22c0,8.67-2.68,16.01-7.75,21.22c-4.95,5.08-11.76,7.77-19.71,7.77c-4.07,0-8.33-0.72-12.67-2.13
				c-11.08-3.61-21.51-11.33-29.37-21.74c-7.84-10.39-12.16-22.17-12.16-33.17c0-8.67,2.68-16,7.75-21.22
				C82.97,80.66,89.79,77.97,97.74,77.96 M97.74,75.56c-17.34,0-29.87,12.21-29.87,31.4c0,23.83,19.33,49.43,43.19,57.2
				c4.68,1.52,9.19,2.25,13.41,2.25c17.34,0,29.87-12.2,29.87-31.4c0-23.88-19.39-49.51-43.29-57.23
				C106.41,76.28,101.93,75.56,97.74,75.56L97.74,75.56L97.74,75.56z"/>
		</g>
	</g>
	<g id="lock">
		<g>
			<path fill="#ABABAB" d="M156.33,150.7l-16.82-4.82c-0.95-0.27-1.9,0.04-2.51,0.69l-7.05,5.98l6.37,8.44v5.29
				c0,1.63,1.08,3.07,2.65,3.52l5.1,1.46l6.8,9.01l7.03-6c0.65-0.45,1.09-1.19,1.09-2.07v-17.99
				C158.98,152.59,157.9,151.15,156.33,150.7z"/>
			<path fill="#F5F5F5" d="M151.72,178.39V160.4c0-1.63-1.08-3.07-2.65-3.52l-16.82-4.82c-1.6-0.46-3.2,0.74-3.2,2.41v17.99
				c0,1.63,1.08,3.07,2.65,3.52l16.82,4.82C150.12,181.26,151.72,180.05,151.72,178.39z"/>
			<path d="M143.86,164.87c0-2.33-1.89-4.83-4.23-5.59c-2.33-0.76-4.22,0.52-4.22,2.85c0,1.89,1.24,3.89,2.95,4.98l-1.75,4.85
				l6.04,1.71l-1.71-5.74C142.63,167.93,143.86,166.74,143.86,164.87L143.86,164.87z"/>
			<path d="M150.39,154c-0.83,0-1.5-0.67-1.5-1.5v-4.89c0-2.98-2.02-6.04-4.42-6.68c-0.88-0.23-1.67-0.1-2.3,0.38
				c-0.85,0.65-1.34,1.87-1.34,3.34v4.63c0,0.83-0.67,1.5-1.5,1.5c-0.83,0-1.5-0.67-1.5-1.5v-4.63c0-2.41,0.91-4.49,2.51-5.72
				c1.38-1.06,3.12-1.38,4.91-0.9c3.73,1,6.64,5.21,6.64,9.59v4.89C151.89,153.33,151.22,154,150.39,154L150.39,154z"/>
		</g>
	</g>
	<g id="tree">
		<g>
			<path fill-rule="evenodd" clip-rule="evenodd" d="M57.17,118.55c0.25,0.66,1.21,0.63,1.42-0.05c1.28-4.22,4.62-10.48,4.62-10.48
				c6.74,12.08,3.61,25.99,1.01,33.47c0.3,0.35,0.58,0.73,0.87,1.15c0,0,2.93-2.72,3.35-6.25c0.07-0.55,0.71-0.82,1.14-0.47
				c0.95,0.75,2.14,2.12,2.04,4.19c6.79-22.92-5.5-36.1-5.5-36.1l11.64-2.84c0.92-0.22,1.33-1.29,0.81-2.09
				c-4.78-7.22-12.99-1.87-12.99-1.87c0.19-4.07,2.26-9.21,3.97-12.84c0.83-1.76-1.19-3.48-2.8-2.39c-6.66,4.52-8.3,13.74-8.3,13.74
				c-8.69-9.28-16.02-4.7-19.36-1.52c-0.86,0.82-0.37,2.27,0.81,2.41c8.67,1,14.15,4.74,14.15,4.74
				c-7.43,0.46-10.37,6.02-11.53,10.28c-0.46,1.69,1.43,3.05,2.89,2.08c5.53-3.68,12.37-6.32,12.37-6.32
				C54.9,110.92,56.11,115.8,57.17,118.55L57.17,118.55z"/>
			
				<linearGradient id="SVGID_1_" gradientUnits="userSpaceOnUse" x1="68.5133" y1="3034.8464" x2="67.5185" y2="3059.6636" gradientTransform="matrix(1 0 0 -1 0 3192)">
				<stop  offset="0.29" style="stop-color:#E37400;stop-opacity:0"/>
				<stop  offset="0.33" style="stop-color:#E37400;stop-opacity:0.02"/>
				<stop  offset="0.38" style="stop-color:#E47700;stop-opacity:0.1"/>
				<stop  offset="0.45" style="stop-color:#E67B00;stop-opacity:0.21"/>
				<stop  offset="0.52" style="stop-color:#E88100;stop-opacity:0.37"/>
				<stop  offset="0.59" style="stop-color:#EB8900;stop-opacity:0.58"/>
				<stop  offset="0.67" style="stop-color:#EF9200;stop-opacity:0.83"/>
				<stop  offset="0.71" style="stop-color:#F29900"/>
			</linearGradient>
			<path fill-rule="evenodd" clip-rule="evenodd" fill="url(#SVGID_1_)" d="M60.09,147.75c-0.4-1.78-1.59-5.83-4.56-8.81
				c-0.4-0.4-0.14-1.08,0.42-1.13c2.05-0.18,5.98,0.2,9.13,4.82c0,0,2.93-2.72,3.35-6.25c0.07-0.55,0.71-0.82,1.14-0.47
				c1.1,0.88,2.55,2.59,1.89,5.27c0,0,4.02-3.65,8.05-3.71c0.6-0.01,0.89,0.74,0.43,1.14c-2.06,1.77-6.28,5.72-7.74,9.61
				c-0.18,0.48-0.64,0.8-1.16,0.78l-9.83-0.31C60.67,148.67,60.21,148.29,60.09,147.75L60.09,147.75z"/>
			<circle fill="#F29900" cx="66.61" cy="103.7" r="2.67"/>
			<circle fill="#FBBC04" cx="61.4" cy="108.83" r="2.67"/>
		</g>
	</g>
	<g id="Plus_Code_00000103255184485852177020000002658833203244684974_">
		<g>
			<path fill="#4285F4" d="M169.6,6.5H72.19c-8.02,0-14.52,6.5-14.52,14.52v28.61c0,8.02,6.5,14.52,14.52,14.52h35.72
				c3.85,0,4.98,1.72,5.81,3.18c0.82,1.45,2.08,3.6,3.66,6.44c0.85,1.52,1.46,2.41,2.03,2.9c0.09,0.08,0.19,0.15,0.29,0.22
				c0.03,0.02,0.07,0.04,0.1,0.06c0.01,0.01,0.02,0.01,0.03,0.02c0.19,0.1,0.38,0.17,0.58,0.21c0.01,0,0.02,0,0.03,0.01
				c0.05,0.01,0.09,0.02,0.14,0.02c0.04,0.01,0.08,0.01,0.12,0.01c0.04,0,0.09,0.01,0.13,0.01c0.01,0,0.02,0,0.03,0s0.02,0,0.03,0
				s0.02,0,0.03,0c0.01,0,0.02,0,0.03,0c0.04,0,0.09,0,0.13-0.01c0.04,0,0.08-0.01,0.12-0.01c0.05-0.01,0.1-0.01,0.14-0.02
				c0.01,0,0.02,0,0.03-0.01c0.2-0.04,0.39-0.11,0.58-0.21c0.01-0.01,0.02-0.01,0.03-0.02c0.03-0.02,0.07-0.04,0.1-0.06
				c0.1-0.06,0.2-0.14,0.29-0.22c0.57-0.49,1.18-1.37,2.03-2.9c1.58-2.84,2.84-4.98,3.66-6.44c0.82-1.45,1.96-3.18,5.81-3.18h35.72
				c8.02,0,14.52-6.5,14.52-14.52V21.02C184.12,13,177.62,6.5,169.6,6.5L169.6,6.5z"/>
			<g>
				<path fill="#FFFFFF" d="M68.6,27.76h2.58l3.38,10l0.55,1.71h0.13l0.55-1.71l3.53-10h2.6l-5.51,15.13h-2.47L68.6,27.76
					L68.6,27.76z"/>
				<path fill="#FFFFFF" d="M83.93,42.1l6.67-11.97l-0.04-0.06h-7.31v-2.3h10.03v2.43l-7.25,13.04L83.93,42.1L83.93,42.1z"/>
				<path fill="#FFFFFF" d="M97.53,42.78c-0.72-0.3-1.36-0.76-1.9-1.37c-0.55-0.61-0.93-1.37-1.15-2.27l2.19-0.86
					c0.19,0.79,0.55,1.44,1.08,1.92c0.53,0.49,1.17,0.73,1.92,0.73c0.84,0,1.53-0.26,2.07-0.78c0.54-0.52,0.81-1.2,0.81-2.02
					c0-0.82-0.26-1.51-0.79-2.04c-0.53-0.54-1.22-0.81-2.05-0.81c-0.49,0-0.93,0.1-1.32,0.31c-0.4,0.21-0.74,0.49-1.02,0.86
					l-2.41-1.06l0.93-7.62h8.2v2.21h-6.19l-0.55,3.98l0.13,0.02c0.77-0.61,1.67-0.91,2.7-0.91c0.85,0,1.65,0.21,2.4,0.64
					s1.34,1.02,1.78,1.79s0.66,1.64,0.66,2.61s-0.23,1.85-0.69,2.63c-0.46,0.78-1.09,1.39-1.89,1.83c-0.8,0.44-1.7,0.66-2.71,0.66
					C98.98,43.23,98.25,43.08,97.53,42.78L97.53,42.78z"/>
				<path fill="#FFFFFF" d="M106.18,27.76h2.58l3.38,10l0.55,1.71h0.13l0.55-1.71l3.53-10h2.6l-5.51,15.13h-2.47L106.18,27.76
					L106.18,27.76z"/>
				<path fill="#FFFFFF" d="M130.5,36.66h-3.72v3.72h-2.01v-3.72h-3.72v-1.99h3.72v-3.72h2.01v3.72h3.72V36.66z"/>
				<path fill="#FFFFFF" d="M136.01,42.63c-0.8-0.4-1.43-0.95-1.89-1.64c-0.46-0.7-0.68-1.47-0.68-2.31c0-0.84,0.22-1.56,0.67-2.2
					c0.45-0.64,1.03-1.14,1.73-1.49v-0.13c-0.56-0.37-1.02-0.83-1.37-1.38c-0.35-0.55-0.53-1.15-0.53-1.8c0-0.79,0.2-1.52,0.61-2.17
					c0.41-0.65,0.97-1.17,1.7-1.54c0.73-0.37,1.55-0.55,2.46-0.55c0.91,0,1.73,0.18,2.46,0.55c0.73,0.37,1.3,0.88,1.71,1.54
					c0.41,0.65,0.62,1.38,0.62,2.17c0,0.65-0.18,1.25-0.53,1.8c-0.35,0.55-0.81,1.01-1.37,1.38V35c0.71,0.35,1.28,0.85,1.73,1.49
					c0.45,0.64,0.67,1.37,0.67,2.2c0,0.83-0.23,1.61-0.68,2.31c-0.46,0.7-1.09,1.25-1.9,1.64c-0.81,0.4-1.71,0.59-2.71,0.59
					C137.72,43.23,136.82,43.03,136.01,42.63z M140.76,40.26c0.54-0.45,0.81-1.03,0.81-1.76s-0.27-1.29-0.82-1.74
					c-0.55-0.46-1.22-0.68-2.03-0.68s-1.47,0.23-2.01,0.68c-0.55,0.46-0.82,1.04-0.82,1.74c0,0.71,0.27,1.31,0.81,1.76
					c0.54,0.45,1.21,0.67,2.02,0.67S140.22,40.71,140.76,40.26L140.76,40.26z M140.43,33.31c0.45-0.39,0.67-0.91,0.67-1.56
					c0-0.65-0.22-1.14-0.67-1.51c-0.45-0.37-1.02-0.56-1.71-0.56c-0.69,0-1.24,0.19-1.69,0.56s-0.67,0.88-0.67,1.51
					s0.22,1.15,0.67,1.55c0.45,0.4,1.01,0.59,1.69,0.59C139.39,33.89,139.98,33.7,140.43,33.31L140.43,33.31z"/>
				<path fill="#FFFFFF" d="M156.95,42.45c-1.09,0.52-2.25,0.78-3.49,0.78c-1.47,0-2.79-0.35-3.98-1.05
					c-1.19-0.7-2.13-1.65-2.81-2.86c-0.68-1.21-1.03-2.54-1.03-3.99s0.34-2.78,1.03-3.98c0.68-1.21,1.62-2.16,2.81-2.86
					c1.19-0.7,2.52-1.06,3.98-1.06s2.79,0.35,3.99,1.05c1.2,0.7,2.14,1.66,2.82,2.86c0.68,1.2,1.02,2.53,1.02,3.98
					c0,1.17-0.23,2.26-0.68,3.28c-0.45,1.02-1.09,1.9-1.9,2.63l1.12,1.67l-1.79,1.21L156.95,42.45L156.95,42.45z M155.64,40.53
					l-1.73-2.58l1.82-1.23l1.69,2.58c0.48-0.49,0.85-1.08,1.11-1.75c0.26-0.68,0.39-1.42,0.39-2.22c0-1.1-0.24-2.07-0.73-2.93
					c-0.49-0.85-1.15-1.52-1.98-2c-0.83-0.48-1.75-0.72-2.75-0.72c-1,0-1.91,0.24-2.74,0.72c-0.82,0.48-1.48,1.15-1.96,2
					c-0.49,0.85-0.73,1.83-0.73,2.93s0.24,2.08,0.73,2.93c0.49,0.85,1.14,1.52,1.96,2c0.82,0.48,1.74,0.72,2.74,0.72
					C154.21,40.97,154.94,40.83,155.64,40.53L155.64,40.53z"/>
				<path fill="#FFFFFF" d="M164.85,42.25c-0.97-0.65-1.64-1.62-2.01-2.88l2.25-0.93c0.21,0.78,0.56,1.38,1.07,1.81
					c0.51,0.43,1.12,0.64,1.84,0.64s1.37-0.22,1.9-0.67s0.79-1.02,0.79-1.71c0-0.69-0.28-1.28-0.84-1.73
					c-0.56-0.45-1.26-0.67-2.1-0.67h-1.3v-2.23h1.17c0.72,0,1.33-0.19,1.82-0.58c0.49-0.39,0.74-0.92,0.74-1.6
					c0-0.6-0.22-1.09-0.66-1.45c-0.44-0.36-1-0.54-1.68-0.54s-1.19,0.18-1.58,0.53c-0.39,0.35-0.67,0.79-0.85,1.3l-2.23-0.93
					c0.29-0.84,0.84-1.58,1.63-2.22c0.79-0.64,1.81-0.96,3.05-0.96c0.91,0,1.73,0.18,2.46,0.53c0.73,0.35,1.3,0.84,1.71,1.47
					c0.41,0.63,0.62,1.33,0.62,2.11c0,0.78-0.19,1.47-0.57,2.02c-0.38,0.55-0.85,0.97-1.41,1.27v0.13c0.74,0.31,1.34,0.78,1.81,1.41
					c0.47,0.63,0.71,1.39,0.71,2.27c0,0.88-0.22,1.67-0.67,2.36c-0.45,0.69-1.07,1.24-1.87,1.63c-0.79,0.4-1.68,0.59-2.65,0.59
					C166.88,43.23,165.83,42.9,164.85,42.25L164.85,42.25z"/>
			</g>
		</g>
	</g>
</g>
</svg>
