<?xml version="1.0" encoding="utf-8"?>
<!-- Generator: Adobe Illustrator 30.0.0, SVG Export Plug-In . SVG Version: 9.03 Build 0)  -->
<svg version="1.1" baseProfile="basic" id="Layer_1"
	 xmlns="http://www.w3.org/2000/svg" xmlns:xlink="http://www.w3.org/1999/xlink" x="0px" y="0px" width="220px" height="220px"
	 viewBox="0 0 220 220" xml:space="preserve">
<metadata><?xpacket begin="﻿" id="W5M0MpCehiHzreSzNTczkc9d"?>
<x:xmpmeta xmlns:x="adobe:ns:meta/" x:xmptk="Adobe XMP Core 9.1-c002 79.a1cd12f, 2024/11/11-19:08:46        ">
   <rdf:RDF xmlns:rdf="http://www.w3.org/1999/02/22-rdf-syntax-ns#">
      <rdf:Description rdf:about=""
            xmlns:xmp="http://ns.adobe.com/xap/1.0/"
            xmlns:xmpMM="http://ns.adobe.com/xap/1.0/mm/"
            xmlns:stEvt="http://ns.adobe.com/xap/1.0/sType/ResourceEvent#">
         <xmp:Rating>5</xmp:Rating>
         <xmp:MetadataDate>2025-11-20T08:33:18-07:00</xmp:MetadataDate>
         <xmpMM:InstanceID>xmp.iid:f91f3fbe-44b8-4c1a-ae08-8edf72571b75</xmpMM:InstanceID>
         <xmpMM:DocumentID>xmp.did:f91f3fbe-44b8-4c1a-ae08-8edf72571b75</xmpMM:DocumentID>
         <xmpMM:OriginalDocumentID>xmp.did:f91f3fbe-44b8-4c1a-ae08-8edf72571b75</xmpMM:OriginalDocumentID>
         <xmpMM:History>
            <rdf:Seq>
               <rdf:li>
                  <rdf:Description>
                     <stEvt:action>saved</stEvt:action>
                     <stEvt:instanceID>xmp.iid:f91f3fbe-44b8-4c1a-ae08-8edf72571b75</stEvt:instanceID>
                     <stEvt:when>2025-11-20T08:33:18-07:00</stEvt:when>
                     <stEvt:softwareAgent>Adobe Bridge 2026</stEvt:softwareAgent>
                     <stEvt:changed>/metadata</stEvt:changed>
                  </rdf:Description>
               </rdf:li>
            </rdf:Seq>
         </xmpMM:History>
      </rdf:Description>
   </rdf:RDF>
</x:xmpmeta>
                                                                                                    
                                                                                                    
                                                                                                    
                                                                                                    
                                                                                                    
                                                                                                    
                                                                                                    
                                                                                                    
                                                                                                    
                                                                                                    
                                                                                                    
                                                                                                    
                                                                                                    
                                                                                                    
                                                                                                    
                                                                                                    
                                                                                                    
                                                                                                    
                                                                                                    
                                                                                                    
                           
<?xpacket end="w"?></metadata>
<g>
	<g id="land_and_houses">
		<path d="M213.5,127.8L213.5,127.8v-8.95l-2.35,0.45l-0.04,2.53c-1.04-1.12-2.41-2-4.05-2.47L80.91,83.4
			c-8.21-2.34-17.04-0.01-23.02,6.08L9.06,139.15c-0.08,0.08-0.16,0.17-0.24,0.26l-0.35-3.29l-1.96-0.16v10.27h0.05
			c0.34,3.42,2.63,6.61,6.39,7.69l125.79,36.22c8.22,2.37,17.08,0.04,23.08-6.06l49.14-49.99
			C212.72,132.29,213.53,130.03,213.5,127.8L213.5,127.8z"/>
		<path fill="#DEE200" d="M211.29,117.41c-0.62-2.36-2.4-4.18-4.75-4.85L80.39,76.61c-1.9-0.54-3.87-0.82-5.84-0.82
			c-2.82,0-5.58,0.55-8.19,1.64c-2.64,1.1-5,2.69-7.01,4.74l-48.84,49.67c-1.72,1.75-2.37,4.21-1.75,6.57
			c0.62,2.37,2.4,4.19,4.75,4.87L139.3,179.5c1.92,0.55,3.9,0.83,5.9,0.83c2.82,0,5.58-0.55,8.19-1.64c2.64-1.1,5-2.69,7.01-4.74
			l49.14-49.99C211.27,122.23,211.92,119.77,211.29,117.41L211.29,117.41z"/>
		<polygon fill="#DEE200" points="97.84,105 67.83,135.4 124.11,153.12 154.09,121.25 		"/>
		<path fill="#005B5B" d="M207.06,110.6L80.91,74.65c-2.11-0.6-4.26-0.89-6.39-0.89c-6.17,0-12.18,2.45-16.63,6.97l-7.73,7.86
			l-0.02-0.01l-3.59,3.65l0.02,0.01l-26.73,27.19l-0.02-0.01l-3.59,3.65l0.02,0.01l-7.2,7.33c-4.72,4.8-2.59,12.91,3.88,14.78
			l33.89,9.76l-0.01,0.01l4.36,1.25l0.01-0.01l52.62,15.15l-0.01,0.01l4.36,1.25l0.01-0.01l30.57,8.8c2.13,0.61,4.3,0.91,6.45,0.91
			c6.17,0,12.18-2.45,16.63-6.97l49.14-49.99C215.67,120.54,213.53,112.44,207.06,110.6L207.06,110.6z M155.43,124.49l39.29,11.64
			L168,163.32l-39.29-11.64L155.43,124.49z M123.84,150.4l-52.28-15.5l26.72-27.19l52.28,15.49L123.84,150.4L123.84,150.4z
			 M154.69,119.56l-52.28-15.49l14.69-14.94l52.74,15.03L154.69,119.56L154.69,119.56z M60.75,83.54c1.82-1.85,3.96-3.29,6.35-4.29
			c2.36-0.98,4.86-1.48,7.42-1.48c1.79,0,3.57,0.25,5.29,0.74l32.91,9.38l-14.65,14.9L54.52,89.88L60.75,83.54L60.75,83.54z
			 M50.93,93.53l43.56,12.91l-26.72,27.19L24.2,120.71L50.93,93.53L50.93,93.53z M14.05,141.32c-1.69-0.49-2.92-1.75-3.37-3.45
			s0-3.4,1.24-4.66l8.7-8.85l43.56,12.91l-14.16,14.41L14.05,141.32L14.05,141.32z M54.38,152.93l14.13-14.38l52.28,15.49
			L107,168.08L54.38,152.93L54.38,152.93z M158.95,172.52c-1.82,1.85-3.96,3.3-6.35,4.29c-2.36,0.98-4.86,1.48-7.42,1.48
			c-1.81,0-3.6-0.25-5.34-0.76l-28.49-8.2l13.77-14.01l39.29,11.64L158.95,172.52L158.95,172.52z M208.09,122.53l-9.79,9.96
			l-39.29-11.64l15.18-15.44l31.76,9.05c1.69,0.48,2.92,1.73,3.36,3.43C209.77,119.58,209.32,121.28,208.09,122.53L208.09,122.53z"
			/>
		<path fill="#00854C" d="M160.43,163.7L160.43,163.7l-3.02-9.23c-0.34-1.04-1.8-1.03-2.14,0l-3.01,9.23l0,0
			c-0.44,1.36,0.6,2.77,2.53,3.28c2.14,0.57,4.57-0.16,5.43-1.64C160.52,164.79,160.58,164.22,160.43,163.7L160.43,163.7z"/>
		<polygon fill="#745C00" points="151.33,155.13 150.06,156.43 146.32,167.44 146.32,176.42 154.92,167.67 154.92,158.69 		"/>
		<polygon fill="#745C00" points="124.5,170.1 146.32,176.39 146.32,167.39 124.5,161.36 		"/>
		<polygon fill="#F8FFB6" points="129.51,149.06 128.24,150.35 124.5,161.36 146.32,167.44 150.06,156.43 151.33,155.13 		"/>
		<polygon fill="#A09D25" points="95.95,75.97 94.66,77.29 90.85,88.49 90.85,97.63 99.6,88.73 99.6,79.59 		"/>
		<polygon fill="#A09D25" points="68.65,91.2 90.85,97.59 90.85,88.44 68.65,82.31 		"/>
		<polygon fill="#745C00" points="73.75,69.79 72.46,71.11 68.65,82.31 90.85,88.49 94.66,77.29 95.95,75.97 		"/>
		<path fill-rule="evenodd" clip-rule="evenodd" d="M71.99,97.59c0.16,0.42,0.76,0.4,0.89-0.03c0.8-2.65,2.9-6.58,2.9-6.58
			c4.23,7.58,2.26,16.31,0.63,21.01c0.19,0.22,0.37,0.46,0.55,0.72c0,0,1.84-1.71,2.1-3.92c0.04-0.35,0.44-0.51,0.72-0.29
			c0.59,0.47,1.34,1.33,1.28,2.63c4.26-14.38-3.45-22.66-3.45-22.66l7.31-1.78c0.58-0.14,0.83-0.81,0.51-1.31
			c-3-4.53-8.15-1.17-8.15-1.17c0.12-2.55,1.42-5.78,2.49-8.06c0.52-1.1-0.75-2.19-1.76-1.5c-4.18,2.83-5.21,8.62-5.21,8.62
			c-5.45-5.83-10.05-2.95-12.15-0.95c-0.54,0.51-0.24,1.43,0.5,1.51c5.44,0.63,8.88,2.98,8.88,2.98c-4.66,0.29-6.51,3.78-7.23,6.46
			c-0.29,1.06,0.9,1.91,1.82,1.3c3.47-2.31,7.76-3.97,7.76-3.97C70.57,92.8,71.33,95.86,71.99,97.59L71.99,97.59z"/>
		
			<linearGradient id="SVGID_1_" gradientUnits="userSpaceOnUse" x1="79.1115" y1="-2798.1868" x2="78.4853" y2="-2813.7625" gradientTransform="matrix(1 0 0 1 0 2920)">
			<stop  offset="0.29" style="stop-color:#E37400;stop-opacity:0"/>
			<stop  offset="0.33" style="stop-color:#E37400;stop-opacity:0.02"/>
			<stop  offset="0.38" style="stop-color:#E47700;stop-opacity:0.1"/>
			<stop  offset="0.45" style="stop-color:#E67B00;stop-opacity:0.21"/>
			<stop  offset="0.52" style="stop-color:#E88100;stop-opacity:0.37"/>
			<stop  offset="0.59" style="stop-color:#EB8900;stop-opacity:0.58"/>
			<stop  offset="0.67" style="stop-color:#EF9200;stop-opacity:0.83"/>
			<stop  offset="0.71" style="stop-color:#F29900"/>
		</linearGradient>
		<path fill-rule="evenodd" clip-rule="evenodd" fill="url(#SVGID_1_)" d="M73.83,115.91c-0.25-1.12-1-3.66-2.86-5.53
			c-0.25-0.25-0.09-0.68,0.26-0.71c1.29-0.11,3.75,0.13,5.73,3.03c0,0,1.84-1.71,2.1-3.92c0.04-0.35,0.44-0.51,0.72-0.29
			c0.69,0.55,1.6,1.62,1.18,3.31c0,0,2.53-2.29,5.05-2.33c0.38-0.01,0.56,0.47,0.27,0.71c-1.29,1.11-3.94,3.59-4.86,6.03
			c-0.11,0.3-0.4,0.5-0.73,0.49l-6.17-0.2C74.19,116.49,73.9,116.25,73.83,115.91L73.83,115.91z"/>
		<circle fill="#F29900" cx="77.92" cy="88.26" r="1.68"/>
		<circle fill="#FBBC04" cx="74.65" cy="91.49" r="1.68"/>
		<path fill="#009E7C" d="M177.82,143.01L177.82,143.01l-3.02-9.23c-0.34-1.04-1.8-1.03-2.14,0l-3.01,9.23l0,0
			c-0.44,1.36,0.6,2.77,2.53,3.28c2.14,0.57,4.57-0.16,5.43-1.64C177.92,144.11,177.98,143.54,177.82,143.01L177.82,143.01z"/>
		<path fill="#00854C" d="M183.04,109.46L183.04,109.46l-4.7-14.36c-0.53-1.61-2.81-1.61-3.33,0l-4.68,14.36l0,0
			c-0.69,2.11,0.93,4.3,3.94,5.11c3.33,0.89,7.11-0.25,8.45-2.55C183.19,111.17,183.28,110.28,183.04,109.46L183.04,109.46z"/>
		<path fill="#00854C" d="M169.5,149.28L169.5,149.28l-4-12.21c-0.45-1.37-2.39-1.37-2.83,0l-3.98,12.21l0,0
			c-0.58,1.8,0.79,3.66,3.35,4.34c2.83,0.76,6.05-0.21,7.18-2.17C169.63,150.74,169.71,149.98,169.5,149.28L169.5,149.28z"/>
		<path fill="#009E7C" d="M173.89,116.48L173.89,116.48l-3.21-9.79c-0.36-1.1-1.91-1.1-2.27,0l-3.19,9.8l0,0
			c-0.47,1.44,0.63,2.93,2.68,3.48c2.27,0.61,4.85-0.17,5.76-1.74C174,117.65,174.06,117.04,173.89,116.48z"/>
		<path fill="#009E7C" d="M44.83,118.33L44.83,118.33l-3.21-9.79c-0.36-1.1-1.91-1.1-2.27,0l-3.19,9.8l0,0
			c-0.47,1.44,0.63,2.93,2.68,3.48c2.27,0.61,4.85-0.17,5.76-1.74C44.93,119.5,44.99,118.9,44.83,118.33z"/>
		<path fill="#00854C" d="M53.69,111.85L53.69,111.85l-3.21-9.79c-0.36-1.1-1.91-1.1-2.27,0l-3.19,9.8l0,0
			c-0.47,1.44,0.63,2.93,2.68,3.48c2.27,0.61,4.85-0.17,5.76-1.74C53.8,113.02,53.86,112.41,53.69,111.85L53.69,111.85z"/>
		<path fill="#F8FFB6" d="M205.2,113.14v7.69l-8.38,8.53l-26.1-7.74v-6.59c0-0.73,0.19-1.45,0.55-2.09l4.78-8.42l3.3-2L205.2,113.14
			L205.2,113.14z"/>
		<path fill="#A09D25" d="M177.98,105.22c-0.34-0.79-1.25-1.04-1.92-0.7l7.77-7.6c0.56-1.04,2.06-0.97,2.53,0.11l3.32,7.72
			c0.27,0.64,1.11,0.8,1.61,0.32l5.51-5.39c0.55-1.03,2.05-0.97,2.52,0.1l5.88,13.36l-7.36,7.19c-0.5,0.48-1.32,0.33-1.6-0.31
			l-5.31-12.05c-0.47-1.07-1.97-1.13-2.52-0.1l-4.19,7.79c-0.39,0.73-1.46,0.69-1.79-0.08L177.98,105.22L177.98,105.22z"/>
		<polygon fill="#005B5B" points="188.2,116.12 191.11,116.98 191.11,121.1 188.2,120.24 		"/>
		<polygon fill="#F8FFB6" points="25.64,124.2 16.27,131.59 16.29,139.03 35.49,144.56 35.49,144.55 44.91,135.46 44.91,127.7 		"/>
		<path fill="#AE9D5E" d="M16.27,131.59l9.61-9.09l7.41-5.85c1.08-0.85,2.65-0.66,3.49,0.44l8.13,10.6l-9.42,9.09l-8.33-10.6
			c-0.84-1.09-2.41-1.29-3.49-0.44L16.27,131.59L16.27,131.59z"/>
		<path fill="#8B5666" d="M150.37,139.37c-1.07-0.17-2.18,0.21-2.47,0.85c-0.05,0.11-0.07,0.22-0.07,0.33v3.21
			c0,0.53,0.59,1.02,1.49,1.17c1.07,0.17,2.18-0.21,2.47-0.85c0.05-0.11,0.07-0.21,0.07-0.32v-3.21
			C151.86,140.01,151.27,139.51,150.37,139.37L150.37,139.37z"/>
		<circle fill="#009E7C" cx="149.88" cy="134.93" r="6.87"/>
		<path fill="#8B5666" d="M63.96,124.26c-1.07-0.17-2.18,0.21-2.47,0.85c-0.05,0.11-0.07,0.22-0.07,0.33v-0.01v3.22
			c0,0.53,0.59,1.02,1.49,1.17c1.07,0.17,2.18-0.21,2.47-0.85c0.05-0.11,0.07-0.21,0.07-0.32v-3.22c0,0,0,0,0,0.01
			C65.46,124.9,64.87,124.41,63.96,124.26L63.96,124.26z M61.74,126.08L61.74,126.08L61.74,126.08z M61.67,126.01L61.66,126
			C61.66,126,61.66,126,61.67,126.01z M61.6,125.92l-0.01-0.01C61.59,125.91,61.59,125.91,61.6,125.92z M61.43,125.53L61.43,125.53
			L61.43,125.53z M61.53,125.82L61.53,125.82L61.53,125.82z M61.49,125.73c0,0,0-0.01-0.01-0.01
			C61.49,125.72,61.49,125.73,61.49,125.73z M61.46,125.64c0,0,0-0.01,0-0.02C61.45,125.62,61.46,125.63,61.46,125.64z
			 M61.82,126.15c0,0,0.01,0.01,0.02,0.01C61.83,126.16,61.83,126.16,61.82,126.15z M62.58,126.53c0,0,0.02,0.01,0.03,0.01
			C62.6,126.53,62.59,126.53,62.58,126.53z M61.93,126.23c0,0,0.01,0.01,0.02,0.01C61.94,126.24,61.94,126.24,61.93,126.23z
			 M62.05,126.31L62.05,126.31L62.05,126.31z M62.16,126.37c0,0,0.01,0.01,0.02,0.01C62.18,126.37,62.17,126.37,62.16,126.37z
			 M62.29,126.43c0,0,0.01,0.01,0.02,0.01C62.31,126.43,62.3,126.43,62.29,126.43z M62.44,126.48L62.44,126.48
			C62.45,126.48,62.44,126.48,62.44,126.48z M62.74,126.57c0,0,0.02,0,0.03,0.01C62.76,126.57,62.75,126.57,62.74,126.57z
			 M65.45,125.52v-0.01C65.45,125.51,65.45,125.51,65.45,125.52z M65.41,125.68c0,0,0-0.01,0.01-0.02
			C65.42,125.66,65.41,125.67,65.41,125.68z M65.43,125.6c0,0,0-0.01,0.01-0.02C65.44,125.59,65.44,125.59,65.43,125.6z"/>
		<circle fill="#009E7C" cx="63.47" cy="119.82" r="6.87"/>
		<path fill="#00854C" d="M56.7,140.28L56.7,140.28l-4-12.21c-0.45-1.37-2.39-1.37-2.83,0l-3.98,12.21l0,0
			c-0.58,1.8,0.79,3.66,3.35,4.34c2.83,0.76,6.05-0.21,7.18-2.17C56.82,141.74,56.9,140.98,56.7,140.28L56.7,140.28z"/>
		<path fill="#009E7C" d="M49.26,144.71L49.26,144.71l-3.21-9.79c-0.36-1.1-1.91-1.1-2.27,0l-3.19,9.8l0,0
			c-0.47,1.44,0.63,2.93,2.68,3.48c2.27,0.61,4.85-0.17,5.76-1.74C49.36,145.88,49.43,145.28,49.26,144.71L49.26,144.71z"/>
		<polygon points="26.61,142 26.61,136.58 23.32,135.64 23.32,141.06 		"/>
		<polygon points="152.75,163.18 152.75,169.88 149.76,172.92 149.76,166.16 		"/>
	</g>
	<g id="main_house">
		<g>
			<g>
				<polygon fill="#9FD5FF" points="126.99,116.34 126.99,138.05 96.93,129.48 96.93,109.16 99.52,100.84 99.52,90.42 132.78,94.81 
					132.78,108.42 				"/>
				<path fill="#4667F4" d="M113.25,121.13v13.09l-6.5-1.89v-12.7c0-0.41,0.4-0.71,0.79-0.6l5.25,1.49
					C113.07,120.61,113.25,120.85,113.25,121.13L113.25,121.13z"/>
				<polygon fill="#ABABAB" points="96.93,128.89 101.81,133.89 123.98,140.44 126.99,137.45 				"/>
				<path d="M125.91,138.53v-4l0.36-0.35c0.05-0.05,0.08-0.12,0.08-0.19v-0.01c0-0.22-0.26-0.33-0.42-0.17l-2.62,2.58v0.74
					l0.53-0.53v3.81l-22.03-6.51v0.59l22.14,6.59l3.04-3.02v-0.59L125.91,138.53L125.91,138.53z M125.31,135.12v4l-0.88,0.87v-4
					L125.31,135.12z"/>
				<g>
					<polygon fill="#4667F4" points="120.1,144.1 114.26,142.56 114.26,137.07 120.1,138.61 					"/>
					<polygon fill="#4667F4" points="120.1,138.61 114.26,137.07 117.46,133.86 123.3,135.4 					"/>
					<polygon fill="#15173D" points="120.1,144.1 123.3,140.86 123.3,135.4 120.1,138.61 					"/>
				</g>
				<path fill="#BCE9FF" d="M111.9,122.88v4.7c0,0.27-0.26,0.47-0.53,0.39l-2.99-0.87c-0.18-0.05-0.3-0.21-0.3-0.39v-4.68
					c0-0.27,0.26-0.47,0.52-0.4l2.99,0.85C111.78,122.53,111.9,122.7,111.9,122.88L111.9,122.88z"/>
				<g>
					<ellipse fill="#DEF5FF" cx="118.88" cy="135.34" rx="3.12" ry="2.35"/>
					<path fill="#F3FCFF" d="M118.88,119.29c-1.48,0-2.69,3.63-2.69,8.12c0,0.98,0.06,1.92,0.16,2.79c0.16,1.29,0.42,2.42,0.75,3.31
						c0.5,0.26,1.11,0.42,1.77,0.42s1.27-0.15,1.77-0.42c0.33-0.89,0.6-2.02,0.75-3.31c0.11-0.87,0.16-1.81,0.16-2.79
						C121.57,122.93,120.37,119.29,118.88,119.29z"/>
					<ellipse fill="#DEF5FF" cx="118.88" cy="119.47" rx="3.12" ry="2.35"/>
				</g>
				<g>
					<polygon fill="#4667F4" points="98.61,132.24 92.77,130.7 95.97,127.49 101.81,129.03 					"/>
					<g>
						<polygon fill="#4667F4" points="98.61,137.73 92.77,136.19 92.77,130.7 98.61,132.24 						"/>
						<polygon fill="#15173D" points="98.61,137.73 101.81,134.49 101.81,129.03 98.61,132.24 						"/>
					</g>
				</g>
				<g>
					<ellipse fill="#DEF5FF" cx="97.39" cy="128.89" rx="3.12" ry="2.35"/>
					<path fill="#F3FCFF" d="M97.39,112.83c-1.48,0-2.69,3.63-2.69,8.12c0,0.98,0.06,1.92,0.16,2.79c0.16,1.29,0.42,2.42,0.75,3.31
						c0.5,0.26,1.11,0.42,1.77,0.42s1.27-0.15,1.77-0.42c0.33-0.89,0.6-2.02,0.75-3.31c0.11-0.87,0.16-1.81,0.16-2.79
						C100.07,116.47,98.87,112.83,97.39,112.83z"/>
					<ellipse fill="#DEF5FF" cx="97.39" cy="113.02" rx="3.12" ry="2.35"/>
				</g>
				<path fill="#4667F4" d="M127.44,101.28c-0.26,0-0.53-0.11-0.71-0.33l-4.11-4.88c-0.33-0.39-0.28-0.98,0.11-1.3
					c0.39-0.33,0.98-0.28,1.3,0.11l4.11,4.88c0.33,0.39,0.28,0.98-0.11,1.3C127.86,101.21,127.65,101.28,127.44,101.28
					L127.44,101.28z"/>
				<path fill="#4667F4" d="M119.93,99.23c-0.26,0-0.53-0.11-0.71-0.33l-4.11-4.88c-0.33-0.39-0.28-0.98,0.11-1.3
					c0.39-0.33,0.98-0.28,1.3,0.11l4.11,4.88c0.33,0.39,0.28,0.98-0.11,1.3C120.35,99.16,120.14,99.23,119.93,99.23L119.93,99.23z"
					/>
				<path fill="#4667F4" d="M112.42,97.26c-0.26,0-0.53-0.11-0.71-0.33l-4.11-4.88c-0.33-0.39-0.28-0.98,0.11-1.3
					c0.39-0.33,0.98-0.28,1.3,0.11l4.11,4.88c0.33,0.39,0.28,0.98-0.11,1.3C112.84,97.19,112.63,97.26,112.42,97.26L112.42,97.26z"
					/>
				<path fill="#4667F4" d="M104.91,94.75c-0.26,0-0.53-0.11-0.71-0.33l-4.11-4.88c-0.33-0.39-0.28-0.98,0.11-1.3
					c0.39-0.33,0.98-0.28,1.3,0.11l4.11,4.88c0.33,0.39,0.28,0.98-0.11,1.3C105.33,94.68,105.12,94.75,104.91,94.75L104.91,94.75z"
					/>
				<path fill="#005B5B" d="M106.5,132.44l-1.6,1.41c-0.22,0.19-0.14,0.55,0.14,0.63l5.43,1.62c0.21,0.06,0.43,0.01,0.59-0.14
					l1.62-1.5c0.19-0.18,0.12-0.5-0.13-0.57l-5.47-1.59C106.88,132.26,106.66,132.31,106.5,132.44L106.5,132.44z"/>
			</g>
			<g>
				
					<linearGradient id="SVGID_00000088117911327664254660000009290594762505972370_" gradientUnits="userSpaceOnUse" x1="125.6507" y1="-2807.7271" x2="128.8642" y2="-2805.7905" gradientTransform="matrix(1 0 0 1 0 2920)">
					<stop  offset="0" style="stop-color:#4667F4"/>
					<stop  offset="0.69" style="stop-color:#15173D"/>
				</linearGradient>
				<path fill="url(#SVGID_00000088117911327664254660000009290594762505972370_)" d="M132.43,106.9l-3.29-1.01l-7.86,13.07
					c0.18,0.09,0.34,0.21,0.49,0.34c0.67,0.56,2.07,1.52,2.82,0.66l7.84-13.03V106.9L132.43,106.9z"/>
				
					<linearGradient id="SVGID_00000062190899126997739980000009992309627231146428_" gradientUnits="userSpaceOnUse" x1="121.8791" y1="-2808.6543" x2="125.4889" y2="-2806.366" gradientTransform="matrix(1 0 0 1 0 2920)">
					<stop  offset="0" style="stop-color:#4667F4"/>
					<stop  offset="0.69" style="stop-color:#15173D"/>
				</linearGradient>
				<path fill="url(#SVGID_00000062190899126997739980000009992309627231146428_)" d="M125.85,104.88l-8.3,13.79
					c0.15,0.07,0.31,0.14,0.47,0.19c0.49,0.16,0.99,0.23,1.49,0.19c0.43-0.03,0.83-0.27,1.27-0.25c0.18,0.01,0.34,0.07,0.5,0.15
					l7.86-13.07L125.85,104.88L125.85,104.88z"/>
				
					<linearGradient id="SVGID_00000159433897568749798460000013858287436860368821_" gradientUnits="userSpaceOnUse" x1="128.3665" y1="-2806.6667" x2="131.3969" y2="-2804.5208" gradientTransform="matrix(1 0 0 1 0 2920)">
					<stop  offset="0.08" style="stop-color:#4667F4"/>
					<stop  offset="0.69" style="stop-color:#15173D"/>
				</linearGradient>
				<path fill="url(#SVGID_00000159433897568749798460000013858287436860368821_)" d="M132.43,106.92l-7.84,13.03l0.01-0.01
					l7.37-9.33c0.3-0.32,0.46-0.75,0.46-1.2L132.43,106.92L132.43,106.92z"/>
				
					<linearGradient id="SVGID_00000114054940328204448750000008627559542936699296_" gradientUnits="userSpaceOnUse" x1="92.4929" y1="-2817.4136" x2="95.4391" y2="-2815.8135" gradientTransform="matrix(1 0 0 1 0 2920)">
					<stop  offset="0" style="stop-color:#4667F4"/>
					<stop  offset="0.69" style="stop-color:#15173D"/>
				</linearGradient>
				<path fill="url(#SVGID_00000114054940328204448750000008627559542936699296_)" d="M99.2,96.73c-0.53-0.18-1.1-0.04-1.44,0.37
					l-7.83,12.72c-0.2,0.31-0.11,0.73,0.19,0.98c0.23,0.18,0.45,0.32,0.68,0.41l8.66-14.4L99.2,96.73L99.2,96.73z"/>
				
					<linearGradient id="SVGID_00000015325348225154694990000012258214907136918947_" gradientUnits="userSpaceOnUse" x1="95.3369" y1="-2816.3401" x2="98.9018" y2="-2814.2278" gradientTransform="matrix(1 0 0 1 0 2920)">
					<stop  offset="0" style="stop-color:#4667F4"/>
					<stop  offset="0.69" style="stop-color:#15173D"/>
				</linearGradient>
				<path fill="url(#SVGID_00000015325348225154694990000012258214907136918947_)" d="M99.46,96.81l-8.66,14.4
					c1.24,0.53,2.31-0.15,2.31-0.15c0.5-0.18,1.08-0.04,1.48,0.35l8.17-13.59L99.46,96.81L99.46,96.81z"/>
				
					<linearGradient id="SVGID_00000086672847240126676270000008867833485213826711_" gradientUnits="userSpaceOnUse" x1="98.9019" y1="-2815.5325" x2="102.3809" y2="-2813.5938" gradientTransform="matrix(1 0 0 1 0 2920)">
					<stop  offset="0" style="stop-color:#4667F4"/>
					<stop  offset="0.69" style="stop-color:#15173D"/>
				</linearGradient>
				<path fill="url(#SVGID_00000086672847240126676270000008867833485213826711_)" d="M102.76,97.82l-8.17,13.59
					c0.03,0.03,0.06,0.06,0.09,0.09c0.4,0.46,0.98,0.86,1.66,1.09c0.45,0.15,0.9,0.21,1.32,0.2l8.4-13.96L102.76,97.82L102.76,97.82
					z"/>
				
					<linearGradient id="SVGID_00000031918967891342824930000004337854583942303384_" gradientUnits="userSpaceOnUse" x1="102.0328" y1="-2814.4587" x2="105.7305" y2="-2812.522" gradientTransform="matrix(1 0 0 1 0 2920)">
					<stop  offset="0" style="stop-color:#4667F4"/>
					<stop  offset="0.69" style="stop-color:#15173D"/>
				</linearGradient>
				<path fill="url(#SVGID_00000031918967891342824930000004337854583942303384_)" d="M106.06,98.83l-8.4,13.96
					c0.31-0.01,0.61-0.06,0.87-0.16c0.54-0.2,1.17-0.02,1.57,0.44c0.23,0.27,0.53,0.51,0.87,0.72l8.39-13.95L106.06,98.83
					L106.06,98.83z"/>
				
					<linearGradient id="SVGID_00000018230471371840393070000008607025099027733917_" gradientUnits="userSpaceOnUse" x1="105.4732" y1="-2813.4734" x2="108.9503" y2="-2811.449" gradientTransform="matrix(1 0 0 1 0 2920)">
					<stop  offset="0" style="stop-color:#4667F4"/>
					<stop  offset="0.69" style="stop-color:#15173D"/>
				</linearGradient>
				<path fill="url(#SVGID_00000018230471371840393070000008607025099027733917_)" d="M109.36,99.83l-8.39,13.95
					c0.24,0.15,0.51,0.27,0.8,0.37c0.79,0.27,1.58,0.26,2.19,0.04c0.23-0.08,0.47-0.1,0.71-0.05l8-13.3L109.36,99.83L109.36,99.83z"
					/>
				
					<linearGradient id="SVGID_00000134220029007675832940000001996462772486597001_" gradientUnits="userSpaceOnUse" x1="112.0411" y1="-2811.4309" x2="115.5182" y2="-2809.4512" gradientTransform="matrix(1 0 0 1 0 2920)">
					<stop  offset="0" style="stop-color:#4667F4"/>
					<stop  offset="0.69" style="stop-color:#15173D"/>
				</linearGradient>
				<path fill="url(#SVGID_00000134220029007675832940000001996462772486597001_)" d="M115.95,101.85l-8.41,13.97
					c0.67,0.16,1.3,0.13,1.82-0.06c0.54-0.2,1.17-0.02,1.57,0.44c0.05,0.06,0.11,0.13,0.18,0.19l8.14-13.53L115.95,101.85
					L115.95,101.85z"/>
				
					<linearGradient id="SVGID_00000050630984790387687500000005253847939792382368_" gradientUnits="userSpaceOnUse" x1="115.4605" y1="-2810.6157" x2="118.8946" y2="-2808.5913" gradientTransform="matrix(1 0 0 1 0 2920)">
					<stop  offset="0" style="stop-color:#4667F4"/>
					<stop  offset="0.69" style="stop-color:#15173D"/>
				</linearGradient>
				<path fill="url(#SVGID_00000050630984790387687500000005253847939792382368_)" d="M119.25,102.86l-8.14,13.53
					c0.39,0.38,0.9,0.7,1.49,0.9c0.63,0.21,1.25,0.25,1.79,0.15l8.16-13.57L119.25,102.86z"/>
				
					<linearGradient id="SVGID_00000137845194741106570430000017326415813396721851_" gradientUnits="userSpaceOnUse" x1="118.6094" y1="-2809.6958" x2="122.2622" y2="-2807.6265" gradientTransform="matrix(1 0 0 1 0 2920)">
					<stop  offset="0" style="stop-color:#4667F4"/>
					<stop  offset="0.69" style="stop-color:#15173D"/>
				</linearGradient>
				<path fill="url(#SVGID_00000137845194741106570430000017326415813396721851_)" d="M122.55,103.87l-8.16,13.57
					c0.14-0.03,0.27-0.06,0.4-0.11c0.54-0.2,1.17-0.02,1.57,0.44c0.3,0.35,0.71,0.67,1.19,0.9l8.3-13.79L122.55,103.87
					L122.55,103.87z"/>
				
					<linearGradient id="SVGID_00000016788326541339220420000001433458370365466288_" gradientUnits="userSpaceOnUse" x1="108.9785" y1="-2812.7268" x2="112.2368" y2="-2810.7471" gradientTransform="matrix(1 0 0 1 0 2920)">
					<stop  offset="0" style="stop-color:#4667F4"/>
					<stop  offset="0.69" style="stop-color:#15173D"/>
				</linearGradient>
				<path fill-rule="evenodd" clip-rule="evenodd" fill="url(#SVGID_00000016788326541339220420000001433458370365466288_)" d="
					M112.65,100.84l-8,13.3c0.32,0.06,0.63,0.23,0.86,0.49c0.4,0.46,0.98,0.86,1.66,1.09c0.12,0.04,0.24,0.07,0.37,0.1l8.41-13.97
					L112.65,100.84z"/>
			</g>
			<path fill="#47A1FB" d="M138.56,91.26v-1.14c0-0.14-0.02-0.27-0.05-0.4l-6.08,9.83v3.97l-9.22,15.4
				c-0.25,0.44-0.1,1.01,0.34,1.26c0.39,0.22,0.88,0.13,1.17-0.22l2.26-2.46v20.53l11.55-11.48L138.56,91.26L138.56,91.26
				L138.56,91.26z"/>
		</g>
		<g>
			
				<linearGradient id="SVGID_00000081621247606513164960000013262767650921514903_" gradientUnits="userSpaceOnUse" x1="133.2515" y1="-2826.5361" x2="138.2054" y2="-2823.3582" gradientTransform="matrix(1 0 0 1 0 2920)">
				<stop  offset="0.08" style="stop-color:#4667F4"/>
				<stop  offset="0.69" style="stop-color:#15173D"/>
			</linearGradient>
			<path fill="url(#SVGID_00000081621247606513164960000013262767650921514903_)" d="M132.49,99.49c0.36-0.55,5.57-6.92,5.57-6.92
				c0.31-0.35,0.5-0.84,0.5-1.32v-1.14c0.01-0.66-0.42-1.21-1.03-1.42l-6.55,10.89C131.46,99.79,132.13,99.89,132.49,99.49
				L132.49,99.49z"/>
			
				<linearGradient id="SVGID_00000047776222885081745280000016348037501676046253_" gradientUnits="userSpaceOnUse" x1="98.0173" y1="-2837.1931" x2="101.6794" y2="-2835.0898" gradientTransform="matrix(1 0 0 1 0 2920)">
				<stop  offset="0.03" style="stop-color:#4667F4"/>
				<stop  offset="0.69" style="stop-color:#15173D"/>
			</linearGradient>
			<path fill="url(#SVGID_00000047776222885081745280000016348037501676046253_)" d="M104.03,79.2c-0.75-0.23-1.52,0.05-1.9,0.69
				c-1.51,2.41-2.82,4.83-4.37,7.22c-0.63,0.96-0.52,1.93,0.07,2.68l6.34-10.54L104.03,79.2L104.03,79.2z"/>
			
				<linearGradient id="SVGID_00000110447100298648417730000005356882601075232440_" gradientUnits="userSpaceOnUse" x1="101.0806" y1="-2835.7715" x2="104.7428" y2="-2833.7412" gradientTransform="matrix(1 0 0 1 0 2920)">
				<stop  offset="0.03" style="stop-color:#4667F4"/>
				<stop  offset="0.69" style="stop-color:#15173D"/>
			</linearGradient>
			<path fill="url(#SVGID_00000110447100298648417730000005356882601075232440_)" d="M104.17,79.24l-6.34,10.54
				c0.38,0.48,0.96,0.87,1.67,1.11c0.5,0.17,1,0.23,1.46,0.19l6.56-10.9L104.17,79.24L104.17,79.24z"/>
			
				<linearGradient id="SVGID_00000049196522072685143110000014334207398150427010_" gradientUnits="userSpaceOnUse" x1="104.5816" y1="-2834.6445" x2="107.9166" y2="-2832.7229" gradientTransform="matrix(1 0 0 1 0 2920)">
				<stop  offset="0.03" style="stop-color:#4667F4"/>
				<stop  offset="0.69" style="stop-color:#15173D"/>
			</linearGradient>
			<path fill="url(#SVGID_00000049196522072685143110000014334207398150427010_)" d="M107.51,80.19l-6.56,10.9
				c0.26-0.02,0.51-0.07,0.73-0.15c0.54-0.2,1.17-0.02,1.57,0.44c0.26,0.3,0.58,0.56,0.97,0.78l6.63-11.02L107.51,80.19
				L107.51,80.19z"/>
			
				<linearGradient id="SVGID_00000168082901762447737900000005574875891731358901_" gradientUnits="userSpaceOnUse" x1="107.8163" y1="-2833.6558" x2="111.2242" y2="-2831.7695" gradientTransform="matrix(1 0 0 1 0 2920)">
				<stop  offset="0.03" style="stop-color:#4667F4"/>
				<stop  offset="0.69" style="stop-color:#15173D"/>
			</linearGradient>
			<path fill="url(#SVGID_00000168082901762447737900000005574875891731358901_)" d="M110.84,81.13l-6.63,11.02
				c0.22,0.12,0.45,0.23,0.7,0.31c0.79,0.27,1.58,0.26,2.19,0.04c0.27-0.1,0.56-0.1,0.83-0.03l6.26-10.4L110.84,81.13L110.84,81.13z
				"/>
			
				<linearGradient id="SVGID_00000173148694106928788300000016648729537493581731_" gradientUnits="userSpaceOnUse" x1="111.2154" y1="-2833.0149" x2="114.6794" y2="-2830.9565" gradientTransform="matrix(1 0 0 1 0 2920)">
				<stop  offset="0.03" style="stop-color:#4667F4"/>
				<stop  offset="0.69" style="stop-color:#15173D"/>
			</linearGradient>
			<path fill="url(#SVGID_00000173148694106928788300000016648729537493581731_)" d="M114.18,82.08l-6.26,10.4
				c0.28,0.07,0.54,0.24,0.74,0.47c0.4,0.46,0.98,0.86,1.66,1.09c0.16,0.05,0.33,0.1,0.48,0.13l6.7-11.14L114.18,82.08L114.18,82.08
				z"/>
			
				<linearGradient id="SVGID_00000049206460028130357120000007358535147467427997_" gradientUnits="userSpaceOnUse" x1="114.4244" y1="-2831.7539" x2="117.8323" y2="-2829.7612" gradientTransform="matrix(1 0 0 1 0 2920)">
				<stop  offset="0.03" style="stop-color:#4667F4"/>
				<stop  offset="0.69" style="stop-color:#15173D"/>
			</linearGradient>
			<path fill="url(#SVGID_00000049206460028130357120000007358535147467427997_)" d="M117.51,83.02l-6.7,11.14
				c0.62,0.13,1.22,0.09,1.7-0.09c0.54-0.2,1.17-0.02,1.57,0.44c0.08,0.09,0.17,0.18,0.26,0.27l6.5-10.81L117.51,83.02L117.51,83.02
				z"/>
			
				<linearGradient id="SVGID_00000121976441977159632830000002524805336460566192_" gradientUnits="userSpaceOnUse" x1="117.8849" y1="-2830.9065" x2="121.2573" y2="-2828.9492" gradientTransform="matrix(1 0 0 1 0 2920)">
				<stop  offset="0.03" style="stop-color:#4667F4"/>
				<stop  offset="0.69" style="stop-color:#15173D"/>
			</linearGradient>
			<path fill="url(#SVGID_00000121976441977159632830000002524805336460566192_)" d="M120.85,83.97l-6.5,10.81
				c0.38,0.35,0.85,0.64,1.4,0.82c0.69,0.23,1.37,0.26,1.94,0.12l6.5-10.81L120.85,83.97L120.85,83.97z"/>
			
				<linearGradient id="SVGID_00000012443619767111933440000017578670133721418137_" gradientUnits="userSpaceOnUse" x1="121.2094" y1="-2830.0352" x2="124.6547" y2="-2828.0051" gradientTransform="matrix(1 0 0 1 0 2920)">
				<stop  offset="0.03" style="stop-color:#4667F4"/>
				<stop  offset="0.69" style="stop-color:#15173D"/>
			</linearGradient>
			<path fill="url(#SVGID_00000012443619767111933440000017578670133721418137_)" d="M124.19,84.91l-6.5,10.81
				c0.09-0.02,0.17-0.05,0.25-0.07c0.54-0.2,1.17-0.02,1.57,0.44c0.33,0.38,0.77,0.71,1.3,0.94l6.72-11.17L124.19,84.91
				L124.19,84.91z"/>
			
				<linearGradient id="SVGID_00000078761582493644424030000017572922531939335830_" gradientUnits="userSpaceOnUse" x1="124.4343" y1="-2828.8958" x2="127.7338" y2="-2826.9741" gradientTransform="matrix(1 0 0 1 0 2920)">
				<stop  offset="0.03" style="stop-color:#4667F4"/>
				<stop  offset="0.69" style="stop-color:#15173D"/>
			</linearGradient>
			<path fill="url(#SVGID_00000078761582493644424030000017572922531939335830_)" d="M127.53,85.86l-6.72,11.17
				c0.12,0.05,0.24,0.1,0.36,0.14c0.79,0.27,1.58,0.26,2.19,0.04c0.39-0.14,0.81-0.09,1.17,0.12l6.33-10.52L127.53,85.86
				L127.53,85.86z"/>
			
				<linearGradient id="SVGID_00000084521636683014277350000003643639853629702815_" gradientUnits="userSpaceOnUse" x1="127.7796" y1="-2828.2048" x2="131.4773" y2="-2826.1018" gradientTransform="matrix(1 0 0 1 0 2920)">
				<stop  offset="0.08" style="stop-color:#4667F4"/>
				<stop  offset="0.69" style="stop-color:#15173D"/>
			</linearGradient>
			<path fill="url(#SVGID_00000084521636683014277350000003643639853629702815_)" d="M130.86,86.8l-6.33,10.52
				c0.15,0.08,0.28,0.19,0.39,0.32c0.4,0.46,0.98,0.86,1.66,1.09c0.3,0.1,0.6,0.16,0.88,0.19l6.73-11.18L130.86,86.8L130.86,86.8z"
				/>
			
				<linearGradient id="SVGID_00000147204697316024759910000007666220963345150138_" gradientUnits="userSpaceOnUse" x1="131.1801" y1="-2826.9758" x2="134.6965" y2="-2824.8728" gradientTransform="matrix(1 0 0 1 0 2920)">
				<stop  offset="0.08" style="stop-color:#4667F4"/>
				<stop  offset="0.69" style="stop-color:#15173D"/>
			</linearGradient>
			<path fill="url(#SVGID_00000147204697316024759910000007666220963345150138_)" d="M137.45,88.67l-3.25-0.92l-6.73,11.18
				c0.49,0.05,0.96-0.01,1.35-0.16c0.36-0.14,0.77-0.1,1.12,0.09c0.33,0.18,0.59,0.5,0.94,0.68c0.03,0.02,0.07,0.03,0.1,0.05
				l6.55-10.89C137.51,88.68,137.48,88.67,137.45,88.67L137.45,88.67z"/>
		</g>
	</g>
	<g id="plus_code">
		<g>
			<path fill="#4285F4" d="M155.04,28.94h-70.1c-5.77,0-10.45,4.68-10.45,10.45v20.59c0,5.77,4.68,10.45,10.45,10.45h25.71
				c2.77,0,3.59,1.24,4.18,2.29c0.59,1.04,1.5,2.59,2.63,4.63c0.61,1.1,1.05,1.73,1.46,2.08c0.07,0.06,0.13,0.11,0.21,0.16
				c0.02,0.01,0.05,0.03,0.07,0.04c0.01,0,0.02,0.01,0.02,0.01c0.14,0.07,0.27,0.12,0.42,0.15c0.01,0,0.01,0,0.02,0
				c0.03,0.01,0.07,0.01,0.1,0.01s0.06,0.01,0.08,0.01c0.03,0,0.06,0,0.09,0c0.01,0,0.01,0,0.02,0s0.02,0,0.02,0
				c0.01,0,0.02,0,0.02,0c0.01,0,0.01,0,0.02,0c0.03,0,0.06,0,0.09,0s0.06,0,0.08-0.01c0.04,0,0.07-0.01,0.1-0.01
				c0.01,0,0.01,0,0.02,0c0.14-0.03,0.28-0.08,0.42-0.15c0.01,0,0.02-0.01,0.02-0.01c0.02-0.01,0.05-0.03,0.07-0.04
				c0.07-0.05,0.14-0.1,0.21-0.16c0.41-0.35,0.85-0.99,1.46-2.08c1.13-2.04,2.04-3.59,2.63-4.63s1.41-2.29,4.18-2.29H155
				c5.77,0,10.45-4.68,10.45-10.45V39.39C165.49,33.62,160.81,28.94,155.04,28.94L155.04,28.94z"/>
			<g>
				<path fill="#FFFFFF" d="M82.36,44.24h1.85l2.43,7.19l0.39,1.23h0.09l0.39-1.23l2.54-7.19h1.87l-3.97,10.89h-1.78L82.36,44.24
					L82.36,44.24z"/>
				<path fill="#FFFFFF" d="M93.4,54.56l4.8-8.62l-0.03-0.05H92.9v-1.65h7.22v1.75l-5.22,9.38L93.4,54.56L93.4,54.56z"/>
				<path fill="#FFFFFF" d="M103.18,55.05c-0.52-0.22-0.98-0.55-1.37-0.99c-0.39-0.44-0.67-0.98-0.83-1.63l1.57-0.62
					c0.14,0.57,0.4,1.03,0.78,1.38c0.38,0.35,0.84,0.53,1.38,0.53c0.6,0,1.1-0.19,1.49-0.56c0.39-0.38,0.58-0.86,0.58-1.45
					s-0.19-1.08-0.57-1.47s-0.87-0.58-1.48-0.58c-0.35,0-0.67,0.07-0.95,0.22c-0.29,0.15-0.53,0.36-0.73,0.62l-1.73-0.76l0.67-5.48
					h5.9v1.59h-4.45l-0.4,2.86l0.1,0.02c0.55-0.43,1.2-0.65,1.94-0.65c0.62,0,1.19,0.15,1.73,0.46c0.53,0.31,0.96,0.74,1.28,1.29
					s0.48,1.18,0.48,1.88s-0.16,1.33-0.49,1.89c-0.33,0.56-0.78,1-1.36,1.32s-1.23,0.48-1.95,0.48
					C104.22,55.37,103.7,55.27,103.18,55.05L103.18,55.05z"/>
				<path fill="#FFFFFF" d="M109.41,44.24h1.85l2.43,7.19l0.39,1.23h0.09l0.39-1.23l2.54-7.19h1.87L115,55.13h-1.78L109.41,44.24
					L109.41,44.24z"/>
				<path fill="#FFFFFF" d="M126.91,50.64h-2.68v2.68h-1.45v-2.68h-2.68v-1.43h2.68v-2.68h1.45v2.68h2.68V50.64z"/>
				<path fill="#FFFFFF" d="M130.87,54.94c-0.58-0.29-1.03-0.68-1.36-1.18s-0.49-1.06-0.49-1.66s0.16-1.12,0.48-1.58
					s0.74-0.82,1.25-1.07v-0.1c-0.4-0.27-0.73-0.6-0.99-0.99c-0.25-0.4-0.38-0.83-0.38-1.3c0-0.57,0.15-1.09,0.44-1.56
					s0.7-0.84,1.22-1.1c0.52-0.27,1.11-0.4,1.77-0.4s1.25,0.13,1.77,0.4s0.93,0.63,1.23,1.1s0.44,0.99,0.44,1.56
					c0,0.47-0.13,0.9-0.38,1.3c-0.25,0.4-0.58,0.73-0.99,0.99v0.1c0.51,0.25,0.92,0.61,1.25,1.07c0.32,0.46,0.48,0.99,0.48,1.58
					s-0.16,1.16-0.49,1.66s-0.78,0.9-1.37,1.18s-1.23,0.43-1.95,0.43S131.45,55.23,130.87,54.94L130.87,54.94z M134.29,53.24
					c0.39-0.32,0.58-0.74,0.58-1.26c0-0.52-0.2-0.93-0.59-1.25c-0.39-0.33-0.88-0.49-1.46-0.49s-1.05,0.16-1.45,0.49
					c-0.39,0.33-0.59,0.75-0.59,1.25s0.19,0.94,0.58,1.26s0.87,0.48,1.45,0.48C133.4,53.72,133.9,53.56,134.29,53.24L134.29,53.24z
					 M134.05,48.23c0.32-0.28,0.48-0.65,0.48-1.12s-0.16-0.82-0.48-1.09c-0.32-0.27-0.73-0.41-1.23-0.41s-0.89,0.13-1.22,0.41
					c-0.32,0.27-0.48,0.63-0.48,1.09s0.16,0.83,0.48,1.11c0.32,0.29,0.73,0.43,1.22,0.43C133.31,48.65,133.73,48.51,134.05,48.23
					L134.05,48.23z"/>
				<path fill="#FFFFFF" d="M145.94,54.81c-0.78,0.37-1.62,0.56-2.51,0.56c-1.05,0-2.01-0.25-2.87-0.75s-1.53-1.19-2.02-2.06
					c-0.49-0.87-0.74-1.83-0.74-2.87s0.24-2,0.74-2.87c0.49-0.87,1.16-1.55,2.02-2.06c0.86-0.51,1.81-0.76,2.87-0.76
					c1.05,0,2.01,0.25,2.87,0.76s1.54,1.19,2.03,2.06s0.74,1.82,0.74,2.86c0,0.84-0.16,1.63-0.49,2.36s-0.78,1.36-1.37,1.89
					l0.81,1.2L146.73,56L145.94,54.81L145.94,54.81z M145,53.42l-1.25-1.85l1.31-0.88l1.22,1.85c0.34-0.36,0.61-0.78,0.8-1.26
					c0.19-0.49,0.28-1.02,0.28-1.6c0-0.79-0.18-1.49-0.53-2.1c-0.35-0.61-0.82-1.09-1.42-1.44c-0.6-0.34-1.26-0.52-1.98-0.52
					s-1.38,0.17-1.97,0.52c-0.59,0.34-1.06,0.82-1.41,1.44c-0.35,0.61-0.53,1.32-0.53,2.1s0.18,1.49,0.53,2.11
					c0.35,0.61,0.82,1.09,1.41,1.44c0.59,0.34,1.25,0.52,1.97,0.52C143.97,53.75,144.49,53.64,145,53.42L145,53.42z"/>
				<path fill="#FFFFFF" d="M151.62,54.66c-0.7-0.47-1.18-1.16-1.45-2.07l1.62-0.67c0.15,0.56,0.41,1,0.77,1.3
					c0.36,0.31,0.81,0.46,1.33,0.46s0.99-0.16,1.37-0.48c0.38-0.32,0.57-0.73,0.57-1.23s-0.2-0.92-0.6-1.25
					c-0.4-0.32-0.9-0.48-1.51-0.48h-0.94v-1.6h0.84c0.52,0,0.96-0.14,1.31-0.42c0.36-0.28,0.53-0.66,0.53-1.15
					c0-0.43-0.16-0.78-0.48-1.04c-0.32-0.26-0.72-0.39-1.21-0.39s-0.86,0.13-1.14,0.38s-0.48,0.57-0.61,0.94l-1.6-0.67
					c0.21-0.6,0.6-1.14,1.18-1.6c0.57-0.46,1.3-0.69,2.19-0.69c0.66,0,1.25,0.13,1.77,0.38s0.93,0.61,1.23,1.06s0.44,0.96,0.44,1.52
					s-0.14,1.06-0.41,1.45c-0.27,0.4-0.62,0.7-1.02,0.91v0.1c0.53,0.22,0.96,0.56,1.3,1.02s0.51,1,0.51,1.64s-0.16,1.2-0.48,1.7
					c-0.32,0.5-0.77,0.89-1.34,1.18s-1.21,0.43-1.91,0.43C153.08,55.37,152.32,55.14,151.62,54.66L151.62,54.66z"/>
			</g>
		</g>
	</g>
	<g id="clouds">
		<g>
			<path fill="#BCE9FF" d="M19.67,100.08c-0.02-2.55,2.04-4.63,4.59-4.65c0.81-0.01,1.56,0.2,2.23,0.56
				c5.01,2.67,11.24,0.92,14.13-3.97c1.19-2.01,3.37-3.37,5.88-3.39c3.59-0.02,6.54,2.71,6.88,6.2c0.26,2.62,2.54,4.58,5.17,4.43
				c0.04,0,0.08,0,0.13,0c1.43-0.01,2.6,1.14,2.61,2.58c0.01,2.43-2.29,2.6-4.14,2.61c-10.45,0.07-20.89,0.14-31.34,0.21
				c-1.45,0.01-3.1,0.01-4.31-0.91C20.37,102.89,19.68,101.5,19.67,100.08L19.67,100.08z"/>
			<path fill="#BCE9FF" d="M157.6,77.19c0.98,0,1.9,0.26,2.7,0.71l0,0c0.74,0.42,1.68,0.16,2.11-0.58c1.26-2.24,3.65-3.75,6.4-3.75
				c3.59,0,6.57,2.57,7.21,5.97c0.36,1.76,2.06,2.9,3.82,2.56l0,0c0.19-0.04,0.39-0.06,0.59-0.06c1.71,0,3.1,1.39,3.1,3.1
				s-1.39,3.1-3.1,3.1H157.6l0.12-0.08c-0.04,0-0.08,0-0.12,0c-3.03,0-5.49-2.46-5.49-5.49S154.56,77.19,157.6,77.19L157.6,77.19z"
				/>
		</g>
	</g>
</g>
</svg>
