<?xml version="1.0" encoding="utf-8"?>
<!-- Generator: Adobe Illustrator 30.0.0, SVG Export Plug-In . SVG Version: 9.03 Build 0)  -->
<svg version="1.1" baseProfile="basic" id="Layer_1"
	 xmlns="http://www.w3.org/2000/svg" xmlns:xlink="http://www.w3.org/1999/xlink" x="0px" y="0px" width="260px" height="260px"
	 viewBox="0 0 260 260" xml:space="preserve">
<g>
	<g id="Land_00000129901855334146455420000006022189231904657582_">
		<g>
			<path d="M225.3,177.01c-0.05,4.58-1.85,8.99-5.18,12.38l-35.02,35.62c-3.38,3.44-7.35,6.12-11.79,7.96
				c-4.39,1.83-9.02,2.75-13.77,2.75c-3.35,0-6.68-0.47-9.91-1.4L48.2,205.15c-6.38-1.84-11.2-6.77-12.88-13.19
				c-0.4-1.52-0.6-3.05-0.62-4.57l-3.01-0.26v12.63c-0.02,0.57-0.02,1.15,0,1.72l0,0v0c0.36,8.81,6.05,17.24,15.67,20.01
				l101.43,29.19c13.7,3.94,28.47,0.06,38.46-10.1l35.02-35.62c4.09-4.16,6.01-9.38,6.05-14.52l0,0v-13.8
				C228.32,176.63,226.65,176.82,225.3,177.01L225.3,177.01z"/>
			<path fill="#DEE200" d="M159.54,235.73c-3.35,0-6.68-0.47-9.91-1.4L48.2,205.15c-6.38-1.84-11.2-6.77-12.88-13.19
				c-1.69-6.42,0.08-13.08,4.74-17.81l31.27-31.8c4.01-4.08,8.71-7.26,13.99-9.45c5.21-2.17,10.71-3.27,16.34-3.27
				c3.93,0,7.85,0.55,11.64,1.63l98.89,28.14c6.19,1.76,10.86,6.52,12.5,12.74c1.64,6.22-0.07,12.67-4.57,17.25l-35.02,35.62
				c-3.38,3.44-7.35,6.12-11.79,7.96C168.93,234.81,164.29,235.73,159.54,235.73L159.54,235.73z"/>
			<path fill="#005B5B" d="M213.02,156.49l-98.89-28.14c-4.11-1.17-8.31-1.74-12.47-1.74c-12.04,0-23.8,4.78-32.49,13.62
				l-31.27,31.8c-11.52,11.71-6.33,31.48,9.46,36.02l101.43,29.19c3.55,1.02,7.16,1.52,10.74,1.52c10.27,0,20.31-4.08,27.72-11.62
				l35.02-35.62C233.48,180.1,228.4,160.86,213.02,156.49L213.02,156.49z M73.48,144.46c3.72-3.79,8.1-6.74,13-8.78
				c4.84-2.01,9.95-3.03,15.19-3.03l0,0c3.65,0,7.29,0.51,10.81,1.51l56.77,16.16l-40.45,41.15l-78.62-23.3L73.48,144.46
				L73.48,144.46z M42,198c-1.79-1.89-3.09-4.25-3.76-6.81c-0.67-2.56-0.7-5.25-0.07-7.78c0.67-2.7,2.03-5.1,4.05-7.15l3.16-3.22
				l78.62,23.3l-21.05,21.41l-53.91-15.51C46.27,201.45,43.9,200.02,42,198L42,198z M182.95,222.9c-3.09,3.15-6.73,5.6-10.8,7.29
				c-4.02,1.67-8.27,2.52-12.62,2.52c-3.07,0-6.12-0.43-9.07-1.28l-40.91-11.77l21-21.37l59.31,17.57L182.95,222.9L182.95,222.9z
				 M221.86,180.39c-0.64,2.59-1.95,4.91-3.89,6.88l-23.31,23.71l-59.31-17.57l40.51-41.21l35.5,10.1c2.66,0.76,4.94,2.12,6.78,4.06
				c1.72,1.82,2.98,4.08,3.63,6.54C222.43,175.37,222.46,177.96,221.86,180.39L221.86,180.39z"/>
		</g>
	</g>
	<g id="farmhouse_and_trees">
		<g>
			<path fill="#009E7C" d="M209.71,180.05L209.71,180.05l-4.56-13.91c-0.51-1.56-2.72-1.56-3.23,0l-4.53,13.91l0,0
				c-0.66,2.05,0.9,4.17,3.81,4.95c3.22,0.87,6.88-0.24,8.18-2.47C209.85,181.71,209.94,180.85,209.71,180.05L209.71,180.05z"/>
			<path fill="#00854C" d="M197.17,189.5L197.17,189.5l-6.03-18.4c-0.68-2.06-3.59-2.06-4.27,0l-6,18.4l0,0
				c-0.88,2.71,1.19,5.51,5.04,6.54c4.26,1.14,9.11-0.32,10.82-3.27C197.36,191.69,197.48,190.55,197.17,189.5L197.17,189.5z"/>
			<path fill="#00854C" d="M183.5,211.21L183.5,211.21l-4.56-13.91c-0.51-1.56-2.72-1.56-3.23,0l-4.53,13.91l0,0
				c-0.66,2.05,0.9,4.17,3.81,4.95c3.22,0.87,6.88-0.24,8.18-2.47C183.65,212.86,183.74,212.01,183.5,211.21L183.5,211.21z"/>
			<path fill="#8B5666" d="M168.35,174.56c-1.62-0.26-3.28,0.31-3.72,1.29c-0.07,0.16-0.11,0.33-0.1,0.49c0-0.01,0-0.01,0-0.02v4.84
				c0,0.8,0.89,1.54,2.25,1.76c1.62,0.26,3.28-0.31,3.72-1.29c0.07-0.16,0.11-0.32,0.11-0.48v-4.84c0,0,0,0.01,0,0.01
				C170.6,175.52,169.71,174.78,168.35,174.56L168.35,174.56z M165,177.31C165,177.31,164.99,177.3,165,177.31
				C164.99,177.3,164.99,177.3,165,177.31z M164.89,177.19c0,0-0.01-0.01-0.02-0.02C164.87,177.18,164.88,177.18,164.89,177.19z
				 M164.78,177.06c0,0-0.01-0.02-0.02-0.02C164.77,177.04,164.77,177.05,164.78,177.06z M164.53,176.46c0,0,0,0.01,0,0.01
				C164.53,176.47,164.53,176.47,164.53,176.46z M164.68,176.91C164.68,176.91,164.68,176.9,164.68,176.91
				C164.68,176.9,164.68,176.91,164.68,176.91z M164.62,176.78c0,0-0.01-0.02-0.01-0.02C164.61,176.76,164.61,176.77,164.62,176.78z
				 M164.57,176.63c0,0-0.01-0.02-0.01-0.02C164.56,176.62,164.56,176.63,164.57,176.63z M165.12,177.41c0,0,0.02,0.01,0.02,0.02
				C165.14,177.43,165.13,177.42,165.12,177.41z M166.26,177.97c0,0,0.02,0.01,0.04,0.01C166.28,177.98,166.27,177.98,166.26,177.97
				z M165.28,177.53c0,0,0.02,0.01,0.03,0.02C165.3,177.54,165.29,177.54,165.28,177.53z M165.46,177.64
				C165.46,177.64,165.46,177.64,165.46,177.64C165.46,177.65,165.46,177.65,165.46,177.64z M165.63,177.73c0,0,0.02,0.01,0.03,0.02
				C165.65,177.74,165.64,177.74,165.63,177.73z M165.83,177.82c0,0,0.02,0.01,0.03,0.01C165.85,177.83,165.84,177.83,165.83,177.82
				z M166.05,177.91C166.05,177.91,166.05,177.91,166.05,177.91C166.06,177.91,166.05,177.91,166.05,177.91z M166.5,178.03
				c0,0,0.03,0.01,0.04,0.01C166.53,178.04,166.51,178.04,166.5,178.03z M170.58,176.45c0,0,0-0.01,0-0.02
				C170.58,176.44,170.58,176.45,170.58,176.45z M170.52,176.69c0,0,0.01-0.02,0.01-0.03C170.53,176.67,170.53,176.68,170.52,176.69
				z M170.56,176.58c0,0,0.01-0.02,0.01-0.03C170.57,176.56,170.56,176.57,170.56,176.58z"/>
			<circle fill="#009E7C" cx="167.61" cy="167.87" r="10.34"/>
		</g>
		<g>
			<polygon fill="#745C00" points="169.8,198.31 167.89,200.26 162.25,216.85 162.25,216.77 129.37,207.7 129.37,220.86 
				162.25,230.33 162.25,230.38 175.2,217.2 175.2,203.67 			"/>
			<polygon fill="#F8FFB6" points="136.93,189.16 135.02,191.1 129.37,207.7 162.25,216.85 167.89,200.26 169.8,198.31 			"/>
			<polygon points="167.44,214.92 167.44,225.1 171.93,220.53 171.93,210.43 			"/>
		</g>
	</g>
	<g id="Plus_Code">
		<g>
			<path fill="#4285F4" d="M175.38,8.2H69.79c-8.69,0-15.74,7.05-15.74,15.74v31.02c0,8.69,7.05,15.74,15.74,15.74h38.73
				c4.17,0,5.4,1.87,6.29,3.44c0.89,1.57,2.26,3.9,3.97,6.98c0.92,1.65,1.58,2.61,2.2,3.14c0.1,0.09,0.2,0.17,0.32,0.24
				c0.04,0.02,0.07,0.05,0.11,0.07c0.01,0.01,0.02,0.02,0.04,0.02c0.2,0.11,0.41,0.19,0.63,0.23c0.01,0,0.02,0,0.03,0.01
				c0.05,0.01,0.1,0.02,0.15,0.02c0.04,0.01,0.08,0.01,0.12,0.01c0.05,0,0.09,0.01,0.14,0.01c0.01,0,0.02,0,0.04,0
				c0.01,0,0.02,0,0.04,0c0.01,0,0.02,0,0.04,0c0.01,0,0.02,0,0.04,0c0.05,0,0.09,0,0.14-0.01c0.04,0,0.08-0.01,0.12-0.01
				c0.05-0.01,0.1-0.02,0.15-0.02c0.01,0,0.02,0,0.03-0.01c0.22-0.04,0.42-0.12,0.63-0.23c0.01-0.01,0.02-0.02,0.04-0.02
				c0.04-0.02,0.07-0.04,0.11-0.07c0.11-0.07,0.22-0.15,0.32-0.24c0.62-0.53,1.28-1.49,2.2-3.14c1.71-3.08,3.08-5.4,3.97-6.98
				c0.89-1.57,2.12-3.44,6.29-3.44h38.73c8.69,0,15.74-7.05,15.74-15.74V23.94C191.13,15.25,184.08,8.2,175.38,8.2L175.38,8.2z"/>
			<g>
				<path fill="#FFFFFF" d="M65.89,31.26h2.8l3.66,10.83l0.59,1.85h0.14l0.59-1.85l3.82-10.83h2.82l-5.98,16.4h-2.68L65.89,31.26
					L65.89,31.26z"/>
				<path fill="#FFFFFF" d="M82.52,46.8l7.23-12.98l-0.05-0.07h-7.93v-2.49h10.88v2.63L84.8,48.02L82.52,46.8L82.52,46.8z"/>
				<path fill="#FFFFFF" d="M97.26,47.53c-0.78-0.33-1.47-0.82-2.06-1.48c-0.59-0.66-1-1.48-1.24-2.46l2.37-0.93
					c0.21,0.86,0.6,1.56,1.17,2.09c0.57,0.53,1.27,0.79,2.09,0.79c0.91,0,1.66-0.28,2.24-0.85c0.58-0.57,0.87-1.3,0.87-2.19
					s-0.29-1.63-0.86-2.22s-1.32-0.87-2.23-0.87c-0.53,0-1,0.11-1.44,0.33c-0.43,0.22-0.8,0.53-1.1,0.93l-2.61-1.15l1-8.26h8.89
					v2.39h-6.71l-0.6,4.31l0.14,0.02c0.83-0.66,1.8-0.98,2.92-0.98c0.93,0,1.79,0.23,2.6,0.7c0.81,0.46,1.45,1.11,1.93,1.94
					c0.48,0.83,0.72,1.77,0.72,2.83s-0.25,2-0.74,2.85s-1.18,1.51-2.05,1.99c-0.87,0.48-1.85,0.72-2.94,0.72
					C98.83,48.02,98.03,47.86,97.26,47.53L97.26,47.53z"/>
				<path fill="#FFFFFF" d="M106.64,31.26h2.8l3.66,10.83l0.59,1.85h0.14l0.59-1.85l3.82-10.83h2.82l-5.98,16.4h-2.68L106.64,31.26
					L106.64,31.26z"/>
				<path fill="#FFFFFF" d="M133,40.9h-4.03v4.03h-2.18V40.9h-4.03v-2.15h4.03v-4.03h2.18v4.03H133V40.9z"/>
				<path fill="#FFFFFF" d="M138.98,47.38c-0.87-0.43-1.55-1.03-2.05-1.78c-0.49-0.76-0.74-1.59-0.74-2.5
					c0-0.91,0.24-1.69,0.73-2.38c0.49-0.7,1.11-1.23,1.88-1.61v-0.14c-0.61-0.4-1.1-0.9-1.48-1.5c-0.38-0.6-0.57-1.25-0.57-1.95
					c0-0.86,0.22-1.65,0.66-2.36c0.44-0.71,1.05-1.26,1.84-1.66c0.79-0.4,1.68-0.6,2.67-0.6s1.88,0.2,2.67,0.6
					c0.79,0.4,1.41,0.95,1.85,1.66c0.45,0.71,0.67,1.5,0.67,2.36c0,0.7-0.19,1.35-0.57,1.95c-0.38,0.6-0.88,1.1-1.48,1.5v0.14
					c0.76,0.38,1.39,0.92,1.88,1.61c0.49,0.7,0.73,1.49,0.73,2.38c0,0.89-0.25,1.74-0.74,2.5c-0.49,0.76-1.18,1.35-2.06,1.78
					s-1.86,0.65-2.94,0.65C140.82,48.02,139.85,47.81,138.98,47.38L138.98,47.38z M144.12,44.8c0.58-0.49,0.87-1.12,0.87-1.9
					s-0.29-1.4-0.89-1.89c-0.59-0.49-1.32-0.74-2.2-0.74s-1.59,0.25-2.18,0.74c-0.59,0.49-0.89,1.13-0.89,1.89
					c0,0.76,0.29,1.41,0.87,1.9c0.58,0.49,1.31,0.73,2.19,0.73S143.54,45.29,144.12,44.8L144.12,44.8z M143.76,37.27
					c0.49-0.42,0.73-0.98,0.73-1.69s-0.24-1.23-0.73-1.64c-0.49-0.41-1.1-0.61-1.85-0.61s-1.34,0.2-1.83,0.61
					c-0.49,0.41-0.73,0.95-0.73,1.64c0,0.69,0.24,1.24,0.73,1.68c0.49,0.43,1.1,0.65,1.83,0.65S143.28,37.69,143.76,37.27
					L143.76,37.27z"/>
				<path fill="#FFFFFF" d="M161.68,47.18c-1.17,0.56-2.43,0.85-3.78,0.85c-1.59,0-3.03-0.38-4.32-1.14
					c-1.29-0.76-2.31-1.79-3.05-3.1c-0.74-1.31-1.11-2.76-1.11-4.33c0-1.57,0.37-3.01,1.11-4.32s1.75-2.34,3.05-3.11
					c1.29-0.76,2.73-1.14,4.32-1.14s3.03,0.38,4.33,1.14c1.3,0.76,2.32,1.8,3.06,3.1c0.74,1.31,1.11,2.74,1.11,4.31
					c0,1.27-0.25,2.45-0.73,3.56c-0.49,1.1-1.17,2.05-2.06,2.85l1.21,1.81l-1.95,1.31L161.68,47.18L161.68,47.18z M160.26,45.09
					l-1.88-2.8l1.97-1.33l1.83,2.8c0.52-0.53,0.92-1.17,1.2-1.9c0.28-0.73,0.42-1.54,0.42-2.4c0-1.19-0.26-2.25-0.79-3.17
					c-0.53-0.92-1.24-1.65-2.14-2.16c-0.9-0.52-1.89-0.78-2.98-0.78c-1.08,0-2.07,0.26-2.97,0.78s-1.6,1.24-2.13,2.16
					c-0.53,0.92-0.79,1.98-0.79,3.17c0,1.19,0.26,2.25,0.79,3.17c0.53,0.92,1.24,1.65,2.13,2.16s1.88,0.78,2.97,0.78
					C158.71,45.57,159.49,45.41,160.26,45.09L160.26,45.09z"/>
				<path fill="#FFFFFF" d="M170.23,46.96c-1.05-0.71-1.78-1.75-2.18-3.12l2.44-1c0.22,0.85,0.61,1.5,1.16,1.96
					c0.55,0.46,1.22,0.7,2,0.7s1.48-0.24,2.06-0.73c0.57-0.49,0.86-1.1,0.86-1.85s-0.3-1.39-0.91-1.88
					c-0.61-0.49-1.36-0.73-2.27-0.73h-1.41v-2.42h1.27c0.78,0,1.44-0.21,1.97-0.63c0.53-0.42,0.8-1,0.8-1.74
					c0-0.65-0.24-1.17-0.72-1.57c-0.48-0.39-1.09-0.59-1.82-0.59c-0.73,0-1.29,0.19-1.71,0.57c-0.42,0.38-0.73,0.85-0.92,1.41
					l-2.42-1c0.32-0.91,0.91-1.71,1.77-2.4c0.86-0.7,1.96-1.04,3.3-1.04c0.99,0,1.88,0.19,2.67,0.57c0.79,0.38,1.41,0.91,1.85,1.59
					c0.45,0.68,0.67,1.44,0.67,2.29s-0.21,1.59-0.62,2.19s-0.93,1.06-1.53,1.38v0.14c0.8,0.33,1.45,0.85,1.96,1.53
					c0.51,0.69,0.76,1.51,0.76,2.46c0,0.96-0.24,1.81-0.73,2.56c-0.49,0.75-1.16,1.34-2.02,1.77c-0.86,0.43-1.82,0.65-2.87,0.65
					C172.42,48.02,171.28,47.66,170.23,46.96L170.23,46.96z"/>
			</g>
		</g>
	</g>
	<g id="House_00000008139060021129514210000007427450721410126502_">
		<g>
			<polygon fill="#9FD5FF" points="125.26,138.46 133.22,139.86 133.22,172.57 87.94,159.67 87.94,129.05 91.84,116.52 
				91.84,100.82 141.94,107.43 141.94,127.94 			"/>
			<path fill="#4667F4" d="M112.52,147.09v19.72l-9.79-2.84v-19.13c0-0.62,0.59-1.07,1.2-0.9l7.91,2.25
				C112.25,146.3,112.52,146.67,112.52,147.09L112.52,147.09z"/>
			<polygon fill="#ABABAB" points="87.94,158.77 95.29,166.31 128.7,176.18 133.22,171.67 			"/>
			<path d="M131.6,173.29v-6.03l0.53-0.53c0.08-0.08,0.12-0.18,0.12-0.29v-0.01c0-0.32-0.39-0.49-0.63-0.26l-3.96,3.89v1.11
				l0.81-0.8v5.74l-33.18-9.8v0.9l33.35,9.92l4.58-4.56v-0.9L131.6,173.29L131.6,173.29z M130.7,168.16v6.03l-1.33,1.32v-6.03
				L130.7,168.16z"/>
			<polygon fill="#4667F4" points="118.87,166.26 114.04,171.1 114.04,179.37 122.84,181.69 122.84,173.43 127.67,168.58 			"/>
			<polygon fill="#15173D" points="122.84,181.69 127.67,176.81 127.67,168.58 122.84,173.43 			"/>
			<path fill="#BCE9FF" d="M110.5,149.72v7.08c0,0.41-0.39,0.71-0.79,0.59l-4.5-1.31c-0.26-0.08-0.45-0.32-0.45-0.59v-7.06
				c0-0.41,0.39-0.71,0.79-0.59l4.5,1.28C110.32,149.2,110.5,149.44,110.5,149.72L110.5,149.72z"/>
			<ellipse fill="#DEF5FF" cx="121.01" cy="168.5" rx="4.7" ry="3.53"/>
			<path fill="#F3FCFF" d="M121.01,144.32c-2.24,0-4.05,5.48-4.05,12.23c0,1.48,0.09,2.9,0.25,4.21c0.24,1.94,0.63,3.64,1.13,4.98
				c0.76,0.39,1.68,0.63,2.67,0.63s1.91-0.23,2.67-0.63c0.5-1.34,0.9-3.04,1.13-4.98c0.16-1.31,0.25-2.73,0.25-4.21
				C125.05,149.79,123.24,144.32,121.01,144.32L121.01,144.32z"/>
			<ellipse fill="#DEF5FF" cx="121.01" cy="144.59" rx="4.7" ry="3.53"/>
			<g>
				<polygon fill="#4667F4" points="86.5,156.66 81.67,161.5 90.46,163.82 95.29,158.98 				"/>
				<polygon fill="#4667F4" points="81.67,169.77 90.46,172.09 90.46,163.83 81.67,161.51 				"/>
			</g>
			<polygon fill="#15173D" points="90.46,172.09 95.29,167.2 95.29,158.98 90.46,163.83 			"/>
			<ellipse fill="#DEF5FF" cx="88.62" cy="158.77" rx="4.7" ry="3.53"/>
			<path fill="#F3FCFF" d="M88.62,134.59c-2.24,0-4.05,5.48-4.05,12.23c0,1.48,0.09,2.9,0.25,4.21c0.24,1.94,0.63,3.64,1.13,4.98
				c0.76,0.39,1.68,0.63,2.67,0.63c0.99,0,1.91-0.23,2.67-0.63c0.5-1.34,0.9-3.04,1.13-4.98c0.16-1.31,0.25-2.73,0.25-4.21
				C92.67,140.06,90.86,134.59,88.62,134.59L88.62,134.59z"/>
			<ellipse fill="#DEF5FF" cx="88.62" cy="134.86" rx="4.7" ry="3.53"/>
			<path fill="#4667F4" d="M133.9,117.18c-0.4,0-0.79-0.17-1.07-0.5l-6.19-7.36c-0.49-0.59-0.42-1.47,0.17-1.96
				c0.59-0.49,1.47-0.42,1.96,0.17l6.19,7.36c0.49,0.59,0.42,1.47-0.17,1.96C134.53,117.07,134.22,117.18,133.9,117.18L133.9,117.18
				z"/>
			<path fill="#4667F4" d="M122.59,114.1c-0.4,0-0.79-0.17-1.07-0.5l-6.19-7.36c-0.49-0.59-0.42-1.47,0.17-1.96
				c0.59-0.49,1.47-0.42,1.96,0.17l6.19,7.36c0.49,0.59,0.42,1.47-0.17,1.96C123.22,113.99,122.9,114.1,122.59,114.1L122.59,114.1z"
				/>
			<path fill="#4667F4" d="M111.27,111.12c-0.4,0-0.79-0.17-1.07-0.5l-6.19-7.36c-0.49-0.59-0.42-1.47,0.17-1.96
				c0.59-0.49,1.47-0.42,1.96,0.17l6.19,7.36c0.49,0.59,0.42,1.47-0.17,1.96C111.91,111.01,111.59,111.12,111.27,111.12
				L111.27,111.12z"/>
			<path fill="#4667F4" d="M99.96,107.35c-0.4,0-0.79-0.17-1.07-0.5l-6.19-7.36c-0.49-0.59-0.42-1.47,0.17-1.96
				c0.59-0.49,1.47-0.42,1.96,0.17l6.19,7.36c0.49,0.59,0.42,1.47-0.17,1.96C100.6,107.24,100.28,107.35,99.96,107.35L99.96,107.35z
				"/>
			
				<linearGradient id="SVGID_1_" gradientUnits="userSpaceOnUse" x1="89.9508" y1="4583.2231" x2="95.7757" y2="4579.8359" gradientTransform="matrix(1 0 0 -1 0 4672.7666)">
				<stop  offset="0.08" style="stop-color:#4667F4"/>
				<stop  offset="0.69" style="stop-color:#15173D"/>
			</linearGradient>
			<path fill="url(#SVGID_1_)" d="M98.63,83.94c-1.12-0.35-2.29,0.07-2.86,1.04c-2.28,3.63-4.25,7.28-6.59,10.87
				c-0.95,1.45-0.78,2.91,0.11,4.03l9.56-15.88L98.63,83.94L98.63,83.94z"/>
			
				<linearGradient id="SVGID_00000164479210209492367530000000994114883937292161_" gradientUnits="userSpaceOnUse" x1="93.9236" y1="4581.4985" x2="100.0035" y2="4577.9316" gradientTransform="matrix(1 0 0 -1 0 4672.7666)">
				<stop  offset="0.08" style="stop-color:#4667F4"/>
				<stop  offset="0.7" style="stop-color:#15173D"/>
			</linearGradient>
			<path fill="url(#SVGID_00000164479210209492367530000000994114883937292161_)" d="M98.85,84l-9.56,15.88
				c0.57,0.72,1.44,1.31,2.51,1.67c0.76,0.25,1.51,0.35,2.19,0.29l9.88-16.42L98.85,84L98.85,84z"/>
			
				<linearGradient id="SVGID_00000175319568399453600540000017228469699887052687_" gradientUnits="userSpaceOnUse" x1="98.7753" y1="4579.9492" x2="105.1981" y2="4576.2856" gradientTransform="matrix(1 0 0 -1 0 4672.7666)">
				<stop  offset="0.08" style="stop-color:#4667F4"/>
				<stop  offset="0.69" style="stop-color:#15173D"/>
			</linearGradient>
			<path fill="url(#SVGID_00000175319568399453600540000017228469699887052687_)" d="M103.87,85.42L94,101.84
				c0.39-0.03,0.76-0.11,1.1-0.23c0.82-0.3,1.76-0.03,2.36,0.66c0.39,0.45,0.88,0.85,1.46,1.17l9.99-16.6L103.87,85.42L103.87,85.42
				z"/>
			
				<linearGradient id="SVGID_00000044153087781423050520000003197876165358851210_" gradientUnits="userSpaceOnUse" x1="103.649" y1="4578.5176" x2="110.597" y2="4574.4839" gradientTransform="matrix(1 0 0 -1 0 4672.7666)">
				<stop  offset="0.08" style="stop-color:#4667F4"/>
				<stop  offset="0.67" style="stop-color:#15173D"/>
			</linearGradient>
			<path fill="url(#SVGID_00000044153087781423050520000003197876165358851210_)" d="M108.9,86.85l-9.99,16.6
				c0.32,0.18,0.68,0.34,1.05,0.47c1.2,0.4,2.38,0.4,3.29,0.06c0.4-0.15,0.83-0.15,1.24-0.05l9.42-15.66L108.9,86.85L108.9,86.85z"
				/>
			
				<linearGradient id="SVGID_00000155110002631548368040000001740231904400914323_" gradientUnits="userSpaceOnUse" x1="109.0551" y1="4577.4102" x2="115.4263" y2="4573.5552" gradientTransform="matrix(1 0 0 -1 0 4672.7666)">
				<stop  offset="0.08" style="stop-color:#4667F4"/>
				<stop  offset="0.69" style="stop-color:#15173D"/>
			</linearGradient>
			<path fill="url(#SVGID_00000155110002631548368040000001740231904400914323_)" d="M113.92,88.27l-9.42,15.66
				c0.42,0.12,0.81,0.36,1.12,0.71c0.6,0.7,1.48,1.29,2.51,1.64c0.25,0.08,0.49,0.14,0.73,0.19l10.09-16.78L113.92,88.27z"/>
			
				<linearGradient id="SVGID_00000090260007124507679710000010185122259082264972_" gradientUnits="userSpaceOnUse" x1="113.7056" y1="4575.5771" x2="120.4653" y2="4571.5825" gradientTransform="matrix(1 0 0 -1 0 4672.7666)">
				<stop  offset="0.08" style="stop-color:#4667F4"/>
				<stop  offset="0.66" style="stop-color:#15173D"/>
			</linearGradient>
			<path fill="url(#SVGID_00000090260007124507679710000010185122259082264972_)" d="M118.95,89.69l-10.09,16.78
				c0.94,0.19,1.83,0.14,2.56-0.13c0.82-0.3,1.76-0.03,2.36,0.66c0.12,0.14,0.25,0.27,0.39,0.4l9.8-16.29L118.95,89.69L118.95,89.69
				z"/>
			
				<linearGradient id="SVGID_00000163045209777950903370000003380797279778649742_" gradientUnits="userSpaceOnUse" x1="119.0413" y1="4574.2588" x2="125.2577" y2="4570.5225" gradientTransform="matrix(1 0 0 -1 0 4672.7666)">
				<stop  offset="0.08" style="stop-color:#4667F4"/>
				<stop  offset="0.69" style="stop-color:#15173D"/>
			</linearGradient>
			<path fill="url(#SVGID_00000163045209777950903370000003380797279778649742_)" d="M123.98,91.12l-9.8,16.29
				c0.56,0.52,1.28,0.96,2.11,1.24c1.04,0.35,2.07,0.39,2.92,0.18L129,92.54L123.98,91.12L123.98,91.12z"/>
			
				<linearGradient id="SVGID_00000169530626884819188410000017588182602311942053_" gradientUnits="userSpaceOnUse" x1="124.0539" y1="4572.8438" x2="130.5921" y2="4569.1099" gradientTransform="matrix(1 0 0 -1 0 4672.7666)">
				<stop  offset="0.08" style="stop-color:#4667F4"/>
				<stop  offset="0.66" style="stop-color:#15173D"/>
			</linearGradient>
			<path fill="url(#SVGID_00000169530626884819188410000017588182602311942053_)" d="M129,92.54l-9.79,16.28
				c0.13-0.03,0.25-0.07,0.37-0.11c0.82-0.3,1.76-0.03,2.36,0.66c0.49,0.57,1.17,1.07,1.96,1.42l10.12-16.83L129,92.54z"/>
			
				<linearGradient id="SVGID_00000139981107396436495210000007932531168995467139_" gradientUnits="userSpaceOnUse" x1="129.0398" y1="4571.0991" x2="135.3807" y2="4567.4111" gradientTransform="matrix(1 0 0 -1 0 4672.7666)">
				<stop  offset="0.08" style="stop-color:#4667F4"/>
				<stop  offset="0.69" style="stop-color:#15173D"/>
			</linearGradient>
			<path fill="url(#SVGID_00000139981107396436495210000007932531168995467139_)" d="M134.03,93.96l-10.12,16.83
				c0.18,0.08,0.36,0.15,0.55,0.22c1.2,0.4,2.38,0.4,3.29,0.06c0.58-0.21,1.23-0.13,1.77,0.18l9.54-15.86L134.03,93.96L134.03,93.96
				z"/>
			
				<linearGradient id="SVGID_00000012472980389767211150000005267894854530623884_" gradientUnits="userSpaceOnUse" x1="134.2763" y1="4569.9951" x2="140.1436" y2="4566.5469" gradientTransform="matrix(1 0 0 -1 0 4672.7666)">
				<stop  offset="0.08" style="stop-color:#4667F4"/>
				<stop  offset="0.73" style="stop-color:#15173D"/>
			</linearGradient>
			<path fill="url(#SVGID_00000012472980389767211150000005267894854530623884_)" d="M139.06,95.39l-9.54,15.86
				c0.22,0.12,0.42,0.29,0.59,0.49c0.6,0.7,1.48,1.29,2.51,1.64c0.45,0.15,0.9,0.25,1.33,0.29l10.13-16.84L139.06,95.39
				L139.06,95.39z"/>
			
				<linearGradient id="SVGID_00000061453755259322324730000001696612423104227729_" gradientUnits="userSpaceOnUse" x1="138.8408" y1="4568.4146" x2="144.6445" y2="4564.9727" gradientTransform="matrix(1 0 0 -1 0 4672.7666)">
				<stop  offset="0.08" style="stop-color:#4667F4"/>
				<stop  offset="0.77" style="stop-color:#15173D"/>
			</linearGradient>
			<path fill="url(#SVGID_00000061453755259322324730000001696612423104227729_)" d="M144.08,96.81l-10.13,16.84
				c0.74,0.07,1.44-0.02,2.03-0.25c0.53-0.21,1.16-0.15,1.69,0.13c0.5,0.28,0.88,0.76,1.41,1.03c0.05,0.02,0.1,0.05,0.16,0.07
				l9.86-16.39c-0.04-0.02-0.08-0.03-0.12-0.05L144.08,96.81z"/>
			
				<linearGradient id="SVGID_00000083050183378827102780000012642661148014365357_" gradientUnits="userSpaceOnUse" x1="143.7555" y1="4566.6343" x2="147.7197" y2="4564.0693" gradientTransform="matrix(1 0 0 -1 0 4672.7666)">
				<stop  offset="0.08" style="stop-color:#4667F4"/>
				<stop  offset="0.81" style="stop-color:#15173D"/>
			</linearGradient>
			<path fill="url(#SVGID_00000083050183378827102780000012642661148014365357_)" d="M141.51,114.51
				c0.54-0.83,8.39-10.43,8.39-10.43c0.46-0.53,0.76-1.26,0.76-1.99v-1.71c0.01-0.99-0.63-1.82-1.56-2.14l-9.86,16.39
				C139.96,114.96,140.96,115.1,141.51,114.51L141.51,114.51z"/>
			<path fill="#005B5B" d="M102.36,164.13l-2.41,2.13c-0.33,0.29-0.21,0.83,0.21,0.96l8.18,2.44c0.31,0.09,0.66,0.02,0.9-0.21
				l2.43-2.26c0.29-0.27,0.17-0.75-0.2-0.86l-8.24-2.39C102.93,163.85,102.6,163.92,102.36,164.13z"/>
			
				<linearGradient id="SVGID_00000147941601750643148100000012783180477171654577_" gradientUnits="userSpaceOnUse" x1="80.6722" y1="4554.1909" x2="87.0465" y2="4550.3633" gradientTransform="matrix(1 0 0 -1 0 4672.7666)">
				<stop  offset="0.08" style="stop-color:#4667F4"/>
				<stop  offset="0.73" style="stop-color:#15173D"/>
			</linearGradient>
			<path fill="url(#SVGID_00000147941601750643148100000012783180477171654577_)" d="M91.37,110.32c-0.8-0.27-1.65-0.05-2.17,0.56
				l-11.8,19.17c-0.29,0.46-0.17,1.1,0.29,1.47c0.34,0.28,0.69,0.48,1.02,0.62l13.05-21.69L91.37,110.32L91.37,110.32z"/>
			
				<linearGradient id="SVGID_00000004536177381488163650000011061636744381414055_" gradientUnits="userSpaceOnUse" x1="84.7117" y1="4552.4355" x2="91.9389" y2="4548.2949" gradientTransform="matrix(1 0 0 -1 0 4672.7666)">
				<stop  offset="0.08" style="stop-color:#4667F4"/>
				<stop  offset="0.67" style="stop-color:#15173D"/>
			</linearGradient>
			<path fill="url(#SVGID_00000004536177381488163650000011061636744381414055_)" d="M91.75,110.44L78.7,132.14
				c1.86,0.79,3.48-0.23,3.48-0.23c0.76-0.28,1.62-0.06,2.22,0.53l12.31-20.47L91.75,110.44L91.75,110.44z"/>
			
				<linearGradient id="SVGID_00000147211475915825625200000002706458119208399530_" gradientUnits="userSpaceOnUse" x1="90.1009" y1="4551.251" x2="96.5511" y2="4547.6392" gradientTransform="matrix(1 0 0 -1 0 4672.7666)">
				<stop  offset="0.08" style="stop-color:#4667F4"/>
				<stop  offset="0.73" style="stop-color:#15173D"/>
			</linearGradient>
			<path fill="url(#SVGID_00000147211475915825625200000002706458119208399530_)" d="M96.72,111.96l-12.31,20.47
				c0.05,0.05,0.1,0.09,0.14,0.14c0.6,0.7,1.47,1.29,2.51,1.64c0.68,0.23,1.36,0.32,1.99,0.3l12.65-21.03L96.72,111.96L96.72,111.96
				z"/>
			
				<linearGradient id="SVGID_00000141414050750081425230000014717982215683858327_" gradientUnits="userSpaceOnUse" x1="95.1228" y1="4549.5181" x2="101.9918" y2="4545.7114" gradientTransform="matrix(1 0 0 -1 0 4672.7666)">
				<stop  offset="0.08" style="stop-color:#4667F4"/>
				<stop  offset="0.67" style="stop-color:#15173D"/>
			</linearGradient>
			<path fill="url(#SVGID_00000141414050750081425230000014717982215683858327_)" d="M101.69,113.48l-12.65,21.03
				c0.47-0.02,0.91-0.09,1.31-0.24c0.82-0.3,1.76-0.03,2.36,0.66c0.35,0.41,0.8,0.77,1.31,1.08L106.66,115L101.69,113.48
				L101.69,113.48z"/>
			
				<linearGradient id="SVGID_00000127018479238879190870000000059384294437793926_" gradientUnits="userSpaceOnUse" x1="100.069" y1="4548.0728" x2="106.677" y2="4544.2876" gradientTransform="matrix(1 0 0 -1 0 4672.7666)">
				<stop  offset="0.08" style="stop-color:#4667F4"/>
				<stop  offset="0.69" style="stop-color:#15173D"/>
			</linearGradient>
			<path fill="url(#SVGID_00000127018479238879190870000000059384294437793926_)" d="M106.66,115l-12.64,21.01
				c0.37,0.22,0.77,0.41,1.2,0.56c1.2,0.4,2.37,0.4,3.29,0.06c0.34-0.12,0.71-0.15,1.07-0.08l12.05-20.03L106.66,115L106.66,115z"/>
			
				<linearGradient id="SVGID_00000169533080806870823020000000340880212390683309_" gradientUnits="userSpaceOnUse" x1="105.191" y1="4546.8403" x2="111.9841" y2="4543.125" gradientTransform="matrix(1 0 0 -1 0 4672.7666)">
				<stop  offset="0.08" style="stop-color:#4667F4"/>
				<stop  offset="0.69" style="stop-color:#15173D"/>
			</linearGradient>
			<path fill="url(#SVGID_00000169533080806870823020000000340880212390683309_)" d="M111.63,116.52l-12.05,20.03
				c0.49,0.09,0.95,0.34,1.3,0.74c0.6,0.7,1.47,1.29,2.51,1.64c0.19,0.06,0.37,0.11,0.55,0.15l12.66-21.05L111.63,116.52
				L111.63,116.52z"/>
			
				<linearGradient id="SVGID_00000029020838143652377280000009631003228887601573_" gradientUnits="userSpaceOnUse" x1="110.006" y1="4545.0059" x2="117.1513" y2="4540.917" gradientTransform="matrix(1 0 0 -1 0 4672.7666)">
				<stop  offset="0.08" style="stop-color:#4667F4"/>
				<stop  offset="0.64" style="stop-color:#15173D"/>
			</linearGradient>
			<path fill="url(#SVGID_00000029020838143652377280000009631003228887601573_)" d="M116.59,118.05l-12.66,21.05
				c1,0.24,1.97,0.19,2.74-0.09c0.82-0.3,1.76-0.03,2.36,0.66c0.08,0.1,0.17,0.19,0.26,0.28l12.26-20.38L116.59,118.05
				L116.59,118.05z"/>
			
				<linearGradient id="SVGID_00000137125551827431853370000010401936816808848532_" gradientUnits="userSpaceOnUse" x1="115.1001" y1="4543.7109" x2="122.0754" y2="4539.8135" gradientTransform="matrix(1 0 0 -1 0 4672.7666)">
				<stop  offset="0.08" style="stop-color:#4667F4"/>
				<stop  offset="0.68" style="stop-color:#15173D"/>
			</linearGradient>
			<path fill="url(#SVGID_00000137125551827431853370000010401936816808848532_)" d="M121.56,119.57l-12.26,20.38
				c0.58,0.58,1.35,1.06,2.24,1.36c0.95,0.32,1.88,0.38,2.69,0.22l12.3-20.44L121.56,119.57L121.56,119.57z"/>
			
				<linearGradient id="SVGID_00000160159385142756862020000000263834752102495416_" gradientUnits="userSpaceOnUse" x1="119.9068" y1="4542.3945" x2="127.2706" y2="4538.1719" gradientTransform="matrix(1 0 0 -1 0 4672.7666)">
				<stop  offset="0.08" style="stop-color:#4667F4"/>
				<stop  offset="0.66" style="stop-color:#15173D"/>
			</linearGradient>
			<path fill="url(#SVGID_00000160159385142756862020000000263834752102495416_)" d="M126.53,121.09l-12.3,20.44
				c0.21-0.04,0.42-0.09,0.6-0.16c0.82-0.3,1.76-0.03,2.36,0.66c0.46,0.53,1.07,1,1.8,1.35l12.5-20.77L126.53,121.09L126.53,121.09z
				"/>
			
				<linearGradient id="SVGID_00000104700200081477011360000016259772790409305235_" gradientUnits="userSpaceOnUse" x1="124.8612" y1="4540.6987" x2="132.2918" y2="4536.3398" gradientTransform="matrix(1 0 0 -1 0 4672.7666)">
				<stop  offset="0.08" style="stop-color:#4667F4"/>
				<stop  offset="0.66" style="stop-color:#15173D"/>
			</linearGradient>
			<path fill="url(#SVGID_00000104700200081477011360000016259772790409305235_)" d="M131.5,122.61L119,143.38
				c0.22,0.11,0.46,0.21,0.71,0.29c0.73,0.25,1.49,0.35,2.24,0.29c0.66-0.05,1.25-0.41,1.92-0.37c0.26,0.02,0.52,0.1,0.76,0.23
				l11.84-19.68L131.5,122.61L131.5,122.61z"/>
			
				<linearGradient id="SVGID_00000023239207992404454810000012303513702062029987_" gradientUnits="userSpaceOnUse" x1="129.8905" y1="4539.5205" x2="137.8219" y2="4535.3164" gradientTransform="matrix(1 0 0 -1 0 4672.7666)">
				<stop  offset="0.08" style="stop-color:#4667F4"/>
				<stop  offset="0.65" style="stop-color:#15173D"/>
			</linearGradient>
			<path fill="url(#SVGID_00000023239207992404454810000012303513702062029987_)" d="M136.46,124.13l-11.84,19.68
				c0.26,0.14,0.51,0.32,0.74,0.51c1.02,0.85,3.11,2.29,4.24,0.98l11.81-19.63v-0.04L136.46,124.13z"/>
			<path fill="#47A1FB" d="M150.66,102.09v-1.71c0-0.21-0.02-0.41-0.08-0.6l-9.16,14.8v5.99l-13.88,23.2
				c-0.39,0.66-0.15,1.51,0.51,1.89c0.59,0.33,1.33,0.2,1.76-0.33l3.41-3.7v30.93l17.39-17.3L150.66,102.09L150.66,102.09
				L150.66,102.09z"/>
			<path fill="#15173D" d="M145.85,116.54l0.61-0.6c0.57-0.57,1.55-0.16,1.55,0.64v3.72c0,0.18-0.07,0.36-0.2,0.48l-2.8,2.79
				c-0.13,0.13-0.35,0.04-0.35-0.14v-4.01C144.66,118.35,145.09,117.31,145.85,116.54L145.85,116.54z"/>
		</g>
	</g>
</g>
</svg>
