<?xml version="1.0" encoding="utf-8"?>
<!-- Generator: Adobe Illustrator 30.0.0, SVG Export Plug-In . SVG Version: 9.03 Build 0)  -->
<svg version="1.1" baseProfile="basic" id="Layer_1"
	 xmlns="http://www.w3.org/2000/svg" xmlns:xlink="http://www.w3.org/1999/xlink" x="0px" y="0px" width="260px" height="260px"
	 viewBox="0 0 260 260" xml:space="preserve">
<g>
	<g id="Land">
		<path fill="#003439" d="M225.3,176.81c-0.05,4.58-1.85,8.99-5.18,12.38l-35.02,35.62c-3.38,3.44-7.35,6.12-11.79,7.96
			c-4.39,1.83-9.02,2.75-13.77,2.75c-3.35,0-6.68-0.47-9.91-1.4L48.2,204.94c-6.38-1.84-11.2-6.77-12.88-13.19
			c-0.4-1.52-0.6-3.05-0.62-4.57l-3.01-0.26v12.63c-0.02,0.57-0.02,1.15,0,1.72l0,0v0c0.36,8.81,6.05,17.24,15.67,20.01
			l101.43,29.19c13.7,3.94,28.47,0.06,38.46-10.1l35.02-35.62c4.09-4.16,6.01-9.38,6.05-14.52l0,0v-13.8
			C228.32,176.43,226.65,176.62,225.3,176.81L225.3,176.81z"/>
		<path fill="#004E41" d="M101.66,126.41c-12.04,0-23.8,4.78-32.49,13.62l-31.27,31.8c-11.52,11.71-6.33,31.48,9.46,36.02
			l101.43,29.19c3.55,1.02,7.16,1.52,10.74,1.52c10.27,0,20.31-4.08,27.72-11.62l35.02-35.62c11.21-11.4,6.12-30.64-9.25-35.01
			l-98.89-28.14C110.01,126.97,105.82,126.4,101.66,126.41L101.66,126.41L101.66,126.41z"/>
		<path fill="#0D6545" d="M128.8,191.26l-78.62-23.3l23.31-23.71c3.72-3.79,8.1-6.74,12.99-8.78c4.84-2.01,9.95-3.03,15.19-3.03l0,0
			c3.65,0,7.29,0.51,10.81,1.51l56.77,16.16L128.8,191.26L128.8,191.26L128.8,191.26z"/>
		<path fill="#0D6545" d="M194.66,210.78l-59.31-17.57L175.86,152l35.5,10.1c2.66,0.76,4.94,2.12,6.78,4.06
			c1.72,1.82,2.98,4.08,3.63,6.54c0.65,2.47,0.68,5.05,0.08,7.49c-0.64,2.59-1.95,4.91-3.89,6.88L194.66,210.78L194.66,210.78
			L194.66,210.78z"/>
		<path fill="#0D6545" d="M102.95,217.56l-53.91-15.51c-2.76-0.8-5.13-2.22-7.04-4.24c-1.79-1.89-3.09-4.25-3.76-6.81
			c-0.67-2.56-0.7-5.25-0.07-7.78c0.67-2.7,2.03-5.1,4.05-7.15l3.16-3.22l78.62,23.3L102.95,217.56L102.95,217.56L102.95,217.56z"/>
		<path fill="#0D6545" d="M159.54,232.51c-3.07,0-6.12-0.43-9.07-1.28l-40.91-11.77l21-21.37l59.31,17.57l-6.91,7.03
			c-3.09,3.15-6.73,5.6-10.8,7.29C168.13,231.66,163.89,232.51,159.54,232.51L159.54,232.51L159.54,232.51z"/>
	</g>
	<g id="farmhouse_and_trees_00000142895866793525043810000008218616907761853626_">
		<g>
			<path fill="#1F8A52" d="M209.71,179.85L209.71,179.85l-4.56-13.91c-0.51-1.56-2.72-1.56-3.23,0l-4.53,13.91l0,0
				c-0.66,2.05,0.9,4.17,3.81,4.95c3.22,0.87,6.88-0.24,8.18-2.47C209.85,181.5,209.94,180.65,209.71,179.85L209.71,179.85z"/>
			<path fill="#004E42" d="M197.17,189.3L197.17,189.3l-6.03-18.4c-0.68-2.06-3.59-2.06-4.27,0l-6,18.4l0,0
				c-0.88,2.71,1.19,5.51,5.04,6.54c4.26,1.14,9.11-0.32,10.82-3.27C197.36,191.49,197.48,190.35,197.17,189.3L197.17,189.3z"/>
			<path fill="#004E42" d="M183.5,211.01L183.5,211.01l-4.56-13.91c-0.51-1.56-2.72-1.56-3.23,0l-4.53,13.91l0,0
				c-0.66,2.05,0.9,4.17,3.81,4.95c3.22,0.87,6.88-0.24,8.18-2.47C183.65,212.66,183.74,211.8,183.5,211.01L183.5,211.01z"/>
			<path fill="#131314" d="M168.35,174.36c-1.62-0.26-3.28,0.31-3.72,1.29c-0.07,0.16-0.11,0.33-0.1,0.49c0-0.01,0-0.01,0-0.02v4.84
				c0,0.8,0.89,1.54,2.25,1.76c1.62,0.26,3.28-0.31,3.72-1.29c0.07-0.16,0.11-0.32,0.11-0.48v-4.84c0,0,0,0.01,0,0.01
				C170.6,175.32,169.71,174.58,168.35,174.36L168.35,174.36z"/>
			<circle fill="#1F8A52" cx="167.61" cy="167.67" r="10.34"/>
		</g>
		<g>
			<polygon fill="#009E7C" points="169.8,198.11 167.89,200.05 162.25,216.65 162.25,216.57 129.37,207.49 129.37,220.66 
				162.25,230.13 162.25,230.18 175.2,217 175.2,203.47 			"/>
			<polygon fill="#003936" points="136.93,188.96 135.02,190.9 129.37,207.49 162.25,216.65 167.89,200.05 169.8,198.11 			"/>
			<polygon points="167.44,214.72 167.44,224.9 171.93,220.32 171.93,210.23 			"/>
		</g>
	</g>
	<g id="Plus_Code_00000127017664067520096880000008897358366916168835_">
		<path fill="#4285F4" d="M175.38,8H69.79c-8.69,0-15.74,7.05-15.74,15.74v31.02c0,8.69,7.05,15.74,15.74,15.74h38.73
			c4.17,0,5.4,1.87,6.29,3.44c0.89,1.57,2.26,3.9,3.97,6.98c0.92,1.65,1.58,2.61,2.2,3.14c0.1,0.09,0.2,0.17,0.32,0.24
			c0.04,0.02,0.07,0.05,0.11,0.07c0.01,0.01,0.02,0.02,0.04,0.02c0.2,0.11,0.41,0.19,0.63,0.23c0.01,0,0.02,0,0.03,0.01
			c0.05,0.01,0.1,0.02,0.15,0.02c0.04,0.01,0.08,0.01,0.12,0.01c0.05,0,0.09,0.01,0.14,0.01c0.01,0,0.02,0,0.04,0
			c0.01,0,0.02,0,0.04,0s0.02,0,0.04,0s0.02,0,0.04,0c0.05,0,0.09,0,0.14-0.01c0.04,0,0.08-0.01,0.12-0.01
			c0.05-0.01,0.1-0.02,0.15-0.02c0.01,0,0.02,0,0.03-0.01c0.22-0.04,0.42-0.12,0.63-0.23c0.01-0.01,0.02-0.02,0.04-0.02
			c0.04-0.02,0.07-0.04,0.11-0.07c0.11-0.07,0.22-0.15,0.32-0.24c0.62-0.53,1.28-1.49,2.2-3.14c1.71-3.08,3.08-5.4,3.97-6.98
			c0.89-1.57,2.12-3.44,6.29-3.44h38.73c8.69,0,15.74-7.05,15.74-15.74V23.74C191.13,15.05,184.08,8,175.38,8L175.38,8z"/>
		<g>
			<path fill="#FFFFFF" d="M65.89,31.05h2.8l3.66,10.83l0.59,1.85h0.14l0.59-1.85l3.82-10.83h2.82l-5.98,16.4h-2.68L65.89,31.05
				L65.89,31.05z"/>
			<path fill="#FFFFFF" d="M82.52,46.6l7.23-12.98l-0.05-0.07h-7.93v-2.49h10.88v2.63L84.8,47.82L82.52,46.6L82.52,46.6z"/>
			<path fill="#FFFFFF" d="M97.26,47.33c-0.78-0.33-1.47-0.82-2.06-1.48c-0.59-0.66-1-1.48-1.24-2.46l2.37-0.93
				c0.21,0.86,0.6,1.56,1.17,2.09c0.57,0.53,1.27,0.79,2.09,0.79c0.91,0,1.66-0.28,2.24-0.85c0.58-0.57,0.87-1.3,0.87-2.19
				s-0.29-1.63-0.86-2.22c-0.57-0.58-1.32-0.87-2.23-0.87c-0.53,0-1,0.11-1.44,0.33c-0.43,0.22-0.8,0.53-1.1,0.93l-2.61-1.15l1-8.26
				h8.89v2.39h-6.71l-0.6,4.31l0.14,0.02c0.83-0.66,1.8-0.98,2.92-0.98c0.93,0,1.79,0.23,2.6,0.7c0.81,0.46,1.45,1.11,1.93,1.94
				c0.48,0.83,0.72,1.77,0.72,2.83s-0.25,2-0.74,2.85s-1.18,1.51-2.05,1.99c-0.87,0.48-1.85,0.72-2.94,0.72
				C98.83,47.82,98.03,47.65,97.26,47.33L97.26,47.33z"/>
			<path fill="#FFFFFF" d="M106.64,31.05h2.8l3.66,10.83l0.59,1.85h0.14l0.59-1.85l3.82-10.83h2.82l-5.98,16.4h-2.68L106.64,31.05
				L106.64,31.05z"/>
			<path fill="#FFFFFF" d="M133,40.7h-4.03v4.03h-2.18V40.7h-4.03v-2.15h4.03v-4.03h2.18v4.03H133V40.7z"/>
			<g>
				<path fill="#FFFFFF" d="M146.93,40.51c-0.5-0.69-1.12-1.23-1.89-1.61v-0.14c0.61-0.41,1.11-0.9,1.49-1.5
					c0.38-0.6,0.57-1.25,0.57-1.96c0-0.86-0.22-1.64-0.67-2.35c-0.44-0.71-1.06-1.27-1.85-1.66c-0.79-0.41-1.68-0.6-2.67-0.6
					c-0.99,0-1.87,0.19-2.67,0.6c-0.79,0.39-1.4,0.95-1.84,1.66c-0.44,0.71-0.66,1.49-0.66,2.35c0,0.71,0.19,1.36,0.58,1.96
					c0.37,0.6,0.87,1.09,1.48,1.5v0.14c-0.76,0.38-1.39,0.91-1.88,1.61c-0.48,0.69-0.73,1.47-0.73,2.38c0,0.92,0.25,1.75,0.74,2.5
					c0.5,0.76,1.18,1.36,2.05,1.78c0.87,0.44,1.85,0.65,2.93,0.65c1.09,0,2.07-0.21,2.94-0.65c0.88-0.42,1.57-1.02,2.06-1.78
					c0.49-0.75,0.74-1.6,0.74-2.5C147.65,42,147.42,41.21,146.93,40.51z M140.08,33.74c0.48-0.4,1.08-0.62,1.83-0.62
					s1.37,0.22,1.86,0.62c0.48,0.41,0.73,0.93,0.73,1.63c0,0.71-0.25,1.27-0.73,1.7c-0.49,0.41-1.13,0.62-1.86,0.62
					c-0.74,0-1.35-0.21-1.83-0.63c-0.49-0.44-0.72-1-0.72-1.69C139.36,34.69,139.59,34.15,140.08,33.74z M144.12,44.6
					c-0.58,0.48-1.34,0.73-2.21,0.73c-0.88,0-1.6-0.25-2.19-0.73c-0.58-0.49-0.87-1.14-0.87-1.9c0-0.77,0.29-1.4,0.88-1.89
					c0.59-0.5,1.3-0.74,2.18-0.74c0.87,0,1.61,0.24,2.2,0.74c0.59,0.49,0.88,1.1,0.88,1.89C144.99,43.48,144.71,44.11,144.12,44.6z"
					/>
			</g>
			<g>
				<path fill="#FFFFFF" d="M165.66,42.8c0.49-1.1,0.73-2.29,0.73-3.56c0-1.57-0.36-3.01-1.1-4.3c-0.74-1.31-1.77-2.34-3.06-3.11
					c-1.3-0.76-2.74-1.14-4.33-1.14c-1.59,0-3.02,0.38-4.32,1.14c-1.29,0.77-2.3,1.8-3.04,3.11c-0.74,1.3-1.12,2.74-1.12,4.32
					c0,1.57,0.38,3.01,1.12,4.32c0.74,1.31,1.75,2.35,3.04,3.11c1.3,0.76,2.73,1.13,4.32,1.13c1.34,0,2.6-0.28,3.78-0.85l1.19,1.79
					l1.95-1.3l-1.22-1.81C164.49,44.85,165.17,43.91,165.66,42.8z M163.38,41.66c-0.28,0.73-0.68,1.37-1.2,1.9l-1.83-2.79
					l-1.98,1.32l1.89,2.8c-0.76,0.33-1.55,0.48-2.36,0.48c-1.09,0-2.07-0.26-2.96-0.78c-0.9-0.52-1.62-1.24-2.14-2.16
					s-0.79-1.99-0.79-3.17c0-1.19,0.26-2.26,0.79-3.18c0.52-0.92,1.24-1.64,2.14-2.16c0.89-0.52,1.87-0.78,2.96-0.78
					c1.08,0,2.07,0.26,2.98,0.78c0.9,0.52,1.61,1.24,2.14,2.16c0.52,0.92,0.79,1.99,0.79,3.18
					C163.81,40.13,163.66,40.93,163.38,41.66z"/>
			</g>
			<path fill="#FFFFFF" d="M170.23,46.76c-1.05-0.71-1.78-1.75-2.18-3.12l2.44-1c0.22,0.85,0.61,1.5,1.16,1.96s1.22,0.7,2,0.7
				s1.48-0.24,2.06-0.73c0.57-0.49,0.86-1.1,0.86-1.85s-0.3-1.39-0.91-1.88c-0.61-0.49-1.36-0.73-2.27-0.73h-1.41v-2.42h1.27
				c0.78,0,1.44-0.21,1.97-0.63c0.53-0.42,0.8-1,0.8-1.74c0-0.65-0.24-1.17-0.72-1.57c-0.48-0.39-1.09-0.59-1.82-0.59
				c-0.73,0-1.29,0.19-1.71,0.57c-0.42,0.38-0.73,0.85-0.92,1.41l-2.42-1c0.32-0.91,0.91-1.71,1.77-2.4c0.86-0.7,1.96-1.04,3.3-1.04
				c0.99,0,1.88,0.19,2.67,0.57c0.79,0.38,1.41,0.91,1.85,1.59c0.45,0.68,0.67,1.44,0.67,2.29s-0.21,1.59-0.62,2.19
				s-0.93,1.06-1.53,1.38v0.14c0.8,0.33,1.45,0.85,1.96,1.53c0.51,0.69,0.76,1.51,0.76,2.46c0,0.96-0.24,1.81-0.73,2.56
				c-0.49,0.75-1.16,1.34-2.02,1.77c-0.86,0.43-1.82,0.65-2.87,0.65C172.42,47.82,171.28,47.46,170.23,46.76L170.23,46.76z"/>
		</g>
	</g>
	<g id="main_house_00000121979795034641085450000015611457588335457945_">
		<g>
			<g>
				<polygon fill="#394EC1" points="133.23,139.68 133.23,172.4 87.93,159.5 87.93,128.87 91.83,116.33 91.83,100.62 141.95,107.23 
					141.95,127.75 				"/>
				<path fill="#232765" d="M112.52,146.91v19.73l-9.8-2.84v-19.14c0-0.62,0.6-1.07,1.2-0.9l7.92,2.25
					C112.24,146.12,112.52,146.49,112.52,146.91L112.52,146.91z"/>
				<polygon fill="#474747" points="87.93,158.6 95.28,166.14 128.7,176.01 133.23,171.51 				"/>
				<path d="M131.6,173.12v-6.03l0.54-0.53c0.08-0.08,0.12-0.18,0.12-0.29v-0.01c0-0.32-0.4-0.49-0.63-0.26l-3.95,3.89V171l0.8-0.8
					v5.74l-33.2-9.8v0.89l33.36,9.93l4.59-4.56v-0.89L131.6,173.12z"/>
				<polygon points="130.7,174.01 129.37,175.33 129.37,169.3 130.7,167.98 				"/>
				<g>
					<polygon fill="#232765" points="122.84,181.52 114.04,179.2 114.04,170.93 122.84,173.26 					"/>
					<polygon fill="#232765" points="122.84,173.26 114.04,170.93 118.87,166.09 127.67,168.41 					"/>
					<polygon points="122.84,181.52 127.67,176.64 127.67,168.41 122.84,173.26 					"/>
				</g>
				<path fill="#FBBC04" d="M110.49,149.54v7.09c0,0.41-0.4,0.71-0.79,0.59l-4.5-1.3c-0.26-0.08-0.45-0.32-0.45-0.59v-7.06
					c0-0.41,0.39-0.71,0.79-0.6l4.5,1.28C110.31,149.02,110.49,149.27,110.49,149.54L110.49,149.54z"/>
				<g>
					<ellipse fill="#4285F4" cx="121.01" cy="168.33" rx="4.7" ry="3.54"/>
					<path fill="#47A1FB" d="M121.01,144.13c-2.24,0-4.05,5.48-4.05,12.23c0,1.48,0.09,2.9,0.25,4.21c0.24,1.94,0.63,3.65,1.13,4.98
						c0.76,0.39,1.68,0.63,2.67,0.63c0.99,0,1.91-0.23,2.67-0.63c0.5-1.34,0.9-3.04,1.13-4.98c0.16-1.31,0.25-2.73,0.25-4.21
						C125.06,149.61,123.24,144.13,121.01,144.13z"/>
					<ellipse fill="#4285F4" cx="121.01" cy="144.41" rx="4.7" ry="3.54"/>
				</g>
				<g>
					<polygon fill="#232765" points="90.45,163.64 81.65,161.32 86.48,156.49 95.28,158.81 					"/>
					<g>
						<polygon fill="#232765" points="90.45,171.92 81.65,169.6 81.65,161.33 90.45,163.65 						"/>
						<polygon points="90.45,171.92 95.28,167.04 95.28,158.81 90.45,163.65 						"/>
					</g>
				</g>
				<g>
					<ellipse fill="#4285F4" cx="88.61" cy="158.6" rx="4.7" ry="3.54"/>
					<path fill="#47A1FB" d="M88.61,134.4c-2.24,0-4.05,5.48-4.05,12.23c0,1.48,0.09,2.9,0.25,4.21c0.24,1.94,0.63,3.65,1.13,4.98
						c0.76,0.39,1.68,0.63,2.67,0.63s1.91-0.23,2.67-0.63c0.5-1.34,0.9-3.04,1.13-4.98c0.16-1.31,0.25-2.73,0.25-4.21
						C92.66,139.88,90.85,134.4,88.61,134.4z"/>
					<ellipse fill="#4285F4" cx="88.61" cy="134.68" rx="4.7" ry="3.54"/>
				</g>
				<path fill="#232765" d="M133.9,116.99c-0.4,0-0.79-0.17-1.07-0.5l-6.19-7.36c-0.5-0.59-0.42-1.47,0.17-1.97
					c0.59-0.5,1.47-0.42,1.97,0.17l6.19,7.36c0.5,0.59,0.42,1.47-0.17,1.97C134.54,116.88,134.22,116.99,133.9,116.99L133.9,116.99z
					"/>
				<path fill="#232765" d="M122.59,113.9c-0.4,0-0.79-0.17-1.07-0.5l-6.19-7.36c-0.5-0.59-0.42-1.47,0.17-1.97
					c0.59-0.5,1.47-0.42,1.97,0.17l6.19,7.36c0.5,0.59,0.42,1.47-0.17,1.97C123.22,113.79,122.9,113.9,122.59,113.9L122.59,113.9z"
					/>
				<path fill="#232765" d="M111.27,110.92c-0.4,0-0.79-0.17-1.07-0.5l-6.19-7.36c-0.5-0.59-0.42-1.47,0.17-1.97
					c0.59-0.5,1.47-0.42,1.97,0.17l6.19,7.36c0.5,0.59,0.42,1.47-0.17,1.97C111.9,110.82,111.59,110.92,111.27,110.92L111.27,110.92
					z"/>
				<path fill="#232765" d="M99.95,107.15c-0.4,0-0.79-0.17-1.07-0.5l-6.19-7.36c-0.5-0.59-0.42-1.47,0.17-1.97
					c0.59-0.5,1.47-0.42,1.97,0.17l6.19,7.36c0.5,0.59,0.42,1.47-0.17,1.97C100.59,107.04,100.27,107.15,99.95,107.15L99.95,107.15z
					"/>
				<path fill="#003439" d="M102.35,163.96l-2.41,2.13c-0.33,0.29-0.21,0.83,0.21,0.96l8.18,2.44c0.32,0.09,0.65,0.01,0.9-0.21
					l2.44-2.26c0.29-0.27,0.17-0.75-0.2-0.86l-8.24-2.39C102.92,163.68,102.59,163.75,102.35,163.96L102.35,163.96z"/>
			</g>
			<g>
				
					<linearGradient id="SVGID_1_" gradientUnits="userSpaceOnUse" x1="131.2131" y1="-746.4487" x2="136.0565" y2="-743.5297" gradientTransform="matrix(1 0 0 1 0 880)">
					<stop  offset="0.06" style="stop-color:#232765"/>
					<stop  offset="0.69" style="stop-color:#131314"/>
				</linearGradient>
				<path fill="url(#SVGID_1_)" d="M141.42,125.45l-4.95-1.52l-11.85,19.69c0.26,0.14,0.51,0.32,0.74,0.51
					c1.02,0.85,3.11,2.29,4.24,0.99l11.82-19.64V125.45L141.42,125.45z"/>
				
					<linearGradient id="SVGID_00000059269202233866874420000009266013591210719652_" gradientUnits="userSpaceOnUse" x1="125.5222" y1="-747.8356" x2="130.9628" y2="-744.387" gradientTransform="matrix(1 0 0 1 0 880)">
					<stop  offset="0.06" style="stop-color:#232765"/>
					<stop  offset="0.69" style="stop-color:#131314"/>
				</linearGradient>
				<path fill="url(#SVGID_00000059269202233866874420000009266013591210719652_)" d="M131.5,122.42L119,143.2
					c0.23,0.11,0.46,0.21,0.71,0.29c0.73,0.25,1.49,0.35,2.24,0.29c0.65-0.05,1.25-0.41,1.92-0.37c0.26,0.01,0.52,0.1,0.76,0.23
					l11.85-19.69L131.5,122.42L131.5,122.42z"/>
				
					<linearGradient id="SVGID_00000023263892901728898850000014159399470675272363_" gradientUnits="userSpaceOnUse" x1="135.3" y1="-744.8407" x2="139.8672" y2="-741.6061" gradientTransform="matrix(1 0 0 1 0 880)">
					<stop  offset="0.06" style="stop-color:#232765"/>
					<stop  offset="0.69" style="stop-color:#131314"/>
				</linearGradient>
				<path fill="url(#SVGID_00000023263892901728898850000014159399470675272363_)" d="M141.42,125.49l-11.82,19.64
					c0,0,0.01-0.01,0.02-0.02l11.1-14.07c0.45-0.48,0.7-1.13,0.7-1.81L141.42,125.49L141.42,125.49z"/>
				
					<linearGradient id="SVGID_00000137830687423506356180000002899134437533830276_" gradientUnits="userSpaceOnUse" x1="81.2382" y1="-761.0484" x2="85.6786" y2="-758.6366" gradientTransform="matrix(1 0 0 1 0 880)">
					<stop  offset="0.06" style="stop-color:#232765"/>
					<stop  offset="0.69" style="stop-color:#131314"/>
				</linearGradient>
				<path fill="url(#SVGID_00000137830687423506356180000002899134437533830276_)" d="M91.35,110.13c-0.8-0.27-1.66-0.06-2.18,0.56
					l-11.8,19.17c-0.3,0.46-0.17,1.11,0.28,1.47c0.34,0.28,0.68,0.48,1.02,0.62l13.06-21.7L91.35,110.13L91.35,110.13z"/>
				
					<linearGradient id="SVGID_00000040545069028543734520000014499898061377210259_" gradientUnits="userSpaceOnUse" x1="85.5233" y1="-759.4279" x2="90.8964" y2="-756.244" gradientTransform="matrix(1 0 0 1 0 880)">
					<stop  offset="0.06" style="stop-color:#232765"/>
					<stop  offset="0.69" style="stop-color:#131314"/>
				</linearGradient>
				<path fill="url(#SVGID_00000040545069028543734520000014499898061377210259_)" d="M91.74,110.25l-13.06,21.7
					c1.87,0.79,3.48-0.23,3.48-0.23c0.76-0.28,1.62-0.06,2.23,0.52l12.32-20.48L91.74,110.25L91.74,110.25z"/>
				
					<linearGradient id="SVGID_00000149382256508712105950000006628576759852400267_" gradientUnits="userSpaceOnUse" x1="90.8965" y1="-758.2108" x2="96.1399" y2="-755.2891" gradientTransform="matrix(1 0 0 1 0 880)">
					<stop  offset="0.06" style="stop-color:#232765"/>
					<stop  offset="0.69" style="stop-color:#131314"/>
				</linearGradient>
				<path fill="url(#SVGID_00000149382256508712105950000006628576759852400267_)" d="M96.71,111.77l-12.32,20.48
					c0.05,0.05,0.1,0.09,0.14,0.14c0.6,0.7,1.47,1.29,2.51,1.64c0.68,0.23,1.36,0.32,1.99,0.3l12.66-21.04L96.71,111.77
					L96.71,111.77z"/>
				
					<linearGradient id="SVGID_00000050639188523997778180000006747979755334167686_" gradientUnits="userSpaceOnUse" x1="95.6169" y1="-756.5955" x2="101.1899" y2="-753.6765" gradientTransform="matrix(1 0 0 1 0 880)">
					<stop  offset="0.06" style="stop-color:#232765"/>
					<stop  offset="0.69" style="stop-color:#131314"/>
				</linearGradient>
				<path fill="url(#SVGID_00000050639188523997778180000006747979755334167686_)" d="M101.68,113.29l-12.66,21.04
					c0.47-0.02,0.91-0.1,1.31-0.24c0.82-0.3,1.76-0.03,2.36,0.66c0.35,0.41,0.79,0.77,1.31,1.08l12.65-21.02L101.68,113.29
					L101.68,113.29z"/>
				
					<linearGradient id="SVGID_00000142875944967262302340000010215418048930304415_" gradientUnits="userSpaceOnUse" x1="100.7923" y1="-755.0929" x2="106.0329" y2="-752.0415" gradientTransform="matrix(1 0 0 1 0 880)">
					<stop  offset="0.06" style="stop-color:#232765"/>
					<stop  offset="0.69" style="stop-color:#131314"/>
				</linearGradient>
				<path fill="url(#SVGID_00000142875944967262302340000010215418048930304415_)" d="M106.65,114.81L94,135.83
					c0.37,0.22,0.77,0.41,1.2,0.56c1.2,0.4,2.38,0.4,3.3,0.06c0.34-0.12,0.71-0.15,1.07-0.08l12.06-20.04L106.65,114.81
					L106.65,114.81z"/>
				
					<linearGradient id="SVGID_00000106865034547948882750000004355507394110867614_" gradientUnits="userSpaceOnUse" x1="110.6949" y1="-752.0201" x2="115.9355" y2="-749.0363" gradientTransform="matrix(1 0 0 1 0 880)">
					<stop  offset="0.06" style="stop-color:#232765"/>
					<stop  offset="0.69" style="stop-color:#131314"/>
				</linearGradient>
				<path fill="url(#SVGID_00000106865034547948882750000004355507394110867614_)" d="M116.59,117.85l-12.67,21.06
					c1,0.24,1.97,0.19,2.74-0.09c0.82-0.3,1.76-0.03,2.36,0.66c0.08,0.1,0.17,0.19,0.26,0.28l12.27-20.39L116.59,117.85
					L116.59,117.85z"/>
				
					<linearGradient id="SVGID_00000049940027507084710710000001731771513940848287_" gradientUnits="userSpaceOnUse" x1="115.8484" y1="-750.7921" x2="121.0242" y2="-747.7407" gradientTransform="matrix(1 0 0 1 0 880)">
					<stop  offset="0.06" style="stop-color:#232765"/>
					<stop  offset="0.69" style="stop-color:#131314"/>
				</linearGradient>
				<path fill="url(#SVGID_00000049940027507084710710000001731771513940848287_)" d="M121.56,119.37l-12.27,20.39
					c0.58,0.57,1.35,1.06,2.24,1.36c0.95,0.32,1.88,0.38,2.69,0.23l12.3-20.45L121.56,119.37z"/>
				
					<linearGradient id="SVGID_00000155860185354410620640000013759039658424157327_" gradientUnits="userSpaceOnUse" x1="120.5944" y1="-749.4053" x2="126.0999" y2="-746.2863" gradientTransform="matrix(1 0 0 1 0 880)">
					<stop  offset="0.06" style="stop-color:#232765"/>
					<stop  offset="0.69" style="stop-color:#131314"/>
				</linearGradient>
				<path fill="url(#SVGID_00000155860185354410620640000013759039658424157327_)" d="M126.53,120.9l-12.3,20.45
					c0.21-0.04,0.41-0.09,0.61-0.16c0.82-0.3,1.76-0.03,2.36,0.66c0.46,0.53,1.08,1,1.8,1.35l12.5-20.78L126.53,120.9L126.53,120.9z
					"/>
				
					<linearGradient id="SVGID_00000107563982224513724170000003450227556796627073_" gradientUnits="userSpaceOnUse" x1="106.0801" y1="-753.9761" x2="110.9911" y2="-750.9923" gradientTransform="matrix(1 0 0 1 0 880)">
					<stop  offset="0.06" style="stop-color:#232765"/>
					<stop  offset="0.69" style="stop-color:#131314"/>
				</linearGradient>
				<path fill-rule="evenodd" clip-rule="evenodd" fill="url(#SVGID_00000107563982224513724170000003450227556796627073_)" d="
					M111.62,116.33l-12.06,20.04c0.49,0.09,0.95,0.34,1.3,0.74c0.6,0.7,1.47,1.29,2.51,1.64c0.19,0.06,0.37,0.11,0.55,0.15
					l12.67-21.06L111.62,116.33z"/>
			</g>
			<path fill="#2F3793" d="M150.67,101.89v-1.71c0-0.21-0.03-0.41-0.08-0.6l-9.16,14.81v5.99l-13.89,23.21
				c-0.38,0.66-0.15,1.52,0.51,1.9c0.59,0.34,1.33,0.2,1.76-0.33l3.41-3.7v30.94l17.4-17.31L150.67,101.89L150.67,101.89
				L150.67,101.89z"/>
		</g>
		<g>
			
				<linearGradient id="SVGID_00000059290898521269676020000015123329808074842034_" gradientUnits="userSpaceOnUse" x1="142.6653" y1="-774.7914" x2="150.1318" y2="-770.0016" gradientTransform="matrix(1 0 0 1 0 880)">
				<stop  offset="0.06" style="stop-color:#232765"/>
				<stop  offset="0.69" style="stop-color:#131314"/>
			</linearGradient>
			<path fill="url(#SVGID_00000059290898521269676020000015123329808074842034_)" d="M141.52,114.29c0.54-0.83,8.4-10.43,8.4-10.43
				c0.46-0.53,0.76-1.26,0.76-1.99v-1.71c0.01-0.99-0.63-1.83-1.56-2.14l-9.87,16.41C139.97,114.75,140.97,114.89,141.52,114.29
				L141.52,114.29z"/>
			
				<linearGradient id="SVGID_00000180355444857580668440000003644893932262390705_" gradientUnits="userSpaceOnUse" x1="89.5662" y1="-790.8625" x2="95.0857" y2="-787.6927" gradientTransform="matrix(1 0 0 1 0 880)">
				<stop  offset="0.06" style="stop-color:#232765"/>
				<stop  offset="0.69" style="stop-color:#131314"/>
			</linearGradient>
			<path fill="url(#SVGID_00000180355444857580668440000003644893932262390705_)" d="M98.62,83.71c-1.12-0.35-2.29,0.07-2.86,1.04
				c-2.28,3.63-4.25,7.28-6.59,10.88c-0.95,1.45-0.78,2.91,0.11,4.03l9.56-15.89L98.62,83.71L98.62,83.71z"/>
			
				<linearGradient id="SVGID_00000132076775965243938780000015624901854100131715_" gradientUnits="userSpaceOnUse" x1="94.1729" y1="-788.7014" x2="99.6924" y2="-785.6415" gradientTransform="matrix(1 0 0 1 0 880)">
				<stop  offset="0.06" style="stop-color:#232765"/>
				<stop  offset="0.69" style="stop-color:#131314"/>
			</linearGradient>
			<path fill="url(#SVGID_00000132076775965243938780000015624901854100131715_)" d="M98.83,83.77l-9.56,15.89
				c0.57,0.72,1.44,1.31,2.51,1.67c0.76,0.26,1.51,0.35,2.19,0.29l9.88-16.43L98.83,83.77L98.83,83.77z"/>
			
				<linearGradient id="SVGID_00000148659116530712914330000018069845497723496325_" gradientUnits="userSpaceOnUse" x1="99.4588" y1="-787.0198" x2="104.4853" y2="-784.1234" gradientTransform="matrix(1 0 0 1 0 880)">
				<stop  offset="0.06" style="stop-color:#232765"/>
				<stop  offset="0.69" style="stop-color:#131314"/>
			</linearGradient>
			<path fill="url(#SVGID_00000148659116530712914330000018069845497723496325_)" d="M103.86,85.19l-9.88,16.43
				c0.39-0.03,0.76-0.11,1.1-0.23c0.81-0.3,1.76-0.03,2.36,0.66c0.39,0.45,0.88,0.85,1.46,1.17l9.99-16.61L103.86,85.19
				L103.86,85.19z"/>
			
				<linearGradient id="SVGID_00000057870772561899284820000016026125360990088340_" gradientUnits="userSpaceOnUse" x1="104.3288" y1="-785.5203" x2="109.4651" y2="-782.6774" gradientTransform="matrix(1 0 0 1 0 880)">
				<stop  offset="0.06" style="stop-color:#232765"/>
				<stop  offset="0.69" style="stop-color:#131314"/>
			</linearGradient>
			<path fill="url(#SVGID_00000057870772561899284820000016026125360990088340_)" d="M108.89,86.62l-9.99,16.61
				c0.33,0.18,0.68,0.34,1.05,0.47c1.2,0.4,2.38,0.4,3.3,0.06c0.4-0.15,0.84-0.15,1.25-0.05l9.43-15.67L108.89,86.62L108.89,86.62z"
				/>
			
				<linearGradient id="SVGID_00000070111553291687493940000017167331667763558561_" gradientUnits="userSpaceOnUse" x1="109.4644" y1="-784.5751" x2="114.6853" y2="-781.4731" gradientTransform="matrix(1 0 0 1 0 880)">
				<stop  offset="0.06" style="stop-color:#232765"/>
				<stop  offset="0.69" style="stop-color:#131314"/>
			</linearGradient>
			<path fill="url(#SVGID_00000070111553291687493940000017167331667763558561_)" d="M113.92,88.04l-9.43,15.67
				c0.42,0.11,0.81,0.36,1.12,0.71c0.6,0.7,1.47,1.29,2.51,1.64c0.25,0.08,0.49,0.14,0.73,0.19l10.1-16.78L113.92,88.04
				L113.92,88.04z"/>
			
				<linearGradient id="SVGID_00000103960706183482937960000001903025312516810932_" gradientUnits="userSpaceOnUse" x1="114.2946" y1="-782.6644" x2="119.4309" y2="-779.6609" gradientTransform="matrix(1 0 0 1 0 880)">
				<stop  offset="0.06" style="stop-color:#232765"/>
				<stop  offset="0.69" style="stop-color:#131314"/>
			</linearGradient>
			<path fill="url(#SVGID_00000103960706183482937960000001903025312516810932_)" d="M118.95,89.47l-10.1,16.78
				c0.94,0.19,1.83,0.14,2.56-0.13c0.81-0.3,1.76-0.03,2.36,0.66c0.12,0.14,0.25,0.27,0.39,0.4l9.8-16.29L118.95,89.47L118.95,89.47
				z"/>
			
				<linearGradient id="SVGID_00000054229756960135836580000012057214410612517264_" gradientUnits="userSpaceOnUse" x1="119.5074" y1="-781.3823" x2="124.5902" y2="-778.4324" gradientTransform="matrix(1 0 0 1 0 880)">
				<stop  offset="0.06" style="stop-color:#232765"/>
				<stop  offset="0.69" style="stop-color:#131314"/>
			</linearGradient>
			<path fill="url(#SVGID_00000054229756960135836580000012057214410612517264_)" d="M123.98,90.89l-9.8,16.29
				c0.57,0.52,1.28,0.96,2.11,1.24c1.04,0.35,2.07,0.39,2.92,0.18l9.8-16.29L123.98,90.89L123.98,90.89z"/>
			
				<linearGradient id="SVGID_00000166669449187636504410000016661585959490636735_" gradientUnits="userSpaceOnUse" x1="124.5172" y1="-780.0678" x2="129.7099" y2="-777.0079" gradientTransform="matrix(1 0 0 1 0 880)">
				<stop  offset="0.06" style="stop-color:#232765"/>
				<stop  offset="0.69" style="stop-color:#131314"/>
			</linearGradient>
			<path fill="url(#SVGID_00000166669449187636504410000016661585959490636735_)" d="M129.01,92.32l-9.8,16.29
				c0.13-0.03,0.25-0.07,0.37-0.11c0.81-0.3,1.76-0.03,2.36,0.66c0.49,0.57,1.17,1.07,1.96,1.42l10.13-16.83L129.01,92.32
				L129.01,92.32z"/>
			
				<linearGradient id="SVGID_00000032608742027201904660000011111810563425250999_" gradientUnits="userSpaceOnUse" x1="129.3814" y1="-778.3566" x2="134.3543" y2="-775.4602" gradientTransform="matrix(1 0 0 1 0 880)">
				<stop  offset="0.06" style="stop-color:#232765"/>
				<stop  offset="0.69" style="stop-color:#131314"/>
			</linearGradient>
			<path fill="url(#SVGID_00000032608742027201904660000011111810563425250999_)" d="M134.04,93.74l-10.13,16.83
				c0.18,0.08,0.36,0.15,0.55,0.22c1.2,0.4,2.38,0.4,3.3,0.06c0.58-0.21,1.23-0.14,1.77,0.18l9.54-15.86L134.04,93.74L134.04,93.74z
				"/>
			
				<linearGradient id="SVGID_00000089534265665816455470000016405652375878152866_" gradientUnits="userSpaceOnUse" x1="134.4174" y1="-777.3048" x2="139.9905" y2="-774.1351" gradientTransform="matrix(1 0 0 1 0 880)">
				<stop  offset="0.06" style="stop-color:#232765"/>
				<stop  offset="0.69" style="stop-color:#131314"/>
			</linearGradient>
			<path fill="url(#SVGID_00000089534265665816455470000016405652375878152866_)" d="M139.07,95.17l-9.54,15.86
				c0.22,0.13,0.42,0.28,0.59,0.48c0.6,0.7,1.47,1.29,2.51,1.64c0.45,0.15,0.9,0.25,1.33,0.28l10.14-16.85L139.07,95.17
				L139.07,95.17z"/>
			
				<linearGradient id="SVGID_00000146490224036138678210000008848916656942136737_" gradientUnits="userSpaceOnUse" x1="139.5488" y1="-775.4633" x2="144.8486" y2="-772.2935" gradientTransform="matrix(1 0 0 1 0 880)">
				<stop  offset="0.06" style="stop-color:#232765"/>
				<stop  offset="0.69" style="stop-color:#131314"/>
			</linearGradient>
			<path fill="url(#SVGID_00000146490224036138678210000008848916656942136737_)" d="M148.99,97.98l-4.9-1.39l-10.14,16.85
				c0.74,0.07,1.44-0.02,2.03-0.25c0.54-0.21,1.16-0.15,1.69,0.13c0.5,0.28,0.88,0.76,1.41,1.03c0.05,0.03,0.1,0.05,0.16,0.07
				l9.87-16.41C149.08,98,149.04,97.99,148.99,97.98L148.99,97.98z"/>
		</g>
	</g>
</g>
</svg>
