<?xml version="1.0" encoding="utf-8"?>
<!-- Generator: Adobe Illustrator 30.0.0, SVG Export Plug-In . SVG Version: 9.03 Build 0)  -->
<svg version="1.1" baseProfile="basic" id="Layer_1"
	 xmlns="http://www.w3.org/2000/svg" xmlns:xlink="http://www.w3.org/1999/xlink" x="0px" y="0px" width="360px" height="200px"
	 viewBox="0 0 360 200" xml:space="preserve">
<g>
	<rect fill="#DEF5FF" width="360" height="200"/>
	
		<rect x="76.44" y="129.15" transform="matrix(0.5423 -0.8402 0.8402 0.5423 -69.111 161.1116)" fill="#06B0FF" width="73.76" height="29.68"/>
	<circle fill="#64BEFF" cx="148.18" cy="89.75" r="33.11"/>
	<path fill="#9CDAFF" d="M346.63,141.22l-23.09-17.87h-0.01c-1.14-1.03-2.76-1.67-4.55-1.67s-3.41,0.65-4.55,1.67h-0.01
		l-23.09,17.87c-0.46,0.28-0.89,0.61-1.27,0.98l0,0l0,0c-1.34,1.3-2.18,3.12-2.18,5.14v32.76c0,3.96,3.21,7.16,7.16,7.16h47.87
		c3.96,0,7.16-3.21,7.16-7.16v-32.76C350.08,144.75,348.7,142.48,346.63,141.22L346.63,141.22z"/>
	<path fill="#9CDAFF" d="M166.48,0v27.9c0,5.11-4.15,9.27-9.27,9.27h-54.85c-5.12,0-9.27-4.16-9.27-9.27V0H166.48z"/>
	<path fill="#06B0FF" d="M360,66.16v41.55H250.07c-34.1,0-61.74-27.65-61.74-61.75V0h41.8v46.62c0,10.79,8.75,19.54,19.54,19.54H360
		z"/>
	<path fill="#64BEFF" d="M337.27,0c-0.41,1.1-1.14,2.76-2.24,4.28c-0.93,1.28-8.23,11.53-15.31,21.46
		c-7.08,9.94-13.92,19.55-13.92,19.55c-1.08,1.61-2.92,2.67-5,2.67c-1.04,0-2.02-0.26-2.87-0.73s-1.58-1.13-2.12-1.94
		c0,0-27.39-38.45-29.24-41.01c-1.1-1.52-1.82-3.18-2.24-4.28H337.27z"/>
	<path fill="#06B0FF" d="M81,44.24C74.08,30.9,62.18,20.85,47.82,16.29c-5.57-1.71-11.33-2.57-17.09-2.57
		c-5.76,0-11.52,0.86-17.1,2.57C8.77,17.84,4.2,20.01,0,22.72v104.54c4.91,6.17,10.05,12.77,14.98,20.48
		c11.48,17.81,8.27,28.45,15.7,28.45h0.09c7.43,0,4.22-10.64,15.71-28.45c18.9-29.55,40.94-42.97,40.94-77.42
		C87.42,61.21,85.23,52.26,81,44.24z M30.7,92.02c-11.96,0-21.66-9.69-21.66-21.65s9.7-21.65,21.66-21.65s21.65,9.69,21.65,21.65
		S42.66,92.02,30.7,92.02z"/>
	<path fill="#64BEFF" d="M111.23,197.9c0,0.7-0.02,1.41-0.07,2.1H45.07c-0.04-0.69-0.06-1.4-0.06-2.1
		c0-18.28,14.82-33.11,33.11-33.11c1.34,0,2.66,0.08,3.96,0.24c10.6,1.26,19.66,7.53,24.75,16.38
		C109.63,186.27,111.23,191.9,111.23,197.9z"/>
	<path fill="#9CDAFF" d="M264.95,190.89c0,3.1-0.22,6.14-0.65,9.11H138.54c-0.43-2.97-0.65-6.01-0.65-9.11
		c0-35.08,28.44-63.53,63.53-63.53h0.01C236.51,127.36,264.95,155.8,264.95,190.89z"/>
</g>
<rect fill="none" width="360" height="200"/>
</svg>
