<?xml version="1.0" encoding="utf-8"?>
<!-- Generator: Adobe Illustrator 30.0.0, SVG Export Plug-In . SVG Version: 9.03 Build 0)  -->
<svg version="1.1" baseProfile="basic" id="Layer_1"
	 xmlns="http://www.w3.org/2000/svg" xmlns:xlink="http://www.w3.org/1999/xlink" x="0px" y="0px" width="290px" height="200px"
	 viewBox="0 0 290 200" xml:space="preserve">
<g>
	<g id="Land_00000145035654906071946970000007968718682102210975_">
		<path fill="#C5D99B" d="M101.38,110.54l-25.54,44.4c-2.88,5-0.23,11.38,5.34,12.87l95.61,25.62c7.29,1.95,14.98-1.24,18.74-7.78
			l23.51-40.88c2.38-4.14,0.19-9.41-4.42-10.65l-103.35-27.69C107.42,105.4,103.36,107.08,101.38,110.54L101.38,110.54z"/>
		<polygon fill="#EAEED6" points="94.34,158.12 87.74,169.57 115.51,177.01 122.1,165.55 		"/>
	</g>
	<g id="Shop_00000154405126213625473980000011807848883884062096_">
		<g>
			<path fill="#DFE59F" d="M208.16,97.86c0-3.01-2.06-5.63-4.98-6.35l-89.08-21.86c-2.92-0.72-5.96,0.58-7.45,3.19l-19.49,33.89
				l0.11,0.03v49.46l98.88,26.5v0.03l0.01-0.03l0.1,0.03v-0.19l21.91-38.1L208.16,97.86L208.16,97.86z"/>
			<path fill="#9ECFA3" d="M208.16,97.86c0-1.25-0.36-2.42-0.98-3.43l-21.04,36.59v51.69l0,0v0.03l0.11-0.19l0,0l21.91-38.1V97.86
				L208.16,97.86z"/>
			<path fill="#64BEFF" d="M134.22,162.02l35.67,9.55c2.95,0.79,5.84-1.43,5.84-4.49v-31.33c0-2.11-1.43-3.96-3.47-4.49l-35.67-9.33
				c-2.94-0.77-5.82,1.45-5.82,4.49v31.12C130.78,159.64,132.19,161.48,134.22,162.02L134.22,162.02z"/>
			<polygon fill="#00854C" points="122.1,128.75 122.1,165.55 94.34,158.12 94.34,122.28 			"/>
			<path fill="#9ECFA3" d="M100.17,155.05l14.98,4.01c1.38,0.37,2.74-0.67,2.74-2.1V148c0-0.98-0.66-1.85-1.61-2.1l-14.98-4.01
				c-1.38-0.37-2.74,0.67-2.74,2.1v8.97C98.56,153.93,99.22,154.8,100.17,155.05z"/>
			<g>
				<path fill="#F4F4C7" d="M123.27,119.08l1.77-3.08l-20.38-5l-1.76,3.06c-2.6,4.52-3.97,9.65-3.97,14.86v2.6l20.36,5v-2.57
					C119.3,128.72,120.67,123.6,123.27,119.08L123.27,119.08z"/>
				<path fill="#F4F4C7" d="M145.42,121l-1.79,3.11c-2.6,4.52-3.97,9.65-3.97,14.86v2.54l20.36,5v-2.51
					c0-5.22,1.37-10.34,3.97-14.86l1.8-3.13L145.42,121L145.42,121z"/>
			</g>
			<g>
				<path fill="#9ECFA3" d="M180.48,151.52l-20.45-5.02v-2.51c0-5.22,1.37-10.34,3.97-14.86l1.8-3.13l20.46,5.02l0,0v0v10.45
					L180.48,151.52L180.48,151.52z"/>
				<path fill="#9ECFA3" d="M143.63,124.11l1.79-3.11l-20.38-5l-1.77,3.08c-2.6,4.52-3.97,9.65-3.97,14.86v2.57l20.36,5v-2.54
					C139.66,133.75,141.03,128.63,143.63,124.11L143.63,124.11z"/>
				<path fill="#9ECFA3" d="M102.91,114.05l1.76-3.06l-17.4-4.27l-1.93,3.36c-2.52,4.38-3.85,9.35-3.85,14.4v0.79
					c0,1.15,0.78,2.15,1.9,2.42l15.55,3.82v-2.6C98.94,123.7,100.31,118.57,102.91,114.05L102.91,114.05z"/>
			</g>
			<path fill="#6C9E82" fill-opacity="0.91" d="M186.25,131.02l-1.93,3.35c-2.52,4.38-3.85,9.35-3.85,14.4v2.74l5.78-10.04
				L186.25,131.02L186.25,131.02z"/>
			
				<linearGradient id="SVGID_1_" gradientUnits="userSpaceOnUse" x1="145.0233" y1="14531.2188" x2="160.6151" y2="14531.2188" gradientTransform="matrix(1 0 0 -1 0 14692)">
				<stop  offset="0" style="stop-color:#FFE921"/>
				<stop  offset="1" style="stop-color:#F29900"/>
			</linearGradient>
			<path fill="url(#SVGID_1_)" d="M145.03,159.86c0.01,1.38,0.83,2.68,1.98,3.44c1.14,0.77,2.56,1.05,3.94,0.99
				c0.65-0.03,1.3-0.13,1.93-0.29c0.18-0.05,0.38-0.1,0.56-0.07c0.19,0.04,0.36,0.17,0.52,0.29c1.42,1.04,3.44,1.18,4.99,0.34
				c0.69-0.37,1.31-0.96,1.55-1.71c0.35-1.09-0.15-2.27-0.78-3.23c-0.42-0.62-0.91-1.21-1.51-1.66c-0.75-0.57-1.65-0.9-2.56-1.13
				c-1.33-0.34-2.71-0.46-4.07-0.37c-0.94,0.07-1.87,0.23-2.79,0.38c-0.6,0.09-1.19,0.19-1.79,0.24c-0.31,0.03-0.67,0.01-0.95,0.16
				C145.26,157.66,145.02,159.08,145.03,159.86L145.03,159.86z"/>
			
				<linearGradient id="SVGID_00000159442307165703992270000005370358884021079477_" gradientUnits="userSpaceOnUse" x1="152.7899" y1="14537.3779" x2="165.65" y2="14537.3779" gradientTransform="matrix(1 0 0 -1 0 14692)">
				<stop  offset="0" style="stop-color:#F29900"/>
				<stop  offset="1" style="stop-color:#FFE921"/>
			</linearGradient>
			<path fill="url(#SVGID_00000159442307165703992270000005370358884021079477_)" d="M153.45,157.25c0.34,0.48,0.85,0.82,1.38,1.09
				c1.93,1,4.22,1.24,6.35,0.81c0.56-0.11,1.11-0.27,1.61-0.54c0.58-0.32,1.06-0.79,1.49-1.29c0.51-0.6,0.95-1.26,1.19-2.01
				c0.24-0.75,0.26-1.58-0.05-2.3c-0.31-0.72-0.99-1.29-1.77-1.38c-0.12-0.01-0.25-0.02-0.36-0.08c-0.11-0.06-0.19-0.16-0.27-0.26
				c-0.62-0.78-1.57-1.3-2.56-1.4c-0.99-0.1-2.02,0.23-2.79,0.87c-0.1,0.08-0.2,0.17-0.32,0.21c-0.11,0.03-0.22,0.01-0.33-0.01
				c-1.1-0.15-2.28,0.14-3.11,0.89c-0.74,0.66-1.15,1.7-1.12,2.68C152.82,155.42,152.92,156.53,153.45,157.25L153.45,157.25z"/>
			<path fill="#FFE921" d="M143.3,150.49c-0.83-0.29-1.7-0.49-2.57-0.38c-0.87,0.11-1.72,0.58-2.13,1.35
				c-0.21,0.4-0.29,0.85-0.31,1.3c-0.08,1.73,0.78,3.47,2.2,4.45c0.48,0.33,1,0.58,1.54,0.79c2.32,0.91,4.91,1.13,7.35,0.62
				c0.99-0.21,1.97-0.54,2.79-1.14c0.81-0.6,1.44-1.5,1.55-2.51c0.13-1.21-0.52-2.42-1.5-3.15c-0.98-0.72-2.23-1.01-3.44-0.98
				c-1.13,0.03-2.14,0.45-3.24,0.6c-0.39,0.05-0.6-0.08-0.92-0.29C144.2,150.88,143.78,150.66,143.3,150.49L143.3,150.49z"/>
			<ellipse fill="#3A85F7" cx="158.92" cy="153.82" rx="1.34" ry="0.8"/>
			<ellipse fill="#3A85F7" cx="152.66" cy="160.78" rx="1.34" ry="0.8"/>
			<ellipse fill="#3A85F7" cx="144.68" cy="154.31" rx="1.34" ry="0.8"/>
		</g>
	</g>
	<g id="Tree_00000034788652376556827970000007438624122783150770_">
		<g>
			<path fill="#5B4100" d="M213.27,168.55c-2.64-0.43-5.35,0.51-6.07,2.1c-0.12,0.27-0.17,0.54-0.17,0.8c0-0.01,0-0.02,0-0.02v7.9
				c0,1.31,1.45,2.52,3.66,2.87c2.64,0.43,5.35-0.51,6.06-2.1c0.12-0.26,0.17-0.52,0.17-0.78v-7.9c0,0,0,0.01,0,0.01
				C216.94,170.12,215.48,168.91,213.27,168.55L213.27,168.55z M207.81,173.03c0,0-0.01-0.01-0.01-0.01
				C207.8,173.02,207.81,173.03,207.81,173.03z M207.63,172.84c0,0-0.02-0.02-0.03-0.03C207.61,172.82,207.62,172.83,207.63,172.84z
				 M207.45,172.62c-0.01-0.01-0.02-0.03-0.03-0.04C207.43,172.6,207.44,172.61,207.45,172.62z M207.05,171.66c0,0,0,0.01,0,0.02
				C207.05,171.67,207.05,171.67,207.05,171.66z M207.29,172.39c0,0,0-0.01-0.01-0.02C207.29,172.37,207.29,172.38,207.29,172.39z
				 M207.19,172.17c0,0-0.01-0.02-0.01-0.04C207.18,172.15,207.19,172.16,207.19,172.17z M207.1,171.93c0-0.01-0.01-0.03-0.01-0.04
				C207.1,171.9,207.1,171.92,207.1,171.93z M208.01,173.21c0.01,0.01,0.03,0.02,0.04,0.03
				C208.04,173.23,208.02,173.22,208.01,173.21z M209.86,174.12c0.02,0.01,0.04,0.01,0.06,0.02
				C209.91,174.13,209.88,174.13,209.86,174.12z M208.27,173.4c0.01,0.01,0.03,0.02,0.04,0.03
				C208.3,173.42,208.29,173.41,208.27,173.4z M208.56,173.58c0,0,0.01,0,0.01,0.01C208.56,173.59,208.56,173.58,208.56,173.58z
				 M208.83,173.73c0.02,0.01,0.04,0.02,0.05,0.03C208.87,173.74,208.85,173.74,208.83,173.73z M209.17,173.88
				c0.02,0.01,0.04,0.01,0.05,0.02C209.2,173.89,209.19,173.89,209.17,173.88z M209.53,174.01
				C209.53,174.01,209.53,174.01,209.53,174.01C209.53,174.02,209.53,174.02,209.53,174.01z M210.26,174.22
				c0.02,0,0.04,0.01,0.07,0.01C210.3,174.23,210.28,174.23,210.26,174.22z M216.91,171.64c0,0,0-0.02,0-0.03
				C216.92,171.62,216.91,171.63,216.91,171.64z M216.82,172.03c0.01-0.02,0.01-0.04,0.02-0.05
				C216.83,171.99,216.83,172.01,216.82,172.03z M216.88,171.85c0-0.02,0.01-0.04,0.01-0.06
				C216.88,171.81,216.88,171.83,216.88,171.85z"/>
			<circle fill="#00854C" cx="212.08" cy="157.44" r="17.21"/>
		</g>
	</g>
	<g id="Notifications_00000004537791333736446790000006056580430716529562_">
		<path fill-rule="evenodd" clip-rule="evenodd" fill="#3D5FEC" d="M137.41,85.56l-82.98,0.09c-7.55,0.01-13.67,6.14-13.67,13.69
			c0,7.55,6.12,13.68,13.67,13.69h82.98l0,0c7.55-0.01,13.67-6.16,13.67-13.73C151.07,91.72,144.96,85.57,137.41,85.56L137.41,85.56
			z"/>
		<g>
			<path fill="#FDFD6D" d="M58.67,91.93l1.74,4.15l4.48,0.37c0.6,0.05,0.85,0.81,0.39,1.2l-3.4,2.93l1.03,4.37
				c0.14,0.59-0.5,1.06-1.02,0.74l-3.84-2.33l-3.84,2.33c-0.52,0.32-1.16-0.15-1.02-0.74l1.03-4.37l-3.4-2.93
				c-0.46-0.4-0.22-1.15,0.39-1.2l4.48-0.37l1.74-4.15C57.64,91.37,58.43,91.37,58.67,91.93L58.67,91.93z"/>
			<path fill="#FDFD6D" d="M77.6,91.93l1.74,4.15l4.48,0.37c0.6,0.05,0.85,0.81,0.39,1.2l-3.4,2.93l1.03,4.37
				c0.14,0.59-0.5,1.06-1.02,0.74l-3.84-2.33l-3.84,2.33c-0.52,0.32-1.16-0.15-1.02-0.74l1.03-4.37l-3.4-2.93
				c-0.46-0.4-0.22-1.15,0.39-1.2l4.48-0.37l1.74-4.15C76.57,91.37,77.37,91.37,77.6,91.93L77.6,91.93z"/>
			<path fill="#FDFD6D" d="M96.54,91.93l1.74,4.15l4.48,0.37c0.6,0.05,0.85,0.81,0.39,1.2l-3.4,2.93l1.03,4.37
				c0.14,0.59-0.5,1.06-1.02,0.74l-3.84-2.33l-3.84,2.33c-0.52,0.32-1.16-0.15-1.02-0.74l1.03-4.37l-3.4-2.93
				c-0.46-0.4-0.22-1.15,0.39-1.2l4.48-0.37l1.74-4.15C95.51,91.37,96.3,91.37,96.54,91.93L96.54,91.93z"/>
			<path fill="#FDFD6D" d="M115.47,91.93l1.74,4.15l4.48,0.37c0.6,0.05,0.85,0.81,0.39,1.2l-3.4,2.93l1.03,4.37
				c0.14,0.59-0.5,1.06-1.02,0.74l-3.84-2.33L111,105.7c-0.52,0.32-1.16-0.15-1.02-0.74l1.03-4.37l-3.4-2.93
				c-0.46-0.4-0.22-1.15,0.39-1.2l4.48-0.37l1.74-4.15C114.44,91.37,115.24,91.37,115.47,91.93L115.47,91.93z"/>
			<path fill="#FDFD6D" d="M134.4,91.93l1.74,4.15l4.48,0.37c0.6,0.05,0.85,0.81,0.39,1.2l-3.4,2.93l1.03,4.37
				c0.14,0.59-0.5,1.06-1.02,0.74l-3.84-2.33l-3.84,2.33c-0.52,0.32-1.16-0.15-1.02-0.74l1.03-4.37l-3.4-2.93
				c-0.46-0.4-0.22-1.15,0.39-1.2l4.48-0.37l1.74-4.15C133.38,91.37,134.17,91.37,134.4,91.93L134.4,91.93z"/>
		</g>
		<g>
			<path fill="#FF4365" d="M205.09,25.16c-4.34-8.37-11.81-14.68-20.82-17.54l0,0c-6.73-2.07-13.88-2.17-20.66-0.21
				c-6.78,1.96-12.77,5.88-17.32,11.29l0,0c-5.4,6.41-8.32,14.52-8.32,22.89c-0.05,5.83,1.11,11.66,3.5,16.95
				c3.71,8.16,9.85,14.73,16.21,22.99l0,0c2.01,2.7,4.03,5.51,6.04,8.58c7.21,11.13,5.19,17.85,9.85,17.85
				c4.66,0,2.65-6.68,9.85-17.85c11.87-18.54,25.7-26.97,25.7-48.59C209.12,35.8,207.74,30.19,205.09,25.16L205.09,25.16
				L205.09,25.16z"/>
			<g>
				<path fill="#FFE921" d="M188.68,24.13c1.94,0.11,3.76-0.74,4.65-2.37c1.3-2.38,0.11-5.54-2.66-7.04
					c-2.77-1.51-6.06-0.79-7.36,1.59c-0.89,1.63-0.61,3.61,0.53,5.19c-7.39-2.53-15.74,0.56-19.59,7.64
					c-0.43,0.8-0.79,1.62-1.08,2.45c-1.69,4.75-5.9,8.17-10.9,8.85l0,0c-2.64,0.36-5.07,1.93-6.44,4.44
					c-2.29,4.2-0.73,9.46,3.47,11.75l28.67,15.59c4.2,2.29,9.46,0.73,11.75-3.47c1.37-2.52,1.36-5.41,0.23-7.82l0,0
					c-2.15-4.57-1.56-9.96,1.51-13.96c0.54-0.7,1.03-1.44,1.47-2.24C196.77,37.64,194.82,28.96,188.68,24.13L188.68,24.13z
					 M185.66,17.59c0.58-1.06,2.29-1.3,3.73-0.52c1.44,0.78,2.17,2.34,1.59,3.41c-0.58,1.06-2.29,1.3-3.73,0.52
					C185.81,20.21,185.08,18.65,185.66,17.59z"/>
				<path d="M185.61,71.79c-1.66,3.04-10.39,1.49-23.05-5.4c-12.66-6.89-18.71-13.37-17.05-16.42c1.66-3.04,10.39-1.49,23.05,5.4
					C181.21,62.26,187.26,68.74,185.61,71.79z"/>
				
					<linearGradient id="SVGID_00000075121566308761069690000009015626269460713641_" gradientUnits="userSpaceOnUse" x1="161.4794" y1="14624.3359" x2="170.0915" y2="14638.1738" gradientTransform="matrix(1 0 0 -1 0 14692)">
					<stop  offset="0" style="stop-color:#FFE921"/>
					<stop  offset="1" style="stop-color:#F29900"/>
				</linearGradient>
				<path fill="url(#SVGID_00000075121566308761069690000009015626269460713641_)" d="M172.62,57.7c-1.27-0.77-2.62-1.55-4.06-2.33
					c-1.44-0.78-2.83-1.5-4.16-2.15c-2.45,1.17-4.95,3.24-6.38,5.88c-0.36,0.67-0.66,1.32-0.9,1.97c-0.23,0.62-0.39,1.22-0.51,1.81
					c-0.66,3.44,0.61,6.32,3.55,7.92c2.94,1.6,6.05,1.1,8.58-1.32c0.43-0.41,0.84-0.87,1.23-1.39c0.42-0.55,0.81-1.17,1.18-1.84
					C172.59,63.62,172.96,60.39,172.62,57.7L172.62,57.7z"/>
			</g>
		</g>
	</g>
</g>
</svg>
