<svg width="38" height="38" viewBox="0 0 38 38" fill="none" xmlns="http://www.w3.org/2000/svg">
<g clip-path="url(#clip0_241_27479)">
<path fill-rule="evenodd" clip-rule="evenodd" d="M23.128 14H24.8038C25.2382 14 25.6178 14.2918 25.727 14.7096L28.9907 27.1912C29.029 27.3375 28.9455 27.4879 28.8007 27.5337L27.2582 28.0226C27.1142 28.0683 26.9594 27.9947 26.9045 27.8549L24.182 20.9079C24.1668 20.8692 24.1089 20.8796 24.1082 20.9214L23.902 38H20.2354L19.4805 28.4701C19.4381 27.9343 18.6482 27.9343 18.6057 28.4701L17.8507 38H14.3035L14.0381 20.9143C14.0374 20.873 13.98 20.8624 13.9646 20.9008L11.1525 27.8605C11.097 27.9979 10.9446 28.07 10.8023 28.0262L9.20157 27.5331C9.0544 27.4879 8.96975 27.3348 9.01001 27.1871L12.4134 14.7003C12.5261 14.2869 12.9035 14 13.3342 14H14.959L19.0434 20.8456L23.128 14Z" fill="white"/>
<path d="M19.5 13C23.0899 13 26 10.0899 26 6.5C26 2.91015 23.0899 0 19.5 0C15.9101 0 13 2.91015 13 6.5C13 10.0899 15.9101 13 19.5 13Z" fill="white"/>
</g>
<defs>
<clipPath id="clip0_241_27479">
<rect width="38" height="38" fill="white"/>
</clipPath>
</defs>
</svg>
