<svg width="38" height="54" viewBox="0 0 38 54" fill="none" xmlns="http://www.w3.org/2000/svg">
<path d="M19 0.5C8.7784 0.5 0.5 8.84982 0.5 19.1429C0.5 24.779 2.32203 28.7069 4.89001 32.3966C5.95016 33.9199 7.14264 35.4096 8.38021 36.9557C8.63206 37.2704 8.88578 37.5873 9.14063 37.9074C10.6526 39.8062 12.2159 41.8275 13.7125 44.1629C15.4197 46.8283 16.0648 48.9746 16.5296 50.5213C16.5507 50.5914 16.5714 50.6602 16.5918 50.7277C16.8212 51.4879 17.0353 52.175 17.367 52.6604C17.542 52.9165 17.7602 53.1345 18.0454 53.2848C18.33 53.4347 18.6489 53.5 19 53.5C19.3568 53.5 19.6804 53.4354 19.9697 53.2879C20.2601 53.1399 20.4852 52.9242 20.6674 52.6683C21.0135 52.1822 21.2387 51.4947 21.4768 50.7323C21.5046 50.6435 21.5328 50.5524 21.5617 50.4593C22.0407 48.9151 22.6994 46.7915 24.383 44.1629C25.8792 41.8269 27.4364 39.8053 28.9395 37.9062C29.1776 37.6054 29.4146 37.3073 29.65 37.0113C30.8957 35.4446 32.0944 33.9371 33.1577 32.3949C35.7023 28.7045 37.5 24.7773 37.5 19.1429C37.5 8.84982 29.2216 0.5 19 0.5Z" fill="#8AB4F8" stroke="#202124"/>
<path fill-rule="evenodd" clip-rule="evenodd" d="M19 10.6667C22.4985 10.6667 25.6666 13.3467 25.6666 17.4969C25.6666 20.2638 23.4444 23.5426 19 27.3334C14.5555 23.5426 12.3333 20.2638 12.3333 17.4969C12.3333 13.3467 15.5015 10.6667 19 10.6667ZM24 17.4969C24 14.4717 21.7886 12.3334 19 12.3334C16.2113 12.3334 14 14.4717 14 17.4969C14 19.4508 15.627 22.0315 19 25.1117C22.3729 22.0315 24 19.4508 24 17.4969ZM20.6666 17.3334C20.6666 18.2538 19.9205 19 19 19C18.0795 19 17.3333 18.2538 17.3333 17.3334C17.3333 16.4129 18.0795 15.6667 19 15.6667C19.9205 15.6667 20.6666 16.4129 20.6666 17.3334Z" fill="#202124"/>
</svg>
