<?xml version="1.0" encoding="utf-8"?>
<!-- Generator: Adobe Illustrator 30.0.0, SVG Export Plug-In . SVG Version: 9.03 Build 0)  -->
<svg version="1.1" baseProfile="basic" id="Layer_1"
	 xmlns="http://www.w3.org/2000/svg" xmlns:xlink="http://www.w3.org/1999/xlink" x="0px" y="0px" width="144px" height="124px"
	 viewBox="0 0 144 124" xml:space="preserve">
<g>
	<g id="Layer_11_00000178198450428059313150000002966464488120712097_">
		<g>
			<circle fill="#0D6545" cx="109.4" cy="55.8" r="30.1"/>
			<path fill="#BEFF55" d="M105.89,36.81h7.01l12.24,32.58h-6.78l-2.69-7.78h-12.52l-2.73,7.78h-6.78L105.89,36.81L105.89,36.81z
				 M113.68,55.97l-2.91-8.19l-1.18-3.91h-0.36l-1.18,3.91l-2.91,8.19H113.68L113.68,55.97z"/>
		</g>
	</g>
	<g id="_x26__00000063597381294210707230000008896871056637981629_">
		<g>
			
				<linearGradient id="SVGID_1_" gradientUnits="userSpaceOnUse" x1="1437.8157" y1="14666.8115" x2="1437.8157" y2="14703.1035" gradientTransform="matrix(0.9848 -0.1736 -0.1736 -0.9848 1206.0452 14789.9717)">
				<stop  offset="0" style="stop-color:#43C36F"/>
				<stop  offset="0.24" style="stop-color:#46C46F"/>
				<stop  offset="0.45" style="stop-color:#50C770"/>
				<stop  offset="0.64" style="stop-color:#62CE72"/>
				<stop  offset="0.82" style="stop-color:#7AD775"/>
				<stop  offset="1" style="stop-color:#99E278"/>
				<stop  offset="1" style="stop-color:#9BE379"/>
			</linearGradient>
			<path fill="url(#SVGID_1_)" d="M58.2,62.45l21.3-3.76c3.99-0.7,7.79,1.96,8.49,5.95l3.76,21.3c0.7,3.99-1.96,7.79-5.95,8.49
				l-21.3,3.76c-3.99,0.7-7.79-1.96-8.49-5.95l-3.76-21.3C51.55,66.95,54.21,63.15,58.2,62.45z"/>
			<path fill="#FFFFFF" d="M78.62,82.29l2.4,2.06l-2.19,2.4l-1.69-1.44c-1.08,1.35-2.51,2.18-4.27,2.49
				c-1.32,0.23-2.57,0.16-3.76-0.22c-1.19-0.38-2.18-1.02-2.99-1.94c-0.8-0.91-1.32-2.01-1.55-3.3c-0.19-1.07-0.1-2.13,0.26-3.2
				c0.36-1.06,0.96-2.02,1.78-2.86c-0.97-0.93-1.54-1.86-1.7-2.79c-0.16-0.89-0.09-1.73,0.21-2.53c0.3-0.8,0.79-1.47,1.47-2.02
				c0.68-0.55,1.5-0.91,2.44-1.08c1.21-0.21,2.26-0.11,3.17,0.32c0.9,0.43,1.62,1.09,2.14,1.99l-2.57,1.99
				c-0.24-0.44-0.54-0.77-0.91-1.01c-0.36-0.24-0.78-0.32-1.24-0.24c-0.5,0.09-0.88,0.31-1.13,0.67c-0.26,0.36-0.35,0.77-0.27,1.23
				c0.05,0.27,0.15,0.51,0.31,0.73c0.16,0.22,0.38,0.45,0.66,0.7l6.97,5.96l1.13-2.82l2.82,1.16L78.62,82.29L78.62,82.29z
				 M74.77,83.27l-5.87-5c-0.43,0.48-0.73,1.01-0.91,1.59c-0.17,0.58-0.21,1.17-0.1,1.75c0.13,0.73,0.43,1.34,0.89,1.84
				s1.02,0.84,1.67,1.04c0.65,0.2,1.32,0.23,2.01,0.11C73.45,84.44,74.22,83.99,74.77,83.27L74.77,83.27z"/>
		</g>
	</g>
	<g id="Q_00000119080797224445453770000014653410292629673346_">
		<g>
			<path fill="#47A1FB" d="M34.28,85.57c-2.18,0-4.27-0.8-5.88-2.26c-0.58-0.53-1.33-0.81-2.11-0.81c-0.22,0-0.44,0.02-0.66,0.07
				c-0.61,0.13-1.23,0.2-1.85,0.2c-3.82,0-7.17-2.44-8.34-6.08c-0.31-0.96-1.07-1.72-2.03-2.03c-4.3-1.39-6.83-5.77-5.88-10.18
				c0.21-0.99-0.07-2.03-0.74-2.78c-3.03-3.35-3.03-8.41,0-11.76c0.68-0.75,0.96-1.79,0.74-2.78c-0.95-4.42,1.58-8.8,5.88-10.18
				c0.96-0.31,1.72-1.07,2.03-2.03c1.17-3.63,4.52-6.08,8.34-6.08c0.62,0,1.24,0.07,1.85,0.2c0.22,0.05,0.44,0.07,0.66,0.07
				c0.78,0,1.53-0.29,2.11-0.81c1.61-1.46,3.7-2.26,5.88-2.26c2.18,0,4.27,0.8,5.88,2.26c0.58,0.53,1.33,0.81,2.11,0.81
				c0.22,0,0.44-0.02,0.66-0.07c0.61-0.13,1.23-0.2,1.85-0.2c3.82,0,7.17,2.44,8.34,6.08c0.31,0.96,1.07,1.72,2.03,2.03
				c4.3,1.39,6.83,5.77,5.88,10.18c-0.21,0.99,0.07,2.03,0.74,2.78c3.03,3.35,3.03,8.41,0,11.76c-0.68,0.75-0.96,1.79-0.74,2.78
				c0.95,4.42-1.58,8.8-5.88,10.19c-0.96,0.31-1.72,1.07-2.03,2.03c-1.17,3.63-4.52,6.08-8.34,6.08c-0.62,0-1.24-0.07-1.85-0.2
				c-0.22-0.05-0.44-0.07-0.66-0.07c-0.78,0-1.53,0.29-2.11,0.81C38.54,84.76,36.45,85.57,34.28,85.57L34.28,85.57z"/>
			<path fill="#4667F4" d="M38.17,30.29l0.17,0.15c1.38,1.25,3.28,1.76,5.11,1.37l0.22-0.05c2.91-0.62,5.82,1.06,6.74,3.89
				l0.07,0.22c0.57,1.78,1.96,3.17,3.74,3.74l0.22,0.07c2.83,0.91,4.51,3.83,3.89,6.74l-0.05,0.22c-0.39,1.82,0.12,3.72,1.37,5.11
				l0.15,0.17c2,2.21,2,5.57,0,7.78l-0.15,0.17c-1.25,1.38-1.76,3.28-1.37,5.11l0.05,0.22c0.62,2.91-1.06,5.82-3.89,6.74L54.21,72
				c-1.78,0.57-3.17,1.96-3.74,3.74l-0.07,0.22c-0.91,2.83-3.83,4.51-6.74,3.89l-0.22-0.05c-1.82-0.39-3.72,0.12-5.11,1.37
				l-0.17,0.15c-2.21,2-5.57,2-7.78,0l-0.17-0.15c-1.38-1.25-3.28-1.76-5.11-1.37l-0.22,0.05c-2.91,0.62-5.82-1.06-6.74-3.89
				l-0.07-0.22c-0.57-1.78-1.96-3.17-3.74-3.74l-0.22-0.07c-2.83-0.91-4.51-3.83-3.89-6.74l0.05-0.22c0.39-1.82-0.12-3.72-1.37-5.11
				l-0.15-0.17c-2-2.21-2-5.57,0-7.78l0.15-0.17c1.25-1.38,1.76-3.28,1.37-5.11l-0.05-0.22c-0.62-2.91,1.06-5.82,3.89-6.74
				l0.22-0.07c1.78-0.57,3.17-1.96,3.74-3.74l0.07-0.22c0.91-2.83,3.83-4.51,6.74-3.89l0.22,0.05c1.82,0.39,3.72-0.12,5.11-1.37
				l0.17-0.15C32.6,28.29,35.96,28.29,38.17,30.29L38.17,30.29z"/>
			<path fill="#84FFFF" d="M40.34,68.18c-1.96,0.83-3.98,1.25-6.06,1.25c-2.74,0-5.22-0.65-7.45-1.94c-2.23-1.29-3.98-3.06-5.26-5.3
				c-1.28-2.24-1.92-4.71-1.92-7.39c0-2.69,0.64-5.15,1.92-7.39c1.28-2.24,3.03-4.01,5.26-5.3s4.71-1.94,7.45-1.94
				c2.74,0,5.22,0.65,7.45,1.94c2.23,1.29,3.98,3.06,5.26,5.3c1.28,2.24,1.92,4.71,1.92,7.39c0,2.11-0.4,4.1-1.21,5.96
				c-0.81,1.86-1.94,3.47-3.4,4.83l2.15,3.21l-3.95,2.62L40.34,68.18L40.34,68.18z M37.4,63.84l-3.05-4.58l3.95-2.66l3.05,4.61
				c0.7-0.83,1.25-1.8,1.64-2.89c0.39-1.09,0.59-2.27,0.59-3.52c0-1.88-0.41-3.55-1.23-5c-0.82-1.46-1.94-2.59-3.36-3.4
				c-1.42-0.81-2.99-1.21-4.71-1.21c-1.72,0-3.3,0.4-4.73,1.21c-1.43,0.81-2.56,1.94-3.38,3.4c-0.82,1.46-1.23,3.13-1.23,5
				c0,1.88,0.41,3.55,1.23,5c0.82,1.46,1.95,2.59,3.38,3.4c1.43,0.81,3.01,1.21,4.73,1.21C35.32,64.43,36.36,64.23,37.4,63.84
				L37.4,63.84z"/>
		</g>
	</g>
</g>
</svg>
