<?xml version="1.0" encoding="UTF-8" standalone="no"?><svg xmlns="http://www.w3.org/2000/svg" xmlns:svg="http://www.w3.org/2000/svg" id="svg45" width="360" height="87" fill="none" version="1.1" viewBox="0 0 360 87"><g id="g44" clip-path="url(#clip0_4741_25501)"><path id="path1" fill="#e6ebef" d="m 183.929,40.9863 c 0,2.2167 -1.797,4.0136 -4.014,4.0136 h -13.909 c 0.116,-3.3029 1.777,-6.21 4.28,-8.0253 h 9.628 c 2.218,0 4.015,1.7969 4.015,4.0117 z"/><path id="path2" fill="#4285f4" d="m 194.314,44.9934 c -0.119,-3.3029 -1.782,-6.21 -4.289,-8.0253 h 0.009 c -1.431,-1.0365 -3.134,-1.7159 -4.984,-1.9092 -0.002,0 -0.004,0 -0.006,0 -0.167,-0.0166 -0.335,-0.0313 -0.504,-0.0405 -0.009,0 -0.019,-0.0018 -0.028,-0.0018 C 184.334,35.0074 184.155,35 183.977,35 c -0.002,0 -0.004,0 -0.006,0 h -0.009 -7.6 -0.009 c -0.002,0 -0.004,0 -0.006,0 -0.18,0 -0.359,0.0074 -0.536,0.0166 -0.009,0 -0.018,0.0018 -0.027,0.0018 -0.17,0.0092 -0.337,0.0221 -0.505,0.0405 -0.002,0 -0.003,0 -0.005,0 -1.849,0.1933 -3.554,0.8727 -4.984,1.9092 h 0.009 c -2.508,1.8153 -4.17,4.7224 -4.29,8.0253 -0.004,0.1233 -0.009,0.2448 -0.009,0.37 v 7.3625 c 0,1.6698 1.353,3.0249 3.025,3.0249 h 7.145 3.469 1.047 c 2.67,0 0.8,0 3.469,0 h 7.145 c 1.67,0 3.025,-1.3532 3.025,-3.0249 v -7.3625 c -10e-4,-0.1233 -0.007,-0.2467 -0.011,-0.37 z M 180.16,44.9805 c -2.101,-0.1271 -3.767,-1.8669 -3.767,-4.0007 0,-2.1338 1.666,-3.8736 3.767,-4.0006 2.101,0.127 3.767,1.8668 3.767,4.0006 0,2.1338 -1.666,3.8736 -3.767,4.0007 z"/><path id="path3" fill="#e6ebef" d="m 176.398,40.9795 c 0,2.2166 1.797,4.0135 4.014,4.0135 h 13.91 c -0.116,-3.3029 -1.777,-6.2099 -4.281,-8.0252 h -9.627 c -2.219,0 -4.016,1.7969 -4.016,4.0117 z"/><path id="path4" fill="#bdc3c7" d="m 173.945,59.8047 c 2.34,0 4.237,-1.8967 4.237,-4.2364 0,-2.3396 -1.897,-4.2363 -4.237,-4.2363 -2.339,0 -4.236,1.8967 -4.236,4.2363 0,2.3397 1.897,4.2364 4.236,4.2364 z"/><path id="path5" fill="#bdc3c7" d="m 186.734,59.8047 c 2.34,0 4.237,-1.8967 4.237,-4.2364 0,-2.3396 -1.897,-4.2363 -4.237,-4.2363 -2.339,0 -4.236,1.8967 -4.236,4.2363 0,2.3397 1.897,4.2364 4.236,4.2364 z"/><path id="path6" fill="#e6ebf0" d="m 194.326,46.7607 c -1.122,0 -2.031,0.9095 -2.031,2.0307 0,1.1213 0.909,2.0308 2.031,2.0308 z"/><path id="path7" fill="#fbbc04" d="m 142.685,52.8031 c -0.035,-0.671 0.481,-1.2456 1.153,-1.2809 l 1.815,-0.0951 -2.565,-2.0521 -2.23,-1.7857 -4.293,-3.4345 -0.222,-0.1765 -2.14,-1.713 c -0.396,-0.3885 -0.938,-0.5924 -1.491,-0.5634 l -1.686,0.0883 -1.923,0.1008 -15.775,0.8268 c -2.052,0.1075 -3.731,1.6685 -3.991,3.7046 l -1.126,8.8714 c -0.261,2.0601 1.404,3.8533 3.478,3.7446 l 20.185,-1.0579 11.571,-0.6063 c 2.035,-0.1067 3.324,-1.8188 3.279,-3.566 l -2.76,0.1447 c -0.671,0.037 -1.244,-0.4787 -1.279,-1.1498 z m -10.986,-4.7762 c 0.004,-2e-4 0.008,0.0014 0.011,0.0012 -0.003,2e-4 -0.007,-0.0014 -0.011,-0.0012 z m -0.187,-3.565 c 0.004,-2e-4 0.008,-0.0022 0.011,-0.0024 -0.003,2e-4 -0.007,0.0022 -0.011,0.0024 z m 0.364,3.5852 c 0.009,0.0014 0.016,0.0029 0.025,0.0024 -0.009,-0.0014 -0.018,-0.0027 -0.025,-0.0024 z m -0.19,-3.6219 c 0.009,-0.0023 0.016,-0.0045 0.025,-0.005 -0.009,5e-4 -0.018,0.0028 -0.025,0.005 z"/><path id="path8" fill="#e6ebef" d="m 145.686,51.4465 -0.029,-0.0243 -1.814,0.0951 c -0.671,0.0351 -1.189,0.608 -1.154,1.2809 0.036,0.6729 0.608,1.1886 1.281,1.1533 l 2.76,-0.1446 c -0.022,-0.834 -0.348,-1.6779 -1.044,-2.3604 z"/><path id="path9" fill="#bdc3c7" d="m 118.229,62.0883 c 2.003,-0.105 3.542,-1.8142 3.437,-3.8176 -0.105,-2.0034 -1.814,-3.5424 -3.817,-3.4374 -2.004,0.105 -3.543,1.8142 -3.438,3.8176 0.105,2.0034 1.814,3.5424 3.818,3.4374 z"/><path id="path10" fill="#bdc3c7" d="m 136.623,61.1244 c 2.004,-0.105 3.543,-1.8142 3.438,-3.8176 -0.105,-2.0034 -1.814,-3.5423 -3.818,-3.4373 -2.003,0.105 -3.542,1.8141 -3.437,3.8175 0.105,2.0034 1.814,3.5424 3.817,3.4374 z"/><path id="path11" fill="#bdc3c7" d="m 121.048,50.0128 21.439,-1.1236 -7.279,-5.7467 -18.719,0.981 c -0.924,0.0485 -1.399,1.1297 -0.81,1.8437 l 2.179,2.642 c 0.78,0.9473 1.963,1.4678 3.19,1.4036 z"/><path id="path12" fill="#ea4335" d="m 212.965,56.4462 27.003,1.4152 0.47,-8.9848 -26.673,-1.3979 c -1.464,-0.0767 -2.712,1.047 -2.789,2.5104 l -0.21,4.0153 c -0.067,1.2815 0.917,2.3747 2.199,2.4418 z"/><path id="path13" fill="#bdc3c7" d="m 221.701,60.7643 c 2.129,0.1116 3.946,-1.524 4.057,-3.6533 0.112,-2.1292 -1.524,-3.9458 -3.653,-4.0574 -2.129,-0.1116 -3.946,1.5241 -4.058,3.6533 -0.111,2.1293 1.525,3.9458 3.654,4.0574 z"/><path id="path14" fill="#ea4335" d="m 253.473,51.9473 -2.691,-2.6593 -2.314,-2.2875 -9.981,-0.5231 c -1.147,-0.0601 -2.031,-1.0392 -1.971,-2.1883 0.06,-1.1472 1.04,-2.0306 2.189,-1.9704 l 5.31,0.2783 -0.23,-0.2277 -2.221,-2.1941 c -0.404,-0.4858 -0.991,-0.782 -1.622,-0.8151 l -4.111,-0.2154 c -1.247,-0.0653 -2.311,0.8928 -2.376,2.1394 l -0.848,16.1843 17.628,0.9239 c 3.427,0.1833 5.428,-3.8027 3.238,-6.445 z"/><path id="path15" fill="#e6ebef" d="m 236.503,44.3002 c -0.06,1.1472 0.821,2.1281 1.97,2.1883 l 9.982,0.5231 -4.454,-4.4017 -5.31,-0.2783 c -1.149,-0.062 -2.128,0.8195 -2.188,1.9686 z"/><path id="path16" fill="#e6ebef" d="m 251.605,55.0938 c 0.843,0.0442 1.562,-0.6032 1.606,-1.446 0.044,-0.8427 -0.603,-1.5617 -1.446,-1.6059 -0.843,-0.0442 -1.562,0.6032 -1.606,1.446 -0.044,0.8427 0.603,1.5617 1.446,1.6059 z"/><path id="path17" fill="#bdc3c7" d="m 242.012,61.8307 c 2.129,0.1116 3.946,-1.524 4.057,-3.6533 0.112,-2.1292 -1.524,-3.9458 -3.653,-4.0574 -2.129,-0.1116 -3.946,1.5241 -4.058,3.6533 -0.111,2.1293 1.525,3.9458 3.654,4.0574 z"/><path id="path18" fill="#34a853" d="m 90.1983,56.9002 -4.8588,-1.9829 -12.8428,1.3498 c -0.5291,0.0556 -1.027,-0.1198 -1.398,-0.4436 -0.3939,-0.2955 -0.6691,-0.7479 -0.7245,-1.2752 -0.1061,-1.0089 0.6264,-1.9134 1.6353,-2.0194 l 5.8171,-0.6114 C 74.6663,50.8408 71.8513,50.5832 65.787,51.8204 l -13.4933,3.051 c -0.6782,0.1527 -0.9814,0.9491 -0.5759,1.5137 l 2.621,3.6602 c 0.0344,-0.0073 0.0672,-0.0126 0.102,-0.0163 l 1.3879,-0.1458 c 0.6592,-0.0693 1.2518,0.4089 1.3213,1.0699 0.0693,0.6592 -0.409,1.2519 -1.07,1.3213 l -0.1318,0.0139 c 1.1935,1.5629 3.1177,2.3973 5.0823,2.1908 l 28.5182,-2.9974 c 2.4643,-0.2608 2.9456,-3.6436 0.6496,-4.5815 z"/><path id="path19" fill="#e6ebef" d="M 57.1472,60.9504 C 57.0779,60.2913 56.4868,59.811 55.8258,59.8805 l -1.3879,0.1458 c -0.0348,0.0037 -0.0693,0.0092 -0.1019,0.0163 l 1.5057,2.1021 c 0.0327,0.0465 0.0672,0.0929 0.1035,0.1391 l 0.1318,-0.0139 c 0.6612,-0.0676 1.1397,-0.6585 1.0702,-1.3195 z"/><path id="path20" fill="#e6ebef" d="m 65.6769,55.0451 c 0.0556,0.5292 0.3307,0.9797 0.7246,1.2752 0.371,0.3239 0.8689,0.4992 1.3981,0.4436 L 85.3224,54.9222 80.777,53.0674 c -1.0813,-0.4417 -2.04,-0.8278 -2.9693,-1.1448 l -10.4955,1.1031 c -1.0107,0.1062 -1.7415,1.0087 -1.6353,2.0194 z"/><path id="path21" fill="#e6ebef" d="m 87.1888,55.6442 c -0.2826,0.6406 -0.1434,1.3664 0.3041,1.8544 0.1485,0.1621 0.3314,0.3002 0.5435,0.3983 0.2259,0.1058 0.4625,0.155 0.6963,0.16 0.0074,-7e-4 0.013,5e-4 0.0203,-2e-4 0.9166,0.0017 1.1525,-1.2763 0.3068,-1.6262 -0.571,-0.2362 -1.2012,-0.4902 -1.871,-0.7863 z"/><path id="path22" fill="#bdc3c7" d="m 65.6705,66.3293 c 1.795,-0.1886 3.0972,-1.7967 2.9085,-3.5916 -0.1886,-1.7949 -1.7967,-3.0971 -3.5916,-2.9084 -1.795,0.1887 -3.0972,1.7967 -2.9085,3.5916 0.1886,1.7949 1.7967,3.0971 3.5916,2.9084 z"/><path id="path23" fill="#bdc3c7" d="m 80.9,64.7287 c 1.795,-0.1886 3.0972,-1.7966 2.9085,-3.5916 -0.1887,-1.7949 -1.7967,-3.097 -3.5916,-2.9084 -1.795,0.1887 -3.0972,1.7967 -2.9085,3.5916 0.1886,1.795 1.7967,3.0971 3.5916,2.9084 z"/><path id="path24" fill="#bec3c8" d="m 273.37,41.3787 0.344,0.0422 -1.26,10.2622 -0.344,-0.0421 z"/><path id="path25" fill="#bec3c8" d="m 287.35,41.782 0.344,0.0422 -1.742,14.1841 -0.343,-0.0421 z"/><path id="path26" fill="#8c9196" d="m 287.037,58.9091 c 0.657,-0.5889 1.448,-0.817 2.174,-0.7024 0.732,0.0644 1.442,0.4768 1.939,1.2074 1.116,1.6481 0.745,4.3232 -0.776,5.5924 -0.646,0.5392 -1.383,0.7378 -2.073,0.6147 -0.7,-0.0476 -1.367,-0.4185 -1.864,-1.0981 -1.17,-1.5996 -0.883,-4.2849 0.6,-5.614 z"/><path id="path27" fill="#bec3c8" d="m 284.019,53.1018 c -0.437,-1.7922 -0.846,-3.4621 -1.253,-5.1317 -0.123,-0.504 -0.227,-1.0119 -0.361,-1.5109 -0.224,-0.8245 -0.72,-1.351 -1.609,-1.4558 -1.628,-0.1935 -3.252,-0.4121 -4.882,-0.591 -0.999,-0.1098 -1.493,0.4204 -1.251,1.3917 0.495,1.98 1.035,3.9507 1.58,5.9178 0.05,0.1805 0.244,0.436 0.399,0.4571 2.411,0.3216 4.829,0.6099 7.377,0.9228 z"/><path id="path28" fill="#bec3c8" d="m 289.476,47.0077 c -0.857,-0.1052 -1.711,-0.2632 -2.569,-0.3027 -1.096,-0.0473 -1.558,0.5485 -1.238,1.5994 0.811,2.6694 1.656,5.3279 2.521,7.9783 0.076,0.2325 0.385,0.466 0.635,0.5455 0.404,0.1305 0.853,0.1112 1.277,0.193 1.254,0.2453 2.474,0.4653 3.122,-1.0854 0.109,-0.2629 0.443,-0.4408 0.692,-0.6334 1.086,-0.8465 1.087,-0.8421 0.681,-2.2055 -0.437,-1.4608 -0.883,-2.9183 -1.303,-4.3833 -0.259,-0.9011 -0.787,-1.4314 -1.758,-1.4997 -0.687,-0.0503 -1.371,-0.1619 -2.056,-0.246 -0.001,0.0147 -0.003,0.0272 -0.004,0.0398 z"/><path id="path29" fill="#ee972d" d="m 283.442,55.7027 9.237,1.1342 -0.706,5.752 -9.237,-1.1342 z"/><path id="path30" fill="#fbbc04" d="m 271.361,41.0952 c -0.013,0.3278 0.242,0.6057 0.57,0.6225 6.651,0.3598 13.388,0.7725 19.099,0.921 1.771,0.0454 1.874,0.4044 2.403,2.208 0.827,2.8179 1.799,5.5963 2.695,8.395 0.087,0.2657 0.243,0.5867 0.289,1.0089 -2.477,-0.3424 -3.9,0.8921 -4.62,3.0014 -0.448,1.3054 -1.083,2.5473 -1.587,3.8351 -0.143,0.3629 -0.514,0.583 -0.898,0.5252 -1.305,-0.1921 -2.616,-0.3318 -4.007,-0.5026 0.165,-1.338 0.287,-2.5919 0.478,-3.8352 0.43,-2.8144 -0.851,-4.468 -3.689,-4.7889 -3.122,-0.3515 -6.239,-0.749 -9.357,-1.1277 -0.31,-0.038 -0.62,-0.0761 -1.064,-0.1306 -0.172,1.4029 -0.336,2.7368 -0.5,4.0706 -0.084,0.6868 -0.175,1.3728 -0.253,2.0604 -0.169,1.467 1.134,3.3869 2.886,3.5893 10.396,1.1999 20.782,2.5028 31.167,3.8098 0.808,0.1013 1.157,-0.096 1.468,-0.8421 1.616,-3.8804 1.652,-7.7911 0.312,-11.7326 -0.695,-2.045 -1.412,-4.0842 -2.218,-6.0855 -0.361,-0.8923 -0.807,-1.9972 -1.482,-2.6517 -0.592,-0.5744 -1.508,-0.995 -2.335,-1.1157 -2.792,-0.4107 -5.623,-0.5841 -8.44,-0.7706 -4.341,-0.2886 -8.692,-0.4275 -13.041,-0.6235 -2.131,-0.0958 -4.256,-0.2249 -7.233,-0.4184 -0.338,-0.0202 -0.629,0.2395 -0.643,0.5779 z"/><path id="path31" fill="#bec3c8" d="m 300.773,60.6005 c 0.657,-0.5889 1.448,-0.817 2.173,-0.7024 0.732,0.0644 1.443,0.4768 1.94,1.2074 1.115,1.6481 0.744,4.3232 -0.776,5.5924 -0.647,0.5392 -1.383,0.7378 -2.074,0.6148 -0.7,-0.0477 -1.366,-0.4186 -1.863,-1.0981 -1.171,-1.5997 -0.881,-4.2848 0.6,-5.6141 z"/><path id="path32" fill="#bec3c8" d="m 275.199,57.4608 c 0.656,-0.5889 1.448,-0.8169 2.173,-0.7023 0.732,0.0643 1.442,0.4768 1.939,1.2073 1.116,1.6482 0.745,4.3232 -0.776,5.5925 -0.646,0.5391 -1.383,0.7378 -2.073,0.6147 -0.7,-0.0477 -1.367,-0.4186 -1.863,-1.0981 -1.169,-1.5994 -0.882,-4.2847 0.6,-5.6141 z"/><path id="path33" fill="#eb8b26" d="m 298.398,62.4525 c 0.309,-1.3733 0.933,-2.6485 1.846,-3.5587 1.008,-1.0049 2.209,-1.4058 3.305,-1.2266 1.107,0.0913 2.176,0.7709 2.91,1.9897 0.666,1.1041 0.963,2.4924 0.931,3.8997 z"/><path id="path34" fill="#e6ebf0" d="m 294.537,43.0724 c 0.777,2.2463 1.375,4.3836 2.099,6.5596 0.445,1.3385 1.26,2.1124 2.724,2.2411 1.861,0.1668 3.713,0.4538 5.571,0.6627 1.342,0.1499 1.845,-0.4684 1.385,-1.7407 -0.702,-1.9396 -1.452,-3.8617 -2.191,-5.7868 -0.222,-0.582 -0.611,-0.8635 -1.282,-0.9353 -2.833,-0.3031 -5.483,-0.654 -8.306,-1.0006 z"/><path id="path35" fill="#ffffff" d="m 295.125,63.5257 c -0.119,-0.0147 -0.237,-0.0291 -0.356,-0.0437 2.136,-5.3788 1.528,-8.4249 1.278,-9.2653 0.122,0.0086 0.246,0.0196 0.376,0.0376 0,-0.0021 -0.002,-0.0065 -10e-4,-0.0086 0.29,1.0432 0.763,4.0641 -1.297,9.28 z"/><path id="path36" fill="#ffffff" d="m 274.514,56.365 c 0.874,-0.7853 1.976,-1.1367 3.01,-0.9757 1.051,0.095 2.04,0.7031 2.698,1.6767 0.892,1.3189 1.092,3.1075 0.69,4.7161 -0.113,-0.0139 -0.226,-0.0278 -0.339,-0.0396 0.395,-1.5243 0.211,-3.2302 -0.636,-4.482 -0.58,-0.8555 -1.429,-1.4018 -2.352,-1.5152 -0.034,-0.0041 -0.067,-0.0082 -0.101,-0.0103 -0.945,-0.1499 -1.941,0.1741 -2.739,0.8902 -1.11,0.9944 -1.697,2.5717 -1.701,4.1228 -0.115,-0.0481 -0.229,-0.1047 -0.336,-0.1667 0.043,-1.5952 0.666,-3.1935 1.806,-4.2163 z"/><path id="path37" fill="#ffffff" d="m 303.095,55.6727 c -0.104,1.0223 0.5,1.9339 1.333,2.0064 0.823,0.0712 1.599,-0.7134 1.704,-1.7228 0.105,-1.0095 -0.516,-1.9444 -1.335,-2.0109 -0.822,-0.0671 -1.599,0.7196 -1.702,1.7273 z"/><path id="path38" fill="#dadce0" d="m 296.674,30.1973 h -2.128 V 28.07 c 0,-0.4454 -0.361,-0.8063 -0.806,-0.8063 -0.445,0 -0.806,0.3609 -0.806,0.8063 v 2.1273 h -2.128 c -0.445,0 -0.806,0.3609 -0.806,0.8063 0,0.4454 0.361,0.8064 0.806,0.8064 h 2.128 v 2.1272 c 0,0.4454 0.361,0.8064 0.806,0.8064 0.445,0 0.806,-0.361 0.806,-0.8064 V 31.81 h 2.128 c 0.445,0 0.806,-0.361 0.806,-0.8064 0,-0.4454 -0.361,-0.8063 -0.806,-0.8063 z"/><path id="path39" fill="#dadce0" d="m 160.674,27.1973 h -2.128 V 25.07 c 0,-0.4454 -0.361,-0.8063 -0.806,-0.8063 -0.445,0 -0.806,0.3609 -0.806,0.8063 v 2.1273 h -2.128 c -0.445,0 -0.806,0.3609 -0.806,0.8063 0,0.4454 0.361,0.8064 0.806,0.8064 h 2.128 v 2.1272 c 0,0.4454 0.361,0.8064 0.806,0.8064 0.445,0 0.806,-0.361 0.806,-0.8064 V 28.81 h 2.128 c 0.445,0 0.806,-0.361 0.806,-0.8064 0,-0.4454 -0.361,-0.8063 -0.806,-0.8063 z"/><path id="path40" fill="#dadce0" d="m 52.3532,32.6169 h -1.7064 v -1.7064 c 0,-0.3573 -0.2895,-0.6468 -0.6468,-0.6468 -0.3572,0 -0.6468,0.2895 -0.6468,0.6468 v 1.7064 h -1.7064 c -0.3572,0 -0.6468,0.2895 -0.6468,0.6468 0,0.3573 0.2896,0.6468 0.6468,0.6468 h 1.7064 v 1.7064 c 0,0.3573 0.2896,0.6468 0.6468,0.6468 0.3573,0 0.6468,-0.2895 0.6468,-0.6468 v -1.7064 h 1.7064 C 52.7104,33.9105 53,33.621 53,33.2637 53,32.9064 52.7104,32.6169 52.3532,32.6169 Z"/><path id="path41" fill="#dadce0" d="m 285.353,25.3532 h -1.706 V 23.6468 C 283.647,23.2895 283.357,23 283,23 c -0.357,0 -0.647,0.2895 -0.647,0.6468 v 1.7064 h -1.706 C 280.29,25.3532 280,25.6427 280,26 c 0,0.3573 0.29,0.6468 0.647,0.6468 h 1.706 v 1.7064 c 0,0.3573 0.29,0.6468 0.647,0.6468 0.357,0 0.647,-0.2895 0.647,-0.6468 v -1.7064 h 1.706 c 0.357,0 0.647,-0.2895 0.647,-0.6468 0,-0.3573 -0.29,-0.6468 -0.647,-0.6468 z"/><path id="path42" fill="#dadce0" d="m 152.353,37.3532 h -1.706 V 35.6468 C 150.647,35.2895 150.357,35 150,35 c -0.357,0 -0.647,0.2895 -0.647,0.6468 v 1.7064 h -1.706 C 147.29,37.3532 147,37.6427 147,38 c 0,0.3573 0.29,0.6468 0.647,0.6468 h 1.706 v 1.7064 c 0,0.3573 0.29,0.6468 0.647,0.6468 0.357,0 0.647,-0.2895 0.647,-0.6468 v -1.7064 h 1.706 c 0.357,0 0.647,-0.2895 0.647,-0.6468 0,-0.3573 -0.29,-0.6468 -0.647,-0.6468 z"/><path id="path43" fill="#dadce0" d="m 220.353,15.3532 h -1.706 V 13.6468 C 218.647,13.2895 218.357,13 218,13 c -0.357,0 -0.647,0.2895 -0.647,0.6468 v 1.7064 h -1.706 C 215.29,15.3532 215,15.6427 215,16 c 0,0.3573 0.29,0.6468 0.647,0.6468 h 1.706 v 1.7064 c 0,0.3573 0.29,0.6468 0.647,0.6468 0.357,0 0.647,-0.2895 0.647,-0.6468 v -1.7064 h 1.706 c 0.357,0 0.647,-0.2895 0.647,-0.6468 0,-0.3573 -0.29,-0.6468 -0.647,-0.6468 z"/><path id="path44" fill="#dadce0" d="M 60.6736,48.1973 H 58.5463 V 46.07 c 0,-0.4454 -0.3608,-0.8063 -0.8063,-0.8063 -0.4454,0 -0.8063,0.3609 -0.8063,0.8063 v 2.1273 H 54.8064 C 54.361,48.1973 54,48.5582 54,49.0036 54,49.449 54.361,49.81 54.8064,49.81 h 2.1273 v 2.1272 c 0,0.4454 0.3609,0.8064 0.8063,0.8064 0.4455,0 0.8063,-0.361 0.8063,-0.8064 V 49.81 h 2.1273 c 0.4454,0 0.8064,-0.361 0.8064,-0.8064 0,-0.4454 -0.361,-0.8063 -0.8064,-0.8063 z"/></g><defs id="defs45"><clipPath id="clip0_4741_25501"><rect id="rect45" width="360" height="87" x="0" y="0" fill="#ffffff"/></clipPath></defs></svg>
