<svg xmlns="http://www.w3.org/2000/svg" width="164" height="164"><path fill="#DADCE0" d="M143.196 160.004H46.09c-1.379 0-2.497-1.118-2.497-2.497V29.864c0-1.379 1.118-2.497 2.497-2.497h97.105c1.379 0 2.497 1.118 2.497 2.497v127.643c.001 1.379-1.117 2.497-2.496 2.497z"/><path fill="#E8EAED" d="M43.594 43.936h102.099v116.068H43.594z"/><path fill="#FFF" d="M124.608 38.637H69.032c-.777 0-1.406-.63-1.406-1.406v-2.113c0-.777.63-1.406 1.406-1.406h55.576c.777 0 1.406.63 1.406 1.406v2.113c0 .776-.63 1.406-1.406 1.406z"/><linearGradient id="a" gradientUnits="userSpaceOnUse" x1="-67.0376" y1="-93.8939" x2="110.8378" y2="86.2815"><stop offset="0" style="stop-color:#202124"/><stop offset="1" style="stop-color:#202124;stop-opacity:0"/></linearGradient><path fill="url(#a)" d="M43.594 73.728l47.849 44.742 27.267-24.785 26.983-27.658-49.92-38.66 1.047 22.241-8.756 14.098L69.75 75.282z"/><circle fill="#E8EAED" cx="131.462" cy="36.174" r="2.463"/><circle fill="#E8EAED" cx="138.727" cy="36.174" r="2.463"/><path fill="#FFF" d="M52.923 36.747h-3.915c-.18 0-.326-.146-.326-.326s.146-.326.326-.326h3.915c.18 0 .326.146.326.326s-.146.326-.326.326z"/><path fill="#FFF" d="M51.198 38.738a.3274.3274 0 01-.22-.085l-2.456-2.232 2.456-2.232c.134-.121.34-.112.461.022s.111.34-.022.461l-1.924 1.749 1.924 1.749c.133.121.143.328.022.461-.064.071-.152.107-.241.107zM61.411 36.747h-3.915c-.18 0-.326-.146-.326-.326s.146-.326.326-.326h3.915c.18 0 .326.146.326.326s-.145.326-.326.326z"/><path fill="#FFF" d="M59.221 38.738c-.089 0-.177-.036-.242-.107-.121-.134-.111-.34.022-.461l1.924-1.749-1.924-1.749c-.133-.121-.143-.328-.022-.461s.328-.143.461-.022l2.456 2.232-2.456 2.232c-.062.057-.14.085-.219.085z"/><path fill="#BEC3C8" d="M130.558 144.483h-71.83V57.582h71.83v86.901zm-71.503-.326h71.177V57.908H59.055v86.249z"/><path fill="#BEC3C8" d="M58.76293 57.84813l.25212-.20824 71.50309 86.57174-.25212.20823z"/><path fill="#BEC3C8" d="M58.7623 144.21948l71.50309-86.57174.25211.20824-71.50308 86.57173z"/><linearGradient id="b" gradientUnits="userSpaceOnUse" x1="-86.3132" y1="-107.1315" x2="80.8282" y2="60.7766"><stop offset="0" style="stop-color:#202124"/><stop offset="1" style="stop-color:#202124;stop-opacity:0"/></linearGradient><path fill="url(#b)" d="M61.216 7.928c18.306 0 33.146 14.841 33.146 33.147 0 8.636-3.303 16.499-8.713 22.398 4.902-5.457 7.886-12.672 7.886-20.584 0-17.018-13.795-30.813-30.811-30.813S31.912 25.871 31.912 42.889s13.795 30.813 30.811 30.813c5.824 0 11.27-1.617 15.916-4.425-5.062 3.134-11.03 4.945-17.422 4.945-18.306 0-33.146-14.841-33.146-33.147S42.911 7.928 61.216 7.928z"/><path fill="#70757A" d="M61.216 3.996c-20.446 0-37.079 16.634-37.079 37.079 0 10.965 4.785 20.831 12.375 27.626l-17.32 17.905c-1.208 1.249-1.175 3.24.074 4.448.611.591 1.399.885 2.187.885.823 0 1.644-.321 2.262-.959l17.38-17.967c.162-.168.301-.35.418-.541 5.712 3.598 12.468 5.682 19.703 5.682 20.446 0 37.079-16.634 37.079-37.079S81.662 3.996 61.216 3.996zm0 70.226c-18.277 0-33.147-14.87-33.147-33.147S42.939 7.929 61.216 7.929s33.147 14.87 33.147 33.147-14.869 33.146-33.147 33.146z"/></svg>