<svg xmlns="http://www.w3.org/2000/svg" width="164" height="164"><path fill="#5F6368" d="M143.294 160.128H46.033c-1.381 0-2.501-1.12-2.501-2.501V29.78c0-1.381 1.12-2.501 2.501-2.501h97.261c1.381 0 2.501 1.12 2.501 2.501v127.847c-.001 1.382-1.12 2.501-2.501 2.501z"/><path fill="#3C4043" d="M43.532 43.875h102.262v116.254H43.532z"/><path fill="#202124" d="M123.618 38.567H70.07c-1.362 0-2.467-1.104-2.467-2.467 0-1.362 1.104-2.467 2.467-2.467h53.548c1.362 0 2.467 1.104 2.467 2.467s-1.105 2.467-2.467 2.467z"/><linearGradient id="a" gradientUnits="userSpaceOnUse" x1="-67.2761" y1="-94.1754" x2="110.8839" y2="86.2884"><stop offset="0" style="stop-color:#202124"/><stop offset="1" style="stop-color:#202124;stop-opacity:0"/></linearGradient><path fill="url(#a)" d="M43.532 73.715l47.927 44.813 27.309-24.824 27.026-27.703L95.795 27.28l1.049 22.276-8.771 14.121L69.73 75.271z"/><circle fill="#3C4043" cx="131.542" cy="36.1" r="2.467"/><circle fill="#3C4043" cx="138.818" cy="36.1" r="2.467"/><path fill="#202124" d="M52.877 36.675h-3.921c-.181 0-.327-.146-.327-.327s.146-.327.327-.327h3.921c.181 0 .327.146.327.327s-.147.327-.327.327z"/><path fill="#202124" d="M51.149 38.669c-.079 0-.157-.028-.22-.085l-2.46-2.236 2.46-2.236c.134-.121.341-.112.462.022.122.134.112.341-.022.462l-1.927 1.752 1.927 1.752c.134.122.143.328.022.462-.065.071-.153.107-.242.107zM61.378 36.675h-3.922c-.181 0-.327-.146-.327-.327s.146-.327.327-.327h3.922c.181 0 .327.146.327.327s-.146.327-.327.327z"/><path fill="#202124" d="M59.185 38.669c-.089 0-.178-.036-.242-.107-.122-.134-.112-.341.022-.462l1.927-1.752-1.927-1.752c-.134-.122-.143-.328-.022-.462s.328-.143.462-.022l2.46 2.236-2.46 2.236a.3274.3274 0 01-.22.085z"/><path fill="#26282B" d="M130.636 144.583H58.691v-87.04h71.945v87.04zm-71.618-.327h71.291V57.87H59.018v86.386z"/><path fill="#26282B" d="M58.72608 57.8098l.25212-.20823 71.61771 86.71051-.25212.20824z"/><path fill="#26282B" d="M58.72529 144.31838L130.343 57.60787l.25212.20823-71.61771 86.71052z"/><linearGradient id="b" gradientUnits="userSpaceOnUse" x1="17.3086" y1="-18.5347" x2="70.7096" y2="53.9381"><stop offset="0" style="stop-color:#202124"/><stop offset="1" style="stop-color:#202124;stop-opacity:0"/></linearGradient><path fill="url(#b)" d="M61.183 7.809c18.335 0 33.199 14.864 33.199 33.2 0 8.649-3.308 16.525-8.727 22.434 4.91-5.465 7.898-12.692 7.898-20.617 0-17.045-13.817-30.862-30.861-30.862s-30.86 13.817-30.86 30.862 13.817 30.862 30.861 30.862c5.833 0 11.288-1.619 15.941-4.432-5.071 3.139-11.048 4.953-17.45 4.953-18.335 0-33.199-14.864-33.199-33.2s14.863-33.2 33.198-33.2z"/><path fill="#9AA0A6" d="M61.183 3.872c-20.478 0-37.138 16.66-37.138 37.138 0 10.982 4.793 20.865 12.395 27.67L19.092 86.613c-1.21 1.251-1.177 3.245.074 4.455.612.592 1.402.886 2.19.886.824 0 1.647-.321 2.265-.96l17.408-17.996c.163-.168.301-.351.419-.542 5.721 3.603 12.488 5.692 19.735 5.692 20.478 0 37.138-16.66 37.138-37.138S81.661 3.872 61.183 3.872zm0 70.338c-18.306 0-33.2-14.893-33.2-33.2s14.893-33.2 33.2-33.2 33.2 14.893 33.2 33.2-14.893 33.2-33.2 33.2z"/></svg>