<svg width="16" height="16" viewBox="0 0 16 16" fill="none" xmlns="http://www.w3.org/2000/svg">
  <path d="M10.3333 7.33325C10.8856 7.33325 11.3333 6.88554 11.3333 6.33325C11.3333 5.78097 10.8856 5.33325 10.3333 5.33325C9.78104 5.33325 9.33333 5.78097 9.33333 6.33325C9.33333 6.88554 9.78104 7.33325 10.3333 7.33325Z" fill="#9aa0A6"/>
  <path d="M5.66667 7.33325C6.21896 7.33325 6.66667 6.88554 6.66667 6.33325C6.66667 5.78097 6.21896 5.33325 5.66667 5.33325C5.11439 5.33325 4.66667 5.78097 4.66667 6.33325C4.66667 6.88554 5.11439 7.33325 5.66667 7.33325Z" fill="#9aa0A6"/>
  <path d="M10.3333 7.33325C10.8856 7.33325 11.3333 6.88554 11.3333 6.33325C11.3333 5.78097 10.8856 5.33325 10.3333 5.33325C9.78104 5.33325 9.33333 5.78097 9.33333 6.33325C9.33333 6.88554 9.78104 7.33325 10.3333 7.33325Z" fill="#9aa0A6"/>
  <path d="M5.66667 7.33325C6.21896 7.33325 6.66667 6.88554 6.66667 6.33325C6.66667 5.78097 6.21896 5.33325 5.66667 5.33325C5.11439 5.33325 4.66667 5.78097 4.66667 6.33325C4.66667 6.88554 5.11439 7.33325 5.66667 7.33325Z" fill="#9aa0A6"/>
  <path d="M7.99333 14.6666C4.31333 14.6666 1.33333 11.6799 1.33333 7.99992C1.33333 4.31992 4.31333 1.33325 7.99333 1.33325C11.68 1.33325 14.6667 4.31992 14.6667 7.99992C14.6667 11.6799 11.68 14.6666 7.99333 14.6666ZM8 2.66659C5.05333 2.66659 2.66666 5.05325 2.66666 7.99992C2.66666 10.9466 5.05333 13.3333 8 13.3333C10.9467 13.3333 13.3333 10.9466 13.3333 7.99992C13.3333 5.05325 10.9467 2.66659 8 2.66659ZM8 8.7777C9.55333 8.7777 10.88 9.74436 11.4133 11.111H10.3C9.84 10.3177 8.98666 9.7777 8 9.7777C7.01333 9.7777 6.16666 10.3177 5.7 11.111H4.58666C5.12 9.74436 6.44666 8.7777 8 8.7777Z" fill="#9aa0A6"/>
</svg>
