<?xml version="1.0" encoding="utf-8"?>
<!-- Generator: Adobe Illustrator 30.0.0, SVG Export Plug-In . SVG Version: 9.03 Build 0)  -->
<svg version="1.1" baseProfile="basic" id="Layer_1"
	 xmlns="http://www.w3.org/2000/svg" xmlns:xlink="http://www.w3.org/1999/xlink" x="0px" y="0px" width="91px" height="94px"
	 viewBox="0 0 91 94" xml:space="preserve">
<g>
	<g id="Island_00000050651058381900256620000005185223578007410590_">
		<g>
			<path fill="#C1D992" d="M58.86,89.57L5.99,75.41c-2.92-0.78-4.28-3.17-3.03-5.33L24.6,32.52c1.25-2.16,4.63-3.28,7.55-2.5
				l52.86,14.17c2.92,0.78,4.28,3.17,3.03,5.33L66.41,87.08C65.16,89.24,61.78,90.36,58.86,89.57L58.86,89.57z"/>
			<polygon fill="#ECEFD9" points="64.38,74.49 52.38,71.28 52.64,71.35 48.46,78.62 48.19,78.55 60.2,81.76 59.93,81.69 
				64.11,74.42 64.25,74.46 64.59,74.65 60.46,81.83 60.2,81.76 68.19,83.9 72.42,76.64 			"/>
			<polygon fill="#ECEFD9" points="40.64,68.14 36.45,75.4 36.19,75.33 47.92,78.47 52.11,71.21 52.38,71.28 			"/>
			<polygon fill="#ECEFD9" points="40.37,68.07 28.63,64.92 24.45,72.19 36.19,75.33 35.92,75.26 40.1,67.99 			"/>
			<polygon fill="#ECEFD9" points="16.1,61.57 8.96,59.66 4.74,66.92 11.91,68.84 			"/>
			<polygon fill="#ECEFD9" points="28.1,64.78 16.36,61.64 16.63,61.71 12.45,68.98 12.18,68.91 24.18,72.12 23.91,72.05 			"/>
		</g>
	</g>
	<g id="Store_00000183235468791212317580000009055322800819241658_">
		<g>
			<path fill="#6B4FF7" d="M65.12,77.28l0.2,0.89c0.01,0.05,0.05,0.09,0.1,0.11l1.4,0.37c0.1,0.03,0.2-0.06,0.17-0.17l-1.63-7.3
				l-2.53,5.25l1.95,0.51C64.95,76.98,65.08,77.11,65.12,77.28L65.12,77.28z"/>
			<path fill="#9976FF" d="M65.08,70.44l-4.73-1.19c-0.68-0.17-1.38,0.2-1.58,0.83l-2.97,9.19c-0.03,0.08,0.02,0.17,0.11,0.19
				l1.23,0.31c0.08,0.02,0.17-0.02,0.2-0.1l0.2-0.62c0.12-0.36,0.52-0.57,0.9-0.47l2.7,0.68c0.41,0.1,0.64,0.5,0.52,0.88l-0.18,0.56
				c-0.03,0.08,0.02,0.17,0.11,0.19l1.25,0.32c0.08,0.02,0.17-0.02,0.2-0.1l2.95-9.12C66.2,71.31,65.79,70.62,65.08,70.44
				L65.08,70.44z"/>
		</g>
		<g>
			<path fill="#47A1FB" d="M55.99,50.85v21.38l10.05-17.46V39.1l-1.57-6.29c0-0.02-0.03-0.02-0.04-0.01l-4.55,7.88L55.99,50.85
				L55.99,50.85z"/>
			<path fill="#64BEFF" d="M36.84,25.36l27.6,7.45c-0.02-0.01-4.45,7.94-4.49,7.87c0,0-27.88-7.44-27.7-7.4L36.84,25.36L36.84,25.36
				z"/>
			<polygon fill="#64BEFF" points="26.4,49.11 26.4,64.33 55.99,72.23 55.99,47.59 			"/>
			<path fill="#FFFFFF" d="M29.34,62.79l10.75,2.88c0.89,0.24,1.76-0.43,1.76-1.35V53.13c0-0.64-0.43-1.19-1.05-1.35l-10.75-2.81
				c-0.89-0.23-1.75,0.44-1.75,1.35v11.12C28.3,62.07,28.73,62.63,29.34,62.79L29.34,62.79z"/>
			<polygon fill="#745C00" points="52.2,71.23 52.2,54.02 43.76,52.29 43.76,68.97 			"/>
			<polygon fill="#4667F4" points="25.41,48.56 32.27,33.28 37.73,34.74 31.05,50.02 			"/>
			<polygon fill="#4285F4" points="31.05,50.02 37.71,34.74 43.21,36.21 36.75,51.52 			"/>
			<polygon fill="#4667F4" points="36.75,51.52 43.23,36.21 48.77,37.69 42.45,52.99 			"/>
			<polygon fill="#4285F4" points="42.45,52.99 48.75,37.69 54.33,39.18 48.21,54.45 			"/>
			<polygon fill="#4667F4" points="48.21,54.45 54.35,39.18 59.97,40.68 53.97,55.95 			"/>
			<path fill="#BCE9FF" d="M50.14,61.62c-0.07,0-0.14-0.03-0.18-0.1l-2.15-3.24l-2.1,1.93c-0.09,0.08-0.22,0.07-0.3-0.01
				c-0.08-0.09-0.07-0.22,0.01-0.3l2.28-2.1c0.05-0.04,0.11-0.06,0.17-0.05c0.06,0.01,0.12,0.04,0.15,0.09l2.29,3.44
				c0.07,0.1,0.04,0.23-0.06,0.3C50.22,61.61,50.18,61.62,50.14,61.62L50.14,61.62z"/>
			<path fill="#394EC1" d="M50.99,59.13l-0.24-0.06c-1.49-0.39-2.53-1.75-2.53-3.3v-1.31l5.76,1.5v0.85
				C53.97,58.38,52.5,59.53,50.99,59.13L50.99,59.13z"/>
			<path fill="#4667F4" d="M45.23,57.64l-0.24-0.06c-1.49-0.39-2.53-1.75-2.53-3.3l0-1.28l5.76,1.46v0.86
				C48.21,56.89,46.74,58.04,45.23,57.64L45.23,57.64z"/>
			<path fill="#394EC1" d="M39.5,56.17l-0.24-0.06c-1.48-0.39-2.51-1.75-2.51-3.3v-1.29l5.7,1.47v0.85
				C42.45,55.42,40.99,56.57,39.5,56.17L39.5,56.17z"/>
			<path fill="#4667F4" d="M33.8,54.7l-0.24-0.06c-1.47-0.39-2.5-1.75-2.5-3.3v-1.31l5.7,1.5v0.85
				C36.75,53.94,35.29,55.09,33.8,54.7L33.8,54.7z"/>
			<path fill="#394EC1" d="M28.13,53.11l-0.24-0.06c-1.46-0.38-2.48-1.7-2.48-3.21v-1.28l5.65,1.46v0.82
				C31.05,52.37,29.61,53.49,28.13,53.11L28.13,53.11z"/>
			<polygon fill="#C6B9FF" points="45.31,63.43 50.39,64.8 50.39,61.28 45.31,59.91 			"/>
		</g>
	</g>
	<g id="Trees_00000162333270105655708030000013846683389690547107_">
		<g>
			<path fill="#745C00" d="M72.6,63.65h-5.82v5.42h0.01c-0.07,0.86,0.6,1.67,1.76,1.98c1.48,0.4,3.19-0.17,3.82-1.26
				c0.14-0.24,0.23-0.72,0.23-0.72L72.6,63.65L72.6,63.65z"/>
			<path fill="#1F8A52" d="M76.25,57.77c0,3.25,0,9.8-6.56,9.8s-6.56-6.55-6.56-9.8s2.94-26.18,6.56-26.18
				C73.32,31.58,76.25,54.52,76.25,57.77z"/>
			<path fill="#745C00" d="M16.11,35.04h-5.12v4.77h0.01c-0.06,0.76,0.53,1.47,1.55,1.74c1.3,0.35,2.81-0.15,3.36-1.11
				c0.12-0.21,0.2-0.63,0.2-0.63L16.11,35.04L16.11,35.04z"/>
			<path fill="#1F8A52" d="M18.26,31.31c0,2.33,0,7.04-4.72,7.04s-4.72-4.71-4.72-7.04s2.11-18.82,4.72-18.82
				S18.26,28.98,18.26,31.31z"/>
			<path fill="#745C00" d="M84.38,83.33h-4.25v3.96h0.01c-0.05,0.63,0.44,1.22,1.29,1.45c1.08,0.29,2.33-0.12,2.79-0.92
				c0.1-0.17,0.17-0.52,0.17-0.52V83.33z"/>
			<circle fill="#1F8A52" cx="82.26" cy="79.58" r="6.11"/>
		</g>
	</g>
	<g id="Pins_00000026848936565767119890000014982521452958296966_">
		<g>
			<path fill="#FF4365" d="M54.93,11.08c-1.57-3.02-4.26-5.29-7.51-6.32c-1.26-0.39-2.56-0.58-3.87-0.58c-1.3,0-2.61,0.19-3.87,0.58
				c-3.25,1.03-5.94,3.31-7.51,6.32c-0.96,1.82-1.45,3.84-1.45,5.9c0,7.8,4.99,10.83,9.27,17.52c2.6,4.03,1.87,6.44,3.55,6.44
				c0,0,0.01,0,0.01,0s0.01,0,0.01,0c1.68,0,0.96-2.41,3.55-6.44c4.28-6.69,9.27-9.73,9.27-17.52
				C56.39,14.92,55.89,12.89,54.93,11.08L54.93,11.08z"/>
			<circle fill="#FFFFFF" cx="43.55" cy="16.99" r="4.9"/>
		</g>
	</g>
</g>
</svg>
