<svg xmlns="http://www.w3.org/2000/svg" xmlns:xlink="http://www.w3.org/1999/xlink" width="320" height="100" viewBox="0 0 320 100"><title>confetti</title><defs><path id="a" d="M.5 0h320v100H.5z"/></defs><g transform="translate(-.5 -1)" fill="none" fill-rule="evenodd"><mask id="b" fill="#fff"><use xlink:href="#a"/></mask><path fill="#34A853" mask="url(#b)" transform="rotate(-77 203.4 19.8)" d="M 201.2 16.05a 2.25 2.25 0 0 1 4.5 0v 7.5a 2.25 2.25 0 0 1 -4.5 0v -7.5"/><path fill="#34A853" mask="url(#b)" d="M33.4 11.3l-2.2-4.7-2 4.7-4.7 2.1 4.6 2.1 2.1 4.7 2.2-4.7 4.6-2.1z"/><path fill="#FBBC04" mask="url(#b)" d="M282.4 88.2l-2.3-5.1-2.4 5.1-5.1 2.4 5.1 2.3 2.4 5.2 2.3-5.2 5.2-2.3zM216.2 52l-4-8.8-4 8.8-8.7 4 8.7 4 4 8.8 4-8.8 8.8-4zm-107.6 7l-2.3-5.3-2.4 5.2-5.1 2.4 5.1 2.3 2.4 5.2 2.3-5.2 5.2-2.3z"/><path fill="#34A853" mask="url(#b)" transform="rotate(-35 111.6 23.9)" d="M 109.3 20.05a 2.25 2.25 0 0 1 4.5 0v 7.5a 2.25 2.25 0 0 1 -4.5 0v -7.5"/><path fill="#FBBC04" mask="url(#b)" transform="rotate(27 78.7 13.4)" d="M 76.5 9.65a 2.25 2.25 0 0 1 4.5 0v 7.5a 2.25 2.25 0 0 1 -4.5 0v -7.5"/><path fill="#FBBC04" mask="url(#b)" transform="rotate(-42 28.7 41.7)" d="M 26.4 37.95a 2.25 2.25 0 0 1 4.5 0v 7.5a 2.25 2.25 0 0 1 -4.5 0v -7.5"/><path fill="#EA4335" mask="url(#b)" transform="rotate(27 29.8 88.4)" d="M 27.5 84.55a 2.25 2.25 0 0 1 4.5 0v 7.5a 2.25 2.25 0 0 1 -4.5 0v -7.5"/><path fill="#EA4335" mask="url(#b)" transform="rotate(60 245 11.6)" d="M 242.8 7.85a 2.25 2.25 0 0 1 4.5 0v 7.5a 2.25 2.25 0 0 1 -4.5 0v -7.5"/><path d="M245.4 76.6c1 .6 1.5 2 1 3l-3.5 6.7a2.3 2.3 0 0 1-4-2l3.4-6.7c.6-1.1 2-1.6 3-1zm-147.9 12c1.1.6 1.6 2 1 3l-3.4 6.7a2.2 2.2 0 1 1-4-2l3.4-6.7c.6-1.1 2-1.6 3-1z" fill="#EA4335" mask="url(#b)"/><path fill="#EA4335" mask="url(#b)" transform="rotate(27 308.7 73.3)" d="M 306.5 69.55a 2.25 2.25 0 0 1 4.5 0v 7.5a 2.25 2.25 0 0 1 -4.5 0v -7.5"/><path fill="#4285F4" mask="url(#b)" transform="rotate(72 60 83)" d="M 57.8 79.25a 2.25 2.25 0 0 1 4.5 0v 7.5a 2.25 2.25 0 0 1 -4.5 0v -7.5"/><ellipse fill="#4285F4" mask="url(#b)" cx="224" cy="32.1" rx="3" ry="3"/><ellipse fill="#34A853" mask="url(#b)" cx="15.6" cy="70.3" rx="3" ry="3"/><ellipse fill="#4285F4" mask="url(#b)" cx="212.2" cy="88.4" rx="3" ry="3"/><ellipse fill="#EA4335" mask="url(#b)" cx="266" cy="65.8" rx="3" ry="3"/><ellipse fill="#EA4335" mask="url(#b)" cx="163.5" cy="41" rx="3" ry="3"/><ellipse fill="#34A853" mask="url(#b)" cx="150.5" cy="14.6" rx="3" ry="3"/><ellipse fill="#FBBC04" mask="url(#b)" cx="133.3" cy="36.8" rx="3" ry="3"/><path fill="#4285F4" mask="url(#b)" transform="rotate(-24 307 18)" d="M 304.7 14.25a 2.25 2.25 0 0 1 4.5 0v 7.5a 2.25 2.25 0 0 1 -4.5 0v -7.5"/><path d="M43.8 41.6h3.1v-9.2h-3v9.2zm17-8.5c0-.8-.6-1.5-1.5-1.5h-4.9l.8-3.5v-.3c0-.3-.1-.6-.3-.8l-.9-.8-5 5c-.3.3-.5.7-.5 1.2v7.7c0 .8.7 1.5 1.5 1.5h7c.6 0 1.2-.4 1.4-1l2.3-5.4.2-.5v-1.5z" fill="#4285F4" fill-rule="nonzero" mask="url(#b)" transform="rotate(16 68 44)scale(1.3)"/><path d="M260 41.7h3.1v-9.2h-3v9.2zm17-8.5c0-.8-.6-1.5-1.5-1.5h-4.9l.8-3.5v-.3c0-.3-.1-.6-.3-.8l-.9-.8-5 5c-.3.3-.5.7-.5 1.2v7.7c0 .8.7 1.5 1.5 1.5h7c.6 0 1.2-.4 1.4-1l2.3-5.4.2-.5v-1.5z" fill="#4285F4" fill-rule="nonzero" mask="url(#b)" transform="rotate(-26 268.6 34)"/></g></svg>
