<svg width="335" height="105" fill="none" xmlns="http://www.w3.org/2000/svg"><rect x="202.785" y="5" width="4.71094" height="12.5989" rx="2.35547" transform="rotate(-77 202.785 5)" fill="#34A853"/><path fill-rule="evenodd" clip-rule="evenodd" d="M22.3918 26.8171l-2.2082-4.8723-2.2083 4.8723-4.8581 2.2146 4.8581 2.2147 2.2083 4.8722 2.2082-4.8722 4.8582-2.2147-4.8582-2.2146z" fill="#34A853"/><path fill-rule="evenodd" clip-rule="evenodd" d="M195.392 39.8171l-2.208-4.8723-2.209 4.8723-4.858 2.2146 4.858 2.2147 2.209 4.8722 2.208-4.8722 4.858-2.2147-4.858-2.2146zM288.125 27.0791l-2.453-5.4136-2.454 5.4136-5.398 2.4607 5.398 2.4608 2.454 5.4136 2.453-5.4136 5.398-2.4608-5.398-2.4607zM106.178 59.6809l-2.453-5.4136-2.454 5.4136-5.398 2.4608 5.398 2.4607 2.454 5.4136 2.453-5.4136 5.398-2.4607-5.398-2.4608z" fill="#FBBC04"/><rect x="89.7246" y="13.1726" width="4.71094" height="12.5989" rx="2.35547" transform="rotate(-35 89.7246 13.1726)" fill="#34A853"/><rect x="64.6543" y="7.34937" width="4.71094" height="12.5989" rx="2.35547" transform="rotate(27 64.6543 7.34937)" fill="#FBBC04"/><rect x="33.9238" y="53.6086" width="4.71094" height="12.5989" rx="2.35547" transform="rotate(93 33.9238 53.6086)" fill="#4285F4"/><path d="M277.878 80.2558c1.272-.2704 2.523.5418 2.793 1.8143.271 1.2725-.541 2.5233-1.814 2.7937l-7.716 1.64c-1.272.2705-2.523-.5418-2.793-1.8142-.271-1.2725.542-2.5233 1.814-2.7938l7.716-1.64z" fill="#FBBC04"/><rect x="257.49" y="8.39966" width="4.71094" height="12.5989" rx="2.35547" transform="rotate(52 257.49 8.39966)" fill="#EA4335"/><path fill-rule="evenodd" clip-rule="evenodd" d="M262.735 38.4106c1.115.67 1.476 2.1171.806 3.2322l-4.063 6.7613c-.67 1.1151-2.117 1.4759-3.232.8059-1.115-.67-1.476-2.1171-.806-3.2322l4.063-6.7613c.67-1.1151 2.117-1.4759 3.232-.8059z" fill="#4285F4"/><rect x="323.459" y="63.0608" width="4.71094" height="12.5989" rx="2.35547" transform="rotate(27 323.459 63.0608)" fill="#34A853"/><rect x="61.3848" y="83.9592" width="4.71094" height="12.5989" rx="2.35547" transform="rotate(137 61.3848 83.9592)" fill="#EA4335"/><path fill-rule="evenodd" clip-rule="evenodd" d="M13.8496 80.7438c1.7345 0 3.1406-1.4102 3.1406-3.1497 0-1.7396-1.4061-3.1498-3.1406-3.1498-1.7345 0-3.1406 1.4102-3.1406 3.1498 0 1.7395 1.4061 3.1497 3.1406 3.1497zM293.141 57.7438c1.734 0 3.14-1.4102 3.14-3.1497 0-1.7396-1.406-3.1498-3.14-3.1498-1.735 0-3.141 1.4102-3.141 3.1498 0 1.7395 1.406 3.1497 3.141 3.1497z" fill="#34A853"/><path fill-rule="evenodd" clip-rule="evenodd" d="M240.629 70.6417c1.734 0 3.141-1.4101 3.141-3.1497 0-1.7395-1.407-3.1497-3.141-3.1497-1.735 0-3.141 1.4102-3.141 3.1497 0 1.7396 1.406 3.1497 3.141 3.1497zM72.9453 49.0153c1.7345 0 3.1406-1.4102 3.1406-3.1498 0-1.7395-1.4061-3.1497-3.1406-3.1497-1.7345 0-3.1406 1.4102-3.1406 3.1497 0 1.7396 1.4061 3.1498 3.1406 3.1498z" fill="#EA4335"/><path fill-rule="evenodd" clip-rule="evenodd" d="M163.031 16.4704c1.735 0 3.141-1.4102 3.141-3.1498 0-1.7395-1.406-3.1497-3.141-3.1497-1.734 0-3.14 1.4102-3.14 3.1497 0 1.7396 1.406 3.1498 3.14 3.1498z" fill="#4285F4"/><path fill-rule="evenodd" clip-rule="evenodd" d="M135.023 35.6928c1.735 0 3.141-1.4102 3.141-3.1498 0-1.7395-1.406-3.1497-3.141-3.1497-1.734 0-3.14 1.4102-3.14 3.1497 0 1.7396 1.406 3.1498 3.14 3.1498z" fill="#34A853"/><rect x="303.119" y="13.0869" width="4.71094" height="12.5989" rx="2.35547" transform="rotate(-24 303.119 13.0869)" fill="#4285F4"/></svg>