<?xml version="1.0" encoding="utf-8"?>
<!-- Generator: Adobe Illustrator 30.0.0, SVG Export Plug-In . SVG Version: 9.03 Build 0)  -->
<svg version="1.1" baseProfile="basic" id="Layer_1"
	 xmlns="http://www.w3.org/2000/svg" xmlns:xlink="http://www.w3.org/1999/xlink" x="0px" y="0px" width="591px" height="307px"
	 viewBox="0 0 591 307" xml:space="preserve">
<g>
	<g id="Poly_Line_00000025435951095312048700000013972698631326505147_">
		<g>
			<path fill="#06B0FF" d="M300.08,298c-37.88,0-74.77-7.54-106.66-21.81c-28.02-12.54-51.51-30.01-67.93-50.54
				c-17.43-21.79-26.65-46.74-26.65-72.15c0-20.11,5.59-39.56,16.61-57.8c10.4-17.22,25.19-32.61,43.95-45.74
				C197.14,23.55,247.1,9,300.08,9s102.94,14.55,140.68,40.96c18.76,13.13,33.55,28.52,43.95,45.74
				c11.02,18.24,16.61,37.68,16.61,57.8c0,36.02-18.38,70.46-51.76,96.97c-31.97,25.39-75.62,41.83-122.9,46.28
				C317.91,297.58,308.97,298,300.08,298L300.08,298z M300.08,33.21c-24.37,0-47.98,3.33-70.18,9.9
				c-21.27,6.3-40.32,15.27-56.61,26.68c-32.39,22.68-50.23,52.4-50.23,83.7c0,10.03,1.85,20.01,5.48,29.65
				c3.58,9.5,8.92,18.71,15.86,27.38c14.02,17.53,34.39,32.59,58.91,43.56c28.81,12.89,62.27,19.7,96.77,19.7
				c8.13,0,16.32-0.38,24.31-1.13c87.06-8.2,152.72-59.42,152.72-119.16c0-31.3-17.84-61.03-50.23-83.7
				c-16.3-11.41-35.35-20.39-56.61-26.68C348.06,36.54,324.45,33.21,300.08,33.21L300.08,33.21z"/>
			<path fill="#394EBF" d="M507.53,250.78c0,23.29-27.32,42.17-61.02,42.17s-61.02-18.88-61.02-42.17s27.32-38.17,61.02-38.17
				S507.53,227.49,507.53,250.78z"/>
			<ellipse fill="#394EBF" cx="481" cy="115.68" rx="63.49" ry="43.87"/>
			<ellipse fill="#394EBF" cx="113.03" cy="182.22" rx="61.02" ry="42.17"/>
		</g>
	</g>
	<g id="Hand_00000173155005198741826870000008747807788908072870_">
		<g>
			<path fill="#E59B5D" d="M389.8,81.61c0-8.24-6.68-14.92-14.92-14.92c-4.66,0-8.82,2.14-11.55,5.48l0,0
				c-10.72,13.12-22.73,25.13-35.85,35.85l20.99,20.99c10.72-13.12,22.73-25.13,35.85-35.85l0,0
				C387.67,90.43,389.81,86.27,389.8,81.61L389.8,81.61z"/>
			<path fill="#E9AE72" d="M350.68,206.91l-38.52,4.78l-25.91,2.4c5.57-7.28,8.88-16.39,8.88-26.27c0-15.45-8.1-29.01-20.29-36.67
				c-15.97-10.15-25.7-27.71-25.84-46.63l0,0c-0.07-9.21-7.72-16.61-17.02-16.25c-8.46,0.33-15.37,7.21-15.72,15.67
				c-0.12,2.83,0.49,5.51,1.64,7.88c8.14,17.04,7.1,37.05-2.78,53.15c-4.13,6.63-6.52,14.46-6.52,22.85
				c0,8.39,2.41,16.28,6.57,22.92c9.53,15.47,9.86,39.94,1.87,56.8c-0.65,1.36,0.34,2.94,1.85,2.94l91.24,10.36
				c1.15,0,2.19,2.39,2.16,1.23c-0.01-0.45-0.13-4.12-0.13-4.16c0.05-4.46,0.22-25.89,9.84-33.03
				c11.75-8.73,38.67-20.31,43.06-35.32L350.68,206.91L350.68,206.91z"/>
			<path fill="#FFE921" d="M220.3,154.08c0,0-1.96-6.03,0.39-12.14c2.35-6.11,8.23-9.79,20.18-8.37c2.24,0.27,4.3,0.79,6.16,1.45
				c8.09,2.9,12.58,8.6,12.58,8.6l-10.85,14.61c0,0-1.65-2.85-5.28-5.17c-2.47-1.58-5.85-2.93-10.26-2.97
				C224.41,149.99,220.3,154.08,220.3,154.08L220.3,154.08z"/>
			<path fill="#003439" d="M330.5,222.72L370.5,33.95c1.46-6.88-3.79-13.37-10.83-13.37h-79.12c-6.82,0-12.71,4.77-14.13,11.45
				l-36.74,173.35c-3.22,15.18,8.36,29.47,23.88,29.47h61.98C322.76,234.84,329,229.79,330.5,222.72L330.5,222.72z"/>
			<path fill="#FFFFFF" d="M234.37,207.96c-1.21,5.69,3.14,11.05,8.96,11.05h69.46c3.29,0,6.14-2.31,6.82-5.53L349.43,72.8h-86.41
				L234.37,207.96L234.37,207.96z"/>
			<path fill="#9FD5FF" d="M352.97,26.86h-69.32c-6.35,0-11.84,4.44-13.15,10.66l-7.48,35.28h86.41l8.45-39.88
				C358.54,29.79,356.16,26.86,352.97,26.86z"/>
			<path fill="#0AAEFD" d="M330.26,101.81H300.3c-2.47,0-4.03-2.05-3.49-4.58l0,0c0.55-2.53,2.99-4.59,5.47-4.59h30.03
				c2.48,0,4.02,2.05,3.45,4.59l0,0C335.19,99.77,332.73,101.81,330.26,101.81z"/>
			<path fill="#003439" d="M322.92,63.52h-29.96c-2.47,0-4.03-2.05-3.49-4.58l0,0c0.55-2.53,2.99-4.59,5.47-4.59h30.03
				c2.48,0,4.02,2.05,3.45,4.59l0,0C327.85,61.47,325.39,63.52,322.92,63.52L322.92,63.52z"/>
			<path fill="#0AAEFD" d="M332.33,107.09h-36.42c-0.67,0-1.1-0.56-0.95-1.24l0,0c0.15-0.69,0.81-1.24,1.48-1.24h36.45
				c0.67,0,1.09,0.56,0.94,1.24l0,0C333.68,106.53,333.01,107.09,332.33,107.09L332.33,107.09z"/>
			<path fill="#0AAEFD" d="M319.97,148.4h-29.68c-2.45,0-4-2.01-3.46-4.49l0,0c0.53-2.48,2.96-4.5,5.41-4.5h29.75
				c2.45,0,3.99,2.02,3.43,4.5l0,0C324.85,146.39,322.42,148.4,319.97,148.4L319.97,148.4z"/>
			<path fill="#0AAEFD" d="M322.03,153.59h-36.08c-0.67,0-1.09-0.55-0.94-1.22l0,0c0.14-0.67,0.8-1.22,1.47-1.22h36.1
				c0.67,0,1.08,0.55,0.93,1.22l0,0C323.36,153.04,322.7,153.59,322.03,153.59L322.03,153.59z"/>
			<path fill="#0AAEFD" d="M309.11,198.48h-29.4c-2.42,0-3.96-1.97-3.44-4.41l0,0c0.52-2.44,2.92-4.42,5.35-4.42h29.47
				c2.43,0,3.95,1.98,3.4,4.42l0,0C313.94,196.51,311.53,198.48,309.11,198.48z"/>
			<path fill="#0AAEFD" d="M311.16,203.57h-35.74c-0.66,0-1.08-0.54-0.94-1.19l0,0c0.14-0.66,0.79-1.19,1.45-1.19h35.77
				c0.66,0,1.07,0.54,0.93,1.19l0,0C312.47,203.03,311.82,203.57,311.16,203.57L311.16,203.57z"/>
			<polygon fill="#9FD5FF" points="259.89,197.72 251.75,197.72 272.79,97.05 281.13,97.05 			"/>
			<path fill="#3D55BB" d="M288.16,99.88c-1.41,6.62-7.79,11.98-14.27,11.98c-6.47,0-10.61-5.35-9.24-11.98
				c1.37-6.65,7.77-12.05,14.28-12.05S289.57,93.24,288.16,99.88L288.16,99.88z"/>
			<path fill="#3D55BB" d="M278.26,146.51c-1.38,6.5-7.7,11.75-14.11,11.75s-10.52-5.25-9.18-11.75
				c1.35-6.52,7.67-11.82,14.13-11.82C275.55,134.69,279.65,139.99,278.26,146.51z"/>
			<path fill="#3D55BB" d="M267.78,196.63c-1.36,6.38-7.61,11.53-13.96,11.53c-6.35,0-10.43-5.16-9.11-11.53
				c1.32-6.4,7.58-11.6,13.97-11.6C265.07,185.03,269.14,190.23,267.78,196.63L267.78,196.63z"/>
			<path fill="#E59A5C" d="M370.98,146.05L370.98,146.05c0,0-0.02-0.01-0.02-0.02c-0.02-0.02-0.05-0.03-0.07-0.05
				c-11.1-6.86-20.48-16.18-27.4-27.24l0,0c-2.7-4.29-7.47-7.15-12.91-7.15c-8.41,0-15.24,6.82-15.24,15.24
				c0,4.33,1.81,8.23,4.71,11.01l0,0l30.67,30.19c2.77,3.77,7.24,6.22,12.28,6.22c8.41,0,15.24-6.82,15.24-15.24
				C378.23,153.54,375.33,148.73,370.98,146.05L370.98,146.05z"/>
			<path fill="#E8A364" d="M361.15,167.89c-12.08-4.64-22.98-11.91-31.9-21.27l0,0c-2.78-2.91-6.69-4.73-11.03-4.73
				c-8.41,0-15.24,6.82-15.24,15.24c0,5.18,2.58,9.75,6.53,12.5l0,0c0.17,0.12,0.35,0.24,0.52,0.35l36.87,24.57
				c2.49,1.77,5.53,2.82,8.83,2.82c8.41,0,15.24-6.82,15.24-15.24C370.96,175.63,366.89,170.08,361.15,167.89L361.15,167.89z"/>
			<path fill="#E9AE72" d="M352.71,190.16L352.71,190.16c-8.04-0.97-15.72-3.9-22.36-8.55l0,0c-2.48-1.74-5.49-2.76-8.74-2.76
				c-8.41,0-15.24,6.82-15.24,15.24c0,6.17,3.67,11.49,8.96,13.88l0,0l0.02,0.01c0.57,0.26,1.15,0.48,1.75,0.67l27.1,10.33
				c0.82,0.4,1.68,0.73,2.58,0.98l0,0c1.31,0.37,2.7,0.57,4.13,0.57c8.41,0,15.24-6.82,15.24-15.24
				C366.13,197.49,360.27,191.06,352.71,190.16L352.71,190.16z"/>
			<path fill="#FFC8A0" d="M330.88,113.92c-1.71,0.61-3.23,1.9-3.86,3.6c-0.74,1.95-0.26,4.16,0.51,6.1
				c1.4,3.53,3.74,6.61,6.23,9.48c1.76,2.02,3.68,4.01,6.13,5.08c2.45,1.08,5.56,1.04,7.57-0.74c1.1-0.99,1.76-2.37,2.25-3.77
				c0.55-1.58,0.93-3.21,1.14-4.87c-2.69-3.16-5.16-6.51-7.37-10.04l0,0c-1.18-1.88-2.77-3.49-4.63-4.7
				C336.29,113.21,333.64,112.95,330.88,113.92L330.88,113.92z"/>
			<path fill="#FFC8A0" d="M314.75,148.22c-1.05,3.58,0.22,7.51,2.42,10.53c2.2,3.02,5.23,5.3,8.17,7.6
				c1.69,1.32,3.53,2.73,5.67,2.82c0.99,0.04,1.96-0.21,2.88-0.58c4.44-1.78,7.42-6.4,7.77-11.18c-4.46-3.19-8.62-6.79-12.42-10.78
				l0,0c-2.21-2.32-5.15-3.94-8.44-4.5C317.95,143,315.59,145.36,314.75,148.22L314.75,148.22z"/>
			<path fill="#FFC8A0" d="M314.38,184.18c-0.97,3.51,0.39,7.39,2.89,10.04s5.97,4.2,9.52,5.02c3.34,0.78,7.24,0.82,9.76-1.5
				c1.06-0.98,1.76-2.27,2.33-3.59c0.86-1.97,1.47-4.05,1.83-6.17c0.04-0.26,0.08-0.53,0.11-0.8c-3.69-1.43-7.21-3.3-10.47-5.59l0,0
				c-2.48-1.74-5.49-2.76-8.74-2.76c-0.91,0-1.8,0.08-2.67,0.24C316.79,179.94,315.07,181.69,314.38,184.18L314.38,184.18z"/>
		</g>
	</g>
	<g id="Objects">
		<g>
			<path fill="#9FD5FF" d="M153.66,159.15c-1.39-5.28-1.6-10.8-0.62-16.17c0.17-0.84,0.31-1.69,0.43-2.55
				c-0.18,0.73-0.43,1.45-0.73,2.16c-0.87,2.02-2.23,3.93-4,5.69c-6.06,6.03-16.98,10.35-29.81,11.31h-10.8
				c-12.83-0.96-23.75-5.27-29.81-11.31c-1.77-1.76-3.13-3.68-4-5.69c-0.31-0.71-0.55-1.43-0.73-2.16c0.12,0.86,0.26,1.71,0.43,2.55
				c0.64,3.47,0.77,7,0.42,10.49c-2.92-2.21-6.56-3.52-10.5-3.52c-9.62,0-17.42,7.8-17.42,17.42s7.8,17.42,17.42,17.42
				c3.46,0,6.68-1.01,9.39-2.75c4.93,17.57,21.06,30.45,40.21,30.45c23.06,0,41.76-18.69,41.76-41.76
				C155.29,166.71,154.72,162.83,153.66,159.15L153.66,159.15z M63.94,173.55c-3.41,0-6.18-2.77-6.18-6.18s2.77-6.18,6.18-6.18
				c3.41,0,6.18,2.77,6.18,6.18S67.35,173.55,63.94,173.55z"/>
			<path fill="#9FD5FF" d="M113.54,131.02c15.25,0,28.72,6.1,36.85,15.44c0.99-1.23,1.79-2.53,2.36-3.87
				c0.31-0.71,0.55-1.43,0.73-2.16c0.18-1.3,0.3-2.63,0.35-3.97c-0.83-12-18.55-21.58-40.3-21.58s-39.46,9.58-40.3,21.58
				c0.05,1.34,0.17,2.67,0.35,3.97c0.18,0.73,0.43,1.45,0.73,2.16c0.58,1.34,1.37,2.64,2.36,3.87
				C84.82,137.12,98.29,131.02,113.54,131.02L113.54,131.02z"/>
			<path fill="#713700" d="M108.14,159.59h10.8c12.83-0.96,23.75-5.27,29.81-11.31c0.6-0.59,1.14-1.2,1.64-1.82
				c-8.13-9.34-21.6-15.44-36.85-15.44s-28.72,6.1-36.85,15.44c0.5,0.62,1.04,1.23,1.64,1.82
				C84.39,154.32,95.31,158.63,108.14,159.59L108.14,159.59z"/>
			<path fill="#BCE9FF" d="M97.67,103.68L97.67,103.68c-1.93-0.65-3.45-2.16-4.1-4.09l0,0c-2.12-6.3-8.08-10.84-15.1-10.84
				c-0.23,0-0.46,0.01-0.69,0.02l0,0c-3.91,0.17-7.67-1.5-10.17-4.52l0,0c-2.12-2.56-5.32-4.19-8.9-4.19
				c-6.38,0-11.55,5.17-11.55,11.55c0,5.24,3.49,9.66,8.26,11.07c3.71,1.1,6.69,3.87,8.08,7.47c2.23,6.1,8.09,10.46,14.96,10.46
				c1.29,0,2.55-0.16,3.76-0.45l0,0c1.98-0.48,4.07-0.01,5.65,1.28l0,0c1.78,1.45,4.05,2.32,6.52,2.32
				c5.69,0,10.31-4.61,10.31-10.31C104.71,108.9,101.76,105.04,97.67,103.68L97.67,103.68z"/>
			<path fill="#BCE9FF" d="M81.66,52.49c-1.65-0.18-3.08-0.55-3.77-2.48c-1.72-4.85-6.75-7.87-11.97-6.9
				c-5.78,1.07-9.61,6.62-8.54,12.41c0.84,4.55,4.47,7.89,8.79,8.58c3.01,0.48,2.99,3.34,3.83,5.62c2.11,5.74,8.24,9.21,14.24,8.1
				c6.91-1.28,11.47-7.91,10.19-14.82c-0.67-3.63-3.04-6.86-6.29-8.71c-1.67-0.95-3.54-1.53-5.46-1.71
				C82.34,52.56,81.99,52.53,81.66,52.49L81.66,52.49z"/>
		</g>
		<g>
			<path d="M483.09,249.83c-5.57,0-10.09,4.52-10.09,10.09c0,5.57,4.52,10.09,10.09,10.09c5.57,0,10.09-4.52,10.09-10.09
				C493.18,254.35,488.66,249.83,483.09,249.83z M483.09,263.65c-2.05,0-3.72-1.66-3.72-3.72s1.66-3.72,3.72-3.72
				s3.72,1.66,3.72,3.72S485.14,263.65,483.09,263.65z"/>
			<path d="M451.8,249.83c-5.57,0-10.09,4.52-10.09,10.09c0,5.57,4.52,10.09,10.09,10.09c5.57,0,10.09-4.52,10.09-10.09
				C461.89,254.35,457.38,249.83,451.8,249.83z M451.8,263.65c-2.05,0-3.72-1.66-3.72-3.72s1.66-3.72,3.72-3.72s3.72,1.66,3.72,3.72
				S453.85,263.65,451.8,263.65z"/>
			
				<linearGradient id="SVGID_1_" gradientUnits="userSpaceOnUse" x1="452.712" y1="8121.4966" x2="452.712" y2="8060.1831" gradientTransform="matrix(1 0 0 -1 0 8310)">
				<stop  offset="0.14" style="stop-color:#FBBC04"/>
				<stop  offset="0.92" style="stop-color:#FFF350"/>
			</linearGradient>
			<path fill="url(#SVGID_1_)" d="M502.79,196.16h-67.43c-2.3,0-4.34-1.5-5.02-3.71l-0.36-1.16l-1.96-6.39c-1.28-4.16-5.12-7-9.47-7
				h-15.52c-4.4,0-7.54,4.25-6.25,8.46l0.42,1.37c0.65,2.11,2.6,3.55,4.81,3.55h7.85c3.03,0,5.7,1.97,6.59,4.87l15.09,49.13
				c0.83,2.7,3.32,4.55,6.15,4.55h53.78c2.51,0,4.55-2.04,4.55-4.55l0,0l0,0c0.83-2.69-1.18-5.41-3.99-5.41h-42.5
				c-2.39,0-4.32-1.93-4.32-4.32l0,0c0-2.39,1.93-4.32,4.32-4.32h45.71c3.02,0,5.69-1.97,6.58-4.86l6.84-22.26
				C509.88,200.15,506.92,196.15,502.79,196.16L502.79,196.16z"/>
			<path fill="#40C76E" d="M416.9,229.11c-0.85-1.24-1.76-2.46-2.96-3.37c-1.2-0.91-2.72-1.47-4.21-1.24
				c-2.77,0.43-4.5,3.59-4.08,6.36c0.42,2.77,2.46,5.04,4.8,6.59c2.33,1.54,4.99,2.52,7.47,3.8c0.92,0.48,1.81,1,2.65,1.61
				c0.67,0.48,1.57,1.78,2.28,2.07c1.93,0.77,0.26-3.1-0.08-4.08C421.34,236.7,419.37,232.74,416.9,229.11L416.9,229.11z"/>
			<path fill="#A07043" d="M425.52,244.59c-1.68-4.99-2.14-10.31-1.34-15.51l0,0c0.02-0.1,0.03-0.21,0.03-0.31
				c0-1.13-0.92-2.06-2.06-2.06s-2.06,0.92-2.06,2.06c0,0.29,0.06,0.56,0.17,0.81c2.07,4.84,2.94,10.1,2.56,15.35L425.52,244.59
				L425.52,244.59z"/>
			<path fill="#34A853" d="M437.75,240.27c-2.05,0-3.99,0.49-5.74,1.35l0,0c-5.67,2.8-12.19,2.8-17.87,0l0,0
				c-1.75-0.87-3.69-1.35-5.74-1.35c-7.61,0-13.78,6.66-13.78,14.88c0,8.22,6.17,14.88,13.78,14.88c2.05,0,3.99-0.49,5.74-1.35l0,0
				c5.67-2.8,12.19-2.8,17.87,0l0,0c1.75,0.87,3.69,1.35,5.74,1.35c7.61,0,13.78-6.66,13.78-14.88
				C451.53,246.93,445.36,240.27,437.75,240.27z"/>
		</g>
		<g>
			<rect x="431.1" y="90.12" fill="#9FE77A" width="98.66" height="39.83"/>
			<path fill="#34A853" d="M446.79,50.26h-10.55c-1.74,0-3.28,1.11-3.83,2.77l-10.49,31.79c-0.86,2.61,1.08,5.3,3.83,5.3h11.62
				L446.79,50.26L446.79,50.26z"/>
			<polygon fill="#40C76E" points="460.25,50.26 446.79,50.26 437.37,90.12 454.57,90.12 			"/>
			<polygon fill="#34A853" points="473.72,50.26 460.25,50.26 454.57,90.12 471.76,90.12 			"/>
			<polygon fill="#40C76E" points="487.18,50.26 473.72,50.26 471.76,90.12 488.95,90.12 			"/>
			<polygon fill="#34A853" points="500.64,50.26 487.18,50.26 488.95,90.12 506.14,90.12 			"/>
			<polygon fill="#40C76E" points="514.1,50.26 500.64,50.26 506.14,90.12 523.33,90.12 			"/>
			<path fill="#34A853" d="M524.63,50.26H514.1l9.23,39.86h11.64c2.74,0,4.68-2.67,3.83-5.28l-10.34-31.79
				C527.92,51.38,526.38,50.26,524.63,50.26L524.63,50.26z"/>
			<path fill="#A07043" d="M520.38,129.78c-2.58-0.42-5.23,0.5-5.93,2.05c-0.12,0.26-0.17,0.53-0.17,0.78c0-0.01,0-0.02,0-0.02v7.72
				c0,1.28,1.42,2.46,3.58,2.81c2.58,0.42,5.23-0.5,5.93-2.05c0.11-0.25,0.17-0.51,0.17-0.76v-7.72c0,0,0,0.01,0,0.01
				C523.97,131.31,522.55,130.13,520.38,129.78L520.38,129.78z M515.04,134.16c0,0-0.01-0.01-0.01-0.01
				C515.04,134.15,515.04,134.16,515.04,134.16z M514.86,133.97c0,0-0.02-0.02-0.03-0.03C514.84,133.95,514.85,133.96,514.86,133.97
				z M514.69,133.76c0,0-0.02-0.02-0.03-0.04C514.67,133.74,514.68,133.75,514.69,133.76z M514.3,132.82c0,0,0,0.01,0,0.02
				C514.3,132.83,514.3,132.82,514.3,132.82z M514.54,133.53c0,0-0.01-0.01-0.01-0.02C514.53,133.52,514.54,133.52,514.54,133.53z
				 M514.44,133.32c0,0-0.01-0.02-0.01-0.03C514.43,133.3,514.43,133.31,514.44,133.32z M514.36,133.09c0,0-0.01-0.03-0.01-0.04
				C514.35,133.06,514.35,133.07,514.36,133.09z M515.24,134.33c0,0,0.03,0.02,0.04,0.03C515.27,134.35,515.25,134.34,515.24,134.33
				z M517.05,135.22c0.02,0.01,0.04,0.01,0.06,0.02C517.09,135.23,517.07,135.23,517.05,135.22z M515.49,134.52
				c0,0,0.03,0.02,0.04,0.03C515.52,134.54,515.51,134.53,515.49,134.52z M515.77,134.69C515.77,134.69,515.78,134.7,515.77,134.69
				C515.78,134.7,515.78,134.7,515.77,134.69z M516.05,134.84c0.02,0.01,0.03,0.02,0.05,0.03
				C516.08,134.86,516.07,134.85,516.05,134.84z M516.37,134.99c0.02,0.01,0.04,0.01,0.05,0.02
				C516.41,135,516.39,134.99,516.37,134.99z M516.72,135.12C516.72,135.12,516.73,135.12,516.72,135.12
				C516.73,135.12,516.73,135.12,516.72,135.12z M517.44,135.32c0.02,0,0.04,0.01,0.06,0.01
				C517.48,135.33,517.46,135.32,517.44,135.32z M523.94,132.8c0,0,0-0.02,0-0.03C523.94,132.78,523.94,132.79,523.94,132.8z
				 M523.85,133.18c0.01-0.02,0.01-0.03,0.02-0.05C523.86,133.14,523.86,133.16,523.85,133.18z M523.9,133
				c0-0.02,0.01-0.04,0.01-0.05C523.91,132.96,523.91,132.98,523.9,133z"/>
			<circle fill="#34A853" cx="519.2" cy="119.13" r="16.48"/>
			<circle fill="#004E41" cx="480.35" cy="42.56" r="26"/>
			<g>
				<path fill="#FFFFFF" fill-opacity="0.91" d="M479.1,25.45c-0.75,0-1.36,0.61-1.36,1.36c0,0.06,0.01,0.12,0.01,0.18l0.42,5.62
					c0.05,0.7-0.5,1.29-1.2,1.29l0,0c-0.7,0-1.25-0.59-1.2-1.29L476.2,27c0.01-0.06,0.01-0.12,0.01-0.18c0-0.75-0.61-1.36-1.36-1.36
					c-0.75,0-1.36,0.61-1.36,1.36c0,0.06,0.01,0.12,0.01,0.18l0.42,5.58c0.05,0.7-0.49,1.33-1.19,1.33c-0.71,0-1.25-0.59-1.2-1.29
					l0.42-5.62c0.01-0.06,0.01-0.12,0.01-0.18c0-0.75-0.61-1.36-1.36-1.36c-0.75,0-1.36,0.61-1.36,1.36c0,0.05,0,0.1,0.01,0.15
					l0.43,9.16c0.08,1.65,1.23,3.02,2.77,3.42c0.39,0.1,0.63,0.5,0.56,0.89l-2.6,14.77l0,0c-0.04,0.24-0.06,0.48-0.06,0.73
					c0,2.47,2,4.46,4.46,4.46s4.46-2,4.46-4.46c0-0.25-0.02-0.49-0.06-0.73l0,0l-2.62-14.75c-0.07-0.41,0.19-0.81,0.6-0.9
					c1.57-0.38,2.75-1.75,2.83-3.43l0.43-9.16c0.01-0.05,0.01-0.1,0.01-0.15c0-0.75-0.61-1.36-1.36-1.36H479.1z"/>
				<path fill="#FFFFFF" fill-opacity="0.91" d="M491.39,54.67L491.39,54.67l-1.65-7.22c-0.44-1.94-0.67-3.91-0.67-5.9V27.14
					c0-0.93-0.76-1.69-1.69-1.69c-0.76,0-1.4,0.5-1.61,1.19l0,0l-4.72,15.5c-0.4,1.3,0.58,2.63,1.94,2.63h1.85
					c1.02,0,1.71,1.03,1.32,1.97l-3.04,7.38c-0.25,0.56-0.39,1.17-0.39,1.82c0,2.44,1.97,4.41,4.41,4.41s4.41-1.97,4.41-4.41
					C491.56,55.49,491.5,55.07,491.39,54.67L491.39,54.67z"/>
			</g>
			<path fill="#34A853" d="M463.4,101.59h-14.45c-2.21,0-4,1.79-4,4v24.36h22.45v-24.36C467.4,103.38,465.61,101.59,463.4,101.59z"
				/>
		</g>
	</g>
	<g id="Polyline">
		<path fill="#06B0FF" d="M300.08,298c-37.88,0-74.77-7.54-106.66-21.81l9.88-22.1c28.81,12.89,62.27,19.7,96.78,19.7
			c8.13,0,16.32-0.38,24.31-1.13l2.27,24.1C317.91,297.58,308.97,298,300.08,298z"/>
	</g>
</g>
</svg>
