<?xml version="1.0" encoding="utf-8"?>
<!-- Generator: Adobe Illustrator 30.0.0, SVG Export Plug-In . SVG Version: 9.03 Build 0)  -->
<svg version="1.1" baseProfile="basic" id="Layer_1"
	 xmlns="http://www.w3.org/2000/svg" xmlns:xlink="http://www.w3.org/1999/xlink" x="0px" y="0px" width="591px" height="307px"
	 viewBox="0 0 591 307" xml:space="preserve">
<g>
	<g id="Poly_Line">
		<path fill="#06B0FF" d="M300.07,297.99c-37.88,0-74.76-7.54-106.66-21.81c-28.03-12.53-51.51-30.01-67.93-50.54
			c-17.43-21.79-26.65-46.74-26.65-72.15c0-20.11,5.59-39.55,16.61-57.8c10.41-17.22,25.2-32.6,43.96-45.74
			C197.13,23.55,247.1,9,300.07,9s102.94,14.55,140.68,40.96c18.76,13.13,33.55,28.52,43.96,45.74
			c11.02,18.24,16.61,37.68,16.61,57.8c0,36.02-18.38,70.46-51.76,96.96c-31.97,25.39-75.62,41.83-122.9,46.28
			C317.9,297.56,308.95,297.98,300.07,297.99L300.07,297.99L300.07,297.99z M300.07,33.22c-24.37,0-47.99,3.33-70.19,9.9
			c-21.26,6.3-40.31,15.27-56.62,26.68c-32.4,22.67-50.23,52.39-50.23,83.7c0,10.03,1.85,20.01,5.48,29.65
			c3.59,9.49,8.92,18.71,15.86,27.38c14.02,17.53,34.39,32.59,58.91,43.56c28.81,12.89,62.27,19.7,96.77,19.7
			c8.13,0,16.32-0.39,24.31-1.13c87.07-8.19,152.72-59.41,152.72-119.15c0-31.3-17.84-61.02-50.23-83.7
			c-16.3-11.41-35.35-20.39-56.62-26.68c-22.21-6.57-45.81-9.9-70.19-9.9l0,0L300.07,33.22z"/>
		<path fill="#394EBF" d="M507.53,250.77c0,23.29-27.32,42.17-61.03,42.17s-61.03-18.88-61.03-42.17
			c0-23.29,27.32-38.17,61.03-38.17S507.53,227.48,507.53,250.77L507.53,250.77z"/>
		<ellipse fill="#394EBF" cx="480.99" cy="115.68" rx="63.49" ry="43.86"/>
		<ellipse fill="#394EC1" cx="113.02" cy="182.22" rx="61.03" ry="42.17"/>
	</g>
	<g id="Hand_00000121986601655291034930000017265082773998943679_">
		<path fill="#E08D53" d="M389.8,81.61c0-8.24-6.68-14.92-14.92-14.92c-4.66,0-8.82,2.14-11.55,5.48l0,0
			c-10.72,13.12-22.73,25.12-35.85,35.84l21,20.99c10.72-13.12,22.73-25.12,35.85-35.84l0,0C387.68,90.44,389.81,86.28,389.8,81.61
			L389.8,81.61L389.8,81.61z"/>
		<path fill="#E59A5C" d="M350.68,206.91l-38.51,4.78l-25.91,2.4c5.57-7.28,8.88-16.39,8.88-26.27c0-15.45-8.1-29.01-20.29-36.66
			c-15.97-10.15-25.7-27.71-25.84-46.63l0,0c-0.07-9.21-7.73-16.6-17.02-16.25c-8.46,0.33-15.37,7.21-15.72,15.67
			c-0.12,2.83,0.49,5.51,1.64,7.87c8.14,17.04,7.09,37.05-2.77,53.15c-4.13,6.63-6.52,14.46-6.52,22.85s2.4,16.28,6.56,22.92
			c9.53,15.46,9.86,39.94,1.88,56.79c-0.65,1.36,0.35,2.94,1.86,2.94l91.25,10.37c1.15,0,2.19,2.38,2.16,1.23
			c-0.01-0.45-0.13-4.12-0.13-4.16c0.05-4.46,0.22-25.89,9.84-33.03c11.75-8.73,38.67-20.31,43.06-35.32l-14.38-2.64l0,0
			L350.68,206.91z"/>
		<path fill="#E37400" d="M220.29,154.08c0,0-1.97-6.03,0.4-12.15c2.35-6.12,8.23-9.79,20.18-8.37c2.24,0.27,4.3,0.78,6.17,1.45
			c8.08,2.9,12.57,8.6,12.57,8.6l-10.86,14.61c0,0-1.65-2.85-5.28-5.17c-2.47-1.59-5.85-2.93-10.26-2.97
			C224.42,149.98,220.3,154.08,220.29,154.08L220.29,154.08L220.29,154.08z"/>
		<path fill="#004E41" d="M330.49,222.72l40.01-188.76c1.46-6.88-3.79-13.37-10.84-13.37h-79.12c-6.82,0-12.71,4.78-14.13,11.45
			l-36.74,173.34c-3.22,15.18,8.36,29.46,23.88,29.46h61.98C322.76,234.84,328.99,229.79,330.49,222.72L330.49,222.72L330.49,222.72
			z"/>
		<path fill="#15173D" d="M234.37,207.95c-1.21,5.69,3.14,11.05,8.96,11.05h69.46c3.3,0,6.14-2.3,6.82-5.53L349.42,72.8h-86.41
			L234.37,207.95L234.37,207.95L234.37,207.95z"/>
		<path fill="#4766F4" d="M352.97,26.87h-69.32c-6.35,0-11.84,4.44-13.15,10.66l-7.48,35.28h86.41l8.45-39.88
			C358.55,29.8,356.17,26.87,352.97,26.87L352.97,26.87z"/>
		<path fill="#2F3793" d="M330.26,101.81h-29.96c-2.47,0-4.03-2.05-3.49-4.58l0,0c0.55-2.53,2.99-4.59,5.47-4.59h30.03
			c2.47,0,4.02,2.06,3.46,4.59l0,0C335.2,99.77,332.74,101.81,330.26,101.81L330.26,101.81z"/>
		<path fill="#003439" d="M322.92,63.53h-29.96c-2.47,0-4.03-2.05-3.49-4.58l0,0c0.55-2.53,2.99-4.59,5.47-4.59h30.03
			c2.47,0,4.02,2.06,3.46,4.59l0,0C327.86,61.48,325.4,63.53,322.92,63.53L322.92,63.53L322.92,63.53z"/>
		<path fill="#2F3793" d="M332.33,107.09H295.9c-0.68,0-1.09-0.56-0.95-1.24l0,0c0.15-0.69,0.81-1.24,1.48-1.24h36.45
			c0.68,0,1.09,0.56,0.94,1.24l0,0C333.67,106.54,333,107.09,332.33,107.09L332.33,107.09L332.33,107.09z"/>
		<path fill="#2F3793" d="M319.97,148.41h-29.68c-2.44,0-3.99-2.01-3.47-4.49l0,0c0.54-2.48,2.96-4.5,5.41-4.5h29.74
			c2.45,0,3.98,2.02,3.43,4.5l0,0C324.85,146.4,322.42,148.41,319.97,148.41L319.97,148.41L319.97,148.41z"/>
		<path fill="#2F3793" d="M322.03,153.59h-36.08c-0.67,0-1.09-0.55-0.94-1.22l0,0c0.14-0.68,0.8-1.22,1.47-1.22h36.1
			c0.67,0,1.08,0.55,0.93,1.22l0,0C323.36,153.04,322.7,153.59,322.03,153.59L322.03,153.59L322.03,153.59z"/>
		<path fill="#2F3793" d="M309.1,198.49h-29.41c-2.42,0-3.96-1.97-3.45-4.41l0,0c0.53-2.43,2.92-4.42,5.35-4.42h29.47
			c2.43,0,3.95,1.98,3.41,4.42l0,0C313.93,196.51,311.51,198.49,309.1,198.49L309.1,198.49z"/>
		<path fill="#2F3793" d="M311.16,203.57h-35.74c-0.66,0-1.08-0.54-0.93-1.19l0,0c0.14-0.66,0.79-1.19,1.45-1.19h35.76
			c0.66,0,1.07,0.54,0.92,1.19l0,0C312.47,203.03,311.81,203.57,311.16,203.57L311.16,203.57z"/>
		<polygon fill="#06B0FF" points="259.88,197.71 251.75,197.71 272.78,97.05 281.12,97.05 		"/>
		<path fill="#394EC1" d="M288.16,99.88c-1.41,6.62-7.8,11.98-14.27,11.98s-10.61-5.35-9.24-11.98c1.37-6.64,7.78-12.05,14.28-12.05
			C285.43,87.84,289.57,93.24,288.16,99.88L288.16,99.88L288.16,99.88z"/>
		<path fill="#394EC1" d="M278.25,146.52c-1.38,6.5-7.7,11.75-14.11,11.75c-6.42,0-10.52-5.25-9.18-11.75
			c1.35-6.52,7.68-11.82,14.12-11.82C275.53,134.7,279.63,140,278.25,146.52L278.25,146.52z"/>
		<path fill="#394EC1" d="M267.78,196.63c-1.36,6.38-7.61,11.53-13.95,11.53c-6.35,0-10.43-5.15-9.12-11.53
			c1.32-6.4,7.58-11.6,13.97-11.6S269.14,190.23,267.78,196.63L267.78,196.63z"/>
		<path fill="#DF8D54" d="M370.97,146.05L370.97,146.05c0,0-0.02-0.01-0.02-0.02c-0.02-0.02-0.05-0.03-0.07-0.05
			c-11.1-6.86-20.48-16.18-27.4-27.23l0,0c-2.69-4.29-7.47-7.15-12.91-7.15c-8.41,0-15.23,6.82-15.23,15.23
			c0,4.33,1.81,8.23,4.71,11.01l0,0l30.67,30.19c2.77,3.77,7.24,6.22,12.28,6.22c8.41,0,15.23-6.82,15.23-15.23
			C378.22,153.54,375.32,148.73,370.97,146.05L370.97,146.05L370.97,146.05z"/>
		<path fill="#E29359" d="M361.14,167.89c-12.08-4.64-22.97-11.91-31.9-21.27l0,0c-2.77-2.91-6.69-4.73-11.03-4.73
			c-8.41,0-15.23,6.82-15.23,15.23c0,5.17,2.58,9.74,6.53,12.5l0,0c0.17,0.12,0.35,0.24,0.53,0.35l36.87,24.57
			c2.49,1.78,5.53,2.82,8.83,2.82c8.41,0,15.23-6.82,15.23-15.23C370.96,175.63,366.88,170.07,361.14,167.89L361.14,167.89
			L361.14,167.89z"/>
		<path fill="#E59B5D" d="M352.7,190.15L352.7,190.15c-8.04-0.96-15.72-3.9-22.36-8.55l0,0c-2.47-1.74-5.49-2.76-8.74-2.76
			c-8.41,0-15.23,6.82-15.23,15.23c0,6.18,3.67,11.49,8.96,13.88h0.02c0.57,0.27,1.15,0.5,1.75,0.68l27.1,10.33
			c0.81,0.41,1.68,0.73,2.57,0.98l0,0c1.31,0.37,2.69,0.57,4.13,0.57c8.41,0,15.23-6.82,15.23-15.23
			C366.14,197.47,360.28,191.05,352.7,190.15L352.7,190.15L352.7,190.15z"/>
		<path fill="#FFC8A0" d="M330.88,113.92c-1.72,0.61-3.23,1.9-3.86,3.6c-0.73,1.96-0.26,4.16,0.51,6.1c1.4,3.54,3.73,6.61,6.24,9.48
			c1.76,2.02,3.68,4,6.13,5.07c2.45,1.07,5.56,1.03,7.57-0.74c1.1-0.98,1.76-2.37,2.24-3.77c0.56-1.58,0.93-3.21,1.14-4.87
			c-2.69-3.16-5.15-6.5-7.37-10.04l0,0c-1.18-1.88-2.76-3.49-4.63-4.7C336.29,113.21,333.63,112.94,330.88,113.92
			C330.88,113.92,330.88,113.92,330.88,113.92z"/>
		<path fill="#FFC8A0" d="M314.75,148.23c-1.05,3.58,0.22,7.51,2.42,10.53c2.19,3.02,5.22,5.29,8.16,7.6
			c1.69,1.32,3.53,2.73,5.67,2.82c0.98,0.04,1.97-0.21,2.88-0.58c4.44-1.78,7.42-6.4,7.77-11.18c-4.46-3.19-8.62-6.79-12.41-10.77
			l0,0c-2.21-2.31-5.14-3.94-8.44-4.5c-2.85,0.87-5.2,3.24-6.05,6.11l0,0V148.23z"/>
		<path fill="#FFC8A0" d="M314.37,184.19c-0.96,3.51,0.4,7.39,2.89,10.04c2.49,2.65,5.97,4.2,9.51,5.02
			c3.34,0.77,7.24,0.82,9.76-1.5c1.06-0.97,1.76-2.27,2.33-3.59c0.85-1.97,1.47-4.05,1.84-6.17c0.04-0.26,0.08-0.53,0.11-0.79
			c-3.69-1.43-7.21-3.3-10.48-5.59l0,0c-2.47-1.74-5.49-2.76-8.74-2.76c-0.91,0-1.8,0.08-2.66,0.24
			C316.79,179.94,315.07,181.69,314.37,184.19L314.37,184.19L314.37,184.19z"/>
	</g>
	<g id="Objects_00000124120614095974486220000003933228148726793906_">
		<path fill="#4285F4" d="M153.65,159.15c-1.39-5.28-1.6-10.79-0.62-16.17c0.17-0.84,0.32-1.7,0.44-2.55
			c-0.18,0.73-0.43,1.45-0.73,2.16c-0.86,2.02-2.22,3.93-4,5.69c-6.07,6.04-16.98,10.35-29.81,11.31h-10.8
			c-12.83-0.95-23.75-5.27-29.81-11.31c-1.78-1.77-3.13-3.67-4-5.69c-0.31-0.71-0.55-1.43-0.73-2.16c0.12,0.85,0.26,1.71,0.44,2.55
			c0.64,3.47,0.77,7,0.42,10.49c-2.92-2.2-6.55-3.52-10.5-3.52c-9.62,0-17.42,7.81-17.42,17.42s7.81,17.42,17.42,17.42
			c3.46,0,6.68-1.01,9.4-2.75c4.94,17.57,21.06,30.45,40.2,30.45c23.06,0,41.76-18.69,41.76-41.76
			C155.29,166.71,154.73,162.82,153.65,159.15L153.65,159.15L153.65,159.15z M63.93,173.54c-3.42,0-6.18-2.76-6.18-6.18
			c0-3.42,2.76-6.18,6.18-6.18c3.42,0,6.18,2.76,6.18,6.18C70.11,170.78,67.35,173.54,63.93,173.54z"/>
		<path fill="#4285F4" d="M113.53,131.02c15.24,0,28.72,6.11,36.86,15.44c0.99-1.23,1.79-2.53,2.36-3.87
			c0.31-0.71,0.55-1.43,0.73-2.16c0.18-1.3,0.3-2.63,0.35-3.97c-0.82-12-18.55-21.58-40.29-21.58s-39.47,9.58-40.29,21.58
			c0.05,1.34,0.17,2.66,0.35,3.97c0.18,0.73,0.43,1.45,0.73,2.16c0.58,1.34,1.37,2.63,2.36,3.87c8.13-9.33,21.6-15.44,36.86-15.44
			l0,0H113.53z"/>
		<path fill="#713700" d="M108.13,159.59h10.8c12.83-0.95,23.75-5.27,29.81-11.31c0.6-0.6,1.14-1.2,1.64-1.83
			c-8.13-9.33-21.6-15.44-36.86-15.44s-28.72,6.11-36.86,15.44c0.5,0.63,1.04,1.23,1.64,1.83
			C84.37,154.31,95.29,158.62,108.13,159.59L108.13,159.59L108.13,159.59z"/>
		<path fill="#394EC1" d="M97.66,103.68L97.66,103.68c-1.94-0.65-3.46-2.15-4.1-4.09l0,0c-2.13-6.31-8.07-10.84-15.1-10.84
			c-0.23,0-0.47,0-0.7,0.02l0,0c-3.91,0.17-7.68-1.5-10.17-4.52l0,0c-2.12-2.56-5.32-4.19-8.9-4.19c-6.38,0-11.55,5.17-11.55,11.55
			c0,5.23,3.49,9.65,8.26,11.07c3.7,1.1,6.69,3.86,8.08,7.47c2.23,6.11,8.09,10.46,14.97,10.46c1.29,0,2.55-0.16,3.76-0.45l0,0
			c1.98-0.48,4.07,0,5.65,1.28l0,0c1.78,1.45,4.05,2.32,6.52,2.32c5.69,0,10.31-4.61,10.31-10.31
			C104.71,108.9,101.76,105.04,97.66,103.68L97.66,103.68L97.66,103.68z"/>
		<path fill="#394EC1" d="M81.65,52.5c-1.65-0.18-3.08-0.55-3.77-2.48c-1.72-4.85-6.75-7.87-11.97-6.9
			c-5.78,1.07-9.6,6.62-8.54,12.4c0.84,4.55,4.47,7.89,8.79,8.58c3.01,0.48,2.99,3.34,3.83,5.62c2.12,5.74,8.23,9.21,14.24,8.09
			c6.9-1.28,11.47-7.91,10.2-14.82c-0.68-3.63-3.04-6.86-6.29-8.71c-1.67-0.95-3.55-1.53-5.46-1.71c-0.36-0.03-0.7-0.06-1.03-0.1
			l0,0V52.5z"/>
		<path d="M483.09,249.83c-5.57,0-10.09,4.52-10.09,10.09c0,5.57,4.52,10.09,10.09,10.09c5.57,0,10.09-4.52,10.09-10.09
			C493.18,254.35,488.66,249.83,483.09,249.83z M483.09,263.64c-2.06,0-3.71-1.67-3.71-3.71c0-2.05,1.67-3.71,3.71-3.71
			s3.71,1.67,3.71,3.71C486.8,261.97,485.14,263.64,483.09,263.64z"/>
		<path d="M451.8,249.83c-5.57,0-10.09,4.52-10.09,10.09c0,5.57,4.52,10.09,10.09,10.09c5.57,0,10.09-4.52,10.09-10.09
			C461.89,254.35,457.37,249.83,451.8,249.83z M451.8,263.64c-2.06,0-3.71-1.67-3.71-3.71c0-2.05,1.67-3.71,3.71-3.71
			s3.71,1.67,3.71,3.71C455.51,261.97,453.84,263.64,451.8,263.64z"/>
		
			<linearGradient id="SVGID_1_" gradientUnits="userSpaceOnUse" x1="452.7101" y1="960.5053" x2="452.7101" y2="1021.8069" gradientTransform="matrix(1 0 0 1 0 -772)">
			<stop  offset="0.14" style="stop-color:#F29900"/>
			<stop  offset="0.92" style="stop-color:#FBBC04"/>
		</linearGradient>
		<path fill="url(#SVGID_1_)" d="M502.78,196.15h-67.43c-2.3,0-4.34-1.5-5.02-3.7l-0.36-1.16l-1.97-6.39
			c-1.28-4.16-5.11-6.99-9.46-6.99h-15.52c-4.4,0-7.54,4.25-6.25,8.46l0.43,1.37c0.65,2.11,2.6,3.56,4.81,3.56h7.86
			c3.03,0,5.7,1.98,6.58,4.87l15.09,49.13c0.82,2.7,3.33,4.55,6.16,4.55h53.78c2.51,0,4.55-2.04,4.55-4.55l0,0
			c0.82-2.68-1.18-5.4-3.99-5.4h-42.5c-2.38,0-4.32-1.94-4.32-4.32l0,0c0-2.38,1.94-4.32,4.32-4.32h45.71
			c3.02,0,5.69-1.98,6.58-4.87l6.83-22.26C509.87,200.16,506.92,196.16,502.78,196.15L502.78,196.15L502.78,196.15z"/>
		<path fill="#003439" d="M416.9,229.1c-0.84-1.24-1.76-2.46-2.96-3.37s-2.72-1.47-4.21-1.24c-2.76,0.43-4.5,3.59-4.08,6.36
			c0.42,2.76,2.46,5.04,4.8,6.58c2.33,1.55,4.99,2.51,7.47,3.8c0.91,0.48,1.82,1,2.65,1.61c0.67,0.49,1.57,1.79,2.27,2.07
			c1.94,0.77,0.26-3.1-0.08-4.08C421.33,236.68,419.35,232.73,416.9,229.1L416.9,229.1L416.9,229.1z"/>
		<path fill="#A07043" d="M425.52,244.58c-1.68-4.99-2.14-10.31-1.34-15.51l0,0c0.02-0.1,0.03-0.21,0.03-0.31
			c0-1.13-0.92-2.06-2.06-2.06c-1.13,0-2.06,0.92-2.06,2.06c0,0.29,0.06,0.57,0.17,0.8c2.07,4.84,2.94,10.1,2.56,15.35
			L425.52,244.58L425.52,244.58L425.52,244.58z"/>
		<path fill="#E37400" d="M437.74,240.26c-2.05,0-3.99,0.49-5.74,1.35l0,0c-5.67,2.8-12.2,2.8-17.87,0l0,0
			c-1.75-0.86-3.69-1.35-5.74-1.35c-7.61,0-13.78,6.66-13.78,14.88c0,8.21,6.17,14.88,13.78,14.88c2.05,0,3.99-0.49,5.74-1.35l0,0
			c5.67-2.8,12.2-2.8,17.87,0l0,0c1.75,0.86,3.69,1.35,5.74,1.35c7.61,0,13.78-6.66,13.78-14.88
			C451.53,246.93,445.36,240.26,437.74,240.26z"/>
		<rect x="431.1" y="90.12" fill="#009E7C" width="98.66" height="39.83"/>
		<path fill="#003439" d="M446.79,50.26h-10.55c-1.74,0-3.29,1.11-3.82,2.77l-10.49,31.79c-0.86,2.61,1.08,5.29,3.82,5.29h11.62
			L446.79,50.26L446.79,50.26L446.79,50.26z"/>
		<polygon fill="#005B5B" points="460.25,50.26 446.79,50.26 437.37,90.12 454.57,90.12 		"/>
		<polygon fill="#003439" points="473.71,50.26 460.25,50.26 454.57,90.12 471.76,90.12 		"/>
		<polygon fill="#005B5B" points="487.17,50.26 473.71,50.26 471.76,90.12 488.95,90.12 		"/>
		<polygon fill="#003439" points="500.64,50.26 487.17,50.26 488.95,90.12 506.14,90.12 		"/>
		<polygon fill="#005B5B" points="514.1,50.26 500.64,50.26 506.14,90.12 523.32,90.12 		"/>
		<path fill="#003439" d="M524.63,50.26H514.1l9.23,39.86h11.64c2.74,0,4.69-2.67,3.83-5.28l-10.34-31.79
			C527.92,51.39,526.37,50.26,524.63,50.26L524.63,50.26L524.63,50.26z"/>
		<path fill="#A07043" d="M520.38,129.79c-2.58-0.42-5.23,0.5-5.93,2.06c-0.12,0.26-0.17,0.53-0.17,0.78v-0.02v7.73
			c0,1.28,1.42,2.46,3.58,2.81c2.58,0.42,5.23-0.5,5.93-2.06c0.11-0.25,0.17-0.51,0.17-0.75v-7.73l0,0
			C523.97,131.33,522.55,130.14,520.38,129.79L520.38,129.79L520.38,129.79z M515.04,134.17
			C515.04,134.17,515.04,134.17,515.04,134.17C515.03,134.16,515.03,134.16,515.04,134.17z M514.86,133.98c0,0-0.02-0.02-0.03-0.03
			C514.84,133.96,514.85,133.97,514.86,133.98z M514.69,133.76c0,0-0.02-0.02-0.03-0.04C514.67,133.73,514.68,133.75,514.69,133.76z
			 M514.29,132.82v0.02V132.82z M514.54,133.53c0,0,0-0.01,0-0.02C514.54,133.51,514.54,133.52,514.54,133.53z M514.43,133.32
			c0,0-0.01-0.02-0.01-0.03C514.42,133.3,514.43,133.31,514.43,133.32z M514.35,133.09c0,0,0-0.03-0.01-0.04
			C514.34,133.06,514.34,133.08,514.35,133.09z M515.24,134.33c0,0,0.03,0.02,0.04,0.03C515.27,134.35,515.25,134.34,515.24,134.33z
			 M517.05,135.23c0,0,0.04,0.01,0.06,0.02C517.09,135.25,517.07,135.24,517.05,135.23z M515.5,134.52c0,0,0.03,0.02,0.04,0.03
			C515.53,134.54,515.51,134.53,515.5,134.52z M515.77,134.69C515.77,134.69,515.77,134.69,515.77,134.69
			C515.78,134.69,515.78,134.69,515.77,134.69z M516.04,134.84c0,0,0.03,0.02,0.05,0.03C516.07,134.86,516.06,134.85,516.04,134.84z
			 M516.37,134.99c0,0,0.04,0.01,0.05,0.02C516.4,135.01,516.38,135,516.37,134.99z M516.73,135.12L516.73,135.12L516.73,135.12z
			 M517.44,135.33c0,0,0.04,0.01,0.06,0.01C517.48,135.34,517.46,135.33,517.44,135.33z M523.94,132.8c0,0,0-0.02,0-0.03
			C523.94,132.78,523.94,132.79,523.94,132.8z M523.85,133.18c0,0,0.01-0.03,0.02-0.05C523.87,133.15,523.86,133.16,523.85,133.18z
			 M523.9,133c0,0,0.01-0.04,0.01-0.05C523.91,132.97,523.91,132.99,523.9,133z"/>
		
			<ellipse transform="matrix(1 -0.002754345 0.002754345 1 -0.3262 1.4305)" fill="#33CA98" cx="519.2" cy="119.13" rx="16.49" ry="16.48"/>
		<ellipse fill="#33CA98" cx="480.35" cy="42.57" rx="26" ry="26"/>
		<path fill="#131314" d="M479.1,25.46c-0.75,0-1.36,0.61-1.36,1.36c0,0.06,0,0.12,0.01,0.18l0.42,5.62c0.05,0.7-0.5,1.29-1.2,1.29
			l0,0c-0.7,0-1.25-0.6-1.2-1.29l0.42-5.62c0-0.06,0.01-0.12,0.01-0.18c0-0.75-0.61-1.36-1.36-1.36s-1.36,0.61-1.36,1.36
			c0,0.06,0,0.12,0.01,0.18l0.42,5.58c0.05,0.71-0.49,1.33-1.19,1.33s-1.25-0.6-1.2-1.29l0.42-5.62c0-0.06,0.01-0.12,0.01-0.18
			c0-0.75-0.61-1.36-1.36-1.36s-1.36,0.61-1.36,1.36c0,0.05,0,0.1,0.01,0.15l0.43,9.16c0.08,1.66,1.23,3.02,2.76,3.42
			c0.39,0.1,0.64,0.5,0.57,0.89l-2.6,14.78l0,0c-0.04,0.24-0.06,0.48-0.06,0.72c0,2.46,2,4.46,4.46,4.46c2.46,0,4.46-2,4.46-4.46
			c0-0.25-0.02-0.49-0.06-0.72l0,0l-2.61-14.75c-0.07-0.42,0.19-0.8,0.6-0.9c1.57-0.38,2.75-1.76,2.83-3.44l0.43-9.16
			c0-0.05,0.01-0.1,0.01-0.15c0-0.75-0.61-1.36-1.36-1.36h-0.01H479.1z"/>
		<path fill="#131314" d="M491.38,54.68L491.38,54.68l-1.65-7.22c-0.45-1.94-0.67-3.91-0.67-5.9V27.15c0-0.93-0.75-1.69-1.69-1.69
			c-0.75,0-1.4,0.5-1.61,1.19l0,0l-4.72,15.5c-0.4,1.3,0.58,2.62,1.95,2.62h1.85c1.01,0,1.71,1.03,1.32,1.97l-3.04,7.38
			c-0.25,0.56-0.4,1.17-0.4,1.82c0,2.43,1.98,4.41,4.41,4.41c2.43,0,4.41-1.98,4.41-4.41C491.55,55.5,491.49,55.08,491.38,54.68
			L491.38,54.68L491.38,54.68z"/>
		<path fill="#003439" d="M463.4,101.59h-14.45c-2.2,0-3.99,1.79-3.99,3.99v24.36h22.45v-24.36
			C467.4,103.38,465.61,101.59,463.4,101.59L463.4,101.59z"/>
	</g>
	<g id="Polyline_00000029753542351476636830000003566287413474484873_">
		<path fill="#06B0FF" d="M300.07,297.99c-37.88,0-74.76-7.54-106.66-21.81l9.88-22.1c28.81,12.89,62.27,19.7,96.78,19.7
			c8.13,0,16.32-0.39,24.31-1.13l2.27,24.1C317.91,297.58,308.96,298,300.07,297.99L300.07,297.99z"/>
	</g>
</g>
</svg>
