<?xml version="1.0" encoding="utf-8"?>
<!-- Generator: Adobe Illustrator 30.0.0, SVG Export Plug-In . SVG Version: 9.03 Build 0)  -->
<svg version="1.1" baseProfile="basic" id="Layer_1"
	 xmlns="http://www.w3.org/2000/svg" xmlns:xlink="http://www.w3.org/1999/xlink" x="0px" y="0px" width="91px" height="63px"
	 viewBox="0 0 91 63" xml:space="preserve">
<g>
	<g id="Pattern">
		<path fill="#005B5B" d="M71.01,61H19.99c-8.45,0-15.3-6.85-15.3-15.3V27.33c0-8.45,6.85-15.3,15.3-15.3h51.01
			c8.45,0,15.3,6.85,15.3,15.3V45.7C86.31,54.15,79.46,61,71.01,61z"/>
	</g>
	<g id="Bell_00000013188231472660724440000007582120619161173424_">
		<g>
			<path fill="#FBBC04" d="M45.1,4.84c-1.23,0.67-1.86,2.01-1.36,2.92c0.5,0.91,1.96,1.12,3.19,0.44c1.23-0.67,1.86-2.01,1.36-2.92
				C47.79,4.37,46.33,4.17,45.1,4.84 M44,2.83c2.37-1.29,5.19-0.68,6.3,1.36c1.11,2.04,0.09,4.74-2.28,6.03
				c-2.37,1.29-5.19,0.68-6.3-1.36C40.62,6.81,41.64,4.11,44,2.83L44,2.83z"/>
			<path fill="#FDDB00" d="M44.63,42.38L44.63,42.38c1.84-3.91,1.34-8.52-1.29-11.94c-0.46-0.59-0.89-1.23-1.26-1.92
				c-3.68-6.77-1.18-15.25,5.59-18.93h0h0c6.77-3.68,15.25-1.18,18.93,5.59c0.37,0.68,0.68,1.39,0.93,2.1
				c1.45,4.07,5.05,6.99,9.33,7.57v0c2.25,0.31,4.34,1.65,5.51,3.8c1.96,3.6,0.63,8.1-2.97,10.05L54.88,52.04
				c-3.6,1.96-8.1,0.63-10.05-2.97C43.66,46.91,43.66,44.44,44.63,42.38z"/>
			
				<ellipse transform="matrix(0.8785 -0.4778 0.4778 0.8785 -12.2664 36.436)" fill="#15173D" cx="65.49" cy="42.33" rx="19.53" ry="5.37"/>
			
				<linearGradient id="SVGID_1_" gradientUnits="userSpaceOnUse" x1="56.6648" y1="-8734.2275" x2="73.4374" y2="-8763.2783" gradientTransform="matrix(1 0 0 -1 0 -8707.0957)">
				<stop  offset="0" style="stop-color:#F29900"/>
				<stop  offset="1" style="stop-color:#FDDB00"/>
			</linearGradient>
			<path fill="url(#SVGID_1_)" d="M59.45,39.61c1.08-0.66,2.24-1.32,3.48-1.99c1.23-0.67,2.42-1.28,3.56-1.84
				c2.09,1,4.23,2.77,5.46,5.03c0.31,0.57,0.57,1.13,0.77,1.68c0.19,0.53,0.34,1.05,0.43,1.55c0.56,2.94-0.52,5.41-3.04,6.78
				c-2.52,1.37-5.18,0.94-7.34-1.13c-0.37-0.35-0.72-0.75-1.05-1.19c-0.36-0.47-0.7-1-1.01-1.58
				C59.48,44.67,59.15,41.91,59.45,39.61z"/>
			<g>
				<path fill="#FBBC04" d="M80.11,21.73l1.79-0.65c0.84-0.3,1.24-1.26,0.87-2.07c-1.22-2.66-2.92-5.12-5.06-7.25
					c-2.6-2.6-5.67-4.55-9.02-5.79c-0.83-0.31-1.74,0.16-1.99,1.01l-0.53,1.83c-0.23,0.77,0.18,1.58,0.93,1.86
					c4.9,1.85,8.89,5.56,11.1,10.27C78.53,21.66,79.36,22,80.11,21.73z"/>
			</g>
			<g>
				<path fill="#FBBC04" d="M79.07,10.4c1.01,1.01,1.92,2.08,2.75,3.21c0.48,0.65,1.37,0.82,2.05,0.39l1.59-1.01
					c0.75-0.47,0.94-1.48,0.42-2.19c-0.99-1.38-2.1-2.68-3.32-3.9c-1.8-1.8-3.79-3.37-5.94-4.68c-0.75-0.46-1.72-0.19-2.14,0.58
					l-0.9,1.66c-0.39,0.71-0.15,1.61,0.54,2.03C75.9,7.58,77.56,8.89,79.07,10.4z"/>
			</g>
		</g>
	</g>
	<g id="Arrow_00000041263018444062913720000013095419668229950104_">
		<path fill="#FFFFFF" d="M30.41,34.56H16.78l9.08-9.08c0.29-0.29,0.29-0.76,0-1.05l-1.58-1.58c-0.29-0.29-0.76-0.29-1.05,0
			L10.19,35.89c-0.29,0.29-0.29,0.76,0,1.05l13.04,13.04c0.29,0.29,0.76,0.29,1.05,0l1.58-1.58c0.29-0.29,0.29-0.76,0-1.05
			l-9.08-9.08h13.63c3.08,0,5.58,2.5,5.58,5.58v4.59c0,0.41,0.33,0.74,0.74,0.74h2.23c0.41,0,0.74-0.33,0.74-0.74v-4.59
			C39.71,38.72,35.55,34.56,30.41,34.56z"/>
	</g>
</g>
</svg>
