<svg width="20" height="20" viewBox="0 0 20 20" fill="none" xmlns="http://www.w3.org/2000/svg"><g clip-path="url(#a)"><path d="M10 20c5.523 0 10-4.477 10-10S15.523 0 10 0 0 4.477 0 10s4.477 10 10 10z" fill="#fff"/><path d="M10.014 2.613a7.387 7.387 0 1 0-.001 14.775 7.387 7.387 0 0 0 0-14.775zM14.78 10a4.768 4.768 0 0 1-9.533 0 4.767 4.767 0 0 1 9.533 0z" fill="#1C3F94"/><path d="M19.09 8.219H.91v3.636h18.18V8.22z" fill="#1C3F94"/></g><defs><clipPath id="a"><path fill="#fff" d="M0 0h20v20H0z"/></clipPath></defs></svg>