<?xml version="1.0" encoding="utf-8"?>
<!-- Generator: Adobe Illustrator 30.0.0, SVG Export Plug-In . SVG Version: 9.03 Build 0)  -->
<svg version="1.1" baseProfile="basic" id="Layer_1"
	 xmlns="http://www.w3.org/2000/svg" xmlns:xlink="http://www.w3.org/1999/xlink" x="0px" y="0px" width="179px" height="132px"
	 viewBox="0 0 179 132" xml:space="preserve">
<g>
	<g id="Road_00000098189032991584260180000004361520729985407671_">
		<path fill="#2E3B6D" d="M72.47,110.97c24.84,0,44.97-20.13,44.97-44.97c0,15.43-12.51,27.94-27.94,27.94S61.56,81.43,61.56,66
			c0-24.84,20.13-44.97,44.97-44.97c21.86,0,40.27,15.6,44.36,36.28C146.66,27.18,120.79,4,89.5,4c-34.24,0-62,27.76-62,62
			C27.5,90.84,47.64,110.97,72.47,110.97z"/>
		<path fill="#06B0FF" d="M151.5,66c0-2.95-0.21-5.85-0.61-8.7c-4.1-20.67-22.5-36.28-44.36-36.28c-24.84,0-44.97,20.13-44.97,44.97
			c0-15.43,12.51-27.94,27.94-27.94S117.45,50.57,117.45,66c0,24.84-20.13,44.97-44.97,44.97S27.5,90.84,27.5,66
			c0,34.24,27.76,62,62,62S151.5,100.24,151.5,66z"/>
		<path opacity="0.4" fill="#C58DFF" d="M96.41,27.99c5.24,0,10.34,1.18,15.18,3.52l-1.42,2.75c-4.39-2.11-9.01-3.17-13.76-3.17
			c-0.19,0-0.38,0-0.57,0.01L95.68,28C95.92,27.99,96.16,27.99,96.41,27.99L96.41,27.99L96.41,27.99z M124.43,41.45
			c3.49,4.03,6.31,8.8,8.22,13.92l-2.92,1.02c-1.78-4.73-4.38-9.14-7.59-12.86L124.43,41.45z M135.63,71.28
			c0,0.23,0.01,0.45,0.01,0.67c0,5.28-0.81,10.41-2.42,15.27l-2.91-1.04c1.49-4.53,2.25-9.31,2.25-14.24c0-0.19,0-0.37,0-0.56
			L135.63,71.28z M125.58,101.49c-3.23,4.17-7.15,7.88-11.69,11.06l-1.73-2.56c4.24-2.98,7.91-6.45,10.93-10.34L125.58,101.49z"/>
		
			<linearGradient id="SVGID_1_" gradientUnits="userSpaceOnUse" x1="105.9953" y1="4872.9263" x2="73.0909" y2="4926.396" gradientTransform="matrix(1 0 0 -1 0 4968)">
			<stop  offset="0" style="stop-color:#287EF5;stop-opacity:0"/>
			<stop  offset="1" style="stop-color:#287EF5"/>
		</linearGradient>
		<path fill="url(#SVGID_1_)" d="M151.5,66c0-2.95-0.21-5.85-0.61-8.7c-4.1-20.67-22.5-36.28-44.36-36.28
			c-24.84,0-44.97,20.13-44.97,44.97c0-15.43,12.51-27.94,27.94-27.94S117.45,50.57,117.45,66c0,24.84-20.13,44.97-44.97,44.97
			S27.5,90.84,27.5,66c0,34.24,27.76,62,62,62S151.5,100.24,151.5,66z"/>
		<g>
			<path fill="#5070A8" d="M79.92,14.94c4.7-1.71,9.67-2.89,14.79-3.5l-0.32-3.08C88.99,9,83.76,10.24,78.81,12.05L79.92,14.94z"/>
			<path fill="#5070A8" d="M110.18,11.31c4.24,0.42,8.47,1.23,12.63,2.39c-3.19-2.03-6.57-3.78-10.12-5.21
				c-0.75-0.1-1.5-0.18-2.24-0.26L110.18,11.31z"/>
			<path fill="#5070A8" d="M45.85,60.61c0-0.19,0-0.37,0-0.56c0-4.93,0.76-9.71,2.25-14.24l-2.91-1.04
				c-1.61,4.86-2.42,9.99-2.42,15.27c0,0.22,0,0.45,0.01,0.67L45.85,60.61z"/>
			<path fill="#5070A8" d="M66.23,22.01l-1.73-2.56c-4.54,3.17-8.46,6.89-11.69,11.06l2.48,1.84
				C58.32,28.46,61.99,24.99,66.23,22.01z"/>
			<path fill="#5070A8" d="M82,104c0.24,0,0.48,0,0.72-0.01l-0.16-3.09c-0.19,0-0.38,0.01-0.57,0.01c-4.74,0-9.37-1.07-13.76-3.17
				l-1.42,2.75C71.64,102.82,76.74,104,82,104L82,104L82,104z"/>
			<path fill="#5070A8" d="M45.75,76.62c1.91,5.12,4.73,9.89,8.22,13.92l2.29-2.08c-3.21-3.72-5.81-8.13-7.59-12.86L45.75,76.62z"/>
		</g>
	</g>
	<g id="Pin_00000179634699406114413160000006099680716629851780_">
		<path fill="#FFFFFF" d="M109.21,107.15c-0.15,0-0.31,0-0.47,0.01c-4.29,0.22-8.76,3.43-10.17,7.3c-0.73,2-0.56,3.93,0.49,5.42
			c1.08,1.54,2.9,2.38,5.14,2.38c0.15,0,0.31,0,0.47-0.01c4.29-0.22,8.76-3.43,10.17-7.3c0.73-2,0.56-3.93-0.49-5.42
			C113.28,107.99,111.45,107.15,109.21,107.15L109.21,107.15z"/>
		<path fill="#FF4365" d="M126.81,60.64c-2.84-5.47-7.72-9.59-13.6-11.46c-4.4-1.35-9.07-1.42-13.5-0.14
			c-4.43,1.28-8.34,3.84-11.32,7.37c-3.53,4.19-5.43,9.48-5.43,14.95c-0.03,3.81,0.73,7.61,2.28,11.08
			c2.42,5.33,6.44,9.62,10.59,15.02c1.32,1.76,2.63,3.6,3.95,5.61c4.71,7.27,3.39,11.66,6.44,11.66s1.73-4.36,6.44-11.66
			c7.75-12.11,16.79-17.62,16.79-31.74C129.44,67.6,128.54,63.93,126.81,60.64z M115.04,72.51c-0.08,0.63-0.23,1.24-0.45,1.83
			c-1.23,3.44-4.52,5.9-8.38,5.9c-3.72,0-6.91-2.29-8.24-5.53c-0.04-0.09-0.07-0.18-0.11-0.27c-0.01-0.02-0.02-0.04-0.02-0.06
			c-0.14-0.39-0.26-0.79-0.34-1.2c-0.01-0.02-0.01-0.04-0.01-0.06c-0.03-0.13-0.05-0.26-0.07-0.4c0-0.01,0-0.01,0-0.01
			c-0.02-0.13-0.03-0.26-0.05-0.38c-0.01-0.05-0.01-0.09-0.01-0.14c-0.01-0.1-0.02-0.19-0.02-0.29c0-0.04-0.01-0.08-0.01-0.12
			c-0.01-0.13-0.01-0.26-0.01-0.39c0-0.01,0-0.02,0-0.04c0-0.02,0-0.04,0-0.06c0-0.13,0-0.26,0.01-0.39c0-0.01,0-0.01,0-0.02
			c0.01-0.23,0.03-0.47,0.06-0.7c0.08-0.63,0.23-1.24,0.45-1.83c1.23-3.44,4.52-5.9,8.38-5.9c3.72,0,6.91,2.29,8.24,5.54
			c0.04,0.09,0.07,0.18,0.11,0.27c0.01,0.02,0.02,0.04,0.02,0.06c0.14,0.39,0.26,0.79,0.34,1.2c0.01,0.02,0.01,0.04,0.01,0.07
			c0.03,0.13,0.05,0.26,0.07,0.4c0,0.01,0,0.01,0,0.01c0.02,0.13,0.03,0.26,0.05,0.38c0.01,0.05,0.01,0.09,0.01,0.14
			c0.01,0.1,0.02,0.19,0.02,0.29c0,0.04,0.01,0.08,0.01,0.12c0.01,0.13,0.01,0.26,0.01,0.39c0,0.01,0,0.02,0,0.04
			c0,0.02,0,0.04,0,0.06c0,0.13,0,0.26-0.01,0.39c0,0.01,0,0.01,0,0.02C115.09,72.05,115.07,72.28,115.04,72.51z"/>
	</g>
</g>
</svg>
