<svg width="20" height="20" viewBox="0 0 20 20" fill="none" xmlns="http://www.w3.org/2000/svg"><path d="M10 20c5.523 0 10-4.477 10-10S15.523 0 10 0 0 4.477 0 10s4.477 10 10 10z" fill="#fff"/><path d="M10 18.182c-4.512 0-8.182-3.67-8.182-8.182 0-4.512 3.67-8.182 8.182-8.182 4.512 0 8.182 3.67 8.182 8.182 0 4.512-3.67 8.182-8.182 8.182z" fill="#fff"/><path fill-rule="evenodd" clip-rule="evenodd" d="M19 10a9 9 0 1 0-18 0 9 9 0 0 0 18 0zM2.636 10c0-4.06 3.304-7.364 7.364-7.364 4.06 0 7.364 3.304 7.364 7.364 0 4.06-3.303 7.364-7.364 7.364-4.06 0-7.364-3.303-7.364-7.364z" fill="#111B8A"/><path d="M11.724 5.91l-.02.077L10 11.669 8.31 5.91H5.09v8.182h2.16s-.002-4.714-.004-4.91l1.65 4.91h2.196l1.664-4.916c-.003.199-.004 4.916-.004 4.916h2.158V5.909h-3.185z" fill="#111B8A"/></svg>