<?xml version="1.0" encoding="utf-8"?>
<!-- Generator: Adobe Illustrator 30.0.0, SVG Export Plug-In . SVG Version: 9.03 Build 0)  -->
<svg version="1.1" baseProfile="basic" id="Layer_1"
	 xmlns="http://www.w3.org/2000/svg" xmlns:xlink="http://www.w3.org/1999/xlink" x="0px" y="0px" width="194px" height="145px"
	 viewBox="0 0 194 145" xml:space="preserve">
<g>
	<g id="ISLAND_00000124130478422429228130000007048861962177548984_">
		<g>
			<path fill="#E9F8DF" d="M157.52,57.44l-28.59-7.66l-5.2-1.39l-10.49-2.81L98.5,71.1l-4.36,7.55l-1.32,2.28
				c-0.49,0.85-0.04,1.94,0.91,2.2l7.52,2.01c0.05,0.01,0.1,0.03,0.15,0.04l11.8,3.16c1.52,0.41,2.24,2.15,1.46,3.51l-2.8,4.85
				l-4.56,7.89l-17.28,29.93l11.47,3.07l8.8,2.36c0.23,0.06,0.46,0.12,0.7,0.16c0.47,0.1,0.93,0.18,1.4,0.24
				c0.23,0.03,0.47,0.06,0.7,0.08c6.04,0.53,11.98-2.2,15.48-7.25c0.27-0.39,0.52-0.79,0.76-1.21l10.75-18.61l0,0l1.49-2.58
				l1.54-2.66l1.53-2.65l19.09-33.06C167.09,66.6,164.01,59.18,157.52,57.44z"/>
			<path fill="#E9F8DF" d="M96.25,105.58l5.53-9.57c0.54-0.94,0.05-2.14-1-2.42l-12.85-3.44c-2.78-0.74-4.64-3-5.11-5.56
				c-0.44-4.02,1.13-5.19,2.9-8.33l19.02-32.95l-20.93-5.61c-7.45-2-15.31,1.26-19.16,7.94L51.18,68.98l-3.56,6.17l0,0l-17.34,30.04
				c-3.36,5.82-0.29,13.24,6.21,14.98l44.47,11.92l10.75-18.62L96.25,105.58z"/>
		</g>
		<g>
			<path fill="#C5D99B" d="M85.73,76.25l19.02-32.95L83.82,37.7c-7.45-2-15.31,1.26-19.16,7.94L52.17,67.26L85.73,76.25z"/>
			<path fill="#C5D99B" d="M110.31,139.95c7.41,1.92,15.2-1.33,19.03-7.97l10.75-18.61l-12.51-3.35L110.31,139.95z"/>
			<polygon fill="#C5D99B" points="118.78,107.66 107.32,104.59 90.04,134.52 101.51,137.6 			"/>
			<path fill="#C5D99B" d="M82.83,84.58l-9.42-2.52l-8.69,15.07l31.54,8.45l5.53-9.57c0.54-0.94,0.05-2.14-1-2.42l-12.85-3.44
				C85.15,89.4,83.29,87.15,82.83,84.58z"/>
			<path fill="#C5D99B" d="M157.52,57.44l-28.59-7.66l-2.34,4.07h0l-12.31,21.38c-1.29,2.82-6.11,7.46-14.53,5
				c-2.13-0.63-4-1.15-5.61-1.59l-1.32,2.28c-0.49,0.85-0.04,1.94,0.91,2.2l7.52,2.01c0.05,0.01,0.1,0.03,0.15,0.04l11.8,3.16
				c1.52,0.41,2.24,2.15,1.46,3.51l-2.8,4.85l32.76,8.78l19.08-33.06C167.09,66.6,164.01,59.18,157.52,57.44z"/>
			<path fill="#C5D99B" d="M55.87,103.87c-2.27-0.61-3.35-3.21-2.18-5.25l2.22-3.85l8.69-15.07l-16.99-4.55l-17.34,30.04
				c-3.36,5.82-0.29,13.24,6.21,14.98l44.47,11.92l10.75-18.62L55.87,103.87z"/>
			<path fill="#C5D99B" d="M101.29,71.88c1.54,0.4,4.89,0.41,6.56-2.49l6.51-11.3c0,0,0,0,0,0l6.09-10.58l-7.21-1.93L98.5,71.1
				C99.74,71.46,100.81,71.76,101.29,71.88z"/>
		</g>
	</g>
	<g id="Props_00000116197952479579134130000016585858132986780560_">
		<g>
			<path fill="#00A07A" d="M94.62,95.61L94.62,95.61L94.62,95.61c-0.03-0.09-0.06-0.17-0.1-0.26L90.1,84.39l0,0
				c-0.21-0.81-0.95-1.41-1.82-1.41s-1.61,0.6-1.82,1.41l0,0l-4.42,10.96c-0.14,0.31-0.22,0.63-0.22,0.96
				c0,2.04,2.89,3.68,6.46,3.68c3.57,0,6.46-1.65,6.46-3.68C94.74,96.07,94.7,95.84,94.62,95.61z"/>
			<path fill="#2C6854" d="M130.54,92.93L130.54,92.93L130.54,92.93c-0.03-0.09-0.06-0.17-0.1-0.26l-4.42-10.96l0,0
				c-0.21-0.81-0.95-1.41-1.82-1.41c-0.88,0-1.61,0.6-1.82,1.41l0,0l-4.42,10.96c-0.14,0.31-0.22,0.63-0.22,0.96
				c0,2.04,2.89,3.68,6.46,3.68s6.46-1.65,6.46-3.68C130.66,93.39,130.61,93.15,130.54,92.93z"/>
		</g>
		<g>
			<g>
				<path fill="#F5F5F5" d="M134.21,76.43c0.62-1.06,1.28-2.19,1.96-3.35c3.05-5.18,3.26-9.22-2.49-10.76
					c-1.83-0.49-10.83-2.77-12.53-3.23h-0.03v12.58c0,0.81,0.54,1.52,1.33,1.74c1.43,0.39,9.85,2.5,11.24,2.88
					C133.87,76.32,134.04,76.37,134.21,76.43z"/>
				<path fill="#F5F5F5" d="M148.66,74.2c-2.45,4.19-4.14,7.12-4.14,7.12l-0.03,0.06c-0.4-0.11-0.78-0.22-1.02-0.28
					c-1.83-0.51-8.6-2.32-10.34-2.79h-0.02v12.22c0,1.03,0.69,1.92,1.68,2.19c2.69,0.72,7.23,1.94,8.68,2.34
					c0.23,0.06,0.62,0.17,1.02,0.28l0.03-0.06c0,0,1.69-2.93,4.14-7.12c1.78-3.05,2.27-5.94,2.26-8.29l0,0V66.2h0
					C150.89,68.49,150.37,71.27,148.66,74.2z"/>
			</g>
			<path fill="#FC8BF1" d="M125.92,50.82c-2.8,4.78-4.8,8.25-4.8,8.25l0,0c1.71,0.46,10.72,2.74,12.57,3.24
				c5.75,1.55,5.54,5.59,2.49,10.76c-1.11,1.88-2.14,3.66-3.06,5.23l0,0l0,0c1.71,0.46,8.52,2.28,10.36,2.79l0,0
				c0.23,0.06,0.62,0.17,1.02,0.28l0.03-0.06c0,0,1.69-2.93,4.14-7.12c2.45-4.19,2.45-8.07,2.08-10.66
				c-0.36-2.59-2.45-6.78-7.7-8.24c-1.84-0.51-15.48-4.02-17.18-4.48l0,0"/>
		</g>
		<g>
			<path fill="#F5F5F5" d="M74.68,116.48c-0.94,1.32-1.97,0.63-2.61-0.75c-0.52-1.09-4.25-9.56-5.27-11.81
				c-1.03-2.25-2.54-1.96-3.7-0.69c-1.15,1.27-6.57,7.37-7.55,8.47c-0.98,1.09-1.27,0.29-1.55-0.52c-0.29-0.81-2.65-10.08-3-11.23
				c-0.31-1.04-1.38-1.14-1.96-0.29l-0.09,0.15c-0.52,1.15-2.85,7.4-3.54,9.25s-0.75,2.07-0.75,3.34c0,1.27,0,3.63,0,3.63h0.01
				c-0.01,0.85,0.7,1.65,1.89,1.96l24.64,6.54c1.56,0.41,3.34-0.15,3.99-1.27l4.45-7.62c0.17-0.29,0.24-0.58,0.24-0.87h0v-5.98
				C79.88,108.78,75.77,114.93,74.68,116.48z"/>
			<path fill="#FC8BF1" d="M48.96,99.81l6.63-11.37l0.03-0.02c0.52-1.15,1.79-1.15,2.13,0s2.71,10.43,3,11.23
				c0.29,0.81,0.58,1.61,1.55,0.52c0.98-1.09,6.39-7.2,7.55-8.47c1.15-1.27,2.66-1.55,3.7,0.69c0.89,1.94,3.8,8.54,4.9,10.99
				c0.46,0.97,0.55,1.19,0.82,1.72c0.26,0.53,0.62,1.19,0.62,3.67c0,0-4.1,6.15-5.2,7.7c-0.94,1.32-1.97,0.63-2.61-0.75
				c-0.52-1.09-4.25-9.56-5.27-11.81c-1.03-2.25-2.54-1.96-3.7-0.69c-1.15,1.27-6.57,7.37-7.55,8.47c-0.98,1.09-1.27,0.29-1.55-0.52
				c-0.29-0.81-2.65-10.08-3-11.23c-0.35-1.15-1.61-1.15-2.13,0"/>
			<polygon fill="#FF8FEA" points="62.42,110 62.42,115.61 66.33,116.65 66.33,111.14 			"/>
		</g>
		<g>
			<path d="M44.67,83.66v13.62c0,0.48,0.57,0.87,1.28,0.87c0.71,0,1.28-0.39,1.28-0.87V83.66H44.67z"/>
			<path d="M52.21,74.64c-2.97-4.23-8.03-5.8-11.29-3.5l-1.31,0.92l0.14,0.19c-2.09,2.62-1.92,7.05,0.64,10.7
				c2.63,3.74,6.89,5.4,10.1,4.14l0.11,0.14l1.06-0.77c0.01-0.01,0.02-0.01,0.02-0.02c0.02-0.01,0.03-0.03,0.05-0.04l0.12-0.08l0,0
				C54.94,83.97,55.13,78.79,52.21,74.64z"/>
			<g>
				
					<ellipse transform="matrix(0.8219 -0.5696 0.5696 0.8219 -37.2361 39.9369)" fill-rule="evenodd" clip-rule="evenodd" fill="#FF8FEA" cx="45.25" cy="79.52" rx="7.23" ry="9.37"/>
				<path fill="#FFFFFF" d="M47.69,75.42L47.69,75.42c-1.62-0.8-3.29-1.24-4.9-1.28c-0.86-0.02-1.47,0.62-1.47,1.55v4.7
					c0,0.67,0.32,1.35,0.8,1.83v1.04c0,0.31,0.24,0.63,0.53,0.7l0.53,0.14c0.3,0.08,0.53-0.12,0.53-0.43v-0.68l3.04,0.79v0.68
					c0,0.31,0.24,0.63,0.53,0.7l0.53,0.14c0.3,0.08,0.53-0.12,0.53-0.43v-1.04c0.48-0.23,0.8-0.74,0.8-1.42v-4.69
					C49.16,76.8,48.55,75.84,47.69,75.42z M43.19,81.72c-0.44-0.12-0.8-0.59-0.8-1.06c0-0.47,0.36-0.76,0.8-0.64
					c0.44,0.12,0.8,0.59,0.8,1.06C43.99,81.55,43.63,81.84,43.19,81.72z M47.29,82.79c-0.44-0.12-0.8-0.59-0.8-1.06
					c0-0.47,0.36-0.76,0.8-0.64c0.44,0.12,0.8,0.59,0.8,1.06C48.09,82.62,47.74,82.9,47.29,82.79z M48.36,80.33l-6.17-1.61v-2.81
					l6.17,1.61V80.33z"/>
			</g>
		</g>
	</g>
	<g id="Pin_00000103944526616353488940000017956286697359738532_">
		<g>
			<path fill="#4285F4" d="M133.05,4.5H60.93c-8.23,0-14.91,6.68-14.91,14.91v33.36c0,8.23,6.68,14.91,14.91,14.91h22.73
				c3.95,0,5.12,1.77,5.96,3.26c0.84,1.49,2.14,3.69,3.76,6.61c0.87,1.57,1.5,2.47,2.08,2.98c0.09,0.08,0.19,0.16,0.3,0.22
				c0.03,0.02,0.07,0.04,0.1,0.06c0.01,0.01,0.02,0.01,0.04,0.02c0.19,0.11,0.39,0.17,0.59,0.22c0.01,0,0.02,0,0.03,0.01
				c0.05,0.01,0.1,0.02,0.15,0.02c0.04,0.01,0.08,0.01,0.12,0.01c0.04,0,0.09,0.01,0.13,0.01c0.01,0,0.02,0,0.03,0
				c0.01,0,0.02,0,0.04,0c0.01,0,0.02,0,0.04,0c0.01,0,0.02,0,0.03,0c0.04,0,0.09,0,0.13-0.01c0.04,0,0.08-0.01,0.12-0.01
				c0.05-0.01,0.1-0.01,0.15-0.02c0.01,0,0.02,0,0.03-0.01c0.2-0.04,0.4-0.11,0.59-0.22c0.01-0.01,0.02-0.01,0.04-0.02
				c0.03-0.02,0.07-0.04,0.1-0.06c0.11-0.07,0.21-0.14,0.3-0.22c0.59-0.5,1.22-1.41,2.08-2.98c1.62-2.92,2.92-5.12,3.76-6.61
				s2.01-3.26,5.96-3.26h22.73c8.23,0,14.91-6.68,14.91-14.91V19.41C147.96,11.18,141.28,4.5,133.05,4.5z"/>
			<path fill-rule="evenodd" clip-rule="evenodd" fill="#FFFFFF" d="M120.6,29.76c-0.95-4.38-3.13-8.54-6.53-11.95
				c-9.45-9.45-24.67-9.47-34.15-0.05c-2.46,2.45-4.29,5.29-5.47,8.33c-0.29,0.74-0.92,1.3-1.7,1.48c-7.04,1.67-12.27,8-12.27,15.54
				c0,8.82,7.15,15.98,15.98,15.98c0.2,0,43.18-0.01,43.18-0.01v-0.06c7.65,0,13.85-6.2,13.85-13.85c0-6.69-4.74-12.27-11.04-13.57
				C121.53,31.42,120.8,30.69,120.6,29.76z"/>
			<g>
				<ellipse fill="#202FAE" cx="96.99" cy="48.77" rx="4.62" ry="4.62"/>
				<path fill="#202FAE" d="M99.8,18.93h-5.63c-0.96,0-1.71,0.84-1.6,1.79l2.07,18.76c0.09,0.82,0.78,1.44,1.6,1.44h1.5
					c0.82,0,1.51-0.62,1.6-1.44l2.07-18.76C101.51,19.77,100.77,18.93,99.8,18.93z"/>
			</g>
		</g>
	</g>
</g>
</svg>
