<svg width="20" height="20" viewBox="0 0 20 20" fill="none" xmlns="http://www.w3.org/2000/svg"><rect x="0.5" y="0.5" width="19" height="19" rx="4.5" fill="#004250" stroke="white" stroke-width="0.5"/><path d="M12.6373 12.831C11.2524 13.4853 9.6431 12.9887 9.15725 12.492C8.60591 11.9283 7.374 9.85979 5.76371 9.23896C5.12895 8.99403 4.6849 8.90182 4.8737 8.45663C5.06251 8.01125 6.52466 6.25243 6.52466 6.25243C6.52466 6.25243 4.92773 5.44719 4.39377 6.32288C3.85961 7.19837 2 10.1242 2 10.1242C7.63096 10.6738 6.06877 14.4171 9.82274 14.7831C12.6382 15.0576 14.0022 11.8979 14.0022 11.8979C10.1601 10.5492 10.9598 7.56606 7.64279 7.14969C7.64279 7.14969 8.52879 6.30875 9.22273 6.5155C11.7026 7.2545 10.9352 9.60417 15.5171 11.0715L13.6836 13.6292L15.2122 13.7319L18 9.92202C12.9292 8.68515 13.6842 5.79082 10.5713 5.25533C7.45895 4.72023 6.14743 8.25618 6.14743 8.25618C9.31551 9.67805 9.72347 11.6646 12.1779 12.6468C12.6373 12.831 12.6373 12.831 12.6373 12.831Z" fill="#F9CE24"/></svg>