<svg width="20" height="20" viewBox="0 0 20 20" fill="none" xmlns="http://www.w3.org/2000/svg"><path opacity="0.8" d="M10 17.1353C9.90455 17.1353 9.80886 17.1067 9.72682 17.0492L0.203182 10.3826C0.0756818 10.2937 0 10.1478 0 9.99234C0 9.83688 0.0756818 9.69143 0.203182 9.60211L9.72705 2.93552C9.80886 2.87847 9.90477 2.84961 10.0002 2.84961C10.0957 2.84961 10.1914 2.87847 10.2732 2.93552L19.7968 9.60211C19.9241 9.69143 20 9.83688 20 9.99234C20 10.1478 19.9241 10.2937 19.7966 10.3826L10.273 17.0492C10.1911 17.1067 10.0955 17.1353 10 17.1353Z" fill="white"/><path d="M10 16.4284C9.91409 16.4284 9.82798 16.4026 9.75414 16.3509L1.18286 10.3509C1.06811 10.271 1 10.1397 1 9.99974C1 9.85983 1.06811 9.72893 1.18286 9.64854L9.75434 3.64861C9.82798 3.59727 9.91429 3.57129 10.0002 3.57129C10.0861 3.57129 10.1722 3.59727 10.2459 3.64861L18.8171 9.64854C18.9317 9.72893 19 9.85983 19 9.99974C19 10.1397 18.9317 10.271 18.8169 10.3509L10.2457 16.3509C10.172 16.4026 10.0859 16.4284 10 16.4284ZM10 12.8736L14.105 9.99974L10 7.12608L5.89477 9.99974L10 12.8736Z" fill="#DF3E2A"/><path d="M14.0459 8.06445H5.85059V11.9185H14.0459V8.06445Z" fill="#286595"/></svg>