<svg width="20" height="20" fill="none" xmlns="http://www.w3.org/2000/svg"><circle cx="10" cy="10" r="10" fill="#fff"/><circle cx="10" cy="10" r="9" fill="#DA251D"/><path d="M10.1006 8.12598c-2.11871 0-5.55568.91809-5.55568 3.35452 0 3.0545 4.30798 3.8078 6.53848 3.8078 1.3418 0 3.4193-.5944 5.1731-2.2894l-.5944-.5708c-1.5537 1.4654-2.9838 1.7302-4.3727 1.7302-1.57138 0-4.34331-1.0181-4.34331-2.6071 0-1.70086 2.48356-2.44239 4.00191-2.44239 1.948 0 3.796.41196 4.6729 1.63609l.7062-.412-1.5537-1.71845c-.1589.27072-.3825.28837-.5296.28837-.2943 0-.6768-.13536-.8181-.18832-.8298-.29426-2.3188-.58852-3.3251-.58852z" fill="#fff" stroke="#DA251D" stroke-width=".29426"/><path d="M13.8729 16.0002v-.8887c-1.077.0589-1.5419-.4002-1.5419-1.5125V7.55489h2.0245c.7474 0 1.3242.49436 1.7479 1.04757l.5591-.54732-1.2536-1.65963H7.15787L5.89844 8.05514l.55909.54732c.42374-.55321 1.00049-1.04757 1.74791-1.04757h2.03036V13.599c0 1.1123-.47078 1.5714-1.54189 1.5125v.8887h5.17899z" fill="#fff" stroke="#DA251D" stroke-width=".29426"/><path d="M11.325 13.6047v-.8887c-1.0769.0589-1.54188-.4002-1.54188-1.5125V5.15939h2.02448c.7475 0 1.3242.49435 1.7479 1.04756l.5591-.54732L12.8611 4H4.61002L3.35059 5.65963l.55909.54732c.42374-.55321 1.00049-1.04756 1.74791-1.04756h2.0304v6.04411c0 1.1123-.47082 1.5714-1.54193 1.5125v.8887H11.325z" fill="#fff" stroke="#DA251D" stroke-width=".29426"/></svg>