<svg width="20" height="20" viewBox="0 0 20 20" fill="none" xmlns="http://www.w3.org/2000/svg"><path d="M10 20c5.523 0 10-4.477 10-10S15.523 0 10 0 0 4.477 0 10s4.477 10 10 10z" fill="#fff"/><g clip-path="url(#a)"><path d="M13.178 8.553l-.97-.082v5.146l-1.444.254-.003-5.528-1.228-.108V6.208l3.645.638v1.707zm2.75 4.412l-.856.149-.1-.75-.835.109-.105.825-1.105.195 1.094-6.489 1.039.18.869 5.782zm-1.11-1.868l-.228-1.982h-.05l-.233 2.011.512-.03zM10.044 19c4.942 0 8.949-4.03 8.949-9 0-4.971-4.007-9-8.95-9-3.097 0-5.827 1.584-7.435 3.992l2.48.438.683 5.223c.002-.009.05-.003.05-.003l.748-4.961 2.482.435v8.051l-1.567.275v-3.46s.059-1.49.024-1.745c0 0-.067.001-.069-.004l-.934 5.385-1.557.274-1.143-5.8-.07-.005c-.023.21.085 2.03.085 2.03v3.973l-1.023.18A8.914 8.914 0 0 0 10.043 19z" fill="#0039A6"/></g><defs><clipPath id="a"><path fill="#fff" transform="translate(1.8 1)" d="M0 0h18v18H0z"/></clipPath></defs></svg>