<svg width="20" height="20" fill="none" xmlns="http://www.w3.org/2000/svg"><path d="M15.9091 0H4.09091C1.83156 0 0 1.83156 0 4.09091V15.9091C0 18.1684 1.83156 20 4.09091 20H15.9091C18.1684 20 20 18.1684 20 15.9091V4.09091C20 1.83156 18.1684 0 15.9091 0z" fill="#fff"/><path d="M15.9998 19H4.00003C2.3461 19 1 17.6541 1 16.0001V4.00007C1 2.34611 2.3461 1 4.00003 1H16c1.6541 0 3 1.34611 3 3.00007V16.0001C18.9996 17.6541 17.6537 19 15.9998 19z" fill="#039"/><path d="M10.5762 16.4324c.9844-.0961 1.9045-.4092 2.6347-.8975.3669-.2455.8842-.7531 1.1096-1.0882.3287-.4901.5674-1.0788.6953-1.7151.0495-.2459.0554-.6791.0656-4.70004l.0111-4.42861h-3.0342v4.05491c0 2.66544-.0119 4.15964-.0338 4.36114-.0403.3606-.1587.7909-.2794 1.0137-.1509.28-.4299.5463-.7202.6885-.7995.3917-1.96991.2508-2.52464-.304-.28227-.2824-.47658-.7373-.55799-1.3082-.01984-.1399-.03211-1.7802-.03252-4.36523l-.00062-4.14123H4.90869v4.194c0 4.20766.00818 4.56276.11577 5.09416.2657 1.3128 1.0847 2.3576 2.33875 2.9835.91881.4601 2.10884.6662 3.21299.5582z" fill="#fff"/></svg>