<svg xmlns="http://www.w3.org/2000/svg" width="88px" height="88px" viewBox="0 0 88 88"><path fill="#3C4043" d="M60.4633333,56.8333333 L60.4633333,50.4166667 L51.3333333,59.5833333 L60.4633333,68.75 L60.4633333,62.3333333 L80.6666667,62.3333333 L80.6666667,56.8333333 L60.4633333,56.8333333 Z M71.5366667,72.4166667 L51.3333333,72.4166667 L51.3333333,77.9166667 L71.5366667,77.9166667 L71.5366667,84.3333333 L80.6666667,75.1666667 L71.5366667,66 L71.5366667,72.4166667 Z M34.8333333,20.1666667 C38.8666667,20.1666667 42.1666667,16.8666667 42.1666667,12.8333333 C42.1666667,8.8 38.8666667,5.5 34.8333333,5.5 C30.8,5.5 27.5,8.8 27.5,12.8333333 C27.5,16.8666667 30.8,20.1666667 34.8333333,20.1666667 L34.8333333,20.1666667 Z M21.0833333,32.6333333 L11,84.3333333 L18.7,84.3333333 L25.1166667,55 L33,62.3333333 L33,84.3333333 L40.3333333,84.3333333 L40.3333333,56.65 L32.8166667,49.1333333 L35.0166667,38.1333333 C39.7833333,44 46.9333333,47.6666667 55,47.6666667 L55,40.3333333 C48.2166667,40.3333333 42.35,36.6666667 39.05,31.35 L35.5666667,25.4833333 C34.2833333,23.2833333 31.9,22 29.3333333,22 C28.4166667,22 27.5,22.1833333 26.5833333,22.55 L7.33333333,30.4333333 L7.33333333,47.6666667 L14.6666667,47.6666667 L14.6666667,35.3833333 L21.0833333,32.6333333 L21.0833333,32.6333333 Z"/></svg>