<svg width="20" height="20" viewBox="0 0 20 20" fill="none" xmlns="http://www.w3.org/2000/svg"><g clip-path="url(#a)"><path d="M10 19.214C4.92 19.214.786 15.081.786 10 .786 4.92 4.92.786 10 .786S19.214 4.92 19.214 10 15.081 19.214 10 19.214z" fill="#F18500"/><path d="M10 1.572c4.647 0 8.428 3.78 8.428 8.428 0 4.647-3.78 8.428-8.428 8.428-4.647 0-8.428-3.78-8.428-8.428 0-4.647 3.78-8.428 8.428-8.428zM10 0C4.486 0 0 4.486 0 10s4.486 10 10 10 10-4.486 10-10S15.514 0 10 0z" fill="#fff"/><path d="M9.156 15.777c-.084 0-.184-.084-.184-.197V7.207H6.243c-.127 0-.183-.127-.183-.212V5.623c0-.085.056-.198.183-.198h7.51c.127 0 .184.113.184.198v1.372c0 .084-.056.212-.184.212h-2.73v8.373a.193.193 0 0 1-.197.197h-1.67z" fill="#fff"/></g><defs><clipPath id="a"><path fill="#fff" d="M0 0h20v20H0z"/></clipPath></defs></svg>