<?xml version="1.0" encoding="utf-8"?>
<!-- Generator: Adobe Illustrator 30.0.0, SVG Export Plug-In . SVG Version: 9.03 Build 0)  -->
<svg version="1.1" baseProfile="basic" id="Layer_1"
	 xmlns="http://www.w3.org/2000/svg" xmlns:xlink="http://www.w3.org/1999/xlink" x="0px" y="0px" width="50px" height="45px"
	 viewBox="0 0 50 45" xml:space="preserve">
<g>
	<g id="Grass">
		<path fill="#C9C283" d="M43.33,31.14l-29.44-7.87c-0.89-0.24-1.91,0.08-2.29,0.72L5.74,34.02c-0.37,0.64,0.05,1.34,0.94,1.58
			l14.01,3.72c0.01,0,0.03,0.01,0.04,0.01l8.96,2.38c0.02,0,0.03,0.01,0.05,0.01l6.4,1.7c0.88,0.23,1.9-0.09,2.27-0.72l5.83-9.98
			C44.63,32.08,44.21,31.38,43.33,31.14L43.33,31.14z"/>
	</g>
	<g id="Sign_00000138562036853653942890000006967071641008021653_">
		<g>
			<path fill="#5B4100" d="M10.06,16.01V33.6c0,0.23,0.27,0.41,0.6,0.41c0.33,0,0.6-0.18,0.6-0.41V16.01H10.06L10.06,16.01z"/>
			
				<ellipse transform="matrix(0.8181 -0.575 0.575 0.8181 -5.9141 8.7203)" fill="#DD0000" cx="10.83" cy="13.71" rx="3.42" ry="4.42"/>
			
				<ellipse transform="matrix(0.8181 -0.575 0.575 0.8181 -6.2041 8.4992)" fill="#FE5B1E" cx="10.33" cy="14.06" rx="3.42" ry="4.42"/>
			<path fill="#FFE7DF" d="M11.5,12.17L11.5,12.17c-0.77-0.4-1.56-0.63-2.33-0.67l0,0c-0.41-0.02-0.7,0.27-0.7,0.71l-0.01,2.21
				c0,0.32,0.15,0.64,0.38,0.88l0,0.49c0,0.15,0.11,0.3,0.25,0.34l0.25,0.07c0.14,0.04,0.25-0.05,0.25-0.19l0-0.32l1.44,0.41l0,0.32
				c0,0.15,0.11,0.3,0.25,0.34l0.25,0.07c0.14,0.04,0.25-0.05,0.25-0.19l0-0.49c0.23-0.1,0.38-0.34,0.38-0.66l0.01-2.21
				C12.2,12.85,11.91,12.39,11.5,12.17L11.5,12.17z"/>
			<path fill="#FF5719" d="M9.73,14.79c0,0.22-0.17,0.35-0.38,0.29c-0.21-0.06-0.38-0.29-0.38-0.51c0-0.22,0.17-0.35,0.38-0.29
				S9.73,14.57,9.73,14.79z"/>
			<path fill="#FF5719" d="M11.68,15.35c0,0.22-0.17,0.35-0.38,0.29c-0.21-0.06-0.38-0.29-0.38-0.51c0-0.22,0.17-0.35,0.38-0.29
				S11.68,15.13,11.68,15.35z"/>
			<polygon fill="#FF5719" points="11.82,13.18 8.88,12.33 8.88,13.66 11.81,14.5 			"/>
		</g>
	</g>
	<g id="Seats">
		<g>
			<path fill="#A09D25" d="M35.08,28.33c0-0.35-0.19-0.44-0.38-0.49l-17.12-4.55v6.84l16.7,4.49l0.8-0.73L35.08,28.33L35.08,28.33z"
				/>
			<path fill="#DD0000" d="M18.24,28.78c0,0-1.01,1.78-1.14,2.03c-0.13,0.25-0.44,1.18,0.57,1.44c1.01,0.25,14.53,3.8,15.04,3.93
				c0.51,0.13,0.97,0.18,1.35-0.42s1.02-1.63,1.02-1.63v-0.9L18.24,28.78L18.24,28.78z"/>
			<path fill="#8C0019" d="M32.71,36.18c-0.39-0.1-8.29-2.17-12.5-3.27l0,0c0,0,0,0,0,0c-0.06-0.02-0.12-0.03-0.18-0.05
				c-0.06-0.02-0.12-0.03-0.18-0.05c-0.01,0-0.03-0.01-0.04-0.01c-0.07-0.02-0.14-0.04-0.2-0.05c-0.06-0.02-0.12-0.03-0.18-0.05
				c-0.04-0.01-0.08-0.02-0.11-0.03c-0.04-0.01-0.08-0.02-0.12-0.03c-0.01,0-0.02-0.01-0.03-0.01c-0.09-0.02-0.17-0.04-0.25-0.06
				c-0.1-0.03-0.19-0.05-0.28-0.07c0,0-0.01,0-0.01,0c-0.06-0.02-0.11-0.03-0.17-0.04v0.86l0,0c0,0.27,0.12,0.56,0.58,0.67
				c0.07,0.02,0.21,0.05,0.4,0.1c0.05,0.02,0.09,0.03,0.15,0.05c0.81,0.21,11.72,3.07,12.13,3.17c0.41,0.1,0.78,0.14,1.09-0.34
				c0.12-0.19,0.32-0.48,0.46-0.7l0,0C33.08,36.26,32.9,36.22,32.71,36.18L32.71,36.18z"/>
			<path fill="#DD0000" d="M18.24,28.61v-2.55c0-0.41,0.03-1.26,1.2-0.97c1.07,0.27,15.64,4.18,15.64,4.18v3.95l-16.84-4.45
				L18.24,28.61L18.24,28.61z"/>
			<path fill="#8C0019" d="M22.6,33.54c-0.41-0.11-0.42-0.56-0.28-0.81c0.1-0.19,1.37-2.51,1.37-2.51V27.3
				c0-0.74,0.6-0.92,0.81-0.86l-0.5-0.13c-0.2-0.05-0.81,0.12-0.81,0.86v2.92c0,0-1.27,2.32-1.37,2.51
				c-0.13,0.24-0.13,0.7,0.28,0.81L22.6,33.54z"/>
			<path fill="#8C0019" d="M28.55,35.09c-0.41-0.11-0.42-0.53-0.28-0.77c0.1-0.19,1.37-2.51,1.37-2.51v-2.92
				c0-0.74,0.6-0.92,0.81-0.86l-0.5-0.13c-0.2-0.05-0.81,0.12-0.81,0.86v2.92c0,0-1.27,2.32-1.37,2.51
				c-0.13,0.24-0.13,0.66,0.28,0.77L28.55,35.09z"/>
			
				<linearGradient id="SVGID_1_" gradientUnits="userSpaceOnUse" x1="27.6187" y1="9886.8281" x2="26.2317" y2="9881.6631" gradientTransform="matrix(1.0001 0 0 -1.0001 -0.2372 9914.4043)">
				<stop  offset="0" style="stop-color:#4F0033;stop-opacity:0"/>
				<stop  offset="1" style="stop-color:#4F0033"/>
			</linearGradient>
			<path opacity="0.6" fill="url(#SVGID_1_)" d="M18.24,28.61v-2.55c0-0.41,0.03-1.26,1.2-0.97c1.07,0.27,15.64,4.18,15.64,4.18
				v3.95l-16.84-4.45L18.24,28.61L18.24,28.61z"/>
		</g>
	</g>
	<g id="Shelter">
		<g>
			<path fill="#DFE59F" d="M38.96,21.91C38.96,21.91,38.95,21.91,38.96,21.91c-0.01-0.01-0.01-0.02-0.02-0.02
				c-0.02-0.02-0.03-0.04-0.05-0.05c0,0,0,0,0-0.01l0,0c-0.08-0.07-0.19-0.13-0.33-0.17l-13.68-3.66c-0.04-0.01-0.07-0.02-0.11-0.02
				l-6.38-1.71c-0.41-0.11-0.89,0.04-1.06,0.33l-2.23,3.81c-0.01,0.02-0.02,0.04-0.03,0.06c-0.03,0.06-0.06,0.11-0.08,0.16
				c0,0,0,0,0,0c-0.25,0.45-0.28,0.93-0.28,1.32c0,0,0,0,0,0v12.89h0c0,0.01,0,0.02,0,0.02c0,0.13,0.19,0.24,0.43,0.24
				s0.43-0.11,0.43-0.24c0-0.01,0-0.02,0-0.02h0V23.09c0-0.16,0.04-0.32,0.23-0.27l18.9,5.02c0.19,0.05,0.38,0.14,0.38,0.49v11.49
				c0,0.07,0,0.13,0.01,0.18c0.03,0.12,0.1,0.2,0.17,0.2c0.19,0.02,0.5-0.57,0.55-0.65c0.02-0.03,0.03-0.06,0.05-0.08l1.29-2.21
				c0.15-0.27,0.25-0.45,0.25-0.45s0.54-0.91,0.96-1.63l0.67-1.15c0.12-0.28,0.16-0.52,0.16-0.84v-10
				C39.19,22.53,39.21,22.21,38.96,21.91L38.96,21.91z"/>
			<path fill="#EA4434" d="M38.64,25.4c0-0.01,0-0.01,0-0.02c0-0.01,0-0.01,0-0.02c0-0.01,0-0.03,0-0.04
				c-0.02-0.5-0.24-0.63-0.44-0.3c-0.21,0.34-1.85,3.2-2.22,3.81c-0.37,0.61-0.39,0.88-0.39,1.41v7.83c0,0.05,0,0.09,0.01,0.13
				c0.02,0.09,0.08,0.15,0.13,0.15c0.14,0.02,0.37-0.42,0.41-0.49c0.01-0.02,0.03-0.04,0.04-0.06l0.96-1.64
				c0.11-0.2,0.19-0.34,0.19-0.34s0.4-0.68,0.72-1.21l0.5-0.86c0.09-0.21,0.12-0.39,0.12-0.63V25.7
				C38.64,25.59,38.64,25.5,38.64,25.4C38.64,25.41,38.64,25.41,38.64,25.4L38.64,25.4z"/>
		</g>
	</g>
	<g id="Pins_00000119806838748287509850000003745007791342204819_">
		<g>
			<path fill="#FF4365" d="M33.28,5.4c-0.88-1.7-2.41-2.99-4.24-3.57c-0.71-0.22-1.45-0.33-2.18-0.33c-0.74,0-1.47,0.11-2.18,0.33
				c-1.83,0.58-3.35,1.87-4.24,3.57c-0.54,1.02-0.82,2.17-0.82,3.33c0,4.4,2.82,6.12,5.23,9.89c1.47,2.28,1.06,3.64,2.01,3.64
				c0,0,0,0,0.01,0c0,0,0,0,0.01,0c0.95,0,0.54-1.36,2.01-3.64c2.42-3.78,5.23-5.49,5.23-9.89C34.1,7.57,33.82,6.42,33.28,5.4
				L33.28,5.4z"/>
			<path fill="#FFFFFF" d="M27.17,4.86l0.92,2.19l2.37,0.2c0.32,0.03,0.45,0.43,0.21,0.64l-1.8,1.55l0.55,2.31
				c0.07,0.31-0.27,0.56-0.54,0.39l-2.03-1.23l-2.03,1.23c-0.28,0.17-0.62-0.08-0.54-0.39l0.55-2.31l-1.8-1.55
				c-0.24-0.21-0.11-0.61,0.21-0.64l2.37-0.2l0.92-2.19C26.63,4.57,27.05,4.57,27.17,4.86L27.17,4.86z"/>
		</g>
	</g>
</g>
</svg>
