<?xml version="1.0" encoding="utf-8"?>
<!-- Generator: Adobe Illustrator 30.0.0, SVG Export Plug-In . SVG Version: 9.03 Build 0)  -->
<svg version="1.1" baseProfile="basic" id="Layer_1"
	 xmlns="http://www.w3.org/2000/svg" xmlns:xlink="http://www.w3.org/1999/xlink" x="0px" y="0px" width="280px" height="156px"
	 viewBox="0 0 280 156" xml:space="preserve">
<g>
	<g id="Land_00000150064959528419380830000016293596694029034659_">
		<path fill="#C5D99B" d="M105.99,86.65l-19.97,34.72c-2.25,3.91-0.18,8.9,4.18,10.07l74.76,20.03c5.7,1.53,11.71-0.97,14.65-6.08
			l18.38-31.96c1.86-3.24,0.15-7.36-3.46-8.33l-80.81-21.65C110.71,82.63,107.54,83.95,105.99,86.65L105.99,86.65z"/>
		<polygon fill="#EAEED6" points="100.49,123.85 95.33,132.81 117.03,138.63 122.19,129.67 		"/>
	</g>
	<g id="Shop_00000121281861217568306930000008753011171612629138_">
		<g>
			<path fill="#DFE59F" d="M189.48,76.74c0-2.35-1.61-4.4-3.89-4.96l-69.66-17.09c-2.28-0.56-4.66,0.46-5.83,2.49l-15.24,26.5
				l0.09,0.02v38.68l77.31,20.72v0.02l0.01-0.02l0.08,0.02v-0.15l17.13-29.79L189.48,76.74L189.48,76.74z"/>
			<path fill="#9ECFA3" d="M189.48,76.74c0-0.97-0.28-1.89-0.76-2.68l-16.45,28.61v40.42l0,0v0.02l0.09-0.15l0,0l17.13-29.79V76.74
				L189.48,76.74z"/>
			<path fill="#64BEFF" d="M131.67,126.9l27.89,7.47c2.31,0.62,4.57-1.12,4.57-3.51v-24.5c0-1.65-1.11-3.09-2.71-3.51l-27.89-7.3
				c-2.3-0.6-4.55,1.13-4.55,3.51v24.34C128.98,125.04,130.08,126.48,131.67,126.9L131.67,126.9z"/>
			<polygon fill="#00854C" points="122.19,100.89 122.19,129.67 100.49,123.85 100.49,95.83 			"/>
			<path fill="#9ECFA3" d="M105.04,121.45l11.71,3.14c1.08,0.29,2.14-0.52,2.14-1.64v-7.01c0-0.77-0.52-1.44-1.26-1.64l-11.71-3.14
				c-1.08-0.29-2.14,0.52-2.14,1.64v7.01C103.78,120.58,104.3,121.25,105.04,121.45z"/>
			<g>
				<path fill="#F4F4C7" d="M123.1,93.33l1.39-2.41l-15.93-3.91l-1.38,2.39c-2.03,3.53-3.1,7.54-3.1,11.62v2.03l15.92,3.91v-2.01
					C120,100.87,121.07,96.86,123.1,93.33L123.1,93.33z"/>
				<path fill="#F4F4C7" d="M140.42,94.83l-1.4,2.43c-2.03,3.54-3.1,7.54-3.1,11.62v1.99l15.92,3.91v-1.96
					c0-4.08,1.07-8.09,3.1-11.62l1.41-2.45L140.42,94.83L140.42,94.83z"/>
			</g>
			<g>
				<path fill="#9ECFA3" d="M167.83,118.7l-15.99-3.92v-1.96c0-4.08,1.07-8.09,3.1-11.62l1.41-2.45l16,3.93l0,0v0v8.17L167.83,118.7
					L167.83,118.7z"/>
				<path fill="#9ECFA3" d="M139.03,97.26l1.4-2.43l-15.93-3.91l-1.39,2.41c-2.03,3.54-3.1,7.54-3.1,11.62v2.01l15.92,3.91v-1.99
					C135.92,104.8,136.99,100.8,139.03,97.26L139.03,97.26z"/>
				<path fill="#9ECFA3" d="M107.18,89.4l1.38-2.39l-13.61-3.34l-1.51,2.63c-1.97,3.43-3.01,7.31-3.01,11.26v0.62
					c0,0.9,0.61,1.68,1.48,1.89l12.16,2.98v-2.03C104.08,96.94,105.15,92.93,107.18,89.4L107.18,89.4z"/>
			</g>
			<path fill="#6C9E82" fill-opacity="0.91" d="M172.35,102.67l-1.51,2.62c-1.97,3.43-3.01,7.31-3.01,11.26v2.14l4.52-7.85
				L172.35,102.67L172.35,102.67z"/>
			
				<linearGradient id="SVGID_1_" gradientUnits="userSpaceOnUse" x1="140.114" y1="-827.9352" x2="152.3055" y2="-827.9352" gradientTransform="matrix(1 0 0 -1 0 -702)">
				<stop  offset="0" style="stop-color:#FFE921"/>
				<stop  offset="1" style="stop-color:#F29900"/>
			</linearGradient>
			<path fill="url(#SVGID_1_)" d="M140.12,125.21c0.01,1.08,0.65,2.09,1.55,2.69c0.89,0.6,2,0.82,3.08,0.78
				c0.51-0.02,1.02-0.1,1.51-0.23c0.14-0.04,0.29-0.08,0.44-0.05c0.15,0.03,0.28,0.13,0.4,0.22c1.11,0.81,2.69,0.92,3.9,0.27
				c0.54-0.29,1.03-0.75,1.22-1.33c0.28-0.85-0.11-1.78-0.61-2.52c-0.33-0.49-0.71-0.94-1.18-1.3c-0.59-0.44-1.29-0.71-2-0.89
				c-1.04-0.26-2.12-0.36-3.18-0.29c-0.73,0.05-1.46,0.18-2.19,0.29c-0.47,0.07-0.93,0.14-1.4,0.19c-0.24,0.02-0.52,0.01-0.75,0.12
				C140.3,123.5,140.11,124.61,140.12,125.21L140.12,125.21z"/>
			
				<linearGradient id="SVGID_00000035529475370570696480000004639032792534511257_" gradientUnits="userSpaceOnUse" x1="146.1868" y1="-823.1191" x2="156.2423" y2="-823.1191" gradientTransform="matrix(1 0 0 -1 0 -702)">
				<stop  offset="0" style="stop-color:#F29900"/>
				<stop  offset="1" style="stop-color:#FFE921"/>
			</linearGradient>
			<path fill="url(#SVGID_00000035529475370570696480000004639032792534511257_)" d="M146.7,123.18c0.27,0.38,0.67,0.64,1.08,0.85
				c1.51,0.78,3.3,0.97,4.97,0.63c0.44-0.09,0.87-0.21,1.26-0.42c0.45-0.25,0.83-0.61,1.17-1.01c0.4-0.47,0.74-0.99,0.93-1.57
				c0.19-0.58,0.2-1.24-0.04-1.8c-0.25-0.56-0.77-1.01-1.38-1.08c-0.1-0.01-0.2-0.01-0.28-0.06c-0.09-0.05-0.15-0.13-0.21-0.21
				c-0.49-0.61-1.23-1.01-2-1.09c-0.78-0.08-1.58,0.18-2.18,0.68c-0.08,0.06-0.15,0.14-0.25,0.16c-0.08,0.02-0.17,0.01-0.26-0.01
				c-0.86-0.12-1.78,0.11-2.43,0.69c-0.58,0.52-0.9,1.33-0.87,2.1C146.21,121.75,146.29,122.61,146.7,123.18L146.7,123.18z"/>
			<path fill="#FFE921" d="M138.77,117.89c-0.65-0.23-1.33-0.38-2.01-0.29c-0.68,0.09-1.35,0.45-1.66,1.06
				c-0.16,0.31-0.23,0.66-0.24,1.01c-0.06,1.35,0.61,2.71,1.72,3.48c0.37,0.26,0.78,0.45,1.21,0.62c1.82,0.71,3.84,0.88,5.75,0.48
				c0.78-0.16,1.54-0.42,2.18-0.89c0.64-0.47,1.13-1.18,1.21-1.96c0.1-0.94-0.41-1.89-1.17-2.46s-1.74-0.79-2.69-0.76
				c-0.89,0.02-1.67,0.35-2.53,0.47c-0.3,0.04-0.47-0.06-0.72-0.23C139.47,118.19,139.14,118.02,138.77,117.89L138.77,117.89z"/>
			<ellipse fill="#3A85F7" cx="150.98" cy="120.49" rx="1.05" ry="0.63"/>
			<ellipse fill="#3A85F7" cx="146.09" cy="125.93" rx="1.05" ry="0.63"/>
			<ellipse fill="#3A85F7" cx="139.85" cy="120.87" rx="1.05" ry="0.63"/>
		</g>
	</g>
	<g id="Tree_00000011713126301010810810000009707693504885985943_">
		<g>
			<path fill="#5B4100" d="M193.48,132.01c-2.06-0.34-4.19,0.4-4.74,1.64c-0.09,0.21-0.14,0.42-0.13,0.63c0-0.01,0-0.01,0-0.02v6.18
				c0,1.03,1.14,1.97,2.86,2.25c2.06,0.34,4.19-0.4,4.74-1.64c0.09-0.2,0.13-0.41,0.13-0.61v-6.18c0,0,0,0.01,0,0.01
				C196.34,133.24,195.21,132.29,193.48,132.01L193.48,132.01z M189.21,135.51C189.21,135.51,189.2,135.51,189.21,135.51
				C189.2,135.51,189.2,135.51,189.21,135.51z M189.06,135.36c0,0-0.01-0.02-0.02-0.03C189.05,135.35,189.06,135.35,189.06,135.36z
				 M188.93,135.19c-0.01-0.01-0.01-0.02-0.02-0.03C188.91,135.17,188.92,135.18,188.93,135.19z M188.61,134.44c0,0,0,0.01,0,0.01
				C188.61,134.45,188.61,134.45,188.61,134.44z M188.8,135.01c0,0,0-0.01-0.01-0.01C188.8,135,188.8,135,188.8,135.01z
				 M188.72,134.84c0,0-0.01-0.02-0.01-0.03C188.72,134.82,188.72,134.83,188.72,134.84z M188.66,134.65c0-0.01-0.01-0.02-0.01-0.03
				C188.65,134.63,188.65,134.64,188.66,134.65z M189.37,135.65c0.01,0.01,0.02,0.02,0.03,0.03
				C189.39,135.67,189.37,135.66,189.37,135.65z M190.81,136.36c0.02,0.01,0.03,0.01,0.05,0.01
				C190.85,136.38,190.83,136.37,190.81,136.36z M189.57,135.8c0.01,0.01,0.02,0.01,0.03,0.02
				C189.59,135.81,189.58,135.81,189.57,135.8z M189.79,135.94C189.79,135.94,189.8,135.95,189.79,135.94
				C189.8,135.95,189.79,135.94,189.79,135.94z M190.01,136.06c0.01,0.01,0.03,0.01,0.04,0.02
				C190.04,136.07,190.02,136.06,190.01,136.06z M190.27,136.18c0.01,0.01,0.03,0.01,0.04,0.02
				C190.3,136.19,190.28,136.18,190.27,136.18z M190.55,136.28C190.55,136.28,190.56,136.28,190.55,136.28
				C190.56,136.28,190.55,136.28,190.55,136.28z M191.12,136.44c0.02,0,0.03,0.01,0.05,0.01
				C191.16,136.45,191.14,136.45,191.12,136.44z M196.32,134.43c0,0,0-0.01,0-0.02C196.33,134.41,196.33,134.42,196.32,134.43z
				 M196.26,134.73c0.01-0.01,0.01-0.03,0.01-0.04C196.26,134.7,196.26,134.71,196.26,134.73z M196.3,134.59
				c0-0.01,0.01-0.03,0.01-0.04C196.3,134.56,196.3,134.57,196.3,134.59z"/>
			<circle fill="#00854C" cx="192.55" cy="123.32" r="13.45"/>
		</g>
	</g>
	<g id="Notifications_00000066484113471432173830000004612281393779363740_">
		<path fill-rule="evenodd" clip-rule="evenodd" fill="#3D5FEC" d="M134.16,67.12l-64.88,0.07c-5.9,0.01-10.69,4.8-10.69,10.7
			c0,5.91,4.78,10.69,10.69,10.7h64.88l0,0c5.9-0.01,10.69-4.81,10.69-10.74C144.84,71.93,140.06,67.13,134.16,67.12L134.16,67.12z"
			/>
		<g>
			<path fill="#FDFD6D" d="M72.59,72.1l1.36,3.24l3.5,0.29c0.47,0.04,0.67,0.63,0.31,0.94l-2.66,2.29l0.81,3.42
				c0.11,0.46-0.39,0.83-0.8,0.58l-3-1.82l-3,1.82c-0.41,0.25-0.91-0.12-0.8-0.58l0.81-3.42l-2.66-2.29
				c-0.36-0.31-0.17-0.9,0.31-0.94l3.5-0.29l1.36-3.24C71.79,71.66,72.41,71.66,72.59,72.1L72.59,72.1z"/>
			<path fill="#FDFD6D" d="M87.39,72.1l1.36,3.24l3.5,0.29c0.47,0.04,0.67,0.63,0.31,0.94l-2.66,2.29l0.81,3.42
				c0.11,0.46-0.39,0.83-0.8,0.58l-3-1.82l-3,1.82c-0.41,0.25-0.91-0.12-0.8-0.58l0.81-3.42l-2.66-2.29
				c-0.36-0.31-0.17-0.9,0.31-0.94l3.5-0.29l1.36-3.24C86.59,71.66,87.21,71.66,87.39,72.1L87.39,72.1z"/>
			<path fill="#FDFD6D" d="M102.2,72.1l1.36,3.24l3.5,0.29c0.47,0.04,0.67,0.63,0.31,0.94l-2.66,2.29l0.81,3.42
				c0.11,0.46-0.39,0.83-0.8,0.58l-3-1.82l-3,1.82c-0.41,0.25-0.91-0.12-0.8-0.58l0.81-3.42l-2.66-2.29
				c-0.36-0.31-0.17-0.9,0.31-0.94l3.5-0.29l1.36-3.24C101.4,71.66,102.02,71.66,102.2,72.1L102.2,72.1z"/>
			<path fill="#FDFD6D" d="M117.01,72.1l1.36,3.24l3.5,0.29c0.47,0.04,0.67,0.63,0.31,0.94l-2.66,2.29l0.81,3.42
				c0.11,0.46-0.39,0.83-0.8,0.58l-3-1.82l-3,1.82c-0.41,0.25-0.91-0.12-0.8-0.58l0.81-3.42l-2.66-2.29
				c-0.36-0.31-0.17-0.9,0.31-0.94l3.5-0.29l1.36-3.24C116.2,71.66,116.83,71.66,117.01,72.1L117.01,72.1z"/>
			<path fill="#FDFD6D" d="M131.81,72.1l1.36,3.24l3.5,0.29c0.47,0.04,0.67,0.63,0.31,0.94l-2.66,2.29l0.81,3.42
				c0.11,0.46-0.39,0.83-0.8,0.58l-3-1.82l-3,1.82c-0.41,0.25-0.91-0.12-0.8-0.58l0.81-3.42l-2.66-2.29
				c-0.36-0.31-0.17-0.9,0.31-0.94l3.5-0.29l1.36-3.24C131.01,71.66,131.63,71.66,131.81,72.1L131.81,72.1z"/>
		</g>
		<g>
			<path fill="#FF4365" d="M187.08,19.89c-3.4-6.55-9.24-11.48-16.28-13.71l0,0c-5.26-1.62-10.86-1.7-16.16-0.17
				c-5.3,1.53-9.98,4.6-13.55,8.82l0,0c-4.23,5.01-6.5,11.35-6.5,17.9c-0.04,4.56,0.87,9.11,2.73,13.26
				c2.9,6.38,7.71,11.52,12.68,17.98l0,0c1.57,2.11,3.15,4.31,4.72,6.71c5.63,8.7,4.06,13.96,7.71,13.96
				c3.64,0,2.07-5.22,7.71-13.96c9.28-14.5,20.09-21.09,20.09-37.99C190.23,28.21,189.15,23.82,187.08,19.89L187.08,19.89
				L187.08,19.89z"/>
			<g>
				<path fill="#FFE921" d="M174.25,19.09c1.52,0.08,2.94-0.58,3.63-1.85c1.01-1.86,0.08-4.33-2.08-5.51
					c-2.16-1.18-4.74-0.62-5.75,1.24c-0.69,1.27-0.48,2.83,0.42,4.06c-5.78-1.98-12.31,0.43-15.32,5.98
					c-0.34,0.63-0.62,1.27-0.85,1.92c-1.32,3.72-4.61,6.39-8.52,6.92l0,0c-2.06,0.28-3.97,1.51-5.03,3.47
					c-1.79,3.29-0.57,7.4,2.71,9.19l22.41,12.19c3.29,1.79,7.4,0.57,9.19-2.71c1.07-1.97,1.06-4.23,0.18-6.11l0,0
					c-1.68-3.58-1.22-7.78,1.18-10.92c0.42-0.54,0.81-1.13,1.15-1.75C180.58,29.65,179.05,22.86,174.25,19.09L174.25,19.09z
					 M171.89,13.97c0.45-0.83,1.79-1.02,2.92-0.41c1.13,0.61,1.7,1.83,1.24,2.67c-0.45,0.83-1.79,1.02-2.92,0.41
					C172,16.02,171.44,14.8,171.89,13.97z"/>
				<path d="M171.85,56.35c-1.29,2.38-8.12,1.16-18.02-4.22c-9.9-5.38-14.63-10.46-13.33-12.84c1.29-2.38,8.12-1.16,18.02,4.22
					C168.41,48.9,173.14,53.97,171.85,56.35z"/>
				
					<linearGradient id="SVGID_00000090265140555122305090000013243839442934584738_" gradientUnits="userSpaceOnUse" x1="152.9813" y1="-755.1255" x2="159.7152" y2="-744.3051" gradientTransform="matrix(1 0 0 -1 0 -702)">
					<stop  offset="0" style="stop-color:#FFE921"/>
					<stop  offset="1" style="stop-color:#F29900"/>
				</linearGradient>
				<path fill="url(#SVGID_00000090265140555122305090000013243839442934584738_)" d="M161.69,45.34c-0.99-0.6-2.05-1.21-3.18-1.82
					c-1.13-0.61-2.21-1.17-3.26-1.68c-1.91,0.92-3.87,2.54-4.99,4.59c-0.28,0.52-0.52,1.04-0.7,1.54c-0.18,0.48-0.31,0.96-0.4,1.42
					c-0.51,2.69,0.48,4.94,2.78,6.19c2.3,1.25,4.73,0.86,6.71-1.03c0.34-0.32,0.66-0.68,0.96-1.09c0.33-0.43,0.64-0.91,0.92-1.44
					C161.67,49.96,161.96,47.44,161.69,45.34L161.69,45.34z"/>
			</g>
		</g>
	</g>
</g>
</svg>
