<?xml version="1.0" encoding="utf-8"?>
<!-- Generator: Adobe Illustrator 30.0.0, SVG Export Plug-In . SVG Version: 9.03 Build 0)  -->
<svg version="1.1" baseProfile="basic" id="Layer_1"
	 xmlns="http://www.w3.org/2000/svg" xmlns:xlink="http://www.w3.org/1999/xlink" x="0px" y="0px" width="280px" height="156px"
	 viewBox="0 0 280 156" xml:space="preserve">
<g>
	<g id="Land_00000020372135842330623740000003464645230049500068_">
		<path fill="#003439" d="M105.99,86.24l-19.97,34.72c-2.25,3.91-0.18,8.9,4.18,10.07l74.76,20.03c5.7,1.53,11.71-0.97,14.65-6.08
			l18.38-31.96c1.86-3.24,0.15-7.36-3.46-8.33l-80.81-21.65C110.71,82.22,107.54,83.54,105.99,86.24L105.99,86.24z"/>
		<polygon fill="#004E41" points="100.49,123.44 95.33,132.4 117.03,138.22 122.19,129.26 		"/>
	</g>
	<g id="Shop">
		<g>
			<path fill="#004E41" d="M189.48,76.33c0-2.35-1.61-4.4-3.89-4.96l-69.66-17.09c-2.28-0.56-4.66,0.46-5.83,2.49l-15.24,26.5
				l0.09,0.02v38.68l77.31,20.72v0.02l0.01-0.02l0.08,0.02v-0.15l17.13-29.79L189.48,76.33L189.48,76.33z"/>
			<path fill="#0D6545" d="M189.48,76.33c0-0.97-0.28-1.89-0.76-2.68l-16.45,28.61v40.42l0,0v0.02l0.09-0.15l0,0l17.13-29.79V76.33
				L189.48,76.33z"/>
			<path fill="#15173D" d="M131.67,126.49l27.89,7.47c2.31,0.62,4.57-1.12,4.57-3.51v-24.5c0-1.65-1.11-3.09-2.71-3.51l-27.89-7.3
				c-2.3-0.6-4.55,1.13-4.55,3.51v24.34C128.98,124.63,130.08,126.07,131.67,126.49L131.67,126.49z"/>
			<polygon fill="#003439" points="122.19,100.48 122.19,129.26 100.49,123.44 100.49,95.42 			"/>
			<path fill="#005B5B" d="M105.04,121.04l11.71,3.14c1.08,0.29,2.14-0.52,2.14-1.64v-7.01c0-0.77-0.52-1.44-1.26-1.64l-11.71-3.14
				c-1.08-0.29-2.14,0.52-2.14,1.64v7.01C103.78,120.17,104.3,120.85,105.04,121.04z"/>
			<g>
				<path fill="#009E7C" d="M123.1,92.92l1.39-2.41l-15.93-3.91l-1.38,2.39c-2.03,3.53-3.1,7.54-3.1,11.62v2.03l15.92,3.91v-2.01
					C120,100.46,121.07,96.45,123.1,92.92L123.1,92.92z"/>
				<path fill="#009E7C" d="M140.42,94.42l-1.4,2.43c-2.03,3.54-3.1,7.54-3.1,11.62v1.99l15.92,3.91v-1.96
					c0-4.08,1.07-8.09,3.1-11.62l1.41-2.45L140.42,94.42L140.42,94.42z"/>
			</g>
			<g>
				<path fill="#0D6545" d="M167.83,118.29l-15.99-3.92v-1.96c0-4.08,1.07-8.09,3.1-11.62l1.41-2.45l16,3.93l0,0v0v8.17
					L167.83,118.29L167.83,118.29z"/>
				<path fill="#0D6545" d="M139.03,96.85l1.4-2.43l-15.93-3.91l-1.39,2.41c-2.03,3.54-3.1,7.54-3.1,11.62v2.01l15.92,3.91v-1.99
					C135.92,104.39,136.99,100.39,139.03,96.85L139.03,96.85z"/>
				<path fill="#0D6545" d="M107.18,88.99l1.38-2.39l-13.61-3.34l-1.51,2.63c-1.97,3.43-3.01,7.31-3.01,11.26v0.62
					c0,0.9,0.61,1.68,1.48,1.89l12.16,2.98v-2.03C104.08,96.53,105.15,92.52,107.18,88.99L107.18,88.99z"/>
			</g>
			<path fill="#003936" d="M172.35,102.26l-1.51,2.62c-1.97,3.43-3.01,7.31-3.01,11.26v2.14l4.52-7.85L172.35,102.26L172.35,102.26z
				"/>
			
				<linearGradient id="SVGID_00000011012286526102880190000003865477603196340632_" gradientUnits="userSpaceOnUse" x1="140.114" y1="-5875.5259" x2="152.3055" y2="-5875.5259" gradientTransform="matrix(1 0 0 -1 0 -5750)">
				<stop  offset="0" style="stop-color:#F29900"/>
				<stop  offset="1" style="stop-color:#8F4D13"/>
			</linearGradient>
			<path fill="url(#SVGID_00000011012286526102880190000003865477603196340632_)" d="M140.12,124.81c0.01,1.08,0.65,2.09,1.55,2.69
				c0.89,0.6,2,0.82,3.08,0.78c0.51-0.02,1.02-0.1,1.51-0.23c0.14-0.04,0.29-0.08,0.44-0.05c0.15,0.03,0.28,0.13,0.4,0.22
				c1.11,0.81,2.69,0.92,3.9,0.27c0.54-0.29,1.03-0.75,1.22-1.33c0.28-0.85-0.11-1.78-0.61-2.52c-0.33-0.49-0.71-0.94-1.18-1.3
				c-0.59-0.44-1.29-0.71-2-0.89c-1.04-0.26-2.12-0.36-3.18-0.29c-0.73,0.05-1.46,0.18-2.19,0.29c-0.47,0.07-0.93,0.14-1.4,0.19
				c-0.24,0.02-0.52,0.01-0.75,0.12C140.3,123.09,140.11,124.2,140.12,124.81L140.12,124.81z"/>
			
				<linearGradient id="SVGID_00000147914629061915384690000001795418696109461921_" gradientUnits="userSpaceOnUse" x1="146.1868" y1="-5870.4624" x2="156.2423" y2="-5870.4624" gradientTransform="matrix(1 0 0 -1 0 -5750)">
				<stop  offset="0" style="stop-color:#8F4D13"/>
				<stop  offset="1" style="stop-color:#F29900"/>
			</linearGradient>
			<path fill="url(#SVGID_00000147914629061915384690000001795418696109461921_)" d="M146.7,122.52c0.27,0.38,0.67,0.64,1.08,0.85
				c1.51,0.78,3.3,0.97,4.97,0.63c0.44-0.09,0.87-0.21,1.26-0.42c0.45-0.25,0.83-0.61,1.17-1.01c0.4-0.47,0.74-0.99,0.93-1.57
				c0.19-0.58,0.2-1.24-0.04-1.8c-0.25-0.56-0.77-1.01-1.38-1.08c-0.1-0.01-0.2-0.01-0.28-0.06c-0.09-0.05-0.15-0.13-0.21-0.21
				c-0.49-0.61-1.23-1.01-2-1.09c-0.78-0.08-1.58,0.18-2.18,0.68c-0.08,0.06-0.15,0.14-0.25,0.16c-0.08,0.02-0.17,0.01-0.26-0.01
				c-0.86-0.12-1.78,0.11-2.43,0.69c-0.58,0.52-0.9,1.33-0.87,2.1C146.21,121.09,146.29,121.95,146.7,122.52L146.7,122.52z"/>
			<path fill="#F29900" d="M138.77,117.48c-0.65-0.23-1.33-0.38-2.01-0.29c-0.68,0.09-1.35,0.45-1.66,1.06
				c-0.16,0.31-0.23,0.66-0.24,1.01c-0.06,1.35,0.61,2.71,1.72,3.48c0.37,0.26,0.78,0.45,1.21,0.62c1.82,0.71,3.84,0.88,5.75,0.48
				c0.78-0.16,1.54-0.42,2.18-0.89c0.64-0.47,1.13-1.18,1.21-1.96c0.1-0.94-0.41-1.89-1.17-2.46c-0.76-0.57-1.74-0.79-2.69-0.76
				c-0.89,0.02-1.67,0.35-2.53,0.47c-0.3,0.04-0.47-0.06-0.72-0.23C139.47,117.78,139.14,117.61,138.77,117.48L138.77,117.48z"/>
			<ellipse fill="#232765" cx="150.98" cy="120.08" rx="1.05" ry="0.63"/>
			<ellipse fill="#232765" cx="146.09" cy="125.53" rx="1.05" ry="0.63"/>
			<ellipse fill="#232765" cx="139.85" cy="120.46" rx="1.05" ry="0.63"/>
		</g>
	</g>
	<g id="Tree_00000122692381562551630160000015936107756930039999_">
		<g>
			<path fill="#5B4100" d="M193.48,131.6c-2.06-0.34-4.19,0.4-4.74,1.64c-0.09,0.21-0.14,0.42-0.13,0.63c0-0.01,0-0.01,0-0.02v6.18
				c0,1.03,1.14,1.97,2.86,2.25c2.06,0.34,4.19-0.4,4.74-1.64c0.09-0.2,0.13-0.41,0.13-0.61v-6.18c0,0,0,0.01,0,0.01
				C196.34,132.83,195.21,131.88,193.48,131.6L193.48,131.6z M189.21,135.1C189.21,135.1,189.2,135.1,189.21,135.1
				C189.2,135.1,189.2,135.1,189.21,135.1z M189.06,134.95c0,0-0.01-0.02-0.02-0.03C189.05,134.94,189.06,134.95,189.06,134.95z
				 M188.93,134.78c-0.01-0.01-0.01-0.02-0.02-0.03C188.91,134.76,188.92,134.77,188.93,134.78z M188.61,134.03c0,0,0,0.01,0,0.01
				C188.61,134.04,188.61,134.04,188.61,134.03z M188.8,134.6c0,0,0-0.01-0.01-0.01C188.8,134.59,188.8,134.59,188.8,134.6z
				 M188.72,134.43c0,0-0.01-0.02-0.01-0.03C188.72,134.42,188.72,134.42,188.72,134.43z M188.66,134.25c0-0.01-0.01-0.02-0.01-0.03
				C188.65,134.22,188.65,134.23,188.66,134.25z M189.37,135.24c0.01,0.01,0.02,0.02,0.03,0.03
				C189.39,135.26,189.37,135.25,189.37,135.24z M190.81,135.96c0.02,0.01,0.03,0.01,0.05,0.01
				C190.85,135.97,190.83,135.96,190.81,135.96z M189.57,135.39c0.01,0.01,0.02,0.01,0.03,0.02
				C189.59,135.41,189.58,135.4,189.57,135.39z M189.79,135.53C189.79,135.53,189.8,135.54,189.79,135.53
				C189.8,135.54,189.79,135.53,189.79,135.53z M190.01,135.65c0.01,0.01,0.03,0.01,0.04,0.02
				C190.04,135.66,190.02,135.65,190.01,135.65z M190.27,135.77c0.01,0.01,0.03,0.01,0.04,0.02
				C190.3,135.78,190.28,135.77,190.27,135.77z M190.55,135.87C190.55,135.87,190.56,135.87,190.55,135.87
				C190.56,135.88,190.55,135.88,190.55,135.87z M191.12,136.03c0.02,0,0.03,0.01,0.05,0.01
				C191.16,136.04,191.14,136.04,191.12,136.03z M196.32,134.02c0,0,0-0.01,0-0.02C196.33,134,196.33,134.01,196.32,134.02z
				 M196.26,134.32c0.01-0.01,0.01-0.03,0.01-0.04C196.26,134.29,196.26,134.3,196.26,134.32z M196.3,134.18
				c0-0.01,0.01-0.03,0.01-0.04C196.3,134.15,196.3,134.16,196.3,134.18z"/>
			<circle fill="#009E7C" cx="192.55" cy="122.91" r="13.45"/>
		</g>
	</g>
	<g id="Notifications">
		<path fill-rule="evenodd" clip-rule="evenodd" fill="#3D5FEC" d="M134.16,66.71l-64.88,0.07c-5.9,0.01-10.69,4.8-10.69,10.7
			c0,5.91,4.78,10.69,10.69,10.7h64.88l0,0c5.9-0.01,10.69-4.81,10.69-10.74C144.84,71.52,140.06,66.72,134.16,66.71L134.16,66.71z"
			/>
		<g>
			<path fill="#FDFD6D" d="M72.59,71.69l1.36,3.24l3.5,0.29c0.47,0.04,0.67,0.63,0.31,0.94l-2.66,2.29l0.81,3.42
				c0.11,0.46-0.39,0.83-0.8,0.58l-3-1.82l-3,1.82c-0.41,0.25-0.91-0.12-0.8-0.58l0.81-3.42l-2.66-2.29
				c-0.36-0.31-0.17-0.9,0.31-0.94l3.5-0.29l1.36-3.24C71.79,71.25,72.41,71.25,72.59,71.69L72.59,71.69z"/>
			<path fill="#FDFD6D" d="M87.39,71.69l1.36,3.24l3.5,0.29c0.47,0.04,0.67,0.63,0.31,0.94l-2.66,2.29l0.81,3.42
				c0.11,0.46-0.39,0.83-0.8,0.58l-3-1.82l-3,1.82c-0.41,0.25-0.91-0.12-0.8-0.58l0.81-3.42l-2.66-2.29
				c-0.36-0.31-0.17-0.9,0.31-0.94l3.5-0.29l1.36-3.24C86.59,71.25,87.21,71.25,87.39,71.69L87.39,71.69z"/>
			<path fill="#FDFD6D" d="M102.2,71.69l1.36,3.24l3.5,0.29c0.47,0.04,0.67,0.63,0.31,0.94l-2.66,2.29l0.81,3.42
				c0.11,0.46-0.39,0.83-0.8,0.58l-3-1.82l-3,1.82c-0.41,0.25-0.91-0.12-0.8-0.58l0.81-3.42l-2.66-2.29
				c-0.36-0.31-0.17-0.9,0.31-0.94l3.5-0.29l1.36-3.24C101.4,71.25,102.02,71.25,102.2,71.69L102.2,71.69z"/>
			<path fill="#FDFD6D" d="M117.01,71.69l1.36,3.24l3.5,0.29c0.47,0.04,0.67,0.63,0.31,0.94l-2.66,2.29l0.81,3.42
				c0.11,0.46-0.39,0.83-0.8,0.58l-3-1.82l-3,1.82c-0.41,0.25-0.91-0.12-0.8-0.58l0.81-3.42l-2.66-2.29
				c-0.36-0.31-0.17-0.9,0.31-0.94l3.5-0.29l1.36-3.24C116.2,71.25,116.83,71.25,117.01,71.69L117.01,71.69z"/>
			<path fill="#FDFD6D" d="M131.81,71.69l1.36,3.24l3.5,0.29c0.47,0.04,0.67,0.63,0.31,0.94l-2.66,2.29l0.81,3.42
				c0.11,0.46-0.39,0.83-0.8,0.58l-3-1.82l-3,1.82c-0.41,0.25-0.91-0.12-0.8-0.58l0.81-3.42l-2.66-2.29
				c-0.36-0.31-0.17-0.9,0.31-0.94l3.5-0.29l1.36-3.24C131.01,71.25,131.63,71.25,131.81,71.69L131.81,71.69z"/>
		</g>
		<g>
			<path fill="#FF4365" d="M187.08,19.48c-3.4-6.55-9.24-11.48-16.28-13.71l0,0c-5.26-1.62-10.86-1.7-16.16-0.17
				c-5.3,1.53-9.98,4.6-13.55,8.82l0,0c-4.23,5.01-6.5,11.35-6.5,17.9c-0.04,4.56,0.87,9.11,2.73,13.26
				c2.9,6.38,7.71,11.52,12.68,17.98l0,0c1.57,2.11,3.15,4.31,4.72,6.71c5.63,8.7,4.06,13.96,7.71,13.96
				c3.64,0,2.07-5.22,7.71-13.96c9.28-14.5,20.09-21.09,20.09-37.99C190.23,27.8,189.15,23.41,187.08,19.48L187.08,19.48
				L187.08,19.48z"/>
			<g>
				<path fill="#FBBC04" d="M174.25,18.68c1.52,0.08,2.94-0.58,3.63-1.85c1.01-1.86,0.08-4.33-2.08-5.51
					c-2.16-1.18-4.74-0.62-5.75,1.24c-0.69,1.27-0.48,2.83,0.42,4.06c-5.78-1.98-12.31,0.43-15.32,5.98
					c-0.34,0.63-0.62,1.27-0.85,1.92c-1.32,3.72-4.61,6.39-8.52,6.92l0,0c-2.06,0.28-3.97,1.51-5.03,3.47
					c-1.79,3.29-0.57,7.4,2.71,9.19l22.41,12.19c3.29,1.79,7.4,0.57,9.19-2.71c1.07-1.97,1.06-4.23,0.18-6.11l0,0
					c-1.68-3.58-1.22-7.78,1.18-10.92c0.42-0.54,0.81-1.13,1.15-1.75C180.58,29.24,179.05,22.45,174.25,18.68L174.25,18.68z
					 M171.89,13.56c0.45-0.83,1.79-1.02,2.92-0.41c1.13,0.61,1.7,1.83,1.24,2.67c-0.45,0.83-1.79,1.02-2.92,0.41
					C172,15.61,171.44,14.39,171.89,13.56z"/>
				<path d="M171.85,55.94c-1.29,2.38-8.12,1.16-18.02-4.22c-9.9-5.38-14.63-10.46-13.33-12.84c1.29-2.38,8.12-1.16,18.02,4.22
					C168.41,48.49,173.14,53.56,171.85,55.94z"/>
				
					<linearGradient id="SVGID_00000070798818526429609350000012746717882242902195_" gradientUnits="userSpaceOnUse" x1="152.9813" y1="-5802.7163" x2="159.7152" y2="-5791.896" gradientTransform="matrix(1 0 0 -1 0 -5750)">
					<stop  offset="0" style="stop-color:#FBBC04"/>
					<stop  offset="1" style="stop-color:#E37400"/>
				</linearGradient>
				<path fill="url(#SVGID_00000070798818526429609350000012746717882242902195_)" d="M161.69,44.93c-0.99-0.6-2.05-1.21-3.18-1.82
					s-2.21-1.17-3.26-1.68c-1.91,0.92-3.87,2.54-4.99,4.59c-0.28,0.52-0.52,1.04-0.7,1.54c-0.18,0.48-0.31,0.96-0.4,1.42
					c-0.51,2.69,0.48,4.94,2.78,6.19c2.3,1.25,4.73,0.86,6.71-1.03c0.34-0.32,0.66-0.68,0.96-1.09c0.33-0.43,0.64-0.91,0.92-1.44
					C161.67,49.55,161.96,47.03,161.69,44.93L161.69,44.93z"/>
			</g>
		</g>
	</g>
</g>
</svg>
