<svg version="1.1" xmlns:xlink="http://www.w3.org/1999/xlink" x="0px" y="0px" width="410px" height="176px" viewBox="0 0 410 176" enable-background="new 0 0 410 176" xml:space="preserve"><linearGradient id="a" gradientUnits="userSpaceOnUse" x1="-845.7654" y1="170.2379" x2="-878.2667" y2="170.2379" gradientTransform="matrix(-1 0 0 1 -827.5073 0)"><stop offset="0" style="stop-color:#EFF0F2;stop-opacity:0.2"/><stop offset="1" style="stop-color:#D0D3D9;stop-opacity:0.8"/></linearGradient><rect x="18.26" y="166.95" fill-rule="evenodd" clip-rule="evenodd" fill="url(#a)" width="32.5" height="6.57"/><linearGradient id="b" gradientUnits="userSpaceOnUse" x1="63.9727" y1="108.2064" x2="63.9727" y2="173.5253"><stop offset="0" style="stop-color:#EFF0F2"/><stop offset="1" style="stop-color:#DADCE1"/></linearGradient><polygon fill-rule="evenodd" clip-rule="evenodd" fill="url(#b)" points="77.23,108.21 50.72,134.31 50.72,173.53 77.23,173.53"/><rect x="77.23" y="108.21" fill-rule="evenodd" clip-rule="evenodd" fill="#F0F1F2" width="62.51" height="65.32"/><linearGradient id="c" gradientUnits="userSpaceOnUse" x1="109.1389" y1="156.3124" x2="109.1389" y2="174.5075" gradientTransform="matrix(1 0 0 2.9681 0 -346.3846)"><stop offset="0" style="stop-color:#346CF2"/><stop offset="0.8543" style="stop-color:#346CF2;stop-opacity:0.5707"/><stop offset="0.9949" style="stop-color:#346CF2;stop-opacity:0.5"/></linearGradient><rect x="105.16" y="154.67" fill-rule="evenodd" clip-rule="evenodd" fill="url(#c)" width="7.95" height="18.2"/><linearGradient id="d" gradientUnits="userSpaceOnUse" x1="-1108.6654" y1="170.2379" x2="-1141.1667" y2="170.2379" gradientTransform="matrix(-1 0 0 1 -827.5073 0)"><stop offset="0" style="stop-color:#EFF0F2;stop-opacity:0.2"/><stop offset="0.9987" style="stop-color:#D0D3D9;stop-opacity:0.8"/></linearGradient><rect x="281.16" y="166.95" fill-rule="evenodd" clip-rule="evenodd" fill="url(#d)" width="32.5" height="6.57"/><linearGradient id="e" gradientUnits="userSpaceOnUse" x1="326.9727" y1="108.2064" x2="326.9727" y2="173.5253"><stop offset="0" style="stop-color:#EFF0F2"/><stop offset="1" style="stop-color:#DADCE1"/></linearGradient><polygon fill-rule="evenodd" clip-rule="evenodd" fill="url(#e)" points="340.23,108.21 313.72,134.31 313.72,173.53 340.23,173.53"/><rect x="340.23" y="108.21" fill-rule="evenodd" clip-rule="evenodd" fill="#F0F1F2" width="62.51" height="65.32"/><linearGradient id="f" gradientUnits="userSpaceOnUse" x1="372.1389" y1="154.7412" x2="372.1389" y2="172.8665"><stop offset="0" style="stop-color:#F7B00C"/><stop offset="1" style="stop-color:#F7B00C;stop-opacity:0.5"/></linearGradient><rect x="368.16" y="154.74" fill-rule="evenodd" clip-rule="evenodd" fill="url(#f)" width="7.95" height="18.13"/><linearGradient id="g" gradientUnits="userSpaceOnUse" x1="294.6696" y1="166.9505" x2="294.6696" y2="122.9041"><stop offset="4.257606e-03" style="stop-color:#EFF0F2;stop-opacity:0.1"/><stop offset="1" style="stop-color:#DADCE1"/></linearGradient><path fill-rule="evenodd" clip-rule="evenodd" fill="url(#g)" d="M294.53,122.9c-0.19,0.28-5.4,23.44-5.4,23.44h2.7	l-2.7,13.02h4.37v7.58h2.98v-7.49l3.72-0.09l-2.14-12.84h2.14L294.53,122.9z"/><linearGradient id="h" gradientUnits="userSpaceOnUse" x1="294.6696" y1="166.9505" x2="294.6696" y2="122.9041"><stop offset="0" style="stop-color:#FFFFFF;stop-opacity:0"/><stop offset="0.2466" style="stop-color:#F2F5F7;stop-opacity:0.2466"/><stop offset="0.5783" style="stop-color:#E8EDF2;stop-opacity:0.5783"/><stop offset="1" style="stop-color:#E5EBF0"/></linearGradient><path opacity="0.7" fill-rule="evenodd" clip-rule="evenodd" fill="url(#h)" d="M294.53,122.9	c-0.19,0.28-5.4,23.44-5.4,23.44h2.7l-2.7,13.02h4.37v7.58h2.98v-7.49l3.72-0.09l-2.14-12.84h2.14L294.53,122.9z"/><linearGradient id="i" gradientUnits="userSpaceOnUse" x1="285.7394" y1="167.6947" x2="285.7394" y2="136.9732"><stop offset="0" style="stop-color:#FFFFFF;stop-opacity:0"/><stop offset="0.2466" style="stop-color:#F2F5F7;stop-opacity:0.2466"/><stop offset="0.5783" style="stop-color:#E8EDF2;stop-opacity:0.5783"/><stop offset="1" style="stop-color:#E5EBF0"/></linearGradient><path opacity="0.7" fill-rule="evenodd" clip-rule="evenodd" fill="url(#i)" d="M285.64,136.97	c-0.13,0.19-3.76,16.35-3.76,16.35h1.88l-1.88,9.08h3.05v5.29H287v-5.22l2.6-0.06l-1.49-8.95h1.49L285.64,136.97z"/><linearGradient id="j" gradientUnits="userSpaceOnUse" x1="159.8763" y1="174.5551" x2="159.8763" y2="140.1475"><stop offset="0" style="stop-color:#FFFFFF;stop-opacity:0"/><stop offset="0.2466" style="stop-color:#F2F5F7;stop-opacity:0.2466"/><stop offset="0.5783" style="stop-color:#E8EDF2;stop-opacity:0.5783"/><stop offset="1" style="stop-color:#E5EBF0"/></linearGradient><path opacity="0.7" fill-rule="evenodd" clip-rule="evenodd" fill="url(#j)" d="M157.16,174.56v-11.72	c0,0-0.98-0.91-1.05-1.53c0,0-4.6,2.65-7.47-0.7c0,0-2.16-3.84,1.12-6.91c-0.15,0.14-1.5-2-1.57-2.15c-0.8-1.81-0.22-3.94,1.01-5.42	c1.22-1.47,3.02-1.58,4.74-1.01c-0.28-0.09,0.6-2.53,0.69-2.71c1.11-2.15,3.89-2.67,6.03-1.94c2.47,0.84,3.88,4,2.21,6.26	c0.21-0.28,1.77-0.2,2.13-0.19c0.76,0.01,1.53,0.11,2.24,0.38c1.19,0.46,2.05,1.42,2.38,2.65c0.19,0.73,0.16,1.54,0.06,2.28	c-0.1,0.78-0.37,1.06,0.12,1.63c0.82,0.95,1.85,1.95,2.05,3.25c0.33,2.12-0.79,4.5-2.91,5.15c-0.71,0.22-1.46,0.26-2.2,0.21	c-0.38-0.03-1.53-0.4-1.84-0.14c0,0-2.24,1.81-5.13,1.53v4.05l5.41-3.98l1.95,2.23l-7.36,5.86v2.93H157.16z"/><g><path fill="#E8EBED" d="M209.6,173.03h-28.54l0.03-64.24l12.27-32.26l16.24,32.16V173.03z M182.01,172.08h26.65v-63.16 l-15.17-30.04l-11.48,30.17V172.08z"/><path fill="#E8EBED" d="M274.4,173.03h-65.75v-64.55h65.75V173.03z M209.6,172.08h63.85v-62.65H209.6V172.08z"/><path fill="#E8EBED" d="M274.7,109.43h-65.86l-16.18-32.2h65.86l0.13,0.26L274.7,109.43z M209.42,108.48h63.74l-15.23-30.31h-63.74 L209.42,108.48z"/><linearGradient id="k" gradientUnits="userSpaceOnUse" x1="240.9843" y1="153.002" x2="240.9843" y2="173.799" gradientTransform="matrix(1 0 0 2.9681 0 -346.3846)"><stop offset="0.7822" style="stop-color:#EB4236"/><stop offset="1" style="stop-color:#EB4236;stop-opacity:0.5"/></linearGradient><path fill-rule="evenodd" clip-rule="evenodd" fill="url(#k)" d="M237,170.69c-0.11,0,0.05-20.8,0.05-20.8H245v20.8H237z"/><g><rect x="208.31" y="172.11" fill="#9FA2A3" width="1" height="1.42"/><path fill="#9FA2A3" d="M209.31,169.15h-1v-2.96h1V169.15z M209.31,163.23h-1v-2.96h1V163.23z M209.31,157.31h-1v-2.96h1V157.31z M209.31,151.39h-1v-2.96h1V151.39z M209.31,145.47h-1v-2.96h1V145.47z M209.31,139.54h-1v-2.96h1V139.54z M209.31,133.62h-1 v-2.96h1V133.62z M209.31,127.7h-1v-2.96h1V127.7z M209.31,121.78h-1v-2.96h1V121.78z M209.31,115.86h-1v-2.96h1V115.86z"/><polygon fill="#9FA2A3" points="209.31,109.94 208.31,109.94 208.31,108.03 210.23,108.03 210.23,109.03 209.31,109.03"/><path fill="#9FA2A3" d="M268.48,109.03h-2.91v-1h2.91V109.03z M262.65,109.03h-2.91v-1h2.91V109.03z M256.83,109.03h-2.91v-1h2.91 V109.03z M251,109.03h-2.91v-1H251V109.03z M245.18,109.03h-2.91v-1h2.91V109.03z M239.35,109.03h-2.91v-1h2.91V109.03z M233.53,109.03h-2.91v-1h2.91V109.03z M227.7,109.03h-2.91v-1h2.91V109.03z M221.88,109.03h-2.91v-1h2.91V109.03z M216.05,109.03 h-2.91v-1h2.91V109.03z"/><rect x="271.39" y="108.03" fill="#9FA2A3" width="1.42" height="1"/></g><g><rect x="272.81" y="170.61" fill="#9FA2A3" width="1" height="1.42"/><path fill="#9FA2A3" d="M273.81,167.74h-1v-2.87h1V167.74z M273.81,162.01h-1v-2.87h1V162.01z M273.81,156.27h-1v-2.87h1V156.27z M273.81,150.54h-1v-2.87h1V150.54z M273.81,144.81h-1v-2.87h1V144.81z M273.81,139.07h-1v-2.87h1V139.07z M273.81,133.34h-1 v-2.87h1V133.34z M273.81,127.61h-1v-2.87h1V127.61z M273.81,121.87h-1v-2.87h1V121.87z M273.81,116.14h-1v-2.87h1V116.14z M273.81,110.41h-1v-1.27l-0.6-1.23l0.9-0.44l0.7,1.56V110.41z M270.96,105.32l-1.25-2.58l0.9-0.44l1.25,2.58L270.96,105.32z M268.46,100.16l-1.25-2.58l0.9-0.44l1.25,2.58L268.46,100.16z M265.97,95l-1.25-2.58l0.9-0.44l1.25,2.58L265.97,95z M263.47,89.84l-1.25-2.58l0.9-0.44l1.25,2.58L263.47,89.84z M260.97,84.68l-1.25-2.58l0.9-0.44l1.25,2.58L260.97,84.68z"/><polygon fill="#9FA2A3" points="258.48,79.52 257.99,78.53 256.89,78.53 256.89,77.53 258.62,77.52 259.38,79.08"/><path fill="#9FA2A3" d="M197.26,78.66l0-1l2.71-0.01l0,1L197.26,78.66z M202.68,78.65l0-1l2.71-0.01l0,1L202.68,78.65z M208.1,78.64l0-1l2.71-0.01l0,1L208.1,78.64z M213.52,78.63l0-1l2.71-0.01l0,1L213.52,78.63z M218.95,78.61l0-1l2.71-0.01l0,1 L218.95,78.61z M224.37,78.6l0-1l2.71-0.01l0,1L224.37,78.6z M229.79,78.59l0-1l2.71-0.01l0,1L229.79,78.59z M235.21,78.58l0-1 l2.71-0.01l0,1L235.21,78.58z M240.63,78.57l0-1l2.71-0.01l0,1L240.63,78.57z M246.05,78.55l0-1l2.71-0.01l0,1L246.05,78.55z M251.47,78.54l0-1l2.71-0.01l0,1L251.47,78.54z"/><polygon fill="#9FA2A3" points="193.33,79.66 192.32,77.67 194.55,77.67 194.55,78.67 193.95,78.67 194.22,79.21"/><path fill="#9FA2A3" d="M206.28,105.31l-1.29-2.56l0.89-0.45l1.29,2.56L206.28,105.31z M203.69,100.18l-1.29-2.56l0.89-0.45 l1.29,2.56L203.69,100.18z M201.1,95.05l-1.3-2.56l0.89-0.45l1.3,2.56L201.1,95.05z M198.51,89.92l-1.29-2.57l0.89-0.45l1.29,2.56 L198.51,89.92z M195.92,84.79l-1.29-2.56l0.89-0.45l1.29,2.56L195.92,84.79z"/><rect x="207.84" y="107.57" transform="matrix(0.8928 -0.4505 0.4505 0.8928 -26.4426 105.4704)" fill="#9FA2A3" width="1" height="1.42"/></g><path fill="#9FA2A3" d="M273.31,173.53h-2.16v-1h2.16V173.53z M268.32,173.53h-2.83v-1h2.83V173.53z M262.65,173.53h-2.83v-1h2.83 V173.53z M256.98,173.53h-2.83v-1h2.83V173.53z M251.31,173.53h-2.83v-1h2.83V173.53z M245.64,173.53h-2.83v-1h2.83V173.53z M239.97,173.53h-2.83v-1h2.83V173.53z M234.3,173.53h-2.83v-1h2.83V173.53z M228.63,173.53h-2.83v-1h2.83V173.53z M222.96,173.53 h-2.83v-1h2.83V173.53z M217.29,173.53h-2.83v-1h2.83V173.53z M211.63,173.53h-2.83v-1h2.83V173.53z M205.96,173.53h-2.83v-1h2.83 V173.53z M200.29,173.53h-2.83v-1h2.83V173.53z M194.62,173.53h-2.83v-1h2.83V173.53z M188.95,173.53h-2.83v-1h2.83V173.53z M183.28,173.53h-2.47v-1.36h1v0.36h1.47V173.53z M181.81,169.33h-1v-2.83h1V169.33z M181.81,163.66h-1v-2.83h1V163.66z M181.81,157.99h-1v-2.83h1V157.99z M181.81,152.32h-1v-2.83h1V152.32z M181.81,146.65h-1v-2.83h1V146.65z M181.81,140.98h-1v-2.83 h1V140.98z M181.81,135.31h-1v-2.83h1V135.31z M181.81,129.64h-1v-2.83h1V129.64z M181.81,123.97h-1v-2.83h1V123.97z M181.81,118.3 h-1v-2.83h1V118.3z M181.81,112.63h-1v-2.83h1V112.63z M182.52,107.28l-0.93-0.36l1.02-2.64l0.93,0.36L182.52,107.28z M184.56,102 l-0.93-0.36l1.02-2.64l0.93,0.36L184.56,102z M186.61,96.71l-0.93-0.36l1.02-2.64l0.93,0.36L186.61,96.71z M188.66,91.42 l-0.93-0.36l1.02-2.64l0.93,0.36L188.66,91.42z M190.7,86.14l-0.93-0.36l1.02-2.64l0.93,0.36L190.7,86.14z M192.75,80.85 l-0.93-0.36l1.02-2.64l0.93,0.36L192.75,80.85z"/></g><linearGradient id="l" gradientUnits="userSpaceOnUse" x1="124.6275" y1="64.6476" x2="124.6275" y2="13.3502"><stop offset="0" style="stop-color:#FFFFFF;stop-opacity:0"/><stop offset="0.2466" style="stop-color:#F2F5F7;stop-opacity:0.2466"/><stop offset="0.5783" style="stop-color:#E8EDF2;stop-opacity:0.5783"/><stop offset="1" style="stop-color:#E5EBF0"/></linearGradient><path opacity="0.7" fill="url(#l)" d="M8.67,59.61c0,0,12.32-26.33,34.17-17.93c21.85,8.4,49.29,2.8,68.34-8.96	c15-9.26,32.83-19.58,51.03-19.36c9.07,0.11,17.31,3.79,23.13,10.78c5.64,6.77,8.37,16.09,15.98,21.13	c12.15,8.05,30.31,5.32,39.26,19.38H8.67"/><linearGradient id="m" gradientUnits="userSpaceOnUse" x1="337.8316" y1="96.0019" x2="337.8316" y2="68.7852" gradientTransform="matrix(-1 0 0 1 675.6633 0)"><stop offset="0" style="stop-color:#FFFFFF;stop-opacity:0"/><stop offset="0.2466" style="stop-color:#F2F5F7;stop-opacity:0.2466"/><stop offset="0.5783" style="stop-color:#E8EDF2;stop-opacity:0.5783"/><stop offset="1" style="stop-color:#E5EBF0"/></linearGradient><path opacity="0.7" fill="url(#m)" d="M399.35,93.33c0,0-6.54-13.97-18.13-9.51c-11.59,4.46-26.15,1.49-36.26-4.75	c-7.96-4.91-17.42-10.39-27.07-10.27c-4.81,0.06-9.18,2.01-12.27,5.72c-2.99,3.59-4.44,8.54-8.48,11.21	c-6.44,4.27-16.08,2.82-20.83,10.28h123.05"/></svg>
