<svg width="24" height="24" fill="none" xmlns="http://www.w3.org/2000/svg"><g clip-path="url(#clip0_3418_61268)"><circle cx="12" cy="12" r="12" fill="#FBBC04"/><path fill-rule="evenodd" clip-rule="evenodd" d="M14.382 6c.3787 0 .7244.21282.8938.5516C15.7331 7.46624 16.6342 9.26838 17 10h.5c.2761 0 .5.2239.5.5s-.2239.5-.5.5H17v3c0 .5523-.4477 1-1 1s-1-.4477-1-1v-.75H9V14c0 .5523-.44772 1-1 1s-1-.4477-1-1v-3h-.5c-.27614 0-.5-.2239-.5-.5s.22386-.5.5-.5H7l1.72361-3.44721C8.893 6.214 9.23926 6 9.61803 6H14.382zm.118.99999h-5l-1.5 3h8l-1.5-3z" fill="#202124"/><path d="M7 16.7495C7 16.4735 7.44772 16 8 16s1 .2237 1 .4997c0 .2759-.44772.4996-1 .4996s-1 .0262-1-.2498zm3-1c0-.276.4477-.7495 1-.7495s1 .2237 1 .4997c0 .2759-.4477.4996-1 .4996s-1 .0262-1-.2498zm2 1c0-.276.4477-.7495 1-.7495s1 .2237 1 .4997c0 .2759-.4477.4996-1 .4996s-1 .0262-1-.2498zm3 0c0-.276.4477-.7495 1-.7495s1 .2237 1 .4997c0 .2759-.4477.4996-1 .4996s-1 .0262-1-.2498zm-6 1c0-.276.44772-.7495 1-.7495.5523 0 1 .2237 1 .4997 0 .2759-.4477.4996-1 .4996-.55228 0-1 .0262-1-.2498z" fill="#202124"/></g><defs><clipPath id="clip0_3418_61268"><path fill="#fff" d="M0 0h24v24H0z"/></clipPath></defs></svg>