<svg width="18" height="18" viewBox="0 0 18 18" fill="none" xmlns="http://www.w3.org/2000/svg">
<g clip-path="url(#clip0_808_339262)">
<path d="M8.88977 8.69001L8.51977 8.36001C7.36977 7.31001 6.75977 6.10001 6.75977 4.85001C6.75977 3.60001 7.36977 2.38001 8.51977 1.34001L8.88977 1.01001L9.25977 1.34001C10.4098 2.39001 11.0198 3.60001 11.0198 4.85001C11.0198 6.10001 10.4098 7.32001 9.25977 8.36001L8.88977 8.69001ZM8.88977 2.50001C8.20977 3.24001 7.85977 4.04001 7.85977 4.85001C7.85977 5.66001 8.21977 6.46001 8.88977 7.20001C9.56977 6.46001 9.91977 5.66001 9.91977 4.85001C9.91977 4.04001 9.55977 3.24001 8.88977 2.50001Z" fill="#1F1F1F"/>
<path d="M8.88977 5.97997C9.51385 5.97997 10.0198 5.47405 10.0198 4.84997C10.0198 4.22589 9.51385 3.71997 8.88977 3.71997C8.26568 3.71997 7.75977 4.22589 7.75977 4.84997C7.75977 5.47405 8.26568 5.97997 8.88977 5.97997Z" fill="#1F1F1F"/>
<path d="M2.43969 8.12996C2.90969 8.14996 4.15969 8.19996 5.49969 8.95996C6.07969 9.28996 6.60969 9.71996 7.06969 10.22L7.80969 9.54996C7.27969 8.96996 6.66969 8.46996 5.98969 8.08996C4.43969 7.20996 3.00969 7.14996 2.47969 7.12996C1.78969 7.10996 1.10969 7.15996 0.429688 7.29996L0.639687 8.27996C1.22969 8.14996 1.83969 8.09996 2.43969 8.12996Z" fill="#1F1F1F"/>
<path d="M10.7097 10.22C11.1697 9.70998 11.6997 9.28998 12.2797 8.95998C13.6197 8.19998 14.8697 8.14998 15.3397 8.12998C15.9397 8.10998 16.5497 8.15998 17.1397 8.27998L17.3497 7.29998C16.6797 7.15998 15.9897 7.09998 15.2997 7.12998C14.7597 7.14998 13.3397 7.20998 11.7897 8.08998C11.1097 8.46998 10.4997 8.96998 9.96973 9.54998L10.7097 10.22Z" fill="#1F1F1F"/>
<path d="M5.08977 15.39C4.70977 15.39 4.30977 15.34 3.89977 15.21C2.30977 14.7 1.08977 13.19 0.279766 10.72L0.00976562 9.89001L0.869766 9.75001C2.77977 9.43001 6.76977 9.83001 8.15977 13.62L8.34977 14.15L7.89977 14.48C7.83977 14.53 6.63977 15.4 5.08977 15.4V15.39ZM1.54977 11.17C2.28977 12.93 3.23977 14 4.36977 14.36C5.37977 14.68 6.35977 14.37 6.97977 14.09C5.67977 11.59 3.05977 11.19 1.54977 11.18V11.17Z" fill="#1F1F1F"/>
<path d="M4.23004 13.63C5.02533 13.63 5.67004 12.9853 5.67004 12.19C5.67004 11.3947 5.02533 10.75 4.23004 10.75C3.43475 10.75 2.79004 11.3947 2.79004 12.19C2.79004 12.9853 3.43475 13.63 4.23004 13.63Z" fill="#1F1F1F"/>
<path d="M9.85039 14.4799L9.40039 14.1499L9.59039 13.6199C10.9704 9.82994 14.9704 9.43994 16.8804 9.74994L17.7404 9.88994L17.4704 10.7199C16.6604 13.1899 15.4404 14.6999 13.8504 15.2099C13.4404 15.3399 13.0404 15.3899 12.6604 15.3899C11.1204 15.3899 9.92039 14.5199 9.85039 14.4699V14.4799ZM10.7704 14.0799C11.3804 14.3599 12.3704 14.6699 13.3804 14.3499C14.5104 13.9899 15.4604 12.9199 16.2004 11.1599C14.6904 11.1599 12.0704 11.5699 10.7704 14.0699V14.0799Z" fill="#1F1F1F"/>
<path d="M13.5201 13.63C14.3154 13.63 14.9601 12.9853 14.9601 12.19C14.9601 11.3947 14.3154 10.75 13.5201 10.75C12.7248 10.75 12.0801 11.3947 12.0801 12.19C12.0801 12.9853 12.7248 13.63 13.5201 13.63Z" fill="#1F1F1F"/>
<path d="M8.88965 12.3C9.44193 12.3 9.88965 11.8523 9.88965 11.3C9.88965 10.7478 9.44193 10.3 8.88965 10.3C8.33736 10.3 7.88965 10.7478 7.88965 11.3C7.88965 11.8523 8.33736 12.3 8.88965 12.3Z" fill="#1F1F1F"/>
</g>
<defs>
<clipPath id="clip0_808_339262">
<rect width="17.75" height="15.39" fill="white" transform="translate(0 1)"/>
</clipPath>
</defs>
</svg>
