<?xml version="1.0" encoding="utf-8"?>
<!-- Generator: Adobe Illustrator 30.0.0, SVG Export Plug-In . SVG Version: 9.03 Build 0)  -->
<svg version="1.1" baseProfile="basic" id="Layer_1"
	 xmlns="http://www.w3.org/2000/svg" xmlns:xlink="http://www.w3.org/1999/xlink" x="0px" y="0px" width="290px" height="200px"
	 viewBox="0 0 290 200" xml:space="preserve">
<g>
	<g>
		<path fill="#FFD4F8" d="M63.41,25.53l108.9-19.2c11.49-2.03,22.45,5.65,24.47,17.14l0,0c2.03,11.49-5.65,22.45-17.14,24.47
			l-108.9,19.2C59.26,69.16,48.3,61.49,46.28,50l0,0C44.25,38.51,51.92,27.55,63.41,25.53z"/>
		<g>
			<path fill="#4285F4" d="M71.01,35.62l2.98,4.64l5.49-0.51c1.23-0.11,1.98,1.31,1.2,2.26l-3.49,4.27l2.18,5.07
				c0.49,1.13-0.63,2.29-1.78,1.84l-5.14-2l-4.14,3.64c-0.93,0.81-2.37,0.11-2.3-1.12l0.31-5.51l-4.74-2.82
				c-1.06-0.63-0.84-2.23,0.36-2.54l5.33-1.4l1.21-5.38C68.75,34.87,70.34,34.59,71.01,35.62L71.01,35.62z"/>
			<path fill="#4285F4" d="M96.04,31.21l2.98,4.64l5.49-0.51c1.23-0.11,1.98,1.31,1.2,2.26l-3.49,4.27l2.18,5.07
				c0.49,1.13-0.63,2.29-1.78,1.84l-5.14-2l-4.14,3.64c-0.93,0.81-2.37,0.11-2.3-1.12l0.31-5.51l-4.74-2.82
				c-1.06-0.63-0.84-2.23,0.36-2.54l5.33-1.4l1.21-5.38C93.79,30.45,95.38,30.17,96.04,31.21L96.04,31.21z"/>
			<path fill="#4285F4" d="M121.07,26.8l2.98,4.64l5.49-0.51c1.23-0.11,1.98,1.31,1.2,2.26l-3.49,4.27l2.18,5.07
				c0.49,1.13-0.63,2.29-1.78,1.84l-5.14-2l-4.14,3.64c-0.93,0.81-2.37,0.11-2.3-1.12l0.31-5.51l-4.74-2.82
				c-1.06-0.63-0.84-2.23,0.36-2.54l5.33-1.4l1.21-5.38C118.82,26.04,120.41,25.76,121.07,26.8z"/>
			<path fill="#4285F4" d="M146.11,22.38l2.98,4.64l5.49-0.51c1.23-0.11,1.98,1.31,1.2,2.26l-3.49,4.27l2.18,5.07
				c0.49,1.13-0.63,2.29-1.78,1.84l-5.14-2l-4.14,3.64c-0.93,0.81-2.37,0.11-2.3-1.12l0.31-5.51l-4.74-2.82
				c-1.06-0.63-0.84-2.23,0.36-2.54l5.33-1.4l1.21-5.38C143.85,21.62,145.44,21.35,146.11,22.38L146.11,22.38z"/>
			<path fill="#4285F4" d="M171.14,17.97l2.98,4.64l5.49-0.51c1.23-0.11,1.98,1.31,1.2,2.26l-3.49,4.27l2.18,5.07
				c0.49,1.13-0.63,2.29-1.78,1.84l-5.14-2l-4.14,3.64c-0.93,0.81-2.37,0.11-2.3-1.12l0.31-5.51l-4.74-2.82
				c-1.06-0.63-0.84-2.23,0.36-2.54l5.33-1.4l1.21-5.38C168.88,17.21,170.47,16.93,171.14,17.97L171.14,17.97z"/>
		</g>
	</g>
	<g>
		<path fill="#4667F4" d="M127.59,77.83H50.41c-4.02,0-7.86,3.26-8.57,7.29l-7.92,44.94c-0.71,4.02,1.98,7.29,6,7.29h31.67
			c2.39,0,3.99,1.94,3.57,4.33l-0.77,4.38c-0.25,1.42,0.62,2.65,2.03,2.69c1.46,0.04,2.87-1.13,3.12-2.59l0.79-4.49
			c0.42-2.39,2.7-4.33,5.09-4.33h31.67c4.02,0,7.86-3.26,8.57-7.29l7.92-44.94C134.3,81.1,131.61,77.83,127.59,77.83L127.59,77.83z"
			/>
		<g>
			<polygon fill="#64BEFF" points="120.3,111.15 45.95,111.15 47.38,103.01 121.74,103.01 			"/>
			<polygon fill="#64BEFF" points="122.81,96.93 48.45,96.93 49.89,88.8 124.24,88.8 			"/>
			<polygon fill="#64BEFF" points="89.24,125.37 43.44,125.37 44.88,117.23 90.67,117.23 			"/>
		</g>
	</g>
	<g>
		<g>
			<path fill="#D9C300" d="M250.8,69.44h-10.51c-1.92,0-3.47,1.55-3.47,3.47s1.55,3.47,3.47,3.47h10.51c1.92,0,3.47-1.55,3.47-3.47
				S252.71,69.44,250.8,69.44z"/>
			<path fill="#D9C300" d="M240.28,80.68h2.75c1.92,0,3.47,1.55,3.47,3.47v0c0,1.92-1.55,3.47-3.47,3.47h-2.75
				c-1.92,0-3.47-1.55-3.47-3.47v0C236.81,82.23,238.37,80.68,240.28,80.68z"/>
			<path fill="#D9C300" d="M240.28,46.97c-1.92,0-3.47,1.55-3.47,3.47c0,1.92,1.55,3.47,3.47,3.47h10.51c1.92,0,3.47-1.55,3.47-3.47
				c0-1.92-1.55-3.47-3.47-3.47H240.28z"/>
			<path fill="#D9C300" d="M240.28,58.2h12.45c1.91,0,3.47,1.55,3.47,3.47l0,0c0,1.91-1.55,3.47-3.47,3.47h-12.45
				c-1.91,0-3.47-1.55-3.47-3.47l0,0C236.81,59.76,238.37,58.2,240.28,58.2z"/>
		</g>
		<path fill="#D9C300" d="M233.3,84.15c0-1.93,0.79-3.69,2.06-4.95c0.37-0.37,0.37-0.96,0-1.33c-1.27-1.26-2.06-3.02-2.06-4.95
			c0-1.93,0.79-3.69,2.06-4.95c0.37-0.37,0.37-0.96,0-1.33c-1.27-1.26-2.06-3.02-2.06-4.95s0.79-3.69,2.06-4.95
			c0.37-0.37,0.37-0.96,0-1.33c-1.27-1.26-2.06-3.02-2.06-4.95c0-0.78,0.13-1.54,0.37-2.24c0.21-0.6-0.24-1.23-0.88-1.23h-4.03
			c-1.96,0-3.54,1.59-3.54,3.54v2.44c0,3.92-1.79,7.62-4.86,10.05l-0.35,0.28c-0.84,0.67-2.07,0.53-2.74-0.32l0,0
			c-0.67-0.84-0.53-2.07,0.32-2.74l0.35-0.28c2.15-1.7,3.38-4.25,3.38-6.99v-4.51c0-0.94,0.37-1.84,1.03-2.51l10.41-10.41
			c2.82-2.82,2.82-7.39,0-10.2l0,0c0,0-0.03-0.03-0.04-0.04c-0.51-0.47-1.3-0.46-1.8,0.03l-8.74,8.65c-2.42,2.42-5.49,4.1-8.83,4.81
			c-11.16,2.37-19.54,12.29-19.54,24.16l0,0c0,13.64,11.06,24.7,24.7,24.7h14.28c0.64,0,1.08-0.63,0.88-1.23
			C233.43,85.68,233.3,84.93,233.3,84.15L233.3,84.15z"/>
	</g>
	<path fill="#FF4365" d="M216.17,116.29c-2.19-9.94-8.22-18.61-16.81-24.11l0,0c-6.44-4.03-13.87-6.14-21.49-6
		c-7.62,0.15-14.96,2.57-21.22,6.93l0,0c-7.43,5.18-12.73,12.82-15.07,21.55c-1.68,6.06-2.1,12.47-1.09,18.66
		c1.59,9.55,6.16,18.12,10.48,28.51l0,0c1.35,3.38,2.66,6.87,3.9,10.64c4.4,13.62,0.43,20.07,5.29,21.38s4.63-6.22,15.27-15.87
		c17.56-16.02,34.34-20.94,40.38-43.49C217.39,128.53,217.53,122.29,216.17,116.29L216.17,116.29L216.17,116.29z M181.24,139.03
		c-2.11,0.38-4.28,0.28-6.32-0.27c-2.71-0.72-5.15-2.21-7.03-4.25s-3.14-4.63-3.65-7.38c-0.51-2.74-0.16-5.61,0.89-8.17
		s2.88-4.8,5.14-6.38l0,0c1.76-1.25,3.75-2.07,5.87-2.45c2.12-0.38,4.28-0.28,6.38,0.29c2.71,0.72,5.15,2.21,7.03,4.25
		c1.88,2.05,3.14,4.63,3.65,7.38c0.51,2.74,0.16,5.61-0.89,8.17c-1.04,2.56-2.88,4.8-5.14,6.38l0.14-0.08l-0.36,0.26
		c-1.72,1.14-3.6,1.94-5.64,2.28L181.24,139.03L181.24,139.03z"/>
</g>
</svg>
