<?xml version="1.0" encoding="utf-8"?>
<!-- Generator: Adobe Illustrator 30.0.0, SVG Export Plug-In . SVG Version: 9.03 Build 0)  -->
<svg version="1.1" baseProfile="basic" id="Layer_1"
	 xmlns="http://www.w3.org/2000/svg" xmlns:xlink="http://www.w3.org/1999/xlink" x="0px" y="0px" width="290px" height="200px"
	 viewBox="0 0 290 200" xml:space="preserve">
<g>
	<g id="Picture_00000144300690325746333050000009190764914263190928_">
		<path fill="#9E9E00" d="M158.51,17.34l24.83,92.68c2.19,8.16-2.66,16.55-10.82,18.74l-92.68,24.83
			c-8.16,2.19-16.55-2.66-18.74-10.82L36.28,50.09c-2.19-8.16,2.66-16.55,10.82-18.74l92.68-24.83
			C147.94,4.34,156.32,9.18,158.51,17.34z"/>
		<path fill="#131314" d="M49.4,39.98l92.68-24.83c3.4-0.91,6.89,1.11,7.81,4.51l24.83,92.68c0.91,3.4-1.11,6.89-4.51,7.81
			l-92.68,24.83c-3.4,0.91-6.89-1.11-7.81-4.51L44.89,47.78C43.98,44.38,46,40.89,49.4,39.98z"/>
		<path fill="#57661A" d="M165.93,79.52c-2.12-0.3-4.28-0.08-6.28,0.63c-0.94,0.34-1.98,0.03-2.57-0.78
			c-0.99-1.34-2.25-2.52-3.78-3.44c-5.52-3.33-12.66-2.11-16.76,2.86c-4.87,5.9-3.65,14.58,2.48,18.94c0.2,0.14,0.41,0.28,0.61,0.41
			c0.89,0.56,1.5,1.47,1.64,2.5c0.46,3.45,2.3,6.7,5.36,8.88c5.87,4.18,14.01,2.81,18.19-3.06l0.01-0.01
			c0.47-0.66,1.18-1.12,1.97-1.29c1.92-0.41,3.76-1.26,5.35-2.51L165.93,79.52L165.93,79.52z"/>
		<path fill="#57661A" d="M88.59,121.15v-0.01c0.03-0.81,0.36-1.59,0.93-2.17c2.37-2.41,3.82-5.75,3.73-9.46
			c-0.15-6.67-5.25-12.1-11.9-12.67c-4.66-0.4-8.89,1.67-11.5,5.07c-0.66,0.86-1.8,1.19-2.83,0.83c-1.52-0.53-3.17-0.8-4.89-0.73
			c-0.9,0.04-1.77,0.17-2.61,0.38l7.56,28.21c2.16,1.85,4.95,3.02,8.02,3.12C82.3,133.98,88.34,128.35,88.59,121.15L88.59,121.15z"
			/>
		<path fill="#4F4B14" d="M77.53,144.98l92.68-24.84c3.4-0.91,5.42-4.41,4.51-7.81l-4.44-16.56l-105,28.13l4.44,16.56
			C70.64,143.87,74.14,145.88,77.53,144.98L77.53,144.98z"/>
		
			<rect x="87.86" y="114.78" transform="matrix(0.9659 -0.2588 0.2588 0.9659 -29.3138 30.4242)" fill="#848424" width="26.06" height="23.52"/>
		<g>
			<path fill="#4F4B14" d="M131.36,38.56l-0.59-2.19c-0.45-1.67-2.17-2.67-3.84-2.22l-54.9,14.71c-1.67,0.45-2.67,2.17-2.22,3.84
				l0.59,2.19c0.53,1.96-0.64,3.98-2.6,4.5l-4.9,1.31l2.48,9.25l77.95-20.89l-2.48-9.25l-4.99,1.34
				C133.9,41.69,131.89,40.52,131.36,38.56L131.36,38.56z"/>
			
				<rect x="69.5" y="49.21" transform="matrix(0.9659 -0.2588 0.2588 0.9659 -16.9744 31.1601)" fill="#C26401" width="80.7" height="61.67"/>
			<path fill="#8F4D13" d="M85.71,69.9L85.71,69.9c6.95-1.86,14.1,2.27,15.96,9.21l8.76,32.69l-25.17,6.75L76.5,85.86
				C74.64,78.92,78.77,71.76,85.71,69.9L85.71,69.9z"/>
			<path fill="#FBBC04" d="M106.49,64.33l29.77-7.98c1.36-0.36,2.76,0.44,3.12,1.8l7.8,29.1c0.36,1.36-0.44,2.76-1.8,3.12
				l-29.77,7.98c-1.36,0.36-2.76-0.44-3.12-1.8l-7.8-29.1C104.32,66.1,105.13,64.7,106.49,64.33z"/>
			<path fill="#4F4B14" d="M86.01,99.39l14.19-3.8c1.47-0.39,2.98,0.48,3.37,1.95l0,0c0.39,1.47-0.48,2.98-1.95,3.37l-14.19,3.8
				c-1.47,0.39-2.98-0.48-3.37-1.95v0C83.67,101.29,84.54,99.78,86.01,99.39z"/>
			<g>
				<path d="M87.31,86.18c-0.03,0-0.06,0-0.08-0.01c-0.17-0.04-0.27-0.22-0.22-0.39l1.34-5c0.03-0.11,0.12-0.19,0.22-0.22
					c0.11-0.03,0.23,0,0.31,0.08l3.66,3.66c0.12,0.12,0.12,0.32,0,0.45c-0.12,0.12-0.32,0.12-0.45,0l-3.27-3.27l-1.2,4.47
					C87.58,86.09,87.45,86.18,87.31,86.18L87.31,86.18z"/>
				
					<rect x="84.12" y="83.88" transform="matrix(0.9659 -0.2588 0.2588 0.9659 -19.478 26.3494)" fill="#E37400" width="12.43" height="6.54"/>
			</g>
			<g>
				<polygon fill="#9E9E00" points="80.01,70.53 74.04,57.72 62.9,60.71 68.87,73.52 				"/>
				<polygon fill="#BAB500" points="91.15,67.55 85.17,54.74 74.04,57.72 80.01,70.53 				"/>
				<polygon fill="#9E9E00" points="102.28,64.57 96.31,51.75 85.17,54.74 91.15,67.55 				"/>
				<polygon fill="#BAB500" points="113.42,61.58 107.44,48.77 96.31,51.75 102.28,64.57 				"/>
				<polygon fill="#9E9E00" points="124.55,58.6 118.58,45.79 107.44,48.77 113.42,61.58 				"/>
				<polygon fill="#BAB500" points="135.69,55.61 129.71,42.8 118.58,45.79 124.55,58.6 				"/>
				<polygon fill="#9E9E00" points="146.82,52.63 140.85,39.82 129.71,42.8 135.69,55.61 				"/>
			</g>
			<g>
				<path fill="#2C8851" d="M128.22,90.96c-0.95-3.94-2.01-5.39-4.06-5.54l0.13-1.77c3.38,0.25,4.7,2.93,5.65,6.89L128.22,90.96
					L128.22,90.96z"/>
				<path fill="#57661A" d="M125.47,81.82c-0.8-0.37-1.73-0.28-2.59-0.48c-1.81-0.29-2.41-2.22-3.82-3.06
					c-0.63-0.32-1.72-0.49-2.35-0.16c-0.47,0.24-0.92,0.62-1.35,1.1c-0.13,0.15-0.16,0.36-0.08,0.54c0.67,1.4,1.56,3.54,1.22,4.35
					c-0.35,0.82-1.5,0.13-2.77-1.12c-0.18-0.17-0.48-0.11-0.56,0.13c-0.95,2.61-1.25,5.52-0.35,6.99c0.99,1.4,2.22,1.16,3.26-0.01
					c1.35-1.18,3.26-1.54,5.05-1.45c1.82,0.19,3.87,0.3,4.92-1.43C127.33,85.64,127.51,82.82,125.47,81.82L125.47,81.82z"/>
				<path fill="#3D3910" d="M141.46,73.24c-0.13-0.25-0.41-0.39-0.69-0.43c-0.28-0.04-0.56-0.01-0.84,0
					c-1.14,0.04-2.26-0.29-3.32-0.72c-1.05-0.43-2.07-0.96-3.14-1.35c-0.57-0.21-1.17-0.37-1.78-0.39
					c-0.62-0.02-1.25,0.12-1.78,0.44c-0.11-0.4-0.27-0.78-0.49-1.13c-0.34-0.56-0.8-1.04-1.31-1.44c-0.52-0.41-1.11-0.76-1.76-0.91
					c-1.5-0.36-3.05,0.31-4.35,1.14c-1.3,0.83-2.51,1.85-3.98,2.3c-0.9,0.28-1.85,0.33-2.77,0.46c-0.52,0.07-1.05,0.17-1.52,0.41
					c-0.47,0.24-0.88,0.64-1.02,1.15c-0.27,0.93,0.42,1.89,1.23,2.42c0.81,0.54,1.77,0.84,2.52,1.45c1.03,0.85,1.52,2.18,2.11,3.38
					c0.59,1.2,1.47,2.43,2.78,2.7c1.2,0.25,2.45-0.42,3.24-1.37c0.55-0.66,1.21-1.72,1.35-2.77c1.5,1.69,2.59,3.87,2.8,6.63h0.01
					c0.07,1.62,0.27,3.26,0.45,4.79l0.08,0.64l1.76-0.21l-0.08-0.64c-0.19-1.62-0.39-3.21-0.46-4.72h0.01
					c0-0.04-0.01-0.07-0.01-0.11c-0.11-2.32,0.07-4.42,0.97-6.04c0.04,0.86,0.28,1.72,0.88,2.37c0.83,0.89,2.26,1.16,3.35,0.61
					c0.95-0.47,1.55-1.42,2.12-2.32c0.92-1.44,1.89-2.85,2.9-4.23c0.33-0.45,0.68-0.92,0.79-1.47
					C141.56,73.69,141.56,73.44,141.46,73.24L141.46,73.24z M129.15,80.14c-0.62-1.22-1.42-2.29-2.32-3.21
					c0.95-0.42,1.79-1.09,2.38-1.93c0.12,0.23,0.26,0.45,0.41,0.66c0.32,0.45,0.72,0.84,1.16,1.17
					C129.97,77.79,129.46,78.91,129.15,80.14L129.15,80.14z"/>
			</g>
			<path fill="#4F4B14" d="M121.44,92.58L121.44,92.58c0.09-0.02,0.19,0.02,0.22,0.11l1.5,3.66l14.67-3.93l-0.53-3.91
				c-0.01-0.09,0.05-0.18,0.14-0.21l0.11-0.03c0.53-0.14,0.91-0.65,0.84-1.2c-0.08-0.68-0.74-1.11-1.38-0.94l-16.18,4.33
				c-0.61,0.16-0.96,0.81-0.76,1.42C120.27,92.43,120.87,92.73,121.44,92.58L121.44,92.58z"/>
		</g>
		<g>
			<path fill="#4F4B14" d="M80.01,70.54c0.82,3.08,3.99,4.9,7.06,4.08c3.08-0.82,4.9-3.99,4.08-7.06L80.01,70.54L80.01,70.54z"/>
			<path fill="#4F4B14" d="M102.28,64.57c0.82,3.08,3.99,4.9,7.06,4.08c3.08-0.82,4.9-3.99,4.08-7.06L102.28,64.57L102.28,64.57z"/>
			<path fill="#4F4B14" d="M124.55,58.6c0.82,3.08,3.99,4.9,7.06,4.08c3.08-0.82,4.9-3.99,4.08-7.06L124.55,58.6L124.55,58.6z"/>
			<path fill="#4F4B14" d="M68.87,73.52c0.82,3.08,3.99,4.9,7.06,4.08c3.08-0.82,4.9-3.99,4.08-7.06L68.87,73.52L68.87,73.52z"/>
			<path fill="#4F4B14" d="M91.14,67.55c0.82,3.08,3.99,4.9,7.06,4.08c3.08-0.82,4.9-3.99,4.08-7.06L91.14,67.55L91.14,67.55z"/>
			<path fill="#4F4B14" d="M113.42,61.58c0.82,3.08,3.99,4.9,7.06,4.08c3.08-0.82,4.9-3.99,4.08-7.06L113.42,61.58L113.42,61.58z"/>
			<path fill="#4F4B14" d="M135.69,55.62c0.82,3.08,3.99,4.9,7.06,4.08c3.08-0.82,4.9-3.99,4.08-7.06L135.69,55.62L135.69,55.62z"/>
		</g>
	</g>
	<g id="Stars_00000128470254157990446990000007654540229477654162_">
		<path fill-rule="evenodd" clip-rule="evenodd" fill="#FAB400" d="M215.49,145.63v-0.16H81.65v0.16
			c-13.34,0.02-24.14,10.84-24.14,24.18c0,13.34,10.8,24.16,24.14,24.18l0,0h133.83c13.36,0,24.18-10.83,24.18-24.18
			C239.67,156.46,228.84,145.63,215.49,145.63z"/>
		<g>
			<path fill="#FFFFFF" d="M82.77,156.74l3.06,7.32l7.91,0.65c1.07,0.09,1.5,1.42,0.69,2.12l-6.02,5.18l1.82,7.73
				c0.25,1.05-0.89,1.87-1.81,1.31l-6.78-4.12l-6.78,4.12c-0.92,0.56-2.05-0.27-1.81-1.31l1.82-7.73l-6.02-5.18
				c-0.81-0.7-0.38-2.03,0.69-2.12l7.91-0.65l3.06-7.32C80.95,155.75,82.36,155.75,82.77,156.74L82.77,156.74z"/>
			<path fill="#FFFFFF" d="M116.22,156.74l3.06,7.32l7.91,0.65c1.07,0.09,1.5,1.42,0.69,2.12l-6.02,5.18l1.82,7.73
				c0.25,1.05-0.89,1.87-1.81,1.31l-6.78-4.12l-6.78,4.12c-0.92,0.56-2.05-0.27-1.81-1.31l1.82-7.73l-6.02-5.18
				c-0.81-0.7-0.38-2.03,0.69-2.12l7.91-0.65l3.06-7.32C114.4,155.75,115.8,155.75,116.22,156.74L116.22,156.74z"/>
			<path fill="#FFFFFF" d="M149.67,156.74l3.06,7.32l7.91,0.65c1.07,0.09,1.5,1.42,0.69,2.12l-6.02,5.18l1.82,7.73
				c0.25,1.05-0.89,1.87-1.81,1.31l-6.78-4.12l-6.78,4.12c-0.92,0.56-2.05-0.27-1.81-1.31l1.82-7.73l-6.02-5.18
				c-0.81-0.7-0.38-2.03,0.69-2.12l7.91-0.65l3.06-7.32C147.85,155.75,149.25,155.75,149.67,156.74L149.67,156.74z"/>
			<path fill="#FFFFFF" d="M183.11,156.74l3.06,7.32l7.91,0.65c1.07,0.09,1.5,1.42,0.69,2.12l-6.02,5.18l1.82,7.73
				c0.25,1.05-0.89,1.87-1.81,1.31l-6.78-4.12l-6.78,4.12c-0.92,0.56-2.05-0.27-1.81-1.31l1.82-7.73l-6.02-5.18
				c-0.81-0.7-0.38-2.03,0.69-2.12l7.91-0.65l3.06-7.32C181.3,155.75,182.7,155.75,183.11,156.74L183.11,156.74z"/>
			<path fill="#FFFFFF" d="M216.56,156.74l3.06,7.32l7.91,0.65c1.07,0.09,1.5,1.42,0.69,2.12l-6.02,5.18l1.82,7.73
				c0.25,1.05-0.89,1.87-1.81,1.31l-6.78-4.12l-6.78,4.12c-0.92,0.56-2.05-0.27-1.81-1.31l1.82-7.73l-6.02-5.18
				c-0.81-0.7-0.38-2.03,0.69-2.12l7.91-0.65l3.06-7.32C214.75,155.75,216.15,155.75,216.56,156.74L216.56,156.74z"/>
		</g>
	</g>
	<g id="Pin_00000113316833157094090790000005758604116401709443_">
		<g>
			
				<ellipse transform="matrix(0.2297 -0.9733 0.9733 0.2297 100.9253 270.7929)" fill="#131314" cx="221.54" cy="71.64" rx="24.97" ry="24.97"/>
			<path fill="#FF4365" d="M250.55,56.58c-3.99-7.69-10.85-13.49-19.13-16.11c-3.21-0.99-6.54-1.48-9.86-1.48
				c-3.32,0-6.64,0.5-9.86,1.48c-8.27,2.63-15.14,8.42-19.13,16.11c-2.44,4.63-3.7,9.79-3.7,15.04c0,19.86,12.71,27.6,23.61,44.64
				c6.62,10.27,4.77,16.4,9.05,16.4c0.01,0,0.02,0,0.03,0s0.02,0,0.03,0c4.28,0,2.44-6.13,9.05-16.4
				c10.9-17.04,23.61-24.78,23.61-44.64C254.25,66.36,252.98,61.2,250.55,56.58L250.55,56.58z M221.54,96.62
				c-13.79,0-24.97-11.18-24.97-24.97s11.18-24.97,24.97-24.97s24.97,11.18,24.97,24.97S235.34,96.62,221.54,96.62z"/>
			<path fill="#F29900" d="M228.72,65.5c3.21,0,5.22-3.47,3.62-6.26c-0.02-0.04-0.04-0.08-0.07-0.12c-1.61-2.74-5.6-2.68-7.19,0.07
				l0,0c1.6-2.76-0.37-6.24-3.57-6.26c-0.02,0-0.04,0-0.07,0s-0.05,0-0.07,0c-3.19,0.02-5.17,3.5-3.57,6.26l0,0
				c-1.59-2.75-5.58-2.81-7.19-0.07c-0.02,0.04-0.05,0.08-0.07,0.12c-1.6,2.78,0.41,6.26,3.62,6.26c-3.21,0-5.22,3.47-3.62,6.26
				c0.02,0.04,0.04,0.08,0.07,0.12c1.61,2.74,5.6,2.68,7.19-0.07l0,0c-1.6,2.76,0.37,6.24,3.57,6.26c0.02,0,0.04,0,0.07,0
				s0.05,0,0.07,0c3.19-0.02,5.17-3.5,3.57-6.26l0,0c1.59,2.75,5.58,2.81,7.19,0.07c0.02-0.04,0.05-0.08,0.07-0.12
				C233.94,68.97,231.93,65.5,228.72,65.5z"/>
			<circle fill="#131314" cx="221.44" cy="65.5" r="4.2"/>
			<path fill="#4F4B14" d="M240.24,73.62c-0.98,9.46-8.98,16.83-18.7,16.83c-0.02,0-0.09,0-0.11,0c-0.12,0-0.25,0-0.37-0.01
				c-0.08,0-0.08,0,0,0c-9.5-0.24-17.24-7.52-18.21-16.82c9.08,0.54,16.92,7.21,18.64,16.5C223.21,80.79,231.11,74.11,240.24,73.62
				L240.24,73.62z"/>
		</g>
	</g>
</g>
</svg>
