<?xml version="1.0" encoding="utf-8"?>
<!-- Generator: Adobe Illustrator 30.0.0, SVG Export Plug-In . SVG Version: 9.03 Build 0)  -->
<svg version="1.1" baseProfile="basic" id="Layer_1"
	 xmlns="http://www.w3.org/2000/svg" xmlns:xlink="http://www.w3.org/1999/xlink" x="0px" y="0px" width="290px" height="200px"
	 viewBox="0 0 290 200" xml:space="preserve">
<g>
	<g id="Picture_00000134938219846688306830000011392092982087038369_">
		<path fill="#A09D25" d="M79.84,153.6c-8.15,2.18-16.55-2.67-18.74-10.82L36.27,50.09c-2.18-8.15,2.67-16.55,10.82-18.74
			l92.69-24.84c8.15-2.18,16.55,2.67,18.74,10.82l24.84,92.69c2.18,8.15-2.67,16.55-10.82,18.74L79.84,153.6z"/>
		<path fill="#C1D992" d="M170.22,120.14l-92.69,24.84c-3.4,0.91-6.9-1.11-7.81-4.51L44.89,47.78c-0.91-3.4,1.11-6.9,4.51-7.81
			l92.69-24.84c3.4-0.91,6.9,1.11,7.81,4.51l24.84,92.69C175.64,115.74,173.62,119.23,170.22,120.14z"/>
		<path fill="#105B5B" d="M165.93,79.52c-2.12-0.3-4.28-0.08-6.28,0.64c-0.94,0.34-1.98,0.03-2.57-0.78
			c-0.99-1.34-2.25-2.52-3.78-3.44c-5.52-3.33-12.66-2.11-16.76,2.86c-4.87,5.9-3.65,14.58,2.48,18.95c0.2,0.14,0.41,0.28,0.62,0.41
			c0.89,0.56,1.5,1.47,1.64,2.5c0.46,3.45,2.3,6.71,5.35,8.88c5.87,4.18,14.01,2.81,18.19-3.06l0.01-0.01
			c0.47-0.66,1.18-1.12,1.97-1.29c1.92-0.41,3.76-1.26,5.35-2.51L165.93,79.52z"/>
		<path fill="#105B5B" d="M88.59,121.15v-0.01c0.03-0.81,0.36-1.59,0.93-2.17c2.37-2.41,3.82-5.75,3.73-9.46
			c-0.15-6.67-5.25-12.1-11.9-12.67c-4.66-0.4-8.89,1.67-11.5,5.08c-0.66,0.86-1.8,1.19-2.83,0.83c-1.52-0.53-3.17-0.8-4.89-0.72
			c-0.9,0.04-1.77,0.17-2.61,0.38l7.56,28.21c2.16,1.86,4.95,3.02,8.02,3.12C82.3,133.99,88.34,128.35,88.59,121.15z"/>
		<path fill="#1F8A52" d="M77.53,144.98l92.69-24.84c3.4-0.91,5.42-4.41,4.51-7.81l-4.44-16.56l-105,28.14l4.44,16.56
			C70.64,143.87,74.13,145.89,77.53,144.98z"/>
		
			<rect x="87.85" y="114.78" transform="matrix(0.9659 -0.2588 0.2588 0.9659 -29.3119 30.4201)" fill="#DDE39C" width="26.06" height="23.52"/>
		<g>
			<path fill="#A09D25" d="M131.36,38.56l-0.58-2.19c-0.45-1.67-2.17-2.67-3.84-2.22l-54.9,14.71c-1.67,0.45-2.67,2.17-2.22,3.84
				l0.58,2.19c0.52,1.96-0.64,3.98-2.6,4.5l-4.9,1.31l2.48,9.25l77.95-20.89l-2.48-9.25l-4.99,1.34
				C133.9,41.68,131.88,40.52,131.36,38.56z"/>
			
				<rect x="69.5" y="49.21" transform="matrix(0.9659 -0.2588 0.2588 0.9659 -16.9737 31.1557)" fill="#FBAF00" width="80.7" height="61.66"/>
			<path fill="#ECEFD9" d="M85.71,69.9L85.71,69.9c-6.95,1.86-11.08,9.01-9.21,15.96l8.76,32.7l25.18-6.75l-8.76-32.7
				C99.81,72.17,92.66,68.04,85.71,69.9z"/>
			<path fill="#ECEFD9" d="M145.38,90.39l-29.77,7.98c-1.36,0.36-2.76-0.44-3.12-1.8l-7.8-29.11c-0.36-1.36,0.44-2.76,1.8-3.12
				l29.77-7.98c1.36-0.36,2.76,0.44,3.12,1.8l7.8,29.11C147.55,88.63,146.74,90.03,145.38,90.39z"/>
			<path fill="#A09D25" d="M101.62,100.91l-14.19,3.8c-1.47,0.39-2.98-0.48-3.37-1.95l0,0c-0.39-1.47,0.48-2.98,1.95-3.37l14.19-3.8
				c1.47-0.39,2.98,0.48,3.37,1.95l0,0C103.96,99,103.09,100.51,101.62,100.91z"/>
			<g>
				<path d="M87.31,86.18c-0.03,0-0.05,0-0.08-0.01c-0.17-0.05-0.27-0.22-0.22-0.39l1.34-5c0.03-0.11,0.11-0.2,0.22-0.22
					c0.11-0.03,0.23,0,0.31,0.08l3.66,3.66c0.13,0.13,0.13,0.33,0,0.45c-0.13,0.13-0.33,0.13-0.45,0l-3.27-3.27l-1.2,4.47
					C87.58,86.09,87.45,86.18,87.31,86.18z"/>
				
					<rect x="84.11" y="83.87" transform="matrix(0.9659 -0.2588 0.2588 0.9659 -19.476 26.3455)" fill="#FFFFFF" width="12.43" height="6.54"/>
			</g>
			<g>
				<polygon fill="#EAEED6" points="80.01,70.54 74.03,57.72 62.9,60.71 68.87,73.52 				"/>
				<polygon fill="#C1D992" points="91.14,67.55 85.17,54.74 74.03,57.72 80.01,70.54 				"/>
				<polygon fill="#EAEED6" points="102.28,64.57 96.31,51.76 85.17,54.74 91.14,67.55 				"/>
				<polygon fill="#C1D992" points="113.42,61.58 107.44,48.77 96.31,51.76 102.28,64.57 				"/>
				<polygon fill="#EAEED6" points="124.55,58.6 118.58,45.79 107.44,48.77 113.42,61.58 				"/>
				<polygon fill="#C1D992" points="135.69,55.62 129.71,42.8 118.58,45.79 124.55,58.6 				"/>
				<polygon fill="#EAEED6" points="146.83,52.63 140.85,39.82 129.71,42.8 135.69,55.62 				"/>
			</g>
			<g>
				<path fill="#2C8851" d="M128.22,90.97c-0.95-3.94-2.01-5.39-4.06-5.54l0.13-1.77c3.38,0.25,4.7,2.94,5.66,6.89L128.22,90.97z"/>
				<path fill="#40C76E" d="M125.47,81.83c-0.8-0.37-1.73-0.28-2.59-0.48c-1.81-0.29-2.42-2.23-3.82-3.06
					c-0.63-0.33-1.72-0.49-2.35-0.16c-0.47,0.24-0.92,0.62-1.35,1.1c-0.13,0.15-0.16,0.36-0.08,0.54c0.67,1.4,1.56,3.54,1.22,4.35
					c-0.35,0.83-1.5,0.13-2.77-1.12c-0.18-0.17-0.47-0.11-0.56,0.13c-0.95,2.61-1.25,5.52-0.35,6.99c0.99,1.4,2.22,1.16,3.26-0.01
					c1.35-1.18,3.26-1.54,5.05-1.45c1.82,0.19,3.87,0.3,4.91-1.44C127.32,85.65,127.51,82.82,125.47,81.83z"/>
				<path fill="#1F8A52" d="M141.46,73.24c-0.13-0.25-0.41-0.39-0.69-0.43c-0.28-0.04-0.56-0.01-0.84,0
					c-1.14,0.04-2.26-0.29-3.31-0.72c-1.06-0.43-2.07-0.96-3.14-1.35c-0.57-0.21-1.17-0.37-1.78-0.39
					c-0.62-0.02-1.25,0.13-1.78,0.44c-0.11-0.4-0.27-0.78-0.49-1.13c-0.34-0.56-0.8-1.04-1.31-1.44c-0.52-0.41-1.12-0.75-1.76-0.91
					c-1.5-0.36-3.05,0.31-4.34,1.14c-1.3,0.83-2.51,1.85-3.98,2.3c-0.9,0.28-1.85,0.33-2.78,0.46c-0.52,0.07-1.05,0.17-1.52,0.42
					c-0.47,0.24-0.88,0.64-1.03,1.15c-0.27,0.93,0.42,1.89,1.23,2.42c0.81,0.54,1.77,0.84,2.51,1.45c1.04,0.85,1.52,2.18,2.12,3.38
					c0.6,1.2,1.47,2.43,2.79,2.7c1.21,0.25,2.45-0.42,3.24-1.37c0.55-0.66,1.21-1.72,1.35-2.77c1.5,1.69,2.59,3.87,2.8,6.63h0.01
					c0.07,1.62,0.27,3.26,0.45,4.79l0.08,0.64l1.76-0.21l-0.08-0.65c-0.2-1.62-0.39-3.21-0.46-4.72h0.01c0-0.04-0.01-0.07-0.01-0.11
					c-0.11-2.32,0.07-4.42,0.97-6.04c0.04,0.86,0.28,1.72,0.88,2.37c0.83,0.9,2.26,1.16,3.35,0.62c0.95-0.47,1.55-1.42,2.12-2.32
					c0.92-1.44,1.89-2.85,2.91-4.23c0.33-0.45,0.68-0.92,0.79-1.47C141.57,73.68,141.57,73.44,141.46,73.24z M129.15,80.14
					c-0.62-1.22-1.42-2.29-2.32-3.21c0.95-0.42,1.79-1.09,2.38-1.93c0.12,0.23,0.26,0.45,0.41,0.66c0.33,0.45,0.72,0.84,1.16,1.18
					C129.97,77.79,129.46,78.92,129.15,80.14z"/>
			</g>
			<path fill="#A09D25" d="M121.44,92.58L121.44,92.58c0.09-0.02,0.19,0.02,0.22,0.11l1.5,3.66l14.67-3.93l-0.53-3.92
				c-0.01-0.1,0.05-0.18,0.14-0.21l0.11-0.03c0.53-0.14,0.91-0.65,0.84-1.2c-0.08-0.68-0.74-1.11-1.38-0.93l-16.18,4.34
				c-0.61,0.16-0.96,0.81-0.76,1.42C120.26,92.43,120.87,92.73,121.44,92.58z"/>
		</g>
		<g>
			<path fill="#A09D25" d="M80.01,70.54c0.82,3.08,3.99,4.9,7.06,4.08c3.08-0.82,4.9-3.99,4.08-7.06L80.01,70.54z"/>
			<path fill="#A09D25" d="M102.28,64.57c0.82,3.08,3.99,4.9,7.06,4.08c3.08-0.82,4.9-3.99,4.08-7.06L102.28,64.57z"/>
			<path fill="#A09D25" d="M124.56,58.6c0.82,3.08,3.99,4.9,7.06,4.08c3.08-0.82,4.9-3.99,4.08-7.06L124.56,58.6z"/>
			<path fill="#A09D25" d="M68.87,73.52c0.82,3.08,3.99,4.9,7.06,4.08c3.08-0.82,4.9-3.99,4.08-7.06L68.87,73.52z"/>
			<path fill="#A09D25" d="M91.14,67.55c0.82,3.08,3.99,4.9,7.06,4.08c3.08-0.82,4.9-3.99,4.08-7.06L91.14,67.55z"/>
			<path fill="#A09D25" d="M113.42,61.58c0.82,3.08,3.99,4.9,7.06,4.08c3.08-0.82,4.9-3.99,4.08-7.06L113.42,61.58z"/>
			<path fill="#A09D25" d="M135.69,55.62c0.82,3.08,3.99,4.9,7.06,4.08c3.08-0.82,4.9-3.99,4.08-7.06L135.69,55.62z"/>
		</g>
	</g>
	<g id="Stars_00000114792085081038284750000006262230562616887728_">
		<path fill-rule="evenodd" clip-rule="evenodd" fill="#FBAF00" d="M215.49,145.63v-0.16H81.65v0.16
			c-13.34,0.02-24.14,10.84-24.14,24.18c0,13.34,10.81,24.16,24.14,24.18l0,0h133.84c13.36,0,24.18-10.83,24.18-24.18
			C239.67,156.46,228.85,145.63,215.49,145.63z"/>
		<g>
			<path fill="#FFFFFF" d="M82.77,156.74l3.06,7.32l7.91,0.65c1.07,0.09,1.5,1.42,0.69,2.12l-6.02,5.18l1.82,7.72
				c0.25,1.04-0.89,1.87-1.81,1.31l-6.78-4.12l-6.78,4.12c-0.92,0.56-2.05-0.27-1.81-1.31l1.82-7.72l-6.02-5.18
				c-0.81-0.7-0.38-2.04,0.69-2.12l7.91-0.65l3.06-7.32C80.95,155.75,82.35,155.75,82.77,156.74z"/>
			<path fill="#FFFFFF" d="M116.22,156.74l3.06,7.32l7.91,0.65c1.07,0.09,1.5,1.42,0.69,2.12l-6.02,5.18l1.82,7.72
				c0.25,1.04-0.89,1.87-1.81,1.31l-6.78-4.12l-6.78,4.12c-0.92,0.56-2.05-0.27-1.81-1.31l1.82-7.72l-6.02-5.18
				c-0.81-0.7-0.38-2.04,0.69-2.12l7.91-0.65l3.06-7.32C114.4,155.75,115.8,155.75,116.22,156.74z"/>
			<path fill="#FFFFFF" d="M149.67,156.74l3.06,7.32l7.91,0.65c1.07,0.09,1.5,1.42,0.69,2.12l-6.02,5.18l1.82,7.72
				c0.25,1.04-0.89,1.87-1.81,1.31l-6.78-4.12l-6.78,4.12c-0.92,0.56-2.05-0.27-1.81-1.31l1.82-7.72l-6.02-5.18
				c-0.81-0.7-0.38-2.04,0.69-2.12l7.91-0.65l3.06-7.32C147.85,155.75,149.25,155.75,149.67,156.74z"/>
			<path fill="#FFFFFF" d="M183.12,156.74l3.06,7.32l7.91,0.65c1.07,0.09,1.5,1.42,0.69,2.12l-6.02,5.18l1.82,7.72
				c0.25,1.04-0.89,1.87-1.81,1.31l-6.78-4.12l-6.78,4.12c-0.92,0.56-2.05-0.27-1.81-1.31l1.82-7.72l-6.02-5.18
				c-0.81-0.7-0.38-2.04,0.69-2.12l7.91-0.65l3.06-7.32C181.3,155.75,182.7,155.75,183.12,156.74z"/>
			<path fill="#FFFFFF" d="M216.57,156.74l3.06,7.32l7.91,0.65c1.07,0.09,1.5,1.42,0.69,2.12l-6.02,5.18l1.82,7.72
				c0.25,1.04-0.89,1.87-1.81,1.31l-6.78-4.12l-6.78,4.12c-0.92,0.56-2.05-0.27-1.81-1.31l1.82-7.72l-6.02-5.18
				c-0.81-0.7-0.38-2.04,0.69-2.12l7.91-0.65l3.06-7.32C214.75,155.75,216.15,155.75,216.57,156.74z"/>
		</g>
	</g>
	<g id="Pin_00000096762415401772926650000006474707102913314987_">
		<path fill="#FF4365" d="M250.55,56.58c-3.99-7.69-10.86-13.48-19.13-16.11c-3.21-0.99-6.54-1.48-9.86-1.48s-6.65,0.49-9.86,1.48
			c-8.28,2.63-15.14,8.42-19.13,16.11c-2.43,4.63-3.7,9.79-3.7,15.04c0,19.86,12.71,27.6,23.61,44.64
			c6.62,10.27,4.77,16.41,9.06,16.41c0.01,0,0.02,0,0.02,0s0.02,0,0.02,0c4.28,0,2.43-6.13,9.06-16.41
			c10.9-17.04,23.61-24.78,23.61-44.64C254.25,66.36,252.99,61.2,250.55,56.58z M221.54,96.62c-13.79,0-24.97-11.18-24.97-24.97
			s11.18-24.97,24.97-24.97c13.79,0,24.97,11.18,24.97,24.97S235.34,96.62,221.54,96.62z"/>
		<path fill="#FBBC04" d="M228.72,65.5c3.21,0,5.22-3.47,3.62-6.26c-0.02-0.04-0.05-0.08-0.07-0.12c-1.62-2.74-5.6-2.68-7.19,0.07
			l0,0c1.6-2.77-0.38-6.25-3.57-6.27c-0.02,0-0.05,0-0.07,0c-0.02,0-0.05,0-0.07,0c-3.19,0.02-5.17,3.5-3.57,6.27l0,0
			c-1.59-2.75-5.58-2.81-7.19-0.07c-0.02,0.04-0.05,0.08-0.07,0.12c-1.6,2.78,0.41,6.26,3.62,6.26c-3.21,0-5.22,3.47-3.62,6.26
			c0.02,0.04,0.05,0.08,0.07,0.12c1.62,2.74,5.6,2.68,7.19-0.07l0,0c-1.6,2.77,0.38,6.25,3.57,6.27c0.02,0,0.05,0,0.07,0
			c0.02,0,0.05,0,0.07,0c3.2-0.02,5.17-3.5,3.57-6.27l0,0c1.59,2.75,5.58,2.81,7.19,0.07c0.02-0.04,0.05-0.08,0.07-0.12
			C233.94,68.97,231.93,65.5,228.72,65.5z"/>
		<circle fill="#ECEFD9" cx="221.44" cy="65.5" r="4.2"/>
		<path fill="#1F8A52" d="M240.24,73.62c-0.98,9.46-8.98,16.83-18.7,16.83c-0.02,0-0.09,0-0.11,0c-0.12,0-0.25,0-0.37-0.01
			c0,0,0,0-0.01,0c-9.5-0.24-17.24-7.52-18.21-16.82c9.08,0.54,16.93,7.21,18.64,16.5C223.21,80.8,231.11,74.12,240.24,73.62z"/>
	</g>
</g>
</svg>
