<?xml version="1.0" encoding="utf-8"?>
<!-- Generator: Adobe Illustrator 30.0.0, SVG Export Plug-In . SVG Version: 9.03 Build 0)  -->
<svg version="1.1" baseProfile="basic" id="Layer_1"
	 xmlns="http://www.w3.org/2000/svg" xmlns:xlink="http://www.w3.org/1999/xlink" x="0px" y="0px" width="260px" height="260px"
	 viewBox="0 0 260 260" xml:space="preserve">
<g>
	<g id="land_00000123407925786149538360000013983524525108134037_">
		<g>
			<path fill="#004E41" d="M238.41,103.04l-51.22-13.73l-9.31-2.49l-38.35-10.28l0,0l-33.14-8.88
				c-13.34-3.58-27.42,2.26-34.32,14.22l-24.15,41.83l-6.38,11.05l0,0l-31.07,53.81C4.45,199,9.96,212.3,21.59,215.42l79.66,21.34
				l36.83,9.87l15.77,4.22c0.41,0.11,0.83,0.21,1.25,0.29c0.83,0.18,1.67,0.32,2.5,0.43c0.42,0.05,0.83,0.1,1.25,0.14
				c10.82,0.96,21.45-3.94,27.73-12.98c0.48-0.7,0.94-1.41,1.37-2.16l19.25-33.34l0,0l2.67-4.63l2.75-4.76l2.74-4.74l34.19-59.22
				C255.56,119.46,250.05,106.16,238.41,103.04L238.41,103.04z"/>
			<path fill="#004E41" d="M238.34,103.08L134.55,75.28l2.44,73.56l86.85,25.46l25.62-44.38
				C255.47,119.5,249.96,106.2,238.34,103.08L238.34,103.08z"/>
			<path fill="#004E41" d="M76.2,144.05l-34.67-9.29l-31.07,53.81C4.44,199,9.95,212.3,21.58,215.42l11.63,3.12L76.2,144.05z"/>
			<path fill="#003936" d="M227.71,167.67l-71.32-19.11c-6.17-1.65-11.2-6.12-13.54-12.06c-1.85-4.69-3.38-11.01-3.33-19.02
				c0.14-19.11-17-1.13-17-1.13c-0.96,7.76-0.26,13.94,0.68,18.17c0.55,2.5-1.73,4.69-4.2,4.03l-68.98-18.48l-8.49,14.7l34.67,9.29
				l-43,74.48l16.4,4.39l43-74.48l126.62,33.93L227.71,167.67L227.71,167.67z"/>
			<path fill="#131314" d="M194.5,134.62h-7.2v6.71h0.01c-0.08,1.07,0.74,2.07,2.18,2.45c1.83,0.49,3.95-0.21,4.73-1.56
				c0.17-0.29,0.29-0.89,0.29-0.89V134.62z"/>
		</g>
	</g>
	<g id="pins_00000049925038482609004110000014764953341133055644_">
		<g>
			<g>
				<path fill="#FF4365" d="M174.46,187.35c-2.41-4.65-6.56-8.15-11.56-9.74c-1.94-0.6-3.95-0.9-5.96-0.9c-2.01,0-4.01,0.3-5.96,0.9
					c-5,1.59-9.15,5.09-11.56,9.74c-1.47,2.79-2.23,5.91-2.23,9.09c0,12,7.68,16.68,14.27,26.98c4,6.21,2.88,9.92,5.47,9.92
					c0.01,0,0.01,0,0.02,0c0.01,0,0.01,0,0.02,0c2.59,0,1.47-3.71,5.47-9.92c6.59-10.3,14.27-14.97,14.27-26.98
					C176.7,193.26,175.94,190.14,174.46,187.35L174.46,187.35z"/>
				<circle fill="#131314" cx="156.94" cy="196.44" r="7.55"/>
			</g>
			<g>
				<path fill="#FF4365" d="M241.6,91.01c-2.41-4.65-6.56-8.15-11.56-9.74c-1.94-0.6-3.95-0.9-5.96-0.9c-2.01,0-4.01,0.3-5.96,0.9
					c-5,1.59-9.15,5.09-11.56,9.74c-1.47,2.79-2.23,5.91-2.23,9.09c0,12,7.68,16.68,14.27,26.98c4,6.21,2.88,9.92,5.47,9.92
					c0.01,0,0.01,0,0.02,0c0.01,0,0.01,0,0.02,0c2.59,0,1.47-3.71,5.47-9.92c6.59-10.3,14.27-14.97,14.27-26.98
					C243.84,96.92,243.07,93.81,241.6,91.01L241.6,91.01z"/>
				<circle fill="#131314" cx="224.07" cy="100.11" r="7.55"/>
			</g>
			<g>
				<path fill="#FF4365" d="M51.39,141.55c-2.41-4.65-6.56-8.15-11.56-9.74c-1.94-0.6-3.95-0.9-5.96-0.9c-2.01,0-4.01,0.3-5.96,0.9
					c-5,1.59-9.15,5.09-11.56,9.74c-1.47,2.79-2.23,5.91-2.23,9.09c0,12,7.68,16.68,14.27,26.98c4,6.21,2.88,9.92,5.47,9.92
					c0.01,0,0.01,0,0.02,0c0.01,0,0.01,0,0.02,0c2.59,0,1.47-3.71,5.47-9.92c6.59-10.3,14.27-14.97,14.27-26.98
					C53.63,147.47,52.86,144.35,51.39,141.55L51.39,141.55z"/>
				<circle fill="#131314" cx="33.86" cy="150.65" r="7.55"/>
			</g>
		</g>
	</g>
	<g id="trees_00000128463455318373144840000005108969629912217509_">
		<g>
			<circle fill="#1F8A52" cx="190.9" cy="128.25" r="10.35"/>
			<g>
				<path fill="#131314" d="M122.56,181.71H115v7.05h0.01c-0.09,1.12,0.78,2.17,2.29,2.58c1.92,0.51,4.14-0.22,4.97-1.64
					c0.18-0.31,0.3-0.93,0.3-0.93L122.56,181.71L122.56,181.71z"/>
				<circle fill="#1F8A52" cx="118.78" cy="175.02" r="11.84"/>
			</g>
			<path fill="#0D6545" d="M109.14,209.96L109.14,209.96L109.14,209.96c-0.07-0.2-0.15-0.4-0.24-0.59l-10.25-25.42l0,0
				c-0.49-1.88-2.19-3.27-4.22-3.27c-2.03,0-3.73,1.39-4.22,3.27l0,0l-10.25,25.42c-0.33,0.71-0.51,1.45-0.51,2.22
				c0,4.72,6.71,8.54,14.99,8.54s14.99-3.83,14.99-8.54C109.41,211.03,109.32,210.49,109.14,209.96L109.14,209.96z"/>
		</g>
	</g>
	<g id="Blue_dot_00000156548408189405061680000007341761970792339867_">
		<path fill="#4667F4" d="M230.89,172.01c-0.86,8.91-9.93,16.14-20.26,16.14c-10.33,0-18.01-7.22-17.15-16.14
			c0.86-8.91,9.93-16.14,20.26-16.14C224.07,155.87,231.75,163.09,230.89,172.01z"/>
	</g>
	<g id="Icon_00000044869425184083440220000002145738575650380733_">
		<g>
			<circle fill="#96A6FB" cx="130.02" cy="67.82" r="59.65"/>
			<g>
				<path fill="#131314" d="M158.33,50.66l-4.22-4.22c-0.78-0.78-2.04-0.78-2.82,0l-16.4,16.4v-38.6c0-1.1-0.89-1.99-1.99-1.99
					h-5.97c-1.1,0-1.99,0.89-1.99,1.99v38.6l-16.4-16.4c-0.78-0.78-2.04-0.78-2.82,0l-4.22,4.22c-0.78,0.78-0.78,2.04,0,2.82l27,27
					c0.78,0.78,2.04,0.78,2.82,0l27-27C159.11,52.7,159.11,51.44,158.33,50.66L158.33,50.66z"/>
				<path fill="#131314" d="M154.15,101.99H105.7c-8.24,0-14.93-6.68-14.93-14.93V69.8c0-1.1,0.89-1.99,1.99-1.99h5.97
					c1.1,0,1.99,0.89,1.99,1.99v17.26c0,2.75,2.23,4.97,4.97,4.97h48.45c2.75,0,4.98-2.23,4.98-4.98V69.8c0-1.1,0.89-1.99,1.99-1.99
					h5.97c1.1,0,1.99,0.89,1.99,1.99v17.26C169.08,95.3,162.4,101.98,154.15,101.99L154.15,101.99z"/>
			</g>
		</g>
	</g>
</g>
</svg>
