<?xml version="1.0" encoding="utf-8"?>
<!-- Generator: Adobe Illustrator 30.0.0, SVG Export Plug-In . SVG Version: 9.03 Build 0)  -->
<svg version="1.1" baseProfile="basic" id="Layer_1"
	 xmlns="http://www.w3.org/2000/svg" xmlns:xlink="http://www.w3.org/1999/xlink" x="0px" y="0px" width="260px" height="260px"
	 viewBox="0 0 260 260" xml:space="preserve">
<g>
	<g id="land_00000083057363275642915040000009311460689988122265_">
		<g>
			<path fill="#CBE7B9" d="M238.42,103.04l-51.22-13.73l-9.31-2.49l-38.35-10.28l0,0l-33.14-8.88
				c-13.34-3.58-27.42,2.26-34.32,14.22l-24.15,41.83l-6.38,11.05l0,0l-31.07,53.81C4.45,199,9.96,212.3,21.58,215.42l79.66,21.35
				l36.83,9.87l15.77,4.22c0.41,0.11,0.83,0.21,1.25,0.29c0.83,0.18,1.67,0.32,2.5,0.43c0.42,0.05,0.83,0.1,1.25,0.14
				c10.82,0.96,21.45-3.94,27.73-12.98c0.48-0.7,0.94-1.41,1.37-2.16l19.25-33.34l0,0l2.67-4.63l2.75-4.76l2.74-4.74l34.19-59.22
				C255.55,119.46,250.04,106.16,238.42,103.04z"/>
			<path id="XMLID_00000057850051286449244330000015848568304230828985_" fill="#CBE7B9" d="M238.42,103.04l-51.22-13.73l-9.31-2.49
				l-38.35-10.28l0,0l-4.9-1.31l2.44,73.57l86.85,25.46l25.62-44.38C255.55,119.46,250.04,106.16,238.42,103.04z"/>
			<path id="XMLID_00000070092607485733558120000007822410391219330436_" fill="#CBE7B9" d="M238.34,103.09L134.55,75.28l2.44,73.57
				l86.85,25.46l25.62-44.38C255.48,119.5,249.97,106.2,238.34,103.09z"/>
			<path fill="#CBE7B9" d="M76.2,144.06l-34.67-9.29l-31.07,53.81C4.44,199,9.95,212.3,21.58,215.42l11.63,3.12L76.2,144.06z"/>
		</g>
		<path fill="#E9F8DF" d="M227.72,167.67l-71.32-19.11c-6.17-1.65-11.2-6.12-13.54-12.06c-1.85-4.69-3.38-11.01-3.33-19.02
			c0.14-19.11-17-1.13-17-1.13c-0.96,7.76-0.26,13.94,0.68,18.17c0.55,2.5-1.73,4.69-4.2,4.03l-68.98-18.48l-8.49,14.7l34.67,9.29
			l-43,74.48l16.4,4.39l43-74.48l126.62,33.93L227.72,167.67z"/>
	</g>
	<g id="pins_00000048482536473076235740000013566027423693815985_">
		<g>
			<g>
				<path fill="#FF4365" d="M174.47,187.35c-2.41-4.65-6.56-8.15-11.56-9.74c-1.94-0.6-3.95-0.9-5.96-0.9c-2.01,0-4.01,0.3-5.96,0.9
					c-5,1.59-9.15,5.09-11.56,9.74c-1.47,2.79-2.23,5.91-2.23,9.09c0,12,7.68,16.68,14.27,26.98c4,6.21,2.88,9.92,5.47,9.92
					c0.01,0,0.01,0,0.02,0c0.01,0,0.01,0,0.02,0c2.59,0,1.47-3.71,5.47-9.92c6.59-10.3,14.27-14.98,14.27-26.98
					C176.7,193.26,175.93,190.15,174.47,187.35z"/>
			</g>
			<ellipse fill="#FFFFFF" cx="156.94" cy="196.47" rx="7.55" ry="7.55"/>
		</g>
		<g>
			<g>
				<path fill="#FF4365" d="M241.6,91.01c-2.41-4.65-6.56-8.15-11.56-9.74c-1.94-0.6-3.95-0.9-5.96-0.9c-2.01,0-4.01,0.3-5.96,0.9
					c-5,1.59-9.15,5.09-11.56,9.74c-1.47,2.79-2.23,5.91-2.23,9.09c0,12,7.68,16.68,14.27,26.98c4,6.21,2.88,9.92,5.47,9.92
					c0.01,0,0.01,0,0.02,0c0.01,0,0.01,0,0.02,0c2.59,0,1.47-3.71,5.47-9.92c6.59-10.3,14.27-14.98,14.27-26.98
					C243.84,96.93,243.07,93.81,241.6,91.01z"/>
			</g>
			<ellipse fill="#FFFFFF" cx="224.08" cy="100.13" rx="7.55" ry="7.55"/>
		</g>
		<g>
			<g>
				<path fill="#FF4365" d="M51.39,141.55c-2.41-4.65-6.56-8.15-11.56-9.74c-1.94-0.6-3.95-0.9-5.96-0.9c-2.01,0-4.01,0.3-5.96,0.9
					c-5,1.59-9.15,5.09-11.56,9.74c-1.47,2.79-2.23,5.91-2.23,9.09c0,12,7.68,16.68,14.27,26.98c4,6.21,2.88,9.92,5.47,9.92
					c0.01,0,0.01,0,0.02,0c0.01,0,0.01,0,0.02,0c2.59,0,1.47-3.71,5.47-9.92c6.59-10.3,14.27-14.98,14.27-26.98
					C53.62,147.47,52.86,144.35,51.39,141.55z"/>
			</g>
			<ellipse fill="#FFFFFF" cx="33.85" cy="150.67" rx="7.55" ry="7.55"/>
		</g>
	</g>
	<g id="trees_00000028299956278265520040000016635890698989684627_">
		<g>
			<path fill="#A28181" d="M194.5,134.62h-3.6h-3.6v6.71h0.01c-0.08,1.07,0.74,2.07,2.18,2.45c1.83,0.49,3.95-0.21,4.73-1.56
				c0.17-0.29,0.29-0.89,0.29-0.89V134.62z"/>
			<circle fill="#2C6854" cx="190.9" cy="128.26" r="10.35"/>
		</g>
		<g>
			<path fill="#A28181" d="M122.56,181.71h-3.78H115v7.05h0.01c-0.09,1.12,0.78,2.17,2.29,2.58c1.92,0.51,4.14-0.22,4.97-1.64
				c0.18-0.31,0.3-0.93,0.3-0.93V181.71z"/>
			<circle fill="#2C6854" cx="118.78" cy="175.02" r="11.84"/>
		</g>
		<path fill="#00A07A" d="M109.14,209.97L109.14,209.97L109.14,209.97c-0.07-0.2-0.15-0.4-0.24-0.59l-10.25-25.42l0,0
			c-0.49-1.88-2.19-3.27-4.22-3.27s-3.73,1.39-4.22,3.27l0,0l-10.25,25.42c-0.33,0.71-0.51,1.45-0.51,2.22
			c0,4.72,6.71,8.54,14.99,8.54s14.99-3.83,14.99-8.54C109.41,211.04,109.32,210.49,109.14,209.97z"/>
	</g>
	<g id="Blue_dot_00000150805811719029333660000016191165411530098847_">
		
			<ellipse transform="matrix(0.9689 -0.2475 0.2475 0.9689 -35.9691 57.8701)" fill="#4285F4" cx="212.2" cy="172.01" rx="18.94" ry="15.94"/>
	</g>
	<g id="Icon_00000170975992568933984680000015720820053478589625_">
		<g>
			<circle fill-rule="evenodd" clip-rule="evenodd" fill="#4285F4" cx="130.02" cy="67.82" r="59.65"/>
			<g>
				<path fill="#FFFFFF" d="M158.33,50.66l-4.22-4.22c-0.78-0.78-2.04-0.78-2.82,0l-16.4,16.4v-38.6c0-1.1-0.89-1.99-1.99-1.99
					h-5.97c-1.1,0-1.99,0.89-1.99,1.99v38.6l-16.4-16.4c-0.78-0.78-2.04-0.78-2.82,0l-4.22,4.22c-0.78,0.78-0.78,2.04,0,2.82l27,27
					c0.78,0.78,2.04,0.78,2.82,0l27-27C159.11,52.7,159.11,51.43,158.33,50.66z"/>
				<g>
					<path fill="#FFFFFF" d="M154.15,101.99H105.7c-8.24,0-14.93-6.68-14.93-14.93V69.81c0-1.1,0.89-1.99,1.99-1.99h5.97
						c1.1,0,1.99,0.89,1.99,1.99v17.26c0,2.75,2.23,4.97,4.97,4.97h48.45c2.75,0,4.98-2.23,4.98-4.98V69.81
						c0-1.1,0.89-1.99,1.99-1.99h5.97c1.1,0,1.99,0.89,1.99,1.99v17.26C169.08,95.3,162.39,101.99,154.15,101.99z"/>
				</g>
			</g>
		</g>
	</g>
</g>
</svg>
