<?xml version="1.0" encoding="utf-8"?>
<!-- Generator: Adobe Illustrator 22.1.0, SVG Export Plug-In . SVG Version: 6.00 Build 0)  -->
<svg version="1.1" id="Layer_1" xmlns="http://www.w3.org/2000/svg" xmlns:xlink="http://www.w3.org/1999/xlink" x="0px" y="0px"
	 width="172px" height="64px" viewBox="0 0 172 64" enable-background="new 0 0 172 64" xml:space="preserve">
<path opacity="0.4" fill="#80868B" enable-background="new    " d="M162.84,34.09l6.34-2.62l-2.04-5.11
	c-1.89-5.07-6.73-10.58-14.56-10.58c-4.37,0-8.23,1.7-11.03,3.63V3.1h-13.57v13.44h-7.78c-1.43-0.5-2.97-0.77-4.55-0.77
	c-5.63,0-10.69,3.17-13.59,7.83c-2.88-4.74-8.04-7.83-14.06-7.83c-5.97,0-11.11,3.06-14,7.74c-2.89-4.69-8.03-7.74-14-7.74
	c-4.89,0-9.22,2.05-12.22,5.37l-0.3-1.48H36.78l8.55-8.55l-2.96-2.83c-4.54-4.33-10.01-6.53-16.25-6.53
	C12.9,1.76,2.14,12.38,2.14,25.44S12.9,49.12,26.11,49.12c6.73,0,12.32-2.27,16.62-6.75c0.89-0.9,1.65-1.85,2.3-2.82
	c2.59,5.7,8.25,9.57,14.97,9.57c5.97,0,11.11-3.06,14-7.74c2.89,4.69,8.03,7.74,14,7.74c6,0,11.16-3.09,14.04-7.81
	c0.75,1.21,1.65,2.31,2.66,3.29l-5.42,2.25l1.53,3.69c1.9,4.59,6.96,9.96,14.93,9.96c8.07,0,13.78-4.63,15.5-12.15h10.3v-3.95
	c2.93,2.95,7.01,4.72,11.65,4.72c8.04,0,12.38-5.16,13.88-7.38l2.24-3.33L162.84,34.09z M33.16,33.04c-1.29,1.27-3.26,2.7-7.05,2.7
	C20.44,35.75,16,31.22,16,25.44c0-5.78,4.44-10.3,10.11-10.3c2.71,0,4.98,0.9,6.96,2.76l1.89,1.77H22.11v13.38H33.16z M60,36.13
	c-1.47,0-3.02-1.29-3.02-3.68c0-2.42,1.52-3.68,3.02-3.68s3.02,1.26,3.02,3.68C63.02,34.84,61.47,36.13,60,36.13z M88,36.13
	c-1.47,0-3.02-1.29-3.02-3.68c0-2.42,1.52-3.68,3.02-3.68s3.02,1.26,3.02,3.68C91.02,34.84,89.47,36.13,88,36.13z M116.13,36.13
	c-1.74,0-3.06-1.56-3.06-3.63c0-2.12,1.31-3.73,3.06-3.73c1.6,0,2.77,1.57,2.77,3.73C118.89,34.6,117.73,36.13,116.13,36.13z"/>
<g id="white">
	<path id="Fill-13" fill="#FFFFFF" d="M26.11,45.27c-10.85,0-19.97-8.83-19.97-19.68c0-10.85,9.12-19.68,19.97-19.68
		c6,0,10.27,2.35,13.49,5.43l-3.79,3.79c-2.3-2.16-5.42-3.84-9.7-3.84c-7.92,0-14.11,6.38-14.11,14.3s6.19,14.31,14.11,14.31
		c5.14,0,8.07-2.06,9.94-3.94c1.54-1.54,2.55-3.74,2.93-6.77H26.11v-5.38h18.1c0.19,0.96,0.29,2.11,0.29,3.36
		c0,4.03-1.11,9.03-4.66,12.58C36.39,43.35,31.97,45.27,26.11,45.27"/>
	<path id="Fill-14" fill="#FFFFFF" d="M72.49,32.59c0,7.3-5.61,12.67-12.49,12.67s-12.49-5.38-12.49-12.67
		c0-7.34,5.61-12.67,12.49-12.67S72.49,25.25,72.49,32.59L72.49,32.59z M67.02,32.59c0-4.56-3.25-7.68-7.02-7.68
		s-7.02,3.12-7.02,7.68c0,4.51,3.25,7.68,7.02,7.68S67.02,37.11,67.02,32.59L67.02,32.59z"/>
	<path id="Fill-15" fill="#FFFFFF" d="M100.49,32.59c0,7.3-5.61,12.67-12.49,12.67s-12.49-5.38-12.49-12.67
		c0-7.34,5.61-12.67,12.49-12.67S100.49,25.25,100.49,32.59L100.49,32.59z M95.02,32.59c0-4.56-3.25-7.68-7.02-7.68
		s-7.02,3.12-7.02,7.68c0,4.51,3.25,7.68,7.02,7.68S95.02,37.11,95.02,32.59L95.02,32.59z"/>
	<path id="Fill-16" fill="#FFFFFF" d="M127.79,20.69v22.75c0,9.36-5.52,13.2-12.05,13.2c-6.15,0-9.84-4.13-11.23-7.49l4.85-2.02
		c0.87,2.06,2.98,4.51,6.39,4.51c4.18,0,6.77-2.59,6.77-7.44v-1.82h-0.19c-1.25,1.54-3.65,2.88-6.67,2.88
		c-6.34,0-12.14-5.52-12.14-12.63c0-7.15,5.81-12.72,12.14-12.72c3.02,0,5.42,1.34,6.67,2.83h0.19v-2.06H127.79L127.79,20.69z
		 M122.89,32.64c0-4.46-2.98-7.73-6.77-7.73c-3.84,0-7.06,3.26-7.06,7.73c0,4.42,3.22,7.63,7.06,7.63
		C119.92,40.28,122.89,37.06,122.89,32.64L122.89,32.64z"/>
	<polygon id="Fill-17" fill="#FFFFFF" points="131.98,7.25 137.55,7.25 137.55,44.5 131.98,44.5 	"/>
	<path id="Fill-18" fill="#FFFFFF" d="M159.44,36.77l4.32,2.88c-1.39,2.06-4.75,5.62-10.56,5.62c-7.2,0-12.4-5.57-12.4-12.67
		c0-7.54,5.25-12.67,11.78-12.67c6.58,0,9.79,5.23,10.85,8.06l0.58,1.44l-16.95,7.01c1.3,2.54,3.31,3.84,6.15,3.84
		S158,38.88,159.44,36.77L159.44,36.77z M146.14,32.21l11.33-4.71c-0.62-1.58-2.5-2.69-4.7-2.69
		C149.94,24.82,146,27.31,146.14,32.21L146.14,32.21z"/>
</g>
</svg>
