<svg xmlns="http://www.w3.org/2000/svg" x="0px" y="0px"
	 width="86px" height="32px" viewBox="0 0 86 32" enable-background="new 0 0 86 32" xml:space="preserve">
<path opacity="0.25" fill="#000000" d="M59.58,16.68c0-1.15-0.63-1.86-1.38-1.86c-0.83,0-1.53,0.75-1.53,1.86c0,1.08,0.69,1.82,1.53,1.82
	C58.96,18.5,59.58,17.81,59.58,16.68z M45.65,16.66c0-1.12-0.68-1.84-1.51-1.84s-1.51,0.72-1.51,1.84c0,1.11,0.69,1.84,1.51,1.84
	S45.65,17.77,45.65,16.66z M31.64,16.66c0-1.12-0.68-1.84-1.51-1.84s-1.51,0.72-1.51,1.84c0,1.11,0.69,1.84,1.51,1.84
	S31.64,17.77,31.64,16.66z M16.67,9.38C15.71,8.48,14.6,8,13.19,8c-2.83,0-5.06,2.27-5.06,5.15c0,2.88,2.23,5.15,5.06,5.15
	c1.61,0,2.62-0.46,3.52-1.35h-5.52v-6.69h6.43L16.67,9.38z M76.42,8.32c3.69,0,6.2,2.37,7.28,5.29l1.02,2.56l-3.17,1.31l3.24,2.16
	l-1.12,1.67c-1.44,2.14-3.8,3.69-6.94,3.69c-2.32,0-4.36-0.9-5.83-2.38v2h-5.15c-0.87,3.87-3.81,6.07-7.76,6.07
	c-3.54,0-6.29-2.14-7.46-4.98l-0.76-1.84l2.7-1.12c-0.5-0.49-0.95-1.04-1.32-1.64C49.7,23.46,47.12,25,44.13,25
	c-2.98,0-5.55-1.52-7-3.87c-1.45,2.35-4.03,3.87-7,3.87c-3.35,0-6.19-1.93-7.49-4.79c-0.33,0.51-0.71,0.98-1.15,1.41
	C19.34,23.87,16.59,25,13.19,25C6.64,25,1.21,19.67,1.21,13.16c0-6.51,5.44-11.84,11.98-11.84c3.26,0,5.93,1.17,8.13,3.27L22.8,6
	l-4.28,4.27h5.35L24.02,11c1.5-1.66,3.67-2.68,6.11-2.68c2.98,0,5.55,1.51,7,3.86c1.45-2.35,4.02-3.86,7-3.86
	c3,0,5.58,1.53,7.03,3.9c1.45-2.34,3.99-3.9,6.8-3.9c0.8,0,1.57,0.14,2.27,0.38h3.89V1.99h6.78v8.61
	C72.31,9.17,74.24,8.32,76.42,8.32z"/>
<path opacity="0.4" fill="#FFFFFF" d="M13.19,23.07c-5.42,0-9.98-4.42-9.98-9.84
	c0-5.42,4.56-9.84,9.98-9.84c3,0,5.14,1.18,6.75,2.71L18.04,8c-1.15-1.08-2.71-1.92-4.85-1.92c-3.96,0-7.06,3.19-7.06,7.15
	s3.1,7.15,7.06,7.15c2.57,0,4.03-1.03,4.97-1.97c0.77-0.77,1.27-1.87,1.46-3.38h-6.43v-2.69h9.05c0.1,0.48,0.15,1.06,0.15,1.68
	c0,2.02-0.55,4.51-2.33,6.29C18.33,22.11,16.12,23.07,13.19,23.07"/>
<path opacity="0.4" fill="#FFFFFF" d="M33.64,16.73c0-2.28-1.63-3.84-3.51-3.84
	c-1.89,0-3.51,1.56-3.51,3.84c0,2.26,1.63,3.84,3.51,3.84C32.02,20.57,33.64,18.99,33.64,16.73z M36.38,16.73
	c0,3.65-2.81,6.34-6.24,6.34s-6.25-2.69-6.25-6.34c0-3.67,2.81-6.34,6.25-6.34S36.38,13.06,36.38,16.73z"/>
<path opacity="0.4" fill="#FFFFFF" d="M47.65,16.73c0-2.28-1.63-3.84-3.51-3.84
	s-3.51,1.56-3.51,3.84c0,2.26,1.63,3.84,3.51,3.84S47.65,18.99,47.65,16.73z M50.38,16.73c0,3.65-2.8,6.34-6.24,6.34
	s-6.24-2.69-6.24-6.34c0-3.67,2.8-6.34,6.24-6.34S50.38,13.06,50.38,16.73z"/>
<path opacity="0.4" fill="#FFFFFF" d="M61.58,16.76c0-2.23-1.49-3.86-3.38-3.86
	c-1.92,0-3.53,1.63-3.53,3.86c0,2.21,1.61,3.82,3.53,3.82C60.09,20.57,61.58,18.97,61.58,16.76z M64.03,10.78v11.38
	c0,4.68-2.76,6.6-6.02,6.6c-3.07,0-4.92-2.06-5.62-3.74l2.42-1.01c0.43,1.03,1.49,2.26,3.19,2.26c2.09,0,3.39-1.3,3.39-3.72v-0.91
	h-0.1c-0.62,0.77-1.82,1.44-3.34,1.44c-3.17,0-6.07-2.76-6.07-6.31c0-3.58,2.9-6.36,6.07-6.36c1.51,0,2.71,0.67,3.34,1.42h0.1v-1.03
	H64.03z"/>
<rect x="66.12" y="4.06" opacity="0.4" fill="#FFFFFF" width="2.78" height="18.62"/>
<path opacity="0.4" fill="#FFFFFF" d="M73.2,16.54l5.67-2.35
	c-0.31-0.79-1.25-1.34-2.35-1.34C75.1,12.84,73.13,14.09,73.2,16.54z M79.85,18.82l2.16,1.44c-0.69,1.03-2.38,2.81-5.28,2.81
	c-3.6,0-6.2-2.78-6.2-6.34c0-3.77,2.62-6.34,5.89-6.34c3.29,0,4.9,2.62,5.42,4.03l0.29,0.72l-8.47,3.5
	c0.65,1.27,1.66,1.92,3.07,1.92S79.13,19.88,79.85,18.82z"/>
</svg>
