<svg xmlns="http://www.w3.org/2000/svg" x="0px" y="0px"
	 width="86px" height="32px" viewBox="0 0 86 32" enable-background="new 0 0 86 32" xml:space="preserve">
<path opacity="0.6" fill="#FFFFFF" d="M59.58,16.68c0-1.15-0.63-1.86-1.38-1.86c-0.83,0-1.53,0.75-1.53,1.86
	c0,1.08,0.69,1.82,1.53,1.82C58.96,18.5,59.58,17.81,59.58,16.68z M45.65,16.66c0-1.12-0.68-1.84-1.51-1.84s-1.51,0.72-1.51,1.84
	c0,1.11,0.69,1.84,1.51,1.84S45.65,17.77,45.65,16.66z M31.64,16.66c0-1.12-0.68-1.84-1.51-1.84s-1.51,0.72-1.51,1.84
	c0,1.11,0.69,1.84,1.51,1.84S31.64,17.77,31.64,16.66z M16.67,9.38C15.71,8.48,14.6,8,13.19,8c-2.83,0-5.06,2.27-5.06,5.15
	c0,2.88,2.23,5.15,5.06,5.15c1.61,0,2.62-0.46,3.52-1.35h-5.52v-6.69h6.43L16.67,9.38z M76.42,8.32c3.69,0,6.2,2.37,7.28,5.29
	l1.02,2.56l-3.17,1.31l3.24,2.16l-1.12,1.67c-1.44,2.14-3.8,3.69-6.94,3.69c-2.32,0-4.36-0.9-5.83-2.38v2h-5.15
	c-0.87,3.87-3.81,6.07-7.76,6.07c-3.54,0-6.29-2.14-7.46-4.98l-0.76-1.84l2.7-1.12c-0.5-0.49-0.95-1.04-1.32-1.64
	C49.7,23.46,47.12,25,44.13,25c-2.98,0-5.55-1.52-7-3.87c-1.45,2.35-4.03,3.87-7,3.87c-3.35,0-6.19-1.93-7.49-4.79
	c-0.33,0.51-0.71,0.98-1.15,1.41C19.34,23.87,16.59,25,13.19,25C6.64,25,1.21,19.67,1.21,13.16c0-6.51,5.44-11.84,11.98-11.84
	c3.26,0,5.93,1.17,8.13,3.27L22.8,6l-4.28,4.27h5.35L24.02,11c1.5-1.66,3.67-2.68,6.11-2.68c2.98,0,5.55,1.51,7,3.86
	c1.45-2.35,4.02-3.86,7-3.86c3,0,5.58,1.53,7.03,3.9c1.45-2.34,3.99-3.9,6.8-3.9c0.8,0,1.57,0.14,2.27,0.38h3.89V1.99h6.78v8.61
	C72.31,9.17,74.24,8.32,76.42,8.32z"/>
<path fill="#4285F4" d="M13.26,23.16c-5.42,0-9.98-4.41-9.98-9.83
	c0-5.42,4.56-9.83,9.98-9.83c3,0,5.14,1.17,6.75,2.71l-1.9,1.89C16.96,7.04,15.4,6.2,13.26,6.2c-3.96,0-7.06,3.19-7.06,7.14
	s3.1,7.14,7.06,7.14c2.57,0,4.03-1.03,4.97-1.97c0.77-0.77,1.27-1.87,1.46-3.38h-6.43v-2.68h9.05c0.1,0.48,0.15,1.05,0.15,1.68
	c0,2.01-0.55,4.51-2.33,6.28C18.4,22.21,16.19,23.16,13.26,23.16"/>
<path fill="#EA4335" d="M33.72,16.84c0-2.28-1.63-3.83-3.51-3.83
	c-1.89,0-3.51,1.56-3.51,3.83c0,2.25,1.63,3.84,3.51,3.84C32.09,20.67,33.72,19.09,33.72,16.84z M36.45,16.84
	c0,3.64-2.81,6.33-6.24,6.33s-6.25-2.68-6.25-6.33c0-3.67,2.81-6.33,6.25-6.33S36.45,13.17,36.45,16.84z"/>
<path fill="#FBBC05" d="M47.72,16.84c0-2.28-1.63-3.83-3.51-3.83s-3.51,1.56-3.51,3.83
	c0,2.25,1.63,3.84,3.51,3.84S47.72,19.09,47.72,16.84z M50.45,16.84c0,3.64-2.8,6.33-6.24,6.33s-6.24-2.68-6.24-6.33
	c0-3.67,2.8-6.33,6.24-6.33S50.45,13.17,50.45,16.84z"/>
<path fill="#4285F4" d="M61.65,16.86c0-2.23-1.49-3.86-3.38-3.86
	c-1.92,0-3.53,1.63-3.53,3.86c0,2.21,1.61,3.81,3.53,3.81C60.16,20.67,61.65,19.07,61.65,16.86z M64.1,10.89v11.36
	c0,4.67-2.76,6.59-6.02,6.59c-3.07,0-4.92-2.06-5.62-3.74l2.42-1.01c0.43,1.03,1.49,2.25,3.19,2.25c2.09,0,3.39-1.29,3.39-3.71
	v-0.91h-0.1c-0.62,0.77-1.82,1.44-3.34,1.44c-3.17,0-6.07-2.76-6.07-6.3c0-3.57,2.9-6.35,6.07-6.35c1.51,0,2.71,0.67,3.34,1.41h0.1
	v-1.03H64.1z"/>
<rect x="66.2" y="4.18" fill="#34A853" width="2.78" height="18.6"/>
<path fill="#EA4335" d="M73.28,16.65l5.66-2.35c-0.31-0.79-1.25-1.34-2.35-1.34
	C75.17,12.96,73.21,14.2,73.28,16.65z M79.93,18.92l2.16,1.44c-0.69,1.03-2.38,2.8-5.28,2.8c-3.6,0-6.2-2.78-6.2-6.33
	c0-3.76,2.62-6.33,5.89-6.33c3.29,0,4.9,2.61,5.42,4.03l0.29,0.72l-8.47,3.5c0.65,1.27,1.66,1.92,3.07,1.92S79.21,19.98,79.93,18.92
	z"/>
</svg>
