<?xml version="1.0" encoding="utf-8"?>
<!-- Generator: Adobe Illustrator 30.0.0, SVG Export Plug-In . SVG Version: 9.03 Build 0)  -->
<svg version="1.1" baseProfile="basic" id="Layer_1"
	 xmlns="http://www.w3.org/2000/svg" xmlns:xlink="http://www.w3.org/1999/xlink" x="0px" y="0px" width="120px" height="120px"
	 viewBox="0 0 120 120" xml:space="preserve">
<g>
	<g id="Container">
		<g>
			<path fill="#FFD800" d="M24.79,40.33h70.42c11.76,0,21.29,9.53,21.29,21.29v26.55c0,11.76-9.53,21.29-21.29,21.29H24.79
				c-11.76,0-21.29-9.53-21.29-21.29V61.62C3.5,49.86,13.03,40.33,24.79,40.33z"/>
			<path fill="#EA4434" d="M6.66,99.34c3.75,6.07,10.47,10.12,18.13,10.12h70.42c7.66,0,14.38-4.05,18.13-10.12H6.66z"/>
		</g>
	</g>
	<g id="Cup">
		<g>
			<path fill="#FFEAFD" d="M19.27,31.48l-2.8,18.32c-0.61,4.47,1.39,7.69,2.07,9.34c0.69,1.65,2.94,4.8,1.64,13.34l0,0l-1.3,8.54
				l0,0l-2.8,18.32h24.76l2.8-18.32l0,0l2.8-18.32c0.29-1.89,0.68-4.09,1.85-6.03c1.17-1.94,1.73-4.02,2.27-6.87l2.8-18.32H19.27
				L19.27,31.48z"/>
			<path fill="#FFB3FC" d="M20.12,37.92L18.23,49.8c-0.61,4.47,1.39,7.69,2.07,9.34c0.69,1.65,2.94,4.8,1.64,13.34l0,0l-1.3,8.54
				l0,0l-1.23,9.59c-0.28,2.22,1.45,4.19,3.69,4.19h16.88l1.76-13.78l0,0l2.8-18.32c0.29-1.89,0.68-4.09,1.85-6.03
				c1.17-1.94,1.73-4.02,2.27-6.87l1.89-11.88H20.12L20.12,37.92z"/>
			<path fill="#FC8BF1" d="M42.58,20.35c-3.52,0.19-4.4,2.36-4.75,4.18l-2.04,13.39h6.34l1.72-11.3l10.65-0.01l0.95-6.27
				L42.58,20.35L42.58,20.35z"/>
			<path fill="#FDDB00" d="M30.48,31.48c0.54-6.52-3.29-11.49-9.26-11.49S9.18,24.96,6.76,31.48H30.48z"/>
			<path fill="#FFFFFF" d="M27.17,25.61c-0.15-0.24-0.32-0.47-0.49-0.69l-6.97,5.94l1.33-8.71c-0.1,0-0.2-0.01-0.31-0.01
				c-0.18,0-0.37,0.01-0.55,0.02l-1.35,8.82l-5.46-5.94c-0.22,0.18-0.43,0.36-0.64,0.56l5.4,5.87h2.16L27.17,25.61L27.17,25.61z"/>
			
				<ellipse transform="matrix(0.22 -0.9755 0.9755 0.22 19.9716 71.9129)" fill="#FF4365" cx="54.96" cy="23.47" rx="3.19" ry="1.69"/>
			<path fill="#FF4365" d="M38.34,22.87l5.45,4.18l0.07-0.44h0.06l-5.38-4.13C38.47,22.61,38.4,22.74,38.34,22.87z"/>
			<path fill="#FF4365" d="M41.63,20.46l3.18,6.16h0.48l-3.22-6.22C41.92,20.41,41.77,20.43,41.63,20.46z"/>
			<polygon fill="#FF4365" points="46.33,20.35 46,26.61 46.43,26.61 46.76,20.34 			"/>
			<polygon fill="#FF4365" points="37.54,26.47 43.6,28.32 43.66,27.9 37.6,26.04 			"/>
			<polygon fill="#FF4365" points="37.04,29.71 43.39,29.71 43.45,29.28 37.11,29.28 			"/>
		</g>
	</g>
	<g id="Burger">
		<g>
			<path fill="#9F1D17" d="M62.44,38.09l0.5-1.74c0.15-0.51-0.15-1.03-0.65-1.18c-0.51-0.15-1.03,0.15-1.18,0.65l-0.5,1.74
				c-1.71-0.05-3.3,1.05-3.79,2.77c-0.49,1.72,0.26,3.5,1.74,4.37l-2.79,9.69c-0.15,0.51,0.15,1.03,0.65,1.18
				c0.51,0.15,1.03-0.15,1.18-0.65l2.79-9.69c1.71,0.05,3.3-1.05,3.79-2.77C64.67,40.73,63.91,38.95,62.44,38.09z"/>
			<path fill="#9F1D17" d="M54.64,90.97h17.69c2.23,0,4.06-1.83,4.06-4.06v-0.24c0-2.23-1.83-4.06-4.06-4.06H33.23
				c-2.23,0-4.06,1.83-4.06,4.06v0.24c0,2.23,1.83,4.06,4.06,4.06H54.64z"/>
			<path fill="#F29900" d="M71.7,90.97H33.91c-1.99,0-3.13,1.83-3.62,4.06l-0.05,0.24c-0.49,2.23,0.54,4.06,2.53,4.06h37.79
				c1.99,0,3.13-1.83,3.62-4.06l0.05-0.24C74.72,92.8,73.69,90.97,71.7,90.97L71.7,90.97z"/>
			<rect x="58.33" y="78.96" width="14.36" height="3.65"/>
			<g>
				<path fill="#FFFF00" d="M60.93,76.77c-1.06-2.27-5.42-2.5-10.03-0.65c-0.01-0.12-0.02-0.24-0.04-0.36
					c-0.58-2.96-6.32-4.33-12.81-3.05c-6.49,1.28-11.28,4.71-10.7,7.67c0.58,2.96,6.32,4.33,12.81,3.05
					c0.96-0.19,1.87-0.42,2.74-0.7c-0.37,0.92-0.41,1.79-0.07,2.53c1.15,2.44,6.13,2.52,11.13,0.18S62.07,79.21,60.93,76.77
					L60.93,76.77z"/>
				
					<ellipse transform="matrix(0.329 -0.9443 0.9443 0.329 -25.128 122.5542)" fill="#FFFF00" cx="73.68" cy="78.96" rx="3.97" ry="7.71"/>
			</g>
			<path fill="#FE5B1E" d="M73.27,68.13H36.12c-2.12,0-3.86,1.74-3.86,3.86v0.23c0,2.12,1.74,3.86,3.86,3.86h20.34
				c1.94,0,4.04,0.89,3.26,3.48c-0.69,2.28-0.42,4.75,3.31,5.09c3.91,0.36,5.02-4.16,5.06-6.15c0.04-2.1,0.91-2.41,2.32-2.41h2.86
				c2.12,0,3.86-1.74,3.86-3.86v-0.23C77.13,69.86,75.39,68.13,73.27,68.13L73.27,68.13z"/>
			<path fill="#F29900" d="M34.54,68.47c0.48-0.22,1.02-0.34,1.58-0.34h37.15c0.22,0,0.44,0.02,0.65,0.06
				c1.41-1.28,2.3-3.12,2.3-5.18c0-0.73-0.11-1.43-0.32-2.1c0,0,0,0,0-0.01c-0.01-0.03-0.02-0.07-0.03-0.1
				c-0.02-0.07-0.05-0.14-0.07-0.21c-1.19-3.32-4.75-6.66-8.39-8.6c-0.48-0.27-0.99-0.51-1.53-0.73c0,0-0.01,0-0.01-0.01l0,0
				c-3.64-1.47-8.71-1.91-14.12-0.95c-3.18,0.57-6.09,1.55-8.53,2.8c0,0,0,0,0,0c-2.63,1.15-9.5,5.73-10.91,10.28
				c-0.16,0.43-0.25,0.9-0.25,1.39C32.06,66.45,33.09,67.87,34.54,68.47L34.54,68.47z"/>
			<g>
				<path fill="#FFD066" d="M57.65,53.19h0.02l-0.64-1.37h0c-0.06-0.13-0.2-0.23-0.36-0.23s-0.29,0.09-0.36,0.23H56.3l-0.62,1.37
					l0,0c-0.06,0.14-0.1,0.29-0.1,0.45c0,0.6,0.48,1.08,1.08,1.08c0.6,0,1.08-0.48,1.08-1.08C57.74,53.48,57.71,53.33,57.65,53.19
					L57.65,53.19z"/>
				<path fill="#FFD066" d="M45.74,57.03l0.01,0.01l0.5-1.42l0,0c0.05-0.14,0.02-0.3-0.1-0.41c-0.11-0.11-0.28-0.14-0.42-0.09
					l-0.01-0.01l-1.4,0.54l0,0c-0.14,0.06-0.27,0.14-0.39,0.25c-0.42,0.43-0.41,1.11,0.01,1.53c0.43,0.42,1.11,0.41,1.53-0.01
					C45.61,57.31,45.69,57.17,45.74,57.03L45.74,57.03z"/>
				<path fill="#FFD066" d="M70.19,56.55l0.01-0.01l-1.48-0.31l0,0c-0.15-0.03-0.3,0.03-0.4,0.15c-0.09,0.13-0.1,0.29-0.03,0.42
					l0,0.01l0.72,1.31l0,0c0.07,0.13,0.17,0.25,0.3,0.35c0.48,0.36,1.15,0.26,1.51-0.22c0.36-0.48,0.26-1.15-0.22-1.51
					C70.48,56.65,70.34,56.58,70.19,56.55L70.19,56.55z"/>
				<path fill="#FFD066" d="M72.15,62.09l0.01-0.01l-1.44-0.45l0,0c-0.14-0.04-0.3,0-0.41,0.11c-0.11,0.12-0.13,0.28-0.07,0.42
					l-0.01,0.01l0.59,1.38l0,0c0.06,0.14,0.15,0.27,0.27,0.38c0.44,0.4,1.13,0.37,1.53-0.07c0.4-0.44,0.37-1.13-0.07-1.53
					C72.43,62.22,72.29,62.14,72.15,62.09L72.15,62.09z"/>
				<path fill="#FFD066" d="M62.74,59.55l0.01-0.01l-1.33-0.71l0,0c-0.13-0.07-0.3-0.06-0.42,0.04c-0.13,0.1-0.18,0.25-0.15,0.4
					l-0.01,0l0.33,1.46l0,0c0.03,0.15,0.09,0.29,0.19,0.42c0.36,0.48,1.04,0.57,1.51,0.21s0.57-1.04,0.21-1.51
					C63,59.72,62.87,59.62,62.74,59.55z"/>
				<path fill="#FFD066" d="M37.9,62.5l0.01,0.01l0.57-1.4l0,0c0.06-0.14,0.03-0.3-0.08-0.42c-0.11-0.12-0.27-0.15-0.41-0.11
					l-0.01-0.01l-1.42,0.47l0,0c-0.14,0.05-0.28,0.12-0.4,0.23c-0.44,0.4-0.47,1.09-0.06,1.53c0.4,0.44,1.09,0.47,1.53,0.06
					C37.75,62.77,37.84,62.64,37.9,62.5L37.9,62.5z"/>
				<path fill="#FFD066" d="M52.36,62.07l0.02,0.01l0.08-1.51l0,0c0.01-0.15-0.07-0.3-0.21-0.37c-0.14-0.07-0.3-0.06-0.42,0.03
					l-0.01,0l-1.19,0.91l0,0c-0.12,0.09-0.22,0.21-0.3,0.35c-0.28,0.53-0.08,1.18,0.44,1.46c0.53,0.28,1.18,0.08,1.46-0.44
					C52.31,62.37,52.35,62.22,52.36,62.07L52.36,62.07z"/>
			</g>
		</g>
	</g>
	<g id="Ice_Cream">
		<g>
			<path fill="#FF8379" d="M99.74,61.65c0,0-4.02-0.86-5.23-0.28c-0.04-1.1-0.08-1.95-0.08-1.95s-6.05-1.29-5.55,0.36
				c0.5,1.65,0.47,4.45,0.46,5.85c0,1.57,1.19,2.84,2.65,2.84s2.59-1.21,2.65-2.72c0.02,0.82,0.02,1.57,0.01,2.11
				c0,1.57,1.19,2.84,2.65,2.84s2.65-1.27,2.65-2.84C99.94,66.28,99.74,61.65,99.74,61.65L99.74,61.65z"/>
			<path fill="#C26401" d="M102.47,35.57L81.85,45.96l26.18,33.48l0,0c0.39,0.4,1.01,0.54,1.55,0.29c0.54-0.25,0.84-0.8,0.79-1.36h0
				L102.47,35.57L102.47,35.57z"/>
			<g>
				<path fill="#D17C00" d="M105.04,73.39c-0.38-0.38-0.43-0.96-0.14-1.4c0.04-0.06,0.09-0.12,0.14-0.17l3.48-3.48l-0.37-1.99
					l-4.29,4.29c-0.05,0.05-0.11,0.1-0.17,0.14c-0.12,0.08-0.26,0.14-0.4,0.16c-0.04,0.01-0.07,0.01-0.11,0.02
					c-0.07,0.01-0.14,0.01-0.21,0c-0.04,0-0.07-0.01-0.11-0.02c-0.14-0.03-0.28-0.08-0.4-0.16c-0.06-0.04-0.12-0.09-0.17-0.14
					l-5.25-5.25l8.44,10.8l3.66,3.66c0.15-0.01,0.29-0.05,0.44-0.12c0.43-0.2,0.71-0.59,0.78-1.02L105.04,73.39L105.04,73.39z"/>
				<path fill="#D17C00" d="M102.47,54.8c0.37-0.24,0.85-0.24,1.22,0c0.06,0.04,0.12,0.09,0.17,0.14l2.68,2.68l-0.53-2.89
					l-0.97-0.97c-0.05-0.05-0.1-0.11-0.14-0.17c-0.24-0.37-0.24-0.85,0-1.22c0.04-0.06,0.09-0.12,0.14-0.17l0.43-0.43l-0.37-1.99
					l-1.24,1.24c-0.38,0.38-0.96,0.43-1.4,0.14c-0.06-0.04-0.12-0.09-0.17-0.14l-7.06-7.06c-0.43-0.43-0.43-1.14,0-1.57l6.38-6.38
					l-4.74,2.39l-2.82,2.82c-0.14,0.14-0.3,0.23-0.47,0.28c-0.1,0.03-0.21,0.05-0.32,0.05v3.27c0.28,0,0.57,0.11,0.78,0.33
					l7.06,7.06c0.24,0.24,0.35,0.57,0.32,0.89c0,0.04-0.01,0.07-0.02,0.11c-0.01,0.07-0.03,0.14-0.06,0.2
					c-0.01,0.03-0.03,0.07-0.05,0.1c-0.05,0.1-0.12,0.19-0.2,0.27l-7.06,7.06c-0.11,0.11-0.24,0.2-0.38,0.25l1.24,1.59
					c0.02-0.13,0.06-0.27,0.12-0.39c0.05-0.1,0.12-0.19,0.2-0.27l7.06-7.06C102.34,54.89,102.4,54.84,102.47,54.8L102.47,54.8z"/>
				<path fill="#D17C00" d="M92.75,41.41c-0.1-0.05-0.19-0.12-0.27-0.2l-0.4-0.4l-1.57,0.79l0.79,0.79c0.43,0.43,0.43,1.14,0,1.57
					l-6.19,6.19l1.03,1.32l6.33-6.33c0.22-0.22,0.5-0.33,0.78-0.33v-3.27c-0.14,0-0.28-0.03-0.42-0.08
					C92.82,41.44,92.78,41.43,92.75,41.41L92.75,41.41z"/>
			</g>
			<path fill="#FFA9F9" d="M104.99,33.81c-0.47-1.04-1.52-1.68-2.75-1.83c-0.49-0.12-0.46-0.55-0.37-1.21
				c0.46-2.5,0.21-5.11-0.86-7.55c-3.07-6.96-11.71-9.9-19.31-6.55c-7.6,3.35-11.27,11.7-8.2,18.67c1.02,2.33,2.67,4.2,4.7,5.55l0,0
				c0,0,0.01,0.01,0.01,0.01c0.07,0.04,0.13,0.08,0.2,0.13c0.62,0.4,1.06,0.8,0.77,1.28c0,0,0,0,0,0c-0.74,1.03-0.97,2.26-0.49,3.32
				c0.79,1.75,3.2,2.38,5.39,1.4c0.75-0.34,1.37-0.81,1.84-1.37l0,0c0,0,0,0,0-0.01c0.03-0.04,0.07-0.08,0.1-0.12
				c0.37-0.43,1.02-0.82,1.84-0.79c0.03,0,0.05,0,0.07,0c0.01,0,0.02,0,0.02,0c0.01,0,0.01,0,0.02,0c0.72,0.02,1.49-0.13,2.23-0.46
				c0.75-0.34,1.37-0.82,1.84-1.37l0,0c0.01-0.01,0.01-0.02,0.02-0.03c0.02-0.03,0.05-0.06,0.07-0.09c0.37-0.43,1-0.82,1.81-0.81
				c0.76,0.04,1.59-0.1,2.38-0.46c0.75-0.34,1.37-0.82,1.84-1.37l0,0c0,0,0.01-0.01,0.01-0.01c0.03-0.04,0.06-0.07,0.09-0.11
				c0.37-0.43,1.01-0.82,1.83-0.8c0.04,0,0.07,0,0.11,0l0,0l0,0c0.73,0.02,1.5-0.13,2.24-0.46
				C104.64,37.78,105.77,35.56,104.99,33.81L104.99,33.81z"/>
			<path fill="#FF4365" d="M83.61,10.55c-1.73-0.14-3.31,0.87-4.12,2.44c-1.52-1.38-4.54-2-7.41-1.41
				c-3.78,0.78-6.11,3.35-6.41,7.06c0,0.03,0,0.05,0,0.08c0,0.03,0,0.05,0,0.07c0,0.72,0.58,1.3,1.3,1.3s1.3-0.58,1.3-1.3
				c0-0.09-0.01-0.18-0.03-0.27l0,0c-0.23-1.51-0.21-3.5,1.6-4.69c0.87-0.53,1.79-0.82,2.51-0.97c1.97-0.41,4.51-0.12,5.89,0.79
				c-2.35,0.58-4.05,2.35-4.05,4.45c0,2.57,2.57,4.66,5.74,4.66c1.3,0,2.49-0.35,3.46-0.94l0,0c1.78-0.96,3.97-3.1,4.17-6.17
				C87.75,13.02,85.99,10.74,83.61,10.55L83.61,10.55z"/>
		</g>
	</g>
	<g id="Hand_00000162335712500690042460000008274869515013877916_">
		<g>
			<path fill="#FFAFAB" d="M103.65,42.07l2.6,14.09l0.08-0.05c-0.73,0.71-1.72,1.15-2.8,1.18c-0.4,0.01-0.66-0.01-1.18-0.08
				c-3.35-0.51-6.6-1.52-9.66-3c-0.61-0.3-1.31-0.42-2.04-0.43c-2.07-0.02-4.2,1.3-3.65,4.28c0.39,2.14,2.82,3.25,5.59,3.79
				c1.39,0.27,3.59,0.88,5.99,1.75c0.89,0.33,1.75,0.74,2.55,1.23c0.22,0.15,0.44,0.31,0.66,0.48l0,0c1.5,1.03,4.08,3.35,8.23,3.69
				c0.34,0.02,0.68,0.04,1.03,0.04c2.06,0.03,3.96-0.28,5.46-0.82v-6.62C116.5,52.86,111.21,45.33,103.65,42.07L103.65,42.07z"/>
			<path fill="#FF59D4" d="M87.48,55.75c0.31-1.44,2.04-2.3,4.18-1.84c2.14,0.46,3.41,1.81,3.1,3.24c-0.31,1.44-1.82,2.48-3.96,2.03
				C88.66,58.72,87.17,57.18,87.48,55.75L87.48,55.75z"/>
		</g>
	</g>
</g>
</svg>
