<?xml version="1.0" encoding="utf-8"?>
<!-- Generator: Adobe Illustrator 30.0.0, SVG Export Plug-In . SVG Version: 9.03 Build 0)  -->
<svg version="1.1" baseProfile="basic" id="Layer_1"
	 xmlns="http://www.w3.org/2000/svg" xmlns:xlink="http://www.w3.org/1999/xlink" x="0px" y="0px" width="600px" height="200px"
	 viewBox="0 0 600 200" xml:space="preserve">
<g>
	<g id="BG_00000093164042801782979740000011655046330857464755_">
		<path fill-rule="evenodd" clip-rule="evenodd" fill="#202FB0" d="M373.91,34.47c-0.71-0.04-1.41,0.18-1.97,0.62
			c-5.36,4.23-10.29,9-14.7,14.21c-1.05,1.25-2.1,2.57-2.27,4.26c-0.08,0.8,0.09,1.62,0.57,2.27c1.06,1.43,2.87,1.25,4.47,1.29
			c1.63,0.04,3.62,0.66,3.51,2.61c-0.03,0.6-0.27,1.17-0.64,1.65c-3.2,4.18-6.63,8.17-10.27,11.96c-0.64,0.67-0.2,1.78,0.72,1.81
			l9.7,0.4c0.47,0.02,0.92-0.15,1.26-0.48c4.39-4.28,8.37-8.98,11.86-14.02c0.52-0.75,1.04-1.53,1.13-2.47
			c0.04-0.44-0.03-0.89-0.25-1.27c-0.68-1.19-2.24-1.12-3.47-0.76c-1.37,0.4-2.84,1.05-4.16,0.09c-0.7-0.51-1.11-1.33-1.18-2.2
			c-0.16-1.94,0.95-3.52,2.08-4.97c3.71-4.8,7.95-9.2,12.62-13.09c0.58-0.48,0.27-1.43-0.48-1.46L373.91,34.47z"/>
		<path fill="#FFD4F8" d="M291.96,194c-21.51-0.58-16-20.46-33.65-24.64c-11.48-2.52-18.88-15.32-15.31-26.52
			c4.82-14.4-10.01-20.67-7.03-34.53c1.02-5.75,4.25-10.71,9.12-13.94c12.95-7.93,5.62-22.26,16.81-30.97
			c10.58-9.54,23.26,0.23,33.41-11.18c7.92-8.68,22.71-8.69,30.62,0c10.06,11.37,22.9,1.67,33.41,11.18
			c4.48,3.76,7.15,9.03,7.52,14.86c0.39,15.18,16.47,16,18.41,30.04c1.02,5.75-0.33,11.51-3.8,16.22
			c-9.46,11.88,2.33,22.84-5.21,34.85c-6.68,12.58-21.94,7.74-27.58,21.93c-4.47,10.87-18.36,15.93-28.78,10.47
			c-5.82-2.88-12.77-2.88-18.59,0C298.35,193.26,295.16,194,291.96,194L291.96,194z"/>
	</g>
	<g id="Flag_00000116216354988417068080000007656735925657104304_">
		<g>
			<g>
				<path fill="#999999" d="M209.5,61.3c0,0,0.01,0,0.02-0.01l-3.67-16.88c0,0-0.01,0-0.02,0.01c0,0,0.01,0,0.02-0.01l-3.67-16.88
					c0,0-0.01,0-0.02,0.01l11,50.64c0,0,0.01-0.01,0.02-0.01l-3.67-16.88C209.52,61.3,209.51,61.3,209.5,61.3L209.5,61.3z"/>
				<path fill="#455EE3" d="M205.85,44.41l3.67,16.88c5.5-2.79,12.44-6.47,18.62-9.23l-3.6-16.91
					C218.34,37.92,211.37,41.61,205.85,44.41L205.85,44.41z"/>
				<path fill="#202FB0" d="M228.54,33.47c-1.28,0.5-2.62,1.07-4,1.69l3.6,16.91c1.38-0.62,2.72-1.19,4-1.69
					c5.15-2.03,10.42-3.73,15.86-4.85l-3.59-16.89C238.96,29.75,233.69,31.44,228.54,33.47L228.54,33.47z"/>
				<path fill="#202FB0" d="M209.52,61.29l3.67,16.88c5.47-2.78,12.39-6.43,18.55-9.18l-3.6-16.93
					C221.96,54.82,215.01,58.5,209.52,61.29L209.52,61.29z"/>
				<path fill="#455EE3" d="M232.13,50.37c-1.28,0.5-2.62,1.08-4,1.69l3.6,16.93c1.38-0.61,2.72-1.18,4-1.69
					c5.15-2.03,10.42-3.73,15.86-4.88l-3.6-16.9C242.56,46.65,237.29,48.34,232.13,50.37L232.13,50.37z"/>
				<path fill="#202FB0" d="M224.54,35.15l-3.59-16.89c-6.23,2.76-13.22,6.45-18.76,9.27l3.67,16.88
					C211.37,41.61,218.34,37.92,224.54,35.15L224.54,35.15z"/>
				<path fill="#455EE3" d="M228.54,33.47c5.15-2.03,10.42-3.72,15.87-4.84l-3.59-16.89c-5.44,1.13-10.71,2.82-15.87,4.84
					c-1.28,0.5-2.62,1.07-4,1.68l3.59,16.89C225.92,34.54,227.26,33.97,228.54,33.47L228.54,33.47z"/>
			</g>
			<path fill="#202FB0" d="M246.85,25.99c0,0,0.01-0.01,0.02-0.02c2.53-2.07,12.72-8.44,12.32-12.51l-0.08-0.38
				c-0.17-0.6-0.61-1.14-1.37-1.6c-2.76-1.45-7.34-1.23-11.3-0.7c-1.53,0.2-2.97,0.45-4.18,0.67c-0.49,0.09-0.98,0.19-1.46,0.29
				l3.45,16.2C245.27,27.18,246.18,26.52,246.85,25.99L246.85,25.99L246.85,25.99z"/>
			<g>
				<path fill="#5193FF" d="M252.11,76.31c3.18-0.69,6.36-1.74,9.42-3.07l-3.6-16.91c-3.08,1.34-6.29,2.4-9.49,3.1
					c-3.34,0.73-10.6,1.88-12.54-0.73l3.67,16.88C241.5,78.19,248.76,77.04,252.11,76.31L252.11,76.31z"/>
				<path fill="#DFF2FD" d="M248.44,59.43c3.21-0.7,6.41-1.76,9.49-3.1l-3.6-16.9c-3.11,1.34-6.34,2.4-9.57,3.12
					c-3.6,0.76-11.5,2.07-12.68-1.37l3.81,17.52C237.84,61.32,245.1,60.16,248.44,59.43L248.44,59.43z"/>
				<path fill="#DFF2FD" d="M261.53,73.24c-3.06,1.33-6.24,2.38-9.42,3.07c-3.34,0.73-10.6,1.88-12.54-0.73l3.53,16.24
					c1.18,3.43,9.08,2.13,12.68,1.37c3.15-0.7,6.31-1.73,9.36-3.03L261.53,73.24L261.53,73.24z"/>
				<path fill="#DFF2FD" d="M284.61,34.71c4.08-3.98,8.15-6.26,12.37-7.32l-3.41-16.95c-4.32,1.03-8.46,3.35-12.63,7.39
					c-2.4,2.36-4.66,4.87-6.99,7.32l3.52,16.97C279.86,39.64,282.16,37.1,284.61,34.71L284.61,34.71z"/>
				<path fill="#5193FF" d="M284.61,34.71c-2.45,2.39-4.76,4.93-7.14,7.42L281,59.15c2.43-2.53,4.78-5.13,7.28-7.56
					c3.99-3.9,7.99-6.17,12.11-7.25l-3.41-16.95C292.76,28.44,288.69,30.73,284.61,34.71L284.61,34.71z"/>
				<path fill="#DFF2FD" d="M300.39,44.34c-4.13,1.09-8.12,3.35-12.11,7.25c-2.5,2.44-4.85,5.03-7.28,7.56l3.54,17.07
					c2.48-2.59,4.87-5.25,7.4-7.75c3.93-3.8,7.82-6.07,11.85-7.18L300.39,44.34L300.39,44.34z"/>
				<path fill="#DFF2FD" d="M266.84,51.47c-2.77,1.85-5.78,3.5-8.91,4.86l3.6,16.91c3.15-1.37,6.19-3.02,8.98-4.89
					c3.98-2.66,7.3-5.88,10.49-9.2l-3.53-17.02C274.24,45.5,270.88,48.78,266.84,51.47L266.84,51.47z"/>
				<path fill="#5193FF" d="M270.51,68.35c-2.79,1.86-5.82,3.52-8.98,4.89l3.6,16.92c3.19-1.36,6.25-3.02,9.05-4.93
					c3.94-2.58,7.23-5.74,10.36-9.01L281,59.15C277.82,62.47,274.49,65.69,270.51,68.35L270.51,68.35z"/>
				<path fill="#5193FF" d="M266.84,51.47c4.04-2.7,7.4-5.97,10.63-9.34l-3.52-16.97c-3.26,3.43-6.66,6.75-10.77,9.44
					c-2.73,1.86-5.72,3.5-8.84,4.84l3.6,16.9C261.07,54.97,264.08,53.32,266.84,51.47L266.84,51.47z"/>
			</g>
			<path fill="#455EE3" d="M232.09,41.19c1.19,3.42,9.09,2.12,12.68,1.36c1.76-0.39,3.53-0.89,5.28-1.48l-3.21-15.07
				C242.99,29.01,231.29,36.8,232.09,41.19L232.09,41.19L232.09,41.19z"/>
			<path fill="#9FD5FF" d="M263.18,34.59c0.18-0.12,0.36-0.24,0.53-0.36l-4.54-20.91c0.67,4.06-9.74,10.56-12.3,12.65
				c-0.01,0-0.01,0.01-0.02,0.02l3.21,15.07c1.45-0.49,2.88-1.03,4.29-1.64l0,0C257.45,38.09,260.44,36.46,263.18,34.59
				L263.18,34.59z"/>
		</g>
		<path fill="#4F0033" d="M331.49,165.05L300.06,8.67c-0.38-1.81-2.15-2.97-3.97-2.59c-1.81,0.38-2.97,2.16-2.59,3.97l17.56,87.38
			l-1.45,0.92l-2.13,5.36l1.6,2.13l3.28-1.96l12.57,62.55c0.32,1.55,1.67,2.62,3.18,2.66c0.26,0.01,0.52-0.02,0.78-0.07
			C330.71,168.64,331.87,166.86,331.49,165.05L331.49,165.05z"/>
	</g>
	<g id="Hand_00000177483426611263593410000006728597550031851676_">
		<path fill="#640D00" d="M291.51,152.04c-5.63-11.12-15.74-12.39-20.2-9.38c-3.28,2.2-17.96,12.59-25.55,17.96
			c2.95,4.4,7.36,7.48,12.56,8.74c6.31,1.53,11.64,6,14.24,11.95c1.02,2.34,2.42,4.42,4.13,6.2c3.49-4.02,8.29-9.55,11-12.67
			C292.29,169.53,297.03,162.94,291.51,152.04L291.51,152.04z"/>
		<path fill="#640D00" d="M312.26,144.66c-0.55-5.1-2.37-10.56-8.19-14.65c-5.82-4.09-9.83,2.18-13.1,6.1
			c-0.28,0.33-0.56,0.67-0.84,0.99l0,0c0,0,11.83,4.83,11.34,22.72l0,0c1.82-1.66,3.42-2.85,5.15-3.86
			C311.44,153.12,312.8,149.75,312.26,144.66L312.26,144.66z"/>
		<g>
			<path fill="#FF4365" d="M341.9,135.53L341.9,135.53c-0.37-0.95-3.38-4.95-1.94-6.9c1.98-3.64,3.76-7.25,0.52-10.83
				c-0.97-1.27-3.22-3.21-3.05-4.99c0.4-5.12-0.48-10.34-6.65-10.72c0.8-1.72,3.74-6.43,4.41-8.1l0,0c1.43-4.25-1.94-8.91-6.45-8.83
				c-1.9,0-3.62,0.79-4.85,2.05l-13.25,13.59c10.02-22.27-11.72-27.18-11.87-9.6c0.41,7.04-2.06,10.69-6.89,15.6
				c-15.47,13.78-3.07,22.26-17.74,27.13c-6.21,2.54-7.8,5.08-7.51,11.98c5.16-3.55,6.96-5.75,13.54-4.11l0,0
				c10.4,2.79,14.33-18.39,23.92-11.79c5.83,4.1,7.65,9.56,8.19,14.65c1.33,8.78-5.08,10.13-10.79,15.15
				c-0.9,0.55-11.36,11.66-14.35,15.68c18.05,5.96,15.03-10.3,28.15-18C324.4,151.91,346.14,146.55,341.9,135.53L341.9,135.53z"/>
			<path fill="#8C0019" d="M301.46,159.81L301.46,159.81c0.49-17.89-11.34-22.72-11.34-22.72l0,0c-4.92,6.02-9.98,4.7-9.98,4.7l0,0
				c4.03,1.16,8.34,4.29,11.36,10.25c4.51,8.9,2.17,14.93-1.34,19.73C293.4,167.68,301.47,159.81,301.46,159.81L301.46,159.81z"/>
		</g>
		
			<radialGradient id="SVGID_1_" cx="16248.9785" cy="-19013.7656" r="33.9163" gradientTransform="matrix(-0.168 0.9858 0.5619 0.0957 13705.709 -14100.6035)" gradientUnits="userSpaceOnUse">
			<stop  offset="0.65" style="stop-color:#FF4365"/>
			<stop  offset="1" style="stop-color:#8C0019"/>
		</radialGradient>
		<path fill="url(#SVGID_1_)" d="M310.62,100.79l0.8-2.16c3.18-9.33,1.98-16.88-3.76-17.77c-6.18-0.96-9.24,4.48-8.91,10.33
			c0.41,7.04-2.06,10.69-6.89,15.6c-1.67,1.7-3.25,3.41-4.61,5.19l9.75,1.78L310.62,100.79L310.62,100.79z"/>
		
			<linearGradient id="SVGID_00000075155179458412103690000015971700744968983718_" gradientUnits="userSpaceOnUse" x1="302.5057" y1="-14633.5693" x2="285.3049" y2="-14614.7285" gradientTransform="matrix(1 0 0 -1 0 -14476)">
			<stop  offset="0.66" style="stop-color:#FF4365"/>
			<stop  offset="1" style="stop-color:#8C0019"/>
		</linearGradient>
		<path fill="url(#SVGID_00000075155179458412103690000015971700744968983718_)" d="M300.87,152.26c-0.04-0.19-0.08-0.38-0.12-0.56
			c-2.51-11.3-10.62-14.61-10.62-14.61l0,0c-4.92,6.02-9.98,4.7-9.98,4.7l0,0c4.03,1.16,8.34,4.29,11.36,10.25
			c0.24,0.48,0.78,1.68,0.83,1.78C294.76,159.13,301.72,157.51,300.87,152.26L300.87,152.26z"/>
		<path fill="#8C0019" d="M298.76,150.66c-2.04-4.17-6.63-1.14-4.52,2.37C296.35,156.53,300.27,153.76,298.76,150.66z"/>
	</g>
	<g id="Confetti_00000084503115671600960470000012429571472385150868_">
		<path fill-rule="evenodd" clip-rule="evenodd" fill="#5193FF" d="M388.85,93.91c3.8-2.52,6.88-6.11,8.8-10.25
			c0.41-0.88,0.11-1.93-0.71-2.44l-5.62-3.53c-0.86-0.54-2-0.31-2.59,0.52c-1.82,2.55-4,4.84-6.47,6.76c-0.83,0.65-1,1.83-0.37,2.67
			l4.36,5.82C386.86,94.28,388,94.47,388.85,93.91L388.85,93.91z"/>
		<path fill-rule="evenodd" clip-rule="evenodd" fill="#5193FF" d="M227.52,109.93c-3.71-2.64-8.17-4.24-12.72-4.55
			c-0.97-0.07-1.84,0.59-2.03,1.54l-1.29,6.51c-0.2,1,0.42,1.98,1.41,2.23c3.03,0.78,5.95,2.01,8.63,3.62
			c0.9,0.54,2.07,0.28,2.62-0.61l3.88-6.15C228.58,111.66,228.35,110.52,227.52,109.93L227.52,109.93z"/>
		<path fill-rule="evenodd" clip-rule="evenodd" fill="#9FD5FF" d="M379.83,140.86c-4.52-0.58-9.2,0.11-13.36,1.98
			c-0.88,0.4-1.34,1.39-1.06,2.31l1.93,6.35c0.3,0.98,1.31,1.54,2.3,1.3c3.04-0.74,6.19-1.03,9.32-0.87
			c1.05,0.05,1.95-0.73,2.03-1.78l0.52-7.26C381.58,141.89,380.84,140.99,379.83,140.86L379.83,140.86z"/>
		<path fill="#9FD5FF" d="M260.43,113.89c-1.63-0.04-9.28-2.16-10.64-0.97c-5.58,3.9-16.52,10.66-19.15,16.8
			c-1.1,6.17,8.25,2.06,7.97,7.16c-1.87,4.68-21.95,18.25-18.63,23.72c1.72,2.87,7.95,0.04,7.85,4.48c-0.17,1.31-1.3,2.24-2.14,3.18
			c-2.98,3.36-6.13,6.57-9.44,9.61c-1.33,0.98-0.53,2.25,1.02,2.27c2.79,0.29,5.57,0.57,8.36,0.86c3.7,0.43,12.36-10.94,15.02-13.96
			c2.31-2.39,1.22-5.5-2.36-4.59c-5.54,2.05-6.81-3.35-3.45-6.87c5.17-5.63,11.59-9.96,16.39-15.98c2.46-2.33,1.71-5.61-2.12-4.84
			c-1.43,0.25-2.98,0.75-4.21-0.36c-4.98-5.01,12.15-16.13,15.85-18.98C261.4,114.99,261.19,114.01,260.43,113.89L260.43,113.89z"/>
		<path fill-rule="evenodd" clip-rule="evenodd" fill="#202FB0" d="M323.74,180.43c-0.33-1-1.39-1.55-2.4-1.23l-6.94,2.18
			c-0.97,0.31-1.53,1.32-1.28,2.31c0.59,2.31,1.52,4.54,2.74,6.6c1.39,0.36,2.76,0.86,4.06,1.51c1.61,0.8,3.29,1.38,4.99,1.75
			l2.69-2.14c0.8-0.63,0.96-1.78,0.37-2.62C326.18,186.22,324.74,183.4,323.74,180.43L323.74,180.43z"/>
		<path fill-rule="evenodd" clip-rule="evenodd" fill="#5193FF" d="M326.77,53.05c-2.26,3.09-3.9,6.64-4.75,10.37
			c-0.25,1.08,0.33,2.17,1.37,2.55l7.08,2.6c1.09,0.4,2.29-0.12,2.76-1.19c1.38-3.18,3.21-6.15,5.42-8.82
			C334.23,58.04,330.04,56.11,326.77,53.05L326.77,53.05z"/>
	</g>
</g>
</svg>
